<svg xmlns="http://www.w3.org/2000/svg" width="465.736" height="1474.813" viewBox="0 0 465.736 1474.813">
    <g id="Dirk" transform="translate(-28.9 -34.695)">
        <g id="Group_130" transform="translate(28.9 34.695)">
            <path id="Path_593" data-name="Path 593" d="M411.978,567.915s-3.6,70.015-6.125,75.18,5.164,25.46,6.125,30.5c1.081,5.044,3.843,59.447-1.922,68.574-5.885,9.007-164.05,62.449-191.191,62.449s-114.451-33.266-115.772-39.031-21.617-30.5-15.252-96.2l-1.2-228.9L35,403.5s42.394-162.609,87.309-175.1c0,0,42.874-23.779,61.249-29.3s142.073,3.363,142.073,3.363,85.748,49.96,96.316,68.094,51.881,75.9,52.842,177.861c0,0-51.4,63.17-57.165,81.665S411.978,567.915,411.978,567.915Z" transform="translate(-27.674 -2.021)" fill="#cdd5e4"/>
            <path id="Path_594" data-name="Path 594" d="M160.782,492.408,408.058,134.164,399.891,129,158.5,477.756" transform="translate(-2.857 -15.745)" fill="#0e101a"/>
            <path id="Path_595" data-name="Path 595" d="M161.354,439.216l2.282-5.164L161.354,419.4l-5.284,3-10.929,15.973L144.3,445.7Z" transform="translate(-5.71 42.611)" fill="#fefeff"/>
            <path id="Path_596" data-name="Path 596" d="M151.737,495.688l-20.416,23.3s-7.446,3.483-11.049,0-13.09-16.213-12.49-17.894c.721-1.681,13.451-15.492,13.451-15.492l-11.889.841s-10.328,13.09-9.127,16.693,16.573,24.62,23.9,25.82l7.326,1.2,22.578-5.645s6-20.176,4.323-27.862C156.661,489.083,151.737,495.688,151.737,495.688Z" transform="translate(-14.588 55.914)" fill="#fefeff"/>
            <path id="Path_597" data-name="Path 597" d="M86.52,407.245s9.608,72.537,9.608,93.794,1.561,142.913-2.4,157.445c0,0-3.363,50.92,2.642,60.768,0,0,20.056,8.767,23.178,9.968a11.018,11.018,0,0,1,5.044,4.2l2.762,1.922,17.414,5.644s21.017,5.4,12.73,18.615c-8.407,13.331-9.007,18.014-17.174,5.764,0,0-47.558-27.262-52.241-45.876S77.753,658,75.231,621.615c-2.4-36.389-8.887-51.881-8.887-57.045s-12.25-116.132,1.441-136.308c0,0,3.363-25.1,4.323-26.781C73.189,399.92,85.2,396.8,86.52,407.245Z" transform="translate(-22.389 38.673)" fill="#b98678"/>
            <path id="Path_598" data-name="Path 598" d="M358.878,429.926l6.605,20.536s-53.2,26.061-64.011,29.544c-10.688,3.483-80.223,6.965-80.223,6.965s-36.629-44.315-43.835-45.876c-7.206-1.441-24.259-1.921-24.259-1.921h-13.21s-13.21.6-13.21,4.083,2.882,10.568,1.081,11.289c-1.681.841-18.855,13.331-15.132,20.176,0,0-10.328,9.728-6.966,13.571,0,0-4.2,9.968,2.522,12.13,6.845,2.162,19.576,1.561,25.941,5.765,0,0,16.573.48,18.735,5.765,2.282,5.4,20.416,16.213,38.07,18.615,0,0,22.218-1.321,25.58,0s113.13,16.573,159.006.721c0,0,4.444-1.561,5.765-2.162s31.585-10.208,40.352-10.328,24.86-14.531,24.86-38.671-2.162-59.087-2.162-59.087S384.458,402.3,358.878,429.926Z" transform="translate(-13.724 41.693)" fill="#b98678"/>
            <path id="Path_599" data-name="Path 599" d="M370.418,259.138s-25.1,1.561-41.553,22.458-34.227,58.246-34.227,58.246-3.843-1.441-3.122-9.247c.841-7.806,21.977-63.891,64.611-74.579C356.246,256.016,366.815,250.131,370.418,259.138Z" transform="translate(23.855 9.4)" fill="#e3e8f0"/>
            <path id="Path_600" data-name="Path 600" d="M280.036,165.3s14.652,2.042,15.732,16.693,10.088,26.9,10.088,26.9-51.4,63.77-88.27,68.094c0,0-19.455,1.2-20.056,8.887-.6,7.566-14.532,65.932-20.416,89.471s-20.536,86.829-18.975,98.118L147.21,489.437s-10.328-.48-13.21,0c0,0,47.438-205.122,54.523-217.372s-13.451-12.01-17.894-11.529c0,0-9.728-22.218-15.973-26.661,0,0,1.441-18.975,15.973-39.872,0,0,4.924-9.608,6.966-6.966S280.036,165.3,280.036,165.3Z" transform="translate(-7.78 -8.45)" fill="#e3e8f0"/>
            <path id="Path_601" data-name="Path 601" d="M93.031,413.415,28.9,387.955s4.2-13.691,7.326-18.855l54.763,27.382S92.791,410.413,93.031,413.415Z" transform="translate(-28.9 32.503)" fill="#e3e8f0"/>
            <path id="Path_602" data-name="Path 602" d="M422.174,425.661S381.462,419.9,354.2,424.34s-40.712,9.968-40.712,9.968-8.407-17.654-8.887-19.936,30.384-12.85,68.574-12.37,47.317,5.284,47.317,5.284S423.135,418.576,422.174,425.661Z" transform="translate(26.501 39.112)" fill="#e3e8f0"/>
            <path id="Path_603" data-name="Path 603" d="M336.3,510.2s-1.081,150,4.924,162.969c6.125,12.97-6.125.961-6.125.961s-7.686-135.707-4.684-161.768C330.536,512.362,329.936,510.44,336.3,510.2Z" transform="translate(31.55 60.858)" fill="#e3e8f0"/>
            <path id="Path_604" data-name="Path 604" d="M151.189,518s-22.338,1.441-22.7,5.524c0,0-.841,53.563-6.605,83.466s-7.686,102.8-7.686,102.8l2.762,1.921s4.444-72.057,20.416-96.8C137.378,614.8,149.988,574.8,151.189,518Z" transform="translate(-11.759 62.425)" fill="#e3e8f0"/>
            <path id="Path_605" data-name="Path 605" d="M256.443,190.6s12.61-9.247,10.929-15.012-11.409-8.887-11.409-8.887S245.394,189.758,256.443,190.6Z" transform="translate(15.812 -8.169)" fill="#beb9c9"/>
            <path id="Path_606" data-name="Path 606" d="M170.836,189.2s-12.97,14.652-12.13,16.933,1.922,7.206,9.728,12.49C176.361,223.787,170.836,189.2,170.836,189.2Z" transform="translate(-2.823 -3.648)" fill="#beb9c9"/>
            <path id="Path_607" data-name="Path 607" d="M68.609,1145.635l-3.122,2.282-.6,3.243s-3.843,7.926,0,10.808,25.7,24.86,68.454,16.693,34.347-15.372,62.449-16.693,73.138,3.723,72.537-16.573v-6.725l-92.833-12.37Z" transform="translate(-22.012 184.664)" fill="#aaa8a7"/>
            <path id="Path_608" data-name="Path 608" d="M231.8,1244.071l-2.762,3.483v1.8s-2.282,12.01.721,14.411,42.394,12.13,77.581,10.088,39.992-24.859,50.32-30.865c10.328-5.884,27.622-16.813,28.1-22.938s0-8.167,0-8.167v-1.8s-1.2-5.765-4.323-3.6S231.8,1244.071,231.8,1244.071Z" transform="translate(11.151 200.678)" fill="#aaa8a7"/>
            <path id="Path_609" data-name="Path 609" d="M380.7,1193.533s1.081,18.135,0,19.816S362.324,1228,362.324,1228l-3.483,4.444-4.8,3.363-4.323,4.924-4.2,3.963-7.086,5.044s-6.125,7.206-31.465,7.085c-25.46-.12-74.579-4.924-75.66-7.085,0,0,52.722-49.959,60.408-61.849C299.274,1176,376.015,1169.394,380.7,1193.533Z" transform="translate(11.772 194.891)" fill="#1e1d24"/>
            <path id="Path_610" data-name="Path 610" d="M267.349,1139.638s.841,4.563,0,5.885-3.843,5.524-13.09,6.485-55.124,1.2-70.856,5.044-32.065,13.33-60.768,11.649-53.442-11.048-55-16.093,6.245-14.532,47.678-15.252c0,0,12.25,1.562,13.331-3.723s20.176-19.7,31.1-26.421,21.737-15.012,21.737-15.012S267.829,1107.212,267.349,1139.638Z" transform="translate(-21.154 177.811)" fill="#1e1d24"/>
            <path id="Path_611" data-name="Path 611" d="M266.992,1153.513s10.929,2.522,11.529,5.4c.6,3,0,16.093,0,16.093s3,24.019-16.933,34.107c0,0,2.522,18.495-7.686,20.776s-25.22,5.525-42.153-13.21-17.294-21.257-17.294-21.257-9.007-6.245-14.772-5.284-11.529-2.522-11.529-3.723,5.765-12.49,3.723-13.211-14.772-7.446-14.171-11.889,13.451-29.543,23.659-28.1c0,0-10.448-36.989-8.046-56.445,2.522-19.455,14.531-85.267,9.007-98.838a66.576,66.576,0,0,1-4.323-27.5s-3.363-5.645-1.321-8.407,2.162-18.975-1.681-23.3c-3.723-4.2,3.243-25.94-6.725-30.744s.24-31.705.24-31.705-19.455-2.762-19.215-36.749-19.455-78.9-20.776-91.152l-1.2-12.25s7.206,7.446,9.728,3S126,702.2,126,702.2s12.01,6.485,13.691,3c1.8-3.483-3.963-11.049-8.046-13.451,0,0,61.609,7.686,82.625,6.245s5.765,11.049,5.765,11.049l9.728-11.049s107.485-20.056,128.382-39.631c21.017-19.576,32.666-11.169,33.266-6.125s1.2,109.407-6.965,138.349c0,0,8.046,68.935,7.326,100.88s-8.047,62.209-3.723,74.219,12.009,36.509,13.691,85.147c1.8,48.759,15.732,123.7,10.688,146.876s-12.97,34.467-12.73,46.957,11.169,29.183,10.929,33.507c-.24,4.2-3.963,11.529-5.885,13.931-2.042,2.522-.961,9.968-5.044,8.046-3.963-2.042-17.894-11.769-38.911-11.529s-36.269-.48-48.278,6.245c0,0,0-30.024-1.2-36.629s-6.365-1.561-6.245-8.287-.841-25.7-4.323-35.188-2.042-50.2,8.767-78.182c10.689-27.982-20.536-92.714-18.975-107.365,1.441-14.772-10.448-51.761-7.446-62.209s-7.326-31.585-7.326-31.585l-17.174-17.654,7.926,32.426-.36,152.881Z" transform="translate(-9.388 88.156)" fill="#192b49"/>
            <path id="Path_612" data-name="Path 612" d="M272.147,166.47l1.321,25.58s-24.5,34.107-49.96,48.038-32.306,27.622-32.426,32.666-4.2.6-5.044-3a70.525,70.525,0,0,0-14.171-28.222c-9.848-11.529-2.642-50.08-2.642-50.08S248.488,141.491,272.147,166.47Z" transform="translate(-1.212 -9.621)" fill="#b07f78"/>
            <path id="Path_613" data-name="Path 613" d="M287.238,133.812s3,29.063-6.245,44.2a17.7,17.7,0,0,0-4.924,11.889c-.36,7.686-38.791,45.636-64.251,45.636s-50.08-29.543-53.082-45.876c-3-16.453-5.765-42.273-4.8-47.678s14.772-70.5,14.772-70.5L209.537,42.3l60.048,13.571L291.8,95.742,290.12,130.57Z" transform="translate(-3.814 -33.167)" fill="#b98678"/>
            <path id="Path_614" data-name="Path 614" d="M156.071,106.3s-12.25.12-8.767,22.818,6.845,35.668,11.529,30.5c0,0-1.922-29.784,0-32.546C160.635,124.314,156.071,106.3,156.071,106.3Z" transform="translate(-5.232 -20.306)" fill="#b3736d"/>
            <path id="Path_615" data-name="Path 615" d="M260.273,143.813s9.487-37.47,17.654-29.423-2.4,30.985-7.326,38.43c-4.924,7.566-9.968,13.571-11.889,10.929S259.552,150.418,260.273,143.813Z" transform="translate(17.147 -18.908)" fill="#b3736d"/>
            <path id="Path_616" data-name="Path 616" d="M229.48,168.93s-2.042-5.044-22.338-5.765-26.781-1.8-26.541,0,8.767,4.924,9.367,9.968c.721,5.164,19.816,8.166,28.7,3.723S229.48,168.93,229.48,168.93Z" transform="translate(1.583 -9.077)" fill="#a16369"/>
            <path id="Path_617" data-name="Path 617" d="M244.822,126.77s-11.289-16.453-27.622-4.323C217.2,122.446,217.32,131.574,244.822,126.77Z" transform="translate(8.939 -17.958)" fill="#77443d"/>
            <path id="Path_618" data-name="Path 618" d="M199.906,122.122s-15.853-17.774-32.306,0C167.6,122.122,191.139,127.646,199.906,122.122Z" transform="translate(-1.028 -18.714)" fill="#77443d"/>
            <path id="Path_619" data-name="Path 619" d="M237.561,126.511s1.441-7.806-7.926-7.206c-9.367.48-9.968,6.125-8.647,7.206S238.4,128.793,237.561,126.511Z" transform="translate(9.595 -17.7)" fill="#bfb3ac"/>
            <path id="Path_620" data-name="Path 620" d="M190.584,122.429s.721-6.245-6.125-6.725c-6.725-.48-7.686,6.485-6.485,6.725S185.66,126.032,190.584,122.429Z" transform="translate(0.968 -18.421)" fill="#bfb3ac"/>
            <path id="Path_621" data-name="Path 621" d="M232.646,120.818s4.684,4.564.721,5.4c-4.083.841-12.13-.721-8.407-4.684C228.563,117.455,232.646,120.818,232.646,120.818Z" transform="translate(10.306 -17.651)" fill="#453f4b"/>
            <path id="Path_622" data-name="Path 622" d="M184.946,116.9s6.965,2.522,2.042,5.284C182.064,124.826,172.216,117.981,184.946,116.9Z" transform="translate(1.201 -18.176)" fill="#453f4b"/>
            <path id="Path_623" data-name="Path 623" d="M201.97,117.579s-23.539-10.448-30.384-6.966-6.485,1.561-6.485,1.561,2.882-9.488,18.495-5.4S204.252,116.138,201.97,117.579Z" transform="translate(-1.531 -20.417)" fill="#7c655c"/>
            <path id="Path_624" data-name="Path 624" d="M219.062,117.225s12.61-7.686,30.384-.721c0,0,6.365,1.922-1.2-2.882S215.339,111.341,219.062,117.225Z" transform="translate(9.239 -19.342)" fill="#7c655c"/>
            <path id="Path_625" data-name="Path 625" d="M203.777,113.6s1.441,22.938-5.284,29.543c-6.725,6.485-9.247,6.966-6.245,10.448s7.686,7.566,13.571,5.765c5.765-1.8,6.725-4.083,6.725-4.083s-.12,5.044-7.806,5.524S189,152.751,189.605,151.19s1.2-3.123,6-6.845C200.174,140.862,202.576,133.536,203.777,113.6Z" transform="translate(3.387 -18.839)" fill="#633333"/>
            <path id="Path_626" data-name="Path 626" d="M213.819,150.342s-2.762-2.642-5.164-1.921S218.022,152.744,213.819,150.342Z" transform="translate(7.156 -11.867)" fill="#633333"/>
            <path id="Path_627" data-name="Path 627" d="M210.745,166.72s.48,2.762-1.2,2.522c-1.681-.12-5.4,1.2-5.644-1.321V166.6h6.845Z" transform="translate(6.266 -8.189)" fill="#a18274"/>
            <path id="Path_628" data-name="Path 628" d="M198.21,166.7s-.721,2.882,2.882,2.762,3.963-.24,3.963-1.441V166.7Z" transform="translate(5.111 -8.169)" fill="#a18274"/>
            <path id="Path_629" data-name="Path 629" d="M229.462,168.812a82.94,82.94,0,0,0-14.051-1.441h-12.73a7.088,7.088,0,0,1-1.681-.24c-3.963-1.081-21.017-5.524-20.3-4.083,0,0,18.254,7.686,27.982,7.686C208.686,170.734,225.739,170.494,229.462,168.812Z" transform="translate(1.601 -8.96)" fill="#633333"/>
            <path id="Path_630" data-name="Path 630" d="M156.67,137.837s2.162-17.654,0-20.176-4.323,8.647-3.963,13.931C152.947,136.876,152.226,138.318,156.67,137.837Z" transform="translate(-4.029 -18.097)" fill="#633333"/>
            <path id="Path_631" data-name="Path 631" d="M273.768,122.2s4.2,8.046-6.365,19.816-6.365,6.605-6.365,6.605-.24-2.042,5.765-10.688C272.807,129.406,273.888,125.082,273.768,122.2Z" transform="translate(17.583 -17.111)" fill="#633333"/>
            <path id="Path_632" data-name="Path 632" d="M295.095,130.417s-5.885,7.326-13.931,29.183c0,0-2.282-33.747,0-35.308s-5.885-10.688-.961-24.619c4.8-13.931-13.21-37.83-20.776-39.391s-48.518,2.522-61.008-4.564c0,0-13.931,15.973-22.818,21.377,0,0-.721,14.532-13.691,43.234,0,0-1.561,22.218-5.885,26.421,0,0-7.326-56.925,12.25-80.824S204.3,34.461,222.918,34.7c18.495.24,68.094,10.929,73.979,52.6C296.536,87.182,299.418,120.209,295.095,130.417Z" transform="translate(-3.624 -34.695)" fill="#382d22"/>
            <path id="Path_633" data-name="Path 633" d="M254.617,133.754s-19.455,13.931-19.816,21.5,13.331,24.379,16.693,24.379,9.608-33.386,5.765-45.876C257.259,133.754,255.578,133.033,254.617,133.754Z" transform="translate(12.475 -14.854)" fill="#b3736d"/>
            <path id="Path_634" data-name="Path 634" d="M168.491,163.368s26.661-24.139,11.049-29.423c-15.612-5.164-21.377-2.642-21.377-2.642s-.841,34.227,0,37.83C159,172.856,168.491,163.368,168.491,163.368Z" transform="translate(-3 -15.406)" fill="#b3736d"/>
            <path id="Path_635" data-name="Path 635" d="M228.885,163.573s-4.924-12.13-11.769-15.973c0,0-.6.48,1.2,2.282,1.681,1.681,3.243.6,10.088,14.171C228.405,164.053,229.606,165.014,228.885,163.573Z" transform="translate(8.903 -12.007)" fill="#633333"/>
            <path id="Path_636" data-name="Path 636" d="M190.21,143.3s-11.889,11.769-12.009,14.772c0,0-.24,1.441,2.522-2.4C183.245,151.947,191.411,143.3,190.21,143.3Z" transform="translate(1.101 -12.871)" fill="#633333"/>
            <path id="Path_637" data-name="Path 637" d="M238.914,794.2s12.61-14.291,11.649-18.735,19.575-26.181,26.781-34.708c7.086-8.527,5.885-13.091-5.044-2.882s-26.781,24.259-26.781,34.347c0,9.968-11.049,15.973-8.767,18.975Z" transform="translate(12.806 105.434)" fill="#08080b"/>
            <path id="Path_638" data-name="Path 638" d="M339.022,682.8s-47.2,65.332-53.322,86.709C285.7,769.509,346.108,684.842,339.022,682.8Z" transform="translate(22.704 95.542)" fill="#08080b"/>
            <path id="Path_639" data-name="Path 639" d="M275.2,889.578s40.592-58.366,38.551-72.3c0,0,7.326-24.5,4.924.841S275.8,898.705,275.2,889.578Z" transform="translate(20.594 120.427)" fill="#08080b"/>
            <path id="Path_640" data-name="Path 640" d="M354.813,963.3s-12.49-32.426-45.636-33.867-44.315-2.162-41.193,0,33.747,1.321,43.234,4.2,36.749,27.021,41.313,31.7C356.974,969.9,354.813,963.3,354.813,963.3Z" transform="translate(19.043 144.828)" fill="#08080b"/>
            <path id="Path_641" data-name="Path 641" d="M350.837,1008.138s-10.568,26.541-26.181,28.1c-15.612,1.441-7.086-1.8,1.321-3C334.264,1032.037,352.158,1002.013,350.837,1008.138Z" transform="translate(28.784 160.753)" fill="#08080b"/>
            <path id="Path_642" data-name="Path 642" d="M325.758,1112.75s-30.864-61.729-37.95-62.45S334.285,1134.487,325.758,1112.75Z" transform="translate(22.998 169.391)" fill="#08080b"/>
            <path id="Path_643" data-name="Path 643" d="M354.065,1150.048s-18.375,15.252-20.056,15.131S370.4,1131.313,354.065,1150.048Z" transform="translate(32.401 188.298)" fill="#08080b"/>
            <path id="Path_644" data-name="Path 644" d="M326.458,1154.98s1.2,3.363-6.245,0-28.1-8.166-39.872-3.483.24-6.725,4.444-8.047C288.989,1142.25,314.929,1144.292,326.458,1154.98Z" transform="translate(20.616 188.049)" fill="#08080b"/>
            <path id="Path_645" data-name="Path 645" d="M379.9,1176.051s-11.529,3.362-27.622,0-23.779-7.326-31.1-7.326c-7.206,0-16.453-11.769-21.257-11.889s-17.174,1.2-19.335-.6,3.363-2.882,5.765-3.122,16.573-.361,27.021,6.365,16.813,4.684,18.855,5.284,13.09,7.686,25.34,8.287C370.053,1173.649,380.621,1169.086,379.9,1176.051Z" transform="translate(21.577 190.036)" fill="#08080b"/>
            <path id="Path_646" data-name="Path 646" d="M252.407,1144.879s-22.7-24.379-21.5-39.871c0,0-11.529,16.693-15.492,22.938,0,0-6.845,6.845-3.123-3s7.446-13.33,6-19.936,9.728-10.328,12.009-17.534.841-33.867,12.01-48.518-3.963-28.943-2.042-35.308c2.042-6.365,10.088-15.732,3.483-38.19s-15.252-41.313-14.051-67.974-8.046-70.856-9.127-78.062-9.367-32.186-9.487-49.119c0-16.934,3.963-28.463,2.282-34.708s-19.816-46.237-13.451-46.477,15.492,0,15.492,0,8.046,52.842,14.051,60.888,1.2,32.666,4.323,37.35,5.164,9.488,5.164,17.534,11.769,57.646,11.769,76.861,10.568,44.8,10.568,44.8.841,77.822-3.122,136.908S252.407,1144.879,252.407,1144.879Z" transform="translate(5.197 96.79)" fill="#08080b"/>
            <path id="Path_647" data-name="Path 647" d="M273.261,1091.468s-6.605,3.483-18.975,0-46.477-25.82-51.04-24.379-31.825,6-43.595,9.728-12.37.961,18.375-9.848,41.553.12,52.241,5.765c10.568,5.765,39.631,12.37,42.994,2.642C273.261,1075.375,276.624,1090.387,273.261,1091.468Z" transform="translate(-4.128 171.818)" fill="#08080b"/>
            <path id="Path_648" data-name="Path 648" d="M174.221,927.725s-12.97-26.061-4.323-27.5,22.7-.24,27.021-4.323c0,0,6.605,3.843-3.6,5.164C182.988,902.265,168.937,914.034,174.221,927.725Z" transform="translate(-1.164 138.364)" fill="#08080b"/>
            <path id="Path_649" data-name="Path 649" d="M173.12,895.53s-3.963,4.924-4.8,3.6,3.483-2.882,18.495-19.1,16.813-16.573,17.894-21.137c0,0,4.443-.48-2.522,7.926C195.218,875.354,173.12,895.53,173.12,895.53Z" transform="translate(-0.904 130.929)" fill="#08080b"/>
            <path id="Path_650" data-name="Path 650" d="M385.744,1211.221s-42.754,37.71-52,42.754-45.036,3.363-45.036,3.363-52.241-1.922-59.807-8.767v-1.8s8.887,7.446,52,8.527c0,0,40.952,1.681,49.839-1.922,8.887-3.483,55-44.075,55-44.075Z" transform="translate(11.29 201.342)" fill="#1e1d24"/>
            <path id="Path_651" data-name="Path 651" d="M267.955,1140.5s-13.451,7.085-22.1,7.325-53.442.961-65.932,4.443c0,0-35.908,11.169-40.352,11.169s-50.8,1.922-62.93-8.887c0,0-9.848-6.725-11.529-9.367,0,0-.961,2.642-.6,3.242s11.769,17.894,59.447,17.534a134.8,134.8,0,0,0,33.266-5.164c16.933-5.044,27.142-9.607,54.883-9.847,27.742-.36,48.278-.48,55.844-8.406Z" transform="translate(-21.76 187.517)" fill="#1e1d24"/>
            <path id="Path_652" data-name="Path 652" d="M324.721,1241.719l7.086-5.044s-18.855-17.894-26.9-18.975l-6,7.446S314.032,1231.151,324.721,1241.719Z" transform="translate(25.357 203.03)" fill="#053264"/>
            <path id="Path_653" data-name="Path 653" d="M334.141,1234.983s-19.1-18.855-25.941-20.9l5.4-7.686s16.693,12.97,24.98,23.659Z" transform="translate(27.226 200.76)" fill="#053264"/>
            <path id="Path_654" data-name="Path 654" d="M341.54,1229.128l-24.74-27.382,5.885-8.046s18.014,17.413,22.338,31.1Z" transform="translate(28.954 198.207)" fill="#053264"/>
            <circle id="Ellipse_13" data-name="Ellipse 13" cx="3.723" cy="3.723" r="3.723" transform="translate(165.491 328.826)" fill="#696c84"/>
            <circle id="Ellipse_14" data-name="Ellipse 14" cx="4.083" cy="4.083" r="4.083" transform="translate(148.678 393.317)" fill="#696c84"/>
            <circle id="Ellipse_15" data-name="Ellipse 15" cx="4.323" cy="4.323" r="4.323" transform="translate(135.107 458.408)" fill="#696c84"/>
            <circle id="Ellipse_16" data-name="Ellipse 16" cx="4.444" cy="4.444" r="4.444" transform="translate(180.863 268.538)" fill="#696c84"/>
            <circle id="Ellipse_17" data-name="Ellipse 17" cx="3.723" cy="3.723" r="3.723" transform="translate(227.58 248.242)" fill="#696c84"/>
            <circle id="Ellipse_18" data-name="Ellipse 18" cx="4.083" cy="4.083" r="4.083" transform="translate(124.058 591.714)" fill="#696c84"/>
            <path id="Path_655" data-name="Path 655" d="M148.8,496.865s-4.2,17.174-9.127,18.254-10.448,2.762-13.571,2.762l3.843-26.781S147.117,491.34,148.8,496.865Z" transform="translate(-9.368 57.019)" fill="#e3e8f0"/>
            <path id="Path_656" data-name="Path 656" d="M348.7,437.327s-15.853.36-26.9,10.208c0,0,11.649-16.453,24.139-18.735,0,0-8.166,4.924-9.728,7.566C336.091,436.486,347.14,435.285,348.7,437.327Z" transform="translate(29.959 44.5)" fill="#b07f78"/>
            <path id="Path_657" data-name="Path 657" d="M217.2,510.056s60.648,5.765,85.147,4.2,65.572-9.608,73.018-24.259c0,0-35.308,22.1-73.018,21.857C264.638,511.5,217.2,510.056,217.2,510.056Z" transform="translate(8.939 56.799)" fill="#b07f78"/>
            <path id="Path_658" data-name="Path 658" d="M149.791,480.873s-36.869-3.6-36.989-4.2c-.24-.6,4.564-2.522,10.088-2.162s27.862,4.2,31.345,3.122S158.8,480.272,149.791,480.873Z" transform="translate(-12.042 53.676)" fill="#b07f78"/>
            <path id="Path_659" data-name="Path 659" d="M116.9,463.068s10.809-3.6,17.054-1.441,19.7,2.762,21.017.36c0,0,.24-1.922-3-1.081s-13.571.721-15.973-.24C133.473,459.826,117.621,460.186,116.9,463.068Z" transform="translate(-11.216 50.824)" fill="#b07f78"/>
            <path id="Path_660" data-name="Path 660" d="M156.176,444.6s.36,3.122-7.806,3.122-22.218.24-24.259,1.081c0,0-.961-2.162,4.684-2.042C134.439,446.762,155.815,447.242,156.176,444.6Z" transform="translate(-9.78 47.675)" fill="#b07f78"/>
            <path id="Path_661" data-name="Path 661" d="M129.717,695.754,108.1,677.5S125.874,689.63,129.717,695.754Z" transform="translate(-12.985 94.477)" fill="#b07f78"/>
            <path id="Path_662" data-name="Path 662" d="M368.069,143.77s11.769-12.37,10.809-15.853l-.961-3.363,23.3-30.264s-.961-8.767,0-13.09c0,0-6.245,8.046-8.527,11.649-2.162,3.6-20.9,29.063-20.9,29.063s-2.162-2.642-3.723-.721S357.261,135,357.5,135.963s2.4,2.642,2.4,2.642Z" transform="translate(37.132 -25.35)" fill="#83989c"/>
            <path id="Path_663" data-name="Path 663" d="M393.781,92s27.742-39.992,27.862-42.273c.12-2.4-1.321-6.125-3.6-3.363s-24.5,32.906-25.941,44.8Z" transform="translate(44.085 -32.547)" fill="#8e2324"/>
            <path id="Path_664" data-name="Path 664" d="M402.627,81.106s-1.921,9.848-9.127,8.647l.36,5.044s10.809-5.4,10.809-12.61S402.627,81.106,402.627,81.106Z" transform="translate(44.367 -25.857)" fill="#8e2324"/>
        </g>
    </g>
</svg>
