<?xml version="1.0" encoding="utf-8"?>
<svg version="1.1" xmlns="http://www.w3.org/2000/svg" xmlns:xlink="http://www.w3.org/1999/xlink" x="0px" y="0px"
	 viewBox="0 0 465.7 752.2" style="enable-background:new 0 0 465.7 752.2;" xml:space="preserve">
<style type="text/css">
	.st0{display:none;}
	.st1{display:inline;fill:#F5F7F5;}
	.st2{display:inline;}
	.st3{fill:#FFFFFF;}
	.st4{fill:#E7F5FE;}
	.st5{display:inline;fill:#184B60;}
	.st6{display:inline;fill:#52A785;}
	.st7{display:inline;fill:#9CD1A7;}
	.st8{display:inline;fill:#DFEBE1;}
	.st9{display:inline;fill:#C5DDC3;}
	.st10{fill:#CDD5E4;}
	.st11{fill:#0E101A;}
	.st12{fill:#FEFEFF;}
	.st13{fill:#B98678;}
	.st14{fill:#E3E8F0;}
	.st15{fill:#BEB9C9;}
	.st16{fill:#AAA8A7;}
	.st17{fill:#1E1D24;}
	.st18{fill:#192B49;}
	.st19{fill:#B07F78;}
	.st20{fill:#B3736D;}
	.st21{fill:#A16369;}
	.st22{fill:#77443D;}
	.st23{fill:#BFB3AC;}
	.st24{fill:#453F4B;}
	.st25{fill:#7C655C;}
	.st26{fill:#633333;}
	.st27{fill:#A18274;}
	.st28{fill:#382D22;}
	.st29{fill:#08080B;}
	.st30{fill:#053264;}
	.st31{fill:#696C84;}
	.st32{fill:#83989C;}
	.st33{fill:#8E2324;}
</style>
<g id="lucht" class="st0">
	<rect x="-1640" y="-1110.4" class="st1" width="1440" height="2645.3"/>
</g>
<g id="wolken" class="st0">
	<g class="st2">
		<path class="st3" d="M-1187.5-713.5c1.5-2.9,2.3-6.2,2.3-9.7c0-10-6.7-18.4-15.8-21c0.2-1.5,0.3-3,0.3-4.5
			c0-16.7-13.6-30.3-30.3-30.3c-7.1,0-13.7,2.5-18.9,6.6c-3.9-6.1-10.8-10.2-18.6-10.2c-5,0-9.5,1.6-13.2,4.4
			c-4.9-8-13.7-13.3-23.8-13.3c-14.8,0-26.9,11.5-27.9,26.1c-4.4-2.3-9.4-3.6-14.6-3.6c-17.6,0-31.9,14.3-31.9,31.9
			c0,4.9,1.1,9.6,3.1,13.8c0,0-0.1,0-0.1,0c-13,0-23.5,10.5-23.5,23.5c0,13,10.5,23.5,23.5,23.5c5.5,0,10.5-1.9,14.5-5
			c5.7,9,15.7,15,27.1,15c9,0,17.1-3.7,22.9-9.7c8.2,9,19.9,14.6,33,14.6c11.6,0,22.1-4.4,30.1-11.6c5.9,6.5,14.5,10.6,24,10.6
			c11,0,20.8-5.5,26.6-13.9c1.8,0.6,3.8,0.9,5.8,0.9c10.7,0,19.4-8.7,19.4-19.4C-1173.5-703.7-1179.4-711.2-1187.5-713.5z"/>
		<path class="st4" d="M-1179.6-709c-0.9,1.7-2,3.3-3.4,4.7c-3.6,3.6-8.5,5.6-13.5,5.6c-5.1,0-10-2-13.5-5.6c-1-1-1.8-2-2.5-3.2
			c-4.7,4.5-11,7.2-17.9,7.2c-6.1,0-11.9-2.2-16.4-5.9c-2.2,0.8-4.5,1.3-7,1.3h-0.7c-4.1,0-7.9-1.3-11-3.4
			c-5.9,3.9-12.8,6.2-20.2,6.2c-0.3,0-0.5,0-0.8,0c-0.9,2.6-2.4,5.1-4.4,7c-3.5,3.5-8.4,5.6-13.5,5.6c-1.8,0-3.7-0.3-5.5-0.7
			c-3-0.7-6.3-2.8-8.4-4.9c0,0,0-0.1-0.1-0.1c-5.3,2.9-11.2,4.5-17.3,4.5c-8.3,0-16.4-2.9-22.8-8.2c-3.7,2.2-8,3.5-12.5,3.5
			c-11.6,0-21.5-8.4-23.9-19.3c-3.3,4.1-5.3,9.2-5.3,14.9c0,13,10.5,23.5,23.5,23.5c5.5,0,10.5-1.9,14.5-5c5.7,9,15.7,15,27.1,15
			c9,0,17.1-3.7,22.9-9.7c8.2,9,19.9,14.6,33,14.6c11.6,0,22.1-4.4,30.1-11.6c5.9,6.5,14.5,10.6,24,10.6c11,0,20.8-5.5,26.6-13.9
			c1.8,0.6,3.8,0.9,5.8,0.9c10.7,0,19.4-8.7,19.4-19.4C-1173.5-700.5-1175.8-705.5-1179.6-709z"/>
	</g>
	<g class="st2">
		<path class="st3" d="M-1068.7,295.3c-0.5,0-0.9,0-1.4,0c-1.7-12.4-12.3-22-25.1-22c-3.2,0-6.3,0.6-9.2,1.7
			c-0.7-11.9-10.6-21.4-22.7-21.4c-2.2,0-4.4,0.3-6.4,0.9c-6.6-12-19.4-20.1-34-20.1c-21.4,0-38.8,17.3-38.9,38.7
			c-7.6-7.8-18.3-12.7-30.1-12.7c-22.6,0-41.1,17.8-42.1,40.2c-2.8-1-5.7-1.5-8.8-1.5c-14.7,0-26.7,11.9-26.7,26.7
			s11.9,26.7,26.7,26.7c6,0,11.6-2,16.1-5.4c3.1,5.9,9.2,9.9,16.4,9.9c6,0,11.3-2.9,14.7-7.3c4.3,7.7,12.5,12.9,22,12.9
			c6.1,0,11.7-2.2,16-5.8c6.9,6.4,16.1,10.3,26.2,10.3c14.8,0,27.6-8.3,34.1-20.5c6.1,5.7,14.3,9.1,23.3,9.1
			c13.6,0,25.4-7.9,31-19.4c4.6,5.3,11.3,8.7,18.9,8.7c13.7,0,24.9-11.1,24.9-24.9C-1043.9,306.4-1055,295.3-1068.7,295.3z"/>
		<path class="st4" d="M-1049.6,315.3c-5.5,5.5-13,8.6-20.7,8.6c-7,0-13.8-2.5-19-7.1c-2.2,3.3-5.8,5.6-11,5.6
			c-5,0-8.6-2.2-10.8-5.3c-6.7,7.6-16.5,12.5-27.2,12.5c-10.6,0-20.2-4.7-26.9-12.1c-0.6,0.8-1.2,1.6-1.9,2.3c-3.8,3.8-9.1,6-14.5,6
			h-0.7c-4.8,0-9.4-1.7-13.1-4.7c-1.3,2.9-4.1,5.1-8.3,5.1c-5.4,0-8.4-3.7-9.1-7.8c-4.4,3.9-10.1,6.2-16.2,6.2
			c-5.4,0-10.4-1.8-14.5-4.8c-0.6,2.5-1.9,4.8-3.7,6.6c-2.6,2.6-6.2,4.1-9.9,4.1s-7.3-1.5-9.9-4.1c-0.4-0.4-0.8-0.9-1.2-1.4
			c-5.3,7.8-14.3,13-24.3,13c-8.5,0-16.3-3.8-21.7-9.7c1.2,13.6,12.6,24.3,26.6,24.3c6,0,11.6-2,16.1-5.4c3.1,5.9,9.2,9.9,16.4,9.9
			c6,0,11.3-2.9,14.7-7.3c4.3,7.7,12.5,12.9,22,12.9c6.1,0,11.7-2.2,16-5.8c6.9,6.4,16.1,10.3,26.2,10.3c14.8,0,27.6-8.3,34.1-20.5
			c6.1,5.7,14.3,9.1,23.3,9.1c13.6,0,25.4-7.9,31-19.4c4.6,5.3,11.3,8.7,18.9,8.7c13.7,0,24.9-11.1,24.9-24.9c0-3.4-0.7-6.7-1.9-9.6
			C-1046.9,312.2-1048.2,313.8-1049.6,315.3z"/>
	</g>
	<g class="st2">
		<path class="st3" d="M-1117.8,846.3c1.1-9.6-5.9-18.2-15.5-19.3c-1.5-0.2-3.1-0.1-4.5,0.1c1.2-18.4-12.3-34.7-30.8-36.8
			c-8.9-1-17.4,1.5-24.1,6.4c-3.3-14.2-15.2-25.5-30.6-27.2c-18-2-34.2,9.9-38.2,27.1c-3.2-1.6-6.7-2.7-10.5-3.1
			c-17-1.9-32.4,10.4-34.2,27.5c-0.6,5.1,0.2,10.1,1.9,14.6c-10.8,2-19.6,11-20.8,22.5c-1.5,14.1,8.7,26.8,22.8,28.4
			c2,0.2,3.9,0.2,5.8,0c4,12.2,14.9,21.6,28.6,23.1c11.3,1.2,22-3.2,29-11.1c6.6,6.6,15.4,11.2,25.4,12.3
			c15.8,1.7,30.6-5.5,39.2-17.7c4.9,5.4,11.7,9.2,19.5,10c16.9,1.8,32-10.3,33.9-27.2c0.7-6.3-0.6-12.4-3.4-17.7
			C-1120.8,855.4-1118.4,851.2-1117.8,846.3z"/>
		<path class="st4" d="M-1117.8,846.3c0.6-5.8-1.7-11.2-5.7-14.9c0,0.1,0,0.2,0,0.3c0,10.9-8.1,20.3-18.6,22.2
			c-2.3,10-11.4,17.7-22.1,17.7c-6.8,0-12.9-3.1-17.1-7.9c-2.9,5.3-8.6,9-14.9,9c-7,0-13.2-4.5-15.7-10.7c-0.8,0.8-1.7,1.5-2.6,2.1
			c-5.4,6.3-13.5,10.4-22.3,10.4c-10.2,0-19.2-5.4-24.6-13.3c-1,5-5.5,8.8-10.8,8.8h-0.7c-4.5,0-8.4-2.8-10.1-6.7
			c-3.5,2.1-7.6,3.4-11.9,3.4c-12.5,0-23-10.4-23-23c0-0.3,0-0.7,0-1c-4,4-6.8,9.3-7.5,15.4c-1.5,14.1,8.7,26.8,22.8,28.4
			c2,0.2,3.9,0.2,5.8,0c4,12.2,14.9,21.6,28.6,23.1c11.3,1.2,22-3.2,29-11.1c6.6,6.6,15.4,11.2,25.4,12.3
			c15.8,1.7,30.6-5.5,39.2-17.7c4.9,5.4,11.7,9.2,19.5,10c16.9,1.8,32-10.3,33.9-27.2c0.7-6.3-0.6-12.4-3.4-17.7
			C-1120.8,855.4-1118.4,851.2-1117.8,846.3z"/>
	</g>
	<g class="st2">
		<path class="st3" d="M-319.3-447.2c-5.8,0-11.2,1.5-15.9,4.1c0.7-2.8,1.1-5.7,1.1-8.6c0-19.7-16-35.7-35.7-35.7
			c-0.6,0-1.2,0-1.8,0c-1.3-24.9-21.9-44.6-47.1-44.6c-26.1,0-47.2,21.1-47.2,47.2c0,0.2,0,0.5,0,0.7c-2.4-0.5-4.9-0.7-7.4-0.7
			c-20.8,0-37.6,16.8-37.6,37.6c0,3.9,0.6,7.6,1.7,11.2c-13.1,3.6-22.8,15.6-22.8,29.8c0,17.1,13.8,30.9,30.9,30.9
			c7.1,0,13.5-2.4,18.7-6.3c6.4,8.9,16.8,14.7,28.6,14.7c13.8,0,25.7-8,31.5-19.6c7.5,11.8,20.7,19.6,35.7,19.6
			c12.5,0,23.7-5.4,31.4-14c3.5,3.4,8.3,5.6,13.6,5.6c5.8,0,11-2.6,14.6-6.7c2.5,0.6,5,0.9,7.7,0.9c18.3,0,33.1-14.8,33.1-33.1
			C-286.3-432.4-301.1-447.2-319.3-447.2z"/>
		<path class="st4" d="M-302.9-412c-8.6,0-16.4-4.3-21.2-10.8c-0.7,0.8-1.4,1.6-2.1,2.4c-4.9,4.9-11.7,7.7-18.7,7.7h-0.7
			c-5.2,0-10.3-1.6-14.5-4.4c-2.3,6.4-8.4,11-15.5,11c-8.3,0-15.2-6.4-16.3-14.4c-2.9,2.4-6.6,3.7-10.4,3.7h-0.7
			c-4.3,0-8.5-1.7-11.6-4.8c-0.3-0.3-0.6-0.7-1-1.1c-7.8,9.6-19.7,15.8-32.8,15.8c-7.8,0-15.2-2.2-21.5-6
			c-4.1,11.5-15.1,19.8-27.8,19.8c-16.1,0-29.5-13.4-29.5-29.5c0-0.2,0-0.4,0-0.6c-3.2,4.8-5,10.6-5,16.8
			c0,17.1,13.8,30.9,30.9,30.9c7.1,0,13.5-2.4,18.7-6.3c6.4,8.9,16.8,14.7,28.6,14.7c13.8,0,25.7-8,31.5-19.6
			c7.5,11.8,20.7,19.6,35.7,19.6c12.5,0,23.7-5.4,31.4-14c3.5,3.4,8.3,5.6,13.6,5.6c5.8,0,11-2.6,14.6-6.7c2.5,0.6,5,0.9,7.7,0.9
			c18.3,0,33.1-14.8,33.1-33.1c0-1.3-0.1-2.5-0.2-3.7C-291-414.2-296.7-412-302.9-412z"/>
	</g>
	<g class="st2">
		<path class="st3" d="M-757.1,1243.8c-0.9-13.2-12.4-23.1-25.6-22.2c-3.1,0.2-6,1-8.6,2.3c1.8-4.8,2.6-10,2.2-15.4
			c-1.5-20.4-19.2-35.8-39.6-34.4c-1.9,0.1-3.7,0.4-5.5,0.8c0-0.1,0-0.3,0-0.4c-2-27.9-26.2-48.9-54.1-46.9
			c-19.9,1.4-36.2,14.1-43.3,31.4c-4.4-1.2-9.2-1.8-14.1-1.4c-20.1,1.4-35.8,17-38.1,36.3c-5.1-1.8-10.6-2.7-16.3-2.3
			c-14.2,1-26.2,9.4-32.3,21.2c-1.2-0.2-2.5-0.3-3.8-0.2c-6.8,0.5-12.4,5-14.7,11c-2-0.3-4.1-0.4-6.2-0.3
			c-15.3,1.1-26.9,14.4-25.8,29.8c1.1,15.3,14.4,26.9,29.8,25.8c4.8-0.3,9.3-1.9,13.1-4.4c2.2,1.5,4.8,2.3,7.6,2.1
			c3-0.2,5.7-1.5,7.7-3.5c7.9,8.8,19.6,14.1,32.3,13.2c7.7-0.5,14.8-3.3,20.6-7.5c5.6,4.1,12.6,6.3,20.1,5.8
			c7.4-0.5,14-3.6,18.9-8.4c6.4,4,14.1,6.1,22.3,5.5c9.6-0.7,18-4.9,24.2-11.3c7.4,6.4,17.2,10,27.7,9.3c5-0.4,9.6-1.6,13.8-3.7
			c6.9,4.9,15.5,7.6,24.7,6.9c11.8-0.8,22-7,28.3-16c3.8,1.9,8.1,2.9,12.6,2.6C-766.1,1268.5-756.2,1257-757.1,1243.8z"/>
		<path class="st4" d="M-757.1,1243.8c-0.4-5.8-2.8-10.9-6.5-14.8c-3.1,9.9-12.4,17.3-23.2,17.3c-7.6,0-14.4-3.6-18.9-9.2
			c-0.9,1.5-2,2.8-3.3,4.1c-4.5,4.5-10.8,7.1-17.2,7.1h-0.7c-6.4,0-12.6-2.6-17.2-7.1c-0.8-0.8-1.5-1.6-2.1-2.4
			c-2.8,4.5-7.8,7.6-13.4,7.6c-5.1,0-9.6-2.5-12.5-6.3c-6,6.6-14.7,10.8-24.2,10.8c-10.4,0-19.9-5.1-25.9-12.9
			c-2.3,1.7-5.1,2.7-8.1,2.7c-4.6,0-8.7-2.3-11.2-5.8c-2.6,2.7-6.2,4.5-10.1,4.5c-0.9,0-1.8-0.1-2.6-0.3c0.3,1.2,0.5,2.4,0.5,3.7
			c0,3.7-1.5,7.2-4.1,9.8c-2.6,2.6-6.2,4.1-9.8,4.1h-0.7c-3.7,0-7.2-1.5-9.8-4.1c-1-1-1.9-2.2-2.5-3.5c-4.5,3.3-10,5.2-15.6,5.2
			h-0.7c-5.2,0-10.4-1.6-14.7-4.5c-0.7,1.5-1.7,2.9-2.9,4.1c-2.8,2.8-6.5,4.3-10.5,4.3h-0.7c-2.9,0-5.7-0.9-8.1-2.4
			c-1.8,2.1-3.9,3.9-6.2,4.9c-6.9,3-6.7,3.3-14.4,3.9c-5,0-9.7-1.3-14-3.8c-1.9-1.5-3.8-2.9-5.6-4.3c-3.9-3.9-6.5-8.9-7.6-14.3
			c-1.2,3.4-1.7,7.1-1.4,11c1.1,15.3,14.4,26.9,29.8,25.8c4.8-0.3,9.3-1.9,13.1-4.4c2.2,1.5,4.8,2.3,7.6,2.1c3-0.2,5.7-1.5,7.7-3.5
			c7.9,8.8,19.6,14.1,32.3,13.2c7.7-0.5,14.8-3.3,20.6-7.5c5.6,4.1,12.6,6.3,20.1,5.8c7.4-0.5,14-3.6,18.9-8.4
			c6.4,4,14.1,6.1,22.3,5.5c9.6-0.7,18-4.9,24.2-11.3c7.4,6.4,17.2,10,27.7,9.3c5-0.4,9.6-1.6,13.8-3.7c6.9,4.9,15.5,7.6,24.7,6.9
			c11.8-0.8,22-7,28.3-16c3.8,1.9,8.1,2.9,12.6,2.6C-766.1,1268.5-756.2,1257-757.1,1243.8z"/>
	</g>
	<g class="st2">
		<path class="st3" d="M-1379.5-154.8c-1.5,0-3.1,0.1-4.6,0.3c-7.4-15.4-23.2-26-41.5-26c-17.6,0-32.8,9.9-40.6,24.3
			c-4.8-2.5-10.3-3.9-16.1-3.9c-19.5,0-35.2,15.8-35.2,35.2c0,2.4,0.2,4.7,0.7,6.9c-4.1,3.5-6.6,8.6-6.6,14.3
			c0,10.4,8.4,18.8,18.8,18.8c1.4,0,2.8-0.2,4.1-0.5c2,8.3,9.4,14.4,18.3,14.4c6.5,0,12.2-3.3,15.6-8.2c3.7,6.5,10.7,10.9,18.8,10.9
			c5.8,0,11-2.3,14.9-6c5.5,7.7,14.6,12.7,24.8,12.7c11.1,0,20.9-6,26.2-14.9c0.8,0.1,1.7,0.1,2.5,0.1c21.7,0,39.3-17.6,39.3-39.3
			C-1340.1-137.2-1357.7-154.8-1379.5-154.8z"/>
		<path class="st4" d="M-1375.8-97.9c-7.7,0-14.9-2.5-20.8-6.8c-3.2,4.8-8.5,8-14.6,8c-6.2,0-11.7-3.4-14.8-8.3
			c-0.3,0.3-0.6,0.7-1,1c-5.5,5.5-13.1,8.6-20.9,8.6c-6.5,0-12.9-2.2-18-6.1c-0.6,1.6-1.6,3.1-2.9,4.4c-2.4,2.4-5.7,3.8-9.1,3.8
			h-1.3c-3.4,0-6.7-1.4-9.1-3.8c-0.8-0.8-1.5-1.8-2.1-2.8c-2.9,1.3-6.1,2-9.4,2h-0.5c-9.3,0-17.5-5.4-21.6-13.3
			c-1,2.3-1.6,4.9-1.6,7.6c0,10.4,8.4,18.8,18.8,18.8c1.4,0,2.8-0.2,4.1-0.5c2,8.3,9.4,14.4,18.3,14.4c6.5,0,12.2-3.3,15.6-8.2
			c3.7,6.5,10.7,10.9,18.8,10.9c5.8,0,11-2.3,14.9-6c5.5,7.7,14.6,12.7,24.8,12.7c11.1,0,20.9-6,26.2-14.9c0.8,0.1,1.7,0.1,2.5,0.1
			c21.7,0,39.3-17.6,39.3-39.3c0-3.2-0.4-6.2-1.1-9.1C-1345.3-109.4-1359.4-97.9-1375.8-97.9z"/>
	</g>
	<g class="st2">
		<path class="st3" d="M-881-946c1-3.2,1.6-6.6,1.6-10.1c0-17.9-14.5-32.4-32.4-32.4c-4.9,0-9.6,1.1-13.8,3.1
			c-5-20.8-23.7-36.3-46-36.3c-22.6,0-41.5,15.8-46.2,37c-3.8-1.6-7.9-2.5-12.3-2.5c-17.5,0-31.7,14.2-31.7,31.7
			c0,2.6,0.3,5.1,0.9,7.5c-4.2-2.1-8.9-3.3-13.9-3.3c-17,0-30.8,13.8-30.8,30.8c0,17,13.8,30.8,30.8,30.8c7.8,0,14.9-2.9,20.3-7.7
			c4.7,8.2,13.6,13.8,23.8,13.8c6.8,0,13.1-2.5,17.9-6.7c7.8,8.2,18.8,13.3,30.9,13.3c15.8,0,29.6-8.6,37-21.4
			c4.4,2.2,9.3,3.5,14.5,3.5c5.8,0,11.2-1.5,15.9-4.2c5.5,9.3,15.6,15.5,27.2,15.5c17.4,0,31.6-14.1,31.6-31.6
			C-855.8-930.4-866.6-943.1-881-946z"/>
		<path class="st4" d="M-877.3-901.6c-14.9,0-27.4-12.3-27.8-27.1c-1.9,1-4,1.6-6.2,1.6c-3.4,0-6.8-1.4-9.2-3.8
			c-1.8-1.8-3.1-4.2-3.6-6.8c-3.8,2.5-8.4,4-13.2,4c-4,0-7.7-1-11-2.7c2.4,6.7-1,15.7-10.3,15.7c-4.7,0-7.9-2.4-9.6-5.6
			c-0.6,0.7-1.2,1.4-1.9,2c-0.1,0.1-0.2,0.2-0.3,0.3c-0.1,0.1-0.2,0.2-0.3,0.3c-7.5,7.5-17.9,11.8-28.5,11.8
			c-8.4,0-16.6-2.7-23.4-7.5c-0.6,1-1.4,2-2.2,2.9c-2.9,2.9-6.9,4.6-11,4.6h-0.7c-4.1,0-8.1-1.7-11-4.6c-0.8-0.8-1.5-1.7-2.1-2.7
			c-5.2,4.7-12.1,7.6-19.5,7.6c-15.7,0-28.9-13-29.2-28.7c-4.4,5.3-7.1,12.2-7.1,19.7c0,17,13.8,30.8,30.8,30.8
			c7.8,0,14.9-2.9,20.3-7.7c4.7,8.2,13.6,13.8,23.8,13.8c6.8,0,13.1-2.5,17.9-6.7c7.8,8.2,18.8,13.3,30.9,13.3
			c15.8,0,29.6-8.6,37-21.4c4.4,2.2,9.3,3.5,14.5,3.5c5.8,0,11.2-1.5,15.9-4.2c5.5,9.3,15.6,15.5,27.2,15.5
			c16.3,0,29.7-12.3,31.4-28.2C-861.1-905.6-868.8-901.6-877.3-901.6z"/>
	</g>
	<g class="st2">
		<path class="st3" d="M-501.3,364.8c-3.5,0-6.8,0.6-9.9,1.8c0.4-1.9,0.6-3.9,0.6-6c0-16.5-13.4-30-30-30c-1.7,0-3.4,0.1-5,0.4
			c-2.8-17.1-17.6-30.2-35.5-30.2c-14.1,0-26.3,8.1-32.2,20c-3.5-2-7.5-3.2-11.8-3.2c-13,0-23.6,10.6-23.6,23.6c0,0.1,0,0.2,0,0.2
			c-1.1-0.2-2.3-0.2-3.4-0.2c-13.5,0-24.5,11-24.5,24.5c0,3.5,0.7,6.8,2.1,9.8c-12.7,1.6-22.5,12.4-22.5,25.6
			c0,14.2,11.5,25.8,25.8,25.8c8.2,0,15.6-3.9,20.3-9.9c4,4.3,9.8,7.1,16.2,7.1c4.8,0,9.3-1.6,12.9-4.2c3,2.6,6.8,4.2,11.1,4.2
			c4.2,0,8.1-1.6,11-4.2c4.6,4.3,10.8,7,17.6,7c9.2,0,17.3-4.8,21.8-12.1c5.1,5,12.1,8,19.8,8c8,0,15.3-3.3,20.5-8.7
			c5,4.4,11.6,7.1,18.8,7.1c15.6,0,28.2-12.6,28.2-28.2S-485.7,364.8-501.3,364.8z"/>
		<path class="st4" d="M-485.7,369.5c2.9,3.6,4.5,8.1,4.5,12.8v0.5c0,5.4-2.2,10.6-6,14.4c-3.8,3.8-9,6-14.4,6s-10.6-2.2-14.4-6
			c-0.4-0.4-0.8-0.8-1.1-1.3c-4.3,3.2-9.6,5-15,5h-0.5c-3.7,0-7.2-0.8-10.5-2.3c-0.4,0.6-0.9,1.2-1.5,1.7c-0.2,0.2-0.3,0.3-0.5,0.5
			c-2.6,2.6-6.3,4.1-10,4.1s-7.4-1.5-10-4.1c-2.3-2.3-3.7-5.2-4-8.4c-4.1,3.1-9.2,4.8-14.4,4.8c-5.5,0-10.8-1.9-15-5.3
			c-1.8,4.4-5.8,7.8-12,7.8c-5.2,0-8.8-2.4-11-5.8c-5.3,3.7-11.6,5.7-18,5.7c-4.1,0-8.1-0.8-11.9-2.3c-3.6,7-10.9,11.9-19.1,11.9
			c-11.7,0-21.5-9.8-21.5-21.5c0-0.8,0.1-1.7,0.2-2.5c-3.4,4.4-5.4,9.8-5.4,15.8c0,14.2,11.5,25.8,25.8,25.8
			c8.2,0,15.6-3.9,20.3-9.9c4,4.3,9.8,7.1,16.2,7.1c4.8,0,9.3-1.6,12.9-4.2c3,2.6,6.8,4.2,11.1,4.2c4.2,0,8.1-1.6,11-4.2
			c4.6,4.3,10.8,7,17.6,7c9.2,0,17.3-4.8,21.8-12.1c5.1,5,12.1,8,19.8,8c8,0,15.3-3.3,20.5-8.7c5,4.4,11.6,7.1,18.8,7.1
			c15.6,0,28.2-12.6,28.2-28.2C-473.1,383.2-478.1,374.6-485.7,369.5z"/>
	</g>
	<g class="st2">
		<path class="st3" d="M-288-1049.4c-1.5-20.3-18.4-36.2-39-36.2c-4.7,0-9.3,0.8-13.5,2.4c-6.1-15.9-21.5-27.1-39.5-27.1
			c-22.6,0-41.1,17.7-42.2,40c-1.4-0.2-2.9-0.2-4.4-0.2c-22.7,0-41.1,18.4-41.1,41.1c0,22.7,18.4,41.1,41.1,41.1
			c1.9,0,3.8-0.1,5.6-0.4c6.7,10.9,18.7,18.1,32.4,18.1c10.2,0,19.5-4,26.3-10.6c5.5,3.6,12.1,5.8,19.2,5.8
			c10.8,0,20.4-4.9,26.8-12.5c6.5,6.4,15.4,10.4,25.2,10.4c19.9,0,35.9-16.1,35.9-35.9C-255.1-1032.5-269.6-1047.9-288-1049.4z"/>
		<path class="st4" d="M-278.5-1012.6c-9.3,0-17.8-4.2-23.6-10.8c-0.5,0.7-1,1.4-1.6,2c-2.5,2.5-5.9,3.9-9.5,3.9
			c-3.5,0-7-1.4-9.5-3.9c-0.4-0.4-0.8-0.9-1.2-1.4c-6.5,7-15.8,11.5-26,11.5c-7.4,0-14.4-2.4-20.1-6.4c-4,6.1-10.9,10.2-18.5,10.2
			c-6.5,0-12.4-2.9-16.5-7.5c-4.9,2.5-10.4,3.9-16.2,3.9c-19.9,0-36.5-16.6-36.5-36.5c0-3.7,0.6-7.3,1.6-10.7
			c-7.2,7.4-11.7,17.5-11.7,28.7c0,22.7,18.4,41.1,41.1,41.1c1.9,0,3.8-0.1,5.6-0.4c6.7,10.9,18.7,18.1,32.4,18.1
			c10.2,0,19.5-4,26.3-10.6c5.5,3.6,12.1,5.8,19.2,5.8c10.8,0,20.4-4.9,26.8-12.5c6.5,6.4,15.4,10.4,25.2,10.4
			c19.9,0,35.9-16.1,35.9-35.9c0-2.9-0.4-5.8-1-8.5C-261.9-1016.3-269.8-1012.6-278.5-1012.6z"/>
	</g>
	<g class="st2">
		<path class="st3" d="M-465.6-803.9c-1.2,0-2.3,0.1-3.5,0.2c-2.9-21.7-21.5-38.4-43.9-38.4c-14.1,0-26.6,6.6-34.8,16.8
			c-6.5-4.5-14.5-7.2-23-7.2c-19,0-34.9,13-39.3,30.7c-17.1,5.5-29.5,21.6-29.5,40.5c0,23.5,19.1,42.6,42.6,42.6
			c7.7,0,15-2.1,21.2-5.7c6.2,6,14.7,9.7,24,9.7c7.1,0,13.8-2.2,19.3-5.9c5.5,3.7,12.1,5.9,19.3,5.9c10.9,0,20.6-5.1,26.9-12.9
			c6.1,3.5,13.1,5.6,20.6,5.6c22.6,0,40.9-18.3,40.9-40.9C-424.6-785.6-443-803.9-465.6-803.9z"/>
		<path class="st4" d="M-430.4-762.8c-5.5,5.5-13,8.6-20.8,8.6c-6,0-11.8-1.8-16.7-5.2c-3.1,2.5-7.1,4-11.3,4c-9,0-16.6-6.8-18-15.4
			c-3.8,1.4-7.9,2.2-12,2.2c-3.5,0-7-0.6-10.4-1.6c-2.2,10.6-11.8,18.7-23,18.7c-4.4,0-8.5-1.2-12-3.4c-1.8,6-7.4,10.5-14,10.5
			c-4.6,0-8.7-2.2-11.4-5.5c-5.5,3-11.7,4.6-18,4.6c-9.9,0-19.6-4-26.6-11c-6.3-6.3-10.1-14.6-10.9-23.4c-2.7,5.6-4.2,11.8-4.2,18.4
			c0,23.5,19.1,42.6,42.6,42.6c7.7,0,15-2.1,21.2-5.7c6.2,6,14.7,9.7,24,9.7c7.1,0,13.8-2.2,19.3-5.9c5.5,3.7,12.1,5.9,19.3,5.9
			c10.9,0,20.6-5.1,26.9-12.9c6.1,3.5,13.1,5.6,20.6,5.6c22.6,0,40.9-18.3,40.9-40.9c0-2.3-0.2-4.6-0.6-6.8
			C-426.6-767.2-428.3-764.9-430.4-762.8z"/>
	</g>
	<g class="st2">
		<path class="st3" d="M-525.4,939.6c-1.9-8.4-6.1-15.6-11.9-21.1c5.4-7.4,7.6-17,5.5-26.7c-4-17.9-21.8-29.1-39.6-25.1
			c-1.9,0.4-3.7,1-5.4,1.7c-6-17.7-24.6-28.3-43.2-24.1c-7.3,1.7-13.7,5.4-18.5,10.4c-11.5-11.6-28.4-17.2-45.5-13.3
			c-20.9,4.7-35.6,22.1-37.8,42.2c-17.3,4.3-28.2,21.6-24.2,39.1c0.3,1.3,0.7,2.6,1.1,3.8c-7.5,6.9-11.1,17.5-8.7,28.2
			c3.6,15.9,19.4,25.9,35.3,22.3c1.3-0.3,2.6-0.7,3.8-1.1c6.8,13.9,22.4,21.8,38.1,18.3c5.4-1.2,10.2-3.6,14.2-6.9
			c9.6,9.4,23.6,13.9,37.7,10.7c12.1-2.7,21.7-10.5,27.1-20.6c9.9,10.7,25.1,16,40.3,12.6C-534.6,984.9-520.3,962.3-525.4,939.6z"/>
		<path class="st4" d="M-546.7,963h-0.7c-8.2,0-16.2-3.3-22-9.1c-3.8-3.8-6.5-8.5-8-13.6c-0.2-0.7-0.4-1.4-0.5-2.1
			c-4.8,4.2-11.1,6.5-17.5,6.5h-1.3c-7,0-13.9-2.8-18.8-7.7c-0.7,1.5-1.6,2.8-2.8,4c-2.6,2.6-6.1,4-9.7,4c-2.2,0-4.3-0.5-6.3-1.5
			c0,0.1,0,0.3,0,0.4c0,3.6-1.5,7.2-4,9.7c-0.1,0.1-0.2,0.2-0.3,0.3c-0.1,0.1-0.2,0.3-0.4,0.4c-2.6,2.6-6.1,4-9.7,4
			c-3.6,0-7.2-1.5-9.7-4c-0.5-0.5-0.9-1-1.3-1.5c-0.3,0.4-0.7,0.7-1,1.1c-6,6-14.2,9.4-22.6,9.4h-0.7c-8.4,0-16.6-3.4-22.6-9.4
			c-0.6-0.6-1.1-1.2-1.6-1.8c-4.7,4-10.8,6.3-17.1,6.3c-7,0-13.7-2.8-18.7-7.7c-4.1-4.1-6.8-9.5-7.5-15.3
			c-2.9,5.8-3.9,12.7-2.3,19.5c3.6,15.9,19.4,25.9,35.3,22.3c1.3-0.3,2.6-0.7,3.8-1.1c6.8,13.9,22.4,21.8,38.1,18.3
			c5.4-1.2,10.2-3.6,14.2-6.9c9.6,9.4,23.6,13.9,37.7,10.7c12.1-2.7,21.7-10.5,27.1-20.6c9.9,10.7,25.1,16,40.3,12.6
			c17.9-4,30.5-18.9,32.6-36.1C-530.5,959.7-538.5,963-546.7,963z"/>
	</g>
	<g class="st2">
		<path class="st3" d="M-1428.8,1125.8c-1.5,0-2.9,0.1-4.4,0.4c1.4-3.4,2.1-7.2,2.1-11.1c0-16.7-13.5-30.2-30.2-30.2
			c-0.5,0-0.9,0-1.4,0c-4.9-16.8-20.4-29-38.8-29c-17.1,0-31.7,10.6-37.6,25.6c-0.9-0.1-1.9-0.1-2.8-0.1
			c-20.1,0-36.4,16.3-36.4,36.4c0,5.1,1.1,10,3,14.5c-9.6,3.5-16.5,12.7-16.5,23.5c0,13.8,11.2,25,25,25c8.3,0,15.7-4.1,20.2-10.3
			c5.6,4.9,12.8,7.9,20.8,7.9c9,0,17.2-3.8,23-9.9c6.4,7.6,15.9,12.4,26.6,12.4c10.8,0,20.4-4.9,26.7-12.6
			c4.8,6.1,12.3,10.1,20.7,10.1c14.5,0,26.2-11.7,26.2-26.2C-1402.6,1137.5-1414.3,1125.8-1428.8,1125.8z"/>
		<path class="st4" d="M-1407.9,1136.1c-2.2,10.5-11.7,18.7-22.9,18.7c-10.4,0-19.4-7.1-22.4-16.7c-4.1,2.2-8.7,3.5-13.6,3.5
			c-4.7,0-9.1-1.2-13.1-3.2c-3,9.4-12,16.4-22.3,16.4c-10.4,0-19.4-7.1-22.3-16.6c-4,1.9-8.5,2.9-13,2.9h-1.3
			c-3.2,0-6.3-0.5-9.3-1.5v0.5c0,5.5-2.2,10.8-6.1,14.7c-3.9,3.9-9.2,6.1-14.7,6.1c-5.5,0-10.8-2.2-14.7-6.1
			c-2.8-2.8-4.7-6.4-5.6-10.3c-1.7,3.4-2.7,7.2-2.7,11.3c0,13.8,11.2,25,25,25c8.3,0,15.7-4.1,20.2-10.3c5.6,4.9,12.8,7.9,20.8,7.9
			c9,0,17.2-3.8,23-9.9c6.4,7.6,15.9,12.4,26.6,12.4c10.8,0,20.4-4.9,26.7-12.6c4.8,6.1,12.3,10.1,20.7,10.1
			c14.5,0,26.2-11.7,26.2-26.2C-1402.6,1146-1404.6,1140.5-1407.9,1136.1z"/>
	</g>
	<g class="st2">
		<path class="st3" d="M-1470.1-985.9c-1-2.1-1.6-4.4-1.6-6.8c0-7,4.7-12.9,11.1-14.7c-0.2-1-0.2-2.1-0.2-3.2
			c0-11.7,9.5-21.3,21.3-21.3c5,0,9.6,1.7,13.2,4.6c2.8-4.3,7.6-7.1,13.1-7.1c3.5,0,6.7,1.1,9.3,3.1c3.5-5.6,9.6-9.3,16.7-9.3
			c10.4,0,18.9,8.1,19.6,18.3c3.1-1.6,6.6-2.5,10.3-2.5c12.3,0,22.4,10,22.4,22.4c0,3.5-0.8,6.7-2.2,9.7c0,0,0,0,0.1,0
			c9.1,0,16.5,7.4,16.5,16.5c0,9.1-7.4,16.5-16.5,16.5c-3.8,0-7.4-1.3-10.2-3.5c-4,6.3-11,10.5-19,10.5c-6.3,0-12-2.6-16.1-6.8
			c-5.7,6.3-14,10.2-23.1,10.2c-8.1,0-15.5-3.1-21.1-8.2c-4.2,4.6-10.2,7.4-16.8,7.4c-7.7,0-14.6-3.9-18.7-9.8
			c-1.3,0.4-2.7,0.6-4.1,0.6c-7.5,0-13.6-6.1-13.6-13.6C-1480-979-1475.8-984.2-1470.1-985.9z"/>
		<path class="st4" d="M-1475.7-982.7c0.6,1.2,1.4,2.3,2.4,3.3c2.5,2.5,5.9,3.9,9.5,3.9c3.5,0,7-1.4,9.5-3.9
			c0.7-0.7,1.3-1.4,1.8-2.2c3.3,3.1,7.7,5.1,12.6,5.1c4.3,0,8.3-1.5,11.5-4.1c1.5,0.6,3.2,0.9,4.9,0.9h0.5c2.8,0,5.5-0.9,7.7-2.4
			c4.1,2.7,9,4.3,14.2,4.3c0.2,0,0.4,0,0.5,0c0.7,1.8,1.7,3.5,3.1,4.9c2.5,2.5,5.9,3.9,9.4,3.9c1.3,0,2.6-0.2,3.9-0.5
			c2.1-0.5,4.4-2,5.9-3.4c0,0,0,0,0.1-0.1c3.7,2,7.9,3.1,12.1,3.1c5.8,0,11.5-2.1,16-5.8c2.6,1.6,5.6,2.5,8.8,2.5
			c8.1,0,15.1-5.9,16.8-13.5c2.3,2.8,3.7,6.5,3.7,10.4c0,9.1-7.4,16.5-16.5,16.5c-3.8,0-7.4-1.3-10.2-3.5c-4,6.3-11,10.5-19,10.5
			c-6.3,0-12-2.6-16.1-6.8c-5.7,6.3-14,10.2-23.1,10.2c-8.1,0-15.5-3.1-21.1-8.2c-4.2,4.6-10.2,7.4-16.8,7.4
			c-7.7,0-14.6-3.9-18.7-9.8c-1.3,0.4-2.7,0.6-4.1,0.6c-7.5,0-13.6-6.1-13.6-13.6C-1480-976.7-1478.3-980.2-1475.7-982.7z"/>
	</g>
	<g class="st2">
		<path class="st3" d="M-481.4,1176.8c0.3,0,0.6,0,1,0c1.2-8.7,8.6-15.4,17.6-15.4c2.3,0,4.4,0.4,6.4,1.2c0.5-8.4,7.4-15,15.9-15
			c1.6,0,3.1,0.2,4.5,0.7c4.6-8.4,13.6-14.1,23.9-14.1c15,0,27.2,12.1,27.2,27.1c5.4-5.5,12.8-8.9,21.1-8.9
			c15.9,0,28.8,12.5,29.5,28.2c1.9-0.7,4-1.1,6.2-1.1c10.3,0,18.7,8.4,18.7,18.7c0,10.3-8.4,18.7-18.7,18.7c-4.2,0-8.1-1.4-11.3-3.8
			c-2.2,4.1-6.5,7-11.5,7c-4.2,0-7.9-2-10.3-5.1c-3,5.4-8.8,9-15.4,9c-4.3,0-8.2-1.5-11.2-4c-4.8,4.5-11.3,7.2-18.4,7.2
			c-10.4,0-19.3-5.8-23.9-14.4c-4.3,4-10.1,6.4-16.4,6.4c-9.6,0-17.8-5.6-21.8-13.6c-3.2,3.7-7.9,6.1-13.2,6.1
			c-9.6,0-17.4-7.8-17.4-17.4C-498.9,1184.6-491.1,1176.8-481.4,1176.8z"/>
		<path class="st4" d="M-494.8,1190.8c3.8,3.8,9.1,6,14.5,6c4.9,0,9.7-1.8,13.4-4.9c1.5,2.3,4.1,3.9,7.7,3.9c3.5,0,6-1.5,7.6-3.7
			c4.7,5.3,11.5,8.8,19.1,8.8c7.4,0,14.2-3.3,18.9-8.5c0.4,0.6,0.9,1.1,1.4,1.6c2.7,2.7,6.4,4.2,10.2,4.2h0.5c3.3,0,6.6-1.2,9.2-3.3
			c0.9,2,2.9,3.6,5.8,3.6c3.8,0,5.9-2.6,6.4-5.4c3.1,2.7,7.1,4.4,11.4,4.4c3.8,0,7.3-1.3,10.1-3.4c0.4,1.7,1.3,3.4,2.6,4.6
			c1.8,1.8,4.3,2.9,6.9,2.9c2.6,0,5.1-1,6.9-2.9c0.3-0.3,0.6-0.6,0.8-1c3.7,5.5,10,9.1,17,9.1c6,0,11.4-2.6,15.2-6.8
			c-0.9,9.5-8.9,17-18.6,17c-4.2,0-8.1-1.4-11.3-3.8c-2.2,4.1-6.5,7-11.5,7c-4.2,0-7.9-2-10.3-5.1c-3,5.4-8.8,9-15.4,9
			c-4.3,0-8.2-1.5-11.2-4c-4.8,4.5-11.3,7.2-18.4,7.2c-10.4,0-19.3-5.8-23.9-14.4c-4.3,4-10.1,6.4-16.4,6.4
			c-9.6,0-17.8-5.6-21.8-13.6c-3.2,3.7-7.9,6.1-13.2,6.1c-9.6,0-17.4-7.8-17.4-17.4c0-2.4,0.5-4.7,1.4-6.8
			C-496.7,1188.7-495.8,1189.8-494.8,1190.8z"/>
	</g>
	<g class="st2">
		<path class="st3" d="M-952.4-45.3c-0.7-6.7,4.1-12.8,10.9-13.5c1.1-0.1,2.1-0.1,3.2,0.1c-0.9-12.9,8.6-24.4,21.6-25.8
			c6.2-0.7,12.2,1.1,16.9,4.5c2.3-10,10.7-17.9,21.4-19.1c12.6-1.4,24,6.9,26.8,19c2.2-1.1,4.7-1.9,7.3-2.1c12-1.3,22.7,7.3,24,19.3
			c0.4,3.6-0.1,7.1-1.3,10.2c7.6,1.4,13.7,7.7,14.6,15.8c1.1,9.9-6.1,18.8-16,19.9c-1.4,0.2-2.8,0.1-4.1,0
			c-2.8,8.6-10.5,15.2-20,16.2c-7.9,0.9-15.4-2.3-20.3-7.8c-4.6,4.7-10.8,7.8-17.8,8.6c-11.1,1.2-21.5-3.9-27.5-12.4
			c-3.4,3.8-8.2,6.4-13.7,7c-11.8,1.3-22.4-7.2-23.7-19.1c-0.5-4.4,0.4-8.7,2.4-12.4C-950.3-39-952-41.9-952.4-45.3z"/>
		<path class="st4" d="M-952.4-45.3c-0.4-4.1,1.2-7.9,4-10.4c0,0.1,0,0.1,0,0.2c0,7.7,5.7,14.2,13,15.6c1.6,7,8,12.4,15.5,12.4
			c4.7,0,9-2.2,12-5.6c2,3.7,6,6.3,10.5,6.3c4.9,0,9.2-3.1,11-7.5c0.6,0.5,1.2,1,1.8,1.5c3.8,4.4,9.5,7.3,15.7,7.3
			c7.1,0,13.5-3.8,17.2-9.4c0.7,3.5,3.9,6.2,7.5,6.2h0.5c3.2,0,5.9-2,7.1-4.7c2.4,1.5,5.3,2.4,8.3,2.4c8.8,0,16.1-7.3,16.1-16.1
			c0-0.2,0-0.5,0-0.7c2.8,2.8,4.8,6.6,5.2,10.8c1.1,9.9-6.1,18.8-16,19.9c-1.4,0.2-2.8,0.1-4.1,0c-2.8,8.6-10.5,15.2-20,16.2
			c-7.9,0.9-15.4-2.3-20.3-7.8c-4.6,4.7-10.8,7.8-17.8,8.6c-11.1,1.2-21.5-3.9-27.5-12.4c-3.4,3.8-8.2,6.4-13.7,7
			c-11.8,1.3-22.4-7.2-23.7-19.1c-0.5-4.4,0.4-8.7,2.4-12.4C-950.3-39-952-41.9-952.4-45.3z"/>
	</g>
	<g class="st2">
		<path class="st3" d="M-496.2,605.2c4,0,7.8,1,11.2,2.9c-0.5-1.9-0.7-4-0.7-6c0-13.8,11.2-25,25-25c0.4,0,0.8,0,1.2,0
			c0.9-17.4,15.4-31.3,33-31.3c18.3,0,33.1,14.8,33.1,33.1c0,0.2,0,0.3,0,0.5c1.7-0.3,3.4-0.5,5.2-0.5c14.6,0,26.4,11.8,26.4,26.4
			c0,2.7-0.4,5.3-1.2,7.8c9.2,2.5,16,10.9,16,20.9c0,12-9.7,21.7-21.7,21.7c-4.9,0-9.5-1.7-13.1-4.4c-4.5,6.2-11.8,10.3-20,10.3
			c-9.7,0-18.1-5.6-22.1-13.7c-5.3,8.2-14.5,13.7-25,13.7c-8.7,0-16.6-3.8-22-9.8c-2.5,2.4-5.8,3.9-9.5,3.9c-4.1,0-7.7-1.8-10.2-4.7
			c-1.7,0.4-3.5,0.6-5.4,0.6c-12.8,0-23.2-10.4-23.2-23.2C-519.3,615.5-509,605.2-496.2,605.2z"/>
		<path class="st4" d="M-507.7,629.8c6,0,11.5-3,14.9-7.6c0.5,0.6,1,1.2,1.5,1.7c3.5,3.5,8.2,5.4,13.1,5.4h0.5
			c3.6,0,7.2-1.1,10.2-3.1c1.6,4.5,5.9,7.7,10.8,7.7c5.8,0,10.7-4.5,11.4-10.1c2,1.7,4.6,2.6,7.3,2.6h0.5c3,0,6-1.2,8.1-3.4
			c0.2-0.2,0.5-0.5,0.7-0.7c5.5,6.7,13.8,11.1,23,11.1c5.5,0,10.6-1.5,15.1-4.2c2.9,8,10.6,13.9,19.5,13.9
			c11.3,0,20.7-9.4,20.7-20.7c0-0.1,0-0.3,0-0.4c2.2,3.4,3.5,7.4,3.5,11.8c0,12-9.7,21.7-21.7,21.7c-4.9,0-9.5-1.7-13.1-4.4
			c-4.5,6.2-11.8,10.3-20,10.3c-9.7,0-18.1-5.6-22.1-13.7c-5.3,8.2-14.5,13.7-25,13.7c-8.7,0-16.6-3.8-22-9.8
			c-2.5,2.4-5.8,3.9-9.5,3.9c-4.1,0-7.7-1.8-10.2-4.7c-1.7,0.4-3.5,0.6-5.4,0.6c-12.8,0-23.2-10.4-23.2-23.2c0-0.9,0.1-1.8,0.2-2.6
			C-516,628.3-512,629.8-507.7,629.8z"/>
	</g>
	<g class="st2">
		<path class="st3" d="M-1066.7,597c0.7-9.2,8.7-16.2,17.9-15.5c2.2,0.2,4.2,0.7,6,1.6c-1.2-3.4-1.8-7-1.5-10.8
			c1-14.3,13.5-25.1,27.8-24.1c1.3,0.1,2.6,0.3,3.8,0.6c0-0.1,0-0.2,0-0.3c1.4-19.6,18.4-34.3,37.9-32.9c13.9,1,25.4,9.9,30.4,22
			c3.1-0.9,6.4-1.2,9.9-1c14.1,1,25.1,11.9,26.7,25.5c3.5-1.3,7.4-1.9,11.4-1.6c10,0.7,18.3,6.6,22.6,14.9c0.9-0.1,1.7-0.2,2.6-0.1
			c4.8,0.3,8.7,3.5,10.3,7.7c1.4-0.2,2.9-0.3,4.4-0.2c10.8,0.8,18.9,10.1,18.1,20.9c-0.8,10.8-10.1,18.9-20.9,18.1
			c-3.4-0.2-6.5-1.3-9.2-3.1c-1.5,1-3.4,1.6-5.4,1.5c-2.1-0.1-4-1.1-5.4-2.5c-5.5,6.2-13.7,9.9-22.7,9.2c-5.4-0.4-10.3-2.3-14.4-5.3
			c-3.9,2.9-8.8,4.4-14.1,4.1c-5.2-0.4-9.8-2.6-13.2-5.9c-4.5,2.8-9.9,4.3-15.6,3.8c-6.7-0.5-12.6-3.4-17-7.9
			c-5.2,4.5-12.1,7-19.4,6.5c-3.5-0.2-6.7-1.2-9.7-2.6c-4.9,3.5-10.9,5.3-17.3,4.8c-8.3-0.6-15.4-4.9-19.9-11.2
			c-2.6,1.3-5.7,2-8.8,1.8C-1060.4,614.3-1067.3,606.3-1066.7,597z"/>
		<path class="st4" d="M-1066.7,597c0.3-4,2-7.6,4.6-10.4c2.1,7,8.7,12.1,16.3,12.1c5.3,0,10.1-2.5,13.3-6.4c0.7,1,1.4,2,2.3,2.9
			c3.2,3.2,7.5,5,12,5h0.5c4.5,0,8.9-1.8,12-5c0.5-0.5,1-1.1,1.5-1.7c1.9,3.2,5.4,5.3,9.4,5.3c3.6,0,6.7-1.8,8.8-4.4
			c4.2,4.6,10.3,7.6,16.9,7.6c7.3,0,13.9-3.6,18.2-9c1.6,1.2,3.6,1.9,5.7,1.9c3.2,0,6.1-1.6,7.9-4.1c1.8,1.9,4.3,3.1,7.1,3.1
			c0.6,0,1.2-0.1,1.8-0.2c-0.2,0.8-0.4,1.7-0.4,2.6c0,2.6,1,5.1,2.9,6.9c1.8,1.8,4.3,2.9,6.9,2.9h0.5c2.6,0,5.1-1,6.9-2.9
			c0.7-0.7,1.3-1.6,1.8-2.5c3.1,2.3,7,3.6,11,3.6h0.5c3.7,0,7.3-1.1,10.3-3.2c0.5,1.1,1.2,2,2,2.9c1.9,1.9,4.6,3,7.3,3h0.5
			c2,0,4-0.6,5.7-1.7c1.3,1.5,2.8,2.8,4.3,3.5c4.9,2.1,4.7,2.3,10.1,2.7c3.5,0,6.8-0.9,9.8-2.7c1.3-1,2.6-2,3.9-3
			c2.7-2.7,4.6-6.2,5.3-10c0.8,2.4,1.2,5,1,7.7c-0.8,10.8-10.1,18.9-20.9,18.1c-3.4-0.2-6.5-1.3-9.2-3.1c-1.5,1-3.4,1.6-5.4,1.5
			c-2.1-0.1-4-1.1-5.4-2.5c-5.5,6.2-13.7,9.9-22.7,9.2c-5.4-0.4-10.3-2.3-14.4-5.3c-3.9,2.9-8.8,4.4-14.1,4.1
			c-5.2-0.4-9.8-2.6-13.2-5.9c-4.5,2.8-9.9,4.3-15.6,3.8c-6.7-0.5-12.6-3.4-17-7.9c-5.2,4.5-12.1,7-19.4,6.5
			c-3.5-0.2-6.7-1.2-9.7-2.6c-4.9,3.5-10.9,5.3-17.3,4.8c-8.3-0.6-15.4-4.9-19.9-11.2c-2.6,1.3-5.7,2-8.8,1.8
			C-1060.4,614.3-1067.3,606.3-1066.7,597z"/>
	</g>
	<g class="st2">
		<path class="st3" d="M-1519.2-522.1c1.1,0,2.1,0.1,3.2,0.2c5.2-10.8,16.3-18.2,29.1-18.2c12.3,0,23,6.9,28.5,17.1
			c3.4-1.8,7.2-2.7,11.3-2.7c13.6,0,24.7,11.1,24.7,24.7c0,1.7-0.2,3.3-0.5,4.9c2.8,2.4,4.7,6,4.7,10.1c0,7.3-5.9,13.2-13.2,13.2
			c-1,0-1.9-0.1-2.9-0.3c-1.4,5.8-6.6,10.1-12.8,10.1c-4.5,0-8.5-2.3-10.9-5.8c-2.6,4.6-7.5,7.6-13.1,7.6c-4,0-7.7-1.6-10.4-4.2
			c-3.9,5.4-10.2,8.9-17.4,8.9c-7.8,0-14.6-4.2-18.4-10.4c-0.6,0-1.2,0.1-1.8,0.1c-15.2,0-27.6-12.3-27.6-27.6
			C-1546.8-509.8-1534.4-522.1-1519.2-522.1z"/>
		<path class="st4" d="M-1521.8-482.2c5.4,0,10.4-1.8,14.6-4.8c2.2,3.3,6,5.6,10.2,5.6c4.3,0,8.2-2.4,10.4-5.8
			c0.2,0.2,0.4,0.5,0.7,0.7c3.9,3.9,9.2,6.1,14.6,6.1c4.6,0,9-1.5,12.6-4.3c0.5,1.1,1.1,2.2,2,3.1c1.7,1.7,4,2.6,6.4,2.6h0.9
			c2.4,0,4.7-1,6.4-2.6c0.6-0.6,1.1-1.3,1.5-2c2,0.9,4.3,1.4,6.6,1.4h0.4c6.5,0,12.3-3.8,15.1-9.3c0.7,1.6,1.1,3.4,1.1,5.3
			c0,7.3-5.9,13.2-13.2,13.2c-1,0-1.9-0.1-2.9-0.3c-1.4,5.8-6.6,10.1-12.8,10.1c-4.5,0-8.5-2.3-10.9-5.8c-2.6,4.6-7.5,7.6-13.1,7.6
			c-4,0-7.7-1.6-10.4-4.2c-3.9,5.4-10.2,8.9-17.4,8.9c-7.8,0-14.6-4.2-18.4-10.4c-0.6,0-1.2,0.1-1.8,0.1
			c-15.2,0-27.6-12.3-27.6-27.6c0-2.2,0.3-4.4,0.8-6.4C-1543.2-490.3-1533.3-482.2-1521.8-482.2z"/>
	</g>
	<g class="st2">
		<path class="st3" d="M-1161.3,25.2c-0.7-2.2-1.1-4.6-1.1-7.1c0-12.5,10.2-22.7,22.7-22.7c3.5,0,6.7,0.8,9.7,2.2
			c3.5-14.6,16.6-25.4,32.3-25.4c15.8,0,29.1,11.1,32.4,25.9c2.6-1.1,5.6-1.7,8.6-1.7c12.3,0,22.2,10,22.2,22.2
			c0,1.8-0.2,3.6-0.6,5.3c2.9-1.5,6.3-2.3,9.8-2.3c11.9,0,21.6,9.7,21.6,21.6c0,11.9-9.7,21.6-21.6,21.6c-5.5,0-10.4-2-14.2-5.4
			c-3.3,5.8-9.5,9.7-16.7,9.7c-4.8,0-9.2-1.8-12.5-4.7c-5.5,5.7-13.2,9.3-21.7,9.3c-11.1,0-20.8-6-25.9-15
			c-3.1,1.6-6.5,2.4-10.2,2.4c-4,0-7.8-1.1-11.1-2.9c-3.9,6.5-10.9,10.9-19,10.9c-12.2,0-22.1-9.9-22.1-22.1
			C-1179,36.2-1171.4,27.3-1161.3,25.2z"/>
		<path class="st4" d="M-1163.9,56.3c10.5,0,19.2-8.6,19.5-19c1.3,0.7,2.8,1.1,4.3,1.1c2.4,0,4.7-1,6.4-2.7c1.3-1.3,2.2-3,2.5-4.7
			c2.7,1.8,5.9,2.8,9.3,2.8c2.8,0,5.4-0.7,7.7-1.9c-1.7,4.7,0.7,11,7.2,11c3.3,0,5.6-1.7,6.7-3.9c0.4,0.5,0.9,1,1.3,1.4
			c0.1,0.1,0.2,0.2,0.2,0.2c0.1,0.1,0.1,0.2,0.2,0.2c5.3,5.3,12.5,8.3,20,8.3c5.9,0,11.7-1.9,16.4-5.3c0.4,0.7,1,1.4,1.6,2
			c2,2,4.8,3.2,7.7,3.2h0.5c2.9,0,5.7-1.2,7.7-3.2c0.6-0.6,1.1-1.2,1.5-1.9c3.7,3.3,8.5,5.3,13.7,5.3c11,0,20.3-9.1,20.5-20.1
			c3.1,3.7,5,8.5,5,13.8c0,11.9-9.7,21.6-21.6,21.6c-5.5,0-10.4-2-14.2-5.4c-3.3,5.8-9.5,9.7-16.7,9.7c-4.8,0-9.2-1.8-12.5-4.7
			c-5.5,5.7-13.2,9.3-21.7,9.3c-11.1,0-20.8-6-25.9-15c-3.1,1.6-6.5,2.4-10.2,2.4c-4,0-7.8-1.1-11.1-2.9c-3.9,6.5-10.9,10.9-19,10.9
			c-11.4,0-20.8-8.6-22-19.7C-1175.3,53.6-1169.9,56.3-1163.9,56.3z"/>
	</g>
	<g class="st2">
		<path class="st3" d="M-836.2-514.9c2.4,0,4.8,0.4,6.9,1.3c-0.3-1.4-0.4-2.8-0.4-4.2c0-11.6,9.4-21,21-21c1.2,0,2.4,0.1,3.5,0.3
			c1.9-12,12.4-21.2,24.9-21.2c9.9,0,18.5,5.7,22.6,14c2.4-1.4,5.3-2.2,8.3-2.2c9.1,0,16.5,7.4,16.5,16.5c0,0.1,0,0.1,0,0.2
			c0.8-0.1,1.6-0.2,2.4-0.2c9.5,0,17.2,7.7,17.2,17.2c0,2.5-0.5,4.8-1.4,6.9c8.9,1.1,15.8,8.7,15.8,17.9c0,10-8.1,18.1-18.1,18.1
			c-5.8,0-10.9-2.7-14.2-6.9c-2.8,3-6.9,4.9-11.4,4.9c-3.4,0-6.5-1.1-9.1-2.9c-2.1,1.8-4.8,3-7.8,3c-3,0-5.7-1.1-7.7-2.9
			c-3.2,3-7.6,4.9-12.3,4.9c-6.4,0-12.1-3.4-15.3-8.5c-3.6,3.5-8.5,5.6-13.9,5.6c-5.6,0-10.7-2.3-14.4-6.1c-3.5,3.1-8.1,5-13.2,5
			c-10.9,0-19.8-8.9-19.8-19.8S-847.1-514.9-836.2-514.9z"/>
		<path class="st4" d="M-847.2-511.6c-2,2.5-3.2,5.7-3.2,9v0.4c0,3.8,1.5,7.4,4.2,10.1c2.7,2.7,6.3,4.2,10.1,4.2s7.4-1.5,10.1-4.2
			c0.3-0.3,0.5-0.6,0.8-0.9c3,2.2,6.7,3.5,10.5,3.5h0.4c2.6,0,5.1-0.6,7.4-1.6c0.3,0.4,0.6,0.8,1,1.2c0.1,0.1,0.2,0.2,0.4,0.4
			c1.9,1.9,4.4,2.9,7,2.9s5.2-1.1,7-2.9c1.6-1.6,2.6-3.7,2.8-5.9c2.9,2.2,6.5,3.4,10.1,3.4c3.8,0,7.6-1.3,10.5-3.7
			c1.3,3.1,4.1,5.5,8.4,5.5c3.7,0,6.2-1.7,7.7-4.1c3.7,2.6,8.1,4,12.7,4c2.9,0,5.7-0.6,8.3-1.6c2.5,4.9,7.6,8.3,13.4,8.3
			c8.2,0,15.1-6.9,15.1-15.1c0-0.6,0-1.2-0.1-1.7c2.4,3.1,3.8,6.9,3.8,11.1c0,10-8.1,18.1-18.1,18.1c-5.8,0-10.9-2.7-14.2-6.9
			c-2.8,3-6.9,4.9-11.4,4.9c-3.4,0-6.5-1.1-9.1-2.9c-2.1,1.8-4.8,3-7.8,3c-3,0-5.7-1.1-7.7-2.9c-3.2,3-7.6,4.9-12.3,4.9
			c-6.4,0-12.1-3.4-15.3-8.5c-3.6,3.5-8.5,5.6-13.9,5.6c-5.6,0-10.7-2.3-14.4-6.1c-3.5,3.1-8.1,5-13.2,5c-10.9,0-19.8-8.9-19.8-19.8
			C-856-502-852.5-508-847.2-511.6z"/>
	</g>
	<g class="st2">
		<path class="st3" d="M-1198.5-318.5c1-14.2,12.9-25.4,27.3-25.4c3.3,0,6.5,0.6,9.5,1.7c4.3-11.1,15.1-19,27.7-19
			c15.8,0,28.8,12.4,29.6,28.1c1-0.1,2-0.2,3.1-0.2c15.9,0,28.8,12.9,28.8,28.8c0,15.9-12.9,28.8-28.8,28.8c-1.3,0-2.6-0.1-3.9-0.3
			c-4.7,7.6-13.1,12.7-22.7,12.7c-7.2,0-13.7-2.8-18.4-7.4c-3.9,2.6-8.5,4-13.5,4c-7.6,0-14.3-3.4-18.8-8.8
			c-4.6,4.5-10.8,7.3-17.7,7.3c-13.9,0-25.2-11.3-25.2-25.2C-1221.5-306.5-1211.4-317.4-1198.5-318.5z"/>
		<path class="st4" d="M-1205.1-292.6c6.5,0,12.4-2.9,16.5-7.5c0.3,0.5,0.7,1,1.1,1.4c1.8,1.8,4.2,2.7,6.6,2.7c2.5,0,4.9-1,6.6-2.7
			c0.3-0.3,0.6-0.6,0.8-1c4.6,4.9,11.1,8.1,18.3,8.1c5.2,0,10.1-1.7,14.1-4.5c2.8,4.3,7.6,7.2,13,7.2c4.5,0,8.7-2,11.5-5.2
			c3.4,1.7,7.3,2.7,11.4,2.7c14,0,25.6-11.7,25.6-25.6c0-2.6-0.4-5.1-1.1-7.5c5.1,5.2,8.2,12.3,8.2,20.1c0,15.9-12.9,28.8-28.8,28.8
			c-1.3,0-2.6-0.1-3.9-0.3c-4.7,7.6-13.1,12.7-22.7,12.7c-7.2,0-13.7-2.8-18.4-7.4c-3.9,2.6-8.5,4-13.5,4c-7.6,0-14.3-3.4-18.8-8.8
			c-4.6,4.5-10.8,7.3-17.7,7.3c-13.9,0-25.2-11.3-25.2-25.2c0-2,0.2-4,0.7-5.9C-1216.8-295.2-1211.2-292.6-1205.1-292.6z"/>
	</g>
	<g class="st2">
		<path class="st3" d="M-497.1,43.6c0.8,0,1.6,0,2.4,0.1c2-15.2,15-26.9,30.8-26.9c9.9,0,18.7,4.6,24.4,11.8
			c4.6-3.2,10.2-5.1,16.2-5.1c13.3,0,24.5,9.1,27.5,21.5c12,3.9,20.7,15.1,20.7,28.4c0,16.5-13.4,29.9-29.9,29.9
			c-5.4,0-10.5-1.4-14.9-4c-4.4,4.2-10.3,6.8-16.8,6.8c-5,0-9.7-1.5-13.5-4.1c-3.9,2.6-8.5,4.1-13.5,4.1c-7.6,0-14.5-3.5-18.9-9.1
			c-4.2,2.5-9.2,3.9-14.4,3.9c-15.9,0-28.7-12.9-28.7-28.7C-525.8,56.4-513,43.6-497.1,43.6z"/>
		<path class="st4" d="M-521.8,72.4c3.9,3.9,9.1,6,14.6,6c4.2,0,8.3-1.3,11.7-3.6c2.2,1.8,5,2.8,7.9,2.8c6.3,0,11.6-4.7,12.6-10.8
			c2.7,1,5.5,1.5,8.4,1.5c2.5,0,4.9-0.4,7.3-1.1c1.6,7.4,8.3,13.1,16.1,13.1c3.1,0,6-0.9,8.4-2.4c1.3,4.2,5.2,7.4,9.8,7.4
			c3.2,0,6.1-1.5,8-3.9c3.8,2.1,8.2,3.2,12.6,3.2c7,0,13.7-2.8,18.7-7.7c4.4-4.4,7.1-10.2,7.6-16.4c1.9,3.9,2.9,8.3,2.9,12.9
			c0,16.5-13.4,29.9-29.9,29.9c-5.4,0-10.5-1.4-14.9-4c-4.4,4.2-10.3,6.8-16.8,6.8c-5,0-9.7-1.5-13.5-4.1c-3.9,2.6-8.5,4.1-13.5,4.1
			c-7.6,0-14.5-3.5-18.9-9.1c-4.2,2.5-9.2,3.9-14.4,3.9c-15.9,0-28.7-12.9-28.7-28.7c0-1.6,0.1-3.2,0.4-4.8
			C-524.4,69.3-523.2,71-521.8,72.4z"/>
	</g>
	<g class="st2">
		<path class="st3" d="M-530.4-135c1.3-5.9,4.3-10.9,8.3-14.8c-3.8-5.2-5.3-11.9-3.8-18.7c2.8-12.5,15.3-20.4,27.8-17.6
			c1.3,0.3,2.6,0.7,3.8,1.2c4.2-12.4,17.2-19.9,30.3-16.9c5.1,1.2,9.6,3.8,13,7.3c8-8.1,19.9-12,31.9-9.3
			c14.6,3.3,24.9,15.5,26.5,29.6c12.2,3,19.8,15.2,17,27.4c-0.2,0.9-0.5,1.8-0.8,2.7c5.2,4.9,7.8,12.3,6.1,19.8
			c-2.5,11.2-13.6,18.2-24.8,15.7c-0.9-0.2-1.8-0.5-2.7-0.8c-4.7,9.7-15.7,15.3-26.7,12.8c-3.8-0.9-7.1-2.6-9.9-4.9
			c-6.7,6.6-16.6,9.7-26.4,7.5c-8.5-1.9-15.2-7.4-19-14.4c-6.9,7.5-17.6,11.3-28.3,8.8C-524-103.2-534-119-530.4-135z"/>
		<path class="st4" d="M-515.6-118.6h0.5c5.8,0,11.4-2.3,15.5-6.4c2.7-2.7,4.6-6,5.6-9.6c0.1-0.5,0.3-1,0.4-1.4
			c3.4,2.9,7.8,4.5,12.3,4.5h0.9c4.9,0,9.7-2,13.2-5.4c0.5,1,1.1,2,1.9,2.8c1.8,1.8,4.3,2.8,6.8,2.8c1.5,0,3-0.4,4.4-1.1
			c0,0.1,0,0.2,0,0.3c0,2.5,1,5,2.8,6.8c0.1,0.1,0.1,0.1,0.2,0.2c0.1,0.1,0.2,0.2,0.3,0.3c1.8,1.8,4.3,2.8,6.8,2.8
			c2.5,0,5-1,6.8-2.8c0.3-0.3,0.6-0.7,0.9-1.1c0.2,0.3,0.5,0.5,0.7,0.8c4.2,4.2,9.9,6.6,15.8,6.6h0.5c5.9,0,11.7-2.4,15.8-6.6
			c0.4-0.4,0.8-0.8,1.2-1.3c3.3,2.8,7.6,4.4,12,4.4c4.9,0,9.6-2,13.1-5.4c2.9-2.9,4.7-6.7,5.3-10.7c2,4.1,2.7,8.9,1.6,13.7
			c-2.5,11.2-13.6,18.2-24.8,15.7c-0.9-0.2-1.8-0.5-2.7-0.8c-4.7,9.7-15.7,15.3-26.7,12.8c-3.8-0.9-7.1-2.6-9.9-4.9
			c-6.7,6.6-16.6,9.7-26.4,7.5c-8.5-1.9-15.2-7.4-19-14.4c-6.9,7.5-17.6,11.3-28.3,8.8c-12.5-2.8-21.4-13.2-22.9-25.3
			C-526.9-120.9-521.3-118.6-515.6-118.6z"/>
	</g>
	<g class="st2">
		<path class="st3" d="M-1606.1,163.1c1,0,2.1,0.1,3.1,0.3c-1-2.4-1.5-5-1.5-7.8c0-11.7,9.5-21.2,21.2-21.2c0.3,0,0.7,0,1,0
			c3.5-11.7,14.3-20.3,27.2-20.3c12,0,22.2,7.4,26.4,17.9c0.7-0.1,1.3-0.1,2-0.1c14.1,0,25.5,11.4,25.5,25.5c0,3.6-0.7,7-2.1,10.1
			c6.7,2.4,11.5,8.9,11.5,16.5c0,9.7-7.8,17.5-17.5,17.5c-5.8,0-11-2.9-14.2-7.3c-3.9,3.4-9,5.5-14.6,5.5c-6.3,0-12.1-2.7-16.1-6.9
			c-4.5,5.3-11.2,8.7-18.6,8.7c-7.5,0-14.3-3.4-18.8-8.8c-3.4,4.3-8.6,7.1-14.5,7.1c-10.1,0-18.4-8.2-18.4-18.4
			C-1624.5,171.3-1616.2,163.1-1606.1,163.1z"/>
		<path class="st4" d="M-1620.7,170.3c1.6,7.4,8.2,13.1,16,13.1c7.3,0,13.6-5,15.7-11.7c2.9,1.6,6.1,2.5,9.6,2.5
			c3.3,0,6.4-0.8,9.2-2.3c2.1,6.6,8.4,11.5,15.6,11.5c7.3,0,13.6-5,15.7-11.7c2.8,1.3,5.9,2.1,9.1,2.1h0.9c2.2,0,4.4-0.4,6.5-1v0.3
			c0,3.8,1.5,7.6,4.3,10.3c2.7,2.7,6.4,4.3,10.3,4.3c3.8,0,7.6-1.5,10.3-4.3c2-2,3.3-4.5,3.9-7.2c1.2,2.4,1.9,5.1,1.9,7.9
			c0,9.7-7.8,17.5-17.5,17.5c-5.8,0-11-2.9-14.2-7.3c-3.9,3.4-9,5.5-14.6,5.5c-6.3,0-12.1-2.7-16.1-6.9c-4.5,5.3-11.2,8.7-18.6,8.7
			c-7.5,0-14.3-3.4-18.8-8.8c-3.4,4.3-8.6,7.1-14.5,7.1c-10.1,0-18.4-8.2-18.4-18.4C-1624.5,177.3-1623.1,173.4-1620.7,170.3z"/>
	</g>
</g>
<g id="skyeline" class="st0">
	<path class="st5" d="M-581.6,1487.4l72.7-72.2c0,0,67.1,18.2,58.5,42.8l142.3-187.3v-32.4v-24.8h14v24.8l38.3,34.6v51.9l55.9,157.8
		v4.8H-581.6z"/>
	<polygon class="st5" points="-962.7,1487.4 -675.4,1487.4 -625,1457.5 -617.6,1442.2 -636.2,1438.8 -585.2,1227.9 -640.3,1187.9 
		-649.7,1222.9 -685.5,1221 -734.8,1217.3 -779.6,1423.3 -857.2,1404.1 -940,1395.6 -940,1417.8 -983.1,1430.9 	"/>
	<polygon class="st5" points="-1591.7,1446.4 -1591.7,1394.5 -1549.2,1400.7 -1541.6,1403 -1541.6,1291.4 -1450,1295.4 
		-1450,1417.6 -1322.9,1291.5 -1300.7,1291.5 -1300.7,1311.5 -1272.4,1311.5 -1272.4,1388.4 -1221.4,1402.1 -1134.8,1404.6 
		-1087.8,1404.6 -1087.8,1487.4 -1492.1,1487.4 -1492.1,1464.7 	"/>
	<path class="st6" d="M-404.1,1390.2l22.9-4.8v-45.5h8.3v-7.8h9.6v8.1h10.8v-60.6l44.2-8.8l52.3,2.2v51.9c0,0,36.9-0.5,55.9,4v141.6
		h-182.5v-71.9L-404.1,1390.2z"/>
	<path class="st7" d="M-581.6,1487.4c0,0,15.8-16.4,44.9-23.2c0,0-68.7-13.7-64.3,23.2H-581.6z"/>
	<path class="st6" d="M-450.5,1393c0,0,27.5-0.4,31.1,19.8v57.4h-31.1v-12.4V1393z"/>
	<polygon class="st6" points="-622.7,1461.2 -536.7,1464.1 -569.5,1356.6 	"/>
	<path class="st6" d="M-857.2,1414.7c0,0,6.4-10.1,25.1,12.1s0-3.5,0-3.5l29,7.6c0,0,13.6,5.1,58.3,5.1c0,0,20.6-5.4,20.6-20.8
		l-31.6-36.3h-7.5l-16.2,26c0,0-20.7-10.8-38.3-4c0,0-45.6-25.7-55.8-4.2C-884,1418.1-857.2,1414.7-857.2,1414.7z"/>
	<path class="st6" d="M-816.4,1479c0,0-2.6-21.3-30.1-21.3c-27.5,0-27.5,19.5-27.5,19.5h-40v10.2h67.5L-816.4,1479z"/>
	<path class="st6" d="M-1227.2,1345.1v-52.1h19.8v-8.7h29v8.7h26.4v-6.2h8.4v-10.1h5.6v-11h10.7v11h5.7v10.1h4.9v10.7h5.3v31.3h5.7
		v20.9H-995v14h32.3v14.7v17.2h22.7v22.2c0,0-18,10.6-22.7,21.5v48h-44.2V1457l-48.3-7.3v-32.5l-32.5,3.5v-16.1h-47.1l-14,7.9h-34.3
		v-74.8h7.5v-9.8L-1227.2,1345.1z"/>
	<path class="st6" d="M-1403.3,1421.2c0,0,11.8,5.6,16.1,10c0,0,15.4-26.5,47.2-26.5c31.8,0,37.9,23.8,37.9,23.8h59.4v-78.2h-7.7
		v42.5c0,0-4.2-6.1-72.4-6.1V1307v-15.5v-153.8l-80.4-6.2v152.2v15.7V1421.2z"/>
	<path class="st8" d="M-687.6,1479h-92c0,0,0.5-3.9-6.8-6.9h71.3c0,0,15-14.2,55-14.2c0,0,79.7-2.8,123.4,6.2
		c0,0-64.3-1.7-64.3,23.2h-74.3C-675.4,1487.4-674.4,1479-687.6,1479z"/>
	<path class="st7" d="M-865.3,1436c0,0,4.2-17.4,8.1-21.3c0,0-4.8-12-16.5-18.1c0,0-38.2-35.2-44.1,15.9c0,0,25.6-0.8,24.5,9.7
		c-1.1,10.5-12.5,7.8-13.1,9.3s-0.6,4.2,0.9,4.5H-865.3z"/>
	<path class="st7" d="M-818,1380.6V986.2c0,0-77.7,1.1-119.7,43.1v131c0,0-9.4,2.4-13.9,7v216.8L-818,1380.6z"/>
	<path class="st9" d="M-734.8,1217.3v15.2h10.5v182.7h-31.6v-36.3h-7.5v44.4h-13.2c0,0-0.9-16.4-3-18.5v-51.2
		c0,0,1.8-17.7,22.2-17.7v-91.1L-734.8,1217.3z"/>
	<path class="st9" d="M-922.1,1366.1h19.7v-293.5c0,0-10.8,0.9-19.7,9.8V1366.1z"/>
	<polygon class="st9" points="-301.8,1321.7 -270.5,1345.8 -270.5,1321.7 	"/>
	<polygon class="st9" points="-308.2,1270.6 -308.2,1316.9 -352.4,1279.5 	"/>
	<path class="st9" d="M-1450,1417.6c0,0,26.8-9.4,46.7,3.7v-121.7l-46.7,24.1V1417.6z"/>
	<polygon class="st9" points="-1450,1309.5 -1403.3,1283.7 -1403.3,1131.6 -1450,1154.1 	"/>
	<polygon class="st9" points="-1591.7,1394.5 -1630.6,1408.6 -1630.6,1459.5 -1640,1459.5 -1640,1487.4 -1624.3,1487.4 
		-1624.3,1462.7 -1591.7,1446.4 	"/>
	<polygon class="st9" points="-1541.6,1403 -1549.2,1400.7 -1549.2,1294.5 -1541.6,1291.4 	"/>
	<polygon class="st9" points="-1242.8,1428.5 -1236.9,1428.5 -1221.4,1402.1 -1213.2,1412.2 -1183.2,1412.2 -1183.2,1337.7 
		-1175.7,1337.7 -1175.7,1327.9 -1242.8,1350.3 	"/>
	<polygon class="st9" points="-1167.9,1327.9 -1147.4,1327.9 -1147.4,1296.4 -1152,1296.4 -1152,1286.9 -1159.3,1292.3 
		-1159.3,1296.4 -1167.9,1296.4 	"/>
	<path class="st9" d="M-962.7,1378.4c0,0,83.7-11,144.7-9.1v31.5c0,0-13.3-3.2-19.8,10.4c0,0-9.4-20.4-36-14.6c0,0-4.5-6.4-16.5-6.4
		c-12,0-27.6,6.1-27.6,22.3h-5.5l-16.5-16.9h-22.7V1378.4z"/>
	<polygon class="st9" points="-636.2,1438.8 -617.6,1442.2 -577.4,1369 -715.1,1347.4 	"/>
	<rect x="-1640" y="1487.4" class="st9" width="1440" height="5"/>
	<rect x="-1640" y="1492.3" class="st7" width="1440" height="32"/>
	<rect x="-744.8" y="1334.1" class="st7" width="7.9" height="81"/>
	<rect x="-744.8" y="1258.3" class="st7" width="7.9" height="60.1"/>
	<polygon class="st9" points="-685.5,1221 -649.7,1222.9 -640.3,1187.9 	"/>
	<polygon class="st7" points="-1403.3,1299.5 -1322.9,1307 -1322.9,1291.5 -1403.3,1283.7 	"/>
	<polygon class="st7" points="-1403.3,1131.6 -1322.9,1137.7 -1322.9,1126.3 -1403.3,1118.3 	"/>
	<polygon class="st7" points="-1242.8,1487.4 -1242.8,1471.1 -1168.5,1471.1 -1152.7,1455.3 -1138,1477.5 -1138,1487.4 	"/>
	<path class="st7" d="M-1087.8,1487.4v-66.7c0,0,7-10.7,32.5-3.5v32.5c0,0,36.3,0.3,48.3,7.3v30.4H-1087.8z"/>
	<polygon class="st7" points="-803.2,1430.9 -793.6,1404.1 -839.2,1430.9 	"/>
	<path class="st7" d="M-846.5,1487.4c0,0,1.6-8.4,23.2-8.4s21.8,8.4,21.8,8.4H-846.5z"/>
	<path class="st9" d="M-675.4,1487.4c0,0-9-12.4-34.8-12.4c0,0,26.6-24.5,78.6,12.4H-675.4z"/>
	<path class="st7" d="M-538.6,1451.2l-13.1-43.1c0,0,9-13.2,52.9-13.2v53.3c0,0-6.4-13.1-19.1-13.1
		C-530.7,1435-538.6,1446.7-538.6,1451.2z"/>
	<path class="st7" d="M-489.1,1394.8v47.4c0,0,6.4-2.7,14.6-2.7s24,15,24,18.4V1393C-450.5,1393-487.6,1393.1-489.1,1394.8z"/>
	<path class="st7" d="M-467.8,1470.3c0,0,5.7-12.4,17.3-12.4v12.4H-467.8z"/>
	<path class="st7" d="M-419.4,1470.3v-57.4c0,0-21.5-19.8-31.1-19.8l31.1-6.2v-9.9h10.5v12.1c0,0,22,5,26.4,9.4v71.9H-419.4z"/>
	<polygon class="st7" points="-308.2,1270.6 -308.2,1238.3 -352.4,1279.5 	"/>
	<polygon class="st8" points="-1403.3,1299.5 -1403.3,1283.7 -1450,1309.5 -1450,1323.6 	"/>
	<polygon class="st8" points="-1403.3,1131.6 -1403.3,1118.3 -1450,1140.1 -1450,1154.1 	"/>
	<polygon class="st8" points="-1221.2,1343.1 -1221.2,1334.2 -1178.4,1328.9 	"/>
	<polygon class="st8" points="-557.9,1330.9 -577.4,1369 -617.6,1442.2 -625,1457.5 -620.5,1457.5 -555.3,1334 	"/>
	<polygon class="st8" points="-536.7,1464.1 -538.6,1451.2 -551.7,1408 -566.9,1355.9 -568.9,1359.7 -539,1463.7 	"/>
	<polygon class="st8" points="-555.3,1461.2 -572.1,1365.8 -574.3,1370 -558.8,1460.8 	"/>
	<polygon class="st8" points="-571.7,1459.6 -577.4,1375.8 -580,1380.7 -575.3,1459.3 	"/>
	<polygon class="st8" points="-582.9,1458.8 -584.8,1389.9 -587.4,1394.8 -586.1,1458.6 	"/>
	<polygon class="st8" points="-592.1,1457.5 -592.1,1403.7 -594.2,1407.8 -594.5,1458.2 -592.1,1458.3 	"/>
	<polygon class="st8" points="-601.6,1421.7 -604.2,1457.5 -607.2,1457.5 -604.4,1427 	"/>
	<polygon class="st8" points="-614.7,1446.5 -614.7,1457.6 -617.7,1457.5 -617.6,1452.1 	"/>
	<polygon class="st6" points="-1624.3,1487.4 -1624.3,1462.7 -1591.7,1446.4 -1563.7,1436 -1492.1,1464.7 -1492.1,1487.4 	"/>
	<path class="st6" d="M-775.6,1472.1c0,0-0.1-15.4,15.4-15.4c15.5,0,15.4,15.4,15.4,15.4H-775.6z"/>
	<polygon class="st6" points="-655.8,1356.7 -655.8,1234.6 -694.2,1234.6 -694.2,1350.7 	"/>
	<polygon class="st6" points="-643.9,1358.6 -643.9,1222.9 -585.2,1227.9 -585.2,1324.6 -519.3,1324.6 -519.3,1378.8 -563,1369.1 
		-566.9,1355.9 -555.3,1334 -557.9,1330.9 -577.4,1369 	"/>
	<path class="st6" d="M-498.9,1394.8c0,0,6.4,0.7,9.7,0v47.4c0,0-6.5,2.7-9.7,6V1394.8z"/>
	<polygon class="st9" points="-200,1470.3 -200,1482.5 -459.1,1482.5 -552.8,1482.5 -552.8,1470.3 	"/>
	<rect x="-1640" y="1524.3" class="st5" width="1440" height="10.5"/>
</g>
<g id="Dirk">
	<g>
		<path class="st10" d="M348.9,505.9c0,0-3,58.3-5.1,62.6s4.3,21.2,5.1,25.4c0.9,4.2,3.2,49.5-1.6,57.1c-4.9,7.5-136.6,52-159.2,52
			s-95.3-27.7-96.4-32.5s-18-25.4-12.7-80.1l-1-190.6L35,369c0,0,35.3-135.4,72.7-145.8c0,0,35.7-19.8,51-24.4s118.3,2.8,118.3,2.8
			s71.4,41.6,80.2,56.7c8.8,15.1,43.2,63.2,44,148.1c0,0-42.8,52.6-47.6,68S348.9,505.9,348.9,505.9z"/>
		<polyline class="st11" points="160.4,431.6 366.3,133.3 359.5,129 158.5,419.4 		"/>
		<polygon class="st12" points="158.5,435.9 160.4,431.6 158.5,419.4 154.1,421.9 145,435.2 144.3,441.3 		"/>
		<path class="st12" d="M143.1,494l-17,19.4c0,0-6.2,2.9-9.2,0c-3-2.9-10.9-13.5-10.4-14.9c0.6-1.4,11.2-12.9,11.2-12.9l-9.9,0.7
			c0,0-8.6,10.9-7.6,13.9s13.8,20.5,19.9,21.5s6.1,1,6.1,1L145,518c0,0,5-16.8,3.6-23.2C147.2,488.5,143.1,494,143.1,494z"/>
		<path class="st13" d="M82.3,406c0,0,8,60.4,8,78.1s1.3,119-2,131.1c0,0-2.8,42.4,2.2,50.6c0,0,16.7,7.3,19.3,8.3
			c2.7,1,4.2,3.5,4.2,3.5l2.3,1.6l14.5,4.7c0,0,17.5,4.5,10.6,15.5c-7,11.1-7.5,15-14.3,4.8c0,0-39.6-22.7-43.5-38.2
			s-8.6-51.2-10.7-81.5c-2-30.3-7.4-43.2-7.4-47.5s-10.2-96.7,1.2-113.5c0,0,2.8-20.9,3.6-22.3C71.2,399.9,81.2,397.3,82.3,406z"/>
		<path class="st13" d="M316.3,427.4l5.5,17.1c0,0-44.3,21.7-53.3,24.6c-8.9,2.9-66.8,5.8-66.8,5.8s-30.5-36.9-36.5-38.2
			c-6-1.2-20.2-1.6-20.2-1.6h-11c0,0-11,0.5-11,3.4s2.4,8.8,0.9,9.4c-1.4,0.7-15.7,11.1-12.6,16.8c0,0-8.6,8.1-5.8,11.3
			c0,0-3.5,8.3,2.1,10.1c5.7,1.8,16.3,1.3,21.6,4.8c0,0,13.8,0.4,15.6,4.8c1.9,4.5,17,13.5,31.7,15.5c0,0,18.5-1.1,21.3,0
			c2.8,1.1,94.2,13.8,132.4,0.6c0,0,3.7-1.3,4.8-1.8c1.1-0.5,26.3-8.5,33.6-8.6c7.3-0.1,20.7-12.1,20.7-32.2
			c0-20.1-1.8-49.2-1.8-49.2S337.6,404.4,316.3,427.4z"/>
		<path class="st14" d="M357.2,258.3c0,0-20.9,1.3-34.6,18.7s-28.5,48.5-28.5,48.5s-3.2-1.2-2.6-7.7c0.7-6.5,18.3-53.2,53.8-62.1
			C345.4,255.7,354.2,250.8,357.2,258.3z"/>
		<path class="st14" d="M255.6,165.3c0,0,12.2,1.7,13.1,13.9s8.4,22.4,8.4,22.4s-42.8,53.1-73.5,56.7c0,0-16.2,1-16.7,7.4
			c-0.5,6.3-12.1,54.9-17,74.5s-17.1,72.3-15.8,81.7l-9.1,13.3c0,0-8.6-0.4-11,0c0,0,39.5-170.8,45.4-181s-11.2-10-14.9-9.6
			c0,0-8.1-18.5-13.3-22.2c0,0,1.2-15.8,13.3-33.2c0,0,4.1-8,5.8-5.8S255.6,165.3,255.6,165.3z"/>
		<path class="st14" d="M82.3,406l-53.4-21.2c0,0,3.5-11.4,6.1-15.7l45.6,22.8C80.6,391.9,82.1,403.5,82.3,406z"/>
		<path class="st14" d="M402.5,421.7c0,0-33.9-4.8-56.6-1.1c-22.7,3.7-33.9,8.3-33.9,8.3s-7-14.7-7.4-16.6s25.3-10.7,57.1-10.3
			s39.4,4.4,39.4,4.4S403.3,415.8,402.5,421.7z"/>
		<path class="st14" d="M335.2,510.2c0,0-0.9,124.9,4.1,135.7c5.1,10.8-5.1,0.8-5.1,0.8s-6.4-113-3.9-134.7
			C330.4,512,329.9,510.4,335.2,510.2z"/>
		<path class="st14" d="M145,518c0,0-18.6,1.2-18.9,4.6c0,0-0.7,44.6-5.5,69.5s-6.4,85.6-6.4,85.6l2.3,1.6c0,0,3.7-60,17-80.6
			C133.5,598.6,144,565.3,145,518z"/>
		<path class="st15" d="M255.6,186.6c0,0,10.5-7.7,9.1-12.5c-1.4-4.8-9.5-7.4-9.5-7.4S246.4,185.9,255.6,186.6z"/>
		<path class="st15" d="M168.8,189.2c0,0-10.8,12.2-10.1,14.1s1.6,6,8.1,10.4C173.4,218,168.8,189.2,168.8,189.2z"/>
		<path class="st16" d="M67.7,1142.4l-2.6,1.9l-0.5,2.7c0,0-3.2,6.6,0,9c3.2,2.4,21.4,20.7,57,13.9s28.6-12.8,52-13.9
			c23.4-1.1,60.9,3.1,60.4-13.8v-5.6l-77.3-10.3L67.7,1142.4z"/>
		<path class="st16" d="M231.2,1237.7l-2.3,2.9v1.5c0,0-1.9,10,0.6,12c2.5,2,35.3,10.1,64.6,8.4c29.3-1.7,33.3-20.7,41.9-25.7
			c8.6-4.9,23-14,23.4-19.1c0.4-5.1,0-6.8,0-6.8v-1.5c0,0-1-4.8-3.6-3S231.2,1237.7,231.2,1237.7z"/>
		<path class="st17" d="M355.7,1190.8c0,0,0.9,15.1,0,16.5c-0.9,1.4-15.3,12.2-15.3,12.2l-2.9,3.7l-4,2.8l-3.6,4.1l-3.5,3.3
			l-5.9,4.2c0,0-5.1,6-26.2,5.9c-21.2-0.1-62.1-4.1-63-5.9c0,0,43.9-41.6,50.3-51.5C287.9,1176.2,351.8,1170.7,355.7,1190.8z"/>
		<path class="st17" d="M233.9,1131.7c0,0,0.7,3.8,0,4.9c-0.7,1.1-3.2,4.6-10.9,5.4c-7.7,0.8-45.9,1-59,4.2s-26.7,11.1-50.6,9.7
			s-44.5-9.2-45.8-13.4c-1.3-4.2,5.2-12.1,39.7-12.7c0,0,10.2,1.3,11.1-3.1c0.9-4.4,16.8-16.4,25.9-22c9.1-5.6,18.1-12.5,18.1-12.5
			S234.3,1104.7,233.9,1131.7z"/>
		<path class="st18" d="M243.4,1068.6c0,0,9.1,2.1,9.6,4.5c0.5,2.5,0,13.4,0,13.4s2.5,20-14.1,28.4c0,0,2.1,15.4-6.4,17.3
			c-8.5,1.9-21,4.6-35.1-11c-14.1-15.6-14.4-17.7-14.4-17.7s-7.5-5.2-12.3-4.4c-4.8,0.8-9.6-2.1-9.6-3.1s4.8-10.4,3.1-11
			s-12.3-6.2-11.8-9.9s11.2-24.6,19.7-23.4c0,0-8.7-30.8-6.7-47c2.1-16.2,12.1-71,7.5-82.3c-4.6-11.3-3.6-22.9-3.6-22.9
			s-2.8-4.7-1.1-7c1.7-2.3,1.8-15.8-1.4-19.4c-3.1-3.5,2.7-21.6-5.6-25.6c-8.3-4,0.2-26.4,0.2-26.4s-16.2-2.3-16-30.6
			s-16.2-65.7-17.3-75.9c-1-10.2-1-10.2-1-10.2s6,6.2,8.1,2.5c2.1-3.7-9.2-14.1-9.2-14.1s10,5.4,11.4,2.5c1.5-2.9-3.3-9.2-6.7-11.2
			c0,0,51.3,6.4,68.8,5.2c17.5-1.2,4.8,9.2,4.8,9.2l8.1-9.2c0,0,89.5-16.7,106.9-33c17.5-16.3,27.2-9.3,27.7-5.1s1,91.1-5.8,115.2
			c0,0,6.7,57.4,6.1,84s-6.7,51.8-3.1,61.8s10,30.4,11.4,70.9c1.5,40.6,13.1,103,8.9,122.3c-4.2,19.3-10.8,28.7-10.6,39.1
			c0.2,10.4,9.3,24.3,9.1,27.9c-0.2,3.5-3.3,9.6-4.9,11.6c-1.7,2.1-0.8,8.3-4.2,6.7c-3.3-1.7-14.9-9.8-32.4-9.6
			c-17.5,0.2-30.2-0.4-40.2,5.2c0,0,0-25-1-30.5s-5.3-1.3-5.2-6.9s-0.7-21.4-3.6-29.3c-2.9-7.9-1.7-41.8,7.3-65.1
			c8.9-23.3-17.1-77.2-15.8-89.4c1.2-12.3-8.7-43.1-6.2-51.8c2.5-8.7-6.1-26.3-6.1-26.3l-14.3-14.7l6.6,27l-0.3,127.3L243.4,1068.6z
			"/>
		<path class="st19" d="M254.5,165.3l1.1,21.3c0,0-20.4,28.4-41.6,40s-26.9,23-27,27.2c-0.1,4.2-3.5,0.5-4.2-2.5
			c-0.7-3-3.6-13.8-11.8-23.5c-8.2-9.6-2.2-41.7-2.2-41.7S234.8,144.5,254.5,165.3z"/>
		<path class="st13" d="M264.9,118.5c0,0,2.5,24.2-5.2,36.8c0,0-3.8,3.4-4.1,9.9c-0.3,6.4-32.3,38-53.5,38s-41.7-24.6-44.2-38.2
			c-2.5-13.7-4.8-35.2-4-39.7c0.8-4.5,12.3-58.7,12.3-58.7l34-24.3l50,11.3l18.5,33.2l-1.4,29L264.9,118.5z"/>
		<path class="st20" d="M154.5,106.3c0,0-10.2,0.1-7.3,19s5.7,29.7,9.6,25.4c0,0-1.6-24.8,0-27.1
			C158.3,121.3,154.5,106.3,154.5,106.3z"/>
		<path class="st20" d="M259.9,138.7c0,0,7.9-31.2,14.7-24.5c6.8,6.7-2,25.8-6.1,32c-4.1,6.3-8.3,11.3-9.9,9.1
			S259.3,144.2,259.9,138.7z"/>
		<path class="st21" d="M221.3,167.8c0,0-1.7-4.2-18.6-4.8s-22.3-1.5-22.1,0c0.2,1.5,7.3,4.1,7.8,8.3c0.6,4.3,16.5,6.8,23.9,3.1
			S221.3,167.8,221.3,167.8z"/>
		<path class="st22" d="M240.2,125.3c0,0-9.4-13.7-23-3.6C217.2,121.7,217.3,129.3,240.2,125.3z"/>
		<path class="st22" d="M194.5,120.8c0,0-13.2-14.8-26.9,0C167.6,120.8,187.2,125.4,194.5,120.8z"/>
		<path class="st23" d="M234.7,125.3c0,0,1.2-6.5-6.6-6c-7.8,0.4-8.3,5.1-7.2,6S235.4,127.2,234.7,125.3z"/>
		<path class="st23" d="M188.4,121.3c0,0,0.6-5.2-5.1-5.6c-5.6-0.4-6.4,5.4-5.4,5.6C178.9,121.5,184.3,124.3,188.4,121.3z"/>
		<path class="st24" d="M231.2,120.6c0,0,3.9,3.8,0.6,4.5c-3.4,0.7-10.1-0.6-7-3.9C227.8,117.8,231.2,120.6,231.2,120.6z"/>
		<path class="st24" d="M183.9,116.9c0,0,5.8,2.1,1.7,4.4C181.5,123.5,173.3,117.8,183.9,116.9z"/>
		<path class="st25" d="M195.8,115.6c0,0-19.6-8.7-25.3-5.8s-5.4,1.3-5.4,1.3s2.4-7.9,15.4-4.5S197.7,114.4,195.8,115.6z"/>
		<path class="st25" d="M219,116.2c0,0,10.5-6.4,25.3-0.6c0,0,5.3,1.6-1-2.4C237,109.2,215.9,111.3,219,116.2z"/>
		<path class="st26" d="M201.4,113.6c0,0,1.2,19.1-4.4,24.6c-5.6,5.4-7.7,5.8-5.2,8.7s6.4,6.3,11.3,4.8c4.8-1.5,5.6-3.4,5.6-3.4
			s-0.1,4.2-6.5,4.6c-6.4,0.4-13.1-6.7-12.6-8c0.5-1.3,1-2.6,5-5.7C198.4,136.3,200.4,130.2,201.4,113.6z"/>
		<path class="st26" d="M212.9,150c0,0-2.3-2.2-4.3-1.6C206.6,149,216.4,152,212.9,150z"/>
		<path class="st27" d="M209.6,166.7c0,0,0.4,2.3-1,2.1c-1.4-0.1-4.5,1-4.7-1.1v-1.1H209.6z"/>
		<path class="st27" d="M198.2,166.7c0,0-0.6,2.4,2.4,2.3c3-0.1,3.3-0.2,3.3-1.2c0-1.1,0-1.1,0-1.1H198.2z"/>
		<path class="st26" d="M221.3,167.8c0,0-6-1.2-11.7-1.2H199c-0.5,0-1-0.1-1.4-0.2c-3.3-0.9-17.5-4.6-16.9-3.4
			c0,0,15.2,6.4,23.3,6.4C204,169.4,218.2,169.2,221.3,167.8z"/>
		<path class="st26" d="M156,134.4c0,0,1.8-14.7,0-16.8c-1.8-2.1-3.6,7.2-3.3,11.6C152.9,133.6,152.3,134.8,156,134.4z"/>
		<path class="st26" d="M271.5,122.2c0,0,3.5,6.7-5.3,16.5s-5.3,5.5-5.3,5.5s-0.2-1.7,4.8-8.9C270.7,128.2,271.6,124.6,271.5,122.2z
			"/>
		<path class="st28" d="M271.6,114.4c0,0-4.9,6.1-11.6,24.3c0,0-1.9-28.1,0-29.4c1.9-1.3-4.9-8.9-0.8-20.5c4-11.6-11-31.5-17.3-32.8
			c-6.3-1.3-40.4,2.1-50.8-3.8c0,0-11.6,13.3-19,17.8c0,0-0.6,12.1-11.4,36c0,0-1.3,18.5-4.9,22c0,0-6.1-47.4,10.2-67.3
			s30-26.2,45.5-26c15.4,0.2,56.7,9.1,61.6,43.8C272.8,78.4,275.2,105.9,271.6,114.4z"/>
		<path class="st20" d="M251.3,133.7c0,0-16.2,11.6-16.5,17.9c-0.3,6.3,11.1,20.3,13.9,20.3c2.8,0,8-27.8,4.8-38.2
			C253.5,133.7,252.1,133.1,251.3,133.7z"/>
		<path class="st20" d="M166.7,157.9c0,0,22.2-20.1,9.2-24.5c-13-4.3-17.8-2.2-17.8-2.2s-0.7,28.5,0,31.5
			C158.8,165.8,166.7,157.9,166.7,157.9z"/>
		<path class="st26" d="M226.9,160.9c0,0-4.1-10.1-9.8-13.3c0,0-0.5,0.4,1,1.9c1.4,1.4,2.7,0.5,8.4,11.8
			C226.5,161.3,227.5,162.1,226.9,160.9z"/>
		<path class="st26" d="M188.2,143.3c0,0-9.9,9.8-10,12.3c0,0-0.2,1.2,2.1-2C182.4,150.5,189.2,143.3,188.2,143.3z"/>
		<path class="st29" d="M238.5,783.8c0,0,10.5-11.9,9.7-15.6c-0.8-3.7,16.3-21.8,22.3-28.9c5.9-7.1,4.9-10.9-4.2-2.4
			s-22.3,20.2-22.3,28.6c0,8.3-9.2,13.3-7.3,15.8C238.5,783.8,238.5,783.8,238.5,783.8z"/>
		<path class="st29" d="M330.1,682.8c0,0-39.3,54.4-44.4,72.2C285.7,755,336,684.5,330.1,682.8z"/>
		<path class="st29" d="M275.2,875.7c0,0,33.8-48.6,32.1-60.2c0,0,6.1-20.4,4.1,0.7S275.7,883.3,275.2,875.7z"/>
		<path class="st29" d="M340.2,957.4c0,0-10.4-27-38-28.2s-36.9-1.8-34.3,0c2.6,1.8,28.1,1.1,36,3.5s30.6,22.5,34.4,26.4
			C342,962.9,340.2,957.4,340.2,957.4z"/>
		<path class="st29" d="M345,1008c0,0-8.8,22.1-21.8,23.4c-13,1.2-5.9-1.5,1.1-2.5C331.2,1027.9,346.1,1002.9,345,1008z"/>
		<path class="st29" d="M319.3,1102.3c0,0-25.7-51.4-31.6-52S326.4,1120.4,319.3,1102.3z"/>
		<path class="st29" d="M350.7,1149.1c0,0-15.3,12.7-16.7,12.6S364.3,1133.5,350.7,1149.1z"/>
		<path class="st29" d="M317.9,1153c0,0,1,2.8-5.2,0s-23.4-6.8-33.2-2.9c-9.8,3.9,0.2-5.6,3.7-6.7
			C286.7,1142.4,308.3,1144.1,317.9,1153z"/>
		<path class="st29" d="M363.2,1172.2c0,0-9.6,2.8-23,0s-19.8-6.1-25.9-6.1c-6,0-13.7-9.8-17.7-9.9s-14.3,1-16.1-0.5
			c-1.8-1.5,2.8-2.4,4.8-2.6s13.8-0.3,22.5,5.3c8.7,5.6,14,3.9,15.7,4.4c1.7,0.5,10.9,6.4,21.1,6.9
			C355,1170.2,363.8,1166.4,363.2,1172.2z"/>
		<path class="st29" d="M243.4,1068.6c0,0-18.9-20.3-17.9-33.2c0,0-9.6,13.9-12.9,19.1c0,0-5.7,5.7-2.6-2.5s6.2-11.1,5-16.6
			c-1.2-5.5,8.1-8.6,10-14.6s0.7-28.2,10-40.4c9.3-12.2-3.3-24.1-1.7-29.4c1.7-5.3,8.4-13.1,2.9-31.8s-12.7-34.4-11.7-56.6
			s-6.7-59-7.6-65s-7.8-26.8-7.9-40.9c0-14.1,3.3-23.7,1.9-28.9s-16.5-38.5-11.2-38.7c5.3-0.2,12.9,0,12.9,0s6.7,44,11.7,50.7
			c5,6.7,1,27.2,3.6,31.1s4.3,7.9,4.3,14.6c0,6.7,9.8,48,9.8,64c0,16,8.8,37.3,8.8,37.3s0.7,64.8-2.6,114
			C244.9,1050,243.4,1068.6,243.4,1068.6z"/>
		<path class="st29" d="M253,1086.6c0,0-5.5,2.9-15.8,0s-38.7-21.5-42.5-20.3c-3.8,1.2-26.5,5-36.3,8.1s-10.3,0.8,15.3-8.2
			c25.6-9,34.6,0.1,43.5,4.8c8.8,4.8,33,10.3,35.8,2.2C253,1073.2,255.8,1085.7,253,1086.6z"/>
		<path class="st29" d="M173,922.4c0,0-10.8-21.7-3.6-22.9c7.2-1.2,18.9-0.2,22.5-3.6c0,0,5.5,3.2-3,4.3
			C180.3,901.2,168.6,911,173,922.4z"/>
		<path class="st29" d="M172.3,889.4c0,0-3.3,4.1-4,3c-0.7-1.1,2.9-2.4,15.4-15.9c12.5-13.5,14-13.8,14.9-17.6c0,0,3.7-0.4-2.1,6.6
			C190.7,872.6,172.3,889.4,172.3,889.4z"/>
		<path class="st17" d="M359.5,1210.9c0,0-35.6,31.4-43.3,35.6s-37.5,2.8-37.5,2.8s-43.5-1.6-49.8-7.3v-1.5c0,0,7.4,6.2,43.3,7.1
			c0,0,34.1,1.4,41.5-1.6c7.4-2.9,45.8-36.7,45.8-36.7V1210.9z"/>
		<path class="st17" d="M233.9,1140.5c0,0-11.2,5.9-18.4,6.1c-7.2,0.2-44.5,0.8-54.9,3.7c0,0-29.9,9.3-33.6,9.3s-42.3,1.6-52.4-7.4
			c0,0-8.2-5.6-9.6-7.8c0,0-0.8,2.2-0.5,2.7c0.3,0.5,9.8,14.9,49.5,14.6c0,0,13.6-0.1,27.7-4.3s22.6-8,45.7-8.2
			c23.1-0.3,40.2-0.4,46.5-7V1140.5z"/>
		<path class="st30" d="M320.4,1237.7l5.9-4.2c0,0-15.7-14.9-22.4-15.8l-5,6.2C298.9,1223.9,311.5,1228.9,320.4,1237.7z"/>
		<path class="st30" d="M329.8,1230.2c0,0-15.9-15.7-21.6-17.4l4.5-6.4c0,0,13.9,10.8,20.8,19.7L329.8,1230.2z"/>
		<path class="st30" d="M337.4,1223.2l-20.6-22.8l4.9-6.7c0,0,15,14.5,18.6,25.9L337.4,1223.2z"/>
		<circle class="st31" cx="169.8" cy="311.6" r="3.1"/>
		<circle class="st31" cx="156.1" cy="365.6" r="3.4"/>
		<circle class="st31" cx="145" cy="420" r="3.6"/>
		<circle class="st31" cx="183.2" cy="262" r="3.7"/>
		<circle class="st31" cx="221.5" cy="244.5" r="3.1"/>
		<circle class="st31" cx="135.6" cy="530.8" r="3.4"/>
		<path class="st14" d="M145,495.9c0,0-3.5,14.3-7.6,15.2c-4.1,0.9-8.7,2.3-11.3,2.3l3.2-22.3C129.3,491.1,143.6,491.3,145,495.9z"
			/>
		<path class="st19" d="M344.2,435.9c0,0-13.2,0.3-22.4,8.5c0,0,9.7-13.7,20.1-15.6c0,0-6.8,4.1-8.1,6.3
			C333.7,435.2,342.9,434.2,344.2,435.9z"/>
		<path class="st19" d="M217.2,506.7c0,0,50.5,4.8,70.9,3.5c20.4-1.3,54.6-8,60.8-20.2c0,0-29.4,18.4-60.8,18.2
			C256.7,507.9,217.2,506.7,217.2,506.7z"/>
		<path class="st19" d="M143.6,479.8c0,0-30.7-3-30.8-3.5c-0.2-0.5,3.8-2.1,8.4-1.8s23.2,3.5,26.1,2.6S151.1,479.3,143.6,479.8z"/>
		<path class="st19" d="M116.9,462.6c0,0,9-3,14.2-1.2c5.2,1.8,16.4,2.3,17.5,0.3c0,0,0.2-1.6-2.5-0.9s-11.3,0.6-13.3-0.2
			C130.7,459.9,117.5,460.2,116.9,462.6z"/>
		<path class="st19" d="M150.8,444.6c0,0,0.3,2.6-6.5,2.6s-18.5,0.2-20.2,0.9c0,0-0.8-1.8,3.9-1.7
			C132.7,446.4,150.5,446.8,150.8,444.6z"/>
		<path class="st19" d="M126.1,692.7l-18-15.2C108.1,677.5,122.9,687.6,126.1,692.7z"/>
		<path class="st32" d="M366.3,133.3c0,0,9.8-10.3,9-13.2c-0.8-2.8-0.8-2.8-0.8-2.8l19.4-25.2c0,0-0.8-7.3,0-10.9
			c0,0-5.2,6.7-7.1,9.7c-1.8,3-17.4,24.2-17.4,24.2s-1.8-2.2-3.1-0.6c-1.3,1.6-9,11.5-8.8,12.3s2,2.2,2,2.2L366.3,133.3z"/>
		<path class="st33" d="M393.5,84.2c0,0,23.1-33.3,23.2-35.2c0.1-2-1.1-5.1-3-2.8s-20.4,27.4-21.6,37.3L393.5,84.2z"/>
		<path class="st33" d="M401.1,80.7c0,0-1.6,8.2-7.6,7.2l0.3,4.2c0,0,9-4.5,9-10.5C402.8,75.6,401.1,80.7,401.1,80.7z"/>
	</g>
</g>
</svg>
