<svg id="Laag_1" data-name="Laag 1" xmlns="http://www.w3.org/2000/svg" xmlns:xlink="http://www.w3.org/1999/xlink" viewBox="0 0 1144.34 1189.95"><defs><style>.cls-1,.cls-25{fill:none;}.cls-2{fill:#efefef;}.cls-3{isolation:isolate;}.cls-4{clip-path:url(#clip-path);}.cls-5{fill:#d79c8a;}.cls-6{fill:#d89782;}.cls-7{fill:#7f3630;}.cls-8{fill:#775e61;}.cls-9{fill:#060404;}.cls-10{fill:#781a14;}.cls-11{fill:#8a97ae;}.cls-12{fill:#040407;}.cls-13{fill:#eebda9;}.cls-14{fill:#f8d1ba;}.cls-15{fill:#3f93cc;}.cls-16{fill:#ddeef8;}.cls-17{fill:#232c59;}.cls-18{fill:#2d3340;}.cls-19{fill:#606977;}.cls-20{fill:#130f0e;}.cls-21{fill:#b4b4b6;}.cls-22{fill:#4f1a0e;}.cls-23{fill:#d2948c;}.cls-24{fill:#17abe3;}.cls-25{stroke:#000;stroke-width:6px;}</style><clipPath id="clip-path"><rect class="cls-1" x="19.84" y="23.78" width="1073.48" height="1166.17"/></clipPath></defs><g id="Group_151" data-name="Group 151"><path id="Union_2-2" data-name="Union 2-2" class="cls-2" d="M178.87,331.13a4.59,4.59,0,0,1-4.59-4.58V108.16a4.59,4.59,0,0,1,4.59-4.58H556.36a4.58,4.58,0,0,1,4.58,4.58V244.82l28,23.6a2.3,2.3,0,0,1,.28,3.23l-.28.28-28,23.6v31a4.58,4.58,0,0,1-4.58,4.58Z"/></g><g id="Hasta_la_vista_Plastic_Soup_" data-name="Hasta la vista Plastic Soup " class="cls-3"><g class="cls-3"><path d="M241.46,207.3h-6V177.94h6v12.27h12.71V177.94h6V207.3h-6V195.47H241.46Z"/><path d="M282.43,207.3h-4.89l-.3-2.33a7.17,7.17,0,0,1-2.66,2,8.34,8.34,0,0,1-3.48.72,8.14,8.14,0,0,1-3.66-.8,6.21,6.21,0,0,1-2.53-2.19,6,6,0,0,1,.08-6.49,6.73,6.73,0,0,1,2.75-2.24,9.4,9.4,0,0,1,4-.81,12.48,12.48,0,0,1,2.64.29,11.57,11.57,0,0,1,2.45.83v-.51a3.26,3.26,0,0,0-.65-2,4.23,4.23,0,0,0-1.8-1.32,6.78,6.78,0,0,0-2.56-.47,8.48,8.48,0,0,0-2.67.43,8.29,8.29,0,0,0-2.44,1.29l-1.52-4.28a19.06,19.06,0,0,1,4-1.54,15.61,15.61,0,0,1,3.92-.52,10.35,10.35,0,0,1,5,1.13,8,8,0,0,1,3.24,3.17,9.79,9.79,0,0,1,1.14,4.84Zm-10.1-3.94a4.78,4.78,0,0,0,2.13-.49,4.45,4.45,0,0,0,1.66-1.33,3.2,3.2,0,0,0,.67-1.86v-.13a6.89,6.89,0,0,0-1.91-.92,7.26,7.26,0,0,0-2.12-.32,4.5,4.5,0,0,0-2.62.71,2.12,2.12,0,0,0-1,1.82,2.17,2.17,0,0,0,.42,1.3,2.83,2.83,0,0,0,1.15.9A4.07,4.07,0,0,0,272.33,203.36Z"/><path d="M285.44,205.61l1.24-4.77a5.93,5.93,0,0,0,1.57,1.19,9.41,9.41,0,0,0,2.14.87,7.78,7.78,0,0,0,2.16.33,3.44,3.44,0,0,0,1.9-.46,1.45,1.45,0,0,0,.68-1.25,1.41,1.41,0,0,0-.46-1.08,4,4,0,0,0-1.23-.79c-.52-.22-1.09-.45-1.71-.67-.85-.33-1.72-.71-2.62-1.14a6.74,6.74,0,0,1-2.26-1.76,4.51,4.51,0,0,1-.92-3,5.21,5.21,0,0,1,.92-3.07,5.87,5.87,0,0,1,2.61-2,9.85,9.85,0,0,1,3.91-.72,15.89,15.89,0,0,1,7.22,1.82L299,193.6a7.84,7.84,0,0,0-1.57-.92,12.14,12.14,0,0,0-1.92-.67,7.17,7.17,0,0,0-1.78-.25,2.49,2.49,0,0,0-1.49.39,1.25,1.25,0,0,0-.54,1.07,1.28,1.28,0,0,0,.37.91,3.76,3.76,0,0,0,1.11.77c.49.24,1.09.5,1.81.77a29.1,29.1,0,0,1,2.69,1.16,7,7,0,0,1,2.29,1.8,4.57,4.57,0,0,1,.93,3,5.3,5.3,0,0,1-1,3.19,6.41,6.41,0,0,1-2.78,2.12,10.61,10.61,0,0,1-4.2.76A14.39,14.39,0,0,1,285.44,205.61Z"/><path d="M317.8,206.79a11.74,11.74,0,0,1-4.37.9,7.79,7.79,0,0,1-3.86-.93,6.56,6.56,0,0,1-2.61-2.61,7.69,7.69,0,0,1-.94-3.86v-7.56h-3.43v-5h3.72v-4.89h5.32v4.89h5.43v5h-5.43v6.54a3.45,3.45,0,0,0,.88,2.5,3,3,0,0,0,2.2.89,4.2,4.2,0,0,0,2.33-.75Z"/><path d="M338.12,207.3h-4.9l-.29-2.33a7.33,7.33,0,0,1-2.66,2,8.35,8.35,0,0,1-3.49.72,8.14,8.14,0,0,1-3.66-.8,6.12,6.12,0,0,1-2.52-2.19,6,6,0,0,1,.08-6.49,6.67,6.67,0,0,1,2.75-2.24,9.34,9.34,0,0,1,4-.81,12.46,12.46,0,0,1,2.63.29,11.86,11.86,0,0,1,2.46.83v-.51a3.21,3.21,0,0,0-.66-2,4.11,4.11,0,0,0-1.8-1.32,6.7,6.7,0,0,0-2.55-.47,8.48,8.48,0,0,0-2.67.43,8.17,8.17,0,0,0-2.44,1.29l-1.53-4.28a19.13,19.13,0,0,1,4-1.54,15.55,15.55,0,0,1,3.92-.52,10.31,10.31,0,0,1,5,1.13,7.86,7.86,0,0,1,3.24,3.17,9.79,9.79,0,0,1,1.15,4.84ZM328,203.36a4.82,4.82,0,0,0,2.13-.49,4.34,4.34,0,0,0,1.65-1.33,3.21,3.21,0,0,0,.68-1.86v-.13a7,7,0,0,0-1.91-.92,7.37,7.37,0,0,0-2.12-.32,4.54,4.54,0,0,0-2.63.71,2.13,2.13,0,0,0-1,1.82,2.17,2.17,0,0,0,.42,1.3,2.86,2.86,0,0,0,1.14.9A4.08,4.08,0,0,0,328,203.36Z"/><path d="M357.59,207.3h-6V177.15h6Z"/><path d="M379.83,207.3h-4.9l-.29-2.33a7.33,7.33,0,0,1-2.66,2,8.35,8.35,0,0,1-3.49.72,8.14,8.14,0,0,1-3.66-.8,6.12,6.12,0,0,1-2.52-2.19,6,6,0,0,1,.08-6.49,6.67,6.67,0,0,1,2.75-2.24,9.34,9.34,0,0,1,4-.81,12.46,12.46,0,0,1,2.63.29,11.86,11.86,0,0,1,2.46.83v-.51a3.21,3.21,0,0,0-.66-2,4.11,4.11,0,0,0-1.8-1.32,6.7,6.7,0,0,0-2.55-.47,8.48,8.48,0,0,0-2.67.43,8.17,8.17,0,0,0-2.44,1.29l-1.53-4.28a19.35,19.35,0,0,1,4-1.54,15.55,15.55,0,0,1,3.92-.52,10.28,10.28,0,0,1,4.95,1.13,7.86,7.86,0,0,1,3.24,3.17,9.79,9.79,0,0,1,1.15,4.84Zm-10.1-3.94a4.82,4.82,0,0,0,2.13-.49,4.34,4.34,0,0,0,1.65-1.33,3.21,3.21,0,0,0,.68-1.86v-.13a6.89,6.89,0,0,0-1.91-.92,7.37,7.37,0,0,0-2.12-.32,4.54,4.54,0,0,0-2.63.71,2.13,2.13,0,0,0-1,1.82,2.17,2.17,0,0,0,.42,1.3,2.86,2.86,0,0,0,1.14.9A4.12,4.12,0,0,0,369.73,203.36Z"/><path d="M413.14,187.72l-8,19.58h-5.44l-8-19.58h6l4.71,13.9,4.72-13.9Z"/><path d="M422,207.3h-5.62V187.72H422Zm-2.82-24.25a2.53,2.53,0,0,1-1.88-.79,2.74,2.74,0,0,1,0-3.79,2.55,2.55,0,0,1,1.88-.77,2.63,2.63,0,0,1,1.91.77,2.69,2.69,0,0,1-1.91,4.58Z"/><path d="M425.45,205.61l1.23-4.77a6.16,6.16,0,0,0,1.58,1.19,9.52,9.52,0,0,0,2.13.87,7.9,7.9,0,0,0,2.17.33,3.44,3.44,0,0,0,1.9-.46,1.45,1.45,0,0,0,.68-1.25,1.41,1.41,0,0,0-.46-1.08,4.28,4.28,0,0,0-1.23-.79c-.52-.22-1.09-.45-1.72-.67-.84-.33-1.72-.71-2.61-1.14a6.64,6.64,0,0,1-2.26-1.76,4.51,4.51,0,0,1-.92-3,5.21,5.21,0,0,1,.92-3.07,5.84,5.84,0,0,1,2.6-2,9.93,9.93,0,0,1,3.92-.72,15.93,15.93,0,0,1,7.22,1.82L439,193.6a7.84,7.84,0,0,0-1.57-.92,12.25,12.25,0,0,0-1.93-.67,7.16,7.16,0,0,0-1.77-.25,2.52,2.52,0,0,0-1.5.39,1.25,1.25,0,0,0-.54,1.07,1.29,1.29,0,0,0,.38.91,3.57,3.57,0,0,0,1.1.77c.49.24,1.1.5,1.81.77a26.94,26.94,0,0,1,2.69,1.16,6.89,6.89,0,0,1,2.29,1.8,4.57,4.57,0,0,1,.93,3,5.36,5.36,0,0,1-1,3.19,6.41,6.41,0,0,1-2.78,2.12,10.67,10.67,0,0,1-4.2.76A14.33,14.33,0,0,1,425.45,205.61Z"/><path d="M457.81,206.79a11.74,11.74,0,0,1-4.37.9,7.79,7.79,0,0,1-3.86-.93,6.64,6.64,0,0,1-2.62-2.61,7.8,7.8,0,0,1-.94-3.86v-7.56H442.6v-5h3.72v-4.89h5.32v4.89h5.42v5h-5.42v6.54a3.4,3.4,0,0,0,.88,2.5,3,3,0,0,0,2.19.89,4.15,4.15,0,0,0,2.33-.75Z"/><path d="M478.12,207.3h-4.89l-.29-2.33a7.29,7.29,0,0,1-2.67,2,8.27,8.27,0,0,1-3.48.72,8.14,8.14,0,0,1-3.66-.8,6.21,6.21,0,0,1-2.53-2.19,6,6,0,0,1,.08-6.49,6.8,6.8,0,0,1,2.75-2.24,9.42,9.42,0,0,1,4-.81,12.46,12.46,0,0,1,2.63.29,11.86,11.86,0,0,1,2.46.83v-.51a3.21,3.21,0,0,0-.66-2,4.23,4.23,0,0,0-1.8-1.32,6.75,6.75,0,0,0-2.56-.47,8.48,8.48,0,0,0-2.67.43,8.12,8.12,0,0,0-2.43,1.29l-1.53-4.28a19.27,19.27,0,0,1,4-1.54,15.62,15.62,0,0,1,3.93-.52,10.34,10.34,0,0,1,4.95,1.13,8,8,0,0,1,3.24,3.17,9.79,9.79,0,0,1,1.14,4.84ZM468,203.36a4.83,4.83,0,0,0,2.14-.49,4.34,4.34,0,0,0,1.65-1.33,3.28,3.28,0,0,0,.68-1.86v-.13a7,7,0,0,0-1.91-.92,7.38,7.38,0,0,0-2.13-.32,4.5,4.5,0,0,0-2.62.71,2.12,2.12,0,0,0-1,1.82,2.17,2.17,0,0,0,.42,1.3,2.9,2.9,0,0,0,1.15.9A4.07,4.07,0,0,0,468,203.36Z"/><path d="M485.48,212h-3.76l1.45-8.45h4.58Z"/></g><g class="cls-3"><path d="M244.88,253.11V223.75h10a15.57,15.57,0,0,1,6.39,1.2,9,9,0,0,1,5.59,8.72,9.57,9.57,0,0,1-1.45,5.32,9.43,9.43,0,0,1-4.12,3.45,15.24,15.24,0,0,1-6.35,1.21h-4.07v9.46Zm6-14.74h3.44a7.89,7.89,0,0,0,4.73-1.22,4.09,4.09,0,0,0,1.65-3.48,4,4,0,0,0-1.65-3.43,7.82,7.82,0,0,0-4.73-1.23h-3.44Z"/><path d="M277.14,253.11h-6V223h6Z"/><path d="M299.37,253.11h-4.89l-.3-2.33a7.3,7.3,0,0,1-2.66,2,8.49,8.49,0,0,1-3.48.71,8.14,8.14,0,0,1-3.66-.79,6.36,6.36,0,0,1-2.53-2.19,5.73,5.73,0,0,1-.92-3.19,5.65,5.65,0,0,1,1-3.3,6.65,6.65,0,0,1,2.75-2.24,9.26,9.26,0,0,1,4-.82,11.88,11.88,0,0,1,2.64.3,11.56,11.56,0,0,1,2.45.82v-.51a3.29,3.29,0,0,0-.65-2,4.4,4.4,0,0,0-1.8-1.32,6.78,6.78,0,0,0-2.56-.47,8.77,8.77,0,0,0-2.67.43,8.09,8.09,0,0,0-2.44,1.3l-1.52-4.29a19.06,19.06,0,0,1,4-1.54,16.08,16.08,0,0,1,3.92-.52,10.35,10.35,0,0,1,5,1.13,8,8,0,0,1,3.24,3.17,9.79,9.79,0,0,1,1.14,4.84Zm-10.1-3.94a4.91,4.91,0,0,0,2.13-.48,4.48,4.48,0,0,0,1.66-1.34,3.2,3.2,0,0,0,.67-1.86v-.13a6.87,6.87,0,0,0-1.91-.91,7,7,0,0,0-2.12-.33,4.5,4.5,0,0,0-2.62.71,2.17,2.17,0,0,0-.6,3.12,2.67,2.67,0,0,0,1.15.9A3.9,3.9,0,0,0,289.27,249.17Z"/><path d="M302.38,251.43l1.24-4.78a5.93,5.93,0,0,0,1.57,1.19,9.41,9.41,0,0,0,2.14.87,7.78,7.78,0,0,0,2.16.33,3.44,3.44,0,0,0,1.9-.46,1.44,1.44,0,0,0,.68-1.25,1.41,1.41,0,0,0-.46-1.08,4,4,0,0,0-1.23-.78c-.52-.23-1.09-.46-1.71-.68-.85-.33-1.72-.7-2.62-1.14a6.62,6.62,0,0,1-2.26-1.76,4.51,4.51,0,0,1-.92-2.95,5.21,5.21,0,0,1,.92-3.07,6,6,0,0,1,2.61-2,9.85,9.85,0,0,1,3.91-.72,15.89,15.89,0,0,1,7.22,1.82L316,239.41a7.39,7.39,0,0,0-1.57-.91,12.18,12.18,0,0,0-1.92-.68,7.17,7.17,0,0,0-1.78-.25,2.49,2.49,0,0,0-1.49.39,1.26,1.26,0,0,0-.54,1.08,1.29,1.29,0,0,0,.37.91,4,4,0,0,0,1.11.76c.49.24,1.09.5,1.81.77a29.25,29.25,0,0,1,2.69,1.17,7,7,0,0,1,2.29,1.8,4.52,4.52,0,0,1,.93,3,5.28,5.28,0,0,1-1,3.19,6.42,6.42,0,0,1-2.78,2.13,10.79,10.79,0,0,1-4.2.75A14.47,14.47,0,0,1,302.38,251.43Z"/><path d="M334.74,252.6a11.74,11.74,0,0,1-4.37.9,7.79,7.79,0,0,1-3.86-.93,6.59,6.59,0,0,1-2.61-2.6,7.76,7.76,0,0,1-.94-3.87v-7.55h-3.43v-5h3.72v-4.9h5.32v4.9H334v5h-5.43v6.53a3.43,3.43,0,0,0,.88,2.5,3,3,0,0,0,2.2.89,4.27,4.27,0,0,0,2.33-.74Z"/><path d="M343.06,253.11h-5.62V233.54h5.62Zm-2.82-24.25a2.51,2.51,0,0,1-1.88-.79,2.6,2.6,0,0,1-.76-1.89,2.56,2.56,0,0,1,.76-1.89,2.54,2.54,0,0,1,1.88-.78,2.68,2.68,0,0,1,1.91,4.56A2.56,2.56,0,0,1,340.24,228.86Z"/><path d="M365.21,250a10,10,0,0,1-3.5,2.57,11.66,11.66,0,0,1-9.95-.39,9.74,9.74,0,0,1-3.74-3.63,10.74,10.74,0,0,1,0-10.46,9.71,9.71,0,0,1,3.74-3.62,10.8,10.8,0,0,1,5.39-1.33,11.13,11.13,0,0,1,4.54.92,10.25,10.25,0,0,1,3.51,2.55l-3.31,3.46a5.39,5.39,0,0,0-1.93-1.38,6.19,6.19,0,0,0-2.44-.5,5.18,5.18,0,0,0-2.62.66,4.84,4.84,0,0,0-1.82,1.8,5.17,5.17,0,0,0-.67,2.63,5.36,5.36,0,0,0,.67,2.68,4.64,4.64,0,0,0,1.82,1.83,5.18,5.18,0,0,0,2.62.66A6.24,6.24,0,0,0,360,248a5,5,0,0,0,1.92-1.38Z"/><path d="M376.37,249.94l2.86-4.6a17.69,17.69,0,0,0,2.61,1.79,11.35,11.35,0,0,0,2.5,1,10.12,10.12,0,0,0,2.52.32,7.33,7.33,0,0,0,2.65-.43,4,4,0,0,0,1.73-1.23,3,3,0,0,0,.61-1.86,2.94,2.94,0,0,0-.78-2.08,7.26,7.26,0,0,0-2-1.48c-.85-.42-1.76-.83-2.73-1.22s-1.91-.82-2.87-1.28a13.69,13.69,0,0,1-2.64-1.66,7.18,7.18,0,0,1-1.94-2.33,7.07,7.07,0,0,1-.74-3.36,7.62,7.62,0,0,1,1.31-4.46,8.3,8.3,0,0,1,3.57-2.9,12.5,12.5,0,0,1,5.18-1,17.64,17.64,0,0,1,4.28.55,21.37,21.37,0,0,1,4.43,1.66l-2.36,4.88a13.05,13.05,0,0,0-3-1.33,10.21,10.21,0,0,0-3-.49,5.79,5.79,0,0,0-2.22.39,3.36,3.36,0,0,0-1.48,1.09,2.61,2.61,0,0,0-.53,1.63,2.72,2.72,0,0,0,.76,1.93,7.24,7.24,0,0,0,2,1.44c.81.41,1.69.83,2.63,1.25s1.94.87,2.93,1.37a14.54,14.54,0,0,1,2.7,1.75,8.25,8.25,0,0,1,2,2.41A7,7,0,0,1,398,245a7.71,7.71,0,0,1-1.37,4.54,9,9,0,0,1-3.82,3,14,14,0,0,1-5.69,1.09,17,17,0,0,1-5.7-1A18,18,0,0,1,376.37,249.94Z"/><path d="M411.11,253.5a11,11,0,0,1-5.4-1.32,9.81,9.81,0,0,1-3.75-3.62,10.72,10.72,0,0,1,0-10.45,9.76,9.76,0,0,1,3.75-3.63,11.51,11.51,0,0,1,10.78,0,9.82,9.82,0,0,1,3.72,3.63,10.72,10.72,0,0,1,0,10.45,9.87,9.87,0,0,1-3.72,3.62A10.86,10.86,0,0,1,411.11,253.5Zm0-5a4.44,4.44,0,0,0,2.42-.68,4.78,4.78,0,0,0,1.68-1.83,5.55,5.55,0,0,0,.62-2.68,5.34,5.34,0,0,0-.62-2.6,4.78,4.78,0,0,0-1.68-1.83,4.66,4.66,0,0,0-4.85,0,4.89,4.89,0,0,0-1.69,1.83,5.45,5.45,0,0,0-.61,2.6A5.66,5.66,0,0,0,407,246a4.89,4.89,0,0,0,1.69,1.83A4.45,4.45,0,0,0,411.09,248.47Z"/><path d="M444.27,253.11h-4.56l-.2-3.13a6.85,6.85,0,0,1-2.75,2.62,8.46,8.46,0,0,1-4,.9,7.62,7.62,0,0,1-5.89-2.31,9,9,0,0,1-2.13-6.34V233.54h5.61v10a5.48,5.48,0,0,0,1.09,3.59,3.64,3.64,0,0,0,3,1.3,3.84,3.84,0,0,0,3.1-1.36,5.58,5.58,0,0,0,1.14-3.69v-9.86h5.62Z"/><path d="M454.68,262.9h-5.63V233.54H454l.29,2.66a9,9,0,0,1,6.83-3.06,8.75,8.75,0,0,1,4.8,1.33,9.27,9.27,0,0,1,3.31,3.62,11.91,11.91,0,0,1,0,10.46,9.3,9.3,0,0,1-3.31,3.63,8.83,8.83,0,0,1-4.8,1.32,9,9,0,0,1-3.55-.69,9.24,9.24,0,0,1-2.87-1.93Zm5-14.45a5,5,0,0,0,2.59-.66A4.58,4.58,0,0,0,464,246a5.83,5.83,0,0,0,0-5.31,4.71,4.71,0,0,0-1.75-1.82,5,5,0,0,0-2.57-.67,5,5,0,0,0-2.46.6,4.78,4.78,0,0,0-1.77,1.66,5.13,5.13,0,0,0-.78,2.42v1a5,5,0,0,0,.77,2.38,4.62,4.62,0,0,0,1.76,1.64A5,5,0,0,0,459.67,248.45Z"/><path d="M476.31,253.5a2.56,2.56,0,0,1-1.88-.76,2.62,2.62,0,0,1,0-3.69,2.6,2.6,0,0,1,1.88-.76,2.65,2.65,0,0,1,1.91.76,2.6,2.6,0,0,1,0,3.69A2.61,2.61,0,0,1,476.31,253.5Zm1.55-8.46h-3.05L474,223.75h4.58Z"/></g></g><g id="Group_6464" data-name="Group 6464"><g id="Group_779" data-name="Group 779"><g class="cls-4"><g id="Group_778" data-name="Group 778"><path id="Path_2850" data-name="Path 2850" class="cls-5" d="M725.35,295.35s-23.05-10.71-22-17.34-17.58-39.62-17.58-39.62v-9.31l-3.47-30.69s.62-6.41-.7-9.14-4.84-9.78-4.84-9.78,3-13.49,3.28-16.84,11.13-30.95,13.59-32.45,3.71-13,24.48-13.56,83.07,44.93,75.52,70.61S780.47,273.7,775,279.17s-42.87,22.66-42.87,22.66Z"/><path id="Path_2851" data-name="Path 2851" class="cls-6" d="M757.68,268s-1.22-13.47-1-19.2-13.64-37.56-13.64-37.56,7.92-12.91,11.78-15.78-.87-21.24-.87-21.24l-.23-5.36s-2.78-11.58,5.88-11.2,26.55,29.55,11.3,46.12-16.08,26.54-16.08,26.54l35.47-31.06s16,6.21,16.56,15.06-25,62.19-49.2,53.68"/><path id="Path_2852" data-name="Path 2852" class="cls-7" d="M680.06,182.64s3.14-9.95,8.58-10.31c0,0-3.13-2.54-11.85,7.14Z"/><path id="Path_2853" data-name="Path 2853" class="cls-7" d="M682.11,225.15l-5.32-1.27s11.23-12.46,11.09-3.22-5.77,4.49-5.77,4.49"/><path id="Path_2854" data-name="Path 2854" class="cls-8" d="M693.66,130.18s-3.42-14.81,7.22-20.89c0,0-4.37,10.63,1.13,8s5.32-8.17,6.84-8,2.09,6.27,6.64,5.7,3.8-3.24,15.38-5.7,82.78-2.85,85.25,44.24-6.26,57.67-6.26,57.67l-6.57,5.65s-.27-6.74-10.52-8.83-16.49-15-16.49-15-3.65-26.07-9.89-30.43-19.57-.52-24.43,20A17,17,0,0,1,730.74,181c-6.07-3-4.25-3-4.25-8.8S710,148.88,705.06,148.88c0,0,6.88-15.47,16-17.9s-2.43-16.38-13-9.7-14.33,8.9-14.33,8.9"/><path id="Path_2855" data-name="Path 2855" class="cls-9" d="M681.63,189.25s-6.34-2.5-6.19-6.2,4.63-7,4.63-7-1.08,9.88,3.08,9.83-1.52,3.38-1.52,3.38"/><path id="Path_2856" data-name="Path 2856" class="cls-9" d="M690.28,269.38s12,.46,13.25-6.63c0,0,2.78,4.62.93,8.63s-1.08,6.63-1.08,6.63-12.18-3.86-13.1-8.63"/><path id="Path_2857" data-name="Path 2857" class="cls-10" d="M109.14,798.66S82.72,826.54,69,821.24s-.63-8.41,1.25-7.79,14.12,5.45,35.46-18,3.43,3.22,3.43,3.22"/><path id="Path_2858" data-name="Path 2858" class="cls-10" d="M103.61,773.53S69.25,756.35,58.17,766s2.29,8.12,3.83,6.9,11.42-9.95,39.48,4.81,2.13-4.2,2.13-4.2"/><path id="Path_2859" data-name="Path 2859" class="cls-11" d="M105.71,784.68s-2.22,6.33,0,10.76,10.43,6.32,18.66,3.16,22.45-20.87,22.45-20.87-36.76-12.65-42.1-6.65-6.29,11.7,1,13.6"/><path id="Path_2860" data-name="Path 2860" class="cls-12" d="M168.17,767.17v8.18l324.2-72.61-2.89-6.39Z"/><path id="Path_2861" data-name="Path 2861" class="cls-12" d="M533.63,692.23l-2.13-5.17,101.75-26.15s1,10.05,0,15.66,0,12-6.09,11.39-4.91,3-9.48,4.27-27.21,6.09-30.51,2.43,0-12.28,0-12.28Z"/><path id="Path_2862" data-name="Path 2862" class="cls-13" d="M1059.49,755.35s2.65-2.32-5.63-2.65a16.42,16.42,0,0,1-12.26-5.79v-3.48s21.86-3,22.53-8.94-.67-9.35-4.64-6.33-12.92,3.61-17.89,0-11.92-13.55-3.64-11.23,10.23,5,11.24,2.65-2.79-6.54-19.11-11.38-37.86,19.41-32.72,22l5.15,2.61s-1.33,9.28,9.6,14.08,6.47,15.07,19.18,14.55,26.78-2.57,28.19-6.11"/><path id="Path_2863" data-name="Path 2863" class="cls-5" d="M1059.49,755.35s-10.6,10.6-24.84,9.28-35.46-29.4-37.27-34.41,10.31,0,8.94,5.59-3.14,4.64,6.8,7,9.93,5.63,9.93,8.94-2.71,5.3,8.25,6.95,17.92,1.66,28.19-3.31"/><path id="Path_2864" data-name="Path 2864" class="cls-14" d="M592.33,700.12s-2.87.36,2.23-6.57,9.42-18.22,6.72-22.33-14.11,1.93-14.11,1.93l-4.82,1.8s-.46-21.76,12.21-27.17l12.68-5.41s20.41,20.21,19.91,24.66-2.86,6.12-2.86,6.12-2.37-8-4.74-7.13S613,676.41,613,676.41l-5.78,15s-6.3,9.76-9.17,9.25-2.1,1-2.1,1-3.61-1-3.6-1.54"/><path id="Path_2865" data-name="Path 2865" class="cls-15" d="M766.43,259.18s26.67-32.11,30.93-36.39,109.57,63.46,114.95,89.85c0,0,22.77,102.9,35.3,115.59s31.54,25.07,30.33,43.14,12.74,50.82,12.74,50.82l12.46,14.2s3.5,20.17,5.53,33.1,3.88,25.73,3.88,25.73,4.05,19.29,2.67,31.82,7.43,35.18,7.43,35.18,4.59,17.23,3.14,28.13,6.69,17.53,5.36,20.85-29.21,21.24-37.84,19.08-15.37-18.86-15.37-18.86l-4.66-8.29S961,680.87,954.91,680.51,907.52,742,907.52,742s-26.75,7.59-54.46,4.91-157.22-10.67-157.22-10.67S671.07,733.6,671,711.69s5.7-32.3,0-43.12-48.8-7.67-48.8-7.67-13.32-17.31-15-18.53,57.59-46.15,58.26-49.5-9.62-69.55,11.58-128c0,0,4.52-5.54,3-14.55s3.63-15.6,22.48-53.3S726.47,355,726.47,355s13-41.42,18.17-55.11,9.68-30.07,21.79-40.67"/><path id="Path_2866" data-name="Path 2866" class="cls-16" d="M848.56,399.83s45,57.94,49.78,62.47-1,14.48,2.09,16.29,7-.12,6.86-3.23-.59-9.44-8.95-19.85S856,391.42,856,390.19s-10.9,5.24-7.47,9.64"/><path id="Path_2867" data-name="Path 2867" class="cls-16" d="M761.24,699.9s7,8,7.43-8.19,4.87-23.16,6.73-31.23,6.4-22.85,6-40.13-.39-42.17,4.1-53,8.12-16.47-6.82-15.48S758.78,591.76,761.24,618s6.31,50.82,3.25,59.14-3.25,22.75-3.25,22.75"/><path id="Path_2868" data-name="Path 2868" class="cls-16" d="M682.67,693.61s3.62,12,5.88,8.28-1.81-33.4,0-41,4.33-23.95-2.59-34.1-12.35-52.25-12.35-63.57-7-14.49-2.59,14.94,6,37.12,9,46.17,4.43,3.45,3.07,18-2.26,40.83-.45,51.24"/><path id="Path_2869" data-name="Path 2869" class="cls-16" d="M722.42,350.5s1.59,7.16,4.05,4.46,13.67-27.81,13.67-27.81l29.61-23.57s4.69-2.27,7-6-.49-4.57-.49-4.57-15.45,9.76-31.67,6.85S731,311.05,731,311.05s-6.17,5.82-6.3,8.43-2.23,31-2.23,31"/><path id="Path_2870" data-name="Path 2870" class="cls-17" d="M907.52,742s8-22.11,12.87-24.65,1.39-6.49-1.62-3.71S902.33,728,901.86,729.85s-4.17-9.19,3.71-14.78,15-4.84,17.25-11.94,2-12-2.66-8-7.87,8.57-13.43,10.19S885.88,715.72,884.26,719s-12.81,5.75-12.81,5.75l-15.89,4.54s-8.6-3.89-7.67-7.32,9.28-9.41,14-8.39,61.18-35.35,62.26-39.29-2.46-24.83-9.26-26.43-39.45-11-48.95-5.7-9.27,7.24-8.34,0,3.14-16.74-3.88-16.74-9.32-4-6.78-5,10.89.86,26.41,7.58,32.89,6.95,32.89,3.7-12.74-7.41-20.15-9.49-12.74-12.51-8.11-18.54,27.11-16.67,25-23.16-31-.2-32.66.94-23.86-4.65-15.52-13.22-7.41-2.08-7.41-2.08,49.93-33,50.33-37.8,37.92,109.77,37.92,109.77-2.08,16.05,19.23,42.46c0,0,.23,54.21-5.56,55.71s-15.3,0-15.3,0-26.9,19.53-26.53,5.77"/><path id="Path_2871" data-name="Path 2871" class="cls-17" d="M883.77,514.59s2.08,2.57-2,3.43-23.61,14.11-26.49,21.89-9.21-21.55-5.76-25.31,2,1.41,4.18,1.41,4.8-17.82,15.14-19.68c0,0-5,16.28,14.9,18.27"/><path id="Path_2872" data-name="Path 2872" class="cls-17" d="M879.35,498.4s-.9-23.16-4.26-26.1-8.66,8.58-8.66,8.58Z"/><path id="Path_2873" data-name="Path 2873" class="cls-17" d="M627.15,668.58s-4.32-6.59-4.93-7.67,13.87-3.21,11.76-9.68-2.59-15.47.21-8.86,9.43,11.55,10.34,5.46-1.51-16,1.8-16,11.16,3.61,12.66,1.5,1.21-19-1.51-23.81l-.24-4.14s3.28-5.22,5.74-5.83a170.71,170.71,0,0,1,5.27,43.2c-.45,22.47-41.1,25.86-41.1,25.86"/><path id="Path_2874" data-name="Path 2874" class="cls-17" d="M728.67,343.21s.24,8.7-2.2,11.75c0,0,42.15-46,43.28-51.38,0,0,1,2.76-3.32,2.1s-20.95,2.21-23.36,5.37-14,25.68-14.4,32.16"/><path id="Path_2875" data-name="Path 2875" class="cls-17" d="M722.42,350.5s1.76-19.95,2.23-31c0,0-16.83,9.32-15.41,14s13.18,17,13.18,17"/><path id="Path_2876" data-name="Path 2876" class="cls-17" d="M795.48,270.07s27.59-24.43,54.23-20,2.95-.53,2.95-.53S832.48,223.71,825,223.71s.58-10.34-1.28-11-12.58-3.13-16,0-20.17,18.81-21.75,24.86,9.54,32.47,9.54,32.47"/><path id="Path_2877" data-name="Path 2877" class="cls-17" d="M990.68,522.19s-6.33-24.11-2.84-32.33-38-84.48-44.9-95.54-4.69-18-4.69-18S926.14,315,922.43,312.64c0,0-11.63-14.37-16.87-21.51s-34.91-37.55-43.91-39.59-48.24-10.06-12.71,15.64,3.72.63,3.72.63,15.54,2.4,11.79,5.08.41,11.07.41,11.07,5.95,39.58,30.08,37.4,4.44,2.28,5.39,10.53-4.44,31.72-6,38.06,19.25,56.64,26.33,68.52A51.74,51.74,0,0,1,928,461.31l6.11,27.29s9.7-25.6,9.7-36.28,3.53,8.63,8.9,6.27,17.43-17.31,15.21,0a130.1,130.1,0,0,1-8.25,31.27s22.41,43.72,31,32.33"/><path id="Path_2878" data-name="Path 2878" class="cls-17" d="M997.38,636.26s21.72-11.39,15.17-41c0,0,5.3,14.7,4,41l-8.8,11.57s.61-10,4.8-15.11-16.84,15.74-15.17,3.54"/><path id="Path_2879" data-name="Path 2879" class="cls-17" d="M956.76,659.67s16.19-51.41,21-66.79,4.48,11.19,7.53,17.36-21.13,57.27-28.48,49.43"/><path id="Path_2880" data-name="Path 2880" class="cls-18" d="M911.83,772.81l26.5,118.78s.21,9.11,3.25,14.07,4.3,21.14,4.3,21.14a4.93,4.93,0,0,1,3.1,3.57c.46,2.68,0,32.72,0,32.72l18,8.59a8.22,8.22,0,0,0,0,8.25c2.53,4.31,14.33,47.58,14.33,47.58L1019,1189.94h-89.9s8.65-24.8,4.17-43.9-18.45-52.14-22.22-60.17-6.86-20.32-6.86-20.32-8.73-24.48-3.94-31.94-9.64-7.46-9.64-7.46l-9.69-5.21s-19.33-5.69-35.56-57.86a171.33,171.33,0,0,1-5.66-29.54c-1.91-17.55,0-3.18,0-3.18L816,872.14s-45.65-82.65-48.33-85.94-34-44.45-34-44.45,91.9-1.79,117,1.79,61.2,29.27,61.2,29.27"/><path id="Path_2881" data-name="Path 2881" class="cls-18" d="M685.88,1190H591.41s8-5.75,8.5-10,18-32.82,18-32.82l-7.07,3.32s3.94-58.28,9.53-75.41,3.6-56.91,6.21-62.07,9.75-24.39,9.75-24.39,1.54,2.68-2.55-3.54a84.09,84.09,0,0,1-7.2-14.61s-6.24-42.43,12-59c0,0,4.15-10.17,4.21-17s44.86-107.77,44.75-122.41l-.1-14.64s2.65-17.92,8.34-21.18c0,0,18.83,6.94,27.89,8.84s15,0,15,0S796,828.21,810.1,857.2l-6.79,14.66s-63.49,55.65-66.19,67.69-.46,33.86-.46,33.86l-27.93,77.75L687.6,1153.42Z"/><path id="Path_2882" data-name="Path 2882" d="M699.31,929.66s9.58,10,24.42-10.23,53.46-63.84,79.59-66.56c0,0-22.66-47.63-38.26-64.28,0,0-68.12,120-65.75,141.07"/><path id="Path_2883" data-name="Path 2883" d="M747.84,770.25s-32.2,0-37.83-4.14-21-8.18-22.51-8.7c0,0,27.46,5.73,30.17,4.12s13.72,1,17.09,4.11,10.18,1.56,10.18,1.56Z"/><path id="Path_2884" data-name="Path 2884" d="M684.51,833.84s41.69-20,57.4-18.9l-3,6.65s-14.76-3.77-54.38,12.26"/><path id="Path_2885" data-name="Path 2885" d="M722.78,857.2s-35.36,5.78-40.89,10.73c0,0,37-8.71,39.46-7.56s1.43-3.17,1.43-3.17"/><path id="Path_2886" data-name="Path 2886" d="M711.05,883.41s-37.32,6.37-48.1,22.1c0,0,40.42-19.07,46.14-17.69s2-4.41,2-4.41"/><path id="Path_2887" data-name="Path 2887" d="M633.82,985.09s-6.82-8.79-7.2-14.62a28.41,28.41,0,0,1,16.23-8.74s-2,10.49-5,14-5.25,5-4.08,9.37"/><path id="Path_2888" data-name="Path 2888" d="M626.62,1013s7.49-28,20.31-37.87c0,0,1.75-8.74,1.75-10.78s13.52-5.66,31.66-8.66c0,0-12.44,16-22.92,17.72S663,984.35,663,984.35s-33.33,15.84-36.33,28.65"/><path id="Path_2889" data-name="Path 2889" d="M702.44,945.77s13.82,36.15,20.56,36.15,11.21-17.87,10.81-22.75-6.5-9.39,4.87-27,45.12-56.53,69.68-69.58c0,0,8.13-1.8,2.73,5.37,0,0-49.59,58.92-63.88,67.28s-6.53,26.4-5.3,34.11S731,988.41,731,994.51s-2.11,27.21-8,34.52-7.87,5.69-3.41,21.93c0,0-6.09,36.15-12.59,61.73s-17.46,69.21-21.12,77.26h-43s22.32-60.19,34.1-74.41,19.09-27.62,14.62-33.3-6.1-23.15-6.1-26.81-13.28-24.74-15.57-25.37-2.09-3.16,0-2.47,14.52,16.37,21.44,15.22,8.53-17.53,12.91-15,11.29,6.46,11.29,1.85-33-51.39-29.64-66.62,8-3.71,12.12,10.36,11.53,23.75,16.83,22.37,3.23-11.07-1.38-16.83-20.88-41.93-11-33.18"/><path id="Path_2890" data-name="Path 2890" d="M599.91,1190s26.31-17.82,30.89-17.43-4.18,17.43-4.18,17.43Z"/><path id="Path_2891" data-name="Path 2891" d="M599.91,1180S636,1135.9,636,1131.27s-3.08-13.25-15.11-9.25,4,9.87,0,15.11-19.12,21.59-21,42.86"/><path id="Path_2892" data-name="Path 2892" d="M641.2,997A93.72,93.72,0,0,1,663.46,1027c8.59,18.57-1,5.36-1,5.36s-19.76-33.66-24.11-33.22-.9-5.53,2.8-2.06"/><path id="Path_2893" data-name="Path 2893" d="M691.17,928.91S654.65,947.06,651.71,949s-20.26,2.53-15.72-5.07,9.58-7.61,14.63-7.17,39.56-5.48,40.55-7.81"/><path id="Path_2894" data-name="Path 2894" class="cls-19" d="M765.06,788.6s-76.48,154.06-86,195.93S643.37,1177.67,637.78,1190H626.62s31.26-129.51,36.84-163,4.47-40.75,21.77-83.73,72.57-163,72.57-163Z"/><path id="Path_2895" data-name="Path 2895" class="cls-19" d="M723.73,745.07s28,29.06,41.33,43.52,66.44,113.54,74.65,144.95c0,0-23.68-80-36.24-91.82s-32.38-55.82-34.31-61.5-15-24.52-30.45-35.15Z"/><path id="Path_2896" data-name="Path 2896" d="M695.84,736.23s34.5,16.31,67.6,10.85,26.49,6.5,56.09-2c0,0,7,5.93,3.51,12.34s22.2,32.91,11.68,35.64-10.84-.78-21.77,8.57-26.13,22.59-11.33,25.31,23.37-9.73,25.7,0,11.3,35.84,24.54,38.56-11.44,36.62-12.15,42.85,3.59,22.75,16,25.2,3.5,19.2,17.14,35.17,37-4.28,35.05-15.19-21.81-32.33-34.66-33.88,11.29-33.89,26.48-23.38-17.14,20.11,16.36,32.65S950.8,915,950.8,915s3.5-7.79-9-14.8-17.92-7.4-25.32-10.52-57.65-48.29-53.36-67.77,5.84-14.41,3.89-35.45-8.18-33.5-2.72-33.5,12.07,30.77,12.07,40.9-2.73,46.75,28.83,71.67,33.11,26.1,33.11,26.1-3.9-75.17-7.79-85.3-3.51-21-3.51-24.15S922,767,924.7,763.83s9-23.26,9.35-27.6a128.37,128.37,0,0,1-40.9,6.57c-23.36,0-187.8-17-197.31-6.57"/><path id="Path_2897" data-name="Path 2897" d="M962.08,982.39s-33.17,5.73-33.17,8.6-2.87-2,0-10.65-12.29,4.09-13.93,8.19-20.51,7.25-23.76-3.45S873.61,1013,873.61,1013,877,983.61,886,974.6s14.69-8.7,26.56-11.52S949,933.64,949,930.37c0,0,4.09,23.34,4.09,27.44S967,971.68,967,971.68s-22.12-10.19-4.92,10.7"/><path id="Path_2898" data-name="Path 2898" d="M880.94,1020.94s3.48,6.72,21.88,13.68c0,0,32.08-1.49,34.07-4s-1-1.24-8.45-1.24a85.52,85.52,0,0,1-23.38-3.25c-7.71-2.22-21.14-7.44-24.12-5.21"/><path id="Path_2899" data-name="Path 2899" d="M869,963.09s-3.69,10.36-19.61,6.63c0,0-3.48-3.56-4-6.63,0,0,17.2-1.5,18.92-14.47S869,963.09,869,963.09"/><path id="Path_2900" data-name="Path 2900" class="cls-20" d="M766.84,651.23s9.18-17.16,9.18-22-5.59-33.93-4.59-41.91,8.18-33.93,12.57-35.53c0,0-18,8.78-17.16,39.92s4.39,45.9,0,59.47"/><path id="Path_2901" data-name="Path 2901" class="cls-20" d="M935.68,638.06s-11.58-34.33-12.38-54.69-6.78-36.32-8.78-43.9-7.58-34.33-16.76-28.74,0,11.57,0,17.56-12,22.35-6.39,23.55,15.57-1.2,15.17,5.59-3.19,13.21-.4,16.58,2.39,9.36-.4,13-27.54,15.16-26.35,21.95,13.93,10,28.12,10.78,28.16,18.36,28.16,18.36"/><path id="Path_2902" data-name="Path 2902" class="cls-20" d="M868.88,496.33s11,15.17,14.9,18.26c0,0-23,2.25-23.89,12.93,0,0-4.22-26.14,9-31.19"/><path id="Path_2903" data-name="Path 2903" class="cls-20" d="M850.89,471.59s8.15,12.09,11,13.49c0,0-1.68,12.09-5.48,11.25s-.42-5.62-4.07-5.34-21.64,12.92-21.92,17.14c0,0,3.65-13.21,13.21-19.67s1.12-8.15,7.3-16.87"/><path id="Path_2904" data-name="Path 2904" class="cls-20" d="M805.91,411.57S796,401.15,796,397.94s6.41-5.88,5-8-12.17-18.71-12.17-23.25c0,0-2.67,19.24,3.75,30.2s5.61,8.29-1.07,7.49-12-1.61-16-3.21-17.9-1.07-22.45,6.41c0,0,7,3.21,12.83.81s15.23-5.35,23.79.53,15.5,5.88,16.3,2.67"/><path id="Path_2905" data-name="Path 2905" class="cls-20" d="M840.85,450.35s13.09,0,9.57-5.43-8.29-9.89-4.3-11.17a9.17,9.17,0,0,1,6.54,0s-8.3-31.93-13.09-53S827.12,329,827.12,321.36c0,0,2.55,68,9.57,84.29s-5.1,29.38,4.16,44.7"/><path id="Path_2906" data-name="Path 2906" class="cls-20" d="M821.69,417.46s4.47-10.21,0-13.73S809.24,386.49,809.24,375s-4.79-19.16-4.79-25.54-5.06-11.65,1.46-39.59c0,0-9.13,3.35-8.81,19.95s1,19.8,5.43,56c0,0,3.57,9.73,3.38,12s12.59,14.37,15.78,19.64"/><path id="Path_2907" data-name="Path 2907" class="cls-20" d="M879.35,498.4s-16.6-17.56-17.5-21.39,7.12-6.07,9.66-12.77-2.25-10.54,1.58-11.81,6.71,9.89,3.83,16.6-10.53,10.54-2.87,18.2,5.3,11.17,5.3,11.17"/><path id="Path_2908" data-name="Path 2908" class="cls-20" d="M923.54,546.93s-.64-66.19-1.92-71.57,0-3.77,0-3.77-16.4,11.8-14.1,24.74,10.27,21.87,16,50.6"/><path id="Path_2909" data-name="Path 2909" class="cls-20" d="M927.69,536.4s.32-48.53-1.92-58.11,1.94-27.94,1.94-27.94S936,478,933.76,492s11.81-12.14,14-9.26-6.06,27-9.57,29.16,16,3.4,14.36,6-16.6,1-18.2,5.43-6.7,13.09-6.7,13.09"/><path id="Path_2910" data-name="Path 2910" class="cls-20" d="M941.42,591s8.3-41.5,19.15-42.46,9.9-1.6,14.69-4.47,7-6.38,9.58-7.66-7.66-6.39-14.69,0-13.09,3.51-14,4.79-34.17,29-14.69,49.8"/><path id="Path_2911" data-name="Path 2911" class="cls-20" d="M935.31,606.32s26.54-1.59,28.14-4.79,8.3-14,4.47-14-5.11,8-12.13,9.42-23.4-1.75-20.48,9.42"/><path id="Path_2912" data-name="Path 2912" class="cls-20" d="M948.89,660.45,945,655s7.08-14.56,10.42-11.21,3.93,15.93,1.38,15.93a76.8,76.8,0,0,0-7.87.78"/><path id="Path_2913" data-name="Path 2913" class="cls-20" d="M963.45,684.05s-3.4-2.16-3.18-2.95-5.41-19.09,8.81-37.86,13-32.64,19.34-36.92,17.9-24.93,17.9-24.93-1.77,36.38-7.28,42.68-27.92,31.27-28.12,41.1-2.75,15.34-7.47,18.88"/><path id="Path_2914" data-name="Path 2914" class="cls-20" d="M973.28,703.13s-5.7-12.19-6.88-12.19c0,0,15.37-3.93,16.44-11.41,0,0-4.45,13.77-6.81,15.15s-2.75,8.45-2.75,8.45"/><path id="Path_2915" data-name="Path 2915" class="cls-20" d="M983.7,703.13s10.43-2.16,17.12-5.31,11.4-11.6,25-7.47c0,0,.4-7.87-4.72-7.67s-18.88,7.08-22.42,11-2-9.44,1.38-12,22.22-13.17,22.62-19.47c0,0-.39-12.78-3.64-17.5s-2.46-8.46-2.46-8.46S994.33,662,994.13,679.53s-10.42,23.6-10.42,23.6"/><path id="Path_2916" data-name="Path 2916" class="cls-20" d="M986.15,721.94s21.41-6.41,27.94-4.23.42-10.13-9.34-9.49-24.12,5-26.81,3.21c0,0,4.87,9.61,8.21,10.51"/><path id="Path_2917" data-name="Path 2917" class="cls-20" d="M976.68,601.5s-1.49,9.72,6.16,2.34,20.86-31.11,20.28-46.07,0-21.37,0-21.37-5.85-10.51-12.46-14.21c0,0,2.82,27.61-.83,36.55s-14,33.24-13.17,42.77"/><path id="Path_2918" data-name="Path 2918" class="cls-20" d="M938.25,376.33S925,325.08,919.06,319.18c0,0-3.38-1.06,0-3.8l3.37-2.74s17.72,18.34,15.82,63.68"/><path id="Path_2919" data-name="Path 2919" class="cls-20" d="M887.64,299.35s20.45,16,24.67,13.29-5.48-6.75-6.33-13.29-.42-8.22-.42-8.22-6.53-5.06-9.7-7.17-18.56-2.74-24.25-5.48-8.22,2.95-6.75,5.48,13.09,8.65,24,7.8,1.68,3.39-.85,3.59-3.49,1.69-.42,4"/><path id="Path_2920" data-name="Path 2920" class="cls-20" d="M785.45,483.34s19-20.6,36.92-22.47,19.26-5.35,19,3.47c0,0-22.74,14.18-22.74,21.67,0,0-2.14-6.95-1.33-11.77s-9.1-7.49-31.84,9.1"/><path id="Path_2921" data-name="Path 2921" class="cls-20" d="M833.34,448.56s-11-13.64-15-20.33a52.07,52.07,0,0,0-6.42,24.1s11-5.39,21.4-3.77"/><path id="Path_2922" data-name="Path 2922" class="cls-20" d="M728.67,343.21s-2.29-22.21,4.15-28.84,8.71-9.34,12.24-9.34,19.3,1,24.69-1.45c0,0-1.25,6.56-9.55,6.29s-5.39-1.81-9.54,0-18.47,19.85-22,33.34"/><path id="Path_2923" data-name="Path 2923" class="cls-20" d="M776.8,297.56s25.46-41.29,33.59-42.12-4.12-5.81-8.69-7.26-11.2-8.72,2.91-9.34,34.44-3.32,34.44-3.32-5.6-4.77-21.58-7.68-18.67.21-22,0c0,0-5.4,5.61-9.55,9.76,0,0-8.3,28.22-6,49.38,0,0-5.18,3.32-3.11,10.58"/><path id="Path_2924" data-name="Path 2924" class="cls-20" d="M725.35,295.35s6,3.66,7.67,2.21,26.35-33.41,33.41-38.38c0,0-18,24.06-21.79,40.66,0,0-12,7.89-13.69,11.21,0,0-11.83-4.57-11.21-7.47s5.61-8.23,5.61-8.23"/><path id="Path_2925" data-name="Path 2925" class="cls-20" d="M764.49,640.38s-11-2.75-14.25,1.51-12.76,10-10.76,1.75,4.5-13.51,7-13.26c0,0-4.75-6-1.25-16S762,592.88,762,592.88s-12.53,22.25-10.14,29.5,9.14,10,10.14,12,2.5,6,2.5,6"/><path id="Path_2926" data-name="Path 2926" class="cls-20" d="M706,623.13s-.75,15,8.76,20.26,49.26,30.5,49.76,33.76-2.75,19.5-3.25,22.75-14.51-5.75-23.76-2-9.25,4.5-7.25-9,6-20.76-6.25-30.51-24.7-18.75-23.23-27.51,5-12.2,5.22-7.75"/><path id="Path_2927" data-name="Path 2927" class="cls-20" d="M855.88,740.46s36-38.69,45.47-37.33,17.19-8.88,17.19-11.8,12.2-7.63,12.2-2.36,11.09,10.25-5.82,28.27-12.07,24-12.07,24,19-2.43,21.2-5.06,13.32-9.29,6.94-29.52-3.88-39.09.56-41.86c0,0-16.91-22.45-24.67-22.73,0,0-4.44,4.44,0,11.37s9.15,6.93,3,13-14.42,21.06-28.83,27.16-39.36,27.41-36.31,28.26,6.37-1.69,6.37,0-12.23,10.14-5.28,18.52"/><path id="Path_2928" data-name="Path 2928" class="cls-20" d="M627.15,668.58s8.09,10.16,9.47,9,3.7-9.23,14.09-9,20.32,0,20.32,0-3.23-22.62-2.77-25.85-40.18,16.85-41.1,25.86"/><path id="Path_2929" data-name="Path 2929" class="cls-16" d="M728.27,369.05s12.29-4.76,14.8-2.38,5.4,1.72,5.09-.67.82-6.91-9.93-6.45-10,9.5-10,9.5"/><path id="Path_2930" data-name="Path 2930" class="cls-5" d="M1041.6,746.91v-3.48s-15-9.94-15.8-13.25-4.21,3.31-6.79,5,7.29,2,11.29,6.15,11.3,5.61,11.3,5.61"/><path id="Path_2931" data-name="Path 2931" class="cls-5" d="M587.17,673.15l7.49-1.16s-.83-4.49,5-1.33-1-8-3-9.49-8.16,3.66-9.49,12"/><path id="Path_2932" data-name="Path 2932" class="cls-5" d="M592.33,700.12s2.5,3.32,4.5,2.49,12.65-8,13.48-13.48,6.16-21.64,10.15-19.64,3.83,3.66,3.83,3.66-3.67-17-9.82-9-5.16,18.31-8.16,23.64-9.15,14.15-14,12.32"/><path id="Path_2933" data-name="Path 2933" class="cls-21" d="M168.17,767.17s-55.82,13.4-62.46,17.51c0,0,39-4.06,62.46-9.33Z"/><path id="Path_2934" data-name="Path 2934" class="cls-21" d="M492.37,702.74l41.26-10.51-2.13-5.17-42,9.29Z"/><path id="Path_2935" data-name="Path 2935" d="M976.53,1010.3s-34.92,29-46.22,29.39,20.05,15.44,20.94,13.93,5.42-15.43,8.43-5.26,13,23.72,16.85,41,11.77,32.76-3.67,32-24.85,7.53-20,21.84,16.57,11.29,16.57,11.29-32,18.45-28.62,24.85a114.8,114.8,0,0,1,5,10.57h21.54s10.33-12.45,3.93-16.22,21.84-27.11,22.59-18.07-13.55,16.19-13.55,21.46-4.56,12.83-4.56,12.83H1019s-37.32-162-42.48-179.65"/><path id="Path_2936" data-name="Path 2936" d="M911.07,1085.87s3-17.94,1.92-23.21,5.26-5.65,14.87,0,34,7.15,39.14,4.14-.73-3.67-.73-3.67-35.64-5-46-12.89-18.79,6.54-18.79,6.54a198.66,198.66,0,0,0,9.55,29.09"/><path id="Path_2937" data-name="Path 2937" class="cls-22" d="M683.21,192.53l-2.89-6s11.13-2.67,14.47-2.67-7.34,8.24-11.58,8.68"/><path id="Path_2938" data-name="Path 2938" class="cls-22" d="M748.24,199.21s11.8-4,10.47-6.68.22-4,2-4.34,1.34-4.79-1.11-5.68-2.67-5.57-2-6.46,2.9-8.24,2.9-8.9-10-.67-8.46,7.79,3.78,8.46,1.33,13.25-6.68,6.12-5.12,11"/><path id="Path_2939" data-name="Path 2939" class="cls-22" d="M676.79,223.88s-5.27-.92-8.12-1.29,8.57-6.53,9.48-4.87,4.51,6-1.36,6.16"/><path id="Path_2940" data-name="Path 2940" class="cls-7" d="M703.54,262.75s19.79-1.28,22.85-3.57,3.9-18.1,7.24-18.54,23-9.07,21.22-1.84,1.86,9.95,1.86,9.95,6.83-9.39,5.08-18,6.61-9.31,11.89-10.08,12.52-8,13.49-15-10.86-10.29-10.86-10.29l-25.79,20.5s-8.57-1.44-7.45-4.71-12.23,1.18-10.84,3.68,5.85,8.7,3.62,11.72-20.68,35.34-32.31,36.15"/><path id="Path_2941" data-name="Path 2941" class="cls-23" d="M690.28,269.37s-3-9.15,0-17.5c0,0-2.83-5.28-4.22-8.06s3.34-3.18,3.34-3.18,12,10.55,12,14.38a18.67,18.67,0,0,0,2.17,7.74s-1.25,13-13.25,6.63"/><path id="Path_2942" data-name="Path 2942" class="cls-23" d="M691.62,233s-7.23,3.34-9.18,3.34c0,0,3.47-4.45,0-8.63s5.58-2.62,5.44-7-7.82,1.48-7.82,1.48l-11.4.45s-6-3.11,1-11.39a140,140,0,0,1,16.15-15.79s-3.33,14.33-1.12,15.79,9.17,14.08,6.94,21.76"/><path id="Path_2943" data-name="Path 2943" class="cls-7" d="M686.06,243.81s11.66-4.18,8.61-7.51-12.23,0-12.23,0-1.94,5.84,3.62,7.51"/><path id="Path_2944" data-name="Path 2944" class="cls-9" d="M750.52,215.91s20.16-10.24,20-25.58.9-20.47-1.2-22.27,9.93,1.8,10.68,13.84-4.07,46.19-29.49,34"/></g></g></g></g><g id="Group_6467" data-name="Group 6467"><path id="Path_7176" data-name="Path 7176" class="cls-24" d="M352.56,291.83a7.37,7.37,0,0,1-6.09-2.59c-1.4-1.73-2.09-4.27-2.09-7.6q0-6.86,3.79-10.78t10.75-3.93v6.25a6.34,6.34,0,0,0-4.14,1.25,5.18,5.18,0,0,0-1.54,3.75,7.68,7.68,0,0,1,4.7,2.22,6.79,6.79,0,0,1-5.38,11.43Zm16.86,0a7.35,7.35,0,0,1-6.09-2.59c-1.4-1.73-2.1-4.27-2.1-7.6q0-6.86,3.8-10.78t10.75-3.93v6.25a6.39,6.39,0,0,0-4.15,1.25,5.22,5.22,0,0,0-1.53,3.75,7.68,7.68,0,0,1,4.7,2.22,6.79,6.79,0,0,1-5.38,11.43Z"/><line id="Line_155" data-name="Line 155" class="cls-25" x1="381.67" y1="279.38" x2="438.18" y2="279.38"/><line id="Line_156" data-name="Line 156" class="cls-25" x1="289" y1="279.38" x2="339.22" y2="279.38"/></g></svg>