<svg xmlns="http://www.w3.org/2000/svg" width="50.513" height="33.235" viewBox="0 0 50.513 33.235">
    <g id="rudBR8" transform="translate(-1465.584 -381.465)">
        <g id="Group_141" transform="translate(1465.584 381.465)">
            <path id="Path_673" data-name="Path 673" d="M1469.862,381.465h46.061c-.59.7-.976,1.236-1.435,1.7q-9.4,9.422-18.824,18.822c-2.161,2.154-3,2.162-5.11.066C1483.809,395.353,1477.078,388.645,1469.862,381.465Z" transform="translate(-1467.826 -381.465)" fill="#74b89d"/>
            <path id="Path_674" data-name="Path 674" d="M1502.738,421.854l14.082,14.01h-44.506l14.022-13.876c.967,1.072,2.365,2.777,3.926,4.317,2.547,2.511,5.666,2.487,8.2,0C1499.985,424.81,1501.425,423.226,1502.738,421.854Z" transform="translate(-1469.111 -402.629)" fill="#74b89d"/>
            <path id="Path_675" data-name="Path 675" d="M1556.61,415.327,1542.9,401.619l13.712-13.531Z" transform="translate(-1506.097 -384.935)" fill="#74b89d"/>
            <path id="Path_676" data-name="Path 676" d="M1465.584,414.821V388.4L1479,401.823Z" transform="translate(-1465.584 -385.1)" fill="#74b89d"/>
        </g>
    </g>
</svg>
