<svg xmlns="http://www.w3.org/2000/svg" width="37.345" height="37.946" viewBox="0 0 37.345 37.946">
    <g id="Vln55E" transform="translate(-1192.666 -444.382)">
        <g id="Group_140" transform="translate(1192.666 444.382)">
            <path id="Path_672" d="M1214.062,471.845a7.8,7.8,0,0,0,.682-1.428,2.391,2.391,0,0,1,2.753-2.112,33.967,33.967,0,0,1,5.275.526,24.15,24.15,0,0,1,4.322,1.712,5.669,5.669,0,0,1,2.348,1.679,1.939,1.939,0,0,1,.529,1.676c-.824,3.689-2.586,6.718-6.33,8.039a9.468,9.468,0,0,1-6.042-.261,29.71,29.71,0,0,1-10.437-6.03c-1.78-1.532-3.451-3.193-5.126-4.842a42.366,42.366,0,0,1-6.895-9.207c-1.769-3.081-2.975-6.4-2.272-10.077a10.575,10.575,0,0,1,6.048-6.936c1.846-.709,2.967.574,3.989,1.7a18.208,18.208,0,0,1,3.546,5.723,17.605,17.605,0,0,1,1.172,4,2.476,2.476,0,0,1-1.316,2.336c-.766.444-1.556.848-2.337,1.267-.754.4-.862.793-.3,1.453.614.714,1.291,1.374,1.945,2.053q1.959,2.032,3.924,4.058Z" transform="translate(-1192.666 -444.382)" fill="#74b89d"/>
        </g>
    </g>
</svg>
