<svg xmlns="http://www.w3.org/2000/svg" width="1177" height="226.891" viewBox="0 0 1177 226.891">
    <path id="Path_788" d="M89.205,580.622q-36.412,0-55.484-23.655T14.648,487.735q0-62.42,34.554-98.212t97.964-35.792V410.7q-25.265.5-37.774,11.394T95.4,456.277q27.247,3.715,42.852,20.187t15.6,42.232q0,27.742-17.958,44.833T89.205,580.622Zm153.573,0q-36.412,0-55.484-23.655t-19.073-69.232q0-62.42,34.554-98.212t97.964-35.792V410.7q-25.265.5-37.774,11.394T248.97,456.277q27.247,3.715,42.852,20.187t15.6,42.232q0,27.742-17.958,44.833T242.778,580.622Z" transform="translate(404.416 -353.73)"/>
    <line id="Line_119" x2="414.093" transform="translate(762.907 113.445)" fill="none" stroke="#000" stroke-width="20"/>
    <line id="Line_120" x2="368" transform="translate(0 113.445)" fill="none" stroke="#000" stroke-width="20"/>
</svg>
