<?xml version="1.0" encoding="utf-8"?>
<!-- Generator: Adobe Illustrator 26.0.1, SVG Export Plug-In . SVG Version: 6.00 Build 0)  -->
<svg version="1.1" xmlns="http://www.w3.org/2000/svg" xmlns:xlink="http://www.w3.org/1999/xlink" x="0px" y="0px"
	 viewBox="0 0 1440 608.8" style="enable-background:new 0 0 1440 608.8;" xml:space="preserve">
<style type="text/css">
	.st0{display:none;}
	.st1{display:inline;fill:#F5F7F5;}
	.st2{display:inline;}
	.st3{fill:#FFFFFF;}
	.st4{fill:#E7F5FE;}
	.st5{fill:#184B60;}
	.st6{fill:#52A785;}
	.st7{fill:#9CD1A7;}
	.st8{fill:#DFEBE1;}
	.st9{fill:#C5DDC3;}
</style>
<g id="lucht" class="st0">
	<rect y="-2036.5" class="st1" width="1440" height="2645.3"/>
</g>
<g id="wolken" class="st0">
	<g class="st2">
		<path class="st3" d="M452.5-1639.6c1.5-2.9,2.3-6.2,2.3-9.7c0-10-6.7-18.4-15.8-21c0.2-1.5,0.3-3,0.3-4.5
			c0-16.7-13.6-30.3-30.3-30.3c-7.1,0-13.7,2.5-18.9,6.6c-3.9-6.1-10.8-10.2-18.6-10.2c-5,0-9.5,1.6-13.2,4.4
			c-4.9-8-13.7-13.3-23.8-13.3c-14.8,0-26.9,11.5-27.9,26.1c-4.4-2.3-9.4-3.6-14.6-3.6c-17.6,0-31.9,14.3-31.9,31.9
			c0,4.9,1.1,9.6,3.1,13.8c0,0-0.1,0-0.1,0c-13,0-23.5,10.5-23.5,23.5c0,13,10.5,23.5,23.5,23.5c5.5,0,10.5-1.9,14.5-5
			c5.7,9,15.7,15,27.1,15c9,0,17.1-3.7,22.9-9.7c8.2,9,19.9,14.6,33,14.6c11.6,0,22.1-4.4,30.1-11.6c5.9,6.5,14.5,10.6,24,10.6
			c11,0,20.8-5.5,26.6-13.9c1.8,0.6,3.8,0.9,5.8,0.9c10.7,0,19.4-8.7,19.4-19.4C466.5-1629.8,460.6-1637.2,452.5-1639.6z"/>
		<path class="st4" d="M460.4-1635c-0.9,1.7-2,3.3-3.4,4.7c-3.6,3.6-8.5,5.6-13.5,5.6s-10-2-13.5-5.6c-1-1-1.8-2-2.5-3.2
			c-4.7,4.5-11,7.2-17.9,7.2c-6.1,0-11.9-2.2-16.4-5.9c-2.2,0.8-4.5,1.3-7,1.3h-0.7c-4.1,0-7.9-1.3-11-3.4
			c-5.9,3.9-12.8,6.2-20.2,6.2c-0.3,0-0.5,0-0.8,0c-0.9,2.6-2.4,5.1-4.4,7c-3.5,3.5-8.4,5.6-13.5,5.6c-1.8,0-3.7-0.3-5.5-0.7
			c-3-0.7-6.3-2.8-8.4-4.9c0,0,0-0.1-0.1-0.1c-5.3,2.9-11.2,4.5-17.3,4.5c-8.3,0-16.4-2.9-22.8-8.2c-3.7,2.2-8,3.5-12.5,3.5
			c-11.6,0-21.5-8.4-23.9-19.3c-3.3,4.1-5.3,9.2-5.3,14.9c0,13,10.5,23.5,23.5,23.5c5.5,0,10.5-1.9,14.5-5c5.7,9,15.7,15,27.1,15
			c9,0,17.1-3.7,22.9-9.7c8.2,9,19.9,14.6,33,14.6c11.6,0,22.1-4.4,30.1-11.6c5.9,6.5,14.5,10.6,24,10.6c11,0,20.8-5.5,26.6-13.9
			c1.8,0.6,3.8,0.9,5.8,0.9c10.7,0,19.4-8.7,19.4-19.4C466.5-1626.5,464.2-1631.5,460.4-1635z"/>
	</g>
	<g class="st2">
		<path class="st3" d="M571.3-630.7c-0.5,0-0.9,0-1.4,0c-1.7-12.4-12.3-22-25.1-22c-3.2,0-6.3,0.6-9.2,1.7
			c-0.7-11.9-10.6-21.4-22.7-21.4c-2.2,0-4.4,0.3-6.4,0.9c-6.6-12-19.4-20.1-34-20.1c-21.4,0-38.8,17.3-38.9,38.7
			c-7.6-7.8-18.3-12.7-30.1-12.7c-22.6,0-41.1,17.8-42.1,40.2c-2.8-1-5.7-1.5-8.8-1.5c-14.7,0-26.7,11.9-26.7,26.7
			s11.9,26.7,26.7,26.7c6,0,11.6-2,16.1-5.4c3.1,5.9,9.2,9.9,16.4,9.9c6,0,11.3-2.9,14.7-7.3c4.3,7.7,12.5,12.9,22,12.9
			c6.1,0,11.7-2.2,16-5.8c6.9,6.4,16.1,10.3,26.2,10.3c14.8,0,27.6-8.3,34.1-20.5c6.1,5.7,14.3,9.1,23.3,9.1
			c13.6,0,25.4-7.9,31-19.4c4.6,5.3,11.3,8.7,18.9,8.7c13.7,0,24.9-11.1,24.9-24.9C596.1-619.6,585-630.7,571.3-630.7z"/>
		<path class="st4" d="M590.4-610.8c-5.5,5.5-13,8.6-20.7,8.6c-7,0-13.8-2.5-19-7.1c-2.2,3.3-5.8,5.6-11,5.6c-5,0-8.6-2.2-10.8-5.3
			c-6.7,7.6-16.5,12.5-27.2,12.5c-10.6,0-20.2-4.7-26.9-12.1c-0.6,0.8-1.2,1.6-1.9,2.3c-3.8,3.8-9.1,6-14.5,6h-0.7
			c-4.8,0-9.4-1.7-13.1-4.7c-1.3,2.9-4.1,5.1-8.3,5.1c-5.4,0-8.4-3.7-9.1-7.8c-4.4,3.9-10.1,6.2-16.2,6.2c-5.4,0-10.4-1.8-14.5-4.8
			c-0.6,2.5-1.9,4.8-3.7,6.6c-2.6,2.6-6.2,4.1-9.9,4.1c-3.7,0-7.3-1.5-9.9-4.1c-0.4-0.4-0.8-0.9-1.2-1.4c-5.3,7.8-14.3,13-24.3,13
			c-8.5,0-16.3-3.8-21.7-9.7c1.2,13.6,12.6,24.3,26.6,24.3c6,0,11.6-2,16.1-5.4c3.1,5.9,9.2,9.9,16.4,9.9c6,0,11.3-2.9,14.7-7.3
			c4.3,7.7,12.5,12.9,22,12.9c6.1,0,11.7-2.2,16-5.8c6.9,6.4,16.1,10.3,26.2,10.3c14.8,0,27.6-8.3,34.1-20.5
			c6.1,5.7,14.3,9.1,23.3,9.1c13.6,0,25.4-7.9,31-19.4c4.6,5.3,11.3,8.7,18.9,8.7c13.7,0,24.9-11.1,24.9-24.9c0-3.4-0.7-6.7-1.9-9.6
			C593.1-613.8,591.8-612.2,590.4-610.8z"/>
	</g>
	<g class="st2">
		<path class="st3" d="M522.2-79.7c1.1-9.6-5.9-18.2-15.5-19.3c-1.5-0.2-3.1-0.1-4.5,0.1c1.2-18.4-12.3-34.7-30.8-36.8
			c-8.9-1-17.4,1.5-24.1,6.4c-3.3-14.2-15.2-25.5-30.6-27.2c-18-2-34.2,9.9-38.2,27.1c-3.2-1.6-6.7-2.7-10.5-3.1
			c-17-1.9-32.4,10.4-34.2,27.5c-0.6,5.1,0.2,10.1,1.9,14.6c-10.8,2-19.6,11-20.8,22.5c-1.5,14.1,8.7,26.8,22.8,28.4
			c2,0.2,3.9,0.2,5.8,0c4,12.2,14.9,21.6,28.6,23.1c11.3,1.2,22-3.2,29-11.1c6.6,6.6,15.4,11.2,25.4,12.3
			c15.8,1.7,30.6-5.5,39.2-17.7c4.9,5.4,11.7,9.2,19.5,10c16.9,1.8,32-10.3,33.9-27.2c0.7-6.3-0.6-12.4-3.4-17.7
			C519.2-70.7,521.6-74.9,522.2-79.7z"/>
		<path class="st4" d="M522.2-79.7c0.6-5.8-1.7-11.2-5.7-14.9c0,0.1,0,0.2,0,0.3c0,10.9-8.1,20.3-18.6,22.2
			c-2.3,10-11.4,17.7-22.1,17.7c-6.8,0-12.9-3.1-17.1-7.9c-2.9,5.3-8.6,9-14.9,9c-7,0-13.2-4.5-15.7-10.7c-0.8,0.8-1.7,1.5-2.6,2.1
			c-5.4,6.3-13.5,10.4-22.3,10.4c-10.2,0-19.2-5.4-24.6-13.3c-1,5-5.5,8.8-10.8,8.8h-0.7c-4.5,0-8.4-2.8-10.1-6.7
			c-3.5,2.1-7.6,3.4-11.9,3.4c-12.5,0-23-10.4-23-23c0-0.3,0-0.7,0-1c-4,4-6.8,9.3-7.5,15.4c-1.5,14.1,8.7,26.8,22.8,28.4
			c2,0.2,3.9,0.2,5.8,0c4,12.2,14.9,21.6,28.6,23.1c11.3,1.2,22-3.2,29-11.1c6.6,6.6,15.4,11.2,25.4,12.3
			c15.8,1.7,30.6-5.5,39.2-17.7c4.9,5.4,11.7,9.2,19.5,10c16.9,1.8,32-10.3,33.9-27.2c0.7-6.3-0.6-12.4-3.4-17.7
			C519.2-70.7,521.6-74.9,522.2-79.7z"/>
	</g>
	<g class="st2">
		<path class="st3" d="M1320.7-1373.2c-5.8,0-11.2,1.5-15.9,4.1c0.7-2.8,1.1-5.7,1.1-8.6c0-19.7-16-35.7-35.7-35.7
			c-0.6,0-1.2,0-1.8,0c-1.3-24.9-21.9-44.6-47.1-44.6c-26.1,0-47.2,21.1-47.2,47.2c0,0.2,0,0.5,0,0.7c-2.4-0.5-4.9-0.7-7.4-0.7
			c-20.8,0-37.6,16.8-37.6,37.6c0,3.9,0.6,7.6,1.7,11.2c-13.1,3.6-22.8,15.6-22.8,29.8c0,17.1,13.8,30.9,30.9,30.9
			c7.1,0,13.5-2.4,18.7-6.3c6.4,8.9,16.8,14.7,28.6,14.7c13.8,0,25.7-8,31.5-19.6c7.5,11.8,20.7,19.6,35.7,19.6
			c12.5,0,23.7-5.4,31.4-14c3.5,3.4,8.3,5.6,13.6,5.6c5.8,0,11-2.6,14.6-6.7c2.5,0.6,5,0.9,7.7,0.9c18.3,0,33.1-14.8,33.1-33.1
			C1353.7-1358.4,1338.9-1373.2,1320.7-1373.2z"/>
		<path class="st4" d="M1337.1-1338c-8.6,0-16.4-4.3-21.2-10.8c-0.7,0.8-1.4,1.6-2.1,2.4c-4.9,4.9-11.7,7.7-18.7,7.7h-0.7
			c-5.2,0-10.3-1.6-14.5-4.4c-2.3,6.4-8.4,11-15.5,11c-8.3,0-15.2-6.4-16.3-14.4c-2.9,2.4-6.6,3.7-10.4,3.7h-0.7
			c-4.3,0-8.5-1.7-11.6-4.8c-0.3-0.3-0.6-0.7-1-1.1c-7.8,9.6-19.7,15.8-32.8,15.8c-7.8,0-15.2-2.2-21.5-6
			c-4.1,11.5-15.1,19.8-27.8,19.8c-16.1,0-29.5-13.4-29.5-29.5c0-0.2,0-0.4,0-0.6c-3.2,4.8-5,10.6-5,16.8
			c0,17.1,13.8,30.9,30.9,30.9c7.1,0,13.5-2.4,18.7-6.3c6.4,8.9,16.8,14.7,28.6,14.7c13.8,0,25.7-8,31.5-19.6
			c7.5,11.8,20.7,19.6,35.7,19.6c12.5,0,23.7-5.4,31.4-14c3.5,3.4,8.3,5.6,13.6,5.6c5.8,0,11-2.6,14.6-6.7c2.5,0.6,5,0.9,7.7,0.9
			c18.3,0,33.1-14.8,33.1-33.1c0-1.3-0.1-2.5-0.2-3.7C1349-1340.2,1343.3-1338,1337.1-1338z"/>
	</g>
	<g class="st2">
		<path class="st3" d="M882.9,317.8c-0.9-13.2-12.4-23.1-25.6-22.2c-3.1,0.2-6,1-8.6,2.3c1.8-4.8,2.6-10,2.2-15.4
			c-1.5-20.4-19.2-35.8-39.6-34.4c-1.9,0.1-3.7,0.4-5.5,0.8c0-0.1,0-0.3,0-0.4c-2-27.9-26.2-48.9-54.1-46.9
			c-19.9,1.4-36.2,14.1-43.3,31.4c-4.4-1.2-9.2-1.8-14.1-1.4c-20.1,1.4-35.8,17-38.1,36.3c-5.1-1.8-10.6-2.7-16.3-2.3
			c-14.2,1-26.2,9.4-32.3,21.2c-1.2-0.2-2.5-0.3-3.8-0.2c-6.8,0.5-12.4,5-14.7,11c-2-0.3-4.1-0.4-6.2-0.3
			c-15.3,1.1-26.9,14.4-25.8,29.8c1.1,15.3,14.4,26.9,29.8,25.8c4.8-0.3,9.3-1.9,13.1-4.4c2.2,1.5,4.8,2.3,7.6,2.1
			c3-0.2,5.7-1.5,7.7-3.5c7.9,8.8,19.6,14.1,32.3,13.2c7.7-0.5,14.8-3.3,20.6-7.5c5.6,4.1,12.6,6.3,20.1,5.8
			c7.4-0.5,14-3.6,18.9-8.4c6.4,4,14.1,6.1,22.3,5.5c9.6-0.7,18-4.9,24.2-11.3c7.4,6.4,17.2,10,27.7,9.3c5-0.4,9.6-1.6,13.8-3.7
			c6.9,4.9,15.5,7.6,24.7,6.9c11.8-0.8,22-7,28.3-16c3.8,1.9,8.1,2.9,12.6,2.6C873.9,342.4,883.8,331,882.9,317.8z"/>
		<path class="st4" d="M882.9,317.8c-0.4-5.8-2.8-10.9-6.5-14.8c-3.1,9.9-12.4,17.3-23.2,17.3c-7.6,0-14.4-3.6-18.9-9.2
			c-0.9,1.5-2,2.8-3.3,4.1c-4.5,4.5-10.8,7.1-17.2,7.1h-0.7c-6.4,0-12.6-2.6-17.2-7.1c-0.8-0.8-1.5-1.6-2.1-2.4
			c-2.8,4.5-7.8,7.6-13.4,7.6c-5.1,0-9.6-2.5-12.5-6.3c-6,6.6-14.7,10.8-24.2,10.8c-10.4,0-19.9-5.1-25.9-12.9
			c-2.3,1.7-5.1,2.7-8.1,2.7c-4.6,0-8.7-2.3-11.2-5.8c-2.6,2.7-6.2,4.5-10.1,4.5c-0.9,0-1.8-0.1-2.6-0.3c0.3,1.2,0.5,2.4,0.5,3.7
			c0,3.7-1.5,7.2-4.1,9.8c-2.6,2.6-6.2,4.1-9.8,4.1h-0.7c-3.7,0-7.2-1.5-9.8-4.1c-1-1-1.9-2.2-2.5-3.5c-4.5,3.3-10,5.2-15.6,5.2
			h-0.7c-5.2,0-10.4-1.6-14.7-4.5c-0.7,1.5-1.7,2.9-2.9,4.1c-2.8,2.8-6.5,4.3-10.5,4.3h-0.7c-2.9,0-5.7-0.9-8.1-2.4
			c-1.8,2.1-3.9,3.9-6.2,4.9c-6.9,3-6.7,3.3-14.4,3.9c-5,0-9.7-1.3-14-3.8c-1.9-1.5-3.8-2.9-5.6-4.3c-3.9-3.9-6.5-8.9-7.6-14.3
			c-1.2,3.4-1.7,7.1-1.4,11c1.1,15.3,14.4,26.9,29.8,25.8c4.8-0.3,9.3-1.9,13.1-4.4c2.2,1.5,4.8,2.3,7.6,2.1c3-0.2,5.7-1.5,7.7-3.5
			c7.9,8.8,19.6,14.1,32.3,13.2c7.7-0.5,14.8-3.3,20.6-7.5c5.6,4.1,12.6,6.3,20.1,5.8c7.4-0.5,14-3.6,18.9-8.4
			c6.4,4,14.1,6.1,22.3,5.5c9.6-0.7,18-4.9,24.2-11.3c7.4,6.4,17.2,10,27.7,9.3c5-0.4,9.6-1.6,13.8-3.7c6.9,4.9,15.5,7.6,24.7,6.9
			c11.8-0.8,22-7,28.3-16c3.8,1.9,8.1,2.9,12.6,2.6C873.9,342.4,883.8,331,882.9,317.8z"/>
	</g>
	<g class="st2">
		<path class="st3" d="M260.5-1080.9c-1.5,0-3.1,0.1-4.6,0.3c-7.4-15.4-23.2-26-41.5-26c-17.6,0-32.8,9.9-40.6,24.3
			c-4.8-2.5-10.3-3.9-16.1-3.9c-19.5,0-35.2,15.8-35.2,35.2c0,2.4,0.2,4.7,0.7,6.9c-4.1,3.5-6.6,8.6-6.6,14.3
			c0,10.4,8.4,18.8,18.8,18.8c1.4,0,2.8-0.2,4.1-0.5c2,8.3,9.4,14.4,18.3,14.4c6.5,0,12.2-3.3,15.6-8.2c3.7,6.5,10.7,10.9,18.8,10.9
			c5.8,0,11-2.3,14.9-6c5.5,7.7,14.6,12.7,24.8,12.7c11.1,0,20.9-6,26.2-14.9c0.8,0.1,1.7,0.1,2.5,0.1c21.7,0,39.3-17.6,39.3-39.3
			C299.9-1063.3,282.3-1080.9,260.5-1080.9z"/>
		<path class="st4" d="M264.2-1023.9c-7.7,0-14.9-2.5-20.8-6.8c-3.2,4.8-8.5,8-14.6,8c-6.2,0-11.7-3.4-14.8-8.3
			c-0.3,0.3-0.6,0.7-1,1c-5.5,5.5-13.1,8.6-20.9,8.6c-6.5,0-12.9-2.2-18-6.1c-0.6,1.6-1.6,3.1-2.9,4.4c-2.4,2.4-5.7,3.8-9.1,3.8
			h-1.3c-3.4,0-6.7-1.4-9.1-3.8c-0.8-0.8-1.5-1.8-2.1-2.8c-2.9,1.3-6.1,2-9.4,2h-0.5c-9.3,0-17.5-5.4-21.6-13.3
			c-1,2.3-1.6,4.9-1.6,7.6c0,10.4,8.4,18.8,18.8,18.8c1.4,0,2.8-0.2,4.1-0.5c2,8.3,9.4,14.4,18.3,14.4c6.5,0,12.2-3.3,15.6-8.2
			c3.7,6.5,10.7,10.9,18.8,10.9c5.8,0,11-2.3,14.9-6c5.5,7.7,14.6,12.7,24.8,12.7c11.1,0,20.9-6,26.2-14.9c0.8,0.1,1.7,0.1,2.5,0.1
			c21.7,0,39.3-17.6,39.3-39.3c0-3.2-0.4-6.2-1.1-9.1C294.7-1035.4,280.6-1023.9,264.2-1023.9z"/>
	</g>
	<g class="st2">
		<path class="st3" d="M759-1872.1c1-3.2,1.6-6.6,1.6-10.1c0-17.9-14.5-32.4-32.4-32.4c-4.9,0-9.6,1.1-13.8,3.1
			c-5-20.8-23.7-36.3-46-36.3c-22.6,0-41.5,15.8-46.2,37c-3.8-1.6-7.9-2.5-12.3-2.5c-17.5,0-31.7,14.2-31.7,31.7
			c0,2.6,0.3,5.1,0.9,7.5c-4.2-2.1-8.9-3.3-13.9-3.3c-17,0-30.8,13.8-30.8,30.8c0,17,13.8,30.8,30.8,30.8c7.8,0,14.9-2.9,20.3-7.7
			c4.7,8.2,13.6,13.8,23.8,13.8c6.8,0,13.1-2.5,17.9-6.7c7.8,8.2,18.8,13.3,30.9,13.3c15.8,0,29.6-8.6,37-21.4
			c4.4,2.2,9.3,3.5,14.5,3.5c5.8,0,11.2-1.5,15.9-4.2c5.5,9.3,15.6,15.5,27.2,15.5c17.4,0,31.6-14.1,31.6-31.6
			C784.2-1856.4,773.4-1869.1,759-1872.1z"/>
		<path class="st4" d="M762.7-1827.7c-14.9,0-27.4-12.3-27.8-27.1c-1.9,1-4,1.6-6.2,1.6c-3.4,0-6.8-1.4-9.2-3.8
			c-1.8-1.8-3.1-4.2-3.6-6.8c-3.8,2.5-8.4,4-13.2,4c-4,0-7.7-1-11-2.7c2.4,6.7-1,15.7-10.3,15.7c-4.7,0-7.9-2.4-9.6-5.6
			c-0.6,0.7-1.2,1.4-1.9,2c-0.1,0.1-0.2,0.2-0.3,0.3c-0.1,0.1-0.2,0.2-0.3,0.3c-7.5,7.5-17.9,11.8-28.5,11.8
			c-8.4,0-16.6-2.7-23.4-7.5c-0.6,1-1.4,2-2.2,2.9c-2.9,2.9-6.9,4.6-11,4.6h-0.7c-4.1,0-8.1-1.7-11-4.6c-0.8-0.8-1.5-1.7-2.1-2.7
			c-5.2,4.7-12.1,7.6-19.5,7.6c-15.7,0-28.9-13-29.2-28.7c-4.4,5.3-7.1,12.2-7.1,19.7c0,17,13.8,30.8,30.8,30.8
			c7.8,0,14.9-2.9,20.3-7.7c4.7,8.2,13.6,13.8,23.8,13.8c6.8,0,13.1-2.5,17.9-6.7c7.8,8.2,18.8,13.3,30.9,13.3
			c15.8,0,29.6-8.6,37-21.4c4.4,2.2,9.3,3.5,14.5,3.5c5.8,0,11.2-1.5,15.9-4.2c5.5,9.3,15.6,15.5,27.2,15.5
			c16.3,0,29.7-12.3,31.4-28.2C778.9-1831.6,771.2-1827.7,762.7-1827.7z"/>
	</g>
	<g class="st2">
		<path class="st3" d="M1138.7-561.3c-3.5,0-6.8,0.6-9.9,1.8c0.4-1.9,0.6-3.9,0.6-6c0-16.5-13.4-30-30-30c-1.7,0-3.4,0.1-5,0.4
			c-2.8-17.1-17.6-30.2-35.5-30.2c-14.1,0-26.3,8.1-32.2,20c-3.5-2-7.5-3.2-11.8-3.2c-13,0-23.6,10.6-23.6,23.6c0,0.1,0,0.2,0,0.2
			c-1.1-0.2-2.3-0.2-3.4-0.2c-13.5,0-24.5,11-24.5,24.5c0,3.5,0.7,6.8,2.1,9.8c-12.7,1.6-22.5,12.4-22.5,25.6
			c0,14.2,11.5,25.8,25.8,25.8c8.2,0,15.6-3.9,20.3-9.9c4,4.3,9.8,7.1,16.2,7.1c4.8,0,9.3-1.6,12.9-4.2c3,2.6,6.8,4.2,11.1,4.2
			c4.2,0,8.1-1.6,11-4.2c4.6,4.3,10.8,7,17.6,7c9.2,0,17.3-4.8,21.8-12.1c5.1,5,12.1,8,19.8,8c8,0,15.3-3.3,20.5-8.7
			c5,4.4,11.6,7.1,18.8,7.1c15.6,0,28.2-12.6,28.2-28.2C1166.9-548.6,1154.3-561.3,1138.7-561.3z"/>
		<path class="st4" d="M1154.3-556.5c2.9,3.6,4.5,8.1,4.5,12.8v0.5c0,5.4-2.2,10.6-6,14.4c-3.8,3.8-9,6-14.4,6
			c-5.4,0-10.6-2.2-14.4-6c-0.4-0.4-0.8-0.8-1.1-1.3c-4.3,3.2-9.6,5-15,5h-0.5c-3.7,0-7.2-0.8-10.5-2.3c-0.4,0.6-0.9,1.2-1.5,1.7
			c-0.2,0.2-0.3,0.3-0.5,0.5c-2.6,2.6-6.3,4.1-10,4.1c-3.7,0-7.4-1.5-10-4.1c-2.3-2.3-3.7-5.2-4-8.4c-4.1,3.1-9.2,4.8-14.4,4.8
			c-5.5,0-10.8-1.9-15-5.3c-1.8,4.4-5.8,7.8-12,7.8c-5.2,0-8.8-2.4-11-5.8c-5.3,3.7-11.6,5.7-18,5.7c-4.1,0-8.1-0.8-11.9-2.3
			c-3.6,7-10.9,11.9-19.1,11.9c-11.7,0-21.5-9.8-21.5-21.5c0-0.8,0.1-1.7,0.2-2.5c-3.4,4.4-5.4,9.8-5.4,15.8
			c0,14.2,11.5,25.8,25.8,25.8c8.2,0,15.6-3.9,20.3-9.9c4,4.3,9.8,7.1,16.2,7.1c4.8,0,9.3-1.6,12.9-4.2c3,2.6,6.8,4.2,11.1,4.2
			c4.2,0,8.1-1.6,11-4.2c4.6,4.3,10.8,7,17.6,7c9.2,0,17.3-4.8,21.8-12.1c5.1,5,12.1,8,19.8,8c8,0,15.3-3.3,20.5-8.7
			c5,4.4,11.6,7.1,18.8,7.1c15.6,0,28.2-12.6,28.2-28.2C1166.9-542.8,1161.9-551.4,1154.3-556.5z"/>
	</g>
	<g class="st2">
		<path class="st3" d="M1352-1975.5c-1.5-20.3-18.4-36.2-39-36.2c-4.7,0-9.3,0.8-13.5,2.4c-6.1-15.9-21.5-27.1-39.5-27.1
			c-22.6,0-41.1,17.7-42.2,40c-1.4-0.2-2.9-0.2-4.4-0.2c-22.7,0-41.1,18.4-41.1,41.1c0,22.7,18.4,41.1,41.1,41.1
			c1.9,0,3.8-0.1,5.6-0.4c6.7,10.9,18.7,18.1,32.4,18.1c10.2,0,19.5-4,26.3-10.6c5.5,3.6,12.1,5.8,19.2,5.8
			c10.8,0,20.4-4.9,26.8-12.5c6.5,6.4,15.4,10.4,25.2,10.4c19.9,0,35.9-16.1,35.9-35.9C1384.9-1958.5,1370.4-1973.9,1352-1975.5z"/>
		<path class="st4" d="M1361.5-1938.7c-9.3,0-17.8-4.2-23.6-10.8c-0.5,0.7-1,1.4-1.6,2c-2.5,2.5-5.9,3.9-9.5,3.9s-7-1.4-9.5-3.9
			c-0.4-0.4-0.8-0.9-1.2-1.4c-6.5,7-15.8,11.5-26,11.5c-7.4,0-14.4-2.4-20.1-6.4c-4,6.1-10.9,10.2-18.5,10.2
			c-6.5,0-12.4-2.9-16.5-7.5c-4.9,2.5-10.4,3.9-16.2,3.9c-19.9,0-36.5-16.6-36.5-36.5c0-3.7,0.6-7.3,1.6-10.7
			c-7.2,7.4-11.7,17.5-11.7,28.7c0,22.7,18.4,41.1,41.1,41.1c1.9,0,3.8-0.1,5.6-0.4c6.7,10.9,18.7,18.1,32.4,18.1
			c10.2,0,19.5-4,26.3-10.6c5.5,3.6,12.1,5.8,19.2,5.8c10.8,0,20.4-4.9,26.8-12.5c6.5,6.4,15.4,10.4,25.2,10.4
			c19.9,0,35.9-16.1,35.9-35.9c0-2.9-0.4-5.8-1-8.5C1378.1-1942.3,1370.2-1938.7,1361.5-1938.7z"/>
	</g>
	<g class="st2">
		<path class="st3" d="M1174.4-1730c-1.2,0-2.3,0.1-3.5,0.2c-2.9-21.7-21.5-38.4-43.9-38.4c-14.1,0-26.6,6.6-34.8,16.8
			c-6.5-4.5-14.5-7.2-23-7.2c-19,0-34.9,13-39.3,30.7c-17.1,5.5-29.5,21.6-29.5,40.5c0,23.5,19.1,42.6,42.6,42.6
			c7.7,0,15-2.1,21.2-5.7c6.2,6,14.7,9.7,24,9.7c7.1,0,13.8-2.2,19.3-5.9c5.5,3.7,12.1,5.9,19.3,5.9c10.9,0,20.6-5.1,26.9-12.9
			c6.1,3.5,13.1,5.6,20.6,5.6c22.6,0,40.9-18.3,40.9-40.9C1215.4-1711.6,1197-1730,1174.4-1730z"/>
		<path class="st4" d="M1209.6-1688.8c-5.5,5.5-13,8.6-20.8,8.6c-6,0-11.8-1.8-16.7-5.2c-3.1,2.5-7.1,4-11.3,4
			c-9,0-16.6-6.8-18-15.4c-3.8,1.4-7.9,2.2-12,2.2c-3.5,0-7-0.6-10.4-1.6c-2.2,10.6-11.8,18.7-23,18.7c-4.4,0-8.5-1.2-12-3.4
			c-1.8,6-7.4,10.5-14,10.5c-4.6,0-8.7-2.2-11.4-5.5c-5.5,3-11.7,4.6-18,4.6c-9.9,0-19.6-4-26.6-11c-6.3-6.3-10.1-14.6-10.9-23.4
			c-2.7,5.6-4.2,11.8-4.2,18.4c0,23.5,19.1,42.6,42.6,42.6c7.7,0,15-2.1,21.2-5.7c6.2,6,14.7,9.7,24,9.7c7.1,0,13.8-2.2,19.3-5.9
			c5.5,3.7,12.1,5.9,19.3,5.9c10.9,0,20.6-5.1,26.9-12.9c6.1,3.5,13.1,5.6,20.6,5.6c22.6,0,40.9-18.3,40.9-40.9
			c0-2.3-0.2-4.6-0.6-6.8C1213.4-1693.3,1211.7-1690.9,1209.6-1688.8z"/>
	</g>
	<g class="st2">
		<path class="st3" d="M1114.6,13.5c-1.9-8.4-6.1-15.6-11.9-21.1c5.4-7.4,7.6-17,5.5-26.7c-4-17.9-21.8-29.1-39.6-25.1
			c-1.9,0.4-3.7,1-5.4,1.7c-6-17.7-24.6-28.3-43.2-24.1c-7.3,1.7-13.7,5.4-18.5,10.4c-11.5-11.6-28.4-17.2-45.5-13.3
			C935-80,920.3-62.6,918-42.4c-17.3,4.3-28.2,21.6-24.2,39.1c0.3,1.3,0.7,2.6,1.1,3.8c-7.5,6.9-11.1,17.5-8.7,28.2
			c3.6,15.9,19.4,25.9,35.3,22.3c1.3-0.3,2.6-0.7,3.8-1.1c6.8,13.9,22.4,21.8,38.1,18.3c5.4-1.2,10.2-3.6,14.2-6.9
			c9.6,9.4,23.6,13.9,37.7,10.7c12.1-2.7,21.7-10.5,27.1-20.6c9.9,10.7,25.1,16,40.3,12.6C1105.4,58.9,1119.7,36.3,1114.6,13.5z"/>
		<path class="st4" d="M1093.3,36.9h-0.7c-8.2,0-16.2-3.3-22-9.1c-3.8-3.8-6.5-8.5-8-13.6c-0.2-0.7-0.4-1.4-0.5-2.1
			c-4.8,4.2-11.1,6.5-17.5,6.5h-1.3c-7,0-13.9-2.8-18.8-7.7c-0.7,1.5-1.6,2.8-2.8,4c-2.6,2.6-6.1,4-9.7,4c-2.2,0-4.3-0.5-6.3-1.5
			c0,0.1,0,0.3,0,0.4c0,3.6-1.5,7.2-4,9.7c-0.1,0.1-0.2,0.2-0.3,0.3c-0.1,0.1-0.2,0.3-0.4,0.4c-2.6,2.6-6.1,4-9.7,4
			c-3.6,0-7.2-1.5-9.7-4c-0.5-0.5-0.9-1-1.3-1.5c-0.3,0.4-0.7,0.7-1,1.1c-6,6-14.2,9.4-22.6,9.4H956c-8.4,0-16.6-3.4-22.6-9.4
			c-0.6-0.6-1.1-1.2-1.6-1.8c-4.7,4-10.8,6.3-17.1,6.3c-7,0-13.7-2.8-18.7-7.7c-4.1-4.1-6.8-9.5-7.5-15.3
			c-2.9,5.8-3.9,12.7-2.3,19.5c3.6,15.9,19.4,25.9,35.3,22.3c1.3-0.3,2.6-0.7,3.8-1.1c6.8,13.9,22.4,21.8,38.1,18.3
			c5.4-1.2,10.2-3.6,14.2-6.9c9.6,9.4,23.6,13.9,37.7,10.7c12.1-2.7,21.7-10.5,27.1-20.6c9.9,10.7,25.1,16,40.3,12.6
			c17.9-4,30.5-18.9,32.6-36.1C1109.5,33.6,1101.5,36.9,1093.3,36.9z"/>
	</g>
	<g class="st2">
		<path class="st3" d="M211.2,199.8c-1.5,0-2.9,0.1-4.4,0.4c1.4-3.4,2.1-7.2,2.1-11.1c0-16.7-13.5-30.2-30.2-30.2
			c-0.5,0-0.9,0-1.4,0c-4.9-16.8-20.4-29-38.8-29c-17.1,0-31.7,10.6-37.6,25.6c-0.9-0.1-1.9-0.1-2.8-0.1
			c-20.1,0-36.4,16.3-36.4,36.4c0,5.1,1.1,10,3,14.5c-9.6,3.5-16.5,12.7-16.5,23.5c0,13.8,11.2,25,25,25c8.3,0,15.7-4.1,20.2-10.3
			c5.6,4.9,12.8,7.9,20.8,7.9c9,0,17.2-3.8,23-9.9c6.4,7.6,15.9,12.4,26.6,12.4c10.8,0,20.4-4.9,26.7-12.6
			c4.8,6.1,12.3,10.1,20.7,10.1c14.5,0,26.2-11.7,26.2-26.2C237.4,211.5,225.7,199.8,211.2,199.8z"/>
		<path class="st4" d="M232.1,210.1c-2.2,10.5-11.7,18.7-22.9,18.7c-10.4,0-19.4-7.1-22.4-16.7c-4.1,2.2-8.7,3.5-13.6,3.5
			c-4.7,0-9.1-1.2-13.1-3.2c-3,9.4-12,16.4-22.3,16.4c-10.4,0-19.4-7.1-22.3-16.6c-4,1.9-8.5,2.9-13,2.9h-1.3
			c-3.2,0-6.3-0.5-9.3-1.5v0.5c0,5.5-2.2,10.8-6.1,14.7c-3.9,3.9-9.2,6.1-14.7,6.1c-5.5,0-10.8-2.2-14.7-6.1
			c-2.8-2.8-4.7-6.4-5.6-10.3c-1.7,3.4-2.7,7.2-2.7,11.3c0,13.8,11.2,25,25,25c8.3,0,15.7-4.1,20.2-10.3c5.6,4.9,12.8,7.9,20.8,7.9
			c9,0,17.2-3.8,23-9.9c6.4,7.6,15.9,12.4,26.6,12.4c10.8,0,20.4-4.9,26.7-12.6c4.8,6.1,12.3,10.1,20.7,10.1
			c14.5,0,26.2-11.7,26.2-26.2C237.4,220,235.4,214.5,232.1,210.1z"/>
	</g>
	<g class="st2">
		<path class="st3" d="M169.9-1911.9c-1-2.1-1.6-4.4-1.6-6.8c0-7,4.7-12.9,11.1-14.7c-0.2-1-0.2-2.1-0.2-3.2
			c0-11.7,9.5-21.3,21.3-21.3c5,0,9.6,1.7,13.2,4.6c2.8-4.3,7.6-7.1,13.1-7.1c3.5,0,6.7,1.1,9.3,3.1c3.5-5.6,9.6-9.3,16.7-9.3
			c10.4,0,18.9,8.1,19.6,18.3c3.1-1.6,6.6-2.5,10.3-2.5c12.3,0,22.4,10,22.4,22.4c0,3.5-0.8,6.7-2.2,9.7c0,0,0,0,0.1,0
			c9.1,0,16.5,7.4,16.5,16.5c0,9.1-7.4,16.5-16.5,16.5c-3.8,0-7.4-1.3-10.2-3.5c-4,6.3-11,10.5-19,10.5c-6.3,0-12-2.6-16.1-6.8
			c-5.7,6.3-14,10.2-23.1,10.2c-8.1,0-15.5-3.1-21.1-8.2c-4.2,4.6-10.2,7.4-16.8,7.4c-7.7,0-14.6-3.9-18.7-9.8
			c-1.3,0.4-2.7,0.6-4.1,0.6c-7.5,0-13.6-6.1-13.6-13.6C160-1905.1,164.2-1910.3,169.9-1911.9z"/>
		<path class="st4" d="M164.3-1908.7c0.6,1.2,1.4,2.3,2.4,3.3c2.5,2.5,5.9,3.9,9.5,3.9c3.5,0,7-1.4,9.5-3.9c0.7-0.7,1.3-1.4,1.8-2.2
			c3.3,3.1,7.7,5.1,12.6,5.1c4.3,0,8.3-1.5,11.5-4.1c1.5,0.6,3.2,0.9,4.9,0.9h0.5c2.8,0,5.5-0.9,7.7-2.4c4.1,2.7,9,4.3,14.2,4.3
			c0.2,0,0.4,0,0.5,0c0.7,1.8,1.7,3.5,3.1,4.9c2.5,2.5,5.9,3.9,9.4,3.9c1.3,0,2.6-0.2,3.9-0.5c2.1-0.5,4.4-2,5.9-3.4
			c0,0,0,0,0.1-0.1c3.7,2,7.9,3.1,12.1,3.1c5.8,0,11.5-2.1,16-5.8c2.6,1.6,5.6,2.5,8.8,2.5c8.1,0,15.1-5.9,16.8-13.5
			c2.3,2.8,3.7,6.5,3.7,10.4c0,9.1-7.4,16.5-16.5,16.5c-3.8,0-7.4-1.3-10.2-3.5c-4,6.3-11,10.5-19,10.5c-6.3,0-12-2.6-16.1-6.8
			c-5.7,6.3-14,10.2-23.1,10.2c-8.1,0-15.5-3.1-21.1-8.2c-4.2,4.6-10.2,7.4-16.8,7.4c-7.7,0-14.6-3.9-18.7-9.8
			c-1.3,0.4-2.7,0.6-4.1,0.6c-7.5,0-13.6-6.1-13.6-13.6C160-1902.8,161.7-1906.3,164.3-1908.7z"/>
	</g>
	<g class="st2">
		<path class="st3" d="M1158.6,250.8c0.3,0,0.6,0,1,0c1.2-8.7,8.6-15.4,17.6-15.4c2.3,0,4.4,0.4,6.4,1.2c0.5-8.4,7.4-15,15.9-15
			c1.6,0,3.1,0.2,4.5,0.7c4.6-8.4,13.6-14.1,23.9-14.1c15,0,27.2,12.1,27.2,27.1c5.4-5.5,12.8-8.9,21.1-8.9
			c15.9,0,28.8,12.5,29.5,28.2c1.9-0.7,4-1.1,6.2-1.1c10.3,0,18.7,8.4,18.7,18.7s-8.4,18.7-18.7,18.7c-4.2,0-8.1-1.4-11.3-3.8
			c-2.2,4.1-6.5,7-11.5,7c-4.2,0-7.9-2-10.3-5.1c-3,5.4-8.8,9-15.4,9c-4.3,0-8.2-1.5-11.2-4c-4.8,4.5-11.3,7.2-18.4,7.2
			c-10.4,0-19.3-5.8-23.9-14.4c-4.3,4-10.1,6.4-16.4,6.4c-9.6,0-17.8-5.6-21.8-13.6c-3.2,3.7-7.9,6.1-13.2,6.1
			c-9.6,0-17.4-7.8-17.4-17.4C1141.1,258.6,1148.9,250.8,1158.6,250.8z"/>
		<path class="st4" d="M1145.2,264.8c3.8,3.8,9.1,6,14.5,6c4.9,0,9.7-1.8,13.4-4.9c1.5,2.3,4.1,3.9,7.7,3.9c3.5,0,6-1.5,7.6-3.7
			c4.7,5.3,11.5,8.8,19.1,8.8c7.4,0,14.2-3.3,18.9-8.5c0.4,0.6,0.9,1.1,1.4,1.6c2.7,2.7,6.4,4.2,10.2,4.2h0.5c3.3,0,6.6-1.2,9.2-3.3
			c0.9,2,2.9,3.6,5.8,3.6c3.8,0,5.9-2.6,6.4-5.4c3.1,2.7,7.1,4.4,11.4,4.4c3.8,0,7.3-1.3,10.1-3.4c0.4,1.7,1.3,3.4,2.6,4.6
			c1.8,1.8,4.3,2.9,6.9,2.9c2.6,0,5.1-1,6.9-2.9c0.3-0.3,0.6-0.6,0.8-1c3.7,5.5,10,9.1,17,9.1c6,0,11.4-2.6,15.2-6.8
			c-0.9,9.5-8.9,17-18.6,17c-4.2,0-8.1-1.4-11.3-3.8c-2.2,4.1-6.5,7-11.5,7c-4.2,0-7.9-2-10.3-5.1c-3,5.4-8.8,9-15.4,9
			c-4.3,0-8.2-1.5-11.2-4c-4.8,4.5-11.3,7.2-18.4,7.2c-10.4,0-19.3-5.8-23.9-14.4c-4.3,4-10.1,6.4-16.4,6.4
			c-9.6,0-17.8-5.6-21.8-13.6c-3.2,3.7-7.9,6.1-13.2,6.1c-9.6,0-17.4-7.8-17.4-17.4c0-2.4,0.5-4.7,1.4-6.8
			C1143.3,262.7,1144.2,263.8,1145.2,264.8z"/>
	</g>
	<g class="st2">
		<path class="st3" d="M687.6-971.4c-0.7-6.7,4.1-12.8,10.9-13.5c1.1-0.1,2.1-0.1,3.2,0.1c-0.9-12.9,8.6-24.4,21.6-25.8
			c6.2-0.7,12.2,1.1,16.9,4.5c2.3-10,10.7-17.9,21.4-19.1c12.6-1.4,24,6.9,26.8,19c2.2-1.1,4.7-1.9,7.3-2.1c12-1.3,22.7,7.3,24,19.3
			c0.4,3.6-0.1,7.1-1.3,10.2c7.6,1.4,13.7,7.7,14.6,15.8c1.1,9.9-6.1,18.8-16,19.9c-1.4,0.2-2.8,0.1-4.1,0
			c-2.8,8.6-10.5,15.2-20,16.2c-7.9,0.9-15.4-2.3-20.3-7.8c-4.6,4.7-10.8,7.8-17.8,8.6c-11.1,1.2-21.5-3.9-27.5-12.4
			c-3.4,3.8-8.2,6.4-13.7,7c-11.8,1.3-22.4-7.2-23.7-19.1c-0.5-4.4,0.4-8.7,2.4-12.4C689.7-965,688-968,687.6-971.4z"/>
		<path class="st4" d="M687.6-971.4c-0.4-4.1,1.2-7.9,4-10.4c0,0.1,0,0.1,0,0.2c0,7.7,5.7,14.2,13,15.6c1.6,7,8,12.4,15.5,12.4
			c4.7,0,9-2.2,12-5.6c2,3.7,6,6.3,10.5,6.3c4.9,0,9.2-3.1,11-7.5c0.6,0.5,1.2,1,1.8,1.5c3.8,4.4,9.5,7.3,15.7,7.3
			c7.1,0,13.5-3.8,17.2-9.4c0.7,3.5,3.9,6.2,7.5,6.2h0.5c3.2,0,5.9-2,7.1-4.7c2.4,1.5,5.3,2.4,8.3,2.4c8.8,0,16.1-7.3,16.1-16.1
			c0-0.2,0-0.5,0-0.7c2.8,2.8,4.8,6.6,5.2,10.8c1.1,9.9-6.1,18.8-16,19.9c-1.4,0.2-2.8,0.1-4.1,0c-2.8,8.6-10.5,15.2-20,16.2
			c-7.9,0.9-15.4-2.3-20.3-7.8c-4.6,4.7-10.8,7.8-17.8,8.6c-11.1,1.2-21.5-3.9-27.5-12.4c-3.4,3.8-8.2,6.4-13.7,7
			c-11.8,1.3-22.4-7.2-23.7-19.1c-0.5-4.4,0.4-8.7,2.4-12.4C689.7-965,688-968,687.6-971.4z"/>
	</g>
	<g class="st2">
		<path class="st3" d="M1143.8-320.9c4,0,7.8,1,11.2,2.9c-0.5-1.9-0.7-4-0.7-6c0-13.8,11.2-25,25-25c0.4,0,0.8,0,1.2,0
			c0.9-17.4,15.4-31.3,33-31.3c18.3,0,33.1,14.8,33.1,33.1c0,0.2,0,0.3,0,0.5c1.7-0.3,3.4-0.5,5.2-0.5c14.6,0,26.4,11.8,26.4,26.4
			c0,2.7-0.4,5.3-1.2,7.8c9.2,2.5,16,10.9,16,20.9c0,12-9.7,21.7-21.7,21.7c-4.9,0-9.5-1.7-13.1-4.4c-4.5,6.2-11.8,10.3-20,10.3
			c-9.7,0-18.1-5.6-22.1-13.7c-5.3,8.2-14.5,13.7-25,13.7c-8.7,0-16.6-3.8-22-9.8c-2.5,2.4-5.8,3.9-9.5,3.9c-4.1,0-7.7-1.8-10.2-4.7
			c-1.7,0.4-3.5,0.6-5.4,0.6c-12.8,0-23.2-10.4-23.2-23.2C1120.7-310.5,1131-320.9,1143.8-320.9z"/>
		<path class="st4" d="M1132.3-296.2c6,0,11.5-3,14.9-7.6c0.5,0.6,1,1.2,1.5,1.7c3.5,3.5,8.2,5.4,13.1,5.4h0.5
			c3.6,0,7.2-1.1,10.2-3.1c1.6,4.5,5.9,7.7,10.8,7.7c5.8,0,10.7-4.5,11.4-10.1c2,1.7,4.6,2.6,7.3,2.6h0.5c3,0,6-1.2,8.1-3.4
			c0.2-0.2,0.5-0.5,0.7-0.7c5.5,6.7,13.8,11.1,23,11.1c5.5,0,10.6-1.5,15.1-4.2c2.9,8,10.6,13.9,19.5,13.9
			c11.3,0,20.7-9.4,20.7-20.7c0-0.1,0-0.3,0-0.4c2.2,3.4,3.5,7.4,3.5,11.8c0,12-9.7,21.7-21.7,21.7c-4.9,0-9.5-1.7-13.1-4.4
			c-4.5,6.2-11.8,10.3-20,10.3c-9.7,0-18.1-5.6-22.1-13.7c-5.3,8.2-14.5,13.7-25,13.7c-8.7,0-16.6-3.8-22-9.8
			c-2.5,2.4-5.8,3.9-9.5,3.9c-4.1,0-7.7-1.8-10.2-4.7c-1.7,0.4-3.5,0.6-5.4,0.6c-12.8,0-23.2-10.4-23.2-23.2c0-0.9,0.1-1.8,0.2-2.6
			C1124-297.7,1128-296.2,1132.3-296.2z"/>
	</g>
	<g class="st2">
		<path class="st3" d="M573.3-329c0.7-9.2,8.7-16.2,17.9-15.5c2.2,0.2,4.2,0.7,6,1.6c-1.2-3.4-1.8-7-1.5-10.8
			c1-14.3,13.5-25.1,27.8-24.1c1.3,0.1,2.6,0.3,3.8,0.6c0-0.1,0-0.2,0-0.3c1.4-19.6,18.4-34.3,37.9-32.9c13.9,1,25.4,9.9,30.4,22
			c3.1-0.9,6.4-1.2,9.9-1c14.1,1,25.1,11.9,26.7,25.5c3.5-1.3,7.4-1.9,11.4-1.6c10,0.7,18.3,6.6,22.6,14.9c0.9-0.1,1.7-0.2,2.6-0.1
			c4.8,0.3,8.7,3.5,10.3,7.7c1.4-0.2,2.9-0.3,4.4-0.2c10.8,0.8,18.9,10.1,18.1,20.9c-0.8,10.8-10.1,18.9-20.9,18.1
			c-3.4-0.2-6.5-1.3-9.2-3.1c-1.5,1-3.4,1.6-5.4,1.5c-2.1-0.1-4-1.1-5.4-2.5c-5.5,6.2-13.7,9.9-22.7,9.2c-5.4-0.4-10.3-2.3-14.4-5.3
			c-3.9,2.9-8.8,4.4-14.1,4.1c-5.2-0.4-9.8-2.6-13.2-5.9c-4.5,2.8-9.9,4.3-15.6,3.8c-6.7-0.5-12.6-3.4-17-7.9
			c-5.2,4.5-12.1,7-19.4,6.5c-3.5-0.2-6.7-1.2-9.7-2.6c-4.9,3.5-10.9,5.3-17.3,4.8c-8.3-0.6-15.4-4.9-19.9-11.2
			c-2.6,1.3-5.7,2-8.8,1.8C579.6-311.7,572.7-319.7,573.3-329z"/>
		<path class="st4" d="M573.3-329c0.3-4,2-7.6,4.6-10.4c2.1,7,8.7,12.1,16.3,12.1c5.3,0,10.1-2.5,13.3-6.4c0.7,1,1.4,2,2.3,2.9
			c3.2,3.2,7.5,5,12,5h0.5c4.5,0,8.9-1.8,12-5c0.5-0.5,1-1.1,1.5-1.7c1.9,3.2,5.4,5.3,9.4,5.3c3.6,0,6.7-1.8,8.8-4.4
			c4.2,4.6,10.3,7.6,16.9,7.6c7.3,0,13.9-3.6,18.2-9c1.6,1.2,3.6,1.9,5.7,1.9c3.2,0,6.1-1.6,7.9-4.1c1.8,1.9,4.3,3.1,7.1,3.1
			c0.6,0,1.2-0.1,1.8-0.2c-0.2,0.8-0.4,1.7-0.4,2.6c0,2.6,1,5.1,2.9,6.9c1.8,1.8,4.3,2.9,6.9,2.9h0.5c2.6,0,5.1-1,6.9-2.9
			c0.7-0.7,1.3-1.6,1.8-2.5c3.1,2.3,7,3.6,11,3.6h0.5c3.7,0,7.3-1.1,10.3-3.2c0.5,1.1,1.2,2,2,2.9c1.9,1.9,4.6,3,7.3,3h0.5
			c2,0,4-0.6,5.7-1.7c1.3,1.5,2.8,2.8,4.3,3.5c4.9,2.1,4.7,2.3,10.1,2.7c3.5,0,6.8-0.9,9.8-2.7c1.3-1,2.6-2,3.9-3
			c2.7-2.7,4.6-6.2,5.3-10c0.8,2.4,1.2,5,1,7.7c-0.8,10.8-10.1,18.9-20.9,18.1c-3.4-0.2-6.5-1.3-9.2-3.1c-1.5,1-3.4,1.6-5.4,1.5
			c-2.1-0.1-4-1.1-5.4-2.5c-5.5,6.2-13.7,9.9-22.7,9.2c-5.4-0.4-10.3-2.3-14.4-5.3c-3.9,2.9-8.8,4.4-14.1,4.1
			c-5.2-0.4-9.8-2.6-13.2-5.9c-4.5,2.8-9.9,4.3-15.6,3.8c-6.7-0.5-12.6-3.4-17-7.9c-5.2,4.5-12.1,7-19.4,6.5
			c-3.5-0.2-6.7-1.2-9.7-2.6c-4.9,3.5-10.9,5.3-17.3,4.8c-8.3-0.6-15.4-4.9-19.9-11.2c-2.6,1.3-5.7,2-8.8,1.8
			C579.6-311.7,572.7-319.7,573.3-329z"/>
	</g>
	<g class="st2">
		<path class="st3" d="M120.8-1448.2c1.1,0,2.1,0.1,3.2,0.2c5.2-10.8,16.3-18.2,29.1-18.2c12.3,0,23,6.9,28.5,17.1
			c3.4-1.8,7.2-2.7,11.3-2.7c13.6,0,24.7,11.1,24.7,24.7c0,1.7-0.2,3.3-0.5,4.9c2.8,2.4,4.7,6,4.7,10.1c0,7.3-5.9,13.2-13.2,13.2
			c-1,0-1.9-0.1-2.9-0.3c-1.4,5.8-6.6,10.1-12.8,10.1c-4.5,0-8.5-2.3-10.9-5.8c-2.6,4.6-7.5,7.6-13.1,7.6c-4,0-7.7-1.6-10.4-4.2
			c-3.9,5.4-10.2,8.9-17.4,8.9c-7.8,0-14.6-4.2-18.4-10.4c-0.6,0-1.2,0.1-1.8,0.1c-15.2,0-27.6-12.3-27.6-27.6
			C93.2-1435.8,105.6-1448.2,120.8-1448.2z"/>
		<path class="st4" d="M118.2-1408.2c5.4,0,10.4-1.8,14.6-4.8c2.2,3.3,6,5.6,10.2,5.6c4.3,0,8.2-2.4,10.4-5.8
			c0.2,0.2,0.4,0.5,0.7,0.7c3.9,3.9,9.2,6.1,14.6,6.1c4.6,0,9-1.5,12.6-4.3c0.5,1.1,1.1,2.2,2,3.1c1.7,1.7,4,2.6,6.4,2.6h0.9
			c2.4,0,4.7-1,6.4-2.6c0.6-0.6,1.1-1.3,1.5-2c2,0.9,4.3,1.4,6.6,1.4h0.4c6.5,0,12.3-3.8,15.1-9.3c0.7,1.6,1.1,3.4,1.1,5.3
			c0,7.3-5.9,13.2-13.2,13.2c-1,0-1.9-0.1-2.9-0.3c-1.4,5.8-6.6,10.1-12.8,10.1c-4.5,0-8.5-2.3-10.9-5.8c-2.6,4.6-7.5,7.6-13.1,7.6
			c-4,0-7.7-1.6-10.4-4.2c-3.9,5.4-10.2,8.9-17.4,8.9c-7.8,0-14.6-4.2-18.4-10.4c-0.6,0-1.2,0.1-1.8,0.1
			c-15.2,0-27.6-12.3-27.6-27.6c0-2.2,0.3-4.4,0.8-6.4C96.8-1416.3,106.7-1408.2,118.2-1408.2z"/>
	</g>
	<g class="st2">
		<path class="st3" d="M478.7-900.8c-0.7-2.2-1.1-4.6-1.1-7.1c0-12.5,10.2-22.7,22.7-22.7c3.5,0,6.7,0.8,9.7,2.2
			c3.5-14.6,16.6-25.4,32.3-25.4c15.8,0,29.1,11.1,32.4,25.9c2.6-1.1,5.6-1.7,8.6-1.7c12.3,0,22.2,10,22.2,22.2
			c0,1.8-0.2,3.6-0.6,5.3c2.9-1.5,6.3-2.3,9.8-2.3c11.9,0,21.6,9.7,21.6,21.6c0,11.9-9.7,21.6-21.6,21.6c-5.5,0-10.4-2-14.2-5.4
			c-3.3,5.8-9.5,9.7-16.7,9.7c-4.8,0-9.2-1.8-12.5-4.7c-5.5,5.7-13.2,9.3-21.7,9.3c-11.1,0-20.8-6-25.9-15
			c-3.1,1.6-6.5,2.4-10.2,2.4c-4,0-7.8-1.1-11.1-2.9c-3.9,6.5-10.9,10.9-19,10.9c-12.2,0-22.1-9.9-22.1-22.1
			C461-889.8,468.6-898.8,478.7-900.8z"/>
		<path class="st4" d="M476.1-869.7c10.5,0,19.2-8.6,19.5-19c1.3,0.7,2.8,1.1,4.3,1.1c2.4,0,4.7-1,6.4-2.7c1.3-1.3,2.2-3,2.5-4.7
			c2.7,1.8,5.9,2.8,9.3,2.8c2.8,0,5.4-0.7,7.7-1.9c-1.7,4.7,0.7,11,7.2,11c3.3,0,5.6-1.7,6.7-3.9c0.4,0.5,0.9,1,1.3,1.4
			c0.1,0.1,0.2,0.2,0.2,0.2c0.1,0.1,0.1,0.2,0.2,0.2c5.3,5.3,12.5,8.3,20,8.3c5.9,0,11.7-1.9,16.4-5.3c0.4,0.7,1,1.4,1.6,2
			c2,2,4.8,3.2,7.7,3.2h0.5c2.9,0,5.7-1.2,7.7-3.2c0.6-0.6,1.1-1.2,1.5-1.9c3.7,3.3,8.5,5.3,13.7,5.3c11,0,20.3-9.1,20.5-20.1
			c3.1,3.7,5,8.5,5,13.8c0,11.9-9.7,21.6-21.6,21.6c-5.5,0-10.4-2-14.2-5.4c-3.3,5.8-9.5,9.7-16.7,9.7c-4.8,0-9.2-1.8-12.5-4.7
			c-5.5,5.7-13.2,9.3-21.7,9.3c-11.1,0-20.8-6-25.9-15c-3.1,1.6-6.5,2.4-10.2,2.4c-4,0-7.8-1.1-11.1-2.9c-3.9,6.5-10.9,10.9-19,10.9
			c-11.4,0-20.8-8.6-22-19.7C464.7-872.5,470.1-869.7,476.1-869.7z"/>
	</g>
	<g class="st2">
		<path class="st3" d="M803.8-1440.9c2.4,0,4.8,0.4,6.9,1.3c-0.3-1.4-0.4-2.8-0.4-4.2c0-11.6,9.4-21,21-21c1.2,0,2.4,0.1,3.5,0.3
			c1.9-12,12.4-21.2,24.9-21.2c9.9,0,18.5,5.7,22.6,14c2.4-1.4,5.3-2.2,8.3-2.2c9.1,0,16.5,7.4,16.5,16.5c0,0.1,0,0.1,0,0.2
			c0.8-0.1,1.6-0.2,2.4-0.2c9.5,0,17.2,7.7,17.2,17.2c0,2.5-0.5,4.8-1.4,6.9c8.9,1.1,15.8,8.7,15.8,17.9c0,10-8.1,18.1-18.1,18.1
			c-5.8,0-10.9-2.7-14.2-6.9c-2.8,3-6.9,4.9-11.4,4.9c-3.4,0-6.5-1.1-9.1-2.9c-2.1,1.8-4.8,3-7.8,3c-3,0-5.7-1.1-7.7-2.9
			c-3.2,3-7.6,4.9-12.3,4.9c-6.4,0-12.1-3.4-15.3-8.5c-3.6,3.5-8.5,5.6-13.9,5.6c-5.6,0-10.7-2.3-14.4-6.1c-3.5,3.1-8.1,5-13.2,5
			c-10.9,0-19.8-8.9-19.8-19.8S792.9-1440.9,803.8-1440.9z"/>
		<path class="st4" d="M792.8-1437.6c-2,2.5-3.2,5.7-3.2,9v0.4c0,3.8,1.5,7.4,4.2,10.1c2.7,2.7,6.3,4.2,10.1,4.2s7.4-1.5,10.1-4.2
			c0.3-0.3,0.5-0.6,0.8-0.9c3,2.2,6.7,3.5,10.5,3.5h0.4c2.6,0,5.1-0.6,7.4-1.6c0.3,0.4,0.6,0.8,1,1.2c0.1,0.1,0.2,0.2,0.4,0.4
			c1.9,1.9,4.4,2.9,7,2.9s5.2-1.1,7-2.9c1.6-1.6,2.6-3.7,2.8-5.9c2.9,2.2,6.5,3.4,10.1,3.4c3.8,0,7.6-1.3,10.5-3.7
			c1.3,3.1,4.1,5.5,8.4,5.5c3.7,0,6.2-1.7,7.7-4.1c3.7,2.6,8.1,4,12.7,4c2.9,0,5.7-0.6,8.3-1.6c2.5,4.9,7.6,8.3,13.4,8.3
			c8.2,0,15.1-6.9,15.1-15.1c0-0.6,0-1.2-0.1-1.7c2.4,3.1,3.8,6.9,3.8,11.1c0,10-8.1,18.1-18.1,18.1c-5.8,0-10.9-2.7-14.2-6.9
			c-2.8,3-6.9,4.9-11.4,4.9c-3.4,0-6.5-1.1-9.1-2.9c-2.1,1.8-4.8,3-7.8,3c-3,0-5.7-1.1-7.7-2.9c-3.2,3-7.6,4.9-12.3,4.9
			c-6.4,0-12.1-3.4-15.3-8.5c-3.6,3.5-8.5,5.6-13.9,5.6c-5.6,0-10.7-2.3-14.4-6.1c-3.5,3.1-8.1,5-13.2,5c-10.9,0-19.8-8.9-19.8-19.8
			C784-1428,787.5-1434,792.8-1437.6z"/>
	</g>
	<g class="st2">
		<path class="st3" d="M441.5-1244.5c1-14.2,12.9-25.4,27.3-25.4c3.3,0,6.5,0.6,9.5,1.7c4.3-11.1,15.1-19,27.7-19
			c15.8,0,28.8,12.4,29.6,28.1c1-0.1,2-0.2,3.1-0.2c15.9,0,28.8,12.9,28.8,28.8c0,15.9-12.9,28.8-28.8,28.8c-1.3,0-2.6-0.1-3.9-0.3
			c-4.7,7.6-13.1,12.7-22.7,12.7c-7.2,0-13.7-2.8-18.4-7.4c-3.9,2.6-8.5,4-13.5,4c-7.6,0-14.3-3.4-18.8-8.8
			c-4.6,4.5-10.8,7.3-17.7,7.3c-13.9,0-25.2-11.3-25.2-25.2C418.5-1232.6,428.6-1243.4,441.5-1244.5z"/>
		<path class="st4" d="M434.9-1218.7c6.5,0,12.4-2.9,16.5-7.5c0.3,0.5,0.7,1,1.1,1.4c1.8,1.8,4.2,2.8,6.6,2.8c2.5,0,4.9-1,6.6-2.8
			c0.3-0.3,0.6-0.6,0.8-1c4.6,4.9,11.1,8.1,18.3,8.1c5.2,0,10.1-1.7,14.1-4.5c2.8,4.3,7.6,7.2,13,7.2c4.5,0,8.7-2,11.5-5.2
			c3.4,1.7,7.3,2.7,11.4,2.7c14,0,25.6-11.7,25.6-25.6c0-2.6-0.4-5.1-1.1-7.5c5.1,5.2,8.2,12.3,8.2,20.1c0,15.9-12.9,28.8-28.8,28.8
			c-1.3,0-2.6-0.1-3.9-0.3c-4.7,7.6-13.1,12.7-22.7,12.7c-7.2,0-13.7-2.8-18.4-7.4c-3.9,2.6-8.5,4-13.5,4c-7.6,0-14.3-3.4-18.8-8.8
			c-4.6,4.5-10.8,7.3-17.7,7.3c-13.9,0-25.2-11.3-25.2-25.2c0-2,0.2-4,0.7-5.9C423.2-1221.2,428.8-1218.7,434.9-1218.7z"/>
	</g>
	<g class="st2">
		<path class="st3" d="M1142.9-882.5c0.8,0,1.6,0,2.4,0.1c2-15.2,15-26.9,30.8-26.9c9.9,0,18.7,4.6,24.4,11.8
			c4.6-3.2,10.2-5.1,16.2-5.1c13.3,0,24.5,9.1,27.5,21.5c12,3.9,20.7,15.1,20.7,28.4c0,16.5-13.4,29.9-29.9,29.9
			c-5.4,0-10.5-1.4-14.9-4c-4.4,4.2-10.3,6.8-16.8,6.8c-5,0-9.7-1.5-13.5-4.1c-3.9,2.6-8.5,4.1-13.5,4.1c-7.6,0-14.5-3.5-18.9-9.1
			c-4.2,2.5-9.2,3.9-14.4,3.9c-15.9,0-28.7-12.9-28.7-28.7C1114.2-869.6,1127-882.5,1142.9-882.5z"/>
		<path class="st4" d="M1118.2-853.6c3.9,3.9,9.1,6,14.6,6c4.2,0,8.3-1.3,11.7-3.6c2.2,1.8,5,2.8,7.9,2.8c6.3,0,11.6-4.7,12.6-10.8
			c2.7,1,5.5,1.5,8.4,1.5c2.5,0,4.9-0.4,7.3-1.1c1.6,7.4,8.3,13.1,16.1,13.1c3.1,0,6-0.9,8.4-2.4c1.3,4.2,5.2,7.4,9.8,7.4
			c3.2,0,6.1-1.5,8-3.9c3.8,2.1,8.2,3.2,12.6,3.2c7,0,13.7-2.8,18.7-7.7c4.4-4.4,7.1-10.2,7.6-16.4c1.9,3.9,2.9,8.3,2.9,12.9
			c0,16.5-13.4,29.9-29.9,29.9c-5.4,0-10.5-1.4-14.9-4c-4.4,4.2-10.3,6.8-16.8,6.8c-5,0-9.7-1.5-13.5-4.1c-3.9,2.6-8.5,4.1-13.5,4.1
			c-7.6,0-14.5-3.5-18.9-9.1c-4.2,2.5-9.2,3.9-14.4,3.9c-15.9,0-28.7-12.9-28.7-28.7c0-1.6,0.1-3.2,0.4-4.8
			C1115.6-856.7,1116.8-855.1,1118.2-853.6z"/>
	</g>
	<g class="st2">
		<path class="st3" d="M1109.6-1061c1.3-5.9,4.3-10.9,8.3-14.8c-3.8-5.2-5.3-11.9-3.8-18.7c2.8-12.5,15.3-20.4,27.8-17.6
			c1.3,0.3,2.6,0.7,3.8,1.2c4.2-12.4,17.2-19.9,30.3-16.9c5.1,1.2,9.6,3.8,13,7.3c8-8.1,19.9-12,31.9-9.3
			c14.6,3.3,24.9,15.5,26.5,29.6c12.2,3,19.8,15.2,17,27.4c-0.2,0.9-0.5,1.8-0.8,2.7c5.2,4.9,7.8,12.3,6.1,19.8
			c-2.5,11.2-13.6,18.2-24.8,15.7c-0.9-0.2-1.8-0.5-2.7-0.8c-4.7,9.7-15.7,15.3-26.7,12.8c-3.8-0.9-7.1-2.6-9.9-4.9
			c-6.7,6.6-16.6,9.7-26.4,7.5c-8.5-1.9-15.2-7.4-19-14.4c-6.9,7.5-17.6,11.3-28.3,8.8C1116-1029.2,1106-1045.1,1109.6-1061z"/>
		<path class="st4" d="M1124.4-1044.6h0.5c5.8,0,11.4-2.3,15.5-6.4c2.7-2.7,4.6-6,5.6-9.6c0.1-0.5,0.3-1,0.4-1.4
			c3.4,2.9,7.8,4.5,12.3,4.5h0.9c4.9,0,9.7-2,13.2-5.4c0.5,1,1.1,2,1.9,2.8c1.8,1.8,4.3,2.8,6.8,2.8c1.5,0,3-0.4,4.4-1.1
			c0,0.1,0,0.2,0,0.3c0,2.5,1,5,2.8,6.8c0.1,0.1,0.1,0.1,0.2,0.2c0.1,0.1,0.2,0.2,0.3,0.3c1.8,1.8,4.3,2.8,6.8,2.8
			c2.5,0,5-1,6.8-2.8c0.3-0.3,0.6-0.7,0.9-1.1c0.2,0.3,0.5,0.5,0.7,0.8c4.2,4.2,9.9,6.6,15.8,6.6h0.5c5.9,0,11.7-2.4,15.8-6.6
			c0.4-0.4,0.8-0.8,1.2-1.3c3.3,2.8,7.6,4.4,12,4.4c4.9,0,9.6-2,13.1-5.4c2.9-2.9,4.7-6.7,5.3-10.7c2,4.1,2.7,8.9,1.6,13.7
			c-2.5,11.2-13.6,18.2-24.8,15.7c-0.9-0.2-1.8-0.5-2.7-0.8c-4.7,9.7-15.7,15.3-26.7,12.8c-3.8-0.9-7.1-2.6-9.9-4.9
			c-6.7,6.6-16.6,9.7-26.4,7.5c-8.5-1.9-15.2-7.4-19-14.4c-6.9,7.5-17.6,11.3-28.3,8.8c-12.5-2.8-21.4-13.2-22.9-25.3
			C1113.1-1046.9,1118.7-1044.6,1124.4-1044.6z"/>
	</g>
	<g class="st2">
		<path class="st3" d="M33.9-762.9c1,0,2.1,0.1,3.1,0.3c-1-2.4-1.5-5-1.5-7.8c0-11.7,9.5-21.2,21.2-21.2c0.3,0,0.7,0,1,0
			c3.5-11.7,14.3-20.3,27.2-20.3c12,0,22.2,7.4,26.4,17.9c0.7-0.1,1.3-0.1,2-0.1c14.1,0,25.5,11.4,25.5,25.5c0,3.6-0.7,7-2.1,10.1
			c6.7,2.4,11.5,8.9,11.5,16.5c0,9.7-7.8,17.5-17.5,17.5c-5.8,0-11-2.9-14.2-7.3c-3.9,3.4-9,5.5-14.6,5.5c-6.3,0-12.1-2.7-16.1-6.9
			c-4.5,5.3-11.2,8.7-18.6,8.7c-7.5,0-14.3-3.4-18.8-8.8c-3.4,4.3-8.6,7.1-14.5,7.1c-10.1,0-18.4-8.2-18.4-18.4
			C15.5-754.7,23.8-762.9,33.9-762.9z"/>
		<path class="st4" d="M19.3-755.7c1.6,7.4,8.2,13.1,16,13.1c7.3,0,13.6-5,15.7-11.7c2.9,1.6,6.1,2.5,9.6,2.5c3.3,0,6.4-0.8,9.2-2.3
			c2.1,6.6,8.4,11.5,15.6,11.5c7.3,0,13.6-5,15.7-11.7c2.8,1.3,5.9,2.1,9.1,2.1h0.9c2.2,0,4.4-0.4,6.5-1v0.3c0,3.8,1.5,7.6,4.3,10.3
			c2.7,2.7,6.4,4.3,10.3,4.3c3.8,0,7.6-1.5,10.3-4.3c2-2,3.3-4.5,3.9-7.2c1.2,2.4,1.9,5.1,1.9,7.9c0,9.7-7.8,17.5-17.5,17.5
			c-5.8,0-11-2.9-14.2-7.3c-3.9,3.4-9,5.5-14.6,5.5c-6.3,0-12.1-2.7-16.1-6.9c-4.5,5.3-11.2,8.7-18.6,8.7c-7.5,0-14.3-3.4-18.8-8.8
			c-3.4,4.3-8.6,7.1-14.5,7.1c-10.1,0-18.4-8.2-18.4-18.4C15.5-748.8,16.9-752.6,19.3-755.7z"/>
	</g>
</g>
<g id="skyeline">
	<path class="st5" d="M1058.4,561.3l72.7-72.2c0,0,67.1,18.2,58.5,42.8l142.3-187.3v-32.4v-24.8h14v24.8l38.3,34.6v51.9l55.9,157.8
		v4.8H1058.4z"/>
	<polygon class="st5" points="677.3,561.3 964.6,561.3 1015,531.5 1022.4,516.2 1003.8,512.8 1054.8,301.9 999.7,261.9 990.3,296.9 
		954.5,295 905.2,291.2 860.4,497.2 782.8,478.1 700,469.6 700,491.8 656.9,504.8 	"/>
	<polygon class="st5" points="48.3,520.4 48.3,468.4 90.8,474.7 98.4,476.9 98.4,365.3 190,369.4 190,491.5 317.1,365.5 
		339.3,365.5 339.3,385.5 367.6,385.5 367.6,462.4 418.6,476 505.2,478.5 552.2,478.5 552.2,561.3 147.9,561.3 147.9,538.6 	"/>
	<path class="st6" d="M1235.9,464.1l22.9-4.8v-45.5h8.3V406h9.6v8.1h10.8v-60.6l44.2-8.8l52.3,2.2v51.9c0,0,36.9-0.5,55.9,4v141.6
		h-182.5v-71.9L1235.9,464.1z"/>
	<path class="st7" d="M1058.4,561.3c0,0,15.8-16.4,44.9-23.2c0,0-68.7-13.7-64.3,23.2H1058.4z"/>
	<path class="st6" d="M1189.5,467c0,0,27.5-0.4,31.1,19.8v57.4h-31.1v-12.4V467z"/>
	<polygon class="st6" points="1017.3,535.1 1103.3,538.1 1070.5,430.6 	"/>
	<path class="st6" d="M782.8,488.6c0,0,6.4-10.1,25.1,12.1s0-3.5,0-3.5l29,7.6c0,0,13.6,5.1,58.3,5.1c0,0,20.6-5.4,20.6-20.8
		l-31.6-36.3h-7.5l-16.2,26c0,0-20.7-10.8-38.3-4c0,0-45.6-25.7-55.8-4.2C756,492.1,782.8,488.6,782.8,488.6z"/>
	<path class="st6" d="M823.6,552.9c0,0-2.6-21.3-30.1-21.3c-27.5,0-27.5,19.5-27.5,19.5h-40v10.2h67.5L823.6,552.9z"/>
	<path class="st6" d="M412.8,419.1V367h19.8v-8.7h29v8.7H488v-6.2h8.4v-10.1h5.6v-11h10.7v11h5.7v10.1h4.9v10.7h5.3v31.3h5.7v20.9
		H645v14h32.3v14.7v17.2H700v22.2c0,0-18,10.6-22.7,21.5v48h-44.2V531l-48.3-7.3v-32.5l-32.5,3.5v-16.1h-47.1l-14,7.9h-34.3v-74.8
		h7.5v-9.8L412.8,419.1z"/>
	<path class="st6" d="M236.7,495.2c0,0,11.8,5.6,16.1,10c0,0,15.4-26.5,47.2-26.5s37.9,23.8,37.9,23.8h59.4v-78.2h-7.7v42.5
		c0,0-4.2-6.1-72.4-6.1V381v-15.5V211.7l-80.4-6.2v152.2v15.7V495.2z"/>
	<path class="st8" d="M952.4,552.9h-92c0,0,0.5-3.9-6.8-6.9h71.3c0,0,15-14.2,55-14.2c0,0,79.7-2.8,123.4,6.2
		c0,0-64.3-1.7-64.3,23.2h-74.3C964.6,561.3,965.6,552.9,952.4,552.9z"/>
	<path class="st7" d="M774.7,509.9c0,0,4.2-17.4,8.1-21.3c0,0-4.8-12-16.5-18.1c0,0-38.2-35.2-44.1,15.9c0,0,25.6-0.8,24.5,9.7
		s-12.5,7.8-13.1,9.3s-0.6,4.2,0.9,4.5H774.7z"/>
	<path class="st7" d="M822,454.5V60.1c0,0-77.7,1.1-119.7,43.1v131c0,0-9.4,2.4-13.9,7V458L822,454.5z"/>
	<path class="st9" d="M905.2,291.2v15.2h10.5v182.7h-31.6v-36.3h-7.5v44.4h-13.2c0,0-0.9-16.4-3-18.5v-51.2c0,0,1.8-17.7,22.2-17.7
		v-91.1L905.2,291.2z"/>
	<path class="st9" d="M717.9,440.1h19.7V146.6c0,0-10.8,0.9-19.7,9.8V440.1z"/>
	<polygon class="st9" points="1338.2,395.6 1369.5,419.7 1369.5,395.6 	"/>
	<polygon class="st9" points="1331.8,344.6 1331.8,390.8 1287.6,353.4 	"/>
	<path class="st9" d="M190,491.5c0,0,26.8-9.4,46.7,3.7V373.5L190,397.6V491.5z"/>
	<polygon class="st9" points="190,383.4 236.7,357.7 236.7,205.5 190,228.1 	"/>
	<polygon class="st9" points="48.3,468.4 9.4,482.6 9.4,533.5 0,533.5 0,561.3 15.7,561.3 15.7,536.7 48.3,520.4 	"/>
	<polygon class="st9" points="98.4,476.9 90.8,474.7 90.8,368.5 98.4,365.3 	"/>
	<polygon class="st9" points="397.2,502.5 403.1,502.5 418.6,476 426.8,486.2 456.8,486.2 456.8,411.7 464.3,411.7 464.3,401.9 
		397.2,424.3 	"/>
	<polygon class="st9" points="472.1,401.9 492.6,401.9 492.6,370.3 488,370.3 488,360.9 480.7,366.3 480.7,370.3 472.1,370.3 	"/>
	<path class="st9" d="M677.3,452.4c0,0,83.7-11,144.7-9.1v31.5c0,0-13.3-3.2-19.8,10.4c0,0-9.4-20.4-36-14.6c0,0-4.5-6.4-16.5-6.4
		c-12,0-27.6,6.1-27.6,22.3h-5.5L700,469.6h-22.7V452.4z"/>
	<polygon class="st9" points="1003.8,512.8 1022.4,516.2 1062.6,443 924.9,421.4 	"/>
	<rect y="561.3" class="st9" width="1440" height="5"/>
	<rect y="566.3" class="st7" width="1440" height="32"/>
	<rect x="895.2" y="408.1" class="st7" width="7.9" height="81"/>
	<rect x="895.2" y="332.2" class="st7" width="7.9" height="60.1"/>
	<polygon class="st9" points="954.5,295 990.3,296.9 999.7,261.9 	"/>
	<polygon class="st7" points="236.7,373.5 317.1,381 317.1,365.5 236.7,357.7 	"/>
	<polygon class="st7" points="236.7,205.5 317.1,211.7 317.1,200.2 236.7,192.3 	"/>
	<polygon class="st7" points="397.2,561.3 397.2,545.1 471.5,545.1 487.3,529.3 502,551.4 502,561.3 	"/>
	<path class="st7" d="M552.2,561.3v-66.7c0,0,7-10.7,32.5-3.5v32.5c0,0,36.3,0.3,48.3,7.3v30.4H552.2z"/>
	<polygon class="st7" points="836.8,504.8 846.4,478.1 800.8,504.8 	"/>
	<path class="st7" d="M793.5,561.3c0,0,1.6-8.4,23.2-8.4s21.8,8.4,21.8,8.4H793.5z"/>
	<path class="st9" d="M964.6,561.3c0,0-9-12.4-34.8-12.4c0,0,26.6-24.5,78.6,12.4H964.6z"/>
	<path class="st7" d="M1101.4,525.1l-13.1-43.1c0,0,9-13.2,52.9-13.2v53.3c0,0-6.4-13.1-19.1-13.1S1101.4,520.6,1101.4,525.1z"/>
	<path class="st7" d="M1150.9,468.8v47.4c0,0,6.4-2.7,14.6-2.7c8.2,0,24,15,24,18.4V467C1189.5,467,1152.4,467.1,1150.9,468.8z"/>
	<path class="st7" d="M1172.2,544.3c0,0,5.7-12.4,17.3-12.4v12.4H1172.2z"/>
	<path class="st7" d="M1220.6,544.3v-57.4c0,0-21.5-19.8-31.1-19.8l31.1-6.2v-9.9h10.5V463c0,0,22,5,26.4,9.4v71.9H1220.6z"/>
	<polygon class="st7" points="1331.8,344.6 1331.8,312.2 1287.6,353.4 	"/>
	<polygon class="st8" points="236.7,373.5 236.7,357.7 190,383.4 190,397.6 	"/>
	<polygon class="st8" points="236.7,205.5 236.7,192.3 190,214 190,228.1 	"/>
	<polygon class="st8" points="418.8,417.1 418.8,408.2 461.6,402.8 	"/>
	<polygon class="st8" points="1082.1,404.9 1062.6,443 1022.4,516.2 1015,531.5 1019.5,531.5 1084.7,407.9 	"/>
	<polygon class="st8" points="1103.3,538.1 1101.4,525.1 1088.3,482 1073.1,429.8 1071.1,433.7 1101,537.6 	"/>
	<polygon class="st8" points="1084.7,535.1 1067.9,439.8 1065.7,444 1081.2,534.7 	"/>
	<polygon class="st8" points="1068.3,533.5 1062.6,449.8 1060,454.7 1064.7,533.2 	"/>
	<polygon class="st8" points="1057.1,532.8 1055.2,463.8 1052.6,468.8 1053.9,532.6 	"/>
	<polygon class="st8" points="1047.9,531.5 1047.9,477.7 1045.8,481.7 1045.5,532.2 1047.9,532.3 	"/>
	<polygon class="st8" points="1038.4,495.7 1035.8,531.5 1032.8,531.5 1035.6,501 	"/>
	<polygon class="st8" points="1025.3,520.5 1025.3,531.6 1022.3,531.5 1022.4,526.1 	"/>
	<polygon class="st6" points="15.7,561.3 15.7,536.7 48.3,520.4 76.3,510 147.9,538.6 147.9,561.3 	"/>
	<path class="st6" d="M864.4,546.1c0,0-0.1-15.4,15.4-15.4c15.5,0,15.4,15.4,15.4,15.4H864.4z"/>
	<polygon class="st6" points="984.2,430.7 984.2,308.6 945.8,308.6 945.8,424.7 	"/>
	<polygon class="st6" points="996.1,432.6 996.1,296.9 1054.8,301.9 1054.8,398.6 1120.7,398.6 1120.7,452.8 1077,443.1 
		1073.1,429.8 1084.7,407.9 1082.1,404.9 1062.6,443 	"/>
	<path class="st6" d="M1141.1,468.8c0,0,6.4,0.7,9.7,0v47.4c0,0-6.5,2.7-9.7,6V468.8z"/>
	<polygon class="st9" points="1440,544.3 1440,556.5 1180.9,556.5 1087.2,556.5 1087.2,544.3 	"/>
	<rect y="598.3" class="st5" width="1440" height="10.5"/>
</g>
</svg>
