<svg xmlns="http://www.w3.org/2000/svg" width="1795.944" height="878.075" preserveAspectRatio="xMinYMin" viewBox="0 0 1795.944 878.075">
    <g id="Group_956" data-name="Group 956" transform="translate(-63.715 -134.552)">
        <rect id="Rectangle_2501" data-name="Rectangle 2501" width="907.449" height="32.974" transform="translate(288.334 224.618)" fill="#00ace7" stroke="#fff" stroke-miterlimit="10" stroke-width="2"/>
        <rect id="Rectangle_2502" data-name="Rectangle 2502" width="841.186" height="32.974" transform="translate(288.256 257.793)" fill="#00ace7" stroke="#fff" stroke-miterlimit="10" stroke-width="2"/>
        <rect id="Rectangle_2503" data-name="Rectangle 2503" width="782.52" height="32.974" transform="translate(288.572 157.671)" fill="#00ace7" stroke="#fff" stroke-miterlimit="10" stroke-width="2"/>
        <rect id="Rectangle_2504" data-name="Rectangle 2504" width="779.391" height="32.974" transform="translate(288.224 191.053)" fill="#00ace7" stroke="#fff" stroke-miterlimit="10" stroke-width="2"/>
        <rect id="Rectangle_2505" data-name="Rectangle 2505" width="712.522" height="32.974" transform="translate(288 290.715)" fill="#00ace7" stroke="#fff" stroke-miterlimit="10" stroke-width="2"/>
        <path id="Path_3355" data-name="Path 3355" d="M285.995,322.065c.113,0,.219,0,.333.007V290.091c-.114-.007-.22-.007-.333-.007a64.952,64.952,0,0,0-64.955,64.628h32.141A32.812,32.812,0,0,1,285.995,322.065Z" fill="#ccc"/>
        <path id="Path_3356" data-name="Path 3356" d="M285.995,290.084c.113,0,.219,0,.333.007V257.437h-.333a97.61,97.61,0,0,0-97.609,97.275H221.04A64.952,64.952,0,0,1,285.995,290.084Z" fill="#ccc"/>
        <path id="Path_3357" data-name="Path 3357" d="M285.995,257.437h.333V225.123h-.333A130.17,130.17,0,0,0,177.406,283.4c-.38.58-.76,1.16-1.133,1.739s-.739,1.166-1.106,1.759-.726,1.18-1.079,1.773c-.367.612-.726,1.232-1.079,1.852s-.713,1.252-1.06,1.879a129.528,129.528,0,0,0-16.2,62.309h32.641A97.61,97.61,0,0,1,285.995,257.437Z" fill="#ccc"/>
        <path id="Path_3358" data-name="Path 3358" d="M285.995,224.456h.333v-31.98h-.333A162.237,162.237,0,0,0,123.758,354.712h31.981A130.257,130.257,0,0,1,285.995,224.456Z" fill="#ccc"/>
        <path id="Path_3359" data-name="Path 3359" d="M285.995,192.476h.333V159.828h-.333q-2.529,0-5.051.067c-.839.02-1.679.046-2.512.08-.732.027-1.459.053-2.185.093-.473.02-.939.047-1.412.08s-.933.047-1.4.08c-.832.047-1.659.107-2.485.173-.779.054-1.559.114-2.338.187a3.514,3.514,0,0,0-.4.04q-3.389.3-6.749.726c-.56.067-1.12.14-1.679.213-1.26.167-2.512.347-3.765.547-.726.106-1.446.219-2.165.339a194.764,194.764,0,0,0-77.9,31.242c-.806.553-1.612,1.112-2.411,1.679-.88.613-1.753,1.246-2.619,1.879-.993.719-1.985,1.459-2.965,2.2-.879.666-1.745,1.339-2.612,2.026A195.125,195.125,0,0,0,90.451,354.712h33.307A162.237,162.237,0,0,1,285.995,192.476Z" fill="#ccc"/>
        <g id="Group_935" data-name="Group 935">
            <path id="Path_3360" data-name="Path 3360" d="M170.976,240.027a161.558,161.558,0,0,1,115.019-47.6h.333v-.666h-.333a163.193,163.193,0,0,0-163.29,162.956h.666A161.563,161.563,0,0,1,170.976,240.027Z" fill="#fff"/>
        </g>
        <g id="Group_936" data-name="Group 936">
            <path id="Path_3361" data-name="Path 3361" d="M155.745,354.712h.214a129.45,129.45,0,0,1,15.99-62.309c.347-.627.7-1.26,1.06-1.879s.712-1.24,1.079-1.852c.353-.593.713-1.186,1.079-1.773s.726-1.179,1.106-1.759.746-1.166,1.133-1.739A130.228,130.228,0,0,1,285.995,225.01h.333v-.667h-.333a130.642,130.642,0,0,0-130.7,130.369h.447v.333C155.739,354.932,155.739,354.825,155.745,354.712Z" fill="#fff"/>
        </g>
        <g id="Group_937" data-name="Group 937">
            <path id="Path_3362" data-name="Path 3362" d="M217.076,286.126A96.808,96.808,0,0,1,285.995,257.6h.333v-.666h-.333a98.045,98.045,0,0,0-98.109,97.775h.667A96.81,96.81,0,0,1,217.076,286.126Z" fill="#fff"/>
        </g>
        <g id="Group_938" data-name="Group 938">
            <path id="Path_3363" data-name="Path 3363" d="M285.995,290.2c.113,0,.219,0,.333.007v-.666c-.114-.007-.22-.007-.333-.007a65.581,65.581,0,0,0-65.508,65.181h.666A64.913,64.913,0,0,1,285.995,290.2Z" fill="#fff"/>
        </g>
        <g id="Group_939" data-name="Group 939">
            <path id="Path_3364" data-name="Path 3364" d="M147.923,216.974a198.767,198.767,0,0,1,17.423-15.49c.867-.687,1.733-1.36,2.612-2.026.98-.746,1.972-1.486,2.965-2.2.866-.633,1.739-1.266,2.619-1.879.8-.567,1.6-1.126,2.411-1.679a192.729,192.729,0,0,1,77.9-31.242c.719-.126,1.439-.239,2.165-.339,1.253-.2,2.5-.38,3.765-.547.559-.073,1.119-.146,1.679-.213q3.357-.431,6.749-.726a3.514,3.514,0,0,1,.4-.04c.779-.073,1.559-.133,2.338-.187.826-.066,1.653-.126,2.485-.173q.7-.049,1.4-.08c.473-.033.939-.06,1.412-.08.726-.04,1.453-.066,2.185-.093.833-.034,1.673-.06,2.512-.08q2.518-.07,5.051-.067h.333v-.666h-.333A195.768,195.768,0,0,0,90.111,354.712h.666A193.963,193.963,0,0,1,147.923,216.974Z" fill="#fff"/>
        </g>
        <rect id="Rectangle_2506" data-name="Rectangle 2506" width="82.779" height="32.974" transform="translate(1071.513 157.821)" fill="#ff8d00" stroke="#fff" stroke-miterlimit="10" stroke-width="2"/>
        <rect id="Rectangle_2507" data-name="Rectangle 2507" width="280.557" height="32.974" transform="translate(1068.513 190.794)" fill="#ff8d00" stroke="#fff" stroke-miterlimit="10" stroke-width="2"/>
        <rect id="Rectangle_2508" data-name="Rectangle 2508" width="302.429" height="32.974" transform="translate(1196.905 224.618)" fill="#ff8d00" stroke="#fff" stroke-miterlimit="10" stroke-width="2"/>
        <rect id="Rectangle_2509" data-name="Rectangle 2509" width="255.093" height="32.974" transform="translate(1130.189 257.741)" fill="#ff8d00" stroke="#fff" stroke-miterlimit="10" stroke-width="2"/>
        <rect id="Rectangle_2510" data-name="Rectangle 2510" width="294.898" height="32.974" transform="translate(1001.942 290.973)" fill="#ff8d00" stroke="#fff" stroke-miterlimit="10" stroke-width="2"/>
        <rect id="Rectangle_2511" data-name="Rectangle 2511" width="164.745" height="32.974" transform="translate(1298.089 290.715)" fill="#b3b3b3" stroke="#fff" stroke-miterlimit="10" stroke-width="2"/>
        <rect id="Rectangle_2512" data-name="Rectangle 2512" width="148" height="32.974" transform="translate(1308 895.715)" fill="#00ace7" stroke="#fff" stroke-miterlimit="10" stroke-width="2"/>
        <rect id="Rectangle_2513" data-name="Rectangle 2513" width="147.978" height="32.974" transform="translate(1307.942 936.973)" fill="#ff8d00" stroke="#fff" stroke-miterlimit="10" stroke-width="2"/>
        <rect id="Rectangle_2514" data-name="Rectangle 2514" width="148" height="32.974" transform="translate(1308 977.715)" fill="#b3b3b3" stroke="#fff" stroke-miterlimit="10" stroke-width="2"/>
        <rect id="Rectangle_2515" data-name="Rectangle 2515" width="472.273" height="32.974" transform="translate(122.22 356.88) rotate(90)" fill="#dfebe1" stroke="#fff" stroke-miterlimit="10" stroke-width="1"/>
        <rect id="Rectangle_2516" data-name="Rectangle 2516" width="522.12" height="32.974" transform="translate(155.451 356.88) rotate(90)" fill="#dfebe1" stroke="#fff" stroke-miterlimit="10" stroke-width="1"/>
        <rect id="Rectangle_2517" data-name="Rectangle 2517" width="178.439" height="32.974" transform="translate(188.683 356.88) rotate(90)" fill="#dfebe1" stroke="#fff" stroke-miterlimit="10" stroke-width="1"/>
        <rect id="Rectangle_2518" data-name="Rectangle 2518" width="249.274" height="32.974" transform="translate(221.914 356.88) rotate(90)" fill="#dfebe1" stroke="#fff" stroke-miterlimit="10" stroke-width="1"/>
        <rect id="Rectangle_2519" data-name="Rectangle 2519" width="320.984" height="32.974" transform="translate(255.145 356.88) rotate(90)" fill="#dfebe1" stroke="#fff" stroke-miterlimit="10" stroke-width="1"/>
        <rect id="Rectangle_2520" data-name="Rectangle 2520" width="168.392" height="32.974" transform="translate(1386.089 257.793)" fill="#b3b3b3" stroke="#fff" stroke-miterlimit="10" stroke-width="2"/>
        <rect id="Rectangle_2521" data-name="Rectangle 2521" width="119.728" height="32.974" transform="translate(1350.089 191.047)" fill="#b3b3b3" stroke="#fff" stroke-miterlimit="10" stroke-width="2"/>
        <rect id="Rectangle_2522" data-name="Rectangle 2522" width="119.728" height="32.974" transform="translate(1155.089 157.385)" fill="#b3b3b3" stroke="#fff" stroke-miterlimit="10" stroke-width="2"/>
        <rect id="Rectangle_2523" data-name="Rectangle 2523" width="148.751" height="32.974" transform="translate(1500.089 224.709)" fill="#b3b3b3" stroke="#fff" stroke-miterlimit="10" stroke-width="2"/>
        <g id="Group_941" data-name="Group 941" opacity="0.33">
            <g id="Group_940" data-name="Group 940">
                <path id="Path_3365" data-name="Path 3365" d="M64.517,332.546c8.234,4.334,12.4,6.333,20.825,9.993-.088,1.994-.119,2.995-.157,5-8.634,3.111-12.924,4.855-21.413,8.712-.057-2.55-.066-3.822-.05-6.356,5.735-2.183,8.617-3.2,14.4-5.081-5.653-2.257-8.465-3.456-14.051-5.992C64.214,336.3,64.3,335.047,64.517,332.546Z"/>
                <path id="Path_3366" data-name="Path 3366" d="M86.626,327.143c-.24,1.953-.348,2.934-.54,4.9l-21.33-2.106c.213-2.182.333-3.269.6-5.435C73.863,325.56,78.117,326.087,86.626,327.143Z"/>
                <path id="Path_3367" data-name="Path 3367" d="M90.354,306.242a163.158,163.158,0,0,0-3.12,16.389c-8.482-1.253-12.723-1.878-21.205-3.132a180.99,180.99,0,0,1,3.46-18.173l4.175.984c-1.168,4.973-1.68,7.488-2.554,12.564l4.228.732c.579-3.366.9-5.039,1.615-8.36l4.194.9c-.7,3.253-1.015,4.891-1.583,8.189l4.213.729c.821-4.771,1.3-7.134,2.4-11.809Z"/>
                <path id="Path_3368" data-name="Path 3368" d="M92.4,298.285c-.52,1.857-.768,2.789-1.243,4.663-8.312-2.109-12.467-3.163-20.778-5.274,1.053-4.157,1.63-6.216,2.879-10.294a12.04,12.04,0,0,1,1.137-2.6A11.309,11.309,0,0,1,76,282.655a10.153,10.153,0,0,1,1.959-1.586,8.666,8.666,0,0,1,2.184-.973,7.717,7.717,0,0,1,2.28-.3,7.017,7.017,0,0,1,2.263.426,7.217,7.217,0,0,1,1.914,1.035,8.351,8.351,0,0,1,1.562,1.542,8.872,8.872,0,0,1,1.152,1.956,10.175,10.175,0,0,1,.68,2.27c2.474-.323,3.709-.468,6.176-.729-.673,1.921-1,2.887-1.622,4.83-1.9.267-2.853.411-4.757.717-.638,2.1-.943,3.16-1.525,5.285ZM75.889,293.66l8.263,2.315c.542-1.938.825-2.9,1.413-4.82a5.709,5.709,0,0,0,.257-1.954,5.364,5.364,0,0,0-.388-1.8,4.448,4.448,0,0,0-.962-1.456,3.655,3.655,0,0,0-1.455-.9,3.581,3.581,0,0,0-1.709-.145,4.277,4.277,0,0,0-1.645.626,5.274,5.274,0,0,0-1.38,1.289,5.8,5.8,0,0,0-.922,1.826C76.748,290.637,76.454,291.642,75.889,293.66Z"/>
                <path id="Path_3369" data-name="Path 3369" d="M95.872,259.436a9.325,9.325,0,0,1,2.36,1.654,10.311,10.311,0,0,1,1.753,2.233,11.985,11.985,0,0,1,1.138,2.643,12.563,12.563,0,0,1,.5,2.91,13.61,13.61,0,0,1-.181,3.048,13.882,13.882,0,0,1-.9,3.055c-1.115,2.644-1.649,3.977-2.668,6.667l-20.048-7.594c1.131-2.982,1.723-4.461,2.959-7.391a14.672,14.672,0,0,1,1.737-3.065,13.857,13.857,0,0,1,2.275-2.418,12.117,12.117,0,0,1,2.637-1.678,10.934,10.934,0,0,1,2.826-.884,9.416,9.416,0,0,1,2.863-.037A8.967,8.967,0,0,1,95.872,259.436Zm-2.166,4.513a5.415,5.415,0,0,0-2.514-.514,6.347,6.347,0,0,0-2.535.639,7.781,7.781,0,0,0-2.262,1.681,8.488,8.488,0,0,0-1.659,2.57c-.4.952-.6,1.429-.989,2.386l11.908,4.846c.367-.9.553-1.348.93-2.242a8.33,8.33,0,0,0,.662-2.809,7.787,7.787,0,0,0-.306-2.692,6.679,6.679,0,0,0-1.207-2.286A5.638,5.638,0,0,0,93.706,263.949Z"/>
                <path id="Path_3370" data-name="Path 3370" d="M114.9,247.3c-3.424,5.488-5.028,8.309-8,14.082l-19.064-9.8c3.3-6.4,5.076-9.529,8.873-15.615l3.641,2.267c-2.636,4.225-3.895,6.379-6.287,10.761l3.768,2.052c1.586-2.906,2.408-4.342,4.1-7.178l3.683,2.2c-1.662,2.778-2.466,4.184-4.02,7.031l3.754,2.045c2.248-4.119,3.432-6.143,5.909-10.114Z"/>
                <path id="Path_3371" data-name="Path 3371" d="M124.767,232.932c-1.134,1.5-1.692,2.264-2.791,3.795l-17.423-12.481c1.218-1.7,1.837-2.54,3.1-4.208l8.56,6.447c-1.2-5.53-1.71-8.348-2.541-14.072,1.51-1.829,2.277-2.733,3.836-4.519.56,4.859.908,7.26,1.736,11.99,5.841.657,8.728,1.078,14.416,2.1-1.4,1.612-2.1,2.426-3.459,4.076-3.99-.614-6-.878-10.066-1.315.454,2.261.7,3.384,1.211,5.611Z"/>
                <path id="Path_3372" data-name="Path 3372" d="M147.565,199.29a5.774,5.774,0,0,1,1.239,2.247,6.637,6.637,0,0,1,.227,2.547,7.448,7.448,0,0,1-.739,2.539,7.806,7.806,0,0,1-1.661,2.244,7.966,7.966,0,0,1-2.1,1.445,7.2,7.2,0,0,1-2.414.658,7.162,7.162,0,0,1-.672,2.418,8.031,8.031,0,0,1-1.456,2.1,7.77,7.77,0,0,1-2.248,1.653,7.476,7.476,0,0,1-2.54.731,6.638,6.638,0,0,1-2.543-.237,5.784,5.784,0,0,1-2.243-1.248l-11.431-10.176c1.389-1.559,2.092-2.33,3.517-3.856l11.184,10.447a1.973,1.973,0,0,0,.743.441,2.105,2.105,0,0,0,.853.1,2.446,2.446,0,0,0,.854-.241,2.8,2.8,0,0,0,1.3-1.356,2.457,2.457,0,0,0,.2-.865,2.111,2.111,0,0,0-.135-.847,1.989,1.989,0,0,0-.473-.724L126.093,198.6c1.46-1.492,2.2-2.229,3.7-3.685l10.673,10.968a1.969,1.969,0,0,0,.721.476,2.113,2.113,0,0,0,.847.137,2.448,2.448,0,0,0,.866-.2,2.789,2.789,0,0,0,1.359-1.292,2.457,2.457,0,0,0,.244-.855,2.226,2.226,0,0,0-.087-.858,1.9,1.9,0,0,0-.433-.751L133.571,191.32c1.525-1.416,2.3-2.115,3.856-3.5Z"/>
                <path id="Path_3373" data-name="Path 3373" d="M169.527,189.787c-1.55,1.082-2.319,1.632-3.841,2.749l-2.535-3.46c-3.112,2.284-4.64,3.463-7.635,5.889l2.7,3.335c-1.46,1.183-2.183,1.783-3.614,3l-8.319-9.8a7.166,7.166,0,0,1-1.553-3.063,8.492,8.492,0,0,1-.066-3.5,10.194,10.194,0,0,1,1.394-3.5,11.962,11.962,0,0,1,6.433-4.961,10.28,10.28,0,0,1,3.751-.464,8.416,8.416,0,0,1,3.377.946,7.152,7.152,0,0,1,2.566,2.282Zm-8.9-4.16-2.535-3.46a3.641,3.641,0,0,0-1.306-1.109,4.274,4.274,0,0,0-1.689-.451,5.178,5.178,0,0,0-1.855.244,5.888,5.888,0,0,0-3.151,2.43,5.134,5.134,0,0,0-.705,1.731,4.275,4.275,0,0,0,.006,1.749,3.632,3.632,0,0,0,.739,1.546l2.7,3.335C155.886,189.164,157.446,187.96,160.625,185.627Z"/>
                <path id="Path_3374" data-name="Path 3374" d="M176.886,184.9c-1.6,1.013-2.4,1.528-3.969,2.579-4.751-7.137-7.128-10.705-11.879-17.842,3.492-2.329,5.267-3.453,8.876-5.617a11.783,11.783,0,0,1,2.553-1.152,11.1,11.1,0,0,1,2.6-.491,10.065,10.065,0,0,1,2.5.14,8.69,8.69,0,0,1,2.263.744,7.773,7.773,0,0,1,1.889,1.306,7.077,7.077,0,0,1,1.393,1.832,7.274,7.274,0,0,1,.731,2.049,8.381,8.381,0,0,1,.133,2.189,8.958,8.958,0,0,1-.444,2.221,10.166,10.166,0,0,1-1,2.134c2.044,1.42,3.055,2.141,5.055,3.6-1.773.971-2.652,1.468-4.4,2.482-1.583-1.079-2.381-1.612-3.99-2.665-1.857,1.121-2.778,1.693-4.6,2.862Zm-9.156-14.5,4.582,7.254c1.671-1.057,2.513-1.576,4.211-2.594A5.593,5.593,0,0,0,178,173.793a5.291,5.291,0,0,0,.9-1.589,4.442,4.442,0,0,0,.251-1.72,3.688,3.688,0,0,0-.48-1.644,3.6,3.6,0,0,0-1.168-1.253,4.3,4.3,0,0,0-1.63-.642,5.2,5.2,0,0,0-1.871.025,5.658,5.658,0,0,0-1.886.727C170.348,168.758,169.47,169.3,167.73,170.4Z"/>
                <path id="Path_3375" data-name="Path 3375" d="M200.565,172.093c-1.736.79-2.6,1.194-4.309,2.024l-7.47-15.433c-2.8,1.359-4.193,2.063-6.939,3.52l-2.007-3.791a180.784,180.784,0,0,1,19.159-9c.652,1.587.979,2.38,1.631,3.967-2.891,1.189-4.324,1.81-7.16,3.1Z"/>
                <path id="Path_3376" data-name="Path 3376" d="M226.827,162.351c-1.866.544-2.794.827-4.639,1.415l-1.305-4.087c-3.772,1.2-5.638,1.848-9.326,3.226l1.5,4.018c-1.8.672-2.691,1.019-4.468,1.733L203.8,156.729a7.055,7.055,0,0,1-.489-3.4,8.486,8.486,0,0,1,1.086-3.355,10.416,10.416,0,0,1,2.5-2.9,12.479,12.479,0,0,1,7.857-2.718,10.663,10.663,0,0,1,3.788.732,8.495,8.495,0,0,1,2.958,1.957,7.016,7.016,0,0,1,1.728,2.976Zm-7.243-6.745c-.522-1.635-.783-2.452-1.3-4.087a3.572,3.572,0,0,0-.9-1.464,4.3,4.3,0,0,0-1.485-.957,5.33,5.33,0,0,0-1.875-.348,6.158,6.158,0,0,0-3.848,1.332,5.28,5.28,0,0,0-1.253,1.429,4.3,4.3,0,0,0-.57,1.668,3.558,3.558,0,0,0,.2,1.7c.6,1.607.9,2.41,1.5,4.018C213.825,157.493,215.731,156.833,219.584,155.606Z"/>
                <path id="Path_3377" data-name="Path 3377" d="M249.8,157.132c-1.954.322-2.927.495-4.863.864-.324-1.684-.486-2.527-.809-4.212-3.958.755-5.92,1.181-9.805,2.125l1.018,4.168c-1.894.46-2.836.7-4.711,1.207-1.343-4.963-2.015-7.445-3.357-12.408a6.968,6.968,0,0,1-.074-3.439,8.5,8.5,0,0,1,1.507-3.21,10.6,10.6,0,0,1,2.874-2.6,12.864,12.864,0,0,1,8.26-1.79,10.926,10.926,0,0,1,3.733,1.167,8.532,8.532,0,0,1,2.745,2.29,6.9,6.9,0,0,1,1.376,3.157C248.538,149.524,248.959,152.06,249.8,157.132Zm-6.478-7.546c-.323-1.685-.485-2.528-.808-4.212a3.515,3.515,0,0,0-.723-1.56,4.335,4.335,0,0,0-1.379-1.123,5.445,5.445,0,0,0-1.849-.563,6.353,6.353,0,0,0-4.046.877,5.363,5.363,0,0,0-1.439,1.276,4.28,4.28,0,0,0-.781,1.592,3.514,3.514,0,0,0,0,1.717c.407,1.666.61,2.5,1.017,4.167C237.278,150.792,239.282,150.357,243.324,149.586Z"/>
                <path id="Path_3378" data-name="Path 3378" d="M271.511,154.77a166.212,166.212,0,0,0-17.456,1.708c-1.22-8.486-1.828-12.729-3.048-21.215,2.182-.311,3.278-.453,5.478-.711.8,6.81,1.205,10.215,2.008,17.025,5.067-.593,7.626-.813,12.788-1.09Z"/>
            </g>
        </g>
        <g id="Group_943" data-name="Group 943">
            <g id="Group_942" data-name="Group 942">
                <path id="Path_3379" data-name="Path 3379" d="M146.835,235.771a5.355,5.355,0,0,1,1.19,1.793,6.139,6.139,0,0,1,.45,2.09,6.452,6.452,0,0,1-.285,2.136,5.818,5.818,0,0,1-1.024,1.935c-.452.567-.676.852-1.122,1.425a1.92,1.92,0,0,0-.336.654,2.128,2.128,0,0,0-.083.721,2.1,2.1,0,0,0,.165.7,1.9,1.9,0,0,0,.407.6l1.253,1.252c2.07-2.721,3.14-4.053,5.347-6.658l2.513,2.513c-3.141,3.708-4.644,5.623-7.508,9.564l-3.765-3.766a5.626,5.626,0,0,1-1.215-1.814,6.618,6.618,0,0,1-.508-2.141,6.475,6.475,0,0,1,.226-2.182,5.64,5.64,0,0,1,.99-1.963c.446-.572.671-.857,1.123-1.425a1.954,1.954,0,0,0,.344-.647,2.071,2.071,0,0,0,.093-.714,2.022,2.022,0,0,0-.161-.7,1.922,1.922,0,0,0-.407-.6,1.65,1.65,0,0,0-.578-.382,1.514,1.514,0,0,0-.641-.1,1.529,1.529,0,0,0-.627.18,1.688,1.688,0,0,0-.537.454c-1.608,2.018-2.392,3.044-3.921,5.127l-2.514-2.513c1.529-2.083,2.314-3.109,3.921-5.127a4.861,4.861,0,0,1,1.619-1.34,4.788,4.788,0,0,1,5.591.927Z" fill="#fff"/>
                <path id="Path_3380" data-name="Path 3380" d="M160.636,226.318a13.861,13.861,0,0,1,2.614,3.414,7.527,7.527,0,0,1,.889,3.076,5.8,5.8,0,0,1-.527,2.721,8.635,8.635,0,0,1-1.621,2.354,8.246,8.246,0,0,1-2.271,1.7,5.473,5.473,0,0,1-2.653.582,7.215,7.215,0,0,1-3.021-.845,13.467,13.467,0,0,1-3.373-2.574,14.27,14.27,0,0,1-2.644-3.443,8.213,8.213,0,0,1-.969-3.145,5.965,5.965,0,0,1,.438-2.8,7.849,7.849,0,0,1,1.582-2.392,7.6,7.6,0,0,1,2.3-1.671,5.664,5.664,0,0,1,2.743-.505,7.853,7.853,0,0,1,3.1.918A13.858,13.858,0,0,1,160.636,226.318Zm-2.454,2.4a7.751,7.751,0,0,0-3.814-2.4,3.12,3.12,0,0,0-2.958.983,3.234,3.234,0,0,0-.879,3.016,8.1,8.1,0,0,0,2.455,3.841,7.668,7.668,0,0,0,3.773,2.386,3.072,3.072,0,0,0,2.9-.992,3.642,3.642,0,0,0,.859-1.4,3.178,3.178,0,0,0,.075-1.607,5.5,5.5,0,0,0-.76-1.809A11.463,11.463,0,0,0,158.182,228.72Z" fill="#fff"/>
                <path id="Path_3381" data-name="Path 3381" d="M169.259,214.06a4.794,4.794,0,0,1,1.133,1.734,4.7,4.7,0,0,1,.294,1.932,4.965,4.965,0,0,1-.517,1.9,5.216,5.216,0,0,1-1.311,1.653c-.551.471-.826.708-1.372,1.185a1.748,1.748,0,0,0-.434.56,1.637,1.637,0,0,0-.161.647,1.617,1.617,0,0,0,.111.653,1.683,1.683,0,0,0,.388.583l1.253,1.253c2.545-2.273,3.848-3.377,6.513-5.516l2.513,2.514c-3.792,3.044-5.63,4.637-9.18,7.95-1.507-1.506-2.26-2.26-3.766-3.766a4.98,4.98,0,0,1-1.154-1.759,5.088,5.088,0,0,1-.345-1.989,5,5,0,0,1,1.749-3.644c.546-.477.82-.713,1.371-1.184a1.759,1.759,0,0,0,.441-.554,1.58,1.58,0,0,0,.171-.637,1.529,1.529,0,0,0-.109-.649,1.705,1.705,0,0,0-.388-.584,1.846,1.846,0,0,0-.6-.4,1.98,1.98,0,0,0-1.4-.049,1.891,1.891,0,0,0-.634.359c-1.96,1.674-2.924,2.531-4.816,4.28-1.006-1-1.508-1.508-2.514-2.514,1.892-1.749,2.856-2.605,4.817-4.279a5.414,5.414,0,0,1,1.9-1.058,6.223,6.223,0,0,1,4.24.181A5.413,5.413,0,0,1,169.259,214.06Z" fill="#fff"/>
                <path id="Path_3382" data-name="Path 3382" d="M183.92,218.385c-1.172.851-1.753,1.283-2.9,2.16L170.969,210.5c-.574.437-.859.657-1.428,1.1l-2.514-2.514c1.711-1.331,2.577-1.984,4.334-3.259C176.385,210.848,178.9,213.36,183.92,218.385Z" fill="#fff"/>
            </g>
        </g>
        <g id="Group_945" data-name="Group 945">
            <g id="Group_944" data-name="Group 944">
                <path id="Path_3383" data-name="Path 3383" d="M169.818,260.222a6.186,6.186,0,0,1,1.235,1.747,6.314,6.314,0,0,1,.571,1.963,5.6,5.6,0,0,1-.109,1.945,4.343,4.343,0,0,1-.815,1.7c-.38.484-.57.728-.946,1.216a1.452,1.452,0,0,0-.269.571,1.841,1.841,0,0,0-.028.655,2.152,2.152,0,0,0,.2.659,2.179,2.179,0,0,0,.42.585l1.252,1.252c1.751-2.317,2.652-3.455,4.5-5.689l2.514,2.514c-2.633,3.179-3.9,4.812-6.332,8.16l-3.766-3.767a6.42,6.42,0,0,1-1.253-1.762,6.723,6.723,0,0,1-.613-2,5.662,5.662,0,0,1,.068-1.977,4.273,4.273,0,0,1,.791-1.715c.377-.489.566-.732.947-1.217a1.459,1.459,0,0,0,.274-.567,1.806,1.806,0,0,0,.036-.649,2.037,2.037,0,0,0-.2-.657,2.19,2.19,0,0,0-.421-.587,1.9,1.9,0,0,0-.564-.4,1.528,1.528,0,0,0-.6-.144,1.294,1.294,0,0,0-.571.114,1.244,1.244,0,0,0-.467.374c-1.354,1.724-2.017,2.6-3.315,4.367l-2.513-2.513c1.3-1.77,1.96-2.644,3.314-4.367a3.581,3.581,0,0,1,1.41-1.1,4.026,4.026,0,0,1,1.729-.324,4.9,4.9,0,0,1,1.825.432A5.579,5.579,0,0,1,169.818,260.222Z" fill="#fff"/>
                <path id="Path_3384" data-name="Path 3384" d="M181.722,252.388a16.306,16.306,0,0,1,2.684,3.364,8.2,8.2,0,0,1,1.08,2.937,5.108,5.108,0,0,1-.248,2.509,6.347,6.347,0,0,1-1.289,2.086A5.911,5.911,0,0,1,182,264.71a4.57,4.57,0,0,1-2.4.348,7.587,7.587,0,0,1-2.852-1.006,15.712,15.712,0,0,1-3.312-2.634,16.672,16.672,0,0,1-2.705-3.383,8.841,8.841,0,0,1-1.138-2.984,5.281,5.281,0,0,1,.182-2.564,5.935,5.935,0,0,1,1.259-2.114,5.606,5.606,0,0,1,1.973-1.4,4.746,4.746,0,0,1,2.464-.293,8.085,8.085,0,0,1,2.914,1.057A15.942,15.942,0,0,1,181.722,252.388Zm-2.032,2.092A8.76,8.76,0,0,0,176,251.986a2.5,2.5,0,0,0-2.628.717,2.728,2.728,0,0,0-.562,2.744,9.336,9.336,0,0,0,2.565,3.741,8.718,8.718,0,0,0,3.662,2.486,2.454,2.454,0,0,0,2.586-.719,2.737,2.737,0,0,0,.672-1.247,3,3,0,0,0-.067-1.494,6.2,6.2,0,0,0-.849-1.74A13.593,13.593,0,0,0,179.69,254.48Z" fill="#fff"/>
                <path id="Path_3385" data-name="Path 3385" d="M188.379,241.287a5.689,5.689,0,0,1,1.194,1.706,5.1,5.1,0,0,1,.455,1.851,4.4,4.4,0,0,1-.279,1.78,3.869,3.869,0,0,1-1.025,1.5c-.453.416-.679.625-1.129,1.045a1.3,1.3,0,0,0-.34.505,1.471,1.471,0,0,0-.086.6,1.728,1.728,0,0,0,.162.623,1.967,1.967,0,0,0,.406.572l1.252,1.252c2.1-2,3.17-2.973,5.356-4.878l2.513,2.514c-3.111,2.71-4.624,4.114-7.556,7.013l-3.766-3.765a5.889,5.889,0,0,1-1.209-1.723,5.46,5.46,0,0,1-.493-1.891,4.482,4.482,0,0,1,.243-1.818,3.8,3.8,0,0,1,1.005-1.518c.449-.421.675-.63,1.129-1.046a1.316,1.316,0,0,0,.345-.5,1.421,1.421,0,0,0,.093-.594,1.682,1.682,0,0,0-.161-.621,2.024,2.024,0,0,0-.407-.574,2.059,2.059,0,0,0-.579-.411,1.885,1.885,0,0,0-.639-.181,1.65,1.65,0,0,0-.628.06,1.367,1.367,0,0,0-.538.307c-1.613,1.479-2.407,2.232-3.969,3.764l-2.514-2.513c1.562-1.532,2.356-2.285,3.969-3.764a3.95,3.95,0,0,1,1.62-.9,5.1,5.1,0,0,1,1.9-.16,6.112,6.112,0,0,1,3.676,1.769Z" fill="#fff"/>
                <path id="Path_3386" data-name="Path 3386" d="M201.851,235.1a15.579,15.579,0,0,1,2.632,3.306,6.819,6.819,0,0,1,.936,2.779,4.041,4.041,0,0,1-.462,2.275,5.856,5.856,0,0,1-1.555,1.8,6.551,6.551,0,0,1-2.215,1.145,5.76,5.76,0,0,1-2.618.121,9.147,9.147,0,0,1-3-1.156,16.6,16.6,0,0,1-3.368-2.69,15.827,15.827,0,0,1-2.65-3.327,7.356,7.356,0,0,1-.988-2.834,4.2,4.2,0,0,1,.4-2.337,5.441,5.441,0,0,1,1.528-1.833,6.178,6.178,0,0,1,2.238-1.118,5.947,5.947,0,0,1,2.678-.059,9.759,9.759,0,0,1,3.058,1.215A17.056,17.056,0,0,1,201.851,235.1Zm-2.351,1.74a9.648,9.648,0,0,0-3.787-2.6,3.038,3.038,0,0,0-2.891.436,2.252,2.252,0,0,0-.825,2.468,8.533,8.533,0,0,0,2.471,3.645,9.6,9.6,0,0,0,3.756,2.582,2.989,2.989,0,0,0,2.849-.444,2.452,2.452,0,0,0,.822-1.086,2.35,2.35,0,0,0,.046-1.373,5.328,5.328,0,0,0-.78-1.665A13.052,13.052,0,0,0,199.5,236.838Z" fill="#fff"/>
            </g>
        </g>
        <g id="Group_947" data-name="Group 947">
            <g id="Group_946" data-name="Group 946">
                <path id="Path_3387" data-name="Path 3387" d="M193.382,281.967a5.377,5.377,0,0,1,1.181,1.761,6.06,6.06,0,0,1,.463,2.043,6.173,6.173,0,0,1-.252,2.077,5.5,5.5,0,0,1-.975,1.872c-.435.547-.651.822-1.079,1.374a1.827,1.827,0,0,0-.321.632,2.073,2.073,0,0,0,.1,1.388,1.9,1.9,0,0,0,.4.59c.494.494.741.742,1.235,1.235,1.991-2.621,3.019-3.9,5.136-6.418L201.747,291c-3.013,3.578-4.458,5.423-7.214,9.218L190.82,296.5a5.633,5.633,0,0,1-1.2-1.781,6.507,6.507,0,0,1-.517-2.088,6.267,6.267,0,0,1,.2-2.12,5.33,5.33,0,0,1,.945-1.9c.428-.552.644-.826,1.078-1.374a1.826,1.826,0,0,0,.328-.626,2,2,0,0,0,.083-.694,1.959,1.959,0,0,0-.165-.684,1.923,1.923,0,0,0-.4-.592,1.641,1.641,0,0,0-.568-.379,1.464,1.464,0,0,0-1.234.061,1.59,1.59,0,0,0-.518.436c-1.545,1.945-2.3,2.933-3.771,4.939l-2.478-2.478c1.472-2.006,2.226-2.994,3.77-4.94a4.561,4.561,0,0,1,3.413-1.764,4.743,4.743,0,0,1,1.9.319A4.854,4.854,0,0,1,193.382,281.967Z" fill="#fff"/>
                <path id="Path_3388" data-name="Path 3388" d="M206.673,272.874a14,14,0,0,1,2.588,3.359,7.52,7.52,0,0,1,.909,3.015,5.606,5.606,0,0,1-.472,2.654,8.122,8.122,0,0,1-1.542,2.284,7.727,7.727,0,0,1-2.185,1.641,5.215,5.215,0,0,1-2.573.54,7.134,7.134,0,0,1-2.951-.856,13.549,13.549,0,0,1-3.316-2.547,14.414,14.414,0,0,1-2.616-3.385,8.2,8.2,0,0,1-.984-3.078,5.786,5.786,0,0,1,.389-2.725,7.426,7.426,0,0,1,1.506-2.319,7.153,7.153,0,0,1,2.217-1.61,5.407,5.407,0,0,1,2.657-.47,7.739,7.739,0,0,1,3.029.924A13.926,13.926,0,0,1,206.673,272.874Zm-2.349,2.327a7.759,7.759,0,0,0-3.74-2.38,2.971,2.971,0,0,0-2.861.933,3.113,3.113,0,0,0-.813,2.935,8.155,8.155,0,0,0,2.438,3.773,7.691,7.691,0,0,0,3.7,2.367,2.919,2.919,0,0,0,2.809-.94,3.435,3.435,0,0,0,.815-1.359,3.12,3.12,0,0,0,.051-1.568,5.543,5.543,0,0,0-.765-1.775A11.593,11.593,0,0,0,204.324,275.2Z" fill="#fff"/>
                <path id="Path_3389" data-name="Path 3389" d="M218.117,274.184c-1.04.924-1.554,1.392-2.574,2.338-3.961-3.962-5.943-5.943-9.9-9.9-.508.471-.76.708-1.263,1.184l-2.478-2.478c1.512-1.433,2.279-2.138,3.836-3.523Z" fill="#fff"/>
                <path id="Path_3390" data-name="Path 3390" d="M222.818,256.265a15.625,15.625,0,0,1,2.058,2.524,13.336,13.336,0,0,1,1.367,2.717,11.18,11.18,0,0,1,.63,2.788,9.431,9.431,0,0,1-.147,2.746c-1.486,1.149-2.22,1.734-3.671,2.925a12.246,12.246,0,0,0,.358-1.654,13.348,13.348,0,0,0,.139-1.711,12.174,12.174,0,0,0-.091-1.718,10.791,10.791,0,0,0-.341-1.67,5.831,5.831,0,0,1-.473,1.129,3.11,3.11,0,0,1-.8.95,7.536,7.536,0,0,1-2.415,1.322,6.7,6.7,0,0,1-2.517.307,6.768,6.768,0,0,1-2.459-.666,8.085,8.085,0,0,1-2.227-1.6,6.894,6.894,0,0,1-1.514-2.223,6.2,6.2,0,0,1-.506-2.461,5.611,5.611,0,0,1,.556-2.4,5.741,5.741,0,0,1,1.66-2.041,6.883,6.883,0,0,1,2.508-1.263,8.211,8.211,0,0,1,2.805-.265,8.585,8.585,0,0,1,2.75.687A7.423,7.423,0,0,1,222.818,256.265Zm-2.991,2.225a4,4,0,0,0-1.1-.775,4.094,4.094,0,0,0-1.292-.382,3.656,3.656,0,0,0-1.326.078,3.1,3.1,0,0,0-1.209.6,2.745,2.745,0,0,0-.816,1,2.637,2.637,0,0,0-.244,1.146,2.819,2.819,0,0,0,.281,1.168,3.844,3.844,0,0,0,.772,1.08,4.092,4.092,0,0,0,1.1.789,3.688,3.688,0,0,0,1.251.365,3.525,3.525,0,0,0,1.287-.1,3.3,3.3,0,0,0,1.2-.617,2.951,2.951,0,0,0,.834-1,2.5,2.5,0,0,0,.272-1.132,2.8,2.8,0,0,0-.258-1.152A3.593,3.593,0,0,0,219.827,258.49Z" fill="#fff"/>
            </g>
        </g>
        <g id="Group_949" data-name="Group 949">
            <g id="Group_948" data-name="Group 948">
                <path id="Path_3391" data-name="Path 3391" d="M216.233,305.76a5.267,5.267,0,0,1,1.162,1.74,6,6,0,0,1,.449,2.024,6.189,6.189,0,0,1-.261,2.064,5.518,5.518,0,0,1-.977,1.864c-.433.546-.648.82-1.075,1.371a1.851,1.851,0,0,0-.322.629,2.058,2.058,0,0,0,.088,1.378,1.863,1.863,0,0,0,.4.583l1.218,1.218c1.986-2.615,3.012-3.9,5.124-6.4l2.443,2.443c-3.006,3.57-4.447,5.411-7.2,9.2l-3.661-3.662a5.507,5.507,0,0,1-1.184-1.76,6.432,6.432,0,0,1-.5-2.07,6.254,6.254,0,0,1,.207-2.107,5.358,5.358,0,0,1,.946-1.889c.427-.551.642-.825,1.076-1.371a1.871,1.871,0,0,0,.328-.624,1.993,1.993,0,0,0,.085-.689,1.942,1.942,0,0,0-.16-.678,1.86,1.86,0,0,0-.4-.585,1.611,1.611,0,0,0-.561-.373,1.453,1.453,0,0,0-1.224.069,1.626,1.626,0,0,0-.516.435c-1.541,1.942-2.293,2.927-3.761,4.928l-2.444-2.443c1.468-2,2.221-2.987,3.761-4.928a4.582,4.582,0,0,1,3.392-1.774,4.657,4.657,0,0,1,1.881.306A4.719,4.719,0,0,1,216.233,305.76Z" fill="#fff"/>
                <path id="Path_3392" data-name="Path 3392" d="M229.461,296.656a13.676,13.676,0,0,1,2.548,3.318,7.394,7.394,0,0,1,.885,2.985,5.606,5.606,0,0,1-.483,2.636,8.214,8.214,0,0,1-1.542,2.276,7.8,7.8,0,0,1-2.175,1.641,5.2,5.2,0,0,1-2.554.552,7.009,7.009,0,0,1-2.921-.831,13.212,13.212,0,0,1-3.274-2.507,14.05,14.05,0,0,1-2.577-3.344,8.055,8.055,0,0,1-.958-3.048,5.756,5.756,0,0,1,.4-2.706,7.481,7.481,0,0,1,1.506-2.311,7.174,7.174,0,0,1,2.207-1.61,5.385,5.385,0,0,1,2.637-.482,7.611,7.611,0,0,1,3,.9A13.6,13.6,0,0,1,229.461,296.656Zm-2.342,2.323a7.579,7.579,0,0,0-3.7-2.339,2.97,2.97,0,0,0-2.842.943,3.112,3.112,0,0,0-.822,2.917,7.977,7.977,0,0,0,2.4,3.729,7.51,7.51,0,0,0,3.658,2.326,2.919,2.919,0,0,0,2.79-.95,3.459,3.459,0,0,0,.816-1.353,3.094,3.094,0,0,0,.059-1.556,5.414,5.414,0,0,0-.75-1.756A11.264,11.264,0,0,0,227.119,298.979Z" fill="#fff"/>
                <path id="Path_3393" data-name="Path 3393" d="M240.8,297.89c-1.037.923-1.55,1.389-2.566,2.334-3.907-3.907-5.862-5.861-9.769-9.769-.506.471-.758.707-1.259,1.183l-2.444-2.444c1.507-1.431,2.273-2.134,3.825-3.517Z" fill="#fff"/>
                <path id="Path_3394" data-name="Path 3394" d="M249.908,284.257A4.039,4.039,0,0,1,251,286.1a4.317,4.317,0,0,1,.031,2.072,6.178,6.178,0,0,1-.934,2.1,8.432,8.432,0,0,1-1.8,1.907,9.348,9.348,0,0,1-2.339,1.369,8.183,8.183,0,0,1-2.453.587,6.093,6.093,0,0,1-2.315-.262,4.816,4.816,0,0,1-2.724-2.229,4.444,4.444,0,0,1-.456-1.2,4.673,4.673,0,0,1-.105-1.273,4.375,4.375,0,0,1,.257-1.275,4.743,4.743,0,0,1-1.042-.1,6.159,6.159,0,0,1-1.019-.3,5.262,5.262,0,0,1-.929-.479,4.757,4.757,0,0,1-.786-.631,3.9,3.9,0,0,1-1-1.635,4.434,4.434,0,0,1-.149-1.9,5.166,5.166,0,0,1,.673-1.914,5.926,5.926,0,0,1,1.473-1.675,6.726,6.726,0,0,1,2.046-1.113,7.068,7.068,0,0,1,2.216-.373,6.121,6.121,0,0,1,2.1.352,4.559,4.559,0,0,1,1.707,1.072,4.253,4.253,0,0,1,.61.771,4.984,4.984,0,0,1,.432.88,4.179,4.179,0,0,1,.231.935,3.689,3.689,0,0,1,0,.939,6.385,6.385,0,0,1,1.435-.074,6.221,6.221,0,0,1,1.4.243,5.863,5.863,0,0,1,1.272.545A5.084,5.084,0,0,1,249.908,284.257Zm-2.839,1.991a2.541,2.541,0,0,0-.969-.6,3.34,3.34,0,0,0-1.185-.183,4.121,4.121,0,0,0-2.436.884,3.535,3.535,0,0,0-.858.962,3.035,3.035,0,0,0-.406,1.084,2.409,2.409,0,0,0,.066,1.07,2.163,2.163,0,0,0,.561.928,2.36,2.36,0,0,0,.95.584,3.005,3.005,0,0,0,1.14.134,4.018,4.018,0,0,0,1.21-.278,4.466,4.466,0,0,0,1.152-.668,4.092,4.092,0,0,0,.883-.943,3.045,3.045,0,0,0,.454-1.041,2.134,2.134,0,0,0-.02-1.021A2.005,2.005,0,0,0,247.069,286.248Zm-6.064-4.742a1.885,1.885,0,0,0-.708-.443,2.508,2.508,0,0,0-.857-.144,2.711,2.711,0,0,0-.9.158,2.819,2.819,0,0,0-.834.458,2.567,2.567,0,0,0-.618.691,2.046,2.046,0,0,0-.283.782,1.81,1.81,0,0,0,.062.775,1.59,1.59,0,0,0,.412.676,1.8,1.8,0,0,0,.7.435,2.3,2.3,0,0,0,.837.123,2.976,2.976,0,0,0,1.727-.646,2.6,2.6,0,0,0,.612-.68,2.158,2.158,0,0,0,.3-.763,1.65,1.65,0,0,0-.041-.753A1.543,1.543,0,0,0,241.005,281.506Z" fill="#fff"/>
            </g>
        </g>
        <g id="Group_951" data-name="Group 951">
            <g id="Group_950" data-name="Group 950">
                <path id="Path_3395" data-name="Path 3395" d="M241.5,327.682a5.38,5.38,0,0,1,1.193,1.791,6.141,6.141,0,0,1,.455,2.085,6.391,6.391,0,0,1-.277,2.127,5.753,5.753,0,0,1-1.015,1.924c-.449.564-.672.848-1.114,1.417a1.9,1.9,0,0,0-.334.65,2.109,2.109,0,0,0,.087,1.421,1.893,1.893,0,0,0,.407.6l1.253,1.253c2.056-2.7,3.119-4.027,5.31-6.616l2.513,2.513c-3.118,3.685-4.611,5.587-7.456,9.5-1.506-1.506-2.259-2.26-3.766-3.766a5.651,5.651,0,0,1-1.216-1.813,6.611,6.611,0,0,1-.513-2.133,6.447,6.447,0,0,1,.22-2.174,5.569,5.569,0,0,1,.981-1.952c.443-.569.666-.852,1.115-1.416a1.951,1.951,0,0,0,.341-.644,2.052,2.052,0,0,0,.09-.711,1.985,1.985,0,0,0-.162-.7,1.92,1.92,0,0,0-.408-.6,1.667,1.667,0,0,0-.578-.383,1.484,1.484,0,0,0-.638-.1,1.515,1.515,0,0,0-.625.176,1.68,1.68,0,0,0-.534.451c-1.6,2.005-2.376,3.024-3.895,5.094l-2.513-2.513c1.519-2.07,2.3-3.089,3.894-5.1a4.775,4.775,0,0,1,7.185-.386Z" fill="#fff"/>
                <path id="Path_3396" data-name="Path 3396" d="M255.222,318.3a13.955,13.955,0,0,1,2.616,3.412,7.557,7.557,0,0,1,.9,3.07,5.765,5.765,0,0,1-.514,2.712,8.551,8.551,0,0,1-1.607,2.343,8.139,8.139,0,0,1-2.256,1.692,5.431,5.431,0,0,1-2.642.572,7.233,7.233,0,0,1-3.013-.852,13.546,13.546,0,0,1-3.371-2.577,14.384,14.384,0,0,1-2.646-3.44,8.256,8.256,0,0,1-.977-3.138,5.949,5.949,0,0,1,.426-2.788,7.755,7.755,0,0,1,1.569-2.38,7.52,7.52,0,0,1,2.29-1.659,5.629,5.629,0,0,1,2.73-.5,7.843,7.843,0,0,1,3.1.924A13.942,13.942,0,0,1,255.222,318.3Zm-2.436,2.389a7.784,7.784,0,0,0-3.808-2.4,3.1,3.1,0,0,0-2.944.972,3.212,3.212,0,0,0-.864,3.005,8.14,8.14,0,0,0,2.459,3.836,7.7,7.7,0,0,0,3.768,2.391,3.041,3.041,0,0,0,2.888-.981,3.577,3.577,0,0,0,.851-1.393,3.159,3.159,0,0,0,.069-1.6,5.521,5.521,0,0,0-.764-1.806A11.524,11.524,0,0,0,252.786,320.687Z" fill="#fff"/>
                <path id="Path_3397" data-name="Path 3397" d="M266.953,319.574c-1.079.946-1.613,1.425-2.671,2.395l-10.046-10.046c-.528.483-.789.726-1.311,1.215l-2.514-2.514c1.569-1.47,2.366-2.192,3.982-3.61C259.417,312.038,261.93,314.55,266.953,319.574Z" fill="#fff"/>
                <path id="Path_3398" data-name="Path 3398" d="M266.084,297.672c3.037,6.467,4.569,9.721,7.663,16.26-1.208.95-1.807,1.432-2.992,2.409-2.462-5.3-3.683-7.941-6.106-13.194-2.416,1.869-3.6,2.832-5.926,4.811l-2.514-2.514C260.034,302.188,262.011,300.631,266.084,297.672Z" fill="#fff"/>
            </g>
        </g>
        <g id="Group_952" data-name="Group 952">
            <path id="Path_3399" data-name="Path 3399" d="M557.923,637.184h-11.6V581.461H526.282v-10.2h51.636v10.2h-20Z" fill="#184b60"/>
            <path id="Path_3400" data-name="Path 3400" d="M598.265,638.063a24.03,24.03,0,0,1-12.02-2.989,22.191,22.191,0,0,1-8.349-8.152,23.981,23.981,0,0,1,0-23.422,22.191,22.191,0,0,1,8.349-8.152,25.528,25.528,0,0,1,23.973,0A21.913,21.913,0,0,1,618.5,603.5a24.28,24.28,0,0,1,0,23.422,21.913,21.913,0,0,1-8.283,8.152A23.819,23.819,0,0,1,598.265,638.063Zm-.088-9.713a11.7,11.7,0,0,0,6.284-1.713,12.2,12.2,0,0,0,4.372-4.7,14.089,14.089,0,0,0,1.6-6.768,13.865,13.865,0,0,0-1.6-6.7,12.236,12.236,0,0,0-4.372-4.68,12.33,12.33,0,0,0-12.546,0,12.17,12.17,0,0,0-4.394,4.68,13.842,13.842,0,0,0-1.6,6.7,14.066,14.066,0,0,0,1.6,6.768,12.13,12.13,0,0,0,4.394,4.7A11.725,11.725,0,0,0,598.177,628.35Z" fill="#184b60"/>
            <path id="Path_3401" data-name="Path 3401" d="M658.733,636.041a24.188,24.188,0,0,1-9.36,2.022,16.185,16.185,0,0,1-8.108-1.979,14,14,0,0,1-5.45-5.514,16.768,16.768,0,0,1-1.955-8.24V602.906h-7.69v-9.668h8.262V582.252h10.239v10.986H657.2v9.668H644.671v17.446a8.209,8.209,0,0,0,2.043,5.888,6.765,6.765,0,0,0,5.12,2.155,10.137,10.137,0,0,0,5.405-1.67Z" fill="#184b60"/>
            <path id="Path_3402" data-name="Path 3402" d="M703.909,637.184h-9.4l-.615-5.407a16.385,16.385,0,0,1-6.021,4.637,18.984,18.984,0,0,1-8,1.649,18.338,18.338,0,0,1-8.306-1.825,14.445,14.445,0,0,1-5.735-4.988,13.511,13.511,0,0,1,.176-14.7,15.321,15.321,0,0,1,6.2-5.076,20.905,20.905,0,0,1,8.986-1.846,27.793,27.793,0,0,1,6.174.7,26.7,26.7,0,0,1,5.736,1.979V610.9a8.116,8.116,0,0,0-1.582-5.009,10.339,10.339,0,0,0-4.263-3.274,14.953,14.953,0,0,0-6.021-1.166,18.749,18.749,0,0,0-6.064,1.033,19.752,19.752,0,0,0-5.669,3.055l-3.076-8.482a38.488,38.488,0,0,1,8.635-3.516,33.21,33.21,0,0,1,8.635-1.186,22.279,22.279,0,0,1,10.723,2.44,17.1,17.1,0,0,1,7.009,6.943,21.644,21.644,0,0,1,2.483,10.612Zm-21.8-7.823a11.946,11.946,0,0,0,5.3-1.187,10.649,10.649,0,0,0,4-3.317,8.562,8.562,0,0,0,1.649-4.9v-.484a16.126,16.126,0,0,0-4.659-2.307,17.41,17.41,0,0,0-5.229-.812,11.266,11.266,0,0,0-6.636,1.824,5.583,5.583,0,0,0-2.593,4.767,5.493,5.493,0,0,0,1.055,3.274,7.007,7.007,0,0,0,2.923,2.306A10.165,10.165,0,0,0,682.112,629.361Z" fill="#184b60"/>
            <path id="Path_3403" data-name="Path 3403" d="M726.277,637.184H714.72V569.508h11.557Z" fill="#184b60"/>
            <path id="Path_3404" data-name="Path 3404" d="M777.825,632.086a29.905,29.905,0,0,1-17.973,5.977,26.031,26.031,0,0,1-12.7-3.077,23.394,23.394,0,0,1-8.9-8.416,22.514,22.514,0,0,1-3.274-12.019,21.924,21.924,0,0,1,2.965-11.381,21.517,21.517,0,0,1,8.131-7.91,23.4,23.4,0,0,1,11.667-2.9,22.043,22.043,0,0,1,11.888,3.186,21.689,21.689,0,0,1,7.975,8.834,28.678,28.678,0,0,1,2.857,13.117V618.9H746.624a12.9,12.9,0,0,0,2.791,5.274,13.594,13.594,0,0,0,4.987,3.558,16.982,16.982,0,0,0,6.724,1.276,20.968,20.968,0,0,0,13.008-4.571Zm-31.64-19.512h24.257a12.556,12.556,0,0,0-2-5.758,11.553,11.553,0,0,0-4.261-3.843,12.337,12.337,0,0,0-5.868-1.385,12.153,12.153,0,0,0-5.888,1.406,11.57,11.57,0,0,0-4.219,3.889A13.172,13.172,0,0,0,746.185,612.574Z" fill="#184b60"/>
            <path id="Path_3405" data-name="Path 3405" d="M853.279,593.238,835.13,637.184H824.671l-18.106-43.946h11.6L829.944,626.2l11.822-32.959Z" fill="#184b60"/>
            <path id="Path_3406" data-name="Path 3406" d="M899.993,632.086a29.905,29.905,0,0,1-17.973,5.977,26.031,26.031,0,0,1-12.7-3.077,23.394,23.394,0,0,1-8.9-8.416,22.515,22.515,0,0,1-3.275-12.019,21.924,21.924,0,0,1,2.966-11.381,21.517,21.517,0,0,1,8.131-7.91,23.4,23.4,0,0,1,11.667-2.9,22.043,22.043,0,0,1,11.888,3.186,21.689,21.689,0,0,1,7.975,8.834A28.679,28.679,0,0,1,902.63,617.5V618.9H868.792a12.9,12.9,0,0,0,2.791,5.274,13.594,13.594,0,0,0,4.987,3.558,16.982,16.982,0,0,0,6.724,1.276,20.968,20.968,0,0,0,13.008-4.571Zm-31.64-19.512H892.61a12.556,12.556,0,0,0-2-5.758,11.552,11.552,0,0,0-4.261-3.843,12.34,12.34,0,0,0-5.868-1.385,12.153,12.153,0,0,0-5.888,1.406,11.57,11.57,0,0,0-4.219,3.889A13.171,13.171,0,0,0,868.353,612.574Z" fill="#184b60"/>
            <path id="Path_3407" data-name="Path 3407" d="M922.142,637.184H911.331V593.238h9.4l.4,8a16.745,16.745,0,0,1,6.174-6.548,17.066,17.066,0,0,1,8.943-2.329,21.513,21.513,0,0,1,2.7.176,22.018,22.018,0,0,1,2.746.528l-1.318,9.755a18.893,18.893,0,0,0-5.274-.791,12.671,12.671,0,0,0-6.789,1.8,12.285,12.285,0,0,0-4.548,4.988,16.08,16.08,0,0,0-1.626,7.405Z" fill="#184b60"/>
            <path id="Path_3408" data-name="Path 3408" d="M948.025,637.184V571.266h10.811v27.6q4.835-6.5,14.194-6.5,8.438,0,13.184,5.164t4.746,14.348v25.313H980.149V614.639q0-5.977-2.768-9.293a9.569,9.569,0,0,0-7.778-3.319,9.825,9.825,0,0,0-7.911,3.362q-2.856,3.363-2.856,9.25v22.545Z" fill="#184b60"/>
            <path id="Path_3409" data-name="Path 3409" d="M1022.205,638.063a24.029,24.029,0,0,1-12.019-2.989,22.187,22.187,0,0,1-8.35-8.152,23.981,23.981,0,0,1,0-23.422,22.187,22.187,0,0,1,8.35-8.152,25.526,25.526,0,0,1,23.972,0,21.9,21.9,0,0,1,8.283,8.152,24.28,24.28,0,0,1,0,23.422,21.9,21.9,0,0,1-8.283,8.152A23.816,23.816,0,0,1,1022.205,638.063Zm-.088-9.713a11.7,11.7,0,0,0,6.284-1.713,12.2,12.2,0,0,0,4.372-4.7,14.077,14.077,0,0,0,1.605-6.768,13.852,13.852,0,0,0-1.605-6.7,12.236,12.236,0,0,0-4.372-4.68,12.33,12.33,0,0,0-12.546,0,12.17,12.17,0,0,0-4.394,4.68,13.853,13.853,0,0,0-1.6,6.7,14.077,14.077,0,0,0,1.6,6.768,12.13,12.13,0,0,0,4.394,4.7A11.73,11.73,0,0,0,1022.117,628.35Z" fill="#184b60"/>
            <path id="Path_3410" data-name="Path 3410" d="M1096.209,637.184h-8.921l-.351-7.077a16.022,16.022,0,0,1-6.241,5.913,19.32,19.32,0,0,1-9.14,2.043q-8.483,0-13.382-5.208t-4.9-14.349V593.238h10.811v23.2q0,5.495,2.79,8.68a9.565,9.565,0,0,0,7.581,3.186,10.088,10.088,0,0,0,7.954-3.385,13.113,13.113,0,0,0,2.988-9.008V593.238h10.811Z" fill="#184b60"/>
            <path id="Path_3411" data-name="Path 3411" d="M1152.371,637.184h-9.536l-.571-6.153a20.152,20.152,0,0,1-6.944,5.164,21.114,21.114,0,0,1-8.877,1.868,20.774,20.774,0,0,1-11.074-2.989,21.177,21.177,0,0,1-7.669-8.152,25.974,25.974,0,0,1,0-23.422,21.177,21.177,0,0,1,7.669-8.152,20.764,20.764,0,0,1,11.074-2.989,21.435,21.435,0,0,1,8.394,1.625,20.143,20.143,0,0,1,6.724,4.571V571.266h10.81Zm-23.555-8.834a13.025,13.025,0,0,0,6.416-1.6,12.248,12.248,0,0,0,4.615-4.416,12.088,12.088,0,0,0,1.714-6.416v-1.539a11.9,11.9,0,0,0-1.714-6.35,12.329,12.329,0,0,0-4.615-4.394,13.046,13.046,0,0,0-6.416-1.6,12.495,12.495,0,0,0-11.162,6.438,13.424,13.424,0,0,0-1.67,6.7,13.639,13.639,0,0,0,1.67,6.768,12.373,12.373,0,0,0,4.571,4.7A12.711,12.711,0,0,0,1128.816,628.35Z" fill="#184b60"/>
            <path id="Path_3412" data-name="Path 3412" d="M1169.554,581.592a5.147,5.147,0,0,1-3.846-1.6,5.573,5.573,0,0,1,0-7.734,5.158,5.158,0,0,1,3.846-1.6,5.471,5.471,0,1,1,0,10.942Zm5.405,55.592h-10.811V593.238h10.811Z" fill="#184b60"/>
            <path id="Path_3413" data-name="Path 3413" d="M1229.715,637.184H1218.9v-23.2q0-5.493-2.812-8.679a9.631,9.631,0,0,0-7.6-3.186,10.069,10.069,0,0,0-7.91,3.362q-2.988,3.363-2.988,9.031v22.676H1186.78V593.238h8.921l.352,7.075a15.975,15.975,0,0,1,6.261-5.911,19.361,19.361,0,0,1,9.12-2.043q8.524,0,13.4,5.186t4.878,14.326Z" fill="#184b60"/>
            <path id="Path_3414" data-name="Path 3414" d="M1258.763,637.535a20.389,20.389,0,0,1-10.9-2.945,20.988,20.988,0,0,1-7.558-8.063,25.642,25.642,0,0,1,0-23.181,21.024,21.024,0,0,1,7.558-8.043,20.388,20.388,0,0,1,10.9-2.944,21.025,21.025,0,0,1,8.833,1.846,19.573,19.573,0,0,1,6.855,5.141l.528-6.108h9.492V636a25.1,25.1,0,0,1-3.1,12.7,21.241,21.241,0,0,1-8.723,8.371,28.153,28.153,0,0,1-13.315,2.967,29.62,29.62,0,0,1-19.116-6.812l4.438-8.832a19.024,19.024,0,0,0,13.975,5.931,16.4,16.4,0,0,0,7.932-1.822,13.007,13.007,0,0,0,5.229-5.143,15.546,15.546,0,0,0,1.868-7.755v-4.219a20.093,20.093,0,0,1-6.636,4.525A20.883,20.883,0,0,1,1258.763,637.535Zm2.373-9.625a12.87,12.87,0,0,0,6.306-1.558,12.122,12.122,0,0,0,4.526-4.286,11.5,11.5,0,0,0,1.692-6.2v-1.933a11.281,11.281,0,0,0-1.692-6.153,12.191,12.191,0,0,0-4.548-4.24,12.906,12.906,0,0,0-6.284-1.561,12.422,12.422,0,0,0-6.46,1.694,12.223,12.223,0,0,0-4.505,4.635,14.182,14.182,0,0,0,0,13.271,12.228,12.228,0,0,0,4.505,4.637A12.42,12.42,0,0,0,1261.136,627.91Z" fill="#184b60"/>
            <path id="Path_3415" data-name="Path 3415" d="M1335.579,632.086a29.906,29.906,0,0,1-17.974,5.977,26.03,26.03,0,0,1-12.7-3.077,23.388,23.388,0,0,1-8.9-8.416,22.515,22.515,0,0,1-3.275-12.019,21.924,21.924,0,0,1,2.966-11.381,21.517,21.517,0,0,1,8.131-7.91,23.4,23.4,0,0,1,11.667-2.9,22.043,22.043,0,0,1,11.888,3.186,21.69,21.69,0,0,1,7.975,8.834,28.678,28.678,0,0,1,2.857,13.117V618.9h-33.838a12.9,12.9,0,0,0,2.791,5.274,13.594,13.594,0,0,0,4.987,3.558,16.978,16.978,0,0,0,6.724,1.276,20.968,20.968,0,0,0,13.008-4.571Zm-31.641-19.512H1328.2a12.556,12.556,0,0,0-2-5.758,11.553,11.553,0,0,0-4.261-3.843,12.34,12.34,0,0,0-5.868-1.385,12.153,12.153,0,0,0-5.888,1.406,11.57,11.57,0,0,0-4.219,3.889A13.187,13.187,0,0,0,1303.938,612.574Z" fill="#184b60"/>
            <path id="Path_3416" data-name="Path 3416" d="M1389.852,637.184h-10.811v-23.2q0-5.493-2.812-8.679a9.632,9.632,0,0,0-7.6-3.186,10.069,10.069,0,0,0-7.91,3.362q-2.988,3.363-2.988,9.031v22.676h-10.811V593.238h8.921l.351,7.075a15.97,15.97,0,0,1,6.262-5.911,19.359,19.359,0,0,1,9.119-2.043q8.526,0,13.4,5.186t4.878,14.326Z" fill="#184b60"/>
        </g>
        <g id="Group_953" data-name="Group 953">
            <path id="Path_3417" data-name="Path 3417" d="M1476.328,1005.449a12.273,12.273,0,0,1-4.619-.849,10.854,10.854,0,0,1-6.088-6.028,12.5,12.5,0,0,1,0-9.111,10.82,10.82,0,0,1,2.417-3.626,11.015,11.015,0,0,1,3.671-2.388,12.97,12.97,0,0,1,9.231,0,11.034,11.034,0,0,1,3.664,2.388,10.835,10.835,0,0,1,2.417,3.626,12.5,12.5,0,0,1,0,9.111,10.87,10.87,0,0,1-6.081,6.028A12.221,12.221,0,0,1,1476.328,1005.449Zm0-2.285a8.967,8.967,0,0,0,3.537-.688,8.511,8.511,0,0,0,2.825-1.927,8.745,8.745,0,0,0,1.862-2.9,10.3,10.3,0,0,0,0-7.257,8.769,8.769,0,0,0-1.862-2.909,8.442,8.442,0,0,0-2.825-1.918,9.525,9.525,0,0,0-7.074,0,8.464,8.464,0,0,0-2.825,1.918,8.832,8.832,0,0,0-1.868,2.909,10.211,10.211,0,0,0,0,7.265,8.807,8.807,0,0,0,1.868,2.908,8.42,8.42,0,0,0,2.825,1.918A9.021,9.021,0,0,0,1476.328,1003.164Z"/>
            <path id="Path_3418" data-name="Path 3418" d="M1505.084,990.361l-6.243,14.649h-2.359l-6.228-14.649h2.625l4.8,12.129,4.82-12.129Z"/>
            <path id="Path_3419" data-name="Path 3419" d="M1521.056,1003.208a9.829,9.829,0,0,1-6.08,2.095,8.378,8.378,0,0,1-4.153-1.026,7.58,7.58,0,0,1-3.96-6.782,7.42,7.42,0,0,1,.979-3.815,7.122,7.122,0,0,1,2.684-2.645,7.715,7.715,0,0,1,3.871-.967,7.276,7.276,0,0,1,3.922,1.055,7.185,7.185,0,0,1,2.648,2.93,9.472,9.472,0,0,1,.949,4.336v.468H1509.5a4.952,4.952,0,0,0,1.075,2.242,5.488,5.488,0,0,0,2.01,1.479,6.6,6.6,0,0,0,2.684.527,7.358,7.358,0,0,0,4.657-1.655Zm-11.642-6.4h10.2a5.285,5.285,0,0,0-.852-2.381,4.826,4.826,0,0,0-1.78-1.589,5.207,5.207,0,0,0-2.455-.571,5.321,5.321,0,0,0-2.483.571,4.8,4.8,0,0,0-1.8,1.589A5.169,5.169,0,0,0,1509.414,996.807Z"/>
            <path id="Path_3420" data-name="Path 3420" d="M1527.759,1005.01h-2.432V990.361h2.136l.1,2.9a5.725,5.725,0,0,1,2.173-2.352,6.156,6.156,0,0,1,3.226-.842,7.822,7.822,0,0,1,.815.044q.415.045.831.132l-.3,2.168a7.086,7.086,0,0,0-1.617-.19,4.731,4.731,0,0,0-2.572.7,4.78,4.78,0,0,0-1.743,1.933,6.184,6.184,0,0,0-.623,2.828Z"/>
            <path id="Path_3421" data-name="Path 3421" d="M1538.407,985.732a1.407,1.407,0,0,1-1.046-.431,1.448,1.448,0,0,1-.423-1.048,1.448,1.448,0,0,1,1.469-1.45,1.457,1.457,0,0,1,1.068.425,1.387,1.387,0,0,1,.43,1.025,1.43,1.43,0,0,1-.43,1.048A1.447,1.447,0,0,1,1538.407,985.732Zm1.216,19.278h-2.432V990.361h2.432Z"/>
            <path id="Path_3422" data-name="Path 3422" d="M1550.6,1005.01a7.514,7.514,0,0,1-3.834-.982,7.2,7.2,0,0,1-2.677-2.673,7.94,7.94,0,0,1,0-7.639,7.216,7.216,0,0,1,2.677-2.666,7.552,7.552,0,0,1,3.848-.982,7.719,7.719,0,0,1,3.159.637,7.115,7.115,0,0,1,2.448,1.766l.118-2.11h2.15v14.268a8.768,8.768,0,0,1-.978,4.256,6.764,6.764,0,0,1-2.788,2.767,9.555,9.555,0,0,1-10.441-1.339l1.068-1.934a6.676,6.676,0,0,0,4.968,2.08,6.1,6.1,0,0,0,3.047-.725,5.012,5.012,0,0,0,1.988-2.044,6.535,6.535,0,0,0,.705-3.12v-1.8a7.353,7.353,0,0,1-2.41,1.64A7.651,7.651,0,0,1,1550.6,1005.01Zm.208-2.124a5.385,5.385,0,0,0,2.639-.652,5.1,5.1,0,0,0,1.9-1.787,4.744,4.744,0,0,0,.712-2.571V997.2a4.732,4.732,0,0,0-.712-2.578,5.131,5.131,0,0,0-1.9-1.78,5.4,5.4,0,0,0-2.639-.652,5.128,5.128,0,0,0-4.561,2.615,5.775,5.775,0,0,0,0,5.471,5.063,5.063,0,0,0,1.876,1.911A5.2,5.2,0,0,0,1550.806,1002.886Z"/>
            <path id="Path_3423" data-name="Path 3423" d="M1575.942,1003.208a9.825,9.825,0,0,1-6.08,2.095,8.375,8.375,0,0,1-4.152-1.026,7.58,7.58,0,0,1-3.96-6.782,7.421,7.421,0,0,1,.979-3.815,7.115,7.115,0,0,1,2.684-2.645,7.716,7.716,0,0,1,3.871-.967,7.279,7.279,0,0,1,3.922,1.055,7.185,7.185,0,0,1,2.648,2.93,9.485,9.485,0,0,1,.949,4.336v.468H1564.39a4.943,4.943,0,0,0,1.075,2.242,5.489,5.489,0,0,0,2.01,1.479,6.6,6.6,0,0,0,2.684.527,7.355,7.355,0,0,0,4.656-1.655Zm-11.641-6.4h10.2a5.287,5.287,0,0,0-.853-2.381,4.823,4.823,0,0,0-1.779-1.589,5.207,5.207,0,0,0-2.455-.571,5.322,5.322,0,0,0-2.483.571,4.787,4.787,0,0,0-1.795,1.589A5.156,5.156,0,0,0,1564.3,996.807Z"/>
            <path id="Path_3424" data-name="Path 3424" d="M1602.1,1005.01h-2.166l-.133-2.139a7.322,7.322,0,0,1-2.492,1.779,8.221,8.221,0,0,1-7.133-.343,7.312,7.312,0,0,1-2.737-2.725,8.1,8.1,0,0,1,0-7.8,7.342,7.342,0,0,1,2.737-2.717,7.746,7.746,0,0,1,3.929-1,7.957,7.957,0,0,1,3.108.6,7.208,7.208,0,0,1,2.454,1.67v-9.3h2.433Zm-7.787-1.875a5.422,5.422,0,0,0,2.7-.682,5.207,5.207,0,0,0,1.935-1.859,5.028,5.028,0,0,0,.719-2.674v-.5a5.031,5.031,0,0,0-.719-2.674,5.166,5.166,0,0,0-1.935-1.852,5.469,5.469,0,0,0-2.7-.674,5.325,5.325,0,0,0-2.758.717,5.243,5.243,0,0,0-1.92,1.949,5.859,5.859,0,0,0,0,5.573,5.225,5.225,0,0,0,1.92,1.956A5.316,5.316,0,0,0,1594.317,1003.135Z"/>
            <path id="Path_3425" data-name="Path 3425" d="M1609.133,1005.01H1606.7V990.361h2.136l.1,2.9a5.725,5.725,0,0,1,2.173-2.352,6.156,6.156,0,0,1,3.226-.842,7.822,7.822,0,0,1,.815.044q.415.045.831.132l-.3,2.168a7.086,7.086,0,0,0-1.617-.19,4.731,4.731,0,0,0-2.572.7,4.779,4.779,0,0,0-1.743,1.933,6.183,6.183,0,0,0-.623,2.828Z"/>
            <path id="Path_3426" data-name="Path 3426" d="M1630.029,1005.01h-2.091l-.163-1.934a5.641,5.641,0,0,1-2.076,1.633,6.533,6.533,0,0,1-2.818.594,6.377,6.377,0,0,1-2.862-.623,4.948,4.948,0,0,1-1.98-1.706,4.577,4.577,0,0,1,.06-5.017,5.257,5.257,0,0,1,2.12-1.736,7.093,7.093,0,0,1,3.048-.63,10.013,10.013,0,0,1,2.269.27,8.924,8.924,0,0,1,2.062.741v-.616a3.35,3.35,0,0,0-.594-2,3.867,3.867,0,0,0-1.587-1.273,5.286,5.286,0,0,0-2.194-.447,6.5,6.5,0,0,0-2.121.373,7.187,7.187,0,0,0-2.077,1.15l-.8-2.065a10.575,10.575,0,0,1,2.713-1.238,9.96,9.96,0,0,1,2.818-.418,6.811,6.811,0,0,1,3.33.77,5.378,5.378,0,0,1,2.173,2.182,6.9,6.9,0,0,1,.77,3.347Zm-6.717-1.905a4.66,4.66,0,0,0,2.09-.468,3.9,3.9,0,0,0,1.542-1.356,4.054,4.054,0,0,0,.654-2.1v-.249a6.277,6.277,0,0,0-1.832-.974,6.426,6.426,0,0,0-2.069-.345,4.609,4.609,0,0,0-2.751.791,2.383,2.383,0,0,0-1.105,2.007,2.265,2.265,0,0,0,.452,1.377,3.043,3.043,0,0,0,1.238.967A4.326,4.326,0,0,0,1623.312,1003.1Z"/>
            <path id="Path_3427" data-name="Path 3427" d="M1648.211,1005.01h-2.432v-8.174a4.585,4.585,0,0,0-1.2-3.325,4.228,4.228,0,0,0-3.188-1.245,4.424,4.424,0,0,0-3.345,1.339,4.884,4.884,0,0,0-1.283,3.524v7.881h-2.432V990.361h2.121l.089,2.373a5.472,5.472,0,0,1,2.15-1.977,6.773,6.773,0,0,1,3.144-.689,6.211,6.211,0,0,1,4.664,1.758,6.607,6.607,0,0,1,1.713,4.82Z"/>
            <path id="Path_3428" data-name="Path 3428" d="M1654.943,1005.01h-2.431V983.037h2.431v15.469l1.158-1.392,6.451-6.753h3.054l-6.05,6.358,6.985,8.291h-3.159l-5.517-6.533-2.922,3.076Z"/>
            <path id="Path_3429" data-name="Path 3429" d="M1683.15,990.361l-6.243,14.649h-2.358l-6.229-14.649h2.625l4.805,12.129,4.82-12.129Z"/>
            <path id="Path_3430" data-name="Path 3430" d="M1699.122,1003.208a9.827,9.827,0,0,1-6.08,2.095,8.372,8.372,0,0,1-4.152-1.026,7.575,7.575,0,0,1-3.96-6.782,7.43,7.43,0,0,1,.978-3.815,7.126,7.126,0,0,1,2.685-2.645,7.713,7.713,0,0,1,3.871-.967,7.281,7.281,0,0,1,3.922,1.055,7.181,7.181,0,0,1,2.647,2.93,9.471,9.471,0,0,1,.949,4.336v.468h-12.413a4.943,4.943,0,0,0,1.076,2.242,5.492,5.492,0,0,0,2.009,1.479,6.6,6.6,0,0,0,2.685.527,7.356,7.356,0,0,0,4.656-1.655Zm-11.642-6.4h10.2a5.3,5.3,0,0,0-.853-2.381,4.833,4.833,0,0,0-1.779-1.589,5.21,5.21,0,0,0-2.455-.571,5.328,5.328,0,0,0-2.484.571,4.794,4.794,0,0,0-1.8,1.589A5.169,5.169,0,0,0,1687.48,996.807Z"/>
            <path id="Path_3431" data-name="Path 3431" d="M1705.825,1005.01h-2.431V990.361h2.135l.1,2.9a5.711,5.711,0,0,1,2.173-2.352,6.15,6.15,0,0,1,3.225-.842,7.842,7.842,0,0,1,.816.044q.414.045.831.132l-.3,2.168a7.092,7.092,0,0,0-1.617-.19,4.684,4.684,0,0,0-4.316,2.636,6.183,6.183,0,0,0-.623,2.828Z"/>
            <path id="Path_3432" data-name="Path 3432" d="M1717.63,1012.334H1715.2V990.361h2.165l.119,2.139a7.487,7.487,0,0,1,2.506-1.779,7.837,7.837,0,0,1,3.218-.653,7.678,7.678,0,0,1,3.908,1,7.365,7.365,0,0,1,2.729,2.717,8.1,8.1,0,0,1,0,7.8,7.335,7.335,0,0,1-2.729,2.725,7.678,7.678,0,0,1-3.908,1,7.933,7.933,0,0,1-3.106-.6,7.374,7.374,0,0,1-2.47-1.67Zm5.384-9.229a5.4,5.4,0,0,0,2.758-.7,4.91,4.91,0,0,0,1.876-1.927,5.747,5.747,0,0,0,.675-2.812,5.684,5.684,0,0,0-.682-2.819,5.047,5.047,0,0,0-1.876-1.927,5.289,5.289,0,0,0-2.737-.7,5.436,5.436,0,0,0-2.647.644,5.234,5.234,0,0,0-1.905,1.765,5.439,5.439,0,0,0-.846,2.557v1a5.482,5.482,0,0,0,.831,2.548,5,5,0,0,0,1.891,1.744A5.557,5.557,0,0,0,1723.014,1003.1Z"/>
            <path id="Path_3433" data-name="Path 3433" d="M1746.223,1005.01h-2.091l-.163-1.934a5.647,5.647,0,0,1-2.076,1.633,6.537,6.537,0,0,1-2.819.594,6.383,6.383,0,0,1-2.862-.623,4.947,4.947,0,0,1-1.98-1.706,4.582,4.582,0,0,1,.06-5.017,5.271,5.271,0,0,1,2.12-1.736,7.1,7.1,0,0,1,3.048-.63,10.013,10.013,0,0,1,2.269.27,8.908,8.908,0,0,1,2.062.741v-.616a3.343,3.343,0,0,0-.594-2,3.861,3.861,0,0,0-1.587-1.273,5.282,5.282,0,0,0-2.194-.447,6.507,6.507,0,0,0-2.121.373,7.169,7.169,0,0,0-2.076,1.15l-.8-2.065a10.581,10.581,0,0,1,2.714-1.238,9.954,9.954,0,0,1,2.817-.418,6.808,6.808,0,0,1,3.33.77,5.372,5.372,0,0,1,2.173,2.182,6.891,6.891,0,0,1,.771,3.347Zm-6.718-1.905a4.665,4.665,0,0,0,2.091-.468,3.909,3.909,0,0,0,1.542-1.356,4.062,4.062,0,0,0,.653-2.1v-.249a6.265,6.265,0,0,0-1.832-.974,6.419,6.419,0,0,0-2.068-.345,4.6,4.6,0,0,0-2.751.791,2.381,2.381,0,0,0-1.106,2.007,2.272,2.272,0,0,0,.452,1.377,3.04,3.04,0,0,0,1.239.967A4.321,4.321,0,0,0,1739.505,1003.1Z"/>
            <path id="Path_3434" data-name="Path 3434" d="M1752.955,1005.01h-2.432V983.037h2.432v15.469l1.157-1.392,6.451-6.753h3.055l-6.051,6.358,6.986,8.291h-3.159l-5.517-6.533-2.922,3.076Z"/>
            <path id="Path_3435" data-name="Path 3435" d="M1769.95,1005.01h-2.431V983.037h2.431v15.469l1.157-1.392,6.452-6.753h3.054l-6.05,6.358,6.985,8.291h-3.159l-5.517-6.533-2.922,3.076Z"/>
            <path id="Path_3436" data-name="Path 3436" d="M1785.79,985.732a1.405,1.405,0,0,1-1.046-.431,1.448,1.448,0,0,1-.423-1.048,1.448,1.448,0,0,1,1.469-1.45,1.453,1.453,0,0,1,1.067.425,1.384,1.384,0,0,1,.431,1.025,1.427,1.427,0,0,1-.431,1.048A1.443,1.443,0,0,1,1785.79,985.732Zm1.216,19.278h-2.432V990.361h2.432Z"/>
            <path id="Path_3437" data-name="Path 3437" d="M1805.559,1005.01h-2.432v-8.174a4.585,4.585,0,0,0-1.2-3.325,4.228,4.228,0,0,0-3.189-1.245,4.423,4.423,0,0,0-3.344,1.339,4.886,4.886,0,0,0-1.284,3.524v7.881h-2.431V990.361h2.121l.089,2.373a5.465,5.465,0,0,1,2.15-1.977,6.773,6.773,0,0,1,3.144-.689,6.212,6.212,0,0,1,4.664,1.758,6.611,6.611,0,0,1,1.713,4.82Z"/>
            <path id="Path_3438" data-name="Path 3438" d="M1816.162,1005.01a7.517,7.517,0,0,1-3.834-.982,7.213,7.213,0,0,1-2.677-2.673,7.947,7.947,0,0,1,0-7.639,7.224,7.224,0,0,1,2.677-2.666,7.557,7.557,0,0,1,3.849-.982,7.726,7.726,0,0,1,3.159.637,7.11,7.11,0,0,1,2.447,1.766l.118-2.11h2.151v14.268a8.757,8.757,0,0,1-.979,4.256,6.758,6.758,0,0,1-2.788,2.767,9.554,9.554,0,0,1-10.44-1.339l1.067-1.934a6.68,6.68,0,0,0,4.969,2.08,6.1,6.1,0,0,0,3.047-.725,5.017,5.017,0,0,0,1.987-2.044,6.524,6.524,0,0,0,.7-3.12v-1.8a7.341,7.341,0,0,1-2.41,1.64A7.647,7.647,0,0,1,1816.162,1005.01Zm.208-2.124a5.386,5.386,0,0,0,2.64-.652,5.091,5.091,0,0,0,1.9-1.787,4.735,4.735,0,0,0,.712-2.571V997.2a4.722,4.722,0,0,0-.712-2.578,5.121,5.121,0,0,0-1.9-1.78,5.4,5.4,0,0,0-2.64-.652,5.128,5.128,0,0,0-4.56,2.615,5.767,5.767,0,0,0,0,5.471,5.063,5.063,0,0,0,1.876,1.911A5.194,5.194,0,0,0,1816.37,1002.886Z"/>
            <path id="Path_3439" data-name="Path 3439" d="M1841.507,1003.208a9.827,9.827,0,0,1-6.08,2.095,8.378,8.378,0,0,1-4.153-1.026,7.58,7.58,0,0,1-3.96-6.782,7.431,7.431,0,0,1,.979-3.815,7.118,7.118,0,0,1,2.685-2.645,7.71,7.71,0,0,1,3.871-.967,7.281,7.281,0,0,1,3.922,1.055,7.189,7.189,0,0,1,2.647,2.93,9.471,9.471,0,0,1,.949,4.336v.468h-12.413a4.952,4.952,0,0,0,1.075,2.242,5.488,5.488,0,0,0,2.01,1.479,6.6,6.6,0,0,0,2.685.527,7.356,7.356,0,0,0,4.656-1.655Zm-11.642-6.4h10.2a5.285,5.285,0,0,0-.852-2.381,4.832,4.832,0,0,0-1.779-1.589,5.211,5.211,0,0,0-2.456-.571,5.324,5.324,0,0,0-2.483.571,4.794,4.794,0,0,0-1.8,1.589A5.169,5.169,0,0,0,1829.865,996.807Z"/>
            <path id="Path_3440" data-name="Path 3440" d="M1859.659,1005.01h-2.431v-8.174a4.585,4.585,0,0,0-1.2-3.325,4.226,4.226,0,0,0-3.188-1.245,4.426,4.426,0,0,0-3.345,1.339,4.889,4.889,0,0,0-1.283,3.524v7.881h-2.432V990.361h2.121l.089,2.373a5.467,5.467,0,0,1,2.151-1.977,6.765,6.765,0,0,1,3.143-.689,6.209,6.209,0,0,1,4.664,1.758,6.607,6.607,0,0,1,1.713,4.82Z"/>
        </g>
        <g id="Group_954" data-name="Group 954">
            <path id="Path_3441" data-name="Path 3441" d="M1465.8,963.01V941.037h6.851a11.842,11.842,0,0,1,4.679.835,6.61,6.61,0,0,1,2.988,2.388,7.187,7.187,0,0,1,0,7.441,6.612,6.612,0,0,1-2.988,2.41,11.75,11.75,0,0,1-4.679.842h-4.241v8.057Zm2.61-10.342h4.019a7.5,7.5,0,0,0,4.627-1.245,4.09,4.09,0,0,0,1.632-3.443,4.049,4.049,0,0,0-1.632-3.427,7.555,7.555,0,0,0-4.627-1.231h-4.019Z"/>
            <path id="Path_3442" data-name="Path 3442" d="M1487.495,963.01h-2.58V940.451h2.58Z"/>
            <path id="Path_3443" data-name="Path 3443" d="M1504.061,963.01h-2.091l-.163-1.934a5.644,5.644,0,0,1-2.077,1.633,6.53,6.53,0,0,1-2.818.594,6.383,6.383,0,0,1-2.862-.623,4.948,4.948,0,0,1-1.98-1.706,4.583,4.583,0,0,1,.06-5.017,5.257,5.257,0,0,1,2.12-1.736,7.1,7.1,0,0,1,3.048-.63,10.013,10.013,0,0,1,2.269.27,8.924,8.924,0,0,1,2.062.741v-.616a3.343,3.343,0,0,0-.594-2,3.861,3.861,0,0,0-1.587-1.273,5.282,5.282,0,0,0-2.194-.447,6.5,6.5,0,0,0-2.121.373,7.169,7.169,0,0,0-2.076,1.15l-.8-2.065a10.581,10.581,0,0,1,2.714-1.238,9.948,9.948,0,0,1,2.817-.418,6.807,6.807,0,0,1,3.33.77,5.378,5.378,0,0,1,2.173,2.182,6.891,6.891,0,0,1,.771,3.347Zm-6.718-1.905a4.665,4.665,0,0,0,2.091-.468,3.915,3.915,0,0,0,1.542-1.356,4.062,4.062,0,0,0,.653-2.1v-.249a6.265,6.265,0,0,0-1.832-.974,6.419,6.419,0,0,0-2.068-.345,4.6,4.6,0,0,0-2.751.791,2.381,2.381,0,0,0-1.106,2.007,2.265,2.265,0,0,0,.452,1.377,3.039,3.039,0,0,0,1.239.967A4.321,4.321,0,0,0,1497.343,961.1Z"/>
            <path id="Path_3444" data-name="Path 3444" d="M1507.323,961.735l.638-2.256a5.712,5.712,0,0,0,1.216.865,6.581,6.581,0,0,0,1.438.564,6.062,6.062,0,0,0,1.528.2,3.759,3.759,0,0,0,2.224-.6,1.842,1.842,0,0,0,.846-1.567,1.628,1.628,0,0,0-.438-1.165,3.785,3.785,0,0,0-1.149-.8q-.712-.337-1.527-.645-.994-.381-1.973-.864a4.816,4.816,0,0,1-1.624-1.275,3.187,3.187,0,0,1-.645-2.08,3.687,3.687,0,0,1,.622-2.138,4.056,4.056,0,0,1,1.744-1.407,6.27,6.27,0,0,1,2.573-.5,9.394,9.394,0,0,1,4.315,1.084l-.726,2.168a6.043,6.043,0,0,0-1.1-.549,7.723,7.723,0,0,0-1.275-.374,6.307,6.307,0,0,0-1.232-.131,2.9,2.9,0,0,0-1.75.49,1.551,1.551,0,0,0-.667,1.311,1.449,1.449,0,0,0,.275.857,2.9,2.9,0,0,0,.926.769,14.774,14.774,0,0,0,1.81.85,22.018,22.018,0,0,1,2.017.93,5.2,5.2,0,0,1,1.653,1.334,3.249,3.249,0,0,1,.66,2.116,3.884,3.884,0,0,1-.689,2.278,4.6,4.6,0,0,1-1.913,1.545,6.764,6.764,0,0,1-2.826.557A8.624,8.624,0,0,1,1507.323,961.735Z"/>
            <path id="Path_3445" data-name="Path 3445" d="M1529.717,962.658a7.1,7.1,0,0,1-2.863.645,4.639,4.639,0,0,1-2.342-.578,4.035,4.035,0,0,1-1.573-1.627,5.066,5.066,0,0,1-.563-2.439v-8.144h-2.6v-2.154h2.714V944.7h2.314v3.662h4.434v2.154h-4.434v7.7a3.072,3.072,0,0,0,.719,2.124,2.414,2.414,0,0,0,1.891.8,3.721,3.721,0,0,0,1.9-.556Z"/>
            <path id="Path_3446" data-name="Path 3446" d="M1533.811,943.732a1.405,1.405,0,0,1-1.046-.431,1.444,1.444,0,0,1-.423-1.048,1.4,1.4,0,0,1,.423-1.025,1.415,1.415,0,0,1,1.046-.425,1.455,1.455,0,0,1,1.067.425,1.388,1.388,0,0,1,.431,1.025,1.472,1.472,0,0,1-1.5,1.479Zm1.215,19.278h-2.431V948.361h2.431Z"/>
            <path id="Path_3447" data-name="Path 3447" d="M1552.022,960.9a7.358,7.358,0,0,1-2.566,1.78,8.15,8.15,0,0,1-3.188.623,7.9,7.9,0,0,1-3.967-1,7.389,7.389,0,0,1-2.774-2.725,8,8,0,0,1,0-7.8,7.42,7.42,0,0,1,2.774-2.717,7.9,7.9,0,0,1,3.967-1,8.175,8.175,0,0,1,3.173.616,7.311,7.311,0,0,1,2.567,1.772l-1.454,1.509a5.321,5.321,0,0,0-1.876-1.26,6.107,6.107,0,0,0-2.306-.439,5.459,5.459,0,0,0-2.767.7,5.041,5.041,0,0,0-1.9,1.912,5.571,5.571,0,0,0-.69,2.8,5.648,5.648,0,0,0,.69,2.812,5,5,0,0,0,1.9,1.927,5.449,5.449,0,0,0,2.767.7,6.063,6.063,0,0,0,2.314-.447,5.323,5.323,0,0,0,1.868-1.252Z"/>
            <path id="Path_3448" data-name="Path 3448" d="M1566.393,963.01h-2.432V950.515h-2.6v-2.154h2.6v-3.149a4.8,4.8,0,0,1,.586-2.4,4.173,4.173,0,0,1,1.631-1.626,4.841,4.841,0,0,1,2.41-.586,6.636,6.636,0,0,1,1.7.226,6.971,6.971,0,0,1,1.668.7l-.933,1.889a4.454,4.454,0,0,0-1.024-.49,3.359,3.359,0,0,0-1.038-.169,2.346,2.346,0,0,0-1.855.813,3.1,3.1,0,0,0-.711,2.117v2.68h4.583v2.154h-4.583Z"/>
            <path id="Path_3449" data-name="Path 3449" d="M1577.648,963.01h-2.58V940.451h2.58Z"/>
            <path id="Path_3450" data-name="Path 3450" d="M1595.252,961.208a9.827,9.827,0,0,1-6.08,2.095,8.372,8.372,0,0,1-4.152-1.026,7.575,7.575,0,0,1-3.96-6.782,7.43,7.43,0,0,1,.978-3.815,7.118,7.118,0,0,1,2.685-2.645,7.71,7.71,0,0,1,3.871-.967,7.281,7.281,0,0,1,3.922,1.055,7.189,7.189,0,0,1,2.647,2.93,9.471,9.471,0,0,1,.949,4.336v.468H1583.7a4.952,4.952,0,0,0,1.075,2.242,5.488,5.488,0,0,0,2.01,1.479,6.6,6.6,0,0,0,2.685.527,7.356,7.356,0,0,0,4.656-1.655Zm-11.642-6.4h10.2a5.286,5.286,0,0,0-.852-2.381,4.833,4.833,0,0,0-1.779-1.589,5.21,5.21,0,0,0-2.455-.571,5.325,5.325,0,0,0-2.484.571,4.794,4.794,0,0,0-1.8,1.589A5.169,5.169,0,0,0,1583.61,954.807Z"/>
            <path id="Path_3451" data-name="Path 3451" d="M1598.485,961.735l.638-2.256a5.737,5.737,0,0,0,1.216.865,6.581,6.581,0,0,0,1.438.564,6.062,6.062,0,0,0,1.528.2,3.76,3.76,0,0,0,2.224-.6,1.842,1.842,0,0,0,.846-1.567,1.627,1.627,0,0,0-.437-1.165,3.79,3.79,0,0,0-1.15-.8q-.712-.337-1.527-.645-.994-.381-1.973-.864a4.816,4.816,0,0,1-1.624-1.275,3.186,3.186,0,0,1-.644-2.08,3.687,3.687,0,0,1,.622-2.138,4.048,4.048,0,0,1,1.743-1.407,6.27,6.27,0,0,1,2.573-.5,9.394,9.394,0,0,1,4.315,1.084l-.726,2.168a6.043,6.043,0,0,0-1.1-.549,7.72,7.72,0,0,0-1.275-.374,6.307,6.307,0,0,0-1.232-.131,2.9,2.9,0,0,0-1.75.49,1.551,1.551,0,0,0-.667,1.311,1.448,1.448,0,0,0,.275.857,2.889,2.889,0,0,0,.927.769,14.668,14.668,0,0,0,1.809.85,22.018,22.018,0,0,1,2.017.93,5.2,5.2,0,0,1,1.653,1.334,3.249,3.249,0,0,1,.66,2.116,3.884,3.884,0,0,1-.689,2.278,4.6,4.6,0,0,1-1.913,1.545,6.764,6.764,0,0,1-2.826.557A8.626,8.626,0,0,1,1598.485,961.735Z"/>
            <path id="Path_3452" data-name="Path 3452" d="M1608.451,970.437v-1.919a4.09,4.09,0,0,0,.452.058q.216.015.423.015a3.152,3.152,0,0,0,2.491-1.084,4.268,4.268,0,0,0,.95-2.915V948.361h2.447V964.68a6.569,6.569,0,0,1-1.327,4.394,4.625,4.625,0,0,1-3.715,1.553,7.274,7.274,0,0,1-.831-.051Q1608.912,970.524,1608.451,970.437Zm5.531-26.705a1.465,1.465,0,1,1,0-2.929,1.44,1.44,0,0,1,1.054.425,1.473,1.473,0,0,1,0,2.08A1.443,1.443,0,0,1,1613.982,943.732Z"/>
            <path id="Path_3453" data-name="Path 3453" d="M1632.8,961.208a9.827,9.827,0,0,1-6.08,2.095,8.379,8.379,0,0,1-4.153-1.026,7.58,7.58,0,0,1-3.96-6.782,7.431,7.431,0,0,1,.979-3.815,7.122,7.122,0,0,1,2.684-2.645,7.717,7.717,0,0,1,3.872-.967,7.276,7.276,0,0,1,3.921,1.055,7.184,7.184,0,0,1,2.648,2.93,9.471,9.471,0,0,1,.949,4.336v.468H1621.25a4.953,4.953,0,0,0,1.075,2.242,5.49,5.49,0,0,0,2.01,1.479,6.6,6.6,0,0,0,2.685.527,7.358,7.358,0,0,0,4.656-1.655Zm-11.642-6.4h10.2a5.285,5.285,0,0,0-.852-2.381,4.827,4.827,0,0,0-1.78-1.589,5.2,5.2,0,0,0-2.455-.571,5.322,5.322,0,0,0-2.483.571,4.8,4.8,0,0,0-1.795,1.589A5.167,5.167,0,0,0,1621.161,954.807Z"/>
            <path id="Path_3454" data-name="Path 3454" d="M1636.036,961.735l.638-2.256a5.716,5.716,0,0,0,1.216.865,6.581,6.581,0,0,0,1.438.564,6.06,6.06,0,0,0,1.527.2,3.762,3.762,0,0,0,2.225-.6,1.842,1.842,0,0,0,.846-1.567,1.628,1.628,0,0,0-.438-1.165,3.8,3.8,0,0,0-1.149-.8q-.712-.337-1.527-.645-1-.381-1.973-.864a4.816,4.816,0,0,1-1.624-1.275,3.187,3.187,0,0,1-.645-2.08,3.687,3.687,0,0,1,.622-2.138,4.045,4.045,0,0,1,1.744-1.407,6.27,6.27,0,0,1,2.573-.5,9.394,9.394,0,0,1,4.315,1.084l-.726,2.168a6.043,6.043,0,0,0-1.1-.549,7.723,7.723,0,0,0-1.275-.374,6.308,6.308,0,0,0-1.232-.131,2.891,2.891,0,0,0-1.75.49,1.551,1.551,0,0,0-.667,1.311,1.449,1.449,0,0,0,.275.857,2.9,2.9,0,0,0,.926.769,14.7,14.7,0,0,0,1.81.85,22.139,22.139,0,0,1,2.017.93,5.2,5.2,0,0,1,1.653,1.334,3.249,3.249,0,0,1,.66,2.116,3.884,3.884,0,0,1-.689,2.278,4.593,4.593,0,0,1-1.914,1.545,6.755,6.755,0,0,1-2.825.557A8.624,8.624,0,0,1,1636.036,961.735Z"/>
        </g>
        <g id="Group_955" data-name="Group 955">
            <path id="Path_3455" data-name="Path 3455" d="M1465.8,918.884V896.911h7.889a7.854,7.854,0,0,1,5.013,1.45,4.813,4.813,0,0,1,1.824,3.985,5.475,5.475,0,0,1-.9,3.141,5.134,5.134,0,0,1-2.418,1.942,5.774,5.774,0,0,1,3.2,1.912,5.269,5.269,0,0,1,1.164,3.464,5.606,5.606,0,0,1-.912,3.186,6.05,6.05,0,0,1-2.543,2.131,8.92,8.92,0,0,1-3.811.762Zm2.61-12.276h5.22a4.609,4.609,0,0,0,3.137-1.025,3.415,3.415,0,0,0,1.178-2.71,3.3,3.3,0,0,0-1.2-2.688,5,5,0,0,0-3.277-.989h-5.057Zm0,9.991h5.324a6.524,6.524,0,0,0,2.7-.52,4.3,4.3,0,0,0,1.809-1.451,3.633,3.633,0,0,0,.653-2.146,3.51,3.51,0,0,0-.616-2.065,3.932,3.932,0,0,0-1.735-1.355,6.7,6.7,0,0,0-2.632-.476h-5.5Z"/>
            <path id="Path_3456" data-name="Path 3456" d="M1487.7,918.884h-2.58V896.325h2.58Z"/>
            <path id="Path_3457" data-name="Path 3457" d="M1493.576,899.606a1.407,1.407,0,0,1-1.046-.431,1.448,1.448,0,0,1-.423-1.048,1.448,1.448,0,0,1,1.469-1.45,1.457,1.457,0,0,1,1.068.425,1.387,1.387,0,0,1,.43,1.025,1.43,1.43,0,0,1-.43,1.048A1.447,1.447,0,0,1,1493.576,899.606Zm1.216,19.278h-2.432V904.235h2.432Z"/>
            <path id="Path_3458" data-name="Path 3458" d="M1501.9,918.884h-2.432V896.911h2.432V912.38l1.157-1.392,6.451-6.753h3.055l-6.051,6.358,6.985,8.291h-3.159l-5.517-6.533-2.921,3.076Z"/>
            <path id="Path_3459" data-name="Path 3459" d="M1512.484,926.311v-1.919a4.1,4.1,0,0,0,.453.058c.143.01.284.015.422.015a3.151,3.151,0,0,0,2.492-1.084,4.272,4.272,0,0,0,.949-2.915V904.235h2.447v16.319a6.564,6.564,0,0,1-1.327,4.394,4.625,4.625,0,0,1-3.715,1.553,7.3,7.3,0,0,1-.831-.051Q1512.945,926.4,1512.484,926.311Zm5.532-26.7a1.465,1.465,0,1,1,0-2.929,1.437,1.437,0,0,1,1.053.425,1.473,1.473,0,0,1,0,2.08A1.44,1.44,0,0,1,1518.016,899.606Z"/>
            <path id="Path_3460" data-name="Path 3460" d="M1536.836,917.082a9.821,9.821,0,0,1-6.08,2.1,8.372,8.372,0,0,1-4.152-1.026,7.575,7.575,0,0,1-3.96-6.782,7.43,7.43,0,0,1,.978-3.815,7.119,7.119,0,0,1,2.685-2.645,7.71,7.71,0,0,1,3.871-.967A7.281,7.281,0,0,1,1534.1,905a7.188,7.188,0,0,1,2.647,2.93,9.471,9.471,0,0,1,.949,4.336v.468h-12.413a4.953,4.953,0,0,0,1.075,2.242,5.488,5.488,0,0,0,2.01,1.479,6.6,6.6,0,0,0,2.685.527,7.356,7.356,0,0,0,4.656-1.655Zm-11.642-6.4h10.2a5.286,5.286,0,0,0-.852-2.381,4.833,4.833,0,0,0-1.779-1.589,5.21,5.21,0,0,0-2.455-.571,5.325,5.325,0,0,0-2.484.571,4.794,4.794,0,0,0-1.8,1.589A5.169,5.169,0,0,0,1525.194,910.681Z"/>
            <path id="Path_3461" data-name="Path 3461" d="M1540.069,917.609l.638-2.255a5.771,5.771,0,0,0,1.216.864,6.588,6.588,0,0,0,1.438.564,6.059,6.059,0,0,0,1.528.2,3.76,3.76,0,0,0,2.224-.6,1.841,1.841,0,0,0,.846-1.567,1.624,1.624,0,0,0-.438-1.165,3.783,3.783,0,0,0-1.149-.8q-.712-.337-1.527-.645-.994-.381-1.973-.864a4.814,4.814,0,0,1-1.624-1.275,3.186,3.186,0,0,1-.644-2.08,3.688,3.688,0,0,1,.622-2.138,4.048,4.048,0,0,1,1.743-1.407,6.269,6.269,0,0,1,2.573-.5,9.4,9.4,0,0,1,4.315,1.084l-.726,2.168a5.984,5.984,0,0,0-1.1-.548,7.626,7.626,0,0,0-1.275-.375,6.309,6.309,0,0,0-1.232-.131,2.9,2.9,0,0,0-1.75.49,1.551,1.551,0,0,0-.667,1.311,1.449,1.449,0,0,0,.275.857,2.89,2.89,0,0,0,.927.769,14.669,14.669,0,0,0,1.809.85,22.034,22.034,0,0,1,2.017.93,5.2,5.2,0,0,1,1.653,1.334,3.249,3.249,0,0,1,.66,2.116,3.884,3.884,0,0,1-.689,2.278,4.6,4.6,0,0,1-1.913,1.545,6.764,6.764,0,0,1-2.826.557A8.627,8.627,0,0,1,1540.069,917.609Z"/>
        </g>
    </g>
</svg>
