<svg xmlns="http://www.w3.org/2000/svg" width="1278.732" height="327.04" preserveAspectRatio="xMinYMin" viewBox="0 0 1278.732 327.04">
    <rect id="Rectangle_1041" width="265.048" height="48.013" transform="translate(337.684 38.58)" fill="#ff8d00" stroke="#fff" stroke-miterlimit="10" stroke-width="2"/>
    <rect id="Rectangle_1042" data-name="Rectangle 1042" width="940.048" height="48.013" transform="translate(337.684 86.592)" fill="#ff8d00" stroke="#fff" stroke-miterlimit="10" stroke-width="2"/>
    <rect id="Rectangle_1043" data-name="Rectangle 1043" width="351.048" height="48.013" transform="translate(337.684 134.605)" fill="#ff8d00" stroke="#fff" stroke-miterlimit="10" stroke-width="2"/>
    <rect id="Rectangle_1044" data-name="Rectangle 1044" width="418.048" height="48.013" transform="translate(337.684 182.618)" fill="#ff8d00" stroke="#fff" stroke-miterlimit="10" stroke-width="2"/>
    <rect id="Rectangle_1045" data-name="Rectangle 1045" width="584.048" height="48.013" transform="translate(337.684 230.631)" fill="#ff8d00" stroke="#fff" stroke-miterlimit="10" stroke-width="2"/>
    <path id="Path_918" data-name="Path 918" d="M773.113,520.437c.168,0,.325,0,.492.01V473.27c-.167-.01-.324-.01-.492-.01A95.813,95.813,0,0,0,677.3,568.6h47.412A48.4,48.4,0,0,1,773.113,520.437Z" transform="translate(-442.268 -242.352)" fill="#ccc"/>
    <path id="Path_919" data-name="Path 919" d="M773.113,473.26c.168,0,.325,0,.492.01V425.1h-.492A143.99,143.99,0,0,0,629.126,568.6H677.3A95.813,95.813,0,0,1,773.113,473.26Z" transform="translate(-442.268 -242.352)" fill="#ccc"/>
    <path id="Path_920" data-name="Path 920" d="M773.113,425.1h.492V377.432h-.492A192.02,192.02,0,0,0,612.929,463.4c-.56.855-1.121,1.71-1.671,2.566s-1.091,1.72-1.631,2.594-1.072,1.74-1.593,2.614c-.54.9-1.071,1.819-1.592,2.733s-1.052,1.848-1.563,2.771a191.089,191.089,0,0,0-23.9,91.916h48.15A143.99,143.99,0,0,1,773.113,425.1Z" transform="translate(-442.268 -242.352)" fill="#ccc"/>
    <path id="Path_921" data-name="Path 921" d="M773.113,376.45h.492V329.273h-.492c-132.173,0-239.323,107.15-239.323,239.323h47.177C580.967,462.479,666.995,376.45,773.113,376.45Z" transform="translate(-442.268 -242.352)" fill="#ccc"/>
    <path id="Path_922" data-name="Path 922" d="M773.113,329.273h.492v-48.16h-.492q-3.729,0-7.449.1c-1.239.029-2.477.068-3.706.118-1.081.039-2.152.078-3.224.137-.7.03-1.385.069-2.083.118q-1.032.045-2.064.118c-1.229.069-2.447.157-3.666.255-1.15.079-2.3.168-3.45.276a5.376,5.376,0,0,0-.59.059q-5,.443-9.956,1.071c-.826.1-1.651.206-2.477.314q-2.785.369-5.553.806c-1.071.158-2.133.325-3.194.5a287.292,287.292,0,0,0-114.915,46.086q-1.784,1.223-3.558,2.476c-1.3.9-2.585,1.838-3.862,2.772-1.465,1.061-2.929,2.152-4.374,3.253-1.3.983-2.575,1.976-3.853,2.988A287.842,287.842,0,0,0,484.657,568.6H533.79C533.79,436.423,640.94,329.273,773.113,329.273Z" transform="translate(-442.268 -242.352)" fill="#ccc"/>
    <g id="Group_211" data-name="Group 211" transform="translate(-442.268 -242.352)">
        <path id="Path_923" data-name="Path 923" d="M603.444,399.419a238.318,238.318,0,0,1,169.669-70.225h.492v-.983h-.492A240.737,240.737,0,0,0,532.237,568.6h.983A238.324,238.324,0,0,1,603.444,399.419Z" fill="#fff"/>
    </g>
    <g id="Group_212" data-name="Group 212" transform="translate(-442.268 -242.352)">
        <path id="Path_924" data-name="Path 924" d="M580.976,568.6h.315a190.982,190.982,0,0,1,23.588-91.916c.511-.923,1.032-1.857,1.563-2.771s1.052-1.828,1.592-2.733c.521-.874,1.052-1.749,1.593-2.614s1.071-1.739,1.631-2.594c.541-.865,1.1-1.72,1.671-2.566a192.1,192.1,0,0,1,160.184-86.137h.492v-.982h-.492A192.714,192.714,0,0,0,580.308,568.6h.659v.492C580.967,568.921,580.967,568.763,580.976,568.6Z" fill="#fff"/>
    </g>
    <g id="Group_213" data-name="Group 213" transform="translate(-442.268 -242.352)">
        <path id="Path_925" data-name="Path 925" d="M671.448,467.422a142.806,142.806,0,0,1,101.665-42.076h.492v-.982h-.492A144.629,144.629,0,0,0,628.389,568.6h.983A142.81,142.81,0,0,1,671.448,467.422Z" fill="#fff"/>
    </g>
    <g id="Group_214" data-name="Group 214" transform="translate(-442.268 -242.352)">
        <path id="Path_926" data-name="Path 926" d="M773.113,473.427c.168,0,.325,0,.492.01v-.983c-.167-.01-.324-.01-.492-.01A96.742,96.742,0,0,0,676.48,568.6h.983A95.755,95.755,0,0,1,773.113,473.427Z" fill="#fff"/>
    </g>
    <g id="Group_215" data-name="Group 215" transform="translate(-442.268 -242.352)">
        <path id="Path_927" data-name="Path 927" d="M569.438,365.412a293.189,293.189,0,0,1,25.7-22.851c1.278-1.012,2.556-2.005,3.853-2.988,1.445-1.1,2.909-2.192,4.374-3.253,1.277-.934,2.565-1.867,3.862-2.772q1.77-1.252,3.558-2.476A284.282,284.282,0,0,1,725.7,284.986c1.061-.187,2.123-.354,3.194-.5q2.772-.441,5.553-.806c.826-.108,1.651-.215,2.477-.314q4.953-.635,9.956-1.071a5.376,5.376,0,0,1,.59-.059c1.15-.108,2.3-.2,3.45-.276,1.219-.1,2.437-.186,3.666-.255q1.032-.074,2.064-.118c.7-.049,1.386-.088,2.083-.118,1.072-.059,2.143-.1,3.224-.137,1.229-.05,2.467-.089,3.706-.118q3.714-.1,7.449-.1h.492v-.982h-.492A288.786,288.786,0,0,0,484.156,568.6h.983A286.117,286.117,0,0,1,569.438,365.412Z" fill="#fff"/>
    </g>
    <g id="Group_217" data-name="Group 217" transform="translate(-442.268 -242.352)">
        <g id="Group_216" data-name="Group 216">
            <path id="Path_928" data-name="Path 928" d="M443.451,534.423c10.166,5.184,20.314,10.056,30.72,14.741-.13,2.942-.176,4.418-.233,7.379-10.7,4.025-21.115,8.267-31.586,12.849-.083-3.761-.1-5.637-.074-9.375,8.459-3.221,12.71-4.72,21.242-7.5-8.339-3.33-12.487-5.1-20.728-8.838C443,539.965,443.135,538.113,443.451,534.423Z" fill="#ccc"/>
            <path id="Path_929" data-name="Path 929" d="M476.064,526.453c-.354,2.882-.514,4.328-.8,7.231L443.8,530.576c.314-3.218.491-4.822.884-8.017Z" fill="#ccc"/>
            <path id="Path_930" data-name="Path 930" d="M481.564,495.62a241.094,241.094,0,0,0-4.6,24.176q-15.639-2.309-31.279-4.619a266.831,266.831,0,0,1,5.1-26.809l6.16,1.452c-1.723,7.336-2.48,11.045-3.769,18.533l6.236,1.08c.855-4.966,1.332-7.433,2.383-12.332l6.187,1.331c-1.03,4.8-1.5,7.216-2.335,12.081l6.215,1.075c1.211-7.038,1.922-10.524,3.542-17.42Z" fill="#ccc"/>
            <path id="Path_931" data-name="Path 931" d="M484.583,483.883c-.766,2.739-1.133,4.115-1.833,6.88q-15.326-3.889-30.65-7.781c1.553-6.132,2.4-9.17,4.247-15.185a17.74,17.74,0,0,1,1.676-3.833,16.743,16.743,0,0,1,2.373-3.138,14.939,14.939,0,0,1,2.889-2.338,12.85,12.85,0,0,1,3.222-1.437,11.419,11.419,0,0,1,3.365-.441,10.344,10.344,0,0,1,3.336.626,10.7,10.7,0,0,1,2.825,1.529,12.324,12.324,0,0,1,2.3,2.273,13.144,13.144,0,0,1,1.7,2.886,15.068,15.068,0,0,1,1,3.35c3.649-.477,5.471-.693,9.111-1.076-.993,2.834-1.472,4.259-2.394,7.125-2.8.394-4.207.605-7.016,1.057-.942,3.1-1.392,4.661-2.251,7.8Zm-24.356-6.822,12.188,3.414c.8-2.858,1.217-4.281,2.085-7.111a8.418,8.418,0,0,0,.377-2.881,7.9,7.9,0,0,0-.571-2.655,6.552,6.552,0,0,0-1.419-2.147,5.4,5.4,0,0,0-2.147-1.334,5.3,5.3,0,0,0-2.52-.213,6.328,6.328,0,0,0-2.428.923,7.807,7.807,0,0,0-2.034,1.9,8.58,8.58,0,0,0-1.36,2.7C461.494,472.6,461.06,474.083,460.227,477.061Z" fill="#ccc"/>
            <path id="Path_932" data-name="Path 932" d="M489.7,426.574a13.755,13.755,0,0,1,3.48,2.441,15.143,15.143,0,0,1,2.587,3.294,17.69,17.69,0,0,1,1.679,3.9,18.663,18.663,0,0,1,.738,4.294,20.052,20.052,0,0,1-.269,4.495,20.4,20.4,0,0,1-1.331,4.507c-1.644,3.9-2.432,5.867-3.936,9.835l-29.573-11.2c1.669-4.4,2.542-6.582,4.365-10.9a21.771,21.771,0,0,1,2.561-4.521,20.438,20.438,0,0,1,3.356-3.566,17.877,17.877,0,0,1,3.89-2.476,16.182,16.182,0,0,1,4.168-1.3,13.927,13.927,0,0,1,4.225-.056A13.258,13.258,0,0,1,489.7,426.574Zm-3.2,6.658a7.98,7.98,0,0,0-3.707-.759,9.351,9.351,0,0,0-3.74.944,11.445,11.445,0,0,0-3.338,2.478,12.536,12.536,0,0,0-2.446,3.793c-.592,1.4-.884,2.107-1.459,3.518l17.566,7.149c.541-1.327.815-1.989,1.371-3.307a12.287,12.287,0,0,0,.978-4.144,11.448,11.448,0,0,0-.453-3.969,9.818,9.818,0,0,0-1.78-3.374A8.3,8.3,0,0,0,486.508,433.232Z" fill="#ccc"/>
            <path id="Path_933" data-name="Path 933" d="M517.771,408.666c-5.051,8.1-7.417,12.258-11.8,20.775l-28.123-14.453c4.864-9.444,7.488-14.058,13.09-23.036L496.3,395.3c-3.888,6.232-5.745,9.409-9.274,15.873l5.557,3.027c2.34-4.287,3.552-6.4,6.054-10.589l5.434,3.244c-2.452,4.1-3.638,6.173-5.93,10.372,2.215,1.207,3.322,1.811,5.538,3.017,3.316-6.075,5.062-9.062,8.716-14.92Z" fill="#ccc"/>
            <path id="Path_934" data-name="Path 934" d="M532.329,387.477c-1.673,2.219-2.5,3.339-4.118,5.6l-25.7-18.412c1.8-2.505,2.71-3.747,4.566-6.208l12.626,9.51c-1.768-8.158-2.521-12.314-3.748-20.757,2.228-2.7,3.36-4.032,5.66-6.668.825,7.169,1.34,10.71,2.56,17.687,8.618.969,12.875,1.59,21.266,3.092-2.073,2.378-3.094,3.58-5.1,6.013-5.886-.9-8.857-1.294-14.849-1.938.671,3.335,1.029,4.99,1.788,8.276Z" fill="#ccc"/>
            <path id="Path_935" data-name="Path 935" d="M565.958,337.851a8.514,8.514,0,0,1,1.828,3.315,9.84,9.84,0,0,1,.336,3.756,11.055,11.055,0,0,1-1.09,3.745,11.53,11.53,0,0,1-2.451,3.311,11.654,11.654,0,0,1-3.1,2.13,10.576,10.576,0,0,1-3.559.972,10.539,10.539,0,0,1-.992,3.566,11.762,11.762,0,0,1-2.147,3.105,11.513,11.513,0,0,1-3.317,2.439,11.035,11.035,0,0,1-3.745,1.077,9.81,9.81,0,0,1-3.754-.35,8.525,8.525,0,0,1-3.308-1.839l-16.861-15.012c2.048-2.3,3.085-3.437,5.187-5.687l16.5,15.41a2.915,2.915,0,0,0,1.1.651,3.11,3.11,0,0,0,1.256.142,3.609,3.609,0,0,0,1.262-.356,4.115,4.115,0,0,0,1.912-2,3.578,3.578,0,0,0,.3-1.276,3.127,3.127,0,0,0-.2-1.249,2.911,2.911,0,0,0-.7-1.068l-16.127-15.8c2.154-2.2,3.245-3.287,5.451-5.435l15.744,16.179a2.91,2.91,0,0,0,1.066.7,3.09,3.09,0,0,0,1.248.2,3.586,3.586,0,0,0,1.277-.3,4.119,4.119,0,0,0,2.006-1.907,3.657,3.657,0,0,0,.361-1.261,3.292,3.292,0,0,0-.13-1.266,2.8,2.8,0,0,0-.638-1.108l-15.353-16.551c2.25-2.089,3.387-3.12,5.687-5.156Z" fill="#ccc"/>
            <path id="Path_936" data-name="Path 936" d="M598.357,323.832c-2.288,1.6-3.421,2.407-5.668,4.056l-3.739-5.105c-4.591,3.369-6.845,5.108-11.262,8.686l3.979,4.92c-2.154,1.745-3.221,2.63-5.332,4.425l-12.273-14.452a10.586,10.586,0,0,1-2.29-4.519,12.521,12.521,0,0,1-.1-5.162,15.048,15.048,0,0,1,2.056-5.168,17.653,17.653,0,0,1,9.489-7.319,15.19,15.19,0,0,1,5.535-.685,12.418,12.418,0,0,1,4.98,1.4,10.539,10.539,0,0,1,3.786,3.366C591.855,314.495,594.023,317.607,598.357,323.832ZM585.223,317.7l-3.74-5.105a5.331,5.331,0,0,0-1.925-1.635,6.3,6.3,0,0,0-2.492-.666,7.605,7.605,0,0,0-2.735.359,8.7,8.7,0,0,0-4.648,3.585,7.582,7.582,0,0,0-1.042,2.555,6.327,6.327,0,0,0,.01,2.579,5.338,5.338,0,0,0,1.091,2.279l3.979,4.92C578.233,322.912,580.535,321.136,585.223,317.7Z" fill="#ccc"/>
            <path id="Path_937" data-name="Path 937" d="M609.211,316.616c-2.361,1.494-3.532,2.256-5.855,3.8q-8.76-13.159-17.523-26.318c5.15-3.436,7.771-5.1,13.094-8.286a17.3,17.3,0,0,1,3.766-1.7,16.483,16.483,0,0,1,3.828-.725,14.844,14.844,0,0,1,3.687.209,12.77,12.77,0,0,1,3.339,1.1,11.432,11.432,0,0,1,2.786,1.928,10.39,10.39,0,0,1,2.056,2.7,10.791,10.791,0,0,1,1.077,3.026,12.381,12.381,0,0,1,.2,3.227,13.172,13.172,0,0,1-.655,3.276,15.024,15.024,0,0,1-1.476,3.15c3.015,2.094,4.508,3.157,7.457,5.313-2.615,1.432-3.912,2.164-6.486,3.661-2.334-1.591-3.51-2.377-5.884-3.93-2.74,1.652-4.1,2.5-6.787,4.22Zm-13.506-21.382,6.759,10.7c2.465-1.56,3.707-2.326,6.212-3.828a8.182,8.182,0,0,0,2.178-1.869,7.766,7.766,0,0,0,1.33-2.342,6.569,6.569,0,0,0,.37-2.538,5.453,5.453,0,0,0-.707-2.426,5.32,5.32,0,0,0-1.724-1.848,6.322,6.322,0,0,0-2.406-.947,7.727,7.727,0,0,0-2.759.037,8.388,8.388,0,0,0-2.782,1.074C599.567,292.811,598.272,293.609,595.705,295.234Z" fill="#ccc"/>
            <path id="Path_938" data-name="Path 938" d="M644.141,297.731c-2.56,1.165-3.831,1.762-6.357,2.986l-11.019-22.766c-4.138,2.005-6.185,3.044-10.235,5.192-1.185-2.237-1.778-3.355-2.962-5.592a291.487,291.487,0,0,1,28.263-13.271l2.407,5.853c-4.265,1.754-6.379,2.669-10.562,4.572Z" fill="#ccc"/>
            <path id="Path_939" data-name="Path 939" d="M682.884,283.359c-2.753.8-4.122,1.22-6.846,2.087-.769-2.411-1.154-3.617-1.924-6.029-5.565,1.773-8.317,2.726-13.756,4.759l2.217,5.927c-2.653.992-3.971,1.5-6.592,2.557l-7.073-17.6a10.416,10.416,0,0,1-.722-5.02,12.526,12.526,0,0,1,1.6-4.949,15.387,15.387,0,0,1,3.683-4.284,18.406,18.406,0,0,1,11.591-4.009,15.717,15.717,0,0,1,5.588,1.078,12.524,12.524,0,0,1,4.363,2.888,10.328,10.328,0,0,1,2.55,4.388C679.693,272.438,680.756,276.078,682.884,283.359Zm-10.687-9.95c-.769-2.411-1.154-3.617-1.924-6.029a5.236,5.236,0,0,0-1.319-2.159,6.356,6.356,0,0,0-2.191-1.412A7.872,7.872,0,0,0,664,263.3a9.095,9.095,0,0,0-5.678,1.964,7.793,7.793,0,0,0-1.848,2.109,6.322,6.322,0,0,0-.842,2.461,5.252,5.252,0,0,0,.3,2.511l2.216,5.928C663.7,276.192,666.514,275.219,672.2,273.409Z" fill="#ccc"/>
            <path id="Path_940" data-name="Path 940" d="M716.774,275.66c-2.883.475-4.318.73-7.175,1.276-.477-2.486-.716-3.729-1.193-6.214-5.839,1.113-8.733,1.742-14.462,3.135.6,2.459.9,3.688,1.5,6.147-2.795.679-4.184,1.036-6.951,1.782l-4.952-18.305a10.281,10.281,0,0,1-.108-5.073,12.548,12.548,0,0,1,2.223-4.734,15.634,15.634,0,0,1,4.239-3.833,18.052,18.052,0,0,1,5.859-2.348,18.239,18.239,0,0,1,6.326-.294,16.1,16.1,0,0,1,5.508,1.721,12.586,12.586,0,0,1,4.049,3.378,10.168,10.168,0,0,1,2.029,4.657C714.91,264.437,715.531,268.178,716.774,275.66Zm-9.557-11.131c-.477-2.486-.716-3.729-1.193-6.215a5.154,5.154,0,0,0-1.064-2.3,6.334,6.334,0,0,0-2.036-1.658,8.038,8.038,0,0,0-2.726-.831,9.379,9.379,0,0,0-5.969,1.294A7.985,7.985,0,0,0,692.1,256.7a6.324,6.324,0,0,0-1.151,2.348,5.176,5.176,0,0,0-.007,2.531c.6,2.459.9,3.689,1.5,6.148C698.3,266.308,701.254,265.666,707.217,264.529Z" fill="#ccc"/>
            <path id="Path_941" data-name="Path 941" d="M748.8,272.176a244.876,244.876,0,0,0-25.749,2.519q-2.25-15.646-4.5-31.293c3.219-.459,4.836-.67,8.082-1.05,1.186,10.046,1.777,15.068,2.962,25.114,7.473-.875,11.248-1.2,18.862-1.608Z" fill="#ccc"/>
        </g>
    </g>
    <g id="Group_219" data-name="Group 219" transform="translate(-442.268 -242.352)" opacity="0.5">
        <g id="Group_218" data-name="Group 218">
            <path id="Path_942" data-name="Path 942" d="M567.832,393.139a7.922,7.922,0,0,1,1.755,2.645,9.019,9.019,0,0,1,.664,3.085,9.483,9.483,0,0,1-.42,3.149,8.551,8.551,0,0,1-1.51,2.853c-.667.837-1,1.258-1.656,2.1a2.881,2.881,0,0,0-.5.966,3.13,3.13,0,0,0,.122,2.1,2.789,2.789,0,0,0,.6.886c.739.74,1.109,1.109,1.848,1.848,3.054-4.014,4.633-5.98,7.888-9.822,1.484,1.483,2.226,2.224,3.708,3.707-4.633,5.47-6.851,8.3-11.075,14.11l-5.556-5.557a8.282,8.282,0,0,1-1.791-2.676,9.741,9.741,0,0,1-.75-3.156,9.572,9.572,0,0,1,.335-3.221,8.3,8.3,0,0,1,1.459-2.9c.658-.845.989-1.266,1.656-2.1a2.89,2.89,0,0,0,.508-.953,3.1,3.1,0,0,0,.137-1.053,2.95,2.95,0,0,0-.238-1.035,2.8,2.8,0,0,0-.6-.888,2.425,2.425,0,0,0-.853-.565,2.221,2.221,0,0,0-.945-.147,2.258,2.258,0,0,0-.925.263,2.511,2.511,0,0,0-.792.67c-2.371,2.977-3.529,4.49-5.784,7.563-1.484-1.483-2.225-2.224-3.708-3.708,2.255-3.073,3.412-4.586,5.784-7.563a7.148,7.148,0,0,1,2.387-1.975,7.064,7.064,0,0,1,8.248,1.367Z" fill="#fff"/>
            <path id="Path_943" data-name="Path 943" d="M588.192,379.2a20.455,20.455,0,0,1,3.855,5.036,11.131,11.131,0,0,1,1.312,4.539,8.576,8.576,0,0,1-.776,4.013,12.78,12.78,0,0,1-2.394,3.472,12.151,12.151,0,0,1-3.349,2.514,8.079,8.079,0,0,1-3.914.859,10.664,10.664,0,0,1-4.456-1.246,19.894,19.894,0,0,1-4.977-3.8,21.146,21.146,0,0,1-3.9-5.08,12.124,12.124,0,0,1-1.429-4.64,8.794,8.794,0,0,1,.646-4.126,11.548,11.548,0,0,1,2.335-3.529,11.192,11.192,0,0,1,3.4-2.464A8.35,8.35,0,0,1,578.59,374a11.564,11.564,0,0,1,4.581,1.353A20.462,20.462,0,0,1,588.192,379.2Zm-3.621,3.544q-3.087-3.089-5.626-3.541a4.6,4.6,0,0,0-4.364,1.449,4.77,4.77,0,0,0-1.3,4.45q.5,2.55,3.621,5.666,3.089,3.088,5.566,3.521a4.531,4.531,0,0,0,4.28-1.465,5.346,5.346,0,0,0,1.269-2.065,4.682,4.682,0,0,0,.11-2.37,8.127,8.127,0,0,0-1.121-2.67A16.923,16.923,0,0,0,584.571,382.739Z" fill="#fff"/>
            <path id="Path_944" data-name="Path 944" d="M600.912,361.112a7.081,7.081,0,0,1,1.671,2.558,6.933,6.933,0,0,1,.434,2.851,7.3,7.3,0,0,1-.765,2.807,7.656,7.656,0,0,1-1.932,2.437c-.813.695-1.218,1.045-2.024,1.748a2.576,2.576,0,0,0-.639.828,2.416,2.416,0,0,0-.239.954,2.385,2.385,0,0,0,.165.964,2.476,2.476,0,0,0,.571.859L600,378.966c3.755-3.353,5.679-4.982,9.609-8.138l3.707,3.709c-5.593,4.491-8.3,6.84-13.543,11.728l-5.556-5.556a7.36,7.36,0,0,1-1.7-2.594,7.5,7.5,0,0,1-.508-2.933,7.392,7.392,0,0,1,2.579-5.377c.806-.7,1.211-1.054,2.024-1.748a2.578,2.578,0,0,0,.65-.815,2.365,2.365,0,0,0,.252-.939,2.254,2.254,0,0,0-.16-.959,2.5,2.5,0,0,0-.573-.861,2.709,2.709,0,0,0-.881-.592,2.909,2.909,0,0,0-1.022-.224,2.962,2.962,0,0,0-1.04.151,2.768,2.768,0,0,0-.934.531c-2.893,2.469-4.314,3.732-7.1,6.313l-3.709-3.709c2.791-2.58,4.213-3.843,7.1-6.313a7.97,7.97,0,0,1,2.811-1.559,9.178,9.178,0,0,1,6.254.267A8,8,0,0,1,600.912,361.112Z" fill="#fff"/>
            <path id="Path_945" data-name="Path 945" d="M622.539,367.492c-1.728,1.256-2.585,1.893-4.285,3.186-5.927-5.928-8.891-8.893-14.819-14.82-.847.644-1.269.968-2.108,1.622l-3.708-3.708c2.523-1.965,3.8-2.927,6.392-4.808C611.423,356.374,615.129,360.08,622.539,367.492Z" fill="#fff"/>
        </g>
    </g>
    <g id="Group_221" data-name="Group 221" transform="translate(-442.268 -242.352)" opacity="0.5">
        <g id="Group_220" data-name="Group 220">
            <path id="Path_946" data-name="Path 946" d="M601.734,429.209a9.124,9.124,0,0,1,1.822,2.577,9.262,9.262,0,0,1,.843,2.9,8.215,8.215,0,0,1-.162,2.867,6.378,6.378,0,0,1-1.2,2.5c-.562.715-.842,1.074-1.4,1.794a2.144,2.144,0,0,0-.4.844,2.714,2.714,0,0,0-.041.966,3.131,3.131,0,0,0,.3.972,3.21,3.21,0,0,0,.619.862l1.848,1.848c2.583-3.419,3.911-5.1,6.64-8.393l3.708,3.708c-3.884,4.69-5.753,7.1-9.34,12.037l-5.557-5.556a9.449,9.449,0,0,1-1.847-2.6,9.852,9.852,0,0,1-.9-2.948,8.277,8.277,0,0,1,.1-2.917,6.268,6.268,0,0,1,1.165-2.532c.555-.72.835-1.079,1.4-1.794a2.183,2.183,0,0,0,.405-.836,2.66,2.66,0,0,0,.052-.956,3.007,3.007,0,0,0-.294-.971,3.217,3.217,0,0,0-.621-.866,2.829,2.829,0,0,0-.832-.588,2.292,2.292,0,0,0-.889-.211,1.9,1.9,0,0,0-.84.168,1.835,1.835,0,0,0-.69.551c-2,2.543-2.975,3.831-4.889,6.443l-3.708-3.708c1.914-2.612,2.892-3.9,4.889-6.443a5.274,5.274,0,0,1,2.079-1.624,5.945,5.945,0,0,1,2.552-.478,7.191,7.191,0,0,1,2.691.638A8.235,8.235,0,0,1,601.734,429.209Z" fill="#fff"/>
            <path id="Path_947" data-name="Path 947" d="M619.3,417.652a24.113,24.113,0,0,1,3.959,4.963,12.173,12.173,0,0,1,1.594,4.334,7.557,7.557,0,0,1-.366,3.7,9.389,9.389,0,0,1-1.9,3.076,8.721,8.721,0,0,1-2.872,2.1,6.731,6.731,0,0,1-3.537.514,11.2,11.2,0,0,1-4.207-1.483,23.2,23.2,0,0,1-4.887-3.886,24.68,24.68,0,0,1-3.99-4.991,13.049,13.049,0,0,1-1.678-4.4,7.8,7.8,0,0,1,.268-3.783,8.739,8.739,0,0,1,1.858-3.118,8.241,8.241,0,0,1,2.91-2.068,6.984,6.984,0,0,1,3.635-.431,11.926,11.926,0,0,1,4.3,1.558A23.658,23.658,0,0,1,619.3,417.652Zm-3,3.087q-3.087-3.089-5.449-3.678a3.685,3.685,0,0,0-3.877,1.057,4.023,4.023,0,0,0-.829,4.047,13.754,13.754,0,0,0,3.784,5.519q3.089,3.09,5.4,3.668a3.618,3.618,0,0,0,3.813-1.063,4.032,4.032,0,0,0,.991-1.838,4.418,4.418,0,0,0-.1-2.2,9.177,9.177,0,0,0-1.253-2.567A20.007,20.007,0,0,0,616.3,420.739Z" fill="#fff"/>
            <path id="Path_948" data-name="Path 948" d="M629.115,401.278a8.386,8.386,0,0,1,1.76,2.515,7.514,7.514,0,0,1,.673,2.732,6.507,6.507,0,0,1-.413,2.625,5.687,5.687,0,0,1-1.51,2.207c-.669.614-1,.923-1.666,1.542a1.948,1.948,0,0,0-.5.747,2.155,2.155,0,0,0-.127.886,2.556,2.556,0,0,0,.239.919,2.92,2.92,0,0,0,.6.843l1.848,1.848c3.095-2.948,4.676-4.388,7.9-7.2l3.708,3.708c-4.589,4-6.821,6.069-11.147,10.346l-5.556-5.555a8.657,8.657,0,0,1-1.783-2.54,8.055,8.055,0,0,1-.728-2.79,6.6,6.6,0,0,1,.36-2.682,5.6,5.6,0,0,1,1.48-2.241c.664-.62,1-.928,1.666-1.542a1.938,1.938,0,0,0,.51-.736,2.118,2.118,0,0,0,.137-.877,2.455,2.455,0,0,0-.238-.917,2.985,2.985,0,0,0-.6-.846,3.066,3.066,0,0,0-.853-.607,2.807,2.807,0,0,0-.945-.266,2.415,2.415,0,0,0-.926.088,2.02,2.02,0,0,0-.793.453c-2.379,2.182-3.551,3.293-5.855,5.553l-3.708-3.709c2.3-2.26,3.476-3.371,5.855-5.553a5.824,5.824,0,0,1,2.388-1.329,7.5,7.5,0,0,1,2.8-.235,9.007,9.007,0,0,1,5.423,2.61Z" fill="#fff"/>
            <path id="Path_949" data-name="Path 949" d="M648.989,392.147a23.027,23.027,0,0,1,3.882,4.877,10.083,10.083,0,0,1,1.381,4.1,5.96,5.96,0,0,1-.682,3.355,8.627,8.627,0,0,1-2.294,2.657,9.652,9.652,0,0,1-3.268,1.69,8.5,8.5,0,0,1-3.862.179,13.484,13.484,0,0,1-4.427-1.706,24.533,24.533,0,0,1-4.968-3.967,23.321,23.321,0,0,1-3.909-4.91,10.862,10.862,0,0,1-1.458-4.179,6.177,6.177,0,0,1,.594-3.448,8.025,8.025,0,0,1,2.253-2.7,9.122,9.122,0,0,1,3.3-1.65,8.8,8.8,0,0,1,3.951-.086,14.378,14.378,0,0,1,4.511,1.792A25.222,25.222,0,0,1,648.989,392.147Zm-3.468,2.568a14.241,14.241,0,0,0-5.587-3.828,4.482,4.482,0,0,0-4.266.642,3.321,3.321,0,0,0-1.216,3.641q.529,2.26,3.645,5.376a14.159,14.159,0,0,0,5.542,3.811,4.406,4.406,0,0,0,4.2-.657,3.617,3.617,0,0,0,1.214-1.6,3.467,3.467,0,0,0,.066-2.027,7.867,7.867,0,0,0-1.15-2.456A19.194,19.194,0,0,0,645.521,394.715Z" fill="#fff"/>
        </g>
    </g>
    <g id="Group_223" data-name="Group 223" transform="translate(-442.268 -242.352)" opacity="0.5">
        <g id="Group_222" data-name="Group 222">
            <path id="Path_950" data-name="Path 950" d="M636.5,461.286a7.966,7.966,0,0,1,1.741,2.6,8.947,8.947,0,0,1,.684,3.014,9.127,9.127,0,0,1-.373,3.063,8.057,8.057,0,0,1-1.439,2.76c-.64.808-.959,1.213-1.591,2.027a2.714,2.714,0,0,0-.473.934,3.019,3.019,0,0,0-.107,1.035,3.054,3.054,0,0,0,.248,1.013,2.79,2.79,0,0,0,.595.87l1.822,1.822c2.937-3.867,4.453-5.762,7.577-9.47l3.656,3.656c-4.446,5.278-6.578,8-10.644,13.6l-5.478-5.478a8.354,8.354,0,0,1-1.775-2.627,9.594,9.594,0,0,1-.762-3.079,9.207,9.207,0,0,1,.293-3.13,7.864,7.864,0,0,1,1.392-2.8c.632-.814.951-1.22,1.592-2.027a2.732,2.732,0,0,0,.484-.922,2.962,2.962,0,0,0,.121-1.023,2.924,2.924,0,0,0-.243-1.011,2.821,2.821,0,0,0-.6-.873,2.453,2.453,0,0,0-.838-.56,2.194,2.194,0,0,0-.923-.155,2.161,2.161,0,0,0-.9.246,2.363,2.363,0,0,0-.765.642c-2.277,2.87-3.39,4.328-5.561,7.287l-3.656-3.656c2.17-2.959,3.283-4.417,5.562-7.287a6.729,6.729,0,0,1,5.033-2.6,6.955,6.955,0,0,1,2.8.471A7.185,7.185,0,0,1,636.5,461.286Z" fill="#fff"/>
            <path id="Path_951" data-name="Path 951" d="M656.1,447.871a20.725,20.725,0,0,1,3.818,4.957,11.116,11.116,0,0,1,1.341,4.448,8.28,8.28,0,0,1-.7,3.914,12.018,12.018,0,0,1-2.277,3.369,11.4,11.4,0,0,1-3.222,2.421,7.715,7.715,0,0,1-3.8.8,10.542,10.542,0,0,1-4.353-1.262,20.078,20.078,0,0,1-4.892-3.757,21.279,21.279,0,0,1-3.86-5,12.083,12.083,0,0,1-1.45-4.54,8.523,8.523,0,0,1,.574-4.019,10.949,10.949,0,0,1,2.222-3.422,10.563,10.563,0,0,1,3.27-2.375,7.989,7.989,0,0,1,3.919-.691,11.407,11.407,0,0,1,4.469,1.361A20.585,20.585,0,0,1,656.1,447.871Zm-3.464,3.434q-3.045-3.045-5.518-3.509a4.378,4.378,0,0,0-4.221,1.374,4.6,4.6,0,0,0-1.2,4.331q.525,2.493,3.6,5.566,3.045,3.045,5.46,3.492a4.309,4.309,0,0,0,4.143-1.388,5.071,5.071,0,0,0,1.2-2.005,4.568,4.568,0,0,0,.074-2.313,8.169,8.169,0,0,0-1.128-2.619A17.118,17.118,0,0,0,652.639,451.3Z" fill="#fff"/>
            <path id="Path_952" data-name="Path 952" d="M672.983,449.8c-1.532,1.363-2.292,2.053-3.795,3.448l-14.612-14.612c-.749.7-1.121,1.045-1.863,1.748-1.463-1.462-2.194-2.194-3.656-3.656,2.23-2.114,3.361-3.154,5.658-5.2C662.022,438.845,665.677,442.5,672.983,449.8Z" fill="#fff"/>
            <path id="Path_953" data-name="Path 953" d="M679.918,423.372a22.92,22.92,0,0,1,3.036,3.723,19.664,19.664,0,0,1,2.017,4.008,16.369,16.369,0,0,1,.928,4.113,13.908,13.908,0,0,1-.215,4.051c-2.192,1.7-3.275,2.558-5.416,4.314a17.687,17.687,0,0,0,.529-2.44,19.838,19.838,0,0,0,.205-2.524,18.032,18.032,0,0,0-.135-2.535,15.877,15.877,0,0,0-.5-2.461,8.7,8.7,0,0,1-.7,1.663,4.567,4.567,0,0,1-1.186,1.4,11.08,11.08,0,0,1-3.561,1.947,9.875,9.875,0,0,1-3.713.454,9.981,9.981,0,0,1-3.629-.981,11.971,11.971,0,0,1-3.285-2.365,10.194,10.194,0,0,1-2.233-3.279,9.194,9.194,0,0,1-.746-3.631,8.293,8.293,0,0,1,.82-3.537,8.462,8.462,0,0,1,2.449-3.01,10.17,10.17,0,0,1,3.7-1.865,12.142,12.142,0,0,1,4.139-.389,12.636,12.636,0,0,1,4.057,1.013A10.953,10.953,0,0,1,679.918,423.372Zm-4.411,3.282a5.9,5.9,0,0,0-1.62-1.144,6.049,6.049,0,0,0-1.907-.563,5.45,5.45,0,0,0-1.958.115,4.571,4.571,0,0,0-1.783.88,4.032,4.032,0,0,0-1.2,1.476,3.877,3.877,0,0,0-.362,1.689,4.16,4.16,0,0,0,.414,1.723,5.632,5.632,0,0,0,1.141,1.594,6.062,6.062,0,0,0,1.618,1.165,5.47,5.47,0,0,0,1.846.538,5.2,5.2,0,0,0,1.9-.154,4.844,4.844,0,0,0,1.768-.91,4.34,4.34,0,0,0,1.232-1.47,3.673,3.673,0,0,0,.4-1.669,4.137,4.137,0,0,0-.382-1.7A5.281,5.281,0,0,0,675.507,426.654Z" fill="#fff"/>
        </g>
    </g>
    <g id="Group_225" data-name="Group 225" transform="translate(-442.268 -242.352)" opacity="0.5">
        <g id="Group_224" data-name="Group 224">
            <path id="Path_954" data-name="Path 954" d="M670.205,496.384a7.781,7.781,0,0,1,1.713,2.567,8.847,8.847,0,0,1,.663,2.987,9.156,9.156,0,0,1-.386,3.042,8.107,8.107,0,0,1-1.44,2.749c-.639.8-.957,1.21-1.588,2.022a2.767,2.767,0,0,0-.473.93,3.03,3.03,0,0,0,.13,2.033,2.746,2.746,0,0,0,.585.86l1.8,1.8c2.93-3.858,4.442-5.748,7.558-9.448l3.605,3.605c-4.434,5.266-6.56,7.982-10.617,13.566l-5.4-5.4A8.132,8.132,0,0,1,664.6,515.1a9.482,9.482,0,0,1-.741-3.053,9.22,9.22,0,0,1,.305-3.108,7.914,7.914,0,0,1,1.395-2.789c.63-.812.948-1.217,1.587-2.022a2.747,2.747,0,0,0,.485-.919,2.977,2.977,0,0,0,.125-1.016,2.865,2.865,0,0,0-.236-1,2.744,2.744,0,0,0-.586-.862,2.384,2.384,0,0,0-.827-.551,2.152,2.152,0,0,0-1.806.1,2.387,2.387,0,0,0-.761.643c-2.272,2.863-3.382,4.317-5.548,7.269l-3.6-3.6c2.165-2.952,3.276-4.407,5.548-7.27a6.737,6.737,0,0,1,7.776-2.164A6.984,6.984,0,0,1,670.205,496.384Z" fill="#fff"/>
            <path id="Path_955" data-name="Path 955" d="M689.718,482.954a20.2,20.2,0,0,1,3.759,4.894,10.953,10.953,0,0,1,1.3,4.4,8.279,8.279,0,0,1-.712,3.887,12.12,12.12,0,0,1-2.276,3.356,11.474,11.474,0,0,1-3.208,2.422,7.7,7.7,0,0,1-3.769.815,10.358,10.358,0,0,1-4.308-1.226,19.562,19.562,0,0,1-4.83-3.7,20.773,20.773,0,0,1-3.8-4.933,11.91,11.91,0,0,1-1.414-4.5,8.52,8.52,0,0,1,.591-3.993,11.067,11.067,0,0,1,2.222-3.408,10.612,10.612,0,0,1,3.256-2.376,7.963,7.963,0,0,1,3.89-.71,11.217,11.217,0,0,1,4.424,1.325A20.1,20.1,0,0,1,689.718,482.954Zm-3.455,3.426q-3-3-5.452-3.448a4.38,4.38,0,0,0-4.193,1.389,4.594,4.594,0,0,0-1.213,4.3q.507,2.472,3.537,5.5,3,3,5.395,3.432a4.312,4.312,0,0,0,4.116-1.4,5.107,5.107,0,0,0,1.2-2,4.544,4.544,0,0,0,.085-2.3,8,8,0,0,0-1.1-2.591A16.715,16.715,0,0,0,686.263,486.38Z" fill="#fff"/>
            <path id="Path_956" data-name="Path 956" d="M706.45,484.774c-1.528,1.361-2.285,2.049-3.784,3.442l-14.41-14.409c-.747.693-1.118,1.043-1.858,1.744l-3.606-3.6c2.224-2.11,3.353-3.148,5.643-5.187C695.641,473.966,699.245,477.569,706.45,484.774Z" fill="#fff"/>
            <path id="Path_957" data-name="Path 957" d="M719.88,464.663a5.972,5.972,0,0,1,1.614,2.713,6.367,6.367,0,0,1,.044,3.057,9.082,9.082,0,0,1-1.376,3.09,12.489,12.489,0,0,1-2.65,2.814,13.776,13.776,0,0,1-3.45,2.018,11.991,11.991,0,0,1-3.619.866,8.962,8.962,0,0,1-3.416-.386,7.093,7.093,0,0,1-4.016-3.287,6.611,6.611,0,0,1-.675-1.768,7.021,7.021,0,0,1-.155-1.878,6.447,6.447,0,0,1,.382-1.881,7.028,7.028,0,0,1-1.54-.143,9,9,0,0,1-1.5-.447,7.744,7.744,0,0,1-1.371-.7,7.031,7.031,0,0,1-1.159-.932,5.738,5.738,0,0,1-1.469-2.412,6.49,6.49,0,0,1-.221-2.8,7.629,7.629,0,0,1,.994-2.824,8.763,8.763,0,0,1,2.171-2.47,9.871,9.871,0,0,1,3.02-1.642,10.376,10.376,0,0,1,3.267-.55,8.976,8.976,0,0,1,3.1.52,6.72,6.72,0,0,1,2.518,1.581,6.23,6.23,0,0,1,.9,1.137,7.257,7.257,0,0,1,.636,1.3,6.159,6.159,0,0,1,.341,1.378,5.4,5.4,0,0,1,0,1.386,9.421,9.421,0,0,1,2.116-.109,9.134,9.134,0,0,1,2.058.359,8.662,8.662,0,0,1,1.877.8A7.51,7.51,0,0,1,719.88,464.663Zm-4.188,2.937a3.728,3.728,0,0,0-1.431-.892,4.947,4.947,0,0,0-1.747-.27,6.06,6.06,0,0,0-3.594,1.306,5.218,5.218,0,0,0-1.266,1.418,4.494,4.494,0,0,0-.6,1.6,3.553,3.553,0,0,0,.1,1.578,3.189,3.189,0,0,0,.829,1.369,3.457,3.457,0,0,0,1.4.861,4.442,4.442,0,0,0,1.681.2,6.02,6.02,0,0,0,1.785-.41,6.623,6.623,0,0,0,1.7-.985,6.04,6.04,0,0,0,1.3-1.393,4.523,4.523,0,0,0,.67-1.534,3.169,3.169,0,0,0-.03-1.507A2.982,2.982,0,0,0,715.692,467.6Zm-8.947-6.994a2.765,2.765,0,0,0-1.043-.654,3.718,3.718,0,0,0-1.265-.213,4.018,4.018,0,0,0-1.332.234,4.174,4.174,0,0,0-1.23.675,3.774,3.774,0,0,0-.911,1.02,3.018,3.018,0,0,0-.417,1.151,2.679,2.679,0,0,0,.09,1.145,2.373,2.373,0,0,0,.608,1,2.651,2.651,0,0,0,1.031.641,3.442,3.442,0,0,0,1.236.181,4.284,4.284,0,0,0,1.309-.259,4.372,4.372,0,0,0,1.238-.693,3.854,3.854,0,0,0,.9-1,3.18,3.18,0,0,0,.441-1.126,2.451,2.451,0,0,0-.06-1.111A2.273,2.273,0,0,0,706.745,460.606Z" fill="#fff"/>
        </g>
    </g>
    <g id="Group_227" data-name="Group 227" transform="translate(-442.268 -242.352)" opacity="0.5">
        <g id="Group_226" data-name="Group 226">
            <path id="Path_958" data-name="Path 958" d="M707.483,528.723a7.946,7.946,0,0,1,1.759,2.642,9.039,9.039,0,0,1,.672,3.077,9.415,9.415,0,0,1-.41,3.136,8.44,8.44,0,0,1-1.5,2.839c-.662.831-.991,1.25-1.645,2.089a2.841,2.841,0,0,0-.491.96,3.124,3.124,0,0,0,.127,2.1,2.827,2.827,0,0,0,.6.885c.739.739,1.109,1.108,1.848,1.848,3.033-3.989,4.6-5.942,7.834-9.761,1.483,1.483,2.224,2.225,3.708,3.708-4.6,5.436-6.8,8.242-11,14.019l-5.556-5.557a8.321,8.321,0,0,1-1.794-2.672,9.766,9.766,0,0,1-.757-3.147,9.536,9.536,0,0,1,.324-3.208,8.222,8.222,0,0,1,1.447-2.88c.653-.839.983-1.258,1.645-2.09a2.845,2.845,0,0,0,.5-.948,3.046,3.046,0,0,0,.133-1.048,2.955,2.955,0,0,0-.24-1.032,2.8,2.8,0,0,0-.6-.888,2.471,2.471,0,0,0-.852-.566,2.225,2.225,0,0,0-1.864.11,2.475,2.475,0,0,0-.788.664c-2.354,2.958-3.5,4.462-5.744,7.515l-3.709-3.708c2.241-3.053,3.39-4.557,5.745-7.515a6.98,6.98,0,0,1,8.036-2.249A7.163,7.163,0,0,1,707.483,528.723Z" fill="#fff"/>
            <path id="Path_959" data-name="Path 959" d="M727.72,514.881a20.609,20.609,0,0,1,3.859,5.033,11.164,11.164,0,0,1,1.324,4.53,8.52,8.52,0,0,1-.757,4,12.62,12.62,0,0,1-2.372,3.455,12,12,0,0,1-3.328,2.5,8.021,8.021,0,0,1-3.9.844,10.68,10.68,0,0,1-4.445-1.257,19.991,19.991,0,0,1-4.973-3.8,21.235,21.235,0,0,1-3.9-5.076,12.156,12.156,0,0,1-1.441-4.629,8.752,8.752,0,0,1,.63-4.112,11.453,11.453,0,0,1,2.313-3.511,11.041,11.041,0,0,1,3.379-2.447,8.291,8.291,0,0,1,4.027-.731,11.563,11.563,0,0,1,4.568,1.362A20.593,20.593,0,0,1,727.72,514.881Zm-3.594,3.524q-3.087-3.087-5.618-3.546a4.558,4.558,0,0,0-4.342,1.432,4.737,4.737,0,0,0-1.276,4.432q.512,2.544,3.629,5.66,3.089,3.09,5.558,3.527a4.486,4.486,0,0,0,4.26-1.447,5.3,5.3,0,0,0,1.256-2.055,4.667,4.667,0,0,0,.1-2.363,8.152,8.152,0,0,0-1.127-2.665A17.07,17.07,0,0,0,724.126,518.405Z" fill="#fff"/>
            <path id="Path_960" data-name="Path 960" d="M745.024,516.763c-1.592,1.4-2.379,2.1-3.94,3.533l-14.82-14.82c-.777.713-1.164,1.071-1.934,1.792l-3.708-3.708c2.314-2.168,3.489-3.233,5.873-5.325Z" fill="#fff"/>
            <path id="Path_961" data-name="Path 961" d="M743.742,484.454c4.48,9.541,6.74,14.34,11.3,23.987-1.783,1.4-2.666,2.112-4.414,3.553-3.632-7.82-5.434-11.714-9.007-19.464-3.565,2.759-5.314,4.179-8.742,7.1l-3.708-3.708C734.816,491.116,737.733,488.819,743.742,484.454Z" fill="#fff"/>
        </g>
    </g>
    <text id="_971" data-name="971" transform="translate(346.013 270.431)" fill="#fff" font-size="40" font-family="Helvetica"><tspan x="0" y="0">971</tspan></text>
    <text id="_693" data-name="693" transform="translate(346.013 220.431)" fill="#fff" font-size="40" font-family="Helvetica"><tspan x="0" y="0">693</tspan></text>
    <text id="_588" data-name="588" transform="translate(346.013 172.431)" fill="#fff" font-size="40" font-family="Helvetica"><tspan x="0" y="0">588</tspan></text>
    <text id="_1562" data-name="1562" transform="translate(346.013 124.431)" fill="#fff" font-size="40" font-family="Helvetica"><tspan x="0" y="0">1562</tspan></text>
    <text id="_424" data-name="424" transform="translate(346.013 76.431)" fill="#fff" font-size="40" font-family="Helvetica"><tspan x="0" y="0">424</tspan></text>
</svg>
