<svg xmlns="http://www.w3.org/2000/svg" width="1408.297" height="533.863" viewBox="0 0 1408.297 533.863">
    <rect id="Rectangle_1036" width="1084.586" height="19.656" rx="9.828" transform="translate(322.03 351.507)" stroke="#000" stroke-miterlimit="10" stroke-width="1"/>
    <rect id="Rectangle_1037" data-name="Rectangle 1037" width="891.504" height="19.656" rx="9.828" transform="translate(322.03 270.743)" stroke="#000" stroke-miterlimit="10" stroke-width="1"/>
    <rect id="Rectangle_1038" data-name="Rectangle 1038" width="683.682" height="19.656" rx="9.828" transform="translate(322.03 189.979)" stroke="#000" stroke-miterlimit="10" stroke-width="1"/>
    <rect id="Rectangle_1039" data-name="Rectangle 1039" width="576.464" height="19.656" rx="9.828" transform="translate(322.03 109.214)" stroke="#000" stroke-miterlimit="10" stroke-width="1"/>
    <rect id="Rectangle_1040" data-name="Rectangle 1040" width="766.435" height="19.656" rx="9.828" transform="translate(322.03 28.45)" stroke="#000" stroke-miterlimit="10" stroke-width="1"/>
    <circle id="Ellipse_279" data-name="Ellipse 279" cx="5.704" cy="5.704" r="5.704" transform="translate(327.254 32.205)" fill="#ff8d00"/>
    <circle id="Ellipse_280" data-name="Ellipse 280" cx="5.704" cy="5.704" r="5.704" transform="translate(340.451 32.205)" fill="#ff8d00"/>
    <circle id="Ellipse_281" data-name="Ellipse 281" cx="5.704" cy="5.704" r="5.704" transform="translate(353.648 32.205)" fill="#ff8d00"/>
    <circle id="Ellipse_282" data-name="Ellipse 282" cx="5.704" cy="5.704" r="5.704" transform="translate(366.845 32.205)" fill="#ff8d00"/>
    <circle id="Ellipse_283" data-name="Ellipse 283" cx="5.704" cy="5.704" r="5.704" transform="translate(380.043 32.205)" fill="#ff8d00"/>
    <circle id="Ellipse_284" data-name="Ellipse 284" cx="5.704" cy="5.704" r="5.704" transform="translate(393.24 32.205)" fill="#ff8d00"/>
    <circle id="Ellipse_285" data-name="Ellipse 285" cx="5.704" cy="5.704" r="5.704" transform="translate(406.437 32.205)" fill="#ff8d00"/>
    <circle id="Ellipse_286" data-name="Ellipse 286" cx="5.704" cy="5.704" r="5.704" transform="translate(419.634 32.205)" fill="#ff8d00"/>
    <circle id="Ellipse_287" data-name="Ellipse 287" cx="5.704" cy="5.704" r="5.704" transform="translate(432.831 32.205)" fill="#ff8d00"/>
    <circle id="Ellipse_288" data-name="Ellipse 288" cx="5.704" cy="5.704" r="5.704" transform="translate(446.028 32.205)" fill="#ff8d00"/>
    <circle id="Ellipse_289" data-name="Ellipse 289" cx="5.704" cy="5.704" r="5.704" transform="translate(459.226 32.205)" fill="#ff8d00"/>
    <circle id="Ellipse_290" data-name="Ellipse 290" cx="5.704" cy="5.704" r="5.704" transform="translate(472.423 32.205)" fill="#ff8d00"/>
    <circle id="Ellipse_291" data-name="Ellipse 291" cx="5.704" cy="5.704" r="5.704" transform="translate(485.62 32.205)" fill="#ff8d00"/>
    <circle id="Ellipse_292" data-name="Ellipse 292" cx="5.704" cy="5.704" r="5.704" transform="translate(498.817 32.205)" fill="#ff8d00"/>
    <circle id="Ellipse_293" data-name="Ellipse 293" cx="5.704" cy="5.704" r="5.704" transform="translate(512.014 32.205)" fill="#ff8d00"/>
    <circle id="Ellipse_294" data-name="Ellipse 294" cx="5.704" cy="5.704" r="5.704" transform="translate(525.211 32.205)" fill="#ff8d00"/>
    <circle id="Ellipse_295" data-name="Ellipse 295" cx="5.704" cy="5.704" r="5.704" transform="translate(538.409 32.205)" fill="#ff8d00"/>
    <circle id="Ellipse_296" data-name="Ellipse 296" cx="5.704" cy="5.704" r="5.704" transform="translate(551.606 32.205)" fill="#ff8d00"/>
    <circle id="Ellipse_297" data-name="Ellipse 297" cx="5.704" cy="5.704" r="5.704" transform="translate(564.803 32.205)" fill="#ff8d00"/>
    <circle id="Ellipse_298" data-name="Ellipse 298" cx="5.704" cy="5.704" r="5.704" transform="translate(578 32.205)" fill="#ff8d00"/>
    <circle id="Ellipse_299" data-name="Ellipse 299" cx="5.704" cy="5.704" r="5.704" transform="translate(591.197 32.205)" fill="#ff8d00"/>
    <circle id="Ellipse_300" data-name="Ellipse 300" cx="5.704" cy="5.704" r="5.704" transform="translate(604.394 32.205)" fill="#ff8d00"/>
    <circle id="Ellipse_301" data-name="Ellipse 301" cx="5.704" cy="5.704" r="5.704" transform="translate(617.592 32.205)" fill="#ff8d00"/>
    <circle id="Ellipse_302" data-name="Ellipse 302" cx="5.704" cy="5.704" r="5.704" transform="translate(630.789 32.205)" fill="#ff8d00"/>
    <circle id="Ellipse_303" data-name="Ellipse 303" cx="5.704" cy="5.704" r="5.704" transform="translate(643.986 32.205)" fill="#ff8d00"/>
    <circle id="Ellipse_304" data-name="Ellipse 304" cx="5.704" cy="5.704" r="5.704" transform="translate(657.183 32.205)" fill="#ff8d00"/>
    <circle id="Ellipse_305" data-name="Ellipse 305" cx="5.704" cy="5.704" r="5.704" transform="translate(670.38 32.205)" fill="#ff8d00"/>
    <circle id="Ellipse_306" data-name="Ellipse 306" cx="5.704" cy="5.704" r="5.704" transform="translate(683.577 32.205)" fill="#ff8d00"/>
    <circle id="Ellipse_307" data-name="Ellipse 307" cx="5.704" cy="5.704" r="5.704" transform="translate(696.775 32.205)" fill="#ff8d00"/>
    <circle id="Ellipse_308" data-name="Ellipse 308" cx="5.704" cy="5.704" r="5.704" transform="translate(709.972 32.205)" fill="#ff8d00"/>
    <circle id="Ellipse_309" data-name="Ellipse 309" cx="5.704" cy="5.704" r="5.704" transform="translate(723.169 32.205)" fill="#ff8d00"/>
    <circle id="Ellipse_310" data-name="Ellipse 310" cx="5.704" cy="5.704" r="5.704" transform="translate(736.366 32.205)" fill="#ff8d00"/>
    <circle id="Ellipse_311" data-name="Ellipse 311" cx="5.704" cy="5.704" r="5.704" transform="translate(749.563 32.205)" fill="#ff8d00"/>
    <circle id="Ellipse_312" data-name="Ellipse 312" cx="5.704" cy="5.704" r="5.704" transform="translate(762.76 32.205)" fill="#ff8d00"/>
    <circle id="Ellipse_313" data-name="Ellipse 313" cx="5.704" cy="5.704" r="5.704" transform="translate(775.958 32.205)" fill="#ff8d00"/>
    <circle id="Ellipse_314" data-name="Ellipse 314" cx="5.704" cy="5.704" r="5.704" transform="translate(789.155 32.205)" fill="#ff8d00"/>
    <circle id="Ellipse_315" data-name="Ellipse 315" cx="5.704" cy="5.704" r="5.704" transform="translate(802.352 32.205)" fill="#ff8d00"/>
    <circle id="Ellipse_316" data-name="Ellipse 316" cx="5.704" cy="5.704" r="5.704" transform="translate(711.621 193.87)" fill="#ff8d00"/>
    <circle id="Ellipse_317" data-name="Ellipse 317" cx="5.704" cy="5.704" r="5.704" transform="translate(724.819 193.87)" fill="#ff8d00"/>
    <circle id="Ellipse_318" data-name="Ellipse 318" cx="5.704" cy="5.704" r="5.704" transform="translate(738.016 193.87)" fill="#ff8d00"/>
    <circle id="Ellipse_319" data-name="Ellipse 319" cx="5.704" cy="5.704" r="5.704" transform="translate(751.213 193.87)" fill="#ff8d00"/>
    <circle id="Ellipse_320" data-name="Ellipse 320" cx="5.704" cy="5.704" r="5.704" transform="translate(764.41 193.87)" fill="#ff8d00"/>
    <circle id="Ellipse_321" data-name="Ellipse 321" cx="5.704" cy="5.704" r="5.704" transform="translate(777.607 193.87)" fill="#ff8d00"/>
    <circle id="Ellipse_322" data-name="Ellipse 322" cx="5.704" cy="5.704" r="5.704" transform="translate(790.804 193.87)" fill="#ff8d00"/>
    <circle id="Ellipse_323" data-name="Ellipse 323" cx="5.704" cy="5.704" r="5.704" transform="translate(804.002 193.87)" fill="#ff8d00"/>
    <circle id="Ellipse_324" data-name="Ellipse 324" cx="5.704" cy="5.704" r="5.704" transform="translate(815.549 32.205)" fill="#ff8d00"/>
    <circle id="Ellipse_325" data-name="Ellipse 325" cx="5.704" cy="5.704" r="5.704" transform="translate(828.746 32.205)" fill="#ff8d00"/>
    <circle id="Ellipse_326" data-name="Ellipse 326" cx="5.704" cy="5.704" r="5.704" transform="translate(327.254 113.038)" fill="#ff8d00"/>
    <circle id="Ellipse_327" data-name="Ellipse 327" cx="5.704" cy="5.704" r="5.704" transform="translate(340.451 113.038)" fill="#ff8d00"/>
    <circle id="Ellipse_328" data-name="Ellipse 328" cx="5.704" cy="5.704" r="5.704" transform="translate(353.648 113.038)" fill="#ff8d00"/>
    <circle id="Ellipse_329" data-name="Ellipse 329" cx="5.704" cy="5.704" r="5.704" transform="translate(366.845 113.038)" fill="#ff8d00"/>
    <circle id="Ellipse_330" data-name="Ellipse 330" cx="5.704" cy="5.704" r="5.704" transform="translate(380.043 113.038)" fill="#ff8d00"/>
    <circle id="Ellipse_331" data-name="Ellipse 331" cx="5.704" cy="5.704" r="5.704" transform="translate(393.24 113.038)" fill="#ff8d00"/>
    <circle id="Ellipse_332" data-name="Ellipse 332" cx="5.704" cy="5.704" r="5.704" transform="translate(406.437 113.038)" fill="#ff8d00"/>
    <circle id="Ellipse_333" data-name="Ellipse 333" cx="5.704" cy="5.704" r="5.704" transform="translate(419.634 113.038)" fill="#ff8d00"/>
    <circle id="Ellipse_334" data-name="Ellipse 334" cx="5.704" cy="5.704" r="5.704" transform="translate(432.831 113.038)" fill="#ff8d00"/>
    <circle id="Ellipse_335" data-name="Ellipse 335" cx="5.704" cy="5.704" r="5.704" transform="translate(446.028 113.038)" fill="#ff8d00"/>
    <circle id="Ellipse_336" data-name="Ellipse 336" cx="5.704" cy="5.704" r="5.704" transform="translate(459.226 113.038)" fill="#ff8d00"/>
    <circle id="Ellipse_337" data-name="Ellipse 337" cx="5.704" cy="5.704" r="5.704" transform="translate(472.423 113.038)" fill="#ff8d00"/>
    <circle id="Ellipse_338" data-name="Ellipse 338" cx="5.704" cy="5.704" r="5.704" transform="translate(485.62 113.038)" fill="#ff8d00"/>
    <circle id="Ellipse_339" data-name="Ellipse 339" cx="5.704" cy="5.704" r="5.704" transform="translate(498.817 113.038)" fill="#ff8d00"/>
    <circle id="Ellipse_340" data-name="Ellipse 340" cx="5.704" cy="5.704" r="5.704" transform="translate(512.014 113.038)" fill="#ff8d00"/>
    <circle id="Ellipse_341" data-name="Ellipse 341" cx="5.704" cy="5.704" r="5.704" transform="translate(525.211 113.038)" fill="#ff8d00"/>
    <circle id="Ellipse_342" data-name="Ellipse 342" cx="5.704" cy="5.704" r="5.704" transform="translate(538.409 113.038)" fill="#ff8d00"/>
    <circle id="Ellipse_343" data-name="Ellipse 343" cx="5.704" cy="5.704" r="5.704" transform="translate(551.606 113.038)" fill="#ff8d00"/>
    <circle id="Ellipse_344" data-name="Ellipse 344" cx="5.704" cy="5.704" r="5.704" transform="translate(564.803 113.038)" fill="#ff8d00"/>
    <circle id="Ellipse_345" data-name="Ellipse 345" cx="5.704" cy="5.704" r="5.704" transform="translate(578 113.038)" fill="#ff8d00"/>
    <circle id="Ellipse_346" data-name="Ellipse 346" cx="5.704" cy="5.704" r="5.704" transform="translate(591.197 113.038)" fill="#ff8d00"/>
    <circle id="Ellipse_347" data-name="Ellipse 347" cx="5.704" cy="5.704" r="5.704" transform="translate(604.394 113.038)" fill="#ff8d00"/>
    <circle id="Ellipse_348" data-name="Ellipse 348" cx="5.704" cy="5.704" r="5.704" transform="translate(617.592 113.038)" fill="#ff8d00"/>
    <circle id="Ellipse_349" data-name="Ellipse 349" cx="5.704" cy="5.704" r="5.704" transform="translate(630.789 113.038)" fill="#ff8d00"/>
    <circle id="Ellipse_350" data-name="Ellipse 350" cx="5.704" cy="5.704" r="5.704" transform="translate(643.986 113.038)" fill="#ff8d00"/>
    <circle id="Ellipse_351" data-name="Ellipse 351" cx="5.704" cy="5.704" r="5.704" transform="translate(657.183 113.038)" fill="#ff8d00"/>
    <circle id="Ellipse_352" data-name="Ellipse 352" cx="5.704" cy="5.704" r="5.704" transform="translate(670.38 113.038)" fill="#ff8d00"/>
    <circle id="Ellipse_353" data-name="Ellipse 353" cx="5.704" cy="5.704" r="5.704" transform="translate(683.577 113.038)" fill="#ff8d00"/>
    <circle id="Ellipse_354" data-name="Ellipse 354" cx="5.704" cy="5.704" r="5.704" transform="translate(696.775 113.038)" fill="#ff8d00"/>
    <circle id="Ellipse_355" data-name="Ellipse 355" cx="5.704" cy="5.704" r="5.704" transform="translate(328.079 193.87)" fill="#ff8d00"/>
    <circle id="Ellipse_356" data-name="Ellipse 356" cx="5.704" cy="5.704" r="5.704" transform="translate(341.276 193.87)" fill="#ff8d00"/>
    <circle id="Ellipse_357" data-name="Ellipse 357" cx="5.704" cy="5.704" r="5.704" transform="translate(354.473 193.87)" fill="#ff8d00"/>
    <circle id="Ellipse_358" data-name="Ellipse 358" cx="5.704" cy="5.704" r="5.704" transform="translate(367.67 193.87)" fill="#ff8d00"/>
    <circle id="Ellipse_359" data-name="Ellipse 359" cx="5.704" cy="5.704" r="5.704" transform="translate(380.867 193.87)" fill="#ff8d00"/>
    <circle id="Ellipse_360" data-name="Ellipse 360" cx="5.704" cy="5.704" r="5.704" transform="translate(394.064 193.87)" fill="#ff8d00"/>
    <circle id="Ellipse_361" data-name="Ellipse 361" cx="5.704" cy="5.704" r="5.704" transform="translate(407.262 193.87)" fill="#ff8d00"/>
    <circle id="Ellipse_362" data-name="Ellipse 362" cx="5.704" cy="5.704" r="5.704" transform="translate(420.459 193.87)" fill="#ff8d00"/>
    <circle id="Ellipse_363" data-name="Ellipse 363" cx="5.704" cy="5.704" r="5.704" transform="translate(433.656 193.87)" fill="#ff8d00"/>
    <circle id="Ellipse_364" data-name="Ellipse 364" cx="5.704" cy="5.704" r="5.704" transform="translate(446.853 193.87)" fill="#ff8d00"/>
    <circle id="Ellipse_365" data-name="Ellipse 365" cx="5.704" cy="5.704" r="5.704" transform="translate(460.05 193.87)" fill="#ff8d00"/>
    <circle id="Ellipse_366" data-name="Ellipse 366" cx="5.704" cy="5.704" r="5.704" transform="translate(473.248 193.87)" fill="#ff8d00"/>
    <circle id="Ellipse_367" data-name="Ellipse 367" cx="5.704" cy="5.704" r="5.704" transform="translate(486.445 193.87)" fill="#ff8d00"/>
    <circle id="Ellipse_368" data-name="Ellipse 368" cx="5.704" cy="5.704" r="5.704" transform="translate(499.642 193.87)" fill="#ff8d00"/>
    <circle id="Ellipse_369" data-name="Ellipse 369" cx="5.704" cy="5.704" r="5.704" transform="translate(512.839 193.87)" fill="#ff8d00"/>
    <circle id="Ellipse_370" data-name="Ellipse 370" cx="5.704" cy="5.704" r="5.704" transform="translate(526.036 193.87)" fill="#ff8d00"/>
    <circle id="Ellipse_371" data-name="Ellipse 371" cx="5.704" cy="5.704" r="5.704" transform="translate(539.233 193.87)" fill="#ff8d00"/>
    <circle id="Ellipse_372" data-name="Ellipse 372" cx="5.704" cy="5.704" r="5.704" transform="translate(552.431 193.87)" fill="#ff8d00"/>
    <circle id="Ellipse_373" data-name="Ellipse 373" cx="5.704" cy="5.704" r="5.704" transform="translate(565.628 193.87)" fill="#ff8d00"/>
    <circle id="Ellipse_374" data-name="Ellipse 374" cx="5.704" cy="5.704" r="5.704" transform="translate(578.825 193.87)" fill="#ff8d00"/>
    <circle id="Ellipse_375" data-name="Ellipse 375" cx="5.704" cy="5.704" r="5.704" transform="translate(592.022 193.87)" fill="#ff8d00"/>
    <circle id="Ellipse_376" data-name="Ellipse 376" cx="5.704" cy="5.704" r="5.704" transform="translate(605.219 193.87)" fill="#ff8d00"/>
    <circle id="Ellipse_377" data-name="Ellipse 377" cx="5.704" cy="5.704" r="5.704" transform="translate(618.416 193.87)" fill="#ff8d00"/>
    <circle id="Ellipse_378" data-name="Ellipse 378" cx="5.704" cy="5.704" r="5.704" transform="translate(631.614 193.87)" fill="#ff8d00"/>
    <circle id="Ellipse_379" data-name="Ellipse 379" cx="5.704" cy="5.704" r="5.704" transform="translate(644.811 193.87)" fill="#ff8d00"/>
    <circle id="Ellipse_380" data-name="Ellipse 380" cx="5.704" cy="5.704" r="5.704" transform="translate(658.008 193.87)" fill="#ff8d00"/>
    <circle id="Ellipse_381" data-name="Ellipse 381" cx="5.704" cy="5.704" r="5.704" transform="translate(671.205 193.87)" fill="#ff8d00"/>
    <circle id="Ellipse_382" data-name="Ellipse 382" cx="5.704" cy="5.704" r="5.704" transform="translate(684.402 193.87)" fill="#ff8d00"/>
    <circle id="Ellipse_383" data-name="Ellipse 383" cx="5.704" cy="5.704" r="5.704" transform="translate(697.599 193.87)" fill="#ff8d00"/>
    <circle id="Ellipse_384" data-name="Ellipse 384" cx="5.704" cy="5.704" r="5.704" transform="translate(710.797 274.703)" fill="#ff8d00"/>
    <circle id="Ellipse_385" data-name="Ellipse 385" cx="5.704" cy="5.704" r="5.704" transform="translate(723.994 274.703)" fill="#ff8d00"/>
    <circle id="Ellipse_386" data-name="Ellipse 386" cx="5.704" cy="5.704" r="5.704" transform="translate(737.191 274.703)" fill="#ff8d00"/>
    <circle id="Ellipse_387" data-name="Ellipse 387" cx="5.704" cy="5.704" r="5.704" transform="translate(750.388 274.703)" fill="#ff8d00"/>
    <circle id="Ellipse_388" data-name="Ellipse 388" cx="5.704" cy="5.704" r="5.704" transform="translate(763.585 274.703)" fill="#ff8d00"/>
    <circle id="Ellipse_389" data-name="Ellipse 389" cx="5.704" cy="5.704" r="5.704" transform="translate(776.782 274.703)" fill="#ff8d00"/>
    <circle id="Ellipse_390" data-name="Ellipse 390" cx="5.704" cy="5.704" r="5.704" transform="translate(789.98 274.703)" fill="#ff8d00"/>
    <circle id="Ellipse_391" data-name="Ellipse 391" cx="5.704" cy="5.704" r="5.704" transform="translate(803.177 274.703)" fill="#ff8d00"/>
    <circle id="Ellipse_392" data-name="Ellipse 392" cx="5.704" cy="5.704" r="5.704" transform="translate(327.254 274.703)" fill="#ff8d00"/>
    <circle id="Ellipse_393" data-name="Ellipse 393" cx="5.704" cy="5.704" r="5.704" transform="translate(340.451 274.703)" fill="#ff8d00"/>
    <circle id="Ellipse_394" data-name="Ellipse 394" cx="5.704" cy="5.704" r="5.704" transform="translate(353.648 274.703)" fill="#ff8d00"/>
    <circle id="Ellipse_395" data-name="Ellipse 395" cx="5.704" cy="5.704" r="5.704" transform="translate(366.845 274.703)" fill="#ff8d00"/>
    <circle id="Ellipse_396" data-name="Ellipse 396" cx="5.704" cy="5.704" r="5.704" transform="translate(380.043 274.703)" fill="#ff8d00"/>
    <circle id="Ellipse_397" data-name="Ellipse 397" cx="5.704" cy="5.704" r="5.704" transform="translate(393.24 274.703)" fill="#ff8d00"/>
    <circle id="Ellipse_398" data-name="Ellipse 398" cx="5.704" cy="5.704" r="5.704" transform="translate(406.437 274.703)" fill="#ff8d00"/>
    <circle id="Ellipse_399" data-name="Ellipse 399" cx="5.704" cy="5.704" r="5.704" transform="translate(419.634 274.703)" fill="#ff8d00"/>
    <circle id="Ellipse_400" data-name="Ellipse 400" cx="5.704" cy="5.704" r="5.704" transform="translate(432.831 274.703)" fill="#ff8d00"/>
    <circle id="Ellipse_401" data-name="Ellipse 401" cx="5.704" cy="5.704" r="5.704" transform="translate(446.028 274.703)" fill="#ff8d00"/>
    <circle id="Ellipse_402" data-name="Ellipse 402" cx="5.704" cy="5.704" r="5.704" transform="translate(459.226 274.703)" fill="#ff8d00"/>
    <circle id="Ellipse_403" data-name="Ellipse 403" cx="5.704" cy="5.704" r="5.704" transform="translate(472.423 274.703)" fill="#ff8d00"/>
    <circle id="Ellipse_404" data-name="Ellipse 404" cx="5.704" cy="5.704" r="5.704" transform="translate(485.62 274.703)" fill="#ff8d00"/>
    <circle id="Ellipse_405" data-name="Ellipse 405" cx="5.704" cy="5.704" r="5.704" transform="translate(498.817 274.703)" fill="#ff8d00"/>
    <circle id="Ellipse_406" data-name="Ellipse 406" cx="5.704" cy="5.704" r="5.704" transform="translate(512.014 274.703)" fill="#ff8d00"/>
    <circle id="Ellipse_407" data-name="Ellipse 407" cx="5.704" cy="5.704" r="5.704" transform="translate(525.211 274.703)" fill="#ff8d00"/>
    <circle id="Ellipse_408" data-name="Ellipse 408" cx="5.704" cy="5.704" r="5.704" transform="translate(538.409 274.703)" fill="#ff8d00"/>
    <circle id="Ellipse_409" data-name="Ellipse 409" cx="5.704" cy="5.704" r="5.704" transform="translate(551.606 274.703)" fill="#ff8d00"/>
    <circle id="Ellipse_410" data-name="Ellipse 410" cx="5.704" cy="5.704" r="5.704" transform="translate(564.803 274.703)" fill="#ff8d00"/>
    <circle id="Ellipse_411" data-name="Ellipse 411" cx="5.704" cy="5.704" r="5.704" transform="translate(578 274.703)" fill="#ff8d00"/>
    <circle id="Ellipse_412" data-name="Ellipse 412" cx="5.704" cy="5.704" r="5.704" transform="translate(591.197 274.703)" fill="#ff8d00"/>
    <circle id="Ellipse_413" data-name="Ellipse 413" cx="5.704" cy="5.704" r="5.704" transform="translate(604.394 274.703)" fill="#ff8d00"/>
    <circle id="Ellipse_414" data-name="Ellipse 414" cx="5.704" cy="5.704" r="5.704" transform="translate(617.592 274.703)" fill="#ff8d00"/>
    <circle id="Ellipse_415" data-name="Ellipse 415" cx="5.704" cy="5.704" r="5.704" transform="translate(630.789 274.703)" fill="#ff8d00"/>
    <circle id="Ellipse_416" data-name="Ellipse 416" cx="5.704" cy="5.704" r="5.704" transform="translate(643.986 274.703)" fill="#ff8d00"/>
    <circle id="Ellipse_417" data-name="Ellipse 417" cx="5.704" cy="5.704" r="5.704" transform="translate(657.183 274.703)" fill="#ff8d00"/>
    <circle id="Ellipse_418" data-name="Ellipse 418" cx="5.704" cy="5.704" r="5.704" transform="translate(670.38 274.703)" fill="#ff8d00"/>
    <circle id="Ellipse_419" data-name="Ellipse 419" cx="5.704" cy="5.704" r="5.704" transform="translate(683.577 274.703)" fill="#ff8d00"/>
    <circle id="Ellipse_420" data-name="Ellipse 420" cx="5.704" cy="5.704" r="5.704" transform="translate(696.775 274.703)" fill="#ff8d00"/>
    <circle id="Ellipse_421" data-name="Ellipse 421" cx="5.704" cy="5.704" r="5.704" transform="translate(843.593 274.703)" fill="#ff8d00"/>
    <circle id="Ellipse_422" data-name="Ellipse 422" cx="5.704" cy="5.704" r="5.704" transform="translate(856.79 274.703)" fill="#ff8d00"/>
    <circle id="Ellipse_423" data-name="Ellipse 423" cx="5.704" cy="5.704" r="5.704" transform="translate(869.988 274.703)" fill="#ff8d00"/>
    <circle id="Ellipse_424" data-name="Ellipse 424" cx="5.704" cy="5.704" r="5.704" transform="translate(883.185 274.703)" fill="#ff8d00"/>
    <circle id="Ellipse_425" data-name="Ellipse 425" cx="5.704" cy="5.704" r="5.704" transform="translate(896.382 274.703)" fill="#ff8d00"/>
    <circle id="Ellipse_426" data-name="Ellipse 426" cx="5.704" cy="5.704" r="5.704" transform="translate(909.579 274.703)" fill="#ff8d00"/>
    <circle id="Ellipse_427" data-name="Ellipse 427" cx="5.704" cy="5.704" r="5.704" transform="translate(922.776 274.703)" fill="#ff8d00"/>
    <circle id="Ellipse_428" data-name="Ellipse 428" cx="5.704" cy="5.704" r="5.704" transform="translate(935.973 274.703)" fill="#ff8d00"/>
    <circle id="Ellipse_429" data-name="Ellipse 429" cx="5.704" cy="5.704" r="5.704" transform="translate(816.374 274.703)" fill="#ff8d00"/>
    <circle id="Ellipse_430" data-name="Ellipse 430" cx="5.704" cy="5.704" r="5.704" transform="translate(829.571 274.703)" fill="#ff8d00"/>
    <circle id="Ellipse_431" data-name="Ellipse 431" cx="5.704" cy="5.704" r="5.704" transform="translate(710.797 355.536)" fill="#ff8d00"/>
    <circle id="Ellipse_432" data-name="Ellipse 432" cx="5.704" cy="5.704" r="5.704" transform="translate(723.994 355.536)" fill="#ff8d00"/>
    <circle id="Ellipse_433" data-name="Ellipse 433" cx="5.704" cy="5.704" r="5.704" transform="translate(737.191 355.536)" fill="#ff8d00"/>
    <circle id="Ellipse_434" data-name="Ellipse 434" cx="5.704" cy="5.704" r="5.704" transform="translate(750.388 355.536)" fill="#ff8d00"/>
    <circle id="Ellipse_435" data-name="Ellipse 435" cx="5.704" cy="5.704" r="5.704" transform="translate(763.585 355.536)" fill="#ff8d00"/>
    <circle id="Ellipse_436" data-name="Ellipse 436" cx="5.704" cy="5.704" r="5.704" transform="translate(776.782 355.536)" fill="#ff8d00"/>
    <circle id="Ellipse_437" data-name="Ellipse 437" cx="5.704" cy="5.704" r="5.704" transform="translate(789.98 355.536)" fill="#ff8d00"/>
    <circle id="Ellipse_438" data-name="Ellipse 438" cx="5.704" cy="5.704" r="5.704" transform="translate(803.177 355.536)" fill="#ff8d00"/>
    <circle id="Ellipse_439" data-name="Ellipse 439" cx="5.704" cy="5.704" r="5.704" transform="translate(327.254 355.536)" fill="#ff8d00"/>
    <circle id="Ellipse_440" data-name="Ellipse 440" cx="5.704" cy="5.704" r="5.704" transform="translate(340.451 355.536)" fill="#ff8d00"/>
    <circle id="Ellipse_441" data-name="Ellipse 441" cx="5.704" cy="5.704" r="5.704" transform="translate(353.648 355.536)" fill="#ff8d00"/>
    <circle id="Ellipse_442" data-name="Ellipse 442" cx="5.704" cy="5.704" r="5.704" transform="translate(366.845 355.536)" fill="#ff8d00"/>
    <circle id="Ellipse_443" data-name="Ellipse 443" cx="5.704" cy="5.704" r="5.704" transform="translate(380.043 355.536)" fill="#ff8d00"/>
    <circle id="Ellipse_444" data-name="Ellipse 444" cx="5.704" cy="5.704" r="5.704" transform="translate(393.24 355.536)" fill="#ff8d00"/>
    <circle id="Ellipse_445" data-name="Ellipse 445" cx="5.704" cy="5.704" r="5.704" transform="translate(406.437 355.536)" fill="#ff8d00"/>
    <circle id="Ellipse_446" data-name="Ellipse 446" cx="5.704" cy="5.704" r="5.704" transform="translate(419.634 355.536)" fill="#ff8d00"/>
    <circle id="Ellipse_447" data-name="Ellipse 447" cx="5.704" cy="5.704" r="5.704" transform="translate(432.831 355.536)" fill="#ff8d00"/>
    <circle id="Ellipse_448" data-name="Ellipse 448" cx="5.704" cy="5.704" r="5.704" transform="translate(446.028 355.536)" fill="#ff8d00"/>
    <circle id="Ellipse_449" data-name="Ellipse 449" cx="5.704" cy="5.704" r="5.704" transform="translate(459.226 355.536)" fill="#ff8d00"/>
    <circle id="Ellipse_450" data-name="Ellipse 450" cx="5.704" cy="5.704" r="5.704" transform="translate(472.423 355.536)" fill="#ff8d00"/>
    <circle id="Ellipse_451" data-name="Ellipse 451" cx="5.704" cy="5.704" r="5.704" transform="translate(485.62 355.536)" fill="#ff8d00"/>
    <circle id="Ellipse_452" data-name="Ellipse 452" cx="5.704" cy="5.704" r="5.704" transform="translate(498.817 355.536)" fill="#ff8d00"/>
    <circle id="Ellipse_453" data-name="Ellipse 453" cx="5.704" cy="5.704" r="5.704" transform="translate(512.014 355.536)" fill="#ff8d00"/>
    <circle id="Ellipse_454" data-name="Ellipse 454" cx="5.704" cy="5.704" r="5.704" transform="translate(525.211 355.536)" fill="#ff8d00"/>
    <circle id="Ellipse_455" data-name="Ellipse 455" cx="5.704" cy="5.704" r="5.704" transform="translate(538.409 355.536)" fill="#ff8d00"/>
    <circle id="Ellipse_456" data-name="Ellipse 456" cx="5.704" cy="5.704" r="5.704" transform="translate(551.606 355.536)" fill="#ff8d00"/>
    <circle id="Ellipse_457" data-name="Ellipse 457" cx="5.704" cy="5.704" r="5.704" transform="translate(564.803 355.536)" fill="#ff8d00"/>
    <circle id="Ellipse_458" data-name="Ellipse 458" cx="5.704" cy="5.704" r="5.704" transform="translate(578 355.536)" fill="#ff8d00"/>
    <circle id="Ellipse_459" data-name="Ellipse 459" cx="5.704" cy="5.704" r="5.704" transform="translate(591.197 355.536)" fill="#ff8d00"/>
    <circle id="Ellipse_460" data-name="Ellipse 460" cx="5.704" cy="5.704" r="5.704" transform="translate(604.394 355.536)" fill="#ff8d00"/>
    <circle id="Ellipse_461" data-name="Ellipse 461" cx="5.704" cy="5.704" r="5.704" transform="translate(617.592 355.536)" fill="#ff8d00"/>
    <circle id="Ellipse_462" data-name="Ellipse 462" cx="5.704" cy="5.704" r="5.704" transform="translate(630.789 355.536)" fill="#ff8d00"/>
    <circle id="Ellipse_463" data-name="Ellipse 463" cx="5.704" cy="5.704" r="5.704" transform="translate(643.986 355.536)" fill="#ff8d00"/>
    <circle id="Ellipse_464" data-name="Ellipse 464" cx="5.704" cy="5.704" r="5.704" transform="translate(657.183 355.536)" fill="#ff8d00"/>
    <circle id="Ellipse_465" data-name="Ellipse 465" cx="5.704" cy="5.704" r="5.704" transform="translate(670.38 355.536)" fill="#ff8d00"/>
    <circle id="Ellipse_466" data-name="Ellipse 466" cx="5.704" cy="5.704" r="5.704" transform="translate(683.577 355.536)" fill="#ff8d00"/>
    <circle id="Ellipse_467" data-name="Ellipse 467" cx="5.704" cy="5.704" r="5.704" transform="translate(696.775 355.536)" fill="#ff8d00"/>
    <circle id="Ellipse_468" data-name="Ellipse 468" cx="5.704" cy="5.704" r="5.704" transform="translate(843.593 355.536)" fill="#ff8d00"/>
    <circle id="Ellipse_469" data-name="Ellipse 469" cx="5.704" cy="5.704" r="5.704" transform="translate(856.79 355.536)" fill="#ff8d00"/>
    <circle id="Ellipse_470" data-name="Ellipse 470" cx="5.704" cy="5.704" r="5.704" transform="translate(869.988 355.536)" fill="#ff8d00"/>
    <circle id="Ellipse_471" data-name="Ellipse 471" cx="5.704" cy="5.704" r="5.704" transform="translate(816.374 355.536)" fill="#ff8d00"/>
    <circle id="Ellipse_472" data-name="Ellipse 472" cx="5.704" cy="5.704" r="5.704" transform="translate(829.571 355.536)" fill="#ff8d00"/>
    <g id="Group_194" data-name="Group 194" transform="translate(-282.675 -321.94)">
        <path id="Path_792" data-name="Path 792" d="M1313.145,363.77h-1.152v2.312h-2.311V363.77h-5.776l1.288-9.239h2.313l-1.007,6.935h3.182v-5.775h2.311v5.775h1.152Z" fill="#fff"/>
        <path id="Path_793" data-name="Path 793" d="M1323.455,362.779a3,3,0,0,1-.354,1.442,3.6,3.6,0,0,1-.97,1.14,4.734,4.734,0,0,1-1.439.749,5.862,5.862,0,0,1-3.511,0,4.716,4.716,0,0,1-1.438-.749,3.6,3.6,0,0,1-.971-1.14,3,3,0,0,1-.354-1.442,3.273,3.273,0,0,1,.471-1.692,3.627,3.627,0,0,1,.551-.7,3.4,3.4,0,0,1,.726-.544,2.74,2.74,0,0,1-.447-.5,3.584,3.584,0,0,1-.338-.6,3.177,3.177,0,0,1-.214-.648,3.087,3.087,0,0,1-.072-.665,2.751,2.751,0,0,1,.3-1.268,3.38,3.38,0,0,1,.826-1.039,3.986,3.986,0,0,1,1.224-.705,4.458,4.458,0,0,1,2.989,0,4.031,4.031,0,0,1,1.228.705,3.335,3.335,0,0,1,.83,1.039,2.753,2.753,0,0,1,.3,1.268,2.968,2.968,0,0,1-.076.665,3.793,3.793,0,0,1-.214.652,3.317,3.317,0,0,1-.334.6,2.988,2.988,0,0,1-.447.508,3.541,3.541,0,0,1,.716.54,3.365,3.365,0,0,1,.9,1.5A3.232,3.232,0,0,1,1323.455,362.779Zm-2.295-.065a1.536,1.536,0,0,0-.174-.72,1.854,1.854,0,0,0-.474-.584,2.345,2.345,0,0,0-.709-.395,2.555,2.555,0,0,0-.866-.145,2.516,2.516,0,0,0-.862.145,2.338,2.338,0,0,0-.7.395,1.858,1.858,0,0,0-.475.584,1.537,1.537,0,0,0-.173.72,1.468,1.468,0,0,0,.173.709,1.727,1.727,0,0,0,.475.556,2.347,2.347,0,0,0,.7.367,2.751,2.751,0,0,0,.862.133,2.794,2.794,0,0,0,.866-.133,2.355,2.355,0,0,0,.709-.367,1.724,1.724,0,0,0,.474-.556A1.467,1.467,0,0,0,1321.16,362.714Zm-.629-5.026a1.137,1.137,0,0,0-.125-.527,1.4,1.4,0,0,0-.338-.431,1.561,1.561,0,0,0-.5-.29,1.775,1.775,0,0,0-.611-.105,1.8,1.8,0,0,0-.62.105,1.584,1.584,0,0,0-.5.29,1.42,1.42,0,0,0-.338.431,1.137,1.137,0,0,0-.125.527,1.116,1.116,0,0,0,.125.524,1.339,1.339,0,0,0,.338.419,1.69,1.69,0,0,0,.5.282,1.822,1.822,0,0,0,.62.105,1.8,1.8,0,0,0,.611-.105,1.663,1.663,0,0,0,.5-.282,1.324,1.324,0,0,0,.338-.419A1.116,1.116,0,0,0,1320.531,357.688Z" fill="#fff"/>
        <path id="Path_794" data-name="Path 794" d="M1333.121,362.449a3.748,3.748,0,0,1-.3,1.522,3.447,3.447,0,0,1-.8,1.144,3.484,3.484,0,0,1-1.155.717,3.82,3.82,0,0,1-1.374.25h-4.655V363.77h4.655a1.589,1.589,0,0,0,.472-.073,1.162,1.162,0,0,0,.732-.644,1.415,1.415,0,0,0,.117-.6,1.307,1.307,0,0,0-.117-.568,1.232,1.232,0,0,0-.3-.411,1.33,1.33,0,0,0-.427-.25,1.408,1.408,0,0,0-.472-.084h-4.655l.677-6.6h7.128v2.312h-5.05l-.21,1.981h2.11a3.82,3.82,0,0,1,1.374.25,3.43,3.43,0,0,1,1.155.721,3.5,3.5,0,0,1,.8,1.143A3.7,3.7,0,0,1,1333.121,362.449Z" fill="#fff"/>
        <path id="Path_795" data-name="Path 795" d="M1341.7,366.082h-2.311V354.531h2.311v5.775l4.3-5.775h2.626l-3.649,4.873,3.649,6.678H1346l-2.537-4.672-1.765,2.36Z" fill="#fff"/>
        <path id="Path_796" data-name="Path 796" d="M1361.16,366.082h-2.3v-8.249a1.1,1.1,0,0,0-.092-.451,1.224,1.224,0,0,0-.249-.366,1.154,1.154,0,0,0-.368-.246,1.16,1.16,0,0,0-1.268.246,1.147,1.147,0,0,0-.334.817v8.249h-2.312v-8.249a1.166,1.166,0,0,0-.088-.451,1.148,1.148,0,0,0-.247-.366,1.124,1.124,0,0,0-.366-.246,1.2,1.2,0,0,0-.9,0,1.144,1.144,0,0,0-.7,1.063v8.249h-2.312v-8.249a3.4,3.4,0,0,1,.27-1.349,3.441,3.441,0,0,1,1.844-1.844,3.382,3.382,0,0,1,1.349-.27,3.423,3.423,0,0,1,1.241.229,1.192,1.192,0,0,0,2.138,0,3.481,3.481,0,0,1,2.586.041,3.448,3.448,0,0,1,2.114,3.193Z" fill="#fff"/>
    </g>
    <g id="Group_195" data-name="Group 195" transform="translate(-282.675 -321.94)">
        <path id="Path_797" data-name="Path 797" d="M1124.771,443.451a3.333,3.333,0,0,1-.273,1.344,3.516,3.516,0,0,1-1.845,1.845,3.322,3.322,0,0,1-1.345.274h-4.623V444.6h4.623a1.146,1.146,0,0,0,.818-.335,1.163,1.163,0,0,0,0-1.635,1.14,1.14,0,0,0-.818-.334h-3.15v-2.312h3.15a1.131,1.131,0,0,0,.451-.089,1.151,1.151,0,0,0,.367-.246,1.117,1.117,0,0,0,.245-.37,1.156,1.156,0,0,0,.089-.455,1.151,1.151,0,0,0-.334-.818,1.164,1.164,0,0,0-.367-.245,1.148,1.148,0,0,0-.451-.089h-4.623v-2.312h4.623a3.338,3.338,0,0,1,1.345.274,3.515,3.515,0,0,1,1.845,1.845,3.334,3.334,0,0,1,.273,1.345,3.389,3.389,0,0,1-.233,1.236,3.494,3.494,0,0,1-.661,1.076,3.489,3.489,0,0,1,.661,1.075A3.394,3.394,0,0,1,1124.771,443.451Z" fill="#fff"/>
        <path id="Path_798" data-name="Path 798" d="M1134.042,435.363l-3.946,11.551h-2.473l3.246-9.239h-4.914v-2.312Z" fill="#fff"/>
        <path id="Path_799" data-name="Path 799" d="M1143.612,439.608a10.627,10.627,0,0,1-.221,2.171,9.956,9.956,0,0,1-.641,2,8.807,8.807,0,0,1-1.022,1.74,7.538,7.538,0,0,1-1.37,1.393h-3.117a8.966,8.966,0,0,0,.95-.7,10.059,10.059,0,0,0,.874-.829,9.386,9.386,0,0,0,.769-.935,8.393,8.393,0,0,0,.629-1.014,4.467,4.467,0,0,1-.757.4,2.175,2.175,0,0,1-.83.165,4.531,4.531,0,0,1-1.764-.326,3.834,3.834,0,0,1-1.333-.91,3.984,3.984,0,0,1-.846-1.39,5.107,5.107,0,0,1-.294-1.764,4.684,4.684,0,0,1,.335-1.768,4.582,4.582,0,0,1,.922-1.458,4.316,4.316,0,0,1,1.393-.986,4.207,4.207,0,0,1,1.748-.363,4.416,4.416,0,0,1,1.784.363,4.607,4.607,0,0,1,2.433,2.444A4.447,4.447,0,0,1,1143.612,439.608Zm-2.472,0a2.43,2.43,0,0,0-.154-.854,2.314,2.314,0,0,0-.43-.725,2.105,2.105,0,0,0-.665-.5,1.957,1.957,0,0,0-.854-.185,1.98,1.98,0,0,0-.858.181,2.07,2.07,0,0,0-.657.487,2.125,2.125,0,0,0-.418.717,2.612,2.612,0,0,0-.145.878,2.546,2.546,0,0,0,.145.866,2.116,2.116,0,0,0,.418.713,1.985,1.985,0,0,0,1.515.661,2.057,2.057,0,0,0,.866-.178,1.969,1.969,0,0,0,.664-.483,2.162,2.162,0,0,0,.423-.713A2.479,2.479,0,0,0,1141.14,439.608Z" fill="#fff"/>
        <path id="Path_800" data-name="Path 800" d="M1152.238,446.914h-2.311V435.363h2.311v5.776l4.3-5.776h2.626l-3.649,4.873,3.649,6.678h-2.626L1154,442.242l-1.765,2.361Z" fill="#fff"/>
        <path id="Path_801" data-name="Path 801" d="M1171.7,446.914h-2.3v-8.248a1.1,1.1,0,0,0-.093-.451,1.216,1.216,0,0,0-.249-.367,1.173,1.173,0,0,0-.367-.245,1.187,1.187,0,0,0-.9,0,1.163,1.163,0,0,0-.367.245,1.151,1.151,0,0,0-.334.818v8.248h-2.312v-8.248a1.137,1.137,0,0,0-.7-1.063,1.149,1.149,0,0,0-1.6,1.063v8.248h-2.312v-8.248a3.4,3.4,0,0,1,.27-1.35,3.449,3.449,0,0,1,1.844-1.844,3.442,3.442,0,0,1,3.662.624,3.356,3.356,0,0,1,1.066-.664,3.474,3.474,0,0,1,2.586.04,3.456,3.456,0,0,1,1.845,1.844,3.422,3.422,0,0,1,.269,1.35Z" fill="#fff"/>
    </g>
    <g id="Group_196" data-name="Group 196" transform="translate(-282.675 -321.94)">
        <path id="Path_802" data-name="Path 802" d="M1217.212,524.61h-1.151v2.312h-2.312V524.61h-5.775l1.288-9.239h2.312l-1.007,6.936h3.182v-5.776h2.312v5.776h1.151Z" fill="#fff"/>
        <path id="Path_803" data-name="Path 803" d="M1226.7,518.835a3.364,3.364,0,0,1-.273,1.349,3.508,3.508,0,0,1-1.845,1.848,3.324,3.324,0,0,1-1.346.275h-1.159a1.14,1.14,0,0,0-.818.334,1.105,1.105,0,0,0-.245.366,1.126,1.126,0,0,0-.089.451v1.152h5.461v2.312h-7.773v-3.464a3.348,3.348,0,0,1,.274-1.349,3.507,3.507,0,0,1,.745-1.1,3.446,3.446,0,0,1,1.1-.741,3.374,3.374,0,0,1,1.346-.27h1.159a1.151,1.151,0,0,0,.819-.335,1.123,1.123,0,0,0,.245-.37,1.18,1.18,0,0,0,.089-.455,1.143,1.143,0,0,0-.7-1.064,1.163,1.163,0,0,0-.451-.088h-4.124v-2.312h4.124a3.34,3.34,0,0,1,1.346.274,3.518,3.518,0,0,1,1.845,1.844A3.339,3.339,0,0,1,1226.7,518.835Z" fill="#fff"/>
        <path id="Path_804" data-name="Path 804" d="M1237.237,521.146a9.229,9.229,0,0,1-.363,2.78,4.966,4.966,0,0,1-.99,1.836,3.643,3.643,0,0,1-1.47,1.01,5.163,5.163,0,0,1-1.8.311,5.054,5.054,0,0,1-1.8-.318,3.678,3.678,0,0,1-1.466-1.023,5.068,5.068,0,0,1-.987-1.837,10.754,10.754,0,0,1,0-5.533,5.023,5.023,0,0,1,.987-1.833,3.658,3.658,0,0,1,1.466-1.015,5.288,5.288,0,0,1,3.6,0,3.687,3.687,0,0,1,1.47,1.028,5.038,5.038,0,0,1,.99,1.836A9.075,9.075,0,0,1,1237.237,521.146Zm-2.2,0a5.108,5.108,0,0,0-.641-2.859,2.041,2.041,0,0,0-1.784-.934,2.009,2.009,0,0,0-1.763.926,6.832,6.832,0,0,0,0,5.727,2,2,0,0,0,1.763.934,2.229,2.229,0,0,0,1.024-.229,2,2,0,0,0,.76-.7,3.571,3.571,0,0,0,.476-1.18A7.63,7.63,0,0,0,1235.038,521.146Z" fill="#fff"/>
        <path id="Path_805" data-name="Path 805" d="M1241.457,526.1a1.423,1.423,0,0,1-.1.543,1.366,1.366,0,0,1-.29.439,1.423,1.423,0,0,1-.435.294,1.392,1.392,0,0,1-1.075,0,1.428,1.428,0,0,1-.444-.294,1.353,1.353,0,0,1-.3-.439,1.338,1.338,0,0,1-.11-.543,1.3,1.3,0,0,1,.11-.533,1.353,1.353,0,0,1,.3-.434,1.41,1.41,0,0,1,.444-.294,1.368,1.368,0,0,1,1.075,0,1.4,1.4,0,0,1,.435.294,1.366,1.366,0,0,1,.29.434A1.38,1.38,0,0,1,1241.457,526.1Z" fill="#fff"/>
        <path id="Path_806" data-name="Path 806" d="M1250.406,515.371l-3.946,11.551h-2.473l3.246-9.239h-4.914v-2.312Z" fill="#fff"/>
        <path id="Path_807" data-name="Path 807" d="M1258.438,526.922h-2.312V515.371h2.312v5.775l4.3-5.775h2.626l-3.649,4.873,3.649,6.678h-2.626l-2.537-4.672-1.764,2.36Z" fill="#fff"/>
        <path id="Path_808" data-name="Path 808" d="M1277.9,526.922h-2.3v-8.248a1.1,1.1,0,0,0-.093-.451,1.215,1.215,0,0,0-.249-.367,1.161,1.161,0,0,0-1.636,0,1.151,1.151,0,0,0-.334.818v8.248h-2.311v-8.248a1.159,1.159,0,0,0-1.6-1.064,1.151,1.151,0,0,0-.366.246,1.151,1.151,0,0,0-.334.818v8.248h-2.312v-8.248a3.4,3.4,0,0,1,.27-1.35,3.452,3.452,0,0,1,1.845-1.845,3.557,3.557,0,0,0,4.727-.04,3.487,3.487,0,0,1,2.586.04,3.453,3.453,0,0,1,1.845,1.845,3.4,3.4,0,0,1,.269,1.35Z" fill="#fff"/>
    </g>
    <g id="Group_197" data-name="Group 197" transform="translate(-282.675 -321.94)">
        <path id="Path_809" data-name="Path 809" d="M1424.9,604.122a3.738,3.738,0,0,1-.3,1.523,3.409,3.409,0,0,1-1.953,1.86,3.819,3.819,0,0,1-1.374.25h-4.655v-2.312h4.655a1.613,1.613,0,0,0,.472-.072,1.2,1.2,0,0,0,.427-.234,1.191,1.191,0,0,0,.305-.41,1.407,1.407,0,0,0,.118-.6,1.286,1.286,0,0,0-.118-.567,1.235,1.235,0,0,0-.305-.411,1.3,1.3,0,0,0-.427-.25,1.379,1.379,0,0,0-.472-.084h-4.655l.677-6.606h7.128v2.312h-5.05l-.21,1.981h2.11a3.84,3.84,0,0,1,1.374.25,3.43,3.43,0,0,1,1.953,1.865A3.682,3.682,0,0,1,1424.9,604.122Z" fill="#fff"/>
        <path id="Path_810" data-name="Path 810" d="M1435.069,603.518a4.671,4.671,0,0,1-.334,1.764,4.6,4.6,0,0,1-.922,1.454,4.341,4.341,0,0,1-1.4.987,4.251,4.251,0,0,1-1.752.362,4.412,4.412,0,0,1-1.776-.362,4.624,4.624,0,0,1-2.433-2.441,4.4,4.4,0,0,1-.358-1.764,10.754,10.754,0,0,1,.217-2.17,9.849,9.849,0,0,1,.636-2.006,8.635,8.635,0,0,1,1.024-1.744,7.444,7.444,0,0,1,1.369-1.394h3.117a9.3,9.3,0,0,0-.942.7,10.066,10.066,0,0,0-.874.829,9.512,9.512,0,0,0-.77.935,8.1,8.1,0,0,0-.628,1.023,4.089,4.089,0,0,1,.753-.4,2.221,2.221,0,0,1,.834-.165,4.544,4.544,0,0,1,1.76.326,3.827,3.827,0,0,1,1.333.91,4.066,4.066,0,0,1,.845,1.39A5.018,5.018,0,0,1,1435.069,603.518Zm-2.311,0a2.506,2.506,0,0,0-.149-.866,2.241,2.241,0,0,0-.422-.716,1.963,1.963,0,0,0-.662-.488,2.185,2.185,0,0,0-1.723,0,1.9,1.9,0,0,0-.656.488,2.209,2.209,0,0,0-.416.716,2.577,2.577,0,0,0-.144.866,2.46,2.46,0,0,0,.148.85,2.31,2.31,0,0,0,.423.721,2.053,2.053,0,0,0,.656.5,1.927,1.927,0,0,0,.851.185,2.044,2.044,0,0,0,.861-.177,1.95,1.95,0,0,0,.662-.488,2.227,2.227,0,0,0,.422-.72A2.541,2.541,0,0,0,1432.758,603.518Z" fill="#fff"/>
        <path id="Path_811" data-name="Path 811" d="M1444.526,604.291a3.339,3.339,0,0,1-.273,1.346,3.518,3.518,0,0,1-1.845,1.844,3.322,3.322,0,0,1-1.345.274h-4.624v-2.312h4.624a1.155,1.155,0,0,0,.818-1.969,1.16,1.16,0,0,0-.367-.246,1.148,1.148,0,0,0-.451-.088h-3.15v-2.312h3.15a1.146,1.146,0,0,0,.818-.335,1.122,1.122,0,0,0,.245-.37,1.16,1.16,0,0,0,.089-.455,1.146,1.146,0,0,0-.334-.817,1.136,1.136,0,0,0-.818-.335h-4.624V596.2h4.624a3.338,3.338,0,0,1,1.345.274,3.518,3.518,0,0,1,1.845,1.844,3.339,3.339,0,0,1,.273,1.346,3.392,3.392,0,0,1-.233,1.236,3.466,3.466,0,0,1-.661,1.075,3.506,3.506,0,0,1,.661,1.076A3.393,3.393,0,0,1,1444.526,604.291Z" fill="#fff"/>
        <path id="Path_812" data-name="Path 812" d="M1448.859,606.934a1.423,1.423,0,0,1-.1.543,1.348,1.348,0,0,1-.29.439,1.41,1.41,0,0,1-.435.294,1.392,1.392,0,0,1-1.075,0,1.424,1.424,0,0,1-.443-.294,1.377,1.377,0,0,1-.408-.982,1.314,1.314,0,0,1,.11-.533,1.356,1.356,0,0,1,.3-.434,1.407,1.407,0,0,1,.443-.294,1.369,1.369,0,0,1,1.075,0,1.393,1.393,0,0,1,.435.294,1.348,1.348,0,0,1,.29.434A1.38,1.38,0,0,1,1448.859,606.934Z" fill="#fff"/>
        <path id="Path_813" data-name="Path 813" d="M1459.274,604.452a3.008,3.008,0,0,1-.354,1.443,3.577,3.577,0,0,1-.97,1.139,4.684,4.684,0,0,1-1.438.749,5.846,5.846,0,0,1-3.512,0,4.669,4.669,0,0,1-1.437-.749,3.554,3.554,0,0,1-.971-1.139,3,3,0,0,1-.355-1.443,3.229,3.229,0,0,1,.121-.882,3.269,3.269,0,0,1,.35-.809,3.6,3.6,0,0,1,.552-.7,3.375,3.375,0,0,1,.725-.543,2.786,2.786,0,0,1-.447-.5,3.574,3.574,0,0,1-.338-.6,3.191,3.191,0,0,1-.214-.649,3.141,3.141,0,0,1-.072-.664,2.753,2.753,0,0,1,.3-1.268,3.352,3.352,0,0,1,.825-1.039,3.963,3.963,0,0,1,1.225-.705,4.455,4.455,0,0,1,2.988,0,3.98,3.98,0,0,1,1.228.705,3.343,3.343,0,0,1,.831,1.039,2.751,2.751,0,0,1,.3,1.268,2.96,2.96,0,0,1-.076.664,3.8,3.8,0,0,1-.214.653,3.342,3.342,0,0,1-.334.6,3.016,3.016,0,0,1-.447.507,3.583,3.583,0,0,1,.717.54,3.354,3.354,0,0,1,.894,1.5A3.232,3.232,0,0,1,1459.274,604.452Zm-2.3-.064a1.55,1.55,0,0,0-.173-.721,1.886,1.886,0,0,0-.475-.584,2.356,2.356,0,0,0-.709-.4,2.572,2.572,0,0,0-.866-.145,2.53,2.53,0,0,0-.861.145,2.363,2.363,0,0,0-.706.4,1.87,1.87,0,0,0-.475.584,1.55,1.55,0,0,0-.173.721,1.479,1.479,0,0,0,.173.709,1.724,1.724,0,0,0,.475.555,2.33,2.33,0,0,0,.706.368,2.768,2.768,0,0,0,.861.132,2.814,2.814,0,0,0,.866-.132,2.324,2.324,0,0,0,.709-.368,1.738,1.738,0,0,0,.475-.555A1.479,1.479,0,0,0,1456.979,604.388Zm-.628-5.027a1.139,1.139,0,0,0-.125-.527,1.406,1.406,0,0,0-.338-.431,1.583,1.583,0,0,0-.5-.29,1.786,1.786,0,0,0-.612-.1,1.807,1.807,0,0,0-.62.1,1.584,1.584,0,0,0-.5.29,1.4,1.4,0,0,0-.337.431,1.14,1.14,0,0,0-.125.527,1.111,1.111,0,0,0,.125.524,1.336,1.336,0,0,0,.337.419,1.667,1.667,0,0,0,.5.282,1.805,1.805,0,0,0,.62.1,1.785,1.785,0,0,0,.612-.1,1.665,1.665,0,0,0,.5-.282,1.338,1.338,0,0,0,.338-.419A1.109,1.109,0,0,0,1456.351,599.361Z" fill="#fff"/>
        <path id="Path_814" data-name="Path 814" d="M1467.853,607.755h-2.312V596.2h2.312v5.775l4.3-5.775h2.626l-3.649,4.873,3.649,6.678h-2.626l-2.537-4.672-1.764,2.36Z" fill="#fff"/>
        <path id="Path_815" data-name="Path 815" d="M1487.313,607.755h-2.3v-8.248a1.1,1.1,0,0,0-.093-.451,1.215,1.215,0,0,0-.249-.367,1.161,1.161,0,0,0-1.636,0,1.151,1.151,0,0,0-.334.818v8.248h-2.311v-8.248a1.159,1.159,0,0,0-1.6-1.064,1.151,1.151,0,0,0-.366.246,1.151,1.151,0,0,0-.334.818v8.248h-2.312v-8.248a3.4,3.4,0,0,1,.27-1.35,3.446,3.446,0,0,1,1.845-1.844,3.4,3.4,0,0,1,1.348-.27,3.432,3.432,0,0,1,1.242.229,1.19,1.19,0,0,0,2.137,0,3.482,3.482,0,0,1,2.586.041,3.446,3.446,0,0,1,1.845,1.844,3.4,3.4,0,0,1,.269,1.35Z" fill="#fff"/>
    </g>
    <g id="Group_198" data-name="Group 198" transform="translate(-282.675 -321.94)">
        <path id="Path_816" data-name="Path 816" d="M1629.043,684.351a4.667,4.667,0,0,1-.334,1.764,4.612,4.612,0,0,1-.922,1.454,4.34,4.34,0,0,1-1.4.987,4.251,4.251,0,0,1-1.752.362,4.42,4.42,0,0,1-1.777-.362,4.619,4.619,0,0,1-2.432-2.441,4.379,4.379,0,0,1-.359-1.764,10.755,10.755,0,0,1,.218-2.17,9.848,9.848,0,0,1,.636-2.006,8.676,8.676,0,0,1,1.023-1.744,7.5,7.5,0,0,1,1.369-1.394h3.118a9.314,9.314,0,0,0-.943.7,10.366,10.366,0,0,0-.874.829,9.652,9.652,0,0,0-.769.935,7.877,7.877,0,0,0-.628,1.023,4.027,4.027,0,0,1,.753-.4,2.215,2.215,0,0,1,.834-.165,4.534,4.534,0,0,1,1.759.326,3.818,3.818,0,0,1,1.333.91,4.053,4.053,0,0,1,.846,1.39A5.041,5.041,0,0,1,1629.043,684.351Zm-2.312,0a2.505,2.505,0,0,0-.148-.866,2.242,2.242,0,0,0-.423-.716,1.95,1.95,0,0,0-.661-.488,2.187,2.187,0,0,0-1.724,0,1.919,1.919,0,0,0-.656.488,2.206,2.206,0,0,0-.415.716,2.553,2.553,0,0,0-.144.866,2.437,2.437,0,0,0,.148.85,2.293,2.293,0,0,0,.423.721,2.032,2.032,0,0,0,.656.5,1.924,1.924,0,0,0,.851.185,2.047,2.047,0,0,0,.861-.177,1.937,1.937,0,0,0,.661-.488,2.229,2.229,0,0,0,.423-.72A2.54,2.54,0,0,0,1626.731,684.351Z" fill="#fff"/>
        <path id="Path_817" data-name="Path 817" d="M1639.145,681.282a10.627,10.627,0,0,1-.222,2.171,9.865,9.865,0,0,1-.641,2,8.742,8.742,0,0,1-1.022,1.74,7.569,7.569,0,0,1-1.369,1.394h-3.118a8.973,8.973,0,0,0,.951-.7,10.479,10.479,0,0,0,.874-.829,9.526,9.526,0,0,0,.768-.935,8.149,8.149,0,0,0,.629-1.015,4.472,4.472,0,0,1-.757.4,2.175,2.175,0,0,1-.83.165,4.542,4.542,0,0,1-1.763-.326,3.84,3.84,0,0,1-1.333-.91,3.98,3.98,0,0,1-.847-1.39,5.134,5.134,0,0,1-.294-1.764,4.681,4.681,0,0,1,.335-1.768,4.61,4.61,0,0,1,.922-1.458,4.334,4.334,0,0,1,1.393-.987,4.221,4.221,0,0,1,1.748-.362,4.441,4.441,0,0,1,1.785.362,4.608,4.608,0,0,1,2.432,2.445A4.442,4.442,0,0,1,1639.145,681.282Zm-2.473,0a2.444,2.444,0,0,0-.153-.853,2.331,2.331,0,0,0-.431-.726,2.079,2.079,0,0,0-.665-.5,1.943,1.943,0,0,0-.854-.185,1.979,1.979,0,0,0-.858.181,2.014,2.014,0,0,0-.656.488,2.1,2.1,0,0,0-.419.716,2.612,2.612,0,0,0-.145.878,2.551,2.551,0,0,0,.145.866,2.113,2.113,0,0,0,.419.713,1.973,1.973,0,0,0,.656.483,2.022,2.022,0,0,0,.858.177,2.081,2.081,0,0,0,.867-.177,1.975,1.975,0,0,0,.664-.483,2.188,2.188,0,0,0,.422-.713A2.483,2.483,0,0,0,1636.672,681.282Z" fill="#fff"/>
        <path id="Path_818" data-name="Path 818" d="M1643.864,688.588h-2.311v-9.239H1640.4v-2.312h3.464Z" fill="#fff"/>
        <path id="Path_819" data-name="Path 819" d="M1657.453,680.01v2.19h-6.765v-2.19Zm0,3.3V685.5h-6.765v-2.191Z" fill="#fff"/>
        <path id="Path_820" data-name="Path 820" d="M1661.907,688.588H1659.6V677.037h2.311v5.776l4.3-5.776h2.626l-3.649,4.873,3.649,6.678h-2.626l-2.537-4.672-1.765,2.36Z" fill="#fff"/>
        <path id="Path_821" data-name="Path 821" d="M1681.368,688.588h-2.3V680.34a1.1,1.1,0,0,0-.092-.451,1.216,1.216,0,0,0-.249-.367,1.179,1.179,0,0,0-1.269-.246,1.154,1.154,0,0,0-.367.246,1.151,1.151,0,0,0-.334.818v8.248h-2.312V680.34a1.163,1.163,0,0,0-.088-.451,1.15,1.15,0,0,0-.613-.613,1.2,1.2,0,0,0-.9,0,1.139,1.139,0,0,0-.366.246,1.152,1.152,0,0,0-.334.818v8.248h-2.312V680.34a3.4,3.4,0,0,1,.27-1.35,3.45,3.45,0,0,1,1.844-1.844,3.433,3.433,0,0,1,3.662.625,3.36,3.36,0,0,1,1.066-.666,3.481,3.481,0,0,1,2.586.041,3.455,3.455,0,0,1,1.845,1.844,3.419,3.419,0,0,1,.269,1.35Z" fill="#fff"/>
    </g>
    <g id="Group_199" data-name="Group 199" transform="translate(-282.675 -321.94)">
        <path id="Path_822" data-name="Path 822" d="M1082.825,336.065a4.994,4.994,0,0,1-.411,2.018,5.276,5.276,0,0,1-2.767,2.767,4.983,4.983,0,0,1-2.017.41h-6.936v-3.468h6.936a1.7,1.7,0,0,0,1.226-.5,1.7,1.7,0,0,0,.369-.55,1.722,1.722,0,0,0-1.595-2.4h-4.725V330.87h4.725a1.721,1.721,0,0,0,1.226-.5,1.683,1.683,0,0,0,.369-.556,1.772,1.772,0,0,0,.132-.683,1.73,1.73,0,0,0-.132-.676,1.713,1.713,0,0,0-1.595-1.051h-6.936v-3.468h6.936a4.983,4.983,0,0,1,2.017.411,5.267,5.267,0,0,1,2.767,2.767,4.99,4.99,0,0,1,.411,2.017,5.081,5.081,0,0,1-.35,1.855,5.239,5.239,0,0,1-.991,1.613,5.252,5.252,0,0,1,.991,1.613A5.088,5.088,0,0,1,1082.825,336.065Z" fill="#ff8d00"/>
        <path id="Path_823" data-name="Path 823" d="M1098.315,330.3a15.905,15.905,0,0,1-.332,3.256,14.809,14.809,0,0,1-.961,3,13.107,13.107,0,0,1-1.534,2.61,11.241,11.241,0,0,1-2.054,2.09h-4.676a13.469,13.469,0,0,0,1.426-1.051,15.381,15.381,0,0,0,1.311-1.244,14.3,14.3,0,0,0,1.153-1.4,12.46,12.46,0,0,0,.943-1.522,6.669,6.669,0,0,1-1.136.6,3.248,3.248,0,0,1-1.244.247,6.825,6.825,0,0,1-2.647-.489,5.771,5.771,0,0,1-2-1.365,5.993,5.993,0,0,1-1.268-2.084,7.643,7.643,0,0,1-.442-2.646,7.048,7.048,0,0,1,.5-2.653,6.909,6.909,0,0,1,1.383-2.187,6.517,6.517,0,0,1,2.091-1.48,6.317,6.317,0,0,1,2.621-.543,6.649,6.649,0,0,1,2.677.543,6.907,6.907,0,0,1,3.648,3.667A6.637,6.637,0,0,1,1098.315,330.3Zm-3.709,0a3.641,3.641,0,0,0-.23-1.281,3.4,3.4,0,0,0-.646-1.087,3.108,3.108,0,0,0-1-.75,2.926,2.926,0,0,0-1.281-.278,2.971,2.971,0,0,0-1.286.272,3.063,3.063,0,0,0-.985.731,3.167,3.167,0,0,0-.628,1.075,3.935,3.935,0,0,0-.218,1.318,3.842,3.842,0,0,0,.218,1.3,3.179,3.179,0,0,0,.628,1.069,2.989,2.989,0,0,0,.985.725,3.028,3.028,0,0,0,1.286.266,3.111,3.111,0,0,0,1.3-.266,2.949,2.949,0,0,0,1-.725,3.317,3.317,0,0,0,.635-1.069A3.773,3.773,0,0,0,1094.606,330.3Z" fill="#ff8d00"/>
        <path id="Path_824" data-name="Path 824" d="M1114.13,332.6a13.872,13.872,0,0,1-.543,4.169,7.49,7.49,0,0,1-1.486,2.755,5.487,5.487,0,0,1-2.2,1.516,7.759,7.759,0,0,1-2.7.465,7.558,7.558,0,0,1-2.7-.478,5.488,5.488,0,0,1-2.2-1.534,7.579,7.579,0,0,1-1.481-2.755,16.1,16.1,0,0,1,0-8.3,7.525,7.525,0,0,1,1.481-2.749,5.469,5.469,0,0,1,2.2-1.522,7.666,7.666,0,0,1,2.7-.472,7.584,7.584,0,0,1,2.7.478,5.537,5.537,0,0,1,2.2,1.54,7.614,7.614,0,0,1,1.486,2.755A13.65,13.65,0,0,1,1114.13,332.6Zm-3.3,0a7.661,7.661,0,0,0-.961-4.289,3.067,3.067,0,0,0-2.676-1.4,3.019,3.019,0,0,0-2.646,1.39,10.253,10.253,0,0,0,0,8.59,3.01,3.01,0,0,0,2.646,1.4,3.34,3.34,0,0,0,1.534-.344,2.994,2.994,0,0,0,1.142-1.046,5.348,5.348,0,0,0,.713-1.77A11.329,11.329,0,0,0,1110.832,332.6Z" fill="#ff8d00"/>
        <path id="Path_825" data-name="Path 825" d="M1130.019,332.6a13.868,13.868,0,0,1-.543,4.169,7.505,7.505,0,0,1-1.487,2.755,5.482,5.482,0,0,1-2.2,1.516,7.754,7.754,0,0,1-2.7.465,7.558,7.558,0,0,1-2.7-.478,5.488,5.488,0,0,1-2.2-1.534,7.564,7.564,0,0,1-1.481-2.755,16.1,16.1,0,0,1,0-8.3,7.511,7.511,0,0,1,1.481-2.749,5.468,5.468,0,0,1,2.2-1.522,7.666,7.666,0,0,1,2.7-.472,7.579,7.579,0,0,1,2.7.478,5.531,5.531,0,0,1,2.2,1.54,7.63,7.63,0,0,1,1.487,2.755A13.646,13.646,0,0,1,1130.019,332.6Zm-3.3,0a7.669,7.669,0,0,0-.961-4.289,3.067,3.067,0,0,0-2.676-1.4,3.017,3.017,0,0,0-2.646,1.39,10.253,10.253,0,0,0,0,8.59,3.007,3.007,0,0,0,2.646,1.4,3.343,3.343,0,0,0,1.534-.344,3.009,3.009,0,0,0,1.142-1.046,5.372,5.372,0,0,0,.713-1.77A11.336,11.336,0,0,0,1126.721,332.6Z" fill="#ff8d00"/>
        <path id="Path_826" data-name="Path 826" d="M1142.536,346.19h-3.322V328.32h.8l1.317,1.558a8.858,8.858,0,0,1,.979-.8,7.464,7.464,0,0,1,1.1-.646,6.508,6.508,0,0,1,1.191-.429,5,5,0,0,1,1.244-.157,6.748,6.748,0,0,1,2.567.489,6.35,6.35,0,0,1,2.1,1.384,6.5,6.5,0,0,1,1.42,2.156,7.311,7.311,0,0,1,.519,2.8,7.57,7.57,0,0,1-.519,2.87,6.4,6.4,0,0,1-1.42,2.163,6.164,6.164,0,0,1-2.1,1.359,6.974,6.974,0,0,1-2.567.471,3.886,3.886,0,0,1-.864-.1,5.765,5.765,0,0,1-.846-.259q-.417-.164-.822-.369t-.779-.423Zm6.61-11.515a3.964,3.964,0,0,0-.26-1.474,3.286,3.286,0,0,0-.707-1.1,3.071,3.071,0,0,0-1.051-.7,3.421,3.421,0,0,0-1.281-.242,3.375,3.375,0,0,0-1.275.242,3.085,3.085,0,0,0-1.045.7,3.274,3.274,0,0,0-.707,1.1,3.944,3.944,0,0,0-.259,1.474,3.838,3.838,0,0,0,.259,1.438,3.346,3.346,0,0,0,.707,1.112,3.177,3.177,0,0,0,1.045.713,3.234,3.234,0,0,0,1.275.253,3.279,3.279,0,0,0,1.281-.253,3.162,3.162,0,0,0,1.051-.713,3.358,3.358,0,0,0,.707-1.112A3.858,3.858,0,0,0,1149.146,334.675Z" fill="#ff8d00"/>
        <path id="Path_827" data-name="Path 827" d="M1157.6,341.26h-3.323V323.173h3.323Z" fill="#ff8d00"/>
        <path id="Path_828" data-name="Path 828" d="M1172.646,341.26h-.8l-1.281-1.776a10.385,10.385,0,0,1-1,.791,7.281,7.281,0,0,1-1.1.641,6.809,6.809,0,0,1-1.191.429,4.973,4.973,0,0,1-1.238.157,7.137,7.137,0,0,1-2.567-.459,6.105,6.105,0,0,1-2.1-1.335,6.264,6.264,0,0,1-1.419-2.145,7.571,7.571,0,0,1-.519-2.888,7.225,7.225,0,0,1,.519-2.773,6.615,6.615,0,0,1,1.419-2.168,6.415,6.415,0,0,1,2.1-1.408,6.607,6.607,0,0,1,2.567-.5,5.012,5.012,0,0,1,1.245.157,6.375,6.375,0,0,1,1.2.435,7.4,7.4,0,0,1,1.1.652,9.244,9.244,0,0,1,.985.809l1.281-1.534h.8Zm-3.324-6.585a3.432,3.432,0,0,0-.259-1.311,3.755,3.755,0,0,0-.707-1.123,3.508,3.508,0,0,0-1.045-.785,2.83,2.83,0,0,0-1.275-.3,3.521,3.521,0,0,0-1.274.23,2.911,2.911,0,0,0-1.039.676,3.2,3.2,0,0,0-.7,1.106,4.6,4.6,0,0,0,0,3.009,3.188,3.188,0,0,0,.7,1.105,2.9,2.9,0,0,0,1.039.677,3.521,3.521,0,0,0,1.274.229,2.842,2.842,0,0,0,1.275-.3,3.527,3.527,0,0,0,1.045-.786,3.759,3.759,0,0,0,.707-1.124A3.432,3.432,0,0,0,1169.322,334.675Z" fill="#ff8d00"/>
        <path id="Path_829" data-name="Path 829" d="M1182.264,341.26h-7.54v-3.286h7.54a.825.825,0,0,0,.821-.822.452.452,0,0,0-.241-.459,1.422,1.422,0,0,0-.58-.109h-3.432a3.974,3.974,0,0,1-1.607-.326,4.125,4.125,0,0,1-1.3-.888,4.189,4.189,0,0,1-.876-1.311,4.2,4.2,0,0,1,0-3.214,4.075,4.075,0,0,1,2.181-2.18,4.038,4.038,0,0,1,1.607-.321h6.682v3.286h-6.682a.825.825,0,0,0-.821.822.824.824,0,0,0,.241.6.781.781,0,0,0,.58.248h3.432a4.469,4.469,0,0,1,1.594.284,4.015,4.015,0,0,1,1.3.792,3.716,3.716,0,0,1,1.208,2.778,3.93,3.93,0,0,1-.326,1.6,4.277,4.277,0,0,1-.882,1.305,4.066,4.066,0,0,1-2.9,1.2Z" fill="#ff8d00"/>
        <path id="Path_830" data-name="Path 830" d="M1194.611,341.26a5.619,5.619,0,0,1-2.248-.453,5.846,5.846,0,0,1-3.087-3.087,5.631,5.631,0,0,1-.453-2.247V331.63h-1.606v-3.286h1.606v-5.171h3.287v5.171h5v3.286h-5v3.843a2.486,2.486,0,0,0,.725,1.764,2.543,2.543,0,0,0,.8.537,2.423,2.423,0,0,0,.978.2h2.5v3.286Z" fill="#ff8d00"/>
        <path id="Path_831" data-name="Path 831" d="M1202.852,324.8a2.108,2.108,0,0,1-.176.858,2.185,2.185,0,0,1-.477.694,2.311,2.311,0,0,1-.707.472,2.22,2.22,0,0,1-1.728,0,2.217,2.217,0,0,1-1.172-1.166,2.176,2.176,0,0,1,0-1.71,2.192,2.192,0,0,1,1.172-1.172,2.22,2.22,0,0,1,1.728,0,2.326,2.326,0,0,1,.707.471,2.194,2.194,0,0,1,.477.7A2.122,2.122,0,0,1,1202.852,324.8Zm-.569,16.456h-3.322V328.32h3.322Z" fill="#ff8d00"/>
        <path id="Path_832" data-name="Path 832" d="M1216.1,330.894l-2.416,2.428a3.289,3.289,0,0,0-.495-.912,3.354,3.354,0,0,0-.707-.683,3.072,3.072,0,0,0-.852-.423,3.132,3.132,0,0,0-.943-.145,2.974,2.974,0,0,0-1.274.279,3.115,3.115,0,0,0-1.039.779,3.728,3.728,0,0,0-.694,1.19,4.377,4.377,0,0,0-.254,1.522,3.191,3.191,0,0,0,.254,1.269,3.336,3.336,0,0,0,.694,1.039,3.232,3.232,0,0,0,2.313.954,3.269,3.269,0,0,0,.931-.132,3.388,3.388,0,0,0,.84-.381,3.123,3.123,0,0,0,.7-.6,3.2,3.2,0,0,0,.5-.792l2.416,2.429a6.481,6.481,0,0,1-1.057,1.172,6.689,6.689,0,0,1-1.293.882,6.427,6.427,0,0,1-1.461.549,6.629,6.629,0,0,1-1.578.188,6.456,6.456,0,0,1-2.567-.514,6.615,6.615,0,0,1-3.521-3.5,6.353,6.353,0,0,1-.52-2.562,7.369,7.369,0,0,1,.52-2.779,7.146,7.146,0,0,1,1.419-2.253,6.708,6.708,0,0,1,2.1-1.517,6.052,6.052,0,0,1,2.567-.555,6.2,6.2,0,0,1,1.589.2,6.393,6.393,0,0,1,2.791,1.559A5.911,5.911,0,0,1,1216.1,330.894Z" fill="#ff8d00"/>
        <path id="Path_833" data-name="Path 833" d="M1228.828,341.26h-3.3v-9.654h-1.606V328.32h1.606V327.7a5.628,5.628,0,0,1,.453-2.247,5.716,5.716,0,0,1,1.246-1.831,5.948,5.948,0,0,1,1.841-1.232,5.627,5.627,0,0,1,2.248-.454h2.477v3.287h-2.477a2.575,2.575,0,0,0-.985.187,2.387,2.387,0,0,0-.785.52,2.455,2.455,0,0,0-.526.785,2.5,2.5,0,0,0-.193.985v.616h4.048v3.286h-4.048Z" fill="#ff8d00"/>
        <path id="Path_834" data-name="Path 834" d="M1237.757,341.26h-3.322V323.173h3.322Z" fill="#ff8d00"/>
        <path id="Path_835" data-name="Path 835" d="M1245.417,338.1a1.9,1.9,0,0,0,.387.078c.129.012.258.018.386.018a3.268,3.268,0,0,0,.931-.132,3.391,3.391,0,0,0,.84-.381,3.1,3.1,0,0,0,.7-.6,3.173,3.173,0,0,0,.5-.792l2.416,2.429a6.477,6.477,0,0,1-1.057,1.172,6.714,6.714,0,0,1-1.293.882,6.465,6.465,0,0,1-1.461.549,6.629,6.629,0,0,1-1.578.188,6.527,6.527,0,0,1-4.669-1.921,6.608,6.608,0,0,1-1.419-2.157,7.085,7.085,0,0,1-.52-2.749,7.317,7.317,0,0,1,.52-2.8,6.328,6.328,0,0,1,3.521-3.552,6.676,6.676,0,0,1,2.567-.495,6.491,6.491,0,0,1,1.583.193,6.673,6.673,0,0,1,3.831,2.622Zm1.691-6.8a1.891,1.891,0,0,0-.452-.108,4.11,4.11,0,0,0-.466-.025,3.294,3.294,0,0,0-1.274.248,3.04,3.04,0,0,0-1.039.707,3.354,3.354,0,0,0-.695,1.1,3.962,3.962,0,0,0-.253,1.456c0,.121.006.258.017.411s.033.308.061.465.062.308.1.453a1.661,1.661,0,0,0,.158.387Z" fill="#ff8d00"/>
        <path id="Path_836" data-name="Path 836" d="M1260.363,341.26h-7.54v-3.286h7.54a.826.826,0,0,0,.822-.822.451.451,0,0,0-.242-.459,1.419,1.419,0,0,0-.58-.109h-3.431a3.975,3.975,0,0,1-1.608-.326,4.134,4.134,0,0,1-2.18-2.2,4.1,4.1,0,0,1,3.788-5.715h6.681v3.286h-6.681a.826.826,0,0,0-.822.822.821.821,0,0,0,.242.6.781.781,0,0,0,.58.248h3.431a4.471,4.471,0,0,1,1.595.284,4.015,4.015,0,0,1,1.3.792,3.716,3.716,0,0,1,1.208,2.778,3.944,3.944,0,0,1-.326,1.6,4.275,4.275,0,0,1-.882,1.305,4.066,4.066,0,0,1-2.9,1.2Z" fill="#ff8d00"/>
        <path id="Path_837" data-name="Path 837" d="M1261.306,346.19v-3.323l1.824.025a2.817,2.817,0,0,0,1.232-.272,3.233,3.233,0,0,0,.986-.725,3.494,3.494,0,0,0,.658-1.045,3.266,3.266,0,0,0,.241-1.245V328.32h3.371v11.285h-.023a6.884,6.884,0,0,1-.248,1.752,6.525,6.525,0,0,1-.671,1.577,6.649,6.649,0,0,1-1.039,1.329,6.745,6.745,0,0,1-1.335,1.027,6.631,6.631,0,0,1-1.571.664,6.427,6.427,0,0,1-1.746.236Zm8.856-21.386a2.108,2.108,0,0,1-.175.858,2.218,2.218,0,0,1-1.172,1.166,2.119,2.119,0,0,1-.852.175,2.179,2.179,0,0,1-.876-.175,2.3,2.3,0,0,1-.706-.472,2.19,2.19,0,0,1-.478-.694,2.177,2.177,0,0,1,0-1.71,2.2,2.2,0,0,1,.478-.7,2.31,2.31,0,0,1,.706-.471,2.2,2.2,0,0,1,.876-.175,2.136,2.136,0,0,1,.852.175,2.193,2.193,0,0,1,1.172,1.172A2.121,2.121,0,0,1,1270.162,324.8Z" fill="#ff8d00"/>
        <path id="Path_838" data-name="Path 838" d="M1277.254,338.1a1.9,1.9,0,0,0,.387.078c.129.012.257.018.386.018a3.268,3.268,0,0,0,.931-.132,3.388,3.388,0,0,0,.84-.381,3.1,3.1,0,0,0,.7-.6,3.176,3.176,0,0,0,.5-.792l2.416,2.429a6.477,6.477,0,0,1-1.057,1.172,6.718,6.718,0,0,1-1.293.882,6.455,6.455,0,0,1-1.462.549,6.615,6.615,0,0,1-1.577.188,6.53,6.53,0,0,1-4.67-1.921,6.642,6.642,0,0,1-1.419-2.157,7.105,7.105,0,0,1-.519-2.749,7.337,7.337,0,0,1,.519-2.8,6.326,6.326,0,0,1,3.522-3.552,6.677,6.677,0,0,1,2.567-.495,6.492,6.492,0,0,1,1.583.193,6.63,6.63,0,0,1,2.767,1.444,6.525,6.525,0,0,1,1.063,1.178Zm1.691-6.8a1.892,1.892,0,0,0-.452-.108,4.124,4.124,0,0,0-.466-.025,3.294,3.294,0,0,0-1.274.248,3.03,3.03,0,0,0-1.039.707,3.336,3.336,0,0,0-.695,1.1,3.962,3.962,0,0,0-.253,1.456c0,.121.005.258.017.411s.032.308.061.465.062.308.1.453a1.651,1.651,0,0,0,.158.387Z" fill="#ff8d00"/>
        <path id="Path_839" data-name="Path 839" d="M1292.2,341.26h-7.54v-3.286h7.54a.825.825,0,0,0,.821-.822.452.452,0,0,0-.241-.459,1.419,1.419,0,0,0-.58-.109h-3.431a3.975,3.975,0,0,1-1.608-.326,4.136,4.136,0,0,1-1.3-.888,4.187,4.187,0,0,1-.876-1.311,4.2,4.2,0,0,1,0-3.214,4.075,4.075,0,0,1,2.181-2.18,4.04,4.04,0,0,1,1.608-.321h6.681v3.286h-6.681a.824.824,0,0,0-.822.822.824.824,0,0,0,.241.6.785.785,0,0,0,.581.248h3.431a4.471,4.471,0,0,1,1.595.284,4.026,4.026,0,0,1,1.3.792,3.726,3.726,0,0,1,1.208,2.778,3.93,3.93,0,0,1-.327,1.6,4.257,4.257,0,0,1-.881,1.305,4.054,4.054,0,0,1-1.3.882A4.008,4.008,0,0,1,1292.2,341.26Z" fill="#ff8d00"/>
    </g>
    <g id="Group_200" data-name="Group 200" transform="translate(-282.675 -321.94)">
        <path id="Path_840" data-name="Path 840" d="M948.612,409.962a5.034,5.034,0,0,1-.411,2.024,5.263,5.263,0,0,1-2.766,2.773,5,5,0,0,1-2.019.41h-1.739a1.715,1.715,0,0,0-1.227.5,1.719,1.719,0,0,0-.5,1.226v1.728h8.192v3.468h-11.66v-5.2a5.032,5.032,0,0,1,.411-2.023,5.271,5.271,0,0,1,1.118-1.656,5.189,5.189,0,0,1,1.649-1.111,5.056,5.056,0,0,1,2.018-.4h1.739a1.711,1.711,0,0,0,.677-.133,1.742,1.742,0,0,0,.55-.368,1.722,1.722,0,0,0,.369-.556,1.773,1.773,0,0,0,.133-.683,1.714,1.714,0,0,0-1.729-1.728H937.23v-3.467h6.186a5.012,5.012,0,0,1,2.019.41,5.279,5.279,0,0,1,2.766,2.767A5,5,0,0,1,948.612,409.962Z" fill="#ff8d00"/>
        <path id="Path_841" data-name="Path 841" d="M963.848,411.134a15.962,15.962,0,0,1-.332,3.256,14.879,14.879,0,0,1-.961,3A13.2,13.2,0,0,1,961.021,420a11.251,11.251,0,0,1-2.055,2.091H954.29a13.6,13.6,0,0,0,1.426-1.051,15.378,15.378,0,0,0,1.311-1.245,14.459,14.459,0,0,0,1.154-1.4,12.493,12.493,0,0,0,.942-1.523,6.529,6.529,0,0,1-1.136.6,3.249,3.249,0,0,1-1.244.248,6.8,6.8,0,0,1-2.646-.49,5.752,5.752,0,0,1-2-1.365,5.98,5.98,0,0,1-1.269-2.084,7.637,7.637,0,0,1-.441-2.646,7.043,7.043,0,0,1,.5-2.652,6.9,6.9,0,0,1,1.382-2.187,6.512,6.512,0,0,1,2.091-1.48,6.318,6.318,0,0,1,2.621-.544,6.646,6.646,0,0,1,2.677.544,6.915,6.915,0,0,1,3.649,3.667A6.649,6.649,0,0,1,963.848,411.134Zm-3.709,0a3.612,3.612,0,0,0-.231-1.28,3.416,3.416,0,0,0-.645-1.088,3.128,3.128,0,0,0-1-.749,2.933,2.933,0,0,0-1.282-.278,2.971,2.971,0,0,0-1.286.272,3.064,3.064,0,0,0-.985.731,3.158,3.158,0,0,0-.628,1.075,3.93,3.93,0,0,0-.218,1.317,3.842,3.842,0,0,0,.218,1.3,3.169,3.169,0,0,0,.628,1.069,2.977,2.977,0,0,0,.985.725,3.028,3.028,0,0,0,1.286.266,3.107,3.107,0,0,0,1.3-.266,2.935,2.935,0,0,0,1-.725,3.269,3.269,0,0,0,.635-1.069A3.772,3.772,0,0,0,960.139,411.134Z" fill="#ff8d00"/>
        <path id="Path_842" data-name="Path 842" d="M978.129,416.9a4.992,4.992,0,0,1-.411,2.018,5.276,5.276,0,0,1-2.767,2.767,4.991,4.991,0,0,1-2.017.411H966v-3.468h6.936a1.729,1.729,0,0,0,.676-3.323,1.73,1.73,0,0,0-.676-.133h-4.725V411.7h4.725a1.713,1.713,0,0,0,.676-.133,1.741,1.741,0,0,0,.55-.368,1.717,1.717,0,0,0,.368-.556,1.754,1.754,0,0,0,.133-.683,1.719,1.719,0,0,0-.5-1.226,1.714,1.714,0,0,0-1.226-.5H966v-3.467h6.936a5.006,5.006,0,0,1,2.017.41,5.276,5.276,0,0,1,2.767,2.767,5,5,0,0,1,.411,2.018,5.061,5.061,0,0,1-.351,1.855,5.219,5.219,0,0,1-.99,1.613,5.226,5.226,0,0,1,.99,1.612A5.069,5.069,0,0,1,978.129,416.9Z" fill="#ff8d00"/>
        <path id="Path_843" data-name="Path 843" d="M992.508,409.962a5.051,5.051,0,0,1-.411,2.024,5.269,5.269,0,0,1-2.767,2.773,5,5,0,0,1-2.018.41h-1.74a1.714,1.714,0,0,0-1.226.5,1.666,1.666,0,0,0-.368.55,1.708,1.708,0,0,0-.133.676v1.728h8.191v3.468H980.377v-5.2a5.049,5.049,0,0,1,.41-2.023,5.306,5.306,0,0,1,1.118-1.656,5.2,5.2,0,0,1,1.65-1.111,5.051,5.051,0,0,1,2.017-.4h1.74a1.706,1.706,0,0,0,.676-.133,1.692,1.692,0,0,0,.919-.924,1.772,1.772,0,0,0,.133-.683,1.714,1.714,0,0,0-1.728-1.728h-6.186v-3.467h6.186a5.011,5.011,0,0,1,2.018.41,5.286,5.286,0,0,1,2.767,2.767A5.012,5.012,0,0,1,992.508,409.962Z" fill="#ff8d00"/>
    </g>
    <g id="Group_201" data-name="Group 201" transform="translate(-282.675 -321.94)">
        <path id="Path_844" data-name="Path 844" d="M1060.038,497.73a4.991,4.991,0,0,1-.411,2.018,5.276,5.276,0,0,1-2.767,2.767,4.987,4.987,0,0,1-2.017.411h-6.936v-3.468h6.936a1.714,1.714,0,0,0,1.226-.5,1.7,1.7,0,0,0,.369-.55,1.8,1.8,0,0,0,0-1.353,1.7,1.7,0,0,0-.369-.55,1.71,1.71,0,0,0-1.226-.5h-4.725v-3.467h4.725a1.718,1.718,0,0,0,.677-.133,1.737,1.737,0,0,0,.549-.368,1.7,1.7,0,0,0,.369-.556,1.772,1.772,0,0,0,.132-.683,1.723,1.723,0,0,0-.132-.676,1.7,1.7,0,0,0-.369-.55,1.71,1.71,0,0,0-1.226-.5h-6.936V485.6h6.936a5,5,0,0,1,2.017.41,5.276,5.276,0,0,1,2.767,2.767,4.994,4.994,0,0,1,.411,2.018,5.08,5.08,0,0,1-.35,1.855,5.24,5.24,0,0,1-.991,1.613,5.247,5.247,0,0,1,.991,1.612A5.088,5.088,0,0,1,1060.038,497.73Z" fill="#ff8d00"/>
        <path id="Path_845" data-name="Path 845" d="M1073.945,485.6l-5.92,17.326h-3.71l4.87-13.859h-7.371V485.6Z" fill="#ff8d00"/>
        <path id="Path_846" data-name="Path 846" d="M1087.188,490.8a5.034,5.034,0,0,1-.412,2.024,5.262,5.262,0,0,1-2.766,2.773,5,5,0,0,1-2.019.41h-1.739a1.714,1.714,0,0,0-1.227.5,1.718,1.718,0,0,0-.5,1.226v1.728h8.192v3.468h-11.659v-5.2a5.031,5.031,0,0,1,.41-2.023,5.271,5.271,0,0,1,1.118-1.656,5.2,5.2,0,0,1,1.649-1.111,5.056,5.056,0,0,1,2.018-.4h1.739a1.711,1.711,0,0,0,.677-.133,1.693,1.693,0,0,0,.919-.924,1.772,1.772,0,0,0,.133-.683,1.714,1.714,0,0,0-1.729-1.728h-6.185V485.6h6.185a5.013,5.013,0,0,1,2.019.41,5.278,5.278,0,0,1,2.766,2.767A5,5,0,0,1,1087.188,490.8Z" fill="#ff8d00"/>
        <path id="Path_847" data-name="Path 847" d="M1100.84,485.6l-5.92,17.326h-3.71l4.869-13.859h-7.37V485.6Z" fill="#ff8d00"/>
    </g>
    <g id="Group_202" data-name="Group 202" transform="translate(-282.675 -321.94)">
        <path id="Path_848" data-name="Path 848" d="M1191.78,581.115h-1.727v3.468h-3.468v-3.468h-8.663l1.933-13.858h3.467l-1.509,10.4h4.772V569h3.468v8.663h1.727Z" fill="#ff8d00"/>
        <path id="Path_849" data-name="Path 849" d="M1205.542,567.257l-5.92,17.326h-3.71l4.869-13.858h-7.37v-3.468Z" fill="#ff8d00"/>
        <path id="Path_850" data-name="Path 850" d="M1220.464,575.92a13.865,13.865,0,0,1-.543,4.168,7.476,7.476,0,0,1-1.486,2.755,5.465,5.465,0,0,1-2.206,1.516,7.726,7.726,0,0,1-2.7.465,7.6,7.6,0,0,1-2.7-.476,5.511,5.511,0,0,1-2.2-1.535,7.6,7.6,0,0,1-1.481-2.754,16.1,16.1,0,0,1,0-8.3,7.523,7.523,0,0,1,1.481-2.749,5.482,5.482,0,0,1,2.2-1.523,7.945,7.945,0,0,1,5.4.006,5.546,5.546,0,0,1,2.206,1.541,7.615,7.615,0,0,1,1.486,2.755A13.65,13.65,0,0,1,1220.464,575.92Zm-3.3,0a7.659,7.659,0,0,0-.961-4.289,3.064,3.064,0,0,0-2.676-1.4,3.018,3.018,0,0,0-2.646,1.389,10.254,10.254,0,0,0,0,8.591,3.009,3.009,0,0,0,2.646,1.4,3.34,3.34,0,0,0,1.534-.343,3.007,3.007,0,0,0,1.142-1.045,5.369,5.369,0,0,0,.713-1.771A11.335,11.335,0,0,0,1217.166,575.92Z" fill="#ff8d00"/>
        <path id="Path_851" data-name="Path 851" d="M1227.616,584.583h-3.468V570.725h-1.727v-3.468h5.195Z" fill="#ff8d00"/>
    </g>
    <g id="Group_203" data-name="Group 203" transform="translate(-282.675 -321.94)">
        <path id="Path_852" data-name="Path 852" d="M1125.858,661.123h-1.727v3.468h-3.468v-3.468H1112l1.934-13.858h3.466l-1.509,10.4h4.772v-8.663h3.468v8.663h1.727Z" fill="#ff8d00"/>
        <path id="Path_853" data-name="Path 853" d="M1140.092,652.46a5.052,5.052,0,0,1-.411,2.024,5.26,5.26,0,0,1-2.767,2.773,5.011,5.011,0,0,1-2.018.411h-1.74a1.714,1.714,0,0,0-1.226.5,1.676,1.676,0,0,0-.368.55,1.711,1.711,0,0,0-.133.677v1.727h8.191v3.468h-11.659v-5.2a5.051,5.051,0,0,1,.41-2.024,5.3,5.3,0,0,1,1.118-1.655,5.225,5.225,0,0,1,1.65-1.113,5.067,5.067,0,0,1,2.017-.4h1.74a1.706,1.706,0,0,0,1.595-1.057,1.772,1.772,0,0,0,.133-.683,1.71,1.71,0,0,0-1.052-1.6,1.706,1.706,0,0,0-.676-.133h-6.186v-3.467h6.186a4.978,4.978,0,0,1,2.018.411,5.279,5.279,0,0,1,2.767,2.766A5.009,5.009,0,0,1,1140.092,652.46Z" fill="#ff8d00"/>
        <path id="Path_854" data-name="Path 854" d="M1155.327,653.632a15.914,15.914,0,0,1-.332,3.257,14.918,14.918,0,0,1-.961,3,13.187,13.187,0,0,1-1.534,2.61,11.212,11.212,0,0,1-2.055,2.09h-4.675a13.6,13.6,0,0,0,1.425-1.051,15.359,15.359,0,0,0,1.312-1.245,14.165,14.165,0,0,0,1.153-1.4,12.5,12.5,0,0,0,.943-1.523,6.673,6.673,0,0,1-1.136.6,3.254,3.254,0,0,1-1.244.247,6.817,6.817,0,0,1-2.647-.489,5.787,5.787,0,0,1-2-1.366,5.97,5.97,0,0,1-1.268-2.084,7.638,7.638,0,0,1-.442-2.646,7.045,7.045,0,0,1,.5-2.652,6.886,6.886,0,0,1,1.383-2.187,6.517,6.517,0,0,1,2.091-1.48,6.3,6.3,0,0,1,2.621-.543,6.632,6.632,0,0,1,2.677.543,6.917,6.917,0,0,1,3.648,3.667A6.649,6.649,0,0,1,1155.327,653.632Zm-3.709,0a3.632,3.632,0,0,0-.23-1.28,3.415,3.415,0,0,0-.646-1.088,3.106,3.106,0,0,0-1-.749,3.133,3.133,0,0,0-2.567-.006,3.081,3.081,0,0,0-.986.731,3.19,3.19,0,0,0-.628,1.075,3.957,3.957,0,0,0-.217,1.317,3.869,3.869,0,0,0,.217,1.3,3.2,3.2,0,0,0,.628,1.069,3.009,3.009,0,0,0,.986.726,3.04,3.04,0,0,0,1.286.265,3.13,3.13,0,0,0,1.3-.265,2.971,2.971,0,0,0,1-.726,3.306,3.306,0,0,0,.635-1.069A3.774,3.774,0,0,0,1151.618,653.632Z" fill="#ff8d00"/>
        <path id="Path_855" data-name="Path 855" d="M1162.407,664.591h-3.468V650.732h-1.727v-3.467h5.195Z" fill="#ff8d00"/>
    </g>
    <g id="Group_204" data-name="Group 204" transform="translate(-282.675 -321.94)">
        <path id="Path_856" data-name="Path 856" d="M549.138,357.443a5.055,5.055,0,0,1-.411,2.024,5.269,5.269,0,0,1-2.767,2.773,5,5,0,0,1-2.019.41H542.2a1.71,1.71,0,0,0-1.226.5,1.684,1.684,0,0,0-.369.55,1.726,1.726,0,0,0-.132.676v1.728h8.191v3.468H537.007v-5.2a5.057,5.057,0,0,1,.41-2.024,5.278,5.278,0,0,1,1.118-1.655,5.2,5.2,0,0,1,1.65-1.111,5.05,5.05,0,0,1,2.017-.4h1.739a1.707,1.707,0,0,0,.677-.133,1.69,1.69,0,0,0,.919-.925,1.764,1.764,0,0,0,.133-.682,1.714,1.714,0,0,0-1.729-1.728h-6.185v-3.467h6.185a5.013,5.013,0,0,1,2.019.41,5.286,5.286,0,0,1,2.767,2.767A5.012,5.012,0,0,1,549.138,357.443Z"/>
        <path id="Path_857" data-name="Path 857" d="M564.94,360.911a13.83,13.83,0,0,1-.543,4.168,7.482,7.482,0,0,1-1.486,2.755,5.472,5.472,0,0,1-2.205,1.516,7.753,7.753,0,0,1-2.7.465,7.576,7.576,0,0,1-2.7-.477,5.5,5.5,0,0,1-2.2-1.534,7.57,7.57,0,0,1-1.48-2.755,16.1,16.1,0,0,1,0-8.3,7.5,7.5,0,0,1,1.48-2.749,5.485,5.485,0,0,1,2.2-1.523,7.662,7.662,0,0,1,2.7-.471,7.578,7.578,0,0,1,2.7.477,5.534,5.534,0,0,1,2.205,1.541,7.609,7.609,0,0,1,1.486,2.754A13.623,13.623,0,0,1,564.94,360.911Zm-3.3,0a7.667,7.667,0,0,0-.961-4.289,3.066,3.066,0,0,0-2.676-1.4,3.019,3.019,0,0,0-2.647,1.389,10.265,10.265,0,0,0,0,8.591,3.012,3.012,0,0,0,2.647,1.4,3.33,3.33,0,0,0,1.534-.345,3.014,3.014,0,0,0,1.142-1.045,5.4,5.4,0,0,0,.713-1.77A11.345,11.345,0,0,0,561.643,360.911Z"/>
        <path id="Path_858" data-name="Path 858" d="M572.094,369.574h-3.468V355.715H566.9v-3.467h5.2Z"/>
        <path id="Path_859" data-name="Path 859" d="M586.544,352.248l-5.92,17.326h-3.71l4.869-13.859h-7.37v-3.467Z"/>
    </g>
    <g id="Group_205" data-name="Group 205" transform="translate(-282.675 -321.94)">
        <path id="Path_860" data-name="Path 860" d="M547.875,437.451a5.055,5.055,0,0,1-.411,2.024,5.26,5.26,0,0,1-2.767,2.773,5.011,5.011,0,0,1-2.018.41h-1.74a1.714,1.714,0,0,0-1.226.5,1.714,1.714,0,0,0-.5,1.226v1.728H547.4v3.468H535.744v-5.2a5.054,5.054,0,0,1,.41-2.024,5.314,5.314,0,0,1,1.118-1.655,5.2,5.2,0,0,1,1.65-1.111,5.054,5.054,0,0,1,2.017-.4h1.74a1.715,1.715,0,0,0,1.226-.5,1.669,1.669,0,0,0,.369-.556,1.771,1.771,0,0,0,.133-.682,1.732,1.732,0,0,0-.133-.677,1.681,1.681,0,0,0-.369-.549,1.7,1.7,0,0,0-.55-.369,1.724,1.724,0,0,0-.676-.133h-6.186v-3.468h6.186a5.013,5.013,0,0,1,2.018.411,5.276,5.276,0,0,1,2.767,2.767A5.012,5.012,0,0,1,547.875,437.451Z"/>
        <path id="Path_861" data-name="Path 861" d="M563.678,440.918a13.865,13.865,0,0,1-.543,4.169,7.5,7.5,0,0,1-1.487,2.755,5.475,5.475,0,0,1-2.205,1.516,7.749,7.749,0,0,1-2.7.465,7.58,7.58,0,0,1-2.7-.477,5.5,5.5,0,0,1-2.2-1.534,7.6,7.6,0,0,1-1.481-2.755,16.1,16.1,0,0,1,0-8.3,7.533,7.533,0,0,1,1.481-2.749,5.48,5.48,0,0,1,2.2-1.522,7.666,7.666,0,0,1,2.7-.471,7.574,7.574,0,0,1,2.7.477,5.526,5.526,0,0,1,2.205,1.541,7.625,7.625,0,0,1,1.487,2.754A13.653,13.653,0,0,1,563.678,440.918Zm-3.3,0a7.663,7.663,0,0,0-.961-4.289,3.066,3.066,0,0,0-2.676-1.4,3.017,3.017,0,0,0-2.646,1.389,10.255,10.255,0,0,0,0,8.591,3.01,3.01,0,0,0,2.646,1.4,3.33,3.33,0,0,0,1.534-.344,3.007,3.007,0,0,0,1.142-1.045,5.38,5.38,0,0,0,.713-1.77A11.348,11.348,0,0,0,560.38,440.918Z"/>
        <path id="Path_862" data-name="Path 862" d="M570.831,449.582h-3.468V435.723h-1.727v-3.468h5.2Z"/>
        <path id="Path_863" data-name="Path 863" d="M586.985,444.628a4.5,4.5,0,0,1-.532,2.163A5.363,5.363,0,0,1,585,448.5a7.083,7.083,0,0,1-2.156,1.124,8.768,8.768,0,0,1-5.268,0,7.076,7.076,0,0,1-2.157-1.124,5.362,5.362,0,0,1-1.456-1.709,4.5,4.5,0,0,1-.531-2.163,4.868,4.868,0,0,1,.707-2.538,5.424,5.424,0,0,1,.827-1.045,5.036,5.036,0,0,1,1.088-.815,4.092,4.092,0,0,1-.671-.75,5.463,5.463,0,0,1-.508-.894,4.941,4.941,0,0,1-.32-.972,4.655,4.655,0,0,1-.109-1,4.14,4.14,0,0,1,.453-1.9,5.052,5.052,0,0,1,1.239-1.558,5.955,5.955,0,0,1,1.837-1.058,6.7,6.7,0,0,1,4.482,0,6.044,6.044,0,0,1,1.843,1.058,5.025,5.025,0,0,1,1.244,1.558,4.128,4.128,0,0,1,.453,1.9,4.48,4.48,0,0,1-.114,1,5.837,5.837,0,0,1-.32.979,5.137,5.137,0,0,1-.5.9,4.564,4.564,0,0,1-.67.761,5.334,5.334,0,0,1,1.075.809,5.083,5.083,0,0,1,.821,1.04,5,5,0,0,1,.52,1.208A4.808,4.808,0,0,1,586.985,444.628Zm-3.444-.1a2.306,2.306,0,0,0-.26-1.081,2.793,2.793,0,0,0-.713-.876,3.475,3.475,0,0,0-1.062-.592,3.842,3.842,0,0,0-1.3-.218,3.787,3.787,0,0,0-1.293.218,3.513,3.513,0,0,0-1.058.592,2.817,2.817,0,0,0-.712.876,2.318,2.318,0,0,0-.26,1.081,2.21,2.21,0,0,0,.26,1.063,2.613,2.613,0,0,0,.712.834,3.515,3.515,0,0,0,1.058.55,4.1,4.1,0,0,0,1.293.2,4.156,4.156,0,0,0,1.3-.2,3.478,3.478,0,0,0,1.062-.55,2.592,2.592,0,0,0,.713-.834A2.2,2.2,0,0,0,583.541,444.531Zm-.942-7.539a1.736,1.736,0,0,0-.187-.792,2.138,2.138,0,0,0-.508-.646,2.378,2.378,0,0,0-.755-.435,2.677,2.677,0,0,0-.919-.157,2.705,2.705,0,0,0-.929.157,2.383,2.383,0,0,0-.756.435,2.135,2.135,0,0,0-.507.646,1.723,1.723,0,0,0-.187.792,1.68,1.68,0,0,0,.187.785,2.007,2.007,0,0,0,.507.628,2.477,2.477,0,0,0,.756.423,2.7,2.7,0,0,0,.929.157,2.676,2.676,0,0,0,.919-.157,2.471,2.471,0,0,0,.755-.423,2.01,2.01,0,0,0,.508-.628A1.692,1.692,0,0,0,582.6,436.992Z"/>
    </g>
    <g id="Group_206" data-name="Group 206" transform="translate(-282.675 -321.94)">
        <path id="Path_864" data-name="Path 864" d="M547.9,518.283a5.042,5.042,0,0,1-.411,2.025,5.256,5.256,0,0,1-2.766,2.772,5,5,0,0,1-2.019.411h-1.739a1.713,1.713,0,0,0-1.728,1.728v1.727h8.192v3.468H535.769v-5.2a5.034,5.034,0,0,1,.41-2.024,5.278,5.278,0,0,1,1.118-1.655,5.2,5.2,0,0,1,1.649-1.112,5.056,5.056,0,0,1,2.018-.4H542.7a1.7,1.7,0,0,0,1.227-.5,1.7,1.7,0,0,0,.369-.555,1.772,1.772,0,0,0,.133-.683,1.711,1.711,0,0,0-1.729-1.727h-6.185v-3.468H542.7a5,5,0,0,1,2.019.411,5.27,5.27,0,0,1,2.766,2.767A4.986,4.986,0,0,1,547.9,518.283Z"/>
        <path id="Path_865" data-name="Path 865" d="M563.7,521.751a13.858,13.858,0,0,1-.543,4.168,7.473,7.473,0,0,1-1.486,2.755,5.462,5.462,0,0,1-2.2,1.516,7.731,7.731,0,0,1-2.7.465,7.608,7.608,0,0,1-2.7-.476,5.518,5.518,0,0,1-2.2-1.535,7.574,7.574,0,0,1-1.48-2.754,16.105,16.105,0,0,1,0-8.3,7.508,7.508,0,0,1,1.48-2.749,5.488,5.488,0,0,1,2.2-1.523,7.948,7.948,0,0,1,5.4.006,5.544,5.544,0,0,1,2.2,1.541,7.613,7.613,0,0,1,1.486,2.755A13.648,13.648,0,0,1,563.7,521.751Zm-3.3,0a7.659,7.659,0,0,0-.961-4.289,3.062,3.062,0,0,0-2.675-1.4,3.018,3.018,0,0,0-2.647,1.388,10.265,10.265,0,0,0,0,8.591,3.01,3.01,0,0,0,2.647,1.4,3.342,3.342,0,0,0,1.534-.343,3,3,0,0,0,1.141-1.045,5.37,5.37,0,0,0,.713-1.771A11.339,11.339,0,0,0,560.4,521.751Z"/>
        <path id="Path_866" data-name="Path 866" d="M570.855,530.414h-3.467V516.556H565.66v-3.468h5.2Z"/>
        <path id="Path_867" data-name="Path 867" d="M586.889,519.455a15.983,15.983,0,0,1-.332,3.257,14.89,14.89,0,0,1-.961,3,13.235,13.235,0,0,1-1.534,2.61,11.28,11.28,0,0,1-2.055,2.09h-4.676a13.47,13.47,0,0,0,1.426-1.051,15.064,15.064,0,0,0,1.311-1.245,14.322,14.322,0,0,0,1.154-1.4,12.4,12.4,0,0,0,.942-1.523,6.535,6.535,0,0,1-1.136.6,3.248,3.248,0,0,1-1.244.247,6.816,6.816,0,0,1-2.646-.489,5.753,5.753,0,0,1-2-1.365,5.98,5.98,0,0,1-1.269-2.084,7.646,7.646,0,0,1-.441-2.647,7.038,7.038,0,0,1,.5-2.651,6.906,6.906,0,0,1,1.382-2.188,6.509,6.509,0,0,1,2.091-1.479,6.286,6.286,0,0,1,2.621-.544,6.613,6.613,0,0,1,2.677.544,6.905,6.905,0,0,1,3.649,3.667A6.645,6.645,0,0,1,586.889,519.455Zm-3.709,0a3.615,3.615,0,0,0-.231-1.28,3.426,3.426,0,0,0-.645-1.088,3.128,3.128,0,0,0-1-.749,3.145,3.145,0,0,0-2.568-.006,3.079,3.079,0,0,0-.985.731,3.179,3.179,0,0,0-.628,1.076,3.921,3.921,0,0,0-.218,1.316,3.839,3.839,0,0,0,.218,1.3,3.175,3.175,0,0,0,.628,1.069,2.994,2.994,0,0,0,.985.726,3.027,3.027,0,0,0,1.286.265,3.107,3.107,0,0,0,1.3-.265,2.951,2.951,0,0,0,1-.726,3.259,3.259,0,0,0,.635-1.069A3.768,3.768,0,0,0,583.18,519.455Z"/>
    </g>
    <g id="Group_207" data-name="Group 207" transform="translate(-282.675 -321.94)">
        <path id="Path_868" data-name="Path 868" d="M544.45,598.291a5.035,5.035,0,0,1-.411,2.024,5.251,5.251,0,0,1-2.767,2.773,5,5,0,0,1-2.018.411h-1.739a1.713,1.713,0,0,0-1.728,1.728v1.727h8.192v3.468h-11.66v-5.2a5.05,5.05,0,0,1,.41-2.024,5.286,5.286,0,0,1,1.119-1.655,5.191,5.191,0,0,1,1.649-1.112,5.056,5.056,0,0,1,2.018-.4h1.739a1.711,1.711,0,0,0,.677-.133,1.71,1.71,0,0,0,.919-.924,1.772,1.772,0,0,0,.132-.683,1.712,1.712,0,0,0-1.051-1.6,1.711,1.711,0,0,0-.677-.133h-6.186V593.1h6.186a4.971,4.971,0,0,1,2.018.411,5.27,5.27,0,0,1,2.767,2.766A4.992,4.992,0,0,1,544.45,598.291Z"/>
        <path id="Path_869" data-name="Path 869" d="M560.253,601.759a13.863,13.863,0,0,1-.543,4.168,7.483,7.483,0,0,1-1.486,2.755,5.469,5.469,0,0,1-2.205,1.516,7.736,7.736,0,0,1-2.7.465,7.6,7.6,0,0,1-2.7-.476,5.514,5.514,0,0,1-2.2-1.536,7.582,7.582,0,0,1-1.481-2.754,16.131,16.131,0,0,1,0-8.3,7.525,7.525,0,0,1,1.481-2.749,5.472,5.472,0,0,1,2.2-1.523,7.933,7.933,0,0,1,5.4.006,5.541,5.541,0,0,1,2.205,1.541,7.614,7.614,0,0,1,1.486,2.755A13.648,13.648,0,0,1,560.253,601.759Zm-3.3,0a7.659,7.659,0,0,0-.961-4.289,3.063,3.063,0,0,0-2.676-1.4,3.018,3.018,0,0,0-2.646,1.389,10.255,10.255,0,0,0,0,8.591,3.011,3.011,0,0,0,2.646,1.4,3.334,3.334,0,0,0,1.535-.344,3,3,0,0,0,1.141-1.044,5.372,5.372,0,0,0,.713-1.771A11.341,11.341,0,0,0,556.955,601.759Z"/>
        <path id="Path_870" data-name="Path 870" d="M574.463,598.291a5.051,5.051,0,0,1-.411,2.024,5.251,5.251,0,0,1-2.767,2.773,5.012,5.012,0,0,1-2.018.411h-1.74a1.713,1.713,0,0,0-1.727,1.728v1.727h8.191v3.468H562.332v-5.2a5.05,5.05,0,0,1,.41-2.024,5.3,5.3,0,0,1,1.118-1.655,5.207,5.207,0,0,1,1.65-1.112,5.055,5.055,0,0,1,2.017-.4h1.74a1.706,1.706,0,0,0,.676-.133,1.7,1.7,0,0,0,.919-.924,1.772,1.772,0,0,0,.133-.683,1.71,1.71,0,0,0-1.052-1.6,1.706,1.706,0,0,0-.676-.133h-6.186V593.1h6.186a4.978,4.978,0,0,1,2.018.411,5.31,5.31,0,0,1,1.65,1.117,5.37,5.37,0,0,1,1.117,1.649A5.008,5.008,0,0,1,574.463,598.291Z"/>
        <path id="Path_871" data-name="Path 871" d="M590.266,601.759a13.863,13.863,0,0,1-.543,4.168,7.5,7.5,0,0,1-1.487,2.755,5.462,5.462,0,0,1-2.205,1.516,7.731,7.731,0,0,1-2.7.465,7.6,7.6,0,0,1-2.7-.476,5.514,5.514,0,0,1-2.2-1.536,7.566,7.566,0,0,1-1.481-2.754,16.1,16.1,0,0,1,0-8.3,7.51,7.51,0,0,1,1.481-2.749,5.472,5.472,0,0,1,2.2-1.523,7.93,7.93,0,0,1,5.4.006,5.534,5.534,0,0,1,2.205,1.541,7.63,7.63,0,0,1,1.487,2.755A13.648,13.648,0,0,1,590.266,601.759Zm-3.3,0a7.667,7.667,0,0,0-.961-4.289,3.065,3.065,0,0,0-2.676-1.4,3.017,3.017,0,0,0-2.646,1.389,10.255,10.255,0,0,0,0,8.591,3.01,3.01,0,0,0,2.646,1.4,3.33,3.33,0,0,0,1.534-.344,3.011,3.011,0,0,0,1.142-1.044,5.393,5.393,0,0,0,.713-1.771A11.341,11.341,0,0,0,586.968,601.759Z"/>
    </g>
    <g id="Group_208" data-name="Group 208" transform="translate(-282.675 -321.94)">
        <path id="Path_872" data-name="Path 872" d="M548.462,679.949a5.06,5.06,0,0,1-.411,2.025,5.253,5.253,0,0,1-2.767,2.772,4.994,4.994,0,0,1-2.018.411h-1.74a1.713,1.713,0,0,0-1.727,1.728v1.727h8.191v3.468H536.331v-5.2a5.05,5.05,0,0,1,.41-2.024,5.311,5.311,0,0,1,1.118-1.655,5.207,5.207,0,0,1,1.65-1.112,5.054,5.054,0,0,1,2.017-.4h1.74a1.7,1.7,0,0,0,1.6-1.057,1.774,1.774,0,0,0,.133-.683,1.71,1.71,0,0,0-.5-1.226,1.708,1.708,0,0,0-1.226-.5H537.08v-3.468h6.186a5,5,0,0,1,2.018.411,5.267,5.267,0,0,1,2.767,2.767A5,5,0,0,1,548.462,679.949Z"/>
        <path id="Path_873" data-name="Path 873" d="M564.265,683.417a13.859,13.859,0,0,1-.543,4.168,7.49,7.49,0,0,1-1.487,2.755,5.462,5.462,0,0,1-2.2,1.516,7.731,7.731,0,0,1-2.7.465,7.6,7.6,0,0,1-2.7-.476,5.51,5.51,0,0,1-2.2-1.535,7.59,7.59,0,0,1-1.481-2.754,16.105,16.105,0,0,1,0-8.3,7.524,7.524,0,0,1,1.481-2.749,5.481,5.481,0,0,1,2.2-1.523,7.946,7.946,0,0,1,5.4.006,5.542,5.542,0,0,1,2.2,1.541,7.63,7.63,0,0,1,1.487,2.755A13.649,13.649,0,0,1,564.265,683.417Zm-3.3,0a7.669,7.669,0,0,0-.961-4.289,3.064,3.064,0,0,0-2.676-1.4,3.016,3.016,0,0,0-2.646,1.388,10.255,10.255,0,0,0,0,8.591,3.008,3.008,0,0,0,2.646,1.4,3.342,3.342,0,0,0,1.534-.343,3.013,3.013,0,0,0,1.142-1.045,5.393,5.393,0,0,0,.713-1.771A11.339,11.339,0,0,0,560.967,683.417Z"/>
        <path id="Path_874" data-name="Path 874" d="M578.475,679.949a5.043,5.043,0,0,1-.412,2.025,5.256,5.256,0,0,1-2.766,2.772,5,5,0,0,1-2.019.411h-1.739a1.71,1.71,0,0,0-1.727,1.728v1.727H578v3.468H566.344v-5.2a5.033,5.033,0,0,1,.41-2.024,5.278,5.278,0,0,1,1.118-1.655,5.214,5.214,0,0,1,1.649-1.112,5.055,5.055,0,0,1,2.018-.4h1.739a1.7,1.7,0,0,0,1.6-1.057,1.774,1.774,0,0,0,.133-.683,1.71,1.71,0,0,0-.5-1.226,1.708,1.708,0,0,0-1.227-.5h-6.185v-3.468h6.185a5,5,0,0,1,2.019.411,5.27,5.27,0,0,1,2.766,2.767A4.988,4.988,0,0,1,578.475,679.949Z"/>
        <path id="Path_875" data-name="Path 875" d="M585.542,692.08h-3.468V678.222h-1.727v-3.468h5.2Z"/>
    </g>
    <path id="Path_876" data-name="Path 876" d="M500.031,379.486h-2.643a3.535,3.535,0,0,1-3.525-3.525V353.642q.54-1.186,1.036-2.489a41.839,41.839,0,0,0,2.489-10.727h2.643a41.8,41.8,0,0,0,2.489,10.727c.328.869.675,1.7,1.035,2.489v22.319A3.535,3.535,0,0,1,500.031,379.486Z" transform="translate(-282.675 -321.94)" fill="#ff8d00"/>
    <path id="Path_877" data-name="Path 877" d="M473.636,379.486h-2.643a3.535,3.535,0,0,1-3.524-3.525V353.642c.36-.791.707-1.62,1.035-2.489a41.8,41.8,0,0,0,2.489-10.727h2.643a41.839,41.839,0,0,0,2.489,10.727q.494,1.3,1.036,2.489v22.319A3.535,3.535,0,0,1,473.636,379.486Z" transform="translate(-282.675 -321.94)" fill="#ff8d00"/>
    <path id="Path_878" data-name="Path 878" d="M447.242,379.486H444.6a3.535,3.535,0,0,1-3.524-3.525V353.642c.359-.791.707-1.62,1.035-2.489a41.8,41.8,0,0,0,2.489-10.727h2.643a41.8,41.8,0,0,0,2.489,10.727c.328.869.676,1.7,1.035,2.489v22.319A3.535,3.535,0,0,1,447.242,379.486Z" transform="translate(-282.675 -321.94)" fill="#ff8d00"/>
    <path id="Path_879" data-name="Path 879" d="M420.848,379.486H418.2a3.535,3.535,0,0,1-3.525-3.525V353.642q.54-1.186,1.036-2.489a41.838,41.838,0,0,0,2.489-10.727h2.643a41.8,41.8,0,0,0,2.489,10.727c.328.869.675,1.7,1.035,2.489v22.319A3.535,3.535,0,0,1,420.848,379.486Z" transform="translate(-282.675 -321.94)" fill="#ff8d00"/>
    <path id="Path_880" data-name="Path 880" d="M394.453,379.486H391.81a3.535,3.535,0,0,1-3.524-3.525V353.642c.36-.791.707-1.62,1.035-2.489a41.8,41.8,0,0,0,2.489-10.727h2.643a41.841,41.841,0,0,0,2.489,10.727q.494,1.3,1.036,2.489v22.319A3.535,3.535,0,0,1,394.453,379.486Z" transform="translate(-282.675 -321.94)" fill="#ff8d00"/>
    <path id="Path_881" data-name="Path 881" d="M368.059,379.486h-2.643a3.535,3.535,0,0,1-3.524-3.525V353.642c.359-.791.707-1.62,1.035-2.489a41.8,41.8,0,0,0,2.489-10.727h2.643a41.8,41.8,0,0,0,2.489,10.727c.328.869.676,1.7,1.035,2.489v22.319A3.535,3.535,0,0,1,368.059,379.486Z" transform="translate(-282.675 -321.94)" fill="#ff8d00"/>
    <path id="Path_882" data-name="Path 882" d="M341.665,379.486h-2.643a3.535,3.535,0,0,1-3.525-3.525V353.642q.54-1.186,1.036-2.489a41.839,41.839,0,0,0,2.489-10.727h2.643a41.8,41.8,0,0,0,2.489,10.727c.328.869.675,1.7,1.035,2.489v22.319A3.535,3.535,0,0,1,341.665,379.486Z" transform="translate(-282.675 -321.94)" fill="#ff8d00"/>
    <path id="Path_883" data-name="Path 883" d="M315.27,379.486h-2.643a3.535,3.535,0,0,1-3.524-3.525V353.642c.36-.791.707-1.62,1.035-2.489a41.8,41.8,0,0,0,2.489-10.727h2.643a41.839,41.839,0,0,0,2.489,10.727c.329.869.676,1.7,1.035,2.489v22.319A3.534,3.534,0,0,1,315.27,379.486Z" transform="translate(-282.675 -321.94)" fill="#ff8d00"/>
    <path id="Path_884" data-name="Path 884" d="M288.876,379.486h-2.643a3.535,3.535,0,0,1-3.524-3.525V353.642c.359-.791.707-1.62,1.035-2.489a41.8,41.8,0,0,0,2.489-10.727h2.643a41.8,41.8,0,0,0,2.489,10.727c.328.869.676,1.7,1.035,2.489v22.319A3.535,3.535,0,0,1,288.876,379.486Z" transform="translate(-282.675 -321.94)" fill="#ff8d00"/>
    <path id="Path_885" data-name="Path 885" d="M500.031,541.151h-2.643a3.535,3.535,0,0,1-3.525-3.524v-22.32q.54-1.185,1.036-2.489a41.83,41.83,0,0,0,2.489-10.727h2.643a41.788,41.788,0,0,0,2.489,10.727c.328.869.675,1.7,1.035,2.489v22.32A3.535,3.535,0,0,1,500.031,541.151Z" transform="translate(-282.675 -321.94)" fill="#ff8d00"/>
    <path id="Path_886" data-name="Path 886" d="M473.636,541.151h-2.643a3.535,3.535,0,0,1-3.524-3.524v-22.32c.36-.79.707-1.62,1.035-2.489a41.788,41.788,0,0,0,2.489-10.727h2.643a41.83,41.83,0,0,0,2.489,10.727q.494,1.3,1.036,2.489v22.32A3.535,3.535,0,0,1,473.636,541.151Z" transform="translate(-282.675 -321.94)" fill="#ff8d00"/>
    <path id="Path_887" data-name="Path 887" d="M447.242,541.151H444.6a3.535,3.535,0,0,1-3.524-3.524v-22.32c.359-.79.707-1.62,1.035-2.489a41.788,41.788,0,0,0,2.489-10.727h2.643a41.789,41.789,0,0,0,2.489,10.727c.328.869.676,1.7,1.035,2.489v22.32A3.535,3.535,0,0,1,447.242,541.151Z" transform="translate(-282.675 -321.94)" fill="#ff8d00"/>
    <path id="Path_888" data-name="Path 888" d="M420.848,541.151H418.2a3.535,3.535,0,0,1-3.525-3.524v-22.32q.54-1.185,1.036-2.489a41.829,41.829,0,0,0,2.489-10.727h2.643a41.788,41.788,0,0,0,2.489,10.727c.328.869.675,1.7,1.035,2.489v22.32A3.535,3.535,0,0,1,420.848,541.151Z" transform="translate(-282.675 -321.94)" fill="#ff8d00"/>
    <path id="Path_889" data-name="Path 889" d="M394.453,541.151H391.81a3.535,3.535,0,0,1-3.524-3.524v-22.32c.36-.79.707-1.62,1.035-2.489a41.789,41.789,0,0,0,2.489-10.727h2.643a41.831,41.831,0,0,0,2.489,10.727q.494,1.3,1.036,2.489v22.32A3.535,3.535,0,0,1,394.453,541.151Z" transform="translate(-282.675 -321.94)" fill="#ff8d00"/>
    <path id="Path_890" data-name="Path 890" d="M368.059,541.151h-2.643a3.535,3.535,0,0,1-3.524-3.524v-22.32c.359-.79.707-1.62,1.035-2.489a41.787,41.787,0,0,0,2.489-10.727h2.643a41.788,41.788,0,0,0,2.489,10.727c.328.869.676,1.7,1.035,2.489v22.32A3.535,3.535,0,0,1,368.059,541.151Z" transform="translate(-282.675 -321.94)" fill="#ff8d00"/>
    <path id="Path_891" data-name="Path 891" d="M341.665,541.151h-2.643a3.535,3.535,0,0,1-3.525-3.524v-22.32q.54-1.185,1.036-2.489a41.83,41.83,0,0,0,2.489-10.727h2.643a41.788,41.788,0,0,0,2.489,10.727c.328.869.675,1.7,1.035,2.489v22.32A3.535,3.535,0,0,1,341.665,541.151Z" transform="translate(-282.675 -321.94)" fill="#ff8d00"/>
    <path id="Path_892" data-name="Path 892" d="M315.27,541.151h-2.643a3.535,3.535,0,0,1-3.524-3.524v-22.32c.36-.79.707-1.62,1.035-2.489a41.788,41.788,0,0,0,2.489-10.727h2.643a41.83,41.83,0,0,0,2.489,10.727c.329.869.676,1.7,1.035,2.489v22.32A3.534,3.534,0,0,1,315.27,541.151Z" transform="translate(-282.675 -321.94)" fill="#ff8d00"/>
    <path id="Path_893" data-name="Path 893" d="M288.876,541.151h-2.643a3.535,3.535,0,0,1-3.524-3.524v-22.32c.359-.79.707-1.62,1.035-2.489a41.788,41.788,0,0,0,2.489-10.727h2.643a41.788,41.788,0,0,0,2.489,10.727c.328.869.676,1.7,1.035,2.489v22.32A3.535,3.535,0,0,1,288.876,541.151Z" transform="translate(-282.675 -321.94)" fill="#ff8d00"/>
    <path id="Path_894" data-name="Path 894" d="M500.031,460.318h-2.643a3.535,3.535,0,0,1-3.525-3.524v-22.32q.54-1.185,1.036-2.489a41.823,41.823,0,0,0,2.489-10.726h2.643a41.781,41.781,0,0,0,2.489,10.726c.328.87.675,1.7,1.035,2.489v22.32A3.535,3.535,0,0,1,500.031,460.318Z" transform="translate(-282.675 -321.94)" fill="#ff8d00"/>
    <path id="Path_895" data-name="Path 895" d="M473.636,460.318h-2.643a3.535,3.535,0,0,1-3.524-3.524v-22.32c.36-.79.707-1.619,1.035-2.489a41.781,41.781,0,0,0,2.489-10.726h2.643a41.823,41.823,0,0,0,2.489,10.726q.494,1.305,1.036,2.489v22.32A3.535,3.535,0,0,1,473.636,460.318Z" transform="translate(-282.675 -321.94)" fill="#ff8d00"/>
    <path id="Path_896" data-name="Path 896" d="M447.242,460.318H444.6a3.535,3.535,0,0,1-3.524-3.524v-22.32c.359-.79.707-1.619,1.035-2.489a41.781,41.781,0,0,0,2.489-10.726h2.643a41.782,41.782,0,0,0,2.489,10.726c.328.87.676,1.7,1.035,2.489v22.32A3.535,3.535,0,0,1,447.242,460.318Z" transform="translate(-282.675 -321.94)" fill="#ff8d00"/>
    <path id="Path_897" data-name="Path 897" d="M420.848,460.318H418.2a3.535,3.535,0,0,1-3.525-3.524v-22.32q.54-1.185,1.036-2.489a41.822,41.822,0,0,0,2.489-10.726h2.643a41.781,41.781,0,0,0,2.489,10.726c.328.87.675,1.7,1.035,2.489v22.32A3.535,3.535,0,0,1,420.848,460.318Z" transform="translate(-282.675 -321.94)" fill="#ff8d00"/>
    <path id="Path_898" data-name="Path 898" d="M394.453,460.318H391.81a3.535,3.535,0,0,1-3.524-3.524v-22.32c.36-.79.707-1.619,1.035-2.489a41.782,41.782,0,0,0,2.489-10.726h2.643a41.824,41.824,0,0,0,2.489,10.726q.494,1.305,1.036,2.489v22.32A3.535,3.535,0,0,1,394.453,460.318Z" transform="translate(-282.675 -321.94)" fill="#ff8d00"/>
    <path id="Path_899" data-name="Path 899" d="M368.059,460.318h-2.643a3.535,3.535,0,0,1-3.524-3.524v-22.32c.359-.79.707-1.619,1.035-2.489a41.78,41.78,0,0,0,2.489-10.726h2.643a41.781,41.781,0,0,0,2.489,10.726c.328.87.676,1.7,1.035,2.489v22.32A3.535,3.535,0,0,1,368.059,460.318Z" transform="translate(-282.675 -321.94)" fill="#ff8d00"/>
    <path id="Path_900" data-name="Path 900" d="M341.665,460.318h-2.643a3.535,3.535,0,0,1-3.525-3.524v-22.32q.54-1.185,1.036-2.489a41.823,41.823,0,0,0,2.489-10.726h2.643a41.781,41.781,0,0,0,2.489,10.726c.328.87.675,1.7,1.035,2.489v22.32A3.535,3.535,0,0,1,341.665,460.318Z" transform="translate(-282.675 -321.94)" fill="#ff8d00"/>
    <path id="Path_901" data-name="Path 901" d="M315.27,460.318h-2.643a3.535,3.535,0,0,1-3.524-3.524v-22.32c.36-.79.707-1.619,1.035-2.489a41.781,41.781,0,0,0,2.489-10.726h2.643a41.823,41.823,0,0,0,2.489,10.726c.329.87.676,1.7,1.035,2.489v22.32A3.534,3.534,0,0,1,315.27,460.318Z" transform="translate(-282.675 -321.94)" fill="#ff8d00"/>
    <path id="Path_902" data-name="Path 902" d="M500.031,621.984h-2.643a3.535,3.535,0,0,1-3.525-3.525V596.14q.54-1.187,1.036-2.489a41.839,41.839,0,0,0,2.489-10.727h2.643a41.8,41.8,0,0,0,2.489,10.727c.328.869.675,1.7,1.035,2.489v22.319A3.535,3.535,0,0,1,500.031,621.984Z" transform="translate(-282.675 -321.94)" fill="#ff8d00"/>
    <path id="Path_903" data-name="Path 903" d="M473.636,621.984h-2.643a3.535,3.535,0,0,1-3.524-3.525V596.14c.36-.791.707-1.62,1.035-2.489a41.8,41.8,0,0,0,2.489-10.727h2.643a41.839,41.839,0,0,0,2.489,10.727q.494,1.3,1.036,2.489v22.319A3.535,3.535,0,0,1,473.636,621.984Z" transform="translate(-282.675 -321.94)" fill="#ff8d00"/>
    <path id="Path_904" data-name="Path 904" d="M447.242,621.984H444.6a3.535,3.535,0,0,1-3.524-3.525V596.14c.359-.791.707-1.62,1.035-2.489a41.8,41.8,0,0,0,2.489-10.727h2.643a41.8,41.8,0,0,0,2.489,10.727c.328.869.676,1.7,1.035,2.489v22.319A3.535,3.535,0,0,1,447.242,621.984Z" transform="translate(-282.675 -321.94)" fill="#ff8d00"/>
    <path id="Path_905" data-name="Path 905" d="M420.848,621.984H418.2a3.535,3.535,0,0,1-3.525-3.525V596.14q.54-1.187,1.036-2.489a41.838,41.838,0,0,0,2.489-10.727h2.643a41.8,41.8,0,0,0,2.489,10.727c.328.869.675,1.7,1.035,2.489v22.319A3.535,3.535,0,0,1,420.848,621.984Z" transform="translate(-282.675 -321.94)" fill="#ff8d00"/>
    <path id="Path_906" data-name="Path 906" d="M394.453,621.984H391.81a3.535,3.535,0,0,1-3.524-3.525V596.14c.36-.791.707-1.62,1.035-2.489a41.8,41.8,0,0,0,2.489-10.727h2.643a41.84,41.84,0,0,0,2.489,10.727q.494,1.3,1.036,2.489v22.319A3.535,3.535,0,0,1,394.453,621.984Z" transform="translate(-282.675 -321.94)" fill="#ff8d00"/>
    <path id="Path_907" data-name="Path 907" d="M368.059,621.984h-2.643a3.535,3.535,0,0,1-3.524-3.525V596.14c.359-.791.707-1.62,1.035-2.489a41.8,41.8,0,0,0,2.489-10.727h2.643a41.8,41.8,0,0,0,2.489,10.727c.328.869.676,1.7,1.035,2.489v22.319A3.535,3.535,0,0,1,368.059,621.984Z" transform="translate(-282.675 -321.94)" fill="#ff8d00"/>
    <path id="Path_908" data-name="Path 908" d="M500.031,701.991h-2.643a3.534,3.534,0,0,1-3.525-3.524V676.148q.54-1.187,1.036-2.489a41.839,41.839,0,0,0,2.489-10.727h2.643a41.8,41.8,0,0,0,2.489,10.727c.328.869.675,1.7,1.035,2.489v22.319A3.534,3.534,0,0,1,500.031,701.991Z" transform="translate(-282.675 -321.94)" fill="#ff8d00"/>
    <circle id="Ellipse_473" data-name="Ellipse 473" cx="17.273" cy="17.273" r="17.273" transform="translate(1099.771 487.959)" fill="#ff8d00"/>
    <text id="_100_plastic_flesjes" data-name="=  100 plastic flesjes" transform="translate(1147.297 514.184)" font-size="28.869" font-family="Helvetica"><tspan x="0" y="0" xml:space="preserve">=  100 plastic flesjes</tspan></text>
    <text id="_Een_plastic_flesje" data-name="=  Een plastic flesje" transform="translate(571.645 509.184)" font-size="28.869" font-family="Helvetica"><tspan x="0" y="0" xml:space="preserve">=  Een plastic flesje</tspan></text>
    <path id="Path_909" data-name="Path 909" d="M827.445,848.343h-3.96a5.3,5.3,0,0,1-5.28-5.28v-33.44c.538-1.184,1.059-2.427,1.551-3.729a62.669,62.669,0,0,0,3.729-16.071h3.96a62.587,62.587,0,0,0,3.729,16.071c.492,1.3,1.012,2.545,1.551,3.729v33.44A5.3,5.3,0,0,1,827.445,848.343Z" transform="translate(-282.675 -321.94)" fill="#ff8d00"/>
    <path id="Path_910" data-name="Path 910" d="M473.636,701.991h-2.643a3.534,3.534,0,0,1-3.524-3.524V676.148c.36-.791.707-1.62,1.035-2.489a41.8,41.8,0,0,0,2.489-10.727h2.643a41.839,41.839,0,0,0,2.489,10.727q.494,1.3,1.036,2.489v22.319A3.534,3.534,0,0,1,473.636,701.991Z" transform="translate(-282.675 -321.94)" fill="#ff8d00"/>
    <path id="Path_911" data-name="Path 911" d="M447.242,701.991H444.6a3.534,3.534,0,0,1-3.524-3.524V676.148c.359-.791.707-1.62,1.035-2.489a41.8,41.8,0,0,0,2.489-10.727h2.643a41.8,41.8,0,0,0,2.489,10.727c.328.869.676,1.7,1.035,2.489v22.319A3.534,3.534,0,0,1,447.242,701.991Z" transform="translate(-282.675 -321.94)" fill="#ff8d00"/>
    <path id="Path_912" data-name="Path 912" d="M420.848,701.991H418.2a3.534,3.534,0,0,1-3.525-3.524V676.148q.54-1.187,1.036-2.489a41.838,41.838,0,0,0,2.489-10.727h2.643a41.8,41.8,0,0,0,2.489,10.727c.328.869.675,1.7,1.035,2.489v22.319A3.534,3.534,0,0,1,420.848,701.991Z" transform="translate(-282.675 -321.94)" fill="#ff8d00"/>
    <path id="Path_913" data-name="Path 913" d="M394.453,701.991H391.81a3.534,3.534,0,0,1-3.524-3.524V676.148c.36-.791.707-1.62,1.035-2.489a41.8,41.8,0,0,0,2.489-10.727h2.643a41.84,41.84,0,0,0,2.489,10.727q.494,1.3,1.036,2.489v22.319A3.534,3.534,0,0,1,394.453,701.991Z" transform="translate(-282.675 -321.94)" fill="#ff8d00"/>
    <path id="Path_914" data-name="Path 914" d="M368.059,701.991h-2.643a3.534,3.534,0,0,1-3.524-3.524V676.148c.359-.791.707-1.62,1.035-2.489a41.8,41.8,0,0,0,2.489-10.727h2.643a41.8,41.8,0,0,0,2.489,10.727c.328.869.676,1.7,1.035,2.489v22.319A3.534,3.534,0,0,1,368.059,701.991Z" transform="translate(-282.675 -321.94)" fill="#ff8d00"/>
    <path id="Path_915" data-name="Path 915" d="M341.665,621.984h-2.643a3.535,3.535,0,0,1-3.525-3.525V596.14q.54-1.187,1.036-2.489a41.839,41.839,0,0,0,2.489-10.727h2.643a41.8,41.8,0,0,0,2.489,10.727c.328.869.675,1.7,1.035,2.489v22.319A3.535,3.535,0,0,1,341.665,621.984Z" transform="translate(-282.675 -321.94)" fill="#ff8d00"/>
    <path id="Path_916" data-name="Path 916" d="M315.27,621.984h-2.643a3.535,3.535,0,0,1-3.524-3.525V596.14c.36-.791.707-1.62,1.035-2.489a41.8,41.8,0,0,0,2.489-10.727h2.643a41.839,41.839,0,0,0,2.489,10.727c.329.869.676,1.7,1.035,2.489v22.319A3.534,3.534,0,0,1,315.27,621.984Z" transform="translate(-282.675 -321.94)" fill="#ff8d00"/>
    <path id="Path_917" data-name="Path 917" d="M283.175,720.428V759.82h220.6V720.428" transform="translate(-282.675 -321.94)" fill="none" stroke="#000" stroke-miterlimit="10" stroke-width="1"/>
    <text id="Plastic_flesjes_per_kilometer" data-name="Plastic flesjes
per kilometer" transform="translate(109.827 491.863)" font-size="28.869" font-family="Helvetica"><tspan x="-87.438" y="0">Plastic flesjes</tspan><tspan x="-83.428" y="34.643">per kilometer</tspan></text>
</svg>
