<svg xmlns="http://www.w3.org/2000/svg" width="1219.89" height="724.048" preserveAspectRatio="xMinYMin" viewBox="0 0 1219.89 724.048">
    <rect id="Rectangle_2256" data-name="Rectangle 2256" width="656.361" height="47.442" transform="translate(335.643 39.121)" fill="#00ace7" stroke="#fff" stroke-miterlimit="10" stroke-width="2"/>
    <rect id="Rectangle_2257" data-name="Rectangle 2257" width="651.361" height="47.442" transform="translate(335.643 86.562)" fill="#00ace7" stroke="#fff" stroke-miterlimit="10" stroke-width="2"/>
    <rect id="Rectangle_2260" data-name="Rectangle 2260" width="792.361" height="47.442" transform="translate(335.643 134.004)" fill="#00ace7" stroke="#fff" stroke-miterlimit="10" stroke-width="2"/>
    <rect id="Rectangle_2261" data-name="Rectangle 2261" width="704.361" height="47.442" transform="translate(335.643 181.445)" fill="#00ace7" stroke="#fff" stroke-miterlimit="10" stroke-width="2"/>
    <rect id="Rectangle_2262" data-name="Rectangle 2262" width="604.361" height="47.442" transform="translate(335.643 228.887)" fill="#00ace7" stroke="#fff" stroke-miterlimit="10" stroke-width="2"/>
    <path id="Path_1772" data-name="Path 1772" d="M670.468,537.864c.165,0,.321,0,.486.01V491.258c-.165-.009-.321-.009-.486-.009a94.674,94.674,0,0,0-94.678,94.2h46.849A47.828,47.828,0,0,1,670.468,537.864Z" transform="translate(-343.559 -262.088)" fill="#ccc"/>
    <path id="Path_1773" data-name="Path 1773" d="M670.468,491.249c.165,0,.321,0,.486.009v-47.6h-.486A142.277,142.277,0,0,0,528.194,585.451h47.6A94.674,94.674,0,0,1,670.468,491.249Z" transform="translate(-343.559 -262.088)" fill="#ccc"/>
    <path id="Path_1774" data-name="Path 1774" d="M670.468,443.662h.486v-47.1h-.486A189.734,189.734,0,0,0,512.19,481.508c-.554.845-1.107,1.69-1.651,2.535s-1.078,1.7-1.612,2.563-1.059,1.72-1.574,2.584c-.534.893-1.058,1.8-1.573,2.7s-1.039,1.825-1.544,2.738a188.807,188.807,0,0,0-23.619,90.823h47.577A142.277,142.277,0,0,1,670.468,443.662Z" transform="translate(-343.559 -262.088)" fill="#ccc"/>
    <path id="Path_1775" data-name="Path 1775" d="M670.468,395.59h.486V348.975h-.486c-130.6,0-236.476,105.875-236.476,236.476h46.616C480.608,480.6,565.613,395.59,670.468,395.59Z" transform="translate(-343.559 -262.088)" fill="#ccc"/>
    <path id="Path_1776" data-name="Path 1776" d="M670.468,348.975h.486V301.388h-.486q-3.686,0-7.361.1c-1.224.029-2.447.068-3.661.117-1.069.039-2.127.078-3.186.136-.689.029-1.369.068-2.059.116q-1.019.043-2.039.117c-1.214.068-2.418.155-3.622.252-1.137.078-2.273.165-3.409.272a5.5,5.5,0,0,0-.583.058q-4.938.438-9.838,1.059c-.815.1-1.631.2-2.447.311q-2.753.364-5.487.8c-1.058.156-2.107.321-3.156.495a283.888,283.888,0,0,0-113.547,45.538q-1.764,1.209-3.516,2.447c-1.282.894-2.554,1.816-3.817,2.739-1.447,1.049-2.894,2.127-4.321,3.214-1.282.971-2.545,1.952-3.807,2.953A284.417,284.417,0,0,0,385.444,585.451h48.548C433.992,454.85,539.868,348.975,670.468,348.975Z" transform="translate(-343.559 -262.088)" fill="#ccc"/>
    <g id="Group_509" data-name="Group 509" transform="translate(-343.559 -262.088)">
        <path id="Path_1777" data-name="Path 1777" d="M502.818,418.286A235.479,235.479,0,0,1,670.468,348.9h.486v-.971h-.486a237.872,237.872,0,0,0-238.01,237.525h.971A235.484,235.484,0,0,1,502.818,418.286Z" fill="#fff"/>
    </g>
    <g id="Group_510" data-name="Group 510" transform="translate(-343.559 -262.088)">
        <path id="Path_1778" data-name="Path 1778" d="M480.617,585.451h.311a188.7,188.7,0,0,1,23.308-90.823c.505-.913,1.02-1.835,1.544-2.738s1.039-1.807,1.573-2.7c.515-.864,1.039-1.729,1.574-2.584s1.058-1.718,1.612-2.563c.534-.855,1.087-1.7,1.651-2.535A189.816,189.816,0,0,1,670.468,396.4h.486v-.971h-.486A190.422,190.422,0,0,0,479.957,585.451h.651v.485C480.608,585.771,480.608,585.616,480.617,585.451Z" fill="#fff"/>
    </g>
    <g id="Group_511" data-name="Group 511" transform="translate(-343.559 -262.088)">
        <path id="Path_1779" data-name="Path 1779" d="M570.012,485.48A141.11,141.11,0,0,1,670.468,443.9h.486v-.971h-.486a142.91,142.91,0,0,0-143,142.517h.971A141.111,141.111,0,0,1,570.012,485.48Z" fill="#fff"/>
    </g>
    <g id="Group_512" data-name="Group 512" transform="translate(-343.559 -262.088)">
        <path id="Path_1780" data-name="Path 1780" d="M670.468,491.414c.165,0,.321,0,.486.01v-.972c-.165-.009-.321-.009-.486-.009a95.591,95.591,0,0,0-95.484,95.008h.972A94.616,94.616,0,0,1,670.468,491.414Z" fill="#fff"/>
    </g>
    <g id="Group_513" data-name="Group 513" transform="translate(-343.559 -262.088)">
        <path id="Path_1781" data-name="Path 1781" d="M469.216,384.684a289.636,289.636,0,0,1,25.4-22.579c1.262-1,2.525-1.982,3.807-2.953,1.427-1.087,2.874-2.165,4.321-3.214,1.263-.923,2.535-1.845,3.817-2.739q1.747-1.238,3.516-2.447A280.9,280.9,0,0,1,623.62,305.214c1.049-.184,2.1-.349,3.156-.495q2.739-.436,5.487-.8c.816-.107,1.632-.214,2.447-.311q4.895-.627,9.838-1.059a5.5,5.5,0,0,1,.583-.058c1.136-.107,2.272-.194,3.409-.272,1.2-.1,2.408-.184,3.622-.252q1.02-.074,2.039-.117c.69-.048,1.37-.087,2.059-.116,1.059-.058,2.117-.1,3.186-.136,1.214-.049,2.437-.088,3.661-.117q3.671-.1,7.361-.1h.486v-.971h-.486A285.354,285.354,0,0,0,384.949,585.451h.971A282.714,282.714,0,0,1,469.216,384.684Z" fill="#fff"/>
    </g>
    <g id="Group_515" data-name="Group 515" transform="translate(-343.559 -262.088)" opacity="0.7">
        <g id="Group_514" data-name="Group 514">
            <path id="Path_1782" data-name="Path 1782" d="M344.728,550.683c10.045,5.123,20.073,9.936,30.355,14.565-.128,2.908-.174,4.367-.229,7.292-10.57,3.978-20.865,8.168-31.211,12.7-.083-3.717-.1-5.57-.074-9.265,8.36-3.182,12.56-4.663,20.99-7.406-8.24-3.291-12.338-5.037-20.481-8.733C344.286,556.16,344.416,554.329,344.728,550.683Z"/>
            <path id="Path_1783" data-name="Path 1783" d="M376.955,542.808c-.351,2.848-.509,4.276-.788,7.144q-15.546-1.535-31.091-3.071c.311-3.18.486-4.764.874-7.922Z"/>
            <path id="Path_1784" data-name="Path 1784" d="M382.389,512.342a237.731,237.731,0,0,0-4.548,23.889q-15.455-2.283-30.908-4.565a263.79,263.79,0,0,1,5.042-26.49l6.087,1.434c-1.7,7.249-2.45,10.915-3.724,18.314l6.162,1.067c.844-4.907,1.316-7.345,2.354-12.185l6.113,1.316c-1.017,4.742-1.479,7.129-2.306,11.935l6.14,1.064c1.2-6.955,1.9-10.4,3.5-17.214Z"/>
            <path id="Path_1785" data-name="Path 1785" d="M385.372,500.745c-.757,2.706-1.12,4.066-1.812,6.8l-30.286-7.688c1.535-6.059,2.375-9.062,4.2-15.005a17.555,17.555,0,0,1,1.656-3.788,16.457,16.457,0,0,1,2.344-3.1,14.822,14.822,0,0,1,2.855-2.311,12.689,12.689,0,0,1,3.184-1.42,11.211,11.211,0,0,1,3.324-.435,10.234,10.234,0,0,1,3.3.619,10.555,10.555,0,0,1,2.791,1.51,12.187,12.187,0,0,1,2.276,2.246,13.04,13.04,0,0,1,1.68,2.852,14.959,14.959,0,0,1,.991,3.309c3.605-.471,5.406-.684,9-1.063-.981,2.8-1.455,4.208-2.365,7.04-2.771.39-4.158.6-6.933,1.044-.931,3.065-1.376,4.606-2.224,7.7ZM361.3,494l12.043,3.373c.791-2.824,1.2-4.23,2.06-7.026a8.338,8.338,0,0,0,.374-2.847,7.814,7.814,0,0,0-.566-2.623,6.477,6.477,0,0,0-1.4-2.121,5.348,5.348,0,0,0-2.122-1.319,5.224,5.224,0,0,0-2.49-.21,6.223,6.223,0,0,0-2.4.912,7.709,7.709,0,0,0-2.011,1.878,8.473,8.473,0,0,0-1.344,2.663C362.557,489.6,362.128,491.062,361.3,494Z"/>
            <path id="Path_1786" data-name="Path 1786" d="M390.432,444.117a13.6,13.6,0,0,1,3.439,2.411,15.039,15.039,0,0,1,2.556,3.256,17.531,17.531,0,0,1,1.658,3.851,18.3,18.3,0,0,1,.729,4.243,19.757,19.757,0,0,1-.265,4.442,20.223,20.223,0,0,1-1.315,4.454c-1.625,3.852-2.4,5.8-3.889,9.717l-29.221-11.068c1.648-4.348,2.511-6.5,4.312-10.775a21.477,21.477,0,0,1,2.531-4.466,20.18,20.18,0,0,1,3.316-3.525,17.669,17.669,0,0,1,3.844-2.447,16.021,16.021,0,0,1,4.119-1.286,13.688,13.688,0,0,1,4.174-.056A13.083,13.083,0,0,1,390.432,444.117Zm-3.158,6.579a7.868,7.868,0,0,0-3.663-.749,9.229,9.229,0,0,0-3.7.931,11.331,11.331,0,0,0-3.3,2.449,12.386,12.386,0,0,0-2.418,3.748c-.585,1.387-.873,2.082-1.442,3.477l17.358,7.063c.534-1.311.8-1.964,1.354-3.268a12.16,12.16,0,0,0,.967-4.095,11.338,11.338,0,0,0-.448-3.922A9.71,9.71,0,0,0,390.23,453,8.194,8.194,0,0,0,387.274,450.7Z"/>
            <path id="Path_1787" data-name="Path 1787" d="M418.166,426.422c-4.992,8-7.331,12.112-11.665,20.528l-27.788-14.282c4.806-9.331,7.4-13.89,12.934-22.762l5.307,3.306c-3.842,6.158-5.677,9.3-9.163,15.684l5.491,2.991c2.312-4.235,3.509-6.328,5.981-10.462l5.369,3.205c-2.422,4.049-3.594,6.1-5.859,10.249l5.472,2.98c3.277-6,5-8.954,8.613-14.742Z"/>
            <path id="Path_1788" data-name="Path 1788" d="M432.55,405.486c-1.654,2.192-2.467,3.3-4.069,5.532l-25.4-18.193c1.776-2.476,2.678-3.7,4.512-6.134l12.476,9.4c-1.746-8.061-2.491-12.168-3.7-20.511,2.2-2.665,3.32-3.983,5.592-6.587.816,7.083,1.325,10.582,2.531,17.476,8.514.958,12.722,1.572,21.013,3.056-2.049,2.349-3.058,3.537-5.043,5.941-5.816-.9-8.752-1.279-14.672-1.916.662,3.3,1.016,4.931,1.766,8.177Z"/>
            <path id="Path_1789" data-name="Path 1789" d="M465.778,356.451a8.42,8.42,0,0,1,1.806,3.276,9.725,9.725,0,0,1,.333,3.711,10.889,10.889,0,0,1-1.078,3.7,11.4,11.4,0,0,1-2.422,3.271,11.558,11.558,0,0,1-3.064,2.105,10.5,10.5,0,0,1-3.519.96,10.458,10.458,0,0,1-.979,3.524,11.671,11.671,0,0,1-2.122,3.067,11.389,11.389,0,0,1-3.277,2.411,10.889,10.889,0,0,1-3.7,1.064,9.7,9.7,0,0,1-3.709-.345,8.418,8.418,0,0,1-3.268-1.819l-16.661-14.833c2.023-2.272,3.048-3.4,5.124-5.619l16.3,15.227a2.876,2.876,0,0,0,1.085.643,3.073,3.073,0,0,0,1.242.14,3.531,3.531,0,0,0,1.246-.352,4.071,4.071,0,0,0,1.889-1.975,3.546,3.546,0,0,0,.3-1.26,3.091,3.091,0,0,0-.2-1.235,2.9,2.9,0,0,0-.691-1.055l-15.935-15.61c2.129-2.174,3.207-3.249,5.387-5.372,6.222,6.4,9.334,9.592,15.557,15.987a2.893,2.893,0,0,0,1.053.7,3.106,3.106,0,0,0,1.233.2,3.567,3.567,0,0,0,1.262-.293,4.066,4.066,0,0,0,1.981-1.884,3.55,3.55,0,0,0,.357-1.246,3.255,3.255,0,0,0-.127-1.251,2.763,2.763,0,0,0-.631-1.1l-15.171-16.355c2.223-2.064,3.348-3.083,5.62-5.094C456.911,346.424,459.867,349.766,465.778,356.451Z"/>
            <path id="Path_1790" data-name="Path 1790" d="M497.791,342.6c-2.261,1.577-3.381,2.379-5.6,4.008l-3.7-5.044c-4.536,3.329-6.763,5.047-11.128,8.583l3.932,4.861c-2.128,1.724-3.182,2.6-5.268,4.373-4.85-5.713-7.277-8.569-12.127-14.281a10.442,10.442,0,0,1-2.262-4.465,12.359,12.359,0,0,1-.1-5.1,14.857,14.857,0,0,1,2.031-5.108,17.441,17.441,0,0,1,9.376-7.231,14.98,14.98,0,0,1,5.47-.676,12.255,12.255,0,0,1,4.921,1.379,10.415,10.415,0,0,1,3.739,3.325C491.367,333.373,493.508,336.449,497.791,342.6Zm-12.978-6.063c-1.479-2.017-2.217-3.026-3.695-5.044a5.284,5.284,0,0,0-1.9-1.616,6.2,6.2,0,0,0-2.462-.657,7.513,7.513,0,0,0-2.7.354,8.593,8.593,0,0,0-4.592,3.542,7.545,7.545,0,0,0-1.03,2.525,6.252,6.252,0,0,0,.01,2.549,5.3,5.3,0,0,0,1.078,2.252l3.932,4.861C477.906,341.69,480.18,339.936,484.813,336.536Z"/>
            <path id="Path_1791" data-name="Path 1791" d="M508.517,335.469c-2.334,1.477-3.491,2.229-5.786,3.759l-17.315-26.005c5.089-3.395,7.678-5.034,12.938-8.188a17.13,17.13,0,0,1,3.722-1.68,16.215,16.215,0,0,1,3.782-.716,14.672,14.672,0,0,1,3.642.206,12.653,12.653,0,0,1,3.3,1.083,11.254,11.254,0,0,1,2.751,1.9,10.3,10.3,0,0,1,2.032,2.668,10.646,10.646,0,0,1,1.065,2.989,12.26,12.26,0,0,1,.2,3.189,13.055,13.055,0,0,1-.648,3.238,14.853,14.853,0,0,1-1.458,3.111c2.98,2.07,4.454,3.12,7.369,5.25-2.584,1.415-3.866,2.139-6.409,3.618-2.306-1.573-3.469-2.35-5.814-3.884-2.707,1.633-4.049,2.467-6.707,4.17ZM495.17,314.341l6.68,10.573c2.435-1.541,3.663-2.3,6.138-3.782a8.121,8.121,0,0,0,2.152-1.847,7.705,7.705,0,0,0,1.314-2.315,6.484,6.484,0,0,0,.365-2.507,5.391,5.391,0,0,0-.7-2.4,5.265,5.265,0,0,0-1.7-1.825,6.23,6.23,0,0,0-2.376-.936,7.641,7.641,0,0,0-2.727.036,8.269,8.269,0,0,0-2.749,1.061C498.987,311.947,497.708,312.735,495.17,314.341Z"/>
            <path id="Path_1792" data-name="Path 1792" d="M543.03,316.809c-2.529,1.15-3.786,1.74-6.281,2.95l-10.888-22.5c-4.088,1.981-6.111,3.008-10.112,5.131l-2.927-5.526a287.916,287.916,0,0,1,27.926-13.113l2.378,5.784c-4.215,1.733-6.3,2.637-10.437,4.518C536.826,303.157,538.894,307.708,543.03,316.809Z"/>
            <path id="Path_1793" data-name="Path 1793" d="M581.311,302.608c-2.72.793-4.073,1.2-6.764,2.062-.76-2.382-1.141-3.574-1.9-5.957-5.5,1.751-8.218,2.693-13.593,4.7.877,2.343,1.315,3.514,2.191,5.857-2.62.98-3.924,1.485-6.513,2.526-2.8-6.954-4.193-10.432-6.989-17.386a10.274,10.274,0,0,1-.712-4.959,12.357,12.357,0,0,1,1.583-4.89,15.169,15.169,0,0,1,3.638-4.234,18.188,18.188,0,0,1,11.453-3.962,15.526,15.526,0,0,1,5.523,1.067,12.389,12.389,0,0,1,4.311,2.853,10.2,10.2,0,0,1,2.518,4.336Zm-10.56-9.831-1.9-5.958a5.177,5.177,0,0,0-1.3-2.133,6.232,6.232,0,0,0-2.164-1.4,7.781,7.781,0,0,0-2.732-.508,8.977,8.977,0,0,0-5.609,1.941,7.722,7.722,0,0,0-1.828,2.085,6.238,6.238,0,0,0-.831,2.431,5.179,5.179,0,0,0,.3,2.481l2.19,5.857C562.359,295.527,565.136,294.565,570.751,292.777Z"/>
            <path id="Path_1794" data-name="Path 1794" d="M614.8,295c-2.848.47-4.266.722-7.09,1.261l-1.179-6.14c-5.769,1.1-8.628,1.721-14.289,3.1.593,2.429.889,3.644,1.483,6.074-2.761.671-4.135,1.023-6.868,1.76-1.958-7.234-2.936-10.852-4.893-18.087a10.151,10.151,0,0,1-.106-5.011,12.386,12.386,0,0,1,2.2-4.679,15.432,15.432,0,0,1,4.188-3.788,18.754,18.754,0,0,1,12.039-2.611,15.893,15.893,0,0,1,5.444,1.7,12.441,12.441,0,0,1,4,3.338,10.051,10.051,0,0,1,2.005,4.6C612.957,283.911,613.57,287.608,614.8,295Zm-9.443-11c-.472-2.456-.707-3.684-1.179-6.14a5.1,5.1,0,0,0-1.051-2.271,6.256,6.256,0,0,0-2.012-1.638,7.96,7.96,0,0,0-2.694-.822,9.274,9.274,0,0,0-5.9,1.279,7.881,7.881,0,0,0-2.1,1.861,6.261,6.261,0,0,0-1.138,2.32,5.138,5.138,0,0,0-.007,2.5c.594,2.43.89,3.645,1.483,6.074C596.543,285.76,599.463,285.125,605.355,284Z"/>
            <path id="Path_1795" data-name="Path 1795" d="M646.442,291.558A241.784,241.784,0,0,0,621,294.047q-2.223-15.461-4.444-30.922c3.181-.454,4.778-.661,7.986-1.037,1.172,9.926,1.756,14.889,2.927,24.815,7.384-.864,11.114-1.184,18.637-1.588C646.24,287.812,646.308,289.061,646.442,291.558Z"/>
        </g>
    </g>
    <g id="Group_517" data-name="Group 517" transform="translate(-343.559 -262.088)">
        <g id="Group_516" data-name="Group 516">
            <path id="Path_1796" data-name="Path 1796" d="M467.631,412.081a7.821,7.821,0,0,1,1.735,2.614,8.949,8.949,0,0,1,.655,3.048,9.333,9.333,0,0,1-.416,3.111,8.467,8.467,0,0,1-1.491,2.821c-.659.827-.986,1.242-1.636,2.077a2.833,2.833,0,0,0-.49.953,3.094,3.094,0,0,0,.12,2.079,2.738,2.738,0,0,0,.593.876l1.825,1.826c3.019-3.967,4.578-5.909,7.8-9.706l3.664,3.664c-4.578,5.4-6.77,8.2-10.943,13.941l-5.49-5.49a8.2,8.2,0,0,1-1.77-2.645,9.623,9.623,0,0,1-.74-3.119,9.472,9.472,0,0,1,.33-3.182,8.227,8.227,0,0,1,1.442-2.861c.65-.834.978-1.25,1.636-2.077a2.849,2.849,0,0,0,.5-.945,3.036,3.036,0,0,0,.134-1.039,2.909,2.909,0,0,0-.234-1.021,2.769,2.769,0,0,0-.594-.879,2.424,2.424,0,0,0-.842-.558,2.2,2.2,0,0,0-1.847.115,2.47,2.47,0,0,0-.784.662c-2.343,2.942-3.487,4.437-5.715,7.473l-3.664-3.663c2.229-3.037,3.372-4.532,5.715-7.473a7.064,7.064,0,0,1,2.36-1.952,6.915,6.915,0,0,1,5.614-.307A7.032,7.032,0,0,1,467.631,412.081Z" fill="#fff"/>
            <path id="Path_1797" data-name="Path 1797" d="M487.749,398.3a20.287,20.287,0,0,1,3.81,4.977,10.994,10.994,0,0,1,1.294,4.484,8.451,8.451,0,0,1-.767,3.966,12.6,12.6,0,0,1-2.363,3.43,12.048,12.048,0,0,1-3.31,2.485,8,8,0,0,1-3.867.847,10.505,10.505,0,0,1-4.4-1.231,19.645,19.645,0,0,1-4.918-3.751,20.858,20.858,0,0,1-3.853-5.019,11.969,11.969,0,0,1-1.412-4.584,8.722,8.722,0,0,1,.637-4.078,11.476,11.476,0,0,1,2.307-3.487,11.056,11.056,0,0,1,3.361-2.434,8.264,8.264,0,0,1,4-.736,11.433,11.433,0,0,1,4.526,1.337A20.252,20.252,0,0,1,487.749,398.3Zm-3.578,3.5q-3.049-3.051-5.559-3.5a4.55,4.55,0,0,0-4.312,1.432,4.713,4.713,0,0,0-1.28,4.4q.5,2.518,3.577,5.6,3.051,3.051,5.5,3.478a4.475,4.475,0,0,0,4.23-1.446,5.308,5.308,0,0,0,1.253-2.04,4.642,4.642,0,0,0,.108-2.342,8.012,8.012,0,0,0-1.107-2.637A16.679,16.679,0,0,0,484.171,401.8Z" fill="#fff"/>
            <path id="Path_1798" data-name="Path 1798" d="M500.317,380.435a6.984,6.984,0,0,1,1.651,2.528,6.829,6.829,0,0,1,.428,2.817,7.192,7.192,0,0,1-.754,2.773,7.559,7.559,0,0,1-1.91,2.409c-.8.687-1.2,1.032-2,1.727a2.537,2.537,0,0,0-.632.817,2.358,2.358,0,0,0-.074,1.895,2.46,2.46,0,0,0,.565.85l1.826,1.826c3.71-3.314,5.61-4.923,9.494-8.041l3.663,3.664c-5.527,4.438-8.206,6.759-13.381,11.589L493.7,399.8a7.258,7.258,0,0,1-1.682-2.564,7.408,7.408,0,0,1-.5-2.9,7.3,7.3,0,0,1,2.548-5.312c.8-.7,1.2-1.04,2-1.726a2.566,2.566,0,0,0,.642-.808,2.318,2.318,0,0,0,.248-.927,2.247,2.247,0,0,0-.157-.947,2.485,2.485,0,0,0-.567-.851,2.694,2.694,0,0,0-.87-.585,2.88,2.88,0,0,0-1.01-.221,2.912,2.912,0,0,0-1.027.149,2.725,2.725,0,0,0-.924.525c-2.858,2.44-4.262,3.688-7.02,6.237-1.466-1.465-2.2-2.2-3.664-3.664,2.758-2.549,4.162-3.8,7.02-6.237a7.866,7.866,0,0,1,2.778-1.541,9.025,9.025,0,0,1,3.116-.411,9.127,9.127,0,0,1,3.064.675A7.866,7.866,0,0,1,500.317,380.435Z" fill="#fff"/>
            <path id="Path_1799" data-name="Path 1799" d="M521.687,386.739c-1.708,1.241-2.555,1.871-4.234,3.149-5.857-5.858-8.786-8.787-14.644-14.644-.836.637-1.253.957-2.082,1.6l-3.664-3.664c2.493-1.941,3.757-2.892,6.316-4.751C510.7,375.754,514.365,379.415,521.687,386.739Z" fill="#fff"/>
        </g>
    </g>
    <g id="Group_519" data-name="Group 519" transform="translate(-343.559 -262.088)">
        <g id="Group_518" data-name="Group 518">
            <path id="Path_1800" data-name="Path 1800" d="M501.13,447.72a8.992,8.992,0,0,1,1.8,2.546,9.189,9.189,0,0,1,.833,2.862,8.125,8.125,0,0,1-.16,2.834,6.32,6.32,0,0,1-1.186,2.474c-.555.706-.831,1.061-1.379,1.772a2.115,2.115,0,0,0-.392.834,2.672,2.672,0,0,0-.042.954,3.111,3.111,0,0,0,.293.96,3.143,3.143,0,0,0,.612.852l1.825,1.826c2.553-3.377,3.866-5.037,6.562-8.292l3.664,3.663c-3.838,4.634-5.685,7.015-9.23,11.894l-5.489-5.49a9.322,9.322,0,0,1-1.826-2.568,9.735,9.735,0,0,1-.893-2.913,8.206,8.206,0,0,1,.1-2.883,6.2,6.2,0,0,1,1.152-2.5c.548-.712.824-1.067,1.379-1.773a2.136,2.136,0,0,0,.4-.827A2.6,2.6,0,0,0,499.2,453a2.982,2.982,0,0,0-.29-.959,3.181,3.181,0,0,0-.615-.855,2.77,2.77,0,0,0-.821-.581,2.254,2.254,0,0,0-.878-.209,1.88,1.88,0,0,0-.83.166,1.822,1.822,0,0,0-.683.545c-1.973,2.512-2.94,3.786-4.83,6.366-1.466-1.466-2.2-2.2-3.664-3.664,1.891-2.58,2.857-3.854,4.831-6.365a5.205,5.205,0,0,1,2.054-1.605,5.84,5.84,0,0,1,2.521-.473,7.127,7.127,0,0,1,2.66.63A8.1,8.1,0,0,1,501.13,447.72Z" fill="#fff"/>
            <path id="Path_1801" data-name="Path 1801" d="M518.483,436.3a23.844,23.844,0,0,1,3.913,4.9,12.041,12.041,0,0,1,1.573,4.282,7.472,7.472,0,0,1-.362,3.657,9.271,9.271,0,0,1-1.879,3.039,8.611,8.611,0,0,1-2.839,2.079,6.652,6.652,0,0,1-3.494.507,11.031,11.031,0,0,1-4.157-1.466,22.908,22.908,0,0,1-4.828-3.838,24.392,24.392,0,0,1-3.943-4.932,12.841,12.841,0,0,1-1.657-4.35,7.714,7.714,0,0,1,.263-3.737,8.654,8.654,0,0,1,1.837-3.081,8.124,8.124,0,0,1,2.876-2.043,6.894,6.894,0,0,1,3.591-.427,11.8,11.8,0,0,1,4.248,1.539A23.387,23.387,0,0,1,518.483,436.3Zm-2.962,3.049q-3.051-3.051-5.384-3.634a3.644,3.644,0,0,0-3.831,1.044,3.973,3.973,0,0,0-.819,4,13.588,13.588,0,0,0,3.738,5.454q3.051,3.051,5.339,3.623a3.576,3.576,0,0,0,3.769-1.049,4,4,0,0,0,.979-1.816,4.384,4.384,0,0,0-.1-2.178,9.072,9.072,0,0,0-1.238-2.537A19.731,19.731,0,0,0,515.521,439.35Z" fill="#fff"/>
            <path id="Path_1802" data-name="Path 1802" d="M528.186,420.121a8.281,8.281,0,0,1,1.738,2.485,7.44,7.44,0,0,1,.665,2.7,6.408,6.408,0,0,1-.408,2.594,5.615,5.615,0,0,1-1.493,2.182c-.661.607-.99.911-1.645,1.524a1.89,1.89,0,0,0-.5.737,2.12,2.12,0,0,0-.126.876,2.535,2.535,0,0,0,.236.907,2.892,2.892,0,0,0,.592.834l1.825,1.825c3.059-2.912,4.621-4.335,7.807-7.111,1.466,1.466,2.2,2.2,3.664,3.664-4.535,3.95-6.74,6-11.015,10.223l-5.489-5.489a8.525,8.525,0,0,1-1.761-2.51,7.926,7.926,0,0,1-.72-2.757,6.522,6.522,0,0,1,.356-2.649,5.528,5.528,0,0,1,1.463-2.214c.656-.613.985-.917,1.646-1.524a1.911,1.911,0,0,0,.5-.729,2.075,2.075,0,0,0,.135-.865,2.434,2.434,0,0,0-.234-.906,2.923,2.923,0,0,0-.6-.836,2.987,2.987,0,0,0-.841-.6,2.788,2.788,0,0,0-.934-.263,2.364,2.364,0,0,0-.913.087,2,2,0,0,0-.786.448c-2.351,2.155-3.508,3.253-5.785,5.486l-3.663-3.664c2.276-2.233,3.434-3.331,5.784-5.486a5.76,5.76,0,0,1,2.361-1.314,7.385,7.385,0,0,1,2.77-.232,8.9,8.9,0,0,1,5.359,2.578Z" fill="#fff"/>
            <path id="Path_1803" data-name="Path 1803" d="M547.822,411.1a22.8,22.8,0,0,1,3.837,4.819,9.96,9.96,0,0,1,1.363,4.051,5.887,5.887,0,0,1-.673,3.316,8.535,8.535,0,0,1-2.266,2.626,9.535,9.535,0,0,1-3.23,1.669,8.415,8.415,0,0,1-3.815.177,13.339,13.339,0,0,1-4.375-1.685,24.277,24.277,0,0,1-4.909-3.92,23.061,23.061,0,0,1-3.862-4.851,10.7,10.7,0,0,1-1.44-4.13,6.126,6.126,0,0,1,.585-3.407,7.951,7.951,0,0,1,2.228-2.672,9.02,9.02,0,0,1,3.262-1.629,8.7,8.7,0,0,1,3.9-.086,14.2,14.2,0,0,1,4.457,1.77A24.967,24.967,0,0,1,547.822,411.1Zm-3.426,2.537a14.071,14.071,0,0,0-5.521-3.782,4.426,4.426,0,0,0-4.214.634,3.281,3.281,0,0,0-1.2,3.6q.523,2.232,3.6,5.312a13.991,13.991,0,0,0,5.476,3.765,4.357,4.357,0,0,0,4.152-.648,3.576,3.576,0,0,0,1.2-1.582,3.443,3.443,0,0,0,.065-2,7.789,7.789,0,0,0-1.137-2.427A18.977,18.977,0,0,0,544.4,413.636Z" fill="#fff"/>
        </g>
    </g>
    <g id="Group_521" data-name="Group 521" transform="translate(-343.559 -262.088)">
        <g id="Group_520" data-name="Group 520">
            <path id="Path_1804" data-name="Path 1804" d="M535.479,479.417a7.865,7.865,0,0,1,1.721,2.567,8.853,8.853,0,0,1,.675,2.977,9.043,9.043,0,0,1-.368,3.027,7.991,7.991,0,0,1-1.422,2.729c-.633.8-.947,1.2-1.572,2a2.679,2.679,0,0,0-.467.922,3,3,0,0,0,.139,2.024,2.785,2.785,0,0,0,.587.861c.72.72,1.081,1.08,1.8,1.8,2.9-3.821,4.4-5.694,7.488-9.358l3.612,3.612c-4.393,5.215-6.5,7.9-10.517,13.436l-5.412-5.413a8.222,8.222,0,0,1-1.754-2.6,9.509,9.509,0,0,1-.754-3.044,9.108,9.108,0,0,1,.29-3.091,7.76,7.76,0,0,1,1.376-2.766c.624-.8.939-1.2,1.572-2a2.7,2.7,0,0,0,.479-.913,2.908,2.908,0,0,0,.119-1.01,2.848,2.848,0,0,0-.24-1,2.775,2.775,0,0,0-.589-.863,2.431,2.431,0,0,0-.827-.554,2.187,2.187,0,0,0-.911-.153,2.143,2.143,0,0,0-.888.243,2.334,2.334,0,0,0-.756.635c-2.251,2.836-3.351,4.276-5.495,7.2l-3.613-3.613c2.145-2.923,3.245-4.363,5.5-7.2a6.651,6.651,0,0,1,4.974-2.571,6.9,6.9,0,0,1,2.768.465A7.088,7.088,0,0,1,535.479,479.417Z" fill="#fff"/>
            <path id="Path_1805" data-name="Path 1805" d="M554.852,466.161a20.5,20.5,0,0,1,3.773,4.9,10.979,10.979,0,0,1,1.324,4.395,8.191,8.191,0,0,1-.687,3.868,11.9,11.9,0,0,1-2.249,3.329,11.252,11.252,0,0,1-3.185,2.392,7.625,7.625,0,0,1-3.751.787,10.39,10.39,0,0,1-4.3-1.247,19.794,19.794,0,0,1-4.834-3.712,21.021,21.021,0,0,1-3.814-4.935,11.947,11.947,0,0,1-1.433-4.487,8.452,8.452,0,0,1,.566-3.971,10.882,10.882,0,0,1,2.2-3.381,10.416,10.416,0,0,1,3.231-2.346,7.9,7.9,0,0,1,3.872-.684,11.272,11.272,0,0,1,4.416,1.344A20.393,20.393,0,0,1,554.852,466.161Zm-3.423,3.392q-3.008-3.006-5.452-3.467a4.322,4.322,0,0,0-4.17,1.359,4.535,4.535,0,0,0-1.185,4.278q.517,2.463,3.554,5.5,3.008,3.009,5.395,3.45a4.256,4.256,0,0,0,4.094-1.371,5.016,5.016,0,0,0,1.189-1.98,4.547,4.547,0,0,0,.072-2.287,8.06,8.06,0,0,0-1.114-2.586A16.934,16.934,0,0,0,551.429,469.553Z" fill="#fff"/>
            <path id="Path_1806" data-name="Path 1806" d="M571.532,468.072c-1.515,1.347-2.265,2.028-3.751,3.407-5.775-5.774-8.662-8.662-14.438-14.438-.74.688-1.108,1.033-1.841,1.728l-3.612-3.613c2.2-2.089,3.321-3.116,5.591-5.135Z" fill="#fff"/>
            <path id="Path_1807" data-name="Path 1807" d="M578.384,441.954a22.651,22.651,0,0,1,3,3.678,19.413,19.413,0,0,1,1.993,3.962,16.174,16.174,0,0,1,.917,4.062,13.722,13.722,0,0,1-.213,4c-2.165,1.675-3.236,2.528-5.351,4.263a17.785,17.785,0,0,0,.523-2.411,19.369,19.369,0,0,0,.2-2.494,17.894,17.894,0,0,0-.133-2.5,15.891,15.891,0,0,0-.495-2.433,8.7,8.7,0,0,1-.69,1.644,4.51,4.51,0,0,1-1.172,1.386,10.95,10.95,0,0,1-3.519,1.925,9.748,9.748,0,0,1-3.67.449,9.866,9.866,0,0,1-3.585-.969,11.84,11.84,0,0,1-3.245-2.337,10.051,10.051,0,0,1-2.207-3.241A9.081,9.081,0,0,1,560,447.35a8.2,8.2,0,0,1,.811-3.5,8.352,8.352,0,0,1,2.418-2.973,10.035,10.035,0,0,1,3.656-1.842,11.982,11.982,0,0,1,4.09-.385,12.47,12.47,0,0,1,4.008,1A10.828,10.828,0,0,1,578.384,441.954Zm-4.359,3.243a5.779,5.779,0,0,0-1.6-1.13,5.977,5.977,0,0,0-1.883-.557,5.357,5.357,0,0,0-1.933.114,4.526,4.526,0,0,0-1.764.869,3.989,3.989,0,0,0-1.187,1.459,3.86,3.86,0,0,0-.357,1.669,4.15,4.15,0,0,0,.409,1.7,5.6,5.6,0,0,0,1.127,1.574,5.984,5.984,0,0,0,1.6,1.151,5.376,5.376,0,0,0,1.824.532,5.106,5.106,0,0,0,1.875-.153,4.788,4.788,0,0,0,1.746-.9,4.308,4.308,0,0,0,1.219-1.452,3.654,3.654,0,0,0,.4-1.65,4.072,4.072,0,0,0-.377-1.679A5.241,5.241,0,0,0,574.025,445.2Z" fill="#fff"/>
        </g>
    </g>
    <g id="Group_523" data-name="Group 523" transform="translate(-343.559 -262.088)">
        <g id="Group_522" data-name="Group 522">
            <path id="Path_1808" data-name="Path 1808" d="M568.785,514.1a7.683,7.683,0,0,1,1.693,2.537,8.741,8.741,0,0,1,.654,2.951,8.988,8.988,0,0,1-.381,3.006,8.064,8.064,0,0,1-1.422,2.718c-.632.795-.946,1.2-1.569,2a2.713,2.713,0,0,0-.468.917,2.992,2.992,0,0,0,.128,2.009,2.7,2.7,0,0,0,.579.85l1.774,1.776c2.9-3.813,4.39-5.681,7.469-9.337,1.425,1.426,2.137,2.138,3.562,3.562-4.382,5.2-6.483,7.888-10.491,13.405-2.134-2.135-3.2-3.2-5.337-5.337a8.036,8.036,0,0,1-1.725-2.566,9.358,9.358,0,0,1-.733-3.016,9.079,9.079,0,0,1,.3-3.071,7.821,7.821,0,0,1,1.377-2.755c.623-.8.937-1.2,1.568-2a2.72,2.72,0,0,0,.48-.91,2.928,2.928,0,0,0,.123-1,2.841,2.841,0,0,0-.233-.989,2.715,2.715,0,0,0-.579-.852,2.349,2.349,0,0,0-.817-.544,2.122,2.122,0,0,0-1.784.1,2.349,2.349,0,0,0-.753.636c-2.245,2.828-3.342,4.266-5.481,7.182l-3.563-3.562c2.14-2.917,3.237-4.354,5.482-7.183a6.712,6.712,0,0,1,2.267-1.873,6.644,6.644,0,0,1,2.677-.71,6.78,6.78,0,0,1,2.741.444A6.9,6.9,0,0,1,568.785,514.1Z" fill="#fff"/>
            <path id="Path_1809" data-name="Path 1809" d="M588.065,500.827a19.972,19.972,0,0,1,3.716,4.836,10.785,10.785,0,0,1,1.288,4.352,8.17,8.17,0,0,1-.7,3.842,12,12,0,0,1-2.248,3.316,11.383,11.383,0,0,1-3.171,2.393,7.61,7.61,0,0,1-3.723.8,10.225,10.225,0,0,1-4.257-1.211,19.327,19.327,0,0,1-4.773-3.653,20.546,20.546,0,0,1-3.755-4.875,11.726,11.726,0,0,1-1.4-4.443,8.435,8.435,0,0,1,.583-3.945,10.936,10.936,0,0,1,2.2-3.368,10.509,10.509,0,0,1,3.217-2.347,7.873,7.873,0,0,1,3.843-.7,11.065,11.065,0,0,1,4.372,1.308A19.847,19.847,0,0,1,588.065,500.827Zm-3.413,3.385q-2.965-2.966-5.387-3.407a4.324,4.324,0,0,0-4.142,1.373,4.534,4.534,0,0,0-1.2,4.252q.5,2.442,3.494,5.436,2.967,2.967,5.332,3.39a4.254,4.254,0,0,0,4.066-1.385,5.041,5.041,0,0,0,1.19-1.972,4.507,4.507,0,0,0,.084-2.269,7.91,7.91,0,0,0-1.09-2.559A16.48,16.48,0,0,0,584.652,504.212Z" fill="#fff"/>
            <path id="Path_1810" data-name="Path 1810" d="M604.6,502.626c-1.51,1.345-2.258,2.025-3.74,3.4l-14.237-14.238c-.739.686-1.106,1.031-1.837,1.724l-3.562-3.563c2.2-2.085,3.313-3.11,5.576-5.125Z" fill="#fff"/>
            <path id="Path_1811" data-name="Path 1811" d="M617.869,482.754a5.9,5.9,0,0,1,1.594,2.68,6.282,6.282,0,0,1,.044,3.021,8.958,8.958,0,0,1-1.36,3.054,12.317,12.317,0,0,1-2.617,2.78,13.653,13.653,0,0,1-3.411,1.995,11.9,11.9,0,0,1-3.575.855,8.857,8.857,0,0,1-3.376-.382,7.013,7.013,0,0,1-3.969-3.248,6.469,6.469,0,0,1-.664-1.747,6.932,6.932,0,0,1-.155-1.855,6.392,6.392,0,0,1,.377-1.859,6.845,6.845,0,0,1-1.52-.142,8.85,8.85,0,0,1-1.484-.44,7.782,7.782,0,0,1-1.356-.7,7.032,7.032,0,0,1-1.144-.921,5.68,5.68,0,0,1-1.451-2.383,6.448,6.448,0,0,1-.218-2.764,7.546,7.546,0,0,1,.981-2.79,8.635,8.635,0,0,1,2.146-2.441,9.765,9.765,0,0,1,2.984-1.622,10.24,10.24,0,0,1,3.228-.544,8.876,8.876,0,0,1,3.059.514,6.637,6.637,0,0,1,2.489,1.561,6.224,6.224,0,0,1,.888,1.124,7.224,7.224,0,0,1,.629,1.283,6.056,6.056,0,0,1,.337,1.362,5.316,5.316,0,0,1,0,1.369,9.386,9.386,0,0,1,2.091-.108,9.043,9.043,0,0,1,2.034.355,8.553,8.553,0,0,1,1.855.793A7.484,7.484,0,0,1,617.869,482.754Zm-4.139,2.9a3.694,3.694,0,0,0-1.413-.881,4.927,4.927,0,0,0-1.727-.268,5.978,5.978,0,0,0-3.55,1.291,5.207,5.207,0,0,0-1.252,1.4,4.417,4.417,0,0,0-.59,1.58,3.512,3.512,0,0,0,.1,1.559,3.151,3.151,0,0,0,.819,1.353,3.435,3.435,0,0,0,1.385.851,4.391,4.391,0,0,0,1.66.2,5.926,5.926,0,0,0,1.764-.407,6.49,6.49,0,0,0,1.68-.973,5.959,5.959,0,0,0,1.286-1.377,4.438,4.438,0,0,0,.663-1.515,3.128,3.128,0,0,0-.029-1.488A2.936,2.936,0,0,0,613.73,485.656Zm-8.839-6.91a2.733,2.733,0,0,0-1.03-.646,3.693,3.693,0,0,0-1.251-.211,4,4,0,0,0-1.317.23,4.133,4.133,0,0,0-1.214.669,3.7,3.7,0,0,0-.9,1.007,2.962,2.962,0,0,0-.412,1.138,2.647,2.647,0,0,0,.089,1.131,2.352,2.352,0,0,0,.6.986,2.6,2.6,0,0,0,1.018.633,3.377,3.377,0,0,0,1.221.18,4.241,4.241,0,0,0,1.293-.257,4.329,4.329,0,0,0,1.223-.685,3.783,3.783,0,0,0,.892-.991,3.139,3.139,0,0,0,.436-1.112,2.428,2.428,0,0,0-.06-1.1A2.242,2.242,0,0,0,604.891,478.746Z" fill="#fff"/>
        </g>
    </g>
    <g id="Group_525" data-name="Group 525" transform="translate(-343.559 -262.088)">
        <g id="Group_524" data-name="Group 524">
            <path id="Path_1812" data-name="Path 1812" d="M605.621,546.051a7.849,7.849,0,0,1,1.737,2.611,8.945,8.945,0,0,1,.663,3.04,9.252,9.252,0,0,1-.4,3.1,8.368,8.368,0,0,1-1.478,2.8c-.654.822-.979,1.235-1.624,2.064a2.8,2.8,0,0,0-.486.948,3.072,3.072,0,0,0,.126,2.071,2.75,2.75,0,0,0,.594.876l1.825,1.825c3-3.941,4.547-5.87,7.74-9.644l3.664,3.663c-4.545,5.371-6.722,8.145-10.868,13.852l-5.489-5.489a8.226,8.226,0,0,1-1.773-2.641,9.62,9.62,0,0,1-.747-3.11,9.38,9.38,0,0,1,.32-3.169,8.113,8.113,0,0,1,1.43-2.846c.645-.829.97-1.242,1.625-2.064a2.834,2.834,0,0,0,.5-.939,2.991,2.991,0,0,0,.131-1.035,2.929,2.929,0,0,0-.236-1.019,2.786,2.786,0,0,0-.6-.878,2.413,2.413,0,0,0-.841-.559,2.206,2.206,0,0,0-.931-.148,2.232,2.232,0,0,0-.91.256,2.451,2.451,0,0,0-.779.658c-2.327,2.922-3.462,4.408-5.676,7.424l-3.664-3.663c2.214-3.017,3.35-4.5,5.676-7.425a7,7,0,0,1,2.347-1.937,6.9,6.9,0,0,1,2.766-.738,6.989,6.989,0,0,1,2.828.452A7.073,7.073,0,0,1,605.621,546.051Z" fill="#fff"/>
            <path id="Path_1813" data-name="Path 1813" d="M625.616,532.373a20.389,20.389,0,0,1,3.815,4.973,11.012,11.012,0,0,1,1.306,4.477,8.4,8.4,0,0,1-.748,3.952,12.441,12.441,0,0,1-2.343,3.414,11.879,11.879,0,0,1-3.289,2.467,7.928,7.928,0,0,1-3.85.833,10.538,10.538,0,0,1-4.392-1.241,19.785,19.785,0,0,1-4.914-3.755,20.965,20.965,0,0,1-3.857-5.016,12,12,0,0,1-1.423-4.574,8.665,8.665,0,0,1,.621-4.063,11.329,11.329,0,0,1,2.286-3.469,10.936,10.936,0,0,1,3.339-2.418,8.2,8.2,0,0,1,3.979-.722,11.444,11.444,0,0,1,4.514,1.345A20.385,20.385,0,0,1,625.616,532.373Zm-3.551,3.483q-3.05-3.051-5.551-3.5a4.505,4.505,0,0,0-4.29,1.415,4.68,4.68,0,0,0-1.26,4.379q.506,2.512,3.584,5.593,3.053,3.051,5.493,3.484a4.433,4.433,0,0,0,4.209-1.429,5.233,5.233,0,0,0,1.241-2.031,4.628,4.628,0,0,0,.1-2.335,8.05,8.05,0,0,0-1.113-2.633A16.771,16.771,0,0,0,622.065,535.856Z" fill="#fff"/>
            <path id="Path_1814" data-name="Path 1814" d="M642.715,534.233c-1.573,1.38-2.352,2.078-3.894,3.492l-14.643-14.644c-.769.705-1.151,1.059-1.911,1.772l-3.664-3.665c2.286-2.142,3.448-3.2,5.8-5.262Z" fill="#fff"/>
            <path id="Path_1815" data-name="Path 1815" d="M641.448,502.31c4.426,9.427,6.659,14.168,11.169,23.7-1.762,1.384-2.634,2.086-4.362,3.511-3.589-7.727-5.368-11.575-8.9-19.232-3.522,2.725-5.25,4.128-8.637,7.012l-3.664-3.664C632.628,508.892,635.511,506.623,641.448,502.31Z" fill="#fff"/>
        </g>
    </g>
    <text id="_3994" data-name="3994" transform="translate(346.89 76.724)" fill="#fff" font-size="40.877" font-family="Helvetica"><tspan x="0" y="0">3994</tspan></text>
    <text id="_4395" data-name="4395" transform="translate(346.89 124.724)" fill="#fff" font-size="40.877" font-family="Helvetica"><tspan x="0" y="0">4395</tspan></text>
    <text id="_1833" data-name="1833" transform="translate(346.89 171.724)" fill="#fff" font-size="40.877" font-family="Helvetica"><tspan x="0" y="0">1833</tspan></text>
    <text id="_2269" data-name="2269" transform="translate(346.89 219.724)" fill="#fff" font-size="40.877" font-family="Helvetica"><tspan x="0" y="0">2269</tspan></text>
    <text id="_2477" data-name="2477" transform="translate(346.89 267.724)" fill="#fff" font-size="40.877" font-family="Helvetica"><tspan x="0" y="0">2477</tspan></text>
    <text id="_27.3" data-name="27.3" transform="translate(1002.89 76.724)" fill="#00ace7" font-size="40.877" font-family="Helvetica"><tspan x="0" y="0">27.3</tspan></text>
    <text id="_27.2" data-name="27.2" transform="translate(993.89 124.724)" fill="#00ace7" font-size="40.877" font-family="Helvetica"><tspan x="0" y="0">27.2</tspan></text>
    <text id="_33.0" data-name="33.0" transform="translate(1139.89 171.724)" fill="#00ace7" font-size="40.877" font-family="Helvetica"><tspan x="0" y="0">33.0</tspan></text>
    <text id="_1833-2" data-name="1833" transform="translate(1000.89 171.724)" fill="#00ace7" font-size="40.877" font-family="Helvetica"><tspan x="0" y="0">1833</tspan></text>
    <text id="_29.3" data-name="29.3" transform="translate(1048.89 219.724)" fill="#00ace7" font-size="40.877" font-family="Helvetica"><tspan x="0" y="0">29.3</tspan></text>
    <text id="_25.2" data-name="25.2" transform="translate(946.89 267.724)" fill="#00ace7" font-size="40.877" font-family="Helvetica"><tspan x="0" y="0">25.2</tspan></text>
    <rect id="Rectangle_2263" data-name="Rectangle 2263" width="350.541" height="47.567" transform="translate(88.964 334.548) rotate(90)" fill="#dfebe1" stroke="#fff" stroke-miterlimit="10" stroke-width="1"/>
    <rect id="Rectangle_2264" data-name="Rectangle 2264" width="389" height="47.567" transform="translate(136.903 334.548) rotate(90)" fill="#dfebe1" stroke="#fff" stroke-miterlimit="10" stroke-width="1"/>
    <rect id="Rectangle_2265" data-name="Rectangle 2265" width="136.613" height="47.567" transform="translate(184.842 334.548) rotate(90)" fill="#dfebe1" stroke="#fff" stroke-miterlimit="10" stroke-width="1"/>
    <rect id="Rectangle_2266" data-name="Rectangle 2266" width="188.693" height="47.567" transform="translate(232.78 334.548) rotate(90)" fill="#dfebe1" stroke="#fff" stroke-miterlimit="10" stroke-width="1"/>
    <rect id="Rectangle_2267" data-name="Rectangle 2267" width="240.773" height="47.567" transform="translate(280.719 334.548) rotate(90)" fill="#dfebe1" stroke="#fff" stroke-miterlimit="10" stroke-width="1"/>
    <text id="_98.2_km" data-name="98.2 km" transform="translate(272.923 560.744) rotate(-90)" fill="#ccc" font-size="43.263" font-family="Helvetica"><tspan x="0" y="0">98.2 km</tspan></text>
    <text id="_77.5_km" data-name="77.5 km" transform="translate(224.951 509.678) rotate(-90)" fill="#ccc" font-size="43.263" font-family="Helvetica"><tspan x="0" y="0">77.5 km</tspan></text>
    <text id="_55.6" data-name="55.6" transform="translate(174.98 463.496) rotate(-90)" fill="#ccc" font-size="43.263" font-family="Helvetica"><tspan x="0" y="0">55.6</tspan></text>
    <text id="_161.5_km" data-name="161.5 km" transform="translate(128.009 705.338) rotate(-90)" fill="#ccc" font-size="43.263" font-family="Helvetica"><tspan x="0" y="0">161.5 km</tspan></text>
    <text id="_146.3_km" data-name="146.3 km" transform="translate(82.037 673.41) rotate(-90)" fill="#ccc" font-size="43.263" font-family="Helvetica"><tspan x="0" y="0">146.3 km</tspan></text>
</svg>
