<svg xmlns="http://www.w3.org/2000/svg" width="1448.441" height="323.848" preserveAspectRatio="xMinYMin" viewBox="0 0 1448.441 323.848">
    <rect id="Rectangle_2433" data-name="Rectangle 2433" width="1010.799" height="47.442" transform="translate(335.643 39.121)" fill="#00ace7" stroke="#fff" stroke-miterlimit="10" stroke-width="2"/>
    <rect id="Rectangle_2434" data-name="Rectangle 2434" width="1111.799" height="47.442" transform="translate(335.643 86.562)" fill="#00ace7" stroke="#fff" stroke-miterlimit="10" stroke-width="2"/>
    <rect id="Rectangle_2435" data-name="Rectangle 2435" width="460.799" height="47.442" transform="translate(335.643 134.004)" fill="#00ace7" stroke="#fff" stroke-miterlimit="10" stroke-width="2"/>
    <rect id="Rectangle_2436" data-name="Rectangle 2436" width="568.799" height="47.442" transform="translate(335.643 181.445)" fill="#00ace7" stroke="#fff" stroke-miterlimit="10" stroke-width="2"/>
    <rect id="Rectangle_2437" data-name="Rectangle 2437" width="623.799" height="47.442" transform="translate(335.643 228.887)" fill="#00ace7" stroke="#fff" stroke-miterlimit="10" stroke-width="2"/>
    <path id="Path_2786" data-name="Path 2786" d="M670.468,537.864c.165,0,.321,0,.486.01V491.258c-.165-.009-.321-.009-.486-.009a94.674,94.674,0,0,0-94.678,94.2h46.849A47.828,47.828,0,0,1,670.468,537.864Z" transform="translate(-343.559 -262.088)" fill="#ccc"/>
    <path id="Path_2787" data-name="Path 2787" d="M670.468,491.249c.165,0,.321,0,.486.009v-47.6h-.486A142.277,142.277,0,0,0,528.194,585.451h47.6A94.674,94.674,0,0,1,670.468,491.249Z" transform="translate(-343.559 -262.088)" fill="#ccc"/>
    <path id="Path_2788" data-name="Path 2788" d="M670.468,443.662h.486v-47.1h-.486A189.734,189.734,0,0,0,512.19,481.508c-.554.845-1.107,1.69-1.651,2.535s-1.078,1.7-1.612,2.563-1.059,1.72-1.574,2.584c-.534.893-1.058,1.8-1.573,2.7s-1.039,1.825-1.544,2.738a188.807,188.807,0,0,0-23.619,90.823h47.577A142.277,142.277,0,0,1,670.468,443.662Z" transform="translate(-343.559 -262.088)" fill="#ccc"/>
    <path id="Path_2789" data-name="Path 2789" d="M670.468,395.59h.486V348.975h-.486c-130.6,0-236.476,105.875-236.476,236.476h46.616C480.608,480.6,565.613,395.59,670.468,395.59Z" transform="translate(-343.559 -262.088)" fill="#ccc"/>
    <path id="Path_2790" data-name="Path 2790" d="M670.468,348.975h.486V301.388h-.486q-3.686,0-7.361.1c-1.224.029-2.447.068-3.661.117-1.069.039-2.127.078-3.186.136-.689.029-1.369.068-2.059.116q-1.019.043-2.039.117c-1.214.068-2.418.155-3.622.252-1.137.078-2.273.165-3.409.272a5.5,5.5,0,0,0-.583.058q-4.938.438-9.838,1.059c-.815.1-1.631.2-2.447.311q-2.753.364-5.487.8c-1.058.156-2.107.321-3.156.495a283.888,283.888,0,0,0-113.547,45.538q-1.764,1.209-3.516,2.447c-1.282.894-2.554,1.816-3.817,2.739-1.447,1.049-2.894,2.127-4.321,3.214-1.282.971-2.545,1.952-3.807,2.953A284.417,284.417,0,0,0,385.444,585.451h48.548C433.992,454.85,539.868,348.975,670.468,348.975Z" transform="translate(-343.559 -262.088)" fill="#ccc"/>
    <g id="Group_756" data-name="Group 756" transform="translate(-343.559 -262.088)">
        <path id="Path_2791" data-name="Path 2791" d="M502.818,418.286A235.479,235.479,0,0,1,670.468,348.9h.486v-.971h-.486a237.872,237.872,0,0,0-238.01,237.525h.971A235.484,235.484,0,0,1,502.818,418.286Z" fill="#fff"/>
    </g>
    <g id="Group_757" data-name="Group 757" transform="translate(-343.559 -262.088)">
        <path id="Path_2792" data-name="Path 2792" d="M480.617,585.451h.311a188.7,188.7,0,0,1,23.308-90.823c.505-.913,1.02-1.835,1.544-2.738s1.039-1.807,1.573-2.7c.515-.864,1.039-1.729,1.574-2.584s1.058-1.718,1.612-2.563c.534-.855,1.087-1.7,1.651-2.535A189.816,189.816,0,0,1,670.468,396.4h.486v-.971h-.486A190.422,190.422,0,0,0,479.957,585.451h.651v.485C480.608,585.771,480.608,585.616,480.617,585.451Z" fill="#fff"/>
    </g>
    <g id="Group_758" data-name="Group 758" transform="translate(-343.559 -262.088)">
        <path id="Path_2793" data-name="Path 2793" d="M570.012,485.48A141.11,141.11,0,0,1,670.468,443.9h.486v-.971h-.486a142.91,142.91,0,0,0-143,142.517h.971A141.111,141.111,0,0,1,570.012,485.48Z" fill="#fff"/>
    </g>
    <g id="Group_759" data-name="Group 759" transform="translate(-343.559 -262.088)">
        <path id="Path_2794" data-name="Path 2794" d="M670.468,491.414c.165,0,.321,0,.486.01v-.972c-.165-.009-.321-.009-.486-.009a95.591,95.591,0,0,0-95.484,95.008h.972A94.616,94.616,0,0,1,670.468,491.414Z" fill="#fff"/>
    </g>
    <g id="Group_760" data-name="Group 760" transform="translate(-343.559 -262.088)">
        <path id="Path_2795" data-name="Path 2795" d="M469.216,384.684a289.636,289.636,0,0,1,25.4-22.579c1.262-1,2.525-1.982,3.807-2.953,1.427-1.087,2.874-2.165,4.321-3.214,1.263-.923,2.535-1.845,3.817-2.739q1.747-1.238,3.516-2.447A280.9,280.9,0,0,1,623.62,305.214c1.049-.184,2.1-.349,3.156-.495q2.739-.436,5.487-.8c.816-.107,1.632-.214,2.447-.311q4.895-.627,9.838-1.059a5.5,5.5,0,0,1,.583-.058c1.136-.107,2.272-.194,3.409-.272,1.2-.1,2.408-.184,3.622-.252q1.02-.074,2.039-.117c.69-.048,1.37-.087,2.059-.116,1.059-.058,2.117-.1,3.186-.136,1.214-.049,2.437-.088,3.661-.117q3.671-.1,7.361-.1h.486v-.971h-.486A285.354,285.354,0,0,0,384.949,585.451h.971A282.714,282.714,0,0,1,469.216,384.684Z" fill="#fff"/>
    </g>
    <g id="Group_762" data-name="Group 762" transform="translate(-343.559 -262.088)" opacity="0.7">
        <g id="Group_761" data-name="Group 761">
            <path id="Path_2796" data-name="Path 2796" d="M344.728,550.683c10.045,5.123,20.073,9.936,30.355,14.565-.128,2.908-.174,4.367-.229,7.292-10.571,3.978-20.865,8.168-31.212,12.7-.082-3.717-.1-5.57-.073-9.265,8.359-3.182,12.56-4.663,20.99-7.406-8.24-3.291-12.338-5.037-20.482-8.733C344.286,556.16,344.416,554.329,344.728,550.683Z"/>
            <path id="Path_2797" data-name="Path 2797" d="M376.954,542.808c-.35,2.848-.507,4.276-.787,7.144q-15.546-1.535-31.091-3.071c.311-3.18.486-4.764.874-7.922Q361.451,540.885,376.954,542.808Z"/>
            <path id="Path_2798" data-name="Path 2798" d="M382.389,512.342a237.731,237.731,0,0,0-4.548,23.889q-15.455-2.283-30.908-4.565a263.79,263.79,0,0,1,5.042-26.49l6.087,1.434c-1.7,7.249-2.45,10.915-3.724,18.314l6.162,1.067c.844-4.907,1.316-7.345,2.354-12.185l6.114,1.316c-1.018,4.742-1.479,7.129-2.307,11.935l6.14,1.064c1.2-6.955,1.9-10.4,3.5-17.214Z"/>
            <path id="Path_2799" data-name="Path 2799" d="M385.372,500.745c-.757,2.706-1.12,4.066-1.812,6.8l-30.286-7.688c1.535-6.059,2.375-9.062,4.2-15.005a17.555,17.555,0,0,1,1.656-3.788,16.5,16.5,0,0,1,2.344-3.1,14.822,14.822,0,0,1,2.855-2.311,12.673,12.673,0,0,1,3.184-1.42,11.211,11.211,0,0,1,3.324-.435,10.234,10.234,0,0,1,3.3.619,10.571,10.571,0,0,1,2.791,1.51,12.187,12.187,0,0,1,2.276,2.246,13.04,13.04,0,0,1,1.68,2.852,14.9,14.9,0,0,1,.99,3.309c3.606-.471,5.407-.684,9-1.063-.981,2.8-1.454,4.208-2.365,7.04-2.771.39-4.158.6-6.933,1.044-.931,3.065-1.376,4.606-2.224,7.7ZM361.3,494l12.043,3.373c.79-2.824,1.2-4.23,2.06-7.026a8.312,8.312,0,0,0,.373-2.847,7.789,7.789,0,0,0-.565-2.623,6.461,6.461,0,0,0-1.4-2.121,5.341,5.341,0,0,0-2.122-1.319,5.227,5.227,0,0,0-2.491-.21,6.225,6.225,0,0,0-2.4.912,7.709,7.709,0,0,0-2.011,1.878,8.473,8.473,0,0,0-1.344,2.663C362.557,489.6,362.128,491.062,361.3,494Z"/>
            <path id="Path_2800" data-name="Path 2800" d="M390.432,444.117a13.577,13.577,0,0,1,3.438,2.411,15.013,15.013,0,0,1,2.557,3.256,17.485,17.485,0,0,1,1.658,3.851,18.3,18.3,0,0,1,.729,4.243,19.757,19.757,0,0,1-.265,4.442,20.223,20.223,0,0,1-1.315,4.454c-1.625,3.852-2.4,5.8-3.89,9.717l-29.221-11.068c1.649-4.348,2.512-6.5,4.313-10.775a21.477,21.477,0,0,1,2.531-4.466,20.18,20.18,0,0,1,3.316-3.525,17.669,17.669,0,0,1,3.844-2.447,16.021,16.021,0,0,1,4.119-1.286,13.688,13.688,0,0,1,4.174-.056A13.083,13.083,0,0,1,390.432,444.117Zm-3.158,6.579a7.868,7.868,0,0,0-3.663-.749,9.229,9.229,0,0,0-3.7.931,11.348,11.348,0,0,0-3.3,2.449,12.424,12.424,0,0,0-2.418,3.748c-.584,1.387-.872,2.082-1.441,3.477l17.357,7.063c.535-1.311.806-1.964,1.355-3.268a12.16,12.16,0,0,0,.967-4.095,11.338,11.338,0,0,0-.448-3.922A9.718,9.718,0,0,0,390.23,453,8.2,8.2,0,0,0,387.274,450.7Z"/>
            <path id="Path_2801" data-name="Path 2801" d="M418.166,426.422c-4.992,8-7.33,12.112-11.664,20.528l-27.789-14.282c4.806-9.331,7.4-13.89,12.934-22.762l5.307,3.306c-3.842,6.158-5.677,9.3-9.163,15.684l5.491,2.991c2.312-4.235,3.509-6.328,5.981-10.462l5.369,3.205c-2.422,4.049-3.594,6.1-5.859,10.249l5.472,2.98c3.277-6,5-8.954,8.613-14.742Z"/>
            <path id="Path_2802" data-name="Path 2802" d="M432.55,405.486c-1.653,2.192-2.467,3.3-4.069,5.532l-25.4-18.193c1.776-2.476,2.678-3.7,4.511-6.134l12.477,9.4c-1.746-8.061-2.491-12.168-3.7-20.511,2.2-2.665,3.32-3.983,5.592-6.587.816,7.083,1.325,10.582,2.531,17.476,8.515.958,12.722,1.572,21.013,3.056-2.049,2.349-3.058,3.537-5.043,5.941-5.816-.9-8.752-1.279-14.673-1.916.663,3.3,1.017,4.931,1.767,8.177Z"/>
            <path id="Path_2803" data-name="Path 2803" d="M465.778,356.451a8.422,8.422,0,0,1,1.807,3.276,9.682,9.682,0,0,1,.331,3.711,10.864,10.864,0,0,1-1.077,3.7,11.4,11.4,0,0,1-2.422,3.271,11.546,11.546,0,0,1-3.065,2.105,10.486,10.486,0,0,1-3.518.96,10.458,10.458,0,0,1-.979,3.524,11.647,11.647,0,0,1-2.122,3.067,11.375,11.375,0,0,1-3.277,2.411,10.889,10.889,0,0,1-3.7,1.064,9.7,9.7,0,0,1-3.709-.345,8.411,8.411,0,0,1-3.268-1.819l-16.662-14.833c2.024-2.272,3.049-3.4,5.125-5.619l16.3,15.227a2.884,2.884,0,0,0,1.085.643,3.073,3.073,0,0,0,1.242.14,3.531,3.531,0,0,0,1.246-.352,4.071,4.071,0,0,0,1.889-1.975,3.569,3.569,0,0,0,.3-1.26,3.092,3.092,0,0,0-.2-1.235,2.9,2.9,0,0,0-.691-1.055l-15.935-15.61c2.129-2.174,3.207-3.249,5.387-5.372l15.557,15.987a2.9,2.9,0,0,0,1.052.7,3.11,3.11,0,0,0,1.234.2,3.584,3.584,0,0,0,1.262-.293,4.066,4.066,0,0,0,1.981-1.884,3.529,3.529,0,0,0,.357-1.246,3.255,3.255,0,0,0-.127-1.251,2.763,2.763,0,0,0-.631-1.1l-15.171-16.355c2.223-2.064,3.348-3.083,5.62-5.094C456.911,346.424,459.867,349.766,465.778,356.451Z"/>
            <path id="Path_2804" data-name="Path 2804" d="M497.791,342.6c-2.261,1.577-3.381,2.379-5.6,4.008l-3.7-5.044c-4.536,3.329-6.763,5.047-11.128,8.583l3.932,4.861c-2.128,1.724-3.182,2.6-5.268,4.373L463.9,345.1a10.442,10.442,0,0,1-2.262-4.465,12.359,12.359,0,0,1-.1-5.1,14.857,14.857,0,0,1,2.031-5.108,17.444,17.444,0,0,1,9.375-7.231,14.987,14.987,0,0,1,5.471-.676,12.255,12.255,0,0,1,4.921,1.379,10.426,10.426,0,0,1,3.74,3.325Zm-12.978-6.063-3.7-5.044a5.272,5.272,0,0,0-1.9-1.616,6.2,6.2,0,0,0-2.462-.657,7.513,7.513,0,0,0-2.7.354,8.593,8.593,0,0,0-4.592,3.542,7.545,7.545,0,0,0-1.03,2.525,6.234,6.234,0,0,0,.01,2.549,5.288,5.288,0,0,0,1.078,2.252l3.932,4.861C477.906,341.69,480.18,339.936,484.813,336.536Z"/>
            <path id="Path_2805" data-name="Path 2805" d="M508.517,335.469c-2.334,1.477-3.491,2.229-5.786,3.759l-17.315-26.005c5.089-3.395,7.678-5.034,12.938-8.188a17.143,17.143,0,0,1,3.721-1.68,16.242,16.242,0,0,1,3.783-.716,14.683,14.683,0,0,1,3.643.206,12.658,12.658,0,0,1,3.3,1.083,11.273,11.273,0,0,1,2.751,1.9,10.3,10.3,0,0,1,2.032,2.668,10.646,10.646,0,0,1,1.065,2.989,12.26,12.26,0,0,1,.2,3.189,13.055,13.055,0,0,1-.648,3.238,14.853,14.853,0,0,1-1.458,3.111c2.98,2.07,4.454,3.12,7.369,5.25-2.584,1.415-3.866,2.139-6.409,3.618-2.306-1.573-3.469-2.35-5.814-3.884-2.707,1.633-4.049,2.467-6.707,4.17ZM495.17,314.341l6.679,10.573c2.436-1.541,3.663-2.3,6.139-3.782a8.121,8.121,0,0,0,2.152-1.847,7.705,7.705,0,0,0,1.314-2.315,6.484,6.484,0,0,0,.365-2.507,5.379,5.379,0,0,0-.7-2.4,5.262,5.262,0,0,0-1.7-1.825,6.235,6.235,0,0,0-2.377-.936,7.636,7.636,0,0,0-2.726.036,8.269,8.269,0,0,0-2.749,1.061C498.987,311.947,497.708,312.735,495.17,314.341Z"/>
            <path id="Path_2806" data-name="Path 2806" d="M543.03,316.809c-2.529,1.15-3.786,1.74-6.281,2.95l-10.888-22.5c-4.088,1.981-6.111,3.008-10.112,5.131-1.171-2.211-1.757-3.316-2.927-5.526a287.916,287.916,0,0,1,27.926-13.113l2.378,5.784c-4.215,1.733-6.3,2.637-10.437,4.518C536.826,303.157,538.894,307.708,543.03,316.809Z"/>
            <path id="Path_2807" data-name="Path 2807" d="M581.311,302.608c-2.72.793-4.073,1.2-6.764,2.062-.76-2.382-1.141-3.574-1.9-5.957-5.5,1.751-8.218,2.693-13.593,4.7.876,2.343,1.315,3.514,2.191,5.857-2.621.98-3.923,1.485-6.513,2.526-2.8-6.954-4.193-10.432-6.989-17.386a10.272,10.272,0,0,1-.712-4.959,12.357,12.357,0,0,1,1.583-4.89,15.156,15.156,0,0,1,3.639-4.234,18.182,18.182,0,0,1,11.452-3.962,15.522,15.522,0,0,1,5.523,1.067,12.389,12.389,0,0,1,4.311,2.853,10.2,10.2,0,0,1,2.518,4.336Zm-10.559-9.831c-.761-2.383-1.141-3.575-1.9-5.958a5.177,5.177,0,0,0-1.3-2.133,6.223,6.223,0,0,0-2.164-1.4,7.781,7.781,0,0,0-2.732-.508,8.971,8.971,0,0,0-5.609,1.941,7.7,7.7,0,0,0-1.828,2.085,6.249,6.249,0,0,0-.831,2.431,5.2,5.2,0,0,0,.3,2.481c.877,2.343,1.315,3.515,2.191,5.857C562.359,295.527,565.136,294.565,570.752,292.777Z"/>
            <path id="Path_2808" data-name="Path 2808" d="M614.8,295c-2.848.47-4.266.722-7.09,1.261-.471-2.456-.707-3.684-1.178-6.14-5.77,1.1-8.629,1.721-14.29,3.1.593,2.429.89,3.644,1.483,6.074-2.761.671-4.135,1.023-6.868,1.76-1.958-7.234-2.936-10.852-4.893-18.087a10.162,10.162,0,0,1-.106-5.011,12.37,12.37,0,0,1,2.2-4.679,15.432,15.432,0,0,1,4.188-3.788,17.887,17.887,0,0,1,5.789-2.32,18.071,18.071,0,0,1,6.25-.291,15.893,15.893,0,0,1,5.444,1.7,12.451,12.451,0,0,1,4,3.338,10.062,10.062,0,0,1,2.005,4.6C612.956,283.911,613.57,287.608,614.8,295Zm-9.443-11c-.471-2.456-.707-3.684-1.179-6.14a5.1,5.1,0,0,0-1.051-2.271,6.256,6.256,0,0,0-2.012-1.638,7.953,7.953,0,0,0-2.694-.822,9.274,9.274,0,0,0-5.9,1.279,7.881,7.881,0,0,0-2.1,1.861,6.268,6.268,0,0,0-1.138,2.32,5.151,5.151,0,0,0-.007,2.5l1.483,6.074C596.543,285.76,599.463,285.125,605.355,284Z"/>
            <path id="Path_2809" data-name="Path 2809" d="M646.442,291.558A241.758,241.758,0,0,0,621,294.047q-2.223-15.461-4.444-30.922c3.181-.454,4.778-.661,7.986-1.037,1.172,9.926,1.756,14.889,2.927,24.815,7.384-.864,11.114-1.184,18.637-1.588C646.24,287.812,646.308,289.061,646.442,291.558Z"/>
        </g>
    </g>
    <g id="Group_764" data-name="Group 764" transform="translate(-343.559 -262.088)">
        <g id="Group_763" data-name="Group 763">
            <path id="Path_2810" data-name="Path 2810" d="M467.631,412.081a7.8,7.8,0,0,1,1.734,2.614,8.927,8.927,0,0,1,.656,3.048,9.357,9.357,0,0,1-.415,3.111,8.487,8.487,0,0,1-1.492,2.821c-.659.827-.986,1.242-1.636,2.077a2.851,2.851,0,0,0-.49.953,3.088,3.088,0,0,0-.12,1.053,3.055,3.055,0,0,0,.24,1.026,2.754,2.754,0,0,0,.593.876l1.826,1.826c3.018-3.967,4.578-5.909,7.795-9.706l3.663,3.664c-4.579,5.4-6.77,8.2-10.943,13.941l-5.49-5.49a8.2,8.2,0,0,1-1.77-2.645,9.623,9.623,0,0,1-.74-3.119,9.446,9.446,0,0,1,.33-3.182,8.227,8.227,0,0,1,1.442-2.861c.65-.834.978-1.25,1.636-2.077a2.828,2.828,0,0,0,.5-.945,3.012,3.012,0,0,0,.135-1.039,2.909,2.909,0,0,0-.234-1.021,2.786,2.786,0,0,0-.594-.879,2.424,2.424,0,0,0-.842-.558,2.2,2.2,0,0,0-1.847.115,2.47,2.47,0,0,0-.784.662c-2.343,2.942-3.486,4.437-5.715,7.473l-3.664-3.663c2.229-3.037,3.372-4.532,5.715-7.473a7.064,7.064,0,0,1,2.36-1.952,6.912,6.912,0,0,1,5.613-.307A7.035,7.035,0,0,1,467.631,412.081Z" fill="#fff"/>
            <path id="Path_2811" data-name="Path 2811" d="M487.749,398.3a20.287,20.287,0,0,1,3.81,4.977,10.994,10.994,0,0,1,1.294,4.484,8.461,8.461,0,0,1-.766,3.966,12.648,12.648,0,0,1-2.364,3.43,12.048,12.048,0,0,1-3.31,2.485,8,8,0,0,1-3.867.847,10.509,10.509,0,0,1-4.4-1.231,19.645,19.645,0,0,1-4.918-3.751,20.858,20.858,0,0,1-3.853-5.019,11.969,11.969,0,0,1-1.412-4.584,8.722,8.722,0,0,1,.637-4.078,11.46,11.46,0,0,1,2.308-3.487,11.052,11.052,0,0,1,3.36-2.434,8.262,8.262,0,0,1,4-.736,11.432,11.432,0,0,1,4.527,1.337A20.252,20.252,0,0,1,487.749,398.3Zm-3.578,3.5q-3.049-3.051-5.559-3.5a4.55,4.55,0,0,0-4.312,1.432,4.715,4.715,0,0,0-1.28,4.4q.5,2.518,3.577,5.6,3.053,3.051,5.5,3.478a4.475,4.475,0,0,0,4.23-1.446,5.3,5.3,0,0,0,1.253-2.04,4.63,4.63,0,0,0,.108-2.342,8.016,8.016,0,0,0-1.108-2.637A16.669,16.669,0,0,0,484.171,401.8Z" fill="#fff"/>
            <path id="Path_2812" data-name="Path 2812" d="M500.317,380.435a6.984,6.984,0,0,1,1.651,2.528,6.846,6.846,0,0,1,.428,2.817,7.174,7.174,0,0,1-.754,2.773,7.559,7.559,0,0,1-1.91,2.409c-.8.687-1.2,1.032-2,1.727a2.537,2.537,0,0,0-.632.817,2.382,2.382,0,0,0-.236.943,2.337,2.337,0,0,0,.162.952,2.475,2.475,0,0,0,.565.85l1.826,1.826c3.711-3.314,5.611-4.923,9.494-8.041l3.663,3.664c-5.527,4.438-8.206,6.759-13.381,11.589L493.7,399.8a7.269,7.269,0,0,1-1.681-2.564,7.408,7.408,0,0,1-.5-2.9,7.3,7.3,0,0,1,2.548-5.312c.8-.7,1.2-1.04,2-1.726a2.566,2.566,0,0,0,.642-.808,2.319,2.319,0,0,0,.249-.927,2.233,2.233,0,0,0-.158-.947,2.485,2.485,0,0,0-.567-.851,2.684,2.684,0,0,0-.87-.585,2.879,2.879,0,0,0-1.009-.221,2.917,2.917,0,0,0-1.028.149,2.725,2.725,0,0,0-.924.525c-2.858,2.44-4.262,3.688-7.02,6.237l-3.664-3.664c2.758-2.549,4.162-3.8,7.02-6.237a7.866,7.866,0,0,1,2.778-1.541,9.022,9.022,0,0,1,3.116-.411,9.127,9.127,0,0,1,3.064.675A7.877,7.877,0,0,1,500.317,380.435Z" fill="#fff"/>
            <path id="Path_2813" data-name="Path 2813" d="M521.687,386.739c-1.708,1.241-2.555,1.871-4.234,3.149-5.857-5.858-8.786-8.787-14.644-14.644-.836.636-1.253.957-2.082,1.6l-3.664-3.664c2.493-1.941,3.757-2.892,6.316-4.751C510.7,375.754,514.365,379.415,521.687,386.739Z" fill="#fff"/>
        </g>
    </g>
    <g id="Group_766" data-name="Group 766" transform="translate(-343.559 -262.088)">
        <g id="Group_765" data-name="Group 765">
            <path id="Path_2814" data-name="Path 2814" d="M501.13,447.72a8.992,8.992,0,0,1,1.8,2.546,9.159,9.159,0,0,1,.832,2.862,8.1,8.1,0,0,1-.159,2.834,6.32,6.32,0,0,1-1.186,2.474c-.555.706-.831,1.061-1.38,1.772a2.141,2.141,0,0,0-.391.834,2.672,2.672,0,0,0-.042.954,3.111,3.111,0,0,0,.293.96,3.165,3.165,0,0,0,.612.852l1.826,1.826c2.552-3.377,3.865-5.037,6.561-8.292l3.664,3.663c-3.838,4.634-5.685,7.015-9.23,11.894l-5.489-5.49a9.322,9.322,0,0,1-1.826-2.568,9.766,9.766,0,0,1-.894-2.913,8.253,8.253,0,0,1,.1-2.883,6.2,6.2,0,0,1,1.153-2.5c.548-.712.824-1.067,1.379-1.773a2.152,2.152,0,0,0,.4-.827A2.62,2.62,0,0,0,499.2,453a2.99,2.99,0,0,0-.29-.959,3.2,3.2,0,0,0-.614-.855,2.787,2.787,0,0,0-.822-.581,2.259,2.259,0,0,0-.878-.209,1.88,1.88,0,0,0-.83.166,1.811,1.811,0,0,0-.682.545c-1.974,2.512-2.94,3.786-4.831,6.366l-3.664-3.664c1.891-2.58,2.857-3.853,4.831-6.365a5.2,5.2,0,0,1,2.054-1.605,5.842,5.842,0,0,1,2.522-.473,7.122,7.122,0,0,1,2.659.63A8.1,8.1,0,0,1,501.13,447.72Z" fill="#fff"/>
            <path id="Path_2815" data-name="Path 2815" d="M518.483,436.3a23.844,23.844,0,0,1,3.913,4.9,12.008,12.008,0,0,1,1.573,4.282,7.46,7.46,0,0,1-.361,3.657,9.29,9.29,0,0,1-1.88,3.039,8.611,8.611,0,0,1-2.839,2.079,6.652,6.652,0,0,1-3.494.507,11.031,11.031,0,0,1-4.157-1.466,22.936,22.936,0,0,1-4.829-3.838,24.419,24.419,0,0,1-3.942-4.932,12.866,12.866,0,0,1-1.658-4.35,7.726,7.726,0,0,1,.264-3.737,8.668,8.668,0,0,1,1.837-3.081,8.124,8.124,0,0,1,2.876-2.043,6.9,6.9,0,0,1,3.591-.427,11.8,11.8,0,0,1,4.248,1.539A23.387,23.387,0,0,1,518.483,436.3Zm-2.962,3.049q-3.051-3.051-5.384-3.634a3.644,3.644,0,0,0-3.831,1.044,3.977,3.977,0,0,0-.819,4,13.605,13.605,0,0,0,3.738,5.454q3.053,3.051,5.339,3.623a3.576,3.576,0,0,0,3.769-1.049,3.987,3.987,0,0,0,.978-1.816,4.371,4.371,0,0,0-.1-2.178,9.072,9.072,0,0,0-1.238-2.537A19.731,19.731,0,0,0,515.521,439.35Z" fill="#fff"/>
            <path id="Path_2816" data-name="Path 2816" d="M528.186,420.121a8.3,8.3,0,0,1,1.739,2.485,7.458,7.458,0,0,1,.664,2.7,6.408,6.408,0,0,1-.408,2.594,5.615,5.615,0,0,1-1.493,2.182c-.661.607-.99.911-1.645,1.524a1.9,1.9,0,0,0-.5.737,2.12,2.12,0,0,0-.126.876,2.535,2.535,0,0,0,.236.907,2.892,2.892,0,0,0,.592.834l1.825,1.825c3.059-2.912,4.621-4.335,7.807-7.111l3.664,3.664c-4.535,3.95-6.74,6-11.014,10.223l-5.49-5.489a8.525,8.525,0,0,1-1.761-2.51,7.926,7.926,0,0,1-.72-2.757,6.522,6.522,0,0,1,.356-2.649,5.528,5.528,0,0,1,1.463-2.214c.655-.613.985-.917,1.646-1.524a1.9,1.9,0,0,0,.5-.729,2.075,2.075,0,0,0,.135-.865,2.434,2.434,0,0,0-.234-.906,2.923,2.923,0,0,0-.6-.836,2.978,2.978,0,0,0-.842-.6,2.776,2.776,0,0,0-.933-.263,2.371,2.371,0,0,0-.914.087,1.992,1.992,0,0,0-.785.448c-2.351,2.156-3.508,3.253-5.785,5.486l-3.664-3.664c2.277-2.233,3.434-3.33,5.785-5.486a5.76,5.76,0,0,1,2.361-1.314,7.385,7.385,0,0,1,2.77-.232,8.9,8.9,0,0,1,5.359,2.578Z" fill="#fff"/>
            <path id="Path_2817" data-name="Path 2817" d="M547.822,411.1a22.765,22.765,0,0,1,3.837,4.819,9.964,9.964,0,0,1,1.363,4.051,5.9,5.9,0,0,1-.673,3.316,8.535,8.535,0,0,1-2.266,2.626,9.535,9.535,0,0,1-3.23,1.669,8.415,8.415,0,0,1-3.815.177,13.325,13.325,0,0,1-4.375-1.685,24.277,24.277,0,0,1-4.909-3.92,23.061,23.061,0,0,1-3.862-4.851,10.687,10.687,0,0,1-1.44-4.13,6.118,6.118,0,0,1,.585-3.407,7.948,7.948,0,0,1,2.227-2.672,9.032,9.032,0,0,1,3.263-1.629,8.693,8.693,0,0,1,3.9-.086,14.194,14.194,0,0,1,4.458,1.77A24.967,24.967,0,0,1,547.822,411.1Zm-3.426,2.537a14.071,14.071,0,0,0-5.521-3.782,4.426,4.426,0,0,0-4.214.634,3.28,3.28,0,0,0-1.2,3.6q.522,2.234,3.6,5.312a13.991,13.991,0,0,0,5.476,3.765,4.354,4.354,0,0,0,4.151-.648,3.561,3.561,0,0,0,1.2-1.582,3.434,3.434,0,0,0,.066-2,7.789,7.789,0,0,0-1.137-2.427A18.977,18.977,0,0,0,544.4,413.636Z" fill="#fff"/>
        </g>
    </g>
    <g id="Group_768" data-name="Group 768" transform="translate(-343.559 -262.088)">
        <g id="Group_767" data-name="Group 767">
            <path id="Path_2818" data-name="Path 2818" d="M535.479,479.417a7.865,7.865,0,0,1,1.721,2.567,8.853,8.853,0,0,1,.675,2.977,9.043,9.043,0,0,1-.368,3.027,7.991,7.991,0,0,1-1.422,2.729c-.633.8-.947,1.2-1.572,2a2.679,2.679,0,0,0-.467.922,3,3,0,0,0,.139,2.024,2.769,2.769,0,0,0,.587.861l1.8,1.8c2.9-3.821,4.4-5.694,7.488-9.358l3.612,3.612c-4.393,5.215-6.5,7.9-10.517,13.436l-5.412-5.413a8.222,8.222,0,0,1-1.754-2.6,9.509,9.509,0,0,1-.754-3.044,9.108,9.108,0,0,1,.29-3.091,7.76,7.76,0,0,1,1.376-2.766c.625-.8.939-1.2,1.572-2a2.7,2.7,0,0,0,.479-.913,2.934,2.934,0,0,0,.119-1.01,2.876,2.876,0,0,0-.24-1,2.775,2.775,0,0,0-.589-.863,2.431,2.431,0,0,0-.827-.554,2.187,2.187,0,0,0-.911-.153,2.143,2.143,0,0,0-.888.243,2.334,2.334,0,0,0-.756.635c-2.251,2.836-3.35,4.276-5.495,7.2l-3.613-3.613c2.145-2.923,3.245-4.363,5.5-7.2a6.651,6.651,0,0,1,4.974-2.571,6.9,6.9,0,0,1,2.768.465A7.088,7.088,0,0,1,535.479,479.417Z" fill="#fff"/>
            <path id="Path_2819" data-name="Path 2819" d="M554.851,466.161a20.451,20.451,0,0,1,3.774,4.9,11,11,0,0,1,1.324,4.395,8.193,8.193,0,0,1-.687,3.868,11.9,11.9,0,0,1-2.249,3.329,11.252,11.252,0,0,1-3.185,2.392,7.625,7.625,0,0,1-3.751.787,10.39,10.39,0,0,1-4.3-1.247,19.794,19.794,0,0,1-4.834-3.712,21.021,21.021,0,0,1-3.814-4.935,11.947,11.947,0,0,1-1.433-4.487,8.452,8.452,0,0,1,.566-3.971,10.882,10.882,0,0,1,2.2-3.381,10.416,10.416,0,0,1,3.231-2.346,7.9,7.9,0,0,1,3.872-.684,11.267,11.267,0,0,1,4.416,1.344A20.37,20.37,0,0,1,554.851,466.161Zm-3.422,3.392q-3.008-3.006-5.452-3.467a4.322,4.322,0,0,0-4.17,1.359,4.535,4.535,0,0,0-1.185,4.278q.517,2.463,3.554,5.5,3.008,3.009,5.395,3.45a4.256,4.256,0,0,0,4.094-1.371,5.016,5.016,0,0,0,1.189-1.98,4.535,4.535,0,0,0,.072-2.287,8.06,8.06,0,0,0-1.114-2.586A16.836,16.836,0,0,0,551.429,469.553Z" fill="#fff"/>
            <path id="Path_2820" data-name="Path 2820" d="M571.532,468.072c-1.515,1.347-2.265,2.028-3.751,3.407l-14.438-14.438c-.74.687-1.108,1.033-1.841,1.728l-3.613-3.613c2.2-2.089,3.323-3.116,5.592-5.135Z" fill="#fff"/>
            <path id="Path_2821" data-name="Path 2821" d="M578.384,441.954a22.651,22.651,0,0,1,3,3.678,19.413,19.413,0,0,1,1.993,3.962,16.174,16.174,0,0,1,.917,4.062,13.722,13.722,0,0,1-.213,4c-2.165,1.675-3.236,2.528-5.351,4.263a17.785,17.785,0,0,0,.523-2.411,19.369,19.369,0,0,0,.2-2.494,17.894,17.894,0,0,0-.133-2.5,15.777,15.777,0,0,0-.5-2.433,8.569,8.569,0,0,1-.69,1.644,4.493,4.493,0,0,1-1.171,1.386,10.95,10.95,0,0,1-3.519,1.925,9.748,9.748,0,0,1-3.67.449,9.856,9.856,0,0,1-3.584-.969,11.83,11.83,0,0,1-3.246-2.337,10.051,10.051,0,0,1-2.207-3.241A9.081,9.081,0,0,1,560,447.35a8.2,8.2,0,0,1,.811-3.5,8.352,8.352,0,0,1,2.418-2.973,10.035,10.035,0,0,1,3.656-1.842,11.984,11.984,0,0,1,4.09-.385,12.47,12.47,0,0,1,4.008,1A10.828,10.828,0,0,1,578.384,441.954Zm-4.359,3.243a5.779,5.779,0,0,0-1.6-1.13,5.977,5.977,0,0,0-1.883-.557,5.357,5.357,0,0,0-1.933.114,4.526,4.526,0,0,0-1.764.869,3.989,3.989,0,0,0-1.187,1.459,3.846,3.846,0,0,0-.357,1.669,4.134,4.134,0,0,0,.409,1.7,5.582,5.582,0,0,0,1.127,1.574,5.984,5.984,0,0,0,1.6,1.151,5.376,5.376,0,0,0,1.824.532,5.107,5.107,0,0,0,1.875-.153,4.788,4.788,0,0,0,1.746-.9,4.308,4.308,0,0,0,1.219-1.452,3.654,3.654,0,0,0,.4-1.65,4.088,4.088,0,0,0-.377-1.679A5.241,5.241,0,0,0,574.025,445.2Z" fill="#fff"/>
        </g>
    </g>
    <g id="Group_770" data-name="Group 770" transform="translate(-343.559 -262.088)">
        <g id="Group_769" data-name="Group 769">
            <path id="Path_2822" data-name="Path 2822" d="M568.785,514.1a7.683,7.683,0,0,1,1.693,2.537,8.741,8.741,0,0,1,.654,2.951,8.988,8.988,0,0,1-.381,3.006,8.064,8.064,0,0,1-1.422,2.718c-.632.795-.945,1.2-1.569,2a2.713,2.713,0,0,0-.468.917,2.992,2.992,0,0,0,.128,2.009,2.715,2.715,0,0,0,.578.85l1.775,1.776c2.9-3.813,4.39-5.681,7.469-9.337,1.425,1.426,2.137,2.138,3.562,3.562-4.382,5.2-6.482,7.887-10.491,13.405-2.134-2.135-3.2-3.2-5.337-5.337a8.036,8.036,0,0,1-1.725-2.566,9.358,9.358,0,0,1-.733-3.016,9.079,9.079,0,0,1,.3-3.071,7.821,7.821,0,0,1,1.377-2.755c.623-.8.937-1.2,1.568-2a2.717,2.717,0,0,0,.479-.91,2.9,2.9,0,0,0,.124-1,2.836,2.836,0,0,0-.233-.989,2.715,2.715,0,0,0-.579-.852,2.358,2.358,0,0,0-.817-.544,2.122,2.122,0,0,0-1.784.1,2.349,2.349,0,0,0-.753.636c-2.245,2.829-3.342,4.265-5.482,7.182l-3.562-3.562c2.14-2.917,3.237-4.354,5.482-7.183a6.712,6.712,0,0,1,2.267-1.873,6.64,6.64,0,0,1,2.677-.71,6.78,6.78,0,0,1,2.741.444A6.889,6.889,0,0,1,568.785,514.1Z" fill="#fff"/>
            <path id="Path_2823" data-name="Path 2823" d="M588.065,500.827a19.972,19.972,0,0,1,3.716,4.836,10.806,10.806,0,0,1,1.288,4.352,8.185,8.185,0,0,1-.7,3.842,12.019,12.019,0,0,1-2.248,3.316,11.383,11.383,0,0,1-3.171,2.393,7.61,7.61,0,0,1-3.723.8,10.225,10.225,0,0,1-4.257-1.211,19.327,19.327,0,0,1-4.773-3.653,20.546,20.546,0,0,1-3.755-4.875,11.726,11.726,0,0,1-1.4-4.443,8.422,8.422,0,0,1,.583-3.945,10.936,10.936,0,0,1,2.2-3.368,10.509,10.509,0,0,1,3.217-2.347,7.873,7.873,0,0,1,3.843-.7,11.065,11.065,0,0,1,4.372,1.308A19.847,19.847,0,0,1,588.065,500.827Zm-3.413,3.385q-2.965-2.966-5.387-3.407a4.326,4.326,0,0,0-4.143,1.373,4.539,4.539,0,0,0-1.2,4.252q.5,2.442,3.494,5.436,2.967,2.967,5.332,3.39a4.254,4.254,0,0,0,4.066-1.385,5.041,5.041,0,0,0,1.19-1.972,4.507,4.507,0,0,0,.084-2.269A7.893,7.893,0,0,0,587,507.071,16.425,16.425,0,0,0,584.652,504.212Z" fill="#fff"/>
            <path id="Path_2824" data-name="Path 2824" d="M604.6,502.626c-1.51,1.344-2.258,2.025-3.74,3.4l-14.238-14.238c-.738.686-1.1,1.031-1.836,1.724l-3.562-3.563c2.2-2.085,3.313-3.11,5.576-5.125Z" fill="#fff"/>
            <path id="Path_2825" data-name="Path 2825" d="M617.869,482.754a5.9,5.9,0,0,1,1.594,2.68,6.294,6.294,0,0,1,.044,3.021,8.986,8.986,0,0,1-1.36,3.054,12.317,12.317,0,0,1-2.617,2.78,13.653,13.653,0,0,1-3.411,1.995,11.9,11.9,0,0,1-3.575.855,8.857,8.857,0,0,1-3.376-.382,7.023,7.023,0,0,1-3.969-3.248,6.5,6.5,0,0,1-.665-1.747,6.931,6.931,0,0,1-.153-1.855,6.359,6.359,0,0,1,.376-1.859,6.845,6.845,0,0,1-1.52-.142,8.85,8.85,0,0,1-1.484-.44,7.782,7.782,0,0,1-1.356-.7,7.032,7.032,0,0,1-1.144-.921,5.68,5.68,0,0,1-1.451-2.383,6.448,6.448,0,0,1-.218-2.764,7.533,7.533,0,0,1,.981-2.79,8.651,8.651,0,0,1,2.146-2.441,9.8,9.8,0,0,1,2.984-1.622,10.241,10.241,0,0,1,3.229-.544,8.888,8.888,0,0,1,3.059.514,6.641,6.641,0,0,1,2.488,1.561,6.224,6.224,0,0,1,.888,1.124,7.224,7.224,0,0,1,.629,1.283,6.056,6.056,0,0,1,.337,1.362,5.316,5.316,0,0,1,0,1.369,9.386,9.386,0,0,1,2.091-.108,9.043,9.043,0,0,1,2.034.355,8.575,8.575,0,0,1,1.855.793A7.484,7.484,0,0,1,617.869,482.754Zm-4.139,2.9a3.694,3.694,0,0,0-1.413-.881,4.927,4.927,0,0,0-1.727-.268,5.978,5.978,0,0,0-3.55,1.291,5.207,5.207,0,0,0-1.252,1.4,4.417,4.417,0,0,0-.59,1.58,3.512,3.512,0,0,0,.1,1.559,3.166,3.166,0,0,0,.818,1.353,3.428,3.428,0,0,0,1.385.851,4.391,4.391,0,0,0,1.66.2,5.926,5.926,0,0,0,1.764-.407,6.49,6.49,0,0,0,1.68-.973,5.931,5.931,0,0,0,1.285-1.377,4.421,4.421,0,0,0,.664-1.515,3.128,3.128,0,0,0-.029-1.488A2.936,2.936,0,0,0,613.73,485.656Zm-8.839-6.91a2.725,2.725,0,0,0-1.03-.646,3.688,3.688,0,0,0-1.25-.211,4,4,0,0,0-1.318.23,4.133,4.133,0,0,0-1.214.669,3.723,3.723,0,0,0-.9,1.007,3,3,0,0,0-.411,1.138,2.647,2.647,0,0,0,.089,1.131,2.336,2.336,0,0,0,.6.986,2.6,2.6,0,0,0,1.018.633,3.377,3.377,0,0,0,1.221.18,4.241,4.241,0,0,0,1.293-.257,4.329,4.329,0,0,0,1.223-.685,3.783,3.783,0,0,0,.892-.991,3.159,3.159,0,0,0,.436-1.112,2.428,2.428,0,0,0-.06-1.1A2.242,2.242,0,0,0,604.891,478.746Z" fill="#fff"/>
        </g>
    </g>
    <g id="Group_772" data-name="Group 772" transform="translate(-343.559 -262.088)">
        <g id="Group_771" data-name="Group 771">
            <path id="Path_2826" data-name="Path 2826" d="M605.621,546.051a7.865,7.865,0,0,1,1.737,2.611,8.969,8.969,0,0,1,.664,3.04,9.3,9.3,0,0,1-.4,3.1,8.349,8.349,0,0,1-1.478,2.8c-.654.822-.979,1.235-1.624,2.064a2.819,2.819,0,0,0-.486.948,3.072,3.072,0,0,0,.126,2.071,2.764,2.764,0,0,0,.593.876l1.826,1.825c3-3.941,4.547-5.87,7.74-9.644l3.664,3.663c-4.546,5.371-6.722,8.145-10.868,13.852l-5.489-5.489a8.226,8.226,0,0,1-1.773-2.641,9.62,9.62,0,0,1-.747-3.11,9.38,9.38,0,0,1,.32-3.169,8.113,8.113,0,0,1,1.43-2.846c.645-.829.97-1.242,1.625-2.064a2.834,2.834,0,0,0,.5-.939,2.994,2.994,0,0,0,.131-1.035,2.909,2.909,0,0,0-.237-1.019,2.781,2.781,0,0,0-.594-.878,2.426,2.426,0,0,0-.842-.559,2.206,2.206,0,0,0-.931-.148,2.232,2.232,0,0,0-.91.256,2.451,2.451,0,0,0-.779.658c-2.327,2.922-3.462,4.408-5.676,7.424l-3.664-3.663c2.214-3.017,3.35-4.5,5.676-7.425a7,7,0,0,1,2.347-1.937,6.9,6.9,0,0,1,2.766-.738,6.989,6.989,0,0,1,2.828.452A7.073,7.073,0,0,1,605.621,546.051Z" fill="#fff"/>
            <path id="Path_2827" data-name="Path 2827" d="M625.616,532.373a20.408,20.408,0,0,1,3.814,4.973,11.037,11.037,0,0,1,1.307,4.477,8.413,8.413,0,0,1-.748,3.952,12.441,12.441,0,0,1-2.343,3.414,11.879,11.879,0,0,1-3.289,2.467,7.928,7.928,0,0,1-3.85.833,10.523,10.523,0,0,1-4.392-1.241,19.767,19.767,0,0,1-4.914-3.755,20.965,20.965,0,0,1-3.857-5.016,11.978,11.978,0,0,1-1.423-4.574,8.665,8.665,0,0,1,.621-4.063,11.329,11.329,0,0,1,2.286-3.469,10.936,10.936,0,0,1,3.339-2.418,8.194,8.194,0,0,1,3.979-.722,11.444,11.444,0,0,1,4.514,1.345A20.365,20.365,0,0,1,625.616,532.373Zm-3.55,3.483q-3.051-3.051-5.552-3.5a4.5,4.5,0,0,0-4.29,1.415,4.677,4.677,0,0,0-1.26,4.379q.506,2.512,3.584,5.593,3.053,3.051,5.493,3.484a4.433,4.433,0,0,0,4.209-1.429,5.233,5.233,0,0,0,1.241-2.031,4.627,4.627,0,0,0,.1-2.335,8.075,8.075,0,0,0-1.114-2.633A16.805,16.805,0,0,0,622.066,535.856Z" fill="#fff"/>
            <path id="Path_2828" data-name="Path 2828" d="M642.715,534.233c-1.573,1.38-2.352,2.078-3.894,3.492l-14.643-14.644c-.769.705-1.151,1.059-1.911,1.772l-3.664-3.665c2.286-2.142,3.448-3.2,5.8-5.262Z" fill="#fff"/>
            <path id="Path_2829" data-name="Path 2829" d="M641.448,502.31c4.426,9.427,6.659,14.168,11.169,23.7-1.762,1.384-2.634,2.086-4.362,3.511-3.589-7.727-5.369-11.574-8.9-19.232-3.522,2.725-5.25,4.128-8.637,7.012l-3.664-3.664C632.628,508.892,635.511,506.623,641.448,502.31Z" fill="#fff"/>
        </g>
    </g>
    <g id="Group_773" data-name="Group 773" transform="translate(-343.559 -262.088)">
        <path id="Path_2830" data-name="Path 2830" d="M712.484,330.23a8.237,8.237,0,0,1-.679,3.333,8.721,8.721,0,0,1-4.571,4.572,8.249,8.249,0,0,1-3.332.678H692.445v-5.729H703.9a2.827,2.827,0,0,0,2.635-1.736,2.961,2.961,0,0,0,0-2.235,2.832,2.832,0,0,0-2.635-1.737h-7.8v-5.729h7.8a2.828,2.828,0,0,0,2.026-.828,2.769,2.769,0,0,0,.609-.918,2.933,2.933,0,0,0,.219-1.128,2.863,2.863,0,0,0-.219-1.117,2.827,2.827,0,0,0-2.635-1.736H692.445v-5.729H703.9a8.249,8.249,0,0,1,3.332.678,8.724,8.724,0,0,1,4.571,4.571,8.248,8.248,0,0,1,.679,3.333,8.4,8.4,0,0,1-.578,3.065,8.665,8.665,0,0,1-1.636,2.664,8.664,8.664,0,0,1,1.636,2.664A8.4,8.4,0,0,1,712.484,330.23Z" fill="#fff"/>
        <path id="Path_2831" data-name="Path 2831" d="M738.072,320.709a26.211,26.211,0,0,1-.549,5.38,24.685,24.685,0,0,1-1.585,4.96,21.791,21.791,0,0,1-2.536,4.31,18.488,18.488,0,0,1-3.394,3.454h-7.725a22.121,22.121,0,0,0,2.356-1.737,25.255,25.255,0,0,0,2.166-2.055,23.466,23.466,0,0,0,1.906-2.316,20.366,20.366,0,0,0,1.557-2.515,10.938,10.938,0,0,1-1.875.988,5.378,5.378,0,0,1-2.057.41,11.25,11.25,0,0,1-4.371-.809,9.516,9.516,0,0,1-3.3-2.256,9.842,9.842,0,0,1-2.1-3.443,12.648,12.648,0,0,1-.728-4.371,11.645,11.645,0,0,1,.828-4.381,11.36,11.36,0,0,1,2.285-3.612,10.723,10.723,0,0,1,3.453-2.445,10.423,10.423,0,0,1,4.33-.9,10.964,10.964,0,0,1,4.422.9,11.415,11.415,0,0,1,6.028,6.057A10.994,10.994,0,0,1,738.072,320.709Zm-6.127,0a5.989,5.989,0,0,0-.381-2.115,5.635,5.635,0,0,0-1.066-1.8,5.121,5.121,0,0,0-1.646-1.236,4.829,4.829,0,0,0-2.118-.459,4.9,4.9,0,0,0-2.125.448,5.092,5.092,0,0,0-1.627,1.208,5.233,5.233,0,0,0-1.037,1.776,6.479,6.479,0,0,0-.359,2.175,6.323,6.323,0,0,0,.359,2.146,5.245,5.245,0,0,0,1.037,1.766,4.9,4.9,0,0,0,3.752,1.637,5.139,5.139,0,0,0,2.147-.439,4.893,4.893,0,0,0,1.646-1.2,5.425,5.425,0,0,0,1.049-1.766A6.183,6.183,0,0,0,731.945,320.709Z" fill="#fff"/>
        <path id="Path_2832" data-name="Path 2832" d="M763.262,320.709a26.279,26.279,0,0,1-.549,5.38,24.691,24.691,0,0,1-1.586,4.96,21.74,21.74,0,0,1-2.535,4.31,18.463,18.463,0,0,1-3.395,3.454h-7.724a22.215,22.215,0,0,0,2.355-1.737,24.97,24.97,0,0,0,2.166-2.055A23.329,23.329,0,0,0,753.9,332.7a20.241,20.241,0,0,0,1.557-2.515,10.938,10.938,0,0,1-1.875.988,5.377,5.377,0,0,1-2.057.41,11.25,11.25,0,0,1-4.371-.809,9.512,9.512,0,0,1-3.3-2.256,9.812,9.812,0,0,1-2.1-3.443,12.648,12.648,0,0,1-.729-4.371,11.666,11.666,0,0,1,.828-4.381,11.347,11.347,0,0,1,2.286-3.612,10.712,10.712,0,0,1,3.453-2.445,10.42,10.42,0,0,1,4.33-.9,10.967,10.967,0,0,1,4.422.9,11.418,11.418,0,0,1,6.027,6.057A10.977,10.977,0,0,1,763.262,320.709Zm-6.127,0a5.989,5.989,0,0,0-.381-2.115,5.671,5.671,0,0,0-1.066-1.8,5.115,5.115,0,0,0-1.647-1.236,4.828,4.828,0,0,0-2.117-.459,4.9,4.9,0,0,0-2.125.448,5.071,5.071,0,0,0-1.627,1.208,5.216,5.216,0,0,0-1.037,1.776,6.479,6.479,0,0,0-.36,2.175,6.323,6.323,0,0,0,.36,2.146,5.228,5.228,0,0,0,1.037,1.766,4.928,4.928,0,0,0,1.627,1.2,5,5,0,0,0,2.125.439,5.134,5.134,0,0,0,2.146-.439,4.887,4.887,0,0,0,1.647-1.2,5.425,5.425,0,0,0,1.049-1.766A6.183,6.183,0,0,0,757.135,320.709Z" fill="#fff"/>
        <path id="Path_2833" data-name="Path 2833" d="M788.891,333.084h-2.856v5.729h-5.728v-5.729H766l3.193-22.893h5.729l-2.494,17.185h7.883V313.064h5.728v14.312h2.856Z" fill="#fff"/>
    </g>
    <g id="Group_774" data-name="Group 774" transform="translate(-343.559 -262.088)">
        <path id="Path_2834" data-name="Path 2834" d="M714.52,381.084h-2.854v5.729h-5.728v-5.729H691.627l3.193-22.893h5.729l-2.5,17.185h7.885V361.064h5.728v14.312h2.854Z" fill="#fff"/>
        <path id="Path_2835" data-name="Path 2835" d="M738.271,378.23a8.269,8.269,0,0,1-.677,3.333,8.721,8.721,0,0,1-4.571,4.572,8.265,8.265,0,0,1-3.334.678H718.232v-5.729h11.457a2.854,2.854,0,1,0,0-5.708h-7.8v-5.729h7.8a2.828,2.828,0,0,0,2.026-.828,2.77,2.77,0,0,0,.609-.918,2.9,2.9,0,0,0,.219-1.128,2.828,2.828,0,0,0-2.854-2.853H718.232v-5.729h11.457a8.265,8.265,0,0,1,3.334.678,8.724,8.724,0,0,1,4.571,4.571,8.482,8.482,0,0,1,.1,6.4,8.664,8.664,0,0,1-1.636,2.664,8.663,8.663,0,0,1,1.636,2.664A8.36,8.36,0,0,1,738.271,378.23Z" fill="#fff"/>
        <path id="Path_2836" data-name="Path 2836" d="M763.859,368.709a26.138,26.138,0,0,1-.548,5.38,24.621,24.621,0,0,1-1.586,4.96,21.649,21.649,0,0,1-2.536,4.31,18.513,18.513,0,0,1-3.392,3.454h-7.725a22.327,22.327,0,0,0,2.356-1.737,25.409,25.409,0,0,0,2.166-2.055A23.754,23.754,0,0,0,754.5,380.7a20.733,20.733,0,0,0,1.557-2.515,10.883,10.883,0,0,1-1.877.988,5.37,5.37,0,0,1-2.057.41,11.25,11.25,0,0,1-4.371-.809,9.554,9.554,0,0,1-3.3-2.256,9.854,9.854,0,0,1-2.095-3.443,12.624,12.624,0,0,1-.729-4.371,11.647,11.647,0,0,1,.828-4.381,11.43,11.43,0,0,1,2.285-3.612,10.766,10.766,0,0,1,3.453-2.445,10.432,10.432,0,0,1,4.332-.9,10.954,10.954,0,0,1,4.42.9,11.428,11.428,0,0,1,6.03,6.057A10.992,10.992,0,0,1,763.859,368.709Zm-6.127,0a6.054,6.054,0,0,0-.378-2.115,5.7,5.7,0,0,0-1.069-1.8,5.121,5.121,0,0,0-1.646-1.236,4.82,4.82,0,0,0-2.116-.459,4.889,4.889,0,0,0-2.125.448,5.071,5.071,0,0,0-1.627,1.208,5.27,5.27,0,0,0-1.039,1.776,6.53,6.53,0,0,0-.359,2.175,6.373,6.373,0,0,0,.359,2.146,5.283,5.283,0,0,0,1.039,1.766,4.928,4.928,0,0,0,1.627,1.2,4.989,4.989,0,0,0,2.125.439,5.123,5.123,0,0,0,2.145-.439,4.881,4.881,0,0,0,1.648-1.2,5.4,5.4,0,0,0,1.047-1.766A6.183,6.183,0,0,0,757.732,368.709Z" fill="#fff"/>
        <path id="Path_2837" data-name="Path 2837" d="M787.932,377.811a9.255,9.255,0,0,1-.739,3.773,8.527,8.527,0,0,1-1.976,2.834,8.656,8.656,0,0,1-2.863,1.776,9.482,9.482,0,0,1-3.405.619H767.414v-5.729h11.535a3.939,3.939,0,0,0,1.168-.18,2.93,2.93,0,0,0,1.059-.578,2.972,2.972,0,0,0,.758-1.017,3.521,3.521,0,0,0,.289-1.5,3.245,3.245,0,0,0-.289-1.407,3.1,3.1,0,0,0-.758-1.017,3.226,3.226,0,0,0-1.059-.619,3.43,3.43,0,0,0-1.168-.21H767.414l1.676-16.367h17.664v5.729H774.24l-.519,4.909h5.228a9.482,9.482,0,0,1,3.405.619,8.569,8.569,0,0,1,2.863,1.786,8.672,8.672,0,0,1,1.976,2.834A9.141,9.141,0,0,1,787.932,377.811Z" fill="#fff"/>
    </g>
    <g id="Group_775" data-name="Group 775" transform="translate(-343.559 -262.088)">
        <path id="Path_2838" data-name="Path 2838" d="M700.588,433.813h-5.729V410.92h-2.853v-5.729h8.582Z" fill="#fff"/>
        <path id="Path_2839" data-name="Path 2839" d="M727.275,425.629a7.431,7.431,0,0,1-.879,3.573,8.855,8.855,0,0,1-2.4,2.824,11.684,11.684,0,0,1-3.564,1.857,14.5,14.5,0,0,1-8.7,0,11.656,11.656,0,0,1-3.563-1.857,8.861,8.861,0,0,1-2.406-2.824,7.43,7.43,0,0,1-.877-3.573,8.09,8.09,0,0,1,1.166-4.191,9.063,9.063,0,0,1,1.367-1.727,8.352,8.352,0,0,1,1.8-1.347,6.808,6.808,0,0,1-1.107-1.237,8.9,8.9,0,0,1-.838-1.477,7.92,7.92,0,0,1-.53-1.607,7.81,7.81,0,0,1-.179-1.647,6.832,6.832,0,0,1,.748-3.144,8.353,8.353,0,0,1,2.047-2.574,9.81,9.81,0,0,1,3.033-1.746,11.043,11.043,0,0,1,7.4,0,9.965,9.965,0,0,1,3.045,1.746,8.276,8.276,0,0,1,2.055,2.574,6.809,6.809,0,0,1,.75,3.144,7.456,7.456,0,0,1-.19,1.647,9.4,9.4,0,0,1-.529,1.617,8.286,8.286,0,0,1-.828,1.486,7.418,7.418,0,0,1-1.108,1.258,8.854,8.854,0,0,1,1.776,1.337,8.424,8.424,0,0,1,1.357,1.717,8.292,8.292,0,0,1,.858,2A7.9,7.9,0,0,1,727.275,425.629Zm-5.689-.159a3.813,3.813,0,0,0-.43-1.786,4.586,4.586,0,0,0-1.177-1.448,5.785,5.785,0,0,0-1.756-.978,6.379,6.379,0,0,0-2.145-.36,6.3,6.3,0,0,0-2.137.36,5.791,5.791,0,0,0-1.746.978,4.585,4.585,0,0,0-1.177,1.448,3.8,3.8,0,0,0-.43,1.786,3.635,3.635,0,0,0,.43,1.757A4.282,4.282,0,0,0,712.2,428.6a5.782,5.782,0,0,0,1.746.908,6.794,6.794,0,0,0,2.137.329,6.881,6.881,0,0,0,2.145-.329,5.779,5.779,0,0,0,1.756-.908,4.283,4.283,0,0,0,1.177-1.377A3.647,3.647,0,0,0,721.586,425.47Zm-1.557-12.454a2.863,2.863,0,0,0-.308-1.309,3.526,3.526,0,0,0-.84-1.067,3.883,3.883,0,0,0-1.246-.718,4.617,4.617,0,0,0-3.055,0,3.914,3.914,0,0,0-1.248.718,3.535,3.535,0,0,0-.838,1.067,2.863,2.863,0,0,0-.308,1.309,2.8,2.8,0,0,0,.308,1.3,3.336,3.336,0,0,0,.838,1.037,4.155,4.155,0,0,0,1.248.7,4.617,4.617,0,0,0,3.055,0,4.12,4.12,0,0,0,1.246-.7,3.329,3.329,0,0,0,.84-1.037A2.8,2.8,0,0,0,720.029,413.016Z" fill="#fff"/>
        <path id="Path_2840" data-name="Path 2840" d="M750.746,425.23a8.253,8.253,0,0,1-.678,3.333,8.715,8.715,0,0,1-4.57,4.572,8.265,8.265,0,0,1-3.334.678H730.707v-5.729h11.457a2.821,2.821,0,0,0,1.117-.219,2.789,2.789,0,0,0,.908-.609,2.871,2.871,0,0,0,0-4.051,2.789,2.789,0,0,0-.908-.609,2.822,2.822,0,0,0-1.117-.22h-7.8v-5.729h7.8a2.828,2.828,0,0,0,2.025-.828,2.789,2.789,0,0,0,.61-.918,2.915,2.915,0,0,0,.219-1.128,2.823,2.823,0,0,0-.829-2.025,2.789,2.789,0,0,0-.908-.609,2.821,2.821,0,0,0-1.117-.219H730.707v-5.729h11.457a8.265,8.265,0,0,1,3.334.678,8.717,8.717,0,0,1,4.57,4.571,8.263,8.263,0,0,1,.678,3.333,8.363,8.363,0,0,1-.578,3.065,8.687,8.687,0,0,1-1.637,2.664,8.686,8.686,0,0,1,1.637,2.664A8.361,8.361,0,0,1,750.746,425.23Z" fill="#fff"/>
        <path id="Path_2841" data-name="Path 2841" d="M774.738,425.23a8.237,8.237,0,0,1-.679,3.333,8.721,8.721,0,0,1-4.571,4.572,8.248,8.248,0,0,1-3.332.678H754.7v-5.729h11.457a2.827,2.827,0,0,0,2.635-1.736,2.961,2.961,0,0,0,0-2.235,2.834,2.834,0,0,0-2.635-1.737h-7.8v-5.729h7.8a2.832,2.832,0,0,0,2.026-.828,2.785,2.785,0,0,0,.609-.918,2.934,2.934,0,0,0,.219-1.128,2.828,2.828,0,0,0-.828-2.025,2.832,2.832,0,0,0-2.026-.828H754.7v-5.729h11.457a8.248,8.248,0,0,1,3.332.678,8.724,8.724,0,0,1,4.571,4.571,8.248,8.248,0,0,1,.679,3.333,8.4,8.4,0,0,1-.578,3.065,8.667,8.667,0,0,1-1.637,2.664,8.666,8.666,0,0,1,1.637,2.664A8.4,8.4,0,0,1,774.738,425.23Z" fill="#fff"/>
    </g>
    <g id="Group_776" data-name="Group 776" transform="translate(-343.559 -262.088)">
        <path id="Path_2842" data-name="Path 2842" d="M712.244,461.773a8.33,8.33,0,0,1-.678,3.344A8.674,8.674,0,0,1,707,469.7a8.249,8.249,0,0,1-3.334.679h-2.875a2.826,2.826,0,0,0-2.853,2.854v2.854h13.533v5.729H692.205V473.23a8.317,8.317,0,0,1,.68-3.343,8.725,8.725,0,0,1,1.845-2.735,8.623,8.623,0,0,1,2.725-1.836,8.365,8.365,0,0,1,3.332-.669h2.875a2.832,2.832,0,0,0,2.026-.828,2.8,2.8,0,0,0,.609-.918,2.915,2.915,0,0,0,.219-1.128,2.829,2.829,0,0,0-2.854-2.853H693.443v-5.729h10.219a8.265,8.265,0,0,1,3.334.678,8.717,8.717,0,0,1,4.57,4.571A8.263,8.263,0,0,1,712.244,461.773Z" fill="#fff"/>
        <path id="Path_2843" data-name="Path 2843" d="M735.578,461.773a8.3,8.3,0,0,1-.68,3.344,8.675,8.675,0,0,1-4.57,4.58,8.235,8.235,0,0,1-3.334.679h-2.873a2.821,2.821,0,0,0-1.117.22,2.779,2.779,0,0,0-.908.609,2.817,2.817,0,0,0-.828,2.025v2.854H734.8v5.729h-19.26V473.23a8.315,8.315,0,0,1,.678-3.343,8.779,8.779,0,0,1,1.846-2.735,8.652,8.652,0,0,1,2.724-1.836,8.374,8.374,0,0,1,3.334-.669h2.873a2.828,2.828,0,0,0,2.027-.828,2.783,2.783,0,0,0,.608-.918,2.916,2.916,0,0,0,.221-1.128,2.845,2.845,0,0,0-.829-2.025,2.828,2.828,0,0,0-2.027-.828H716.775v-5.729h10.219a8.251,8.251,0,0,1,3.334.678,8.718,8.718,0,0,1,4.57,4.571A8.232,8.232,0,0,1,735.578,461.773Z" fill="#fff"/>
        <path id="Path_2844" data-name="Path 2844" d="M760.867,471.314a11.62,11.62,0,0,1-.828,4.372,11.434,11.434,0,0,1-2.285,3.6,10.725,10.725,0,0,1-3.463,2.444,10.487,10.487,0,0,1-4.342.9,10.911,10.911,0,0,1-4.4-.9,11.448,11.448,0,0,1-6.027-6.046,10.916,10.916,0,0,1-.889-4.372,26.7,26.7,0,0,1,.539-5.378,24.271,24.271,0,0,1,1.578-4.971,21.527,21.527,0,0,1,2.535-4.32,18.452,18.452,0,0,1,3.393-3.454H754.4a23.518,23.518,0,0,0-2.336,1.737,25.709,25.709,0,0,0-2.166,2.054,23.6,23.6,0,0,0-1.906,2.317,19.828,19.828,0,0,0-1.556,2.535,10.047,10.047,0,0,1,1.867-.988,5.415,5.415,0,0,1,2.064-.41,11.265,11.265,0,0,1,4.362.808,9.419,9.419,0,0,1,3.3,2.256,10.081,10.081,0,0,1,2.1,3.443A12.51,12.51,0,0,1,760.867,471.314Zm-5.728,0a6.2,6.2,0,0,0-.369-2.146,5.513,5.513,0,0,0-1.049-1.775,4.833,4.833,0,0,0-1.637-1.208,5.414,5.414,0,0,0-4.271,0,4.757,4.757,0,0,0-1.627,1.208,5.463,5.463,0,0,0-1.028,1.775,6.388,6.388,0,0,0-.359,2.146,6.073,6.073,0,0,0,.369,2.106,5.638,5.638,0,0,0,1.049,1.787,5.028,5.028,0,0,0,1.627,1.236,4.751,4.751,0,0,0,2.1.459,5.06,5.06,0,0,0,2.135-.438,4.82,4.82,0,0,0,1.637-1.208,5.513,5.513,0,0,0,1.049-1.786A6.282,6.282,0,0,0,755.139,471.314Z" fill="#fff"/>
        <path id="Path_2845" data-name="Path 2845" d="M785.9,463.709a26.278,26.278,0,0,1-.548,5.38,24.757,24.757,0,0,1-1.586,4.96,21.793,21.793,0,0,1-2.535,4.31,18.462,18.462,0,0,1-3.4,3.454h-7.725a22.121,22.121,0,0,0,2.356-1.737,25.121,25.121,0,0,0,2.166-2.055,23.466,23.466,0,0,0,1.906-2.316,20.242,20.242,0,0,0,1.557-2.515,10.938,10.938,0,0,1-1.875.988,5.377,5.377,0,0,1-2.057.41,11.25,11.25,0,0,1-4.371-.809,9.515,9.515,0,0,1-3.3-2.256,9.823,9.823,0,0,1-2.1-3.443,12.624,12.624,0,0,1-.729-4.371,11.666,11.666,0,0,1,.828-4.381,11.36,11.36,0,0,1,2.285-3.612,10.715,10.715,0,0,1,3.454-2.445,10.42,10.42,0,0,1,4.33-.9,10.959,10.959,0,0,1,4.421.9,11.415,11.415,0,0,1,6.028,6.057A10.977,10.977,0,0,1,785.9,463.709Zm-6.126,0a5.987,5.987,0,0,0-.381-2.115,5.654,5.654,0,0,0-1.067-1.8,5.122,5.122,0,0,0-1.646-1.236,4.828,4.828,0,0,0-2.117-.459,4.889,4.889,0,0,0-2.125.448,5.071,5.071,0,0,0-1.627,1.208,5.216,5.216,0,0,0-1.037,1.776,6.454,6.454,0,0,0-.36,2.175,6.3,6.3,0,0,0,.36,2.146,5.228,5.228,0,0,0,1.037,1.766,4.928,4.928,0,0,0,1.627,1.2,4.989,4.989,0,0,0,2.125.439,5.134,5.134,0,0,0,2.146-.439,4.9,4.9,0,0,0,1.647-1.2,5.424,5.424,0,0,0,1.048-1.766A6.185,6.185,0,0,0,779.77,463.709Z" fill="#fff"/>
    </g>
    <g id="Group_777" data-name="Group 777" transform="translate(-343.559 -262.088)">
        <path id="Path_2846" data-name="Path 2846" d="M712.244,509.773a8.33,8.33,0,0,1-.678,3.344A8.675,8.675,0,0,1,707,517.7a8.249,8.249,0,0,1-3.334.679h-2.875a2.826,2.826,0,0,0-2.853,2.854v2.854h13.533v5.729H692.205V521.23a8.316,8.316,0,0,1,.68-3.343,8.726,8.726,0,0,1,1.845-2.735,8.625,8.625,0,0,1,2.725-1.836,8.365,8.365,0,0,1,3.332-.669h2.875a2.832,2.832,0,0,0,2.026-.828,2.8,2.8,0,0,0,.609-.918,2.915,2.915,0,0,0,.219-1.128,2.829,2.829,0,0,0-2.854-2.853H693.443v-5.729h10.219a8.265,8.265,0,0,1,3.334.678,8.717,8.717,0,0,1,4.57,4.571A8.263,8.263,0,0,1,712.244,509.773Z" fill="#fff"/>
        <path id="Path_2847" data-name="Path 2847" d="M737.854,524.084H735v5.729H729.27v-5.729H714.959l3.193-22.893h5.729l-2.494,17.185h7.883V504.064H735v14.312h2.856Z" fill="#fff"/>
        <path id="Path_2848" data-name="Path 2848" d="M760.588,501.191l-9.781,28.622H744.68l8.043-22.893H740.547v-5.729Z" fill="#fff"/>
        <path id="Path_2849" data-name="Path 2849" d="M781.924,501.191l-9.779,28.622h-6.129l8.045-22.893H761.885v-5.729Z" fill="#fff"/>
    </g>
</svg>
