<svg xmlns="http://www.w3.org/2000/svg" width="1014.133" height="723.678" viewBox="0 0 1014.133 723.678">
    <rect id="Rectangle_1046" width="165.469" height="48.013" transform="translate(337.723 38.141)" fill="#ff8d00" stroke="#fff" stroke-miterlimit="10" stroke-width="2"/>
    <rect id="Rectangle_1047" data-name="Rectangle 1047" width="560.569" height="48.013" transform="translate(337.723 86.154)" fill="#ff8d00" stroke="#fff" stroke-miterlimit="10" stroke-width="2"/>
    <rect id="Rectangle_1048" data-name="Rectangle 1048" width="594.338" height="48.013" transform="translate(337.723 134.166)" fill="#ff8d00" stroke="#fff" stroke-miterlimit="10" stroke-width="2"/>
    <rect id="Rectangle_1049" data-name="Rectangle 1049" width="509.915" height="48.013" transform="translate(337.723 182.179)" fill="#ff8d00" stroke="#fff" stroke-miterlimit="10" stroke-width="2"/>
    <rect id="Rectangle_1050" data-name="Rectangle 1050" width="567.323" height="48.013" transform="translate(337.723 230.192)" fill="#ff8d00" stroke="#fff" stroke-miterlimit="10" stroke-width="2"/>
    <g id="Group_229" data-name="Group 229" transform="translate(-442.172 -242.862)">
        <path id="Path_962" data-name="Path 962" d="M1376.931,347.1a24.531,24.531,0,0,1-.537,5.138,23.058,23.058,0,0,1-1.553,4.738,20.749,20.749,0,0,1-2.48,4.118,17.966,17.966,0,0,1-3.321,3.3h-7.558a22.146,22.146,0,0,0,2.3-1.658,24.684,24.684,0,0,0,2.119-1.964,22.54,22.54,0,0,0,1.865-2.212,19.889,19.889,0,0,0,1.523-2.4,10.809,10.809,0,0,1-1.836.944,5.355,5.355,0,0,1-2.011.39,11.244,11.244,0,0,1-4.278-.772,9.192,9.192,0,0,1-5.283-5.443,11.836,11.836,0,0,1-.713-4.175,10.987,10.987,0,0,1,3.047-7.636,10.482,10.482,0,0,1,7.617-3.193,10.955,10.955,0,0,1,4.326.858,11.245,11.245,0,0,1,3.526,2.335,11.033,11.033,0,0,1,2.373,3.451A10.275,10.275,0,0,1,1376.931,347.1Zm-6,0a5.627,5.627,0,0,0-.371-2.021,5.4,5.4,0,0,0-1.045-1.715,5.009,5.009,0,0,0-1.611-1.183,4.835,4.835,0,0,0-2.071-.439,4.913,4.913,0,0,0-2.08.429,4.908,4.908,0,0,0-2.607,2.851,6.05,6.05,0,0,0-.352,2.078,5.92,5.92,0,0,0,.352,2.05,5.009,5.009,0,0,0,1.015,1.686,4.837,4.837,0,0,0,1.592,1.145,5,5,0,0,0,2.08.419,5.141,5.141,0,0,0,2.1-.419,4.782,4.782,0,0,0,1.611-1.145,5.151,5.151,0,0,0,1.026-1.686A5.81,5.81,0,0,0,1370.935,347.1Z" fill="#ff8d00"/>
        <path id="Path_963" data-name="Path 963" d="M1386.208,362.443a10.593,10.593,0,0,1-.166,1.8,10.083,10.083,0,0,1-.527,1.907,8.843,8.843,0,0,1-.937,1.792,5.741,5.741,0,0,1-1.4,1.439l-2.129-1.449a5.429,5.429,0,0,0,.82-1.154,6.1,6.1,0,0,0,.43-1.1,3.655,3.655,0,0,1-1.094-.4,3.3,3.3,0,0,1-.879-.715,3.367,3.367,0,0,1-.585-.972,3.171,3.171,0,0,1,.048-2.412,3.241,3.241,0,0,1,.723-1.03,3.559,3.559,0,0,1,1.055-.7,3.2,3.2,0,0,1,1.279-.257,3.388,3.388,0,0,1,1.318.257,3.492,3.492,0,0,1,1.075.7,3.1,3.1,0,0,1,.712,1.03A3.157,3.157,0,0,1,1386.208,362.443Z" fill="#ff8d00"/>
        <path id="Path_964" data-name="Path 964" d="M1407.947,337.048l-9.571,27.339h-6l7.871-21.867h-11.914v-5.472Z" fill="#ff8d00"/>
    </g>
    <g id="Group_230" data-name="Group 230" transform="translate(-442.172 -242.862)">
        <path id="Path_965" data-name="Path 965" d="M1394.02,411.839h-5.606V389.971h-2.793V384.5h8.4Z" fill="#ff8d00"/>
        <path id="Path_966" data-name="Path 966" d="M1420.856,398.168a21.369,21.369,0,0,1-.879,6.578,11.706,11.706,0,0,1-2.4,4.346,8.85,8.85,0,0,1-3.565,2.393,12.788,12.788,0,0,1-4.365.734,12.505,12.505,0,0,1-4.365-.754,8.906,8.906,0,0,1-3.555-2.419,11.9,11.9,0,0,1-2.393-4.348,24.831,24.831,0,0,1,0-13.1,11.8,11.8,0,0,1,2.393-4.338,8.865,8.865,0,0,1,3.555-2.4,12.641,12.641,0,0,1,4.365-.744,12.514,12.514,0,0,1,4.365.753,8.973,8.973,0,0,1,3.565,2.431,11.927,11.927,0,0,1,2.4,4.348A21.022,21.022,0,0,1,1420.856,398.168Zm-5.332,0q0-4.555-1.553-6.767a4.988,4.988,0,0,0-4.326-2.212,4.911,4.911,0,0,0-4.277,2.192q-1.524,2.193-1.524,6.787,0,4.557,1.524,6.769a4.9,4.9,0,0,0,4.277,2.21,5.49,5.49,0,0,0,2.48-.543,4.8,4.8,0,0,0,1.846-1.649,8.375,8.375,0,0,0,1.152-2.793A17.469,17.469,0,0,0,1415.524,398.168Z" fill="#ff8d00"/>
        <path id="Path_967" data-name="Path 967" d="M1431.09,409.893a10.6,10.6,0,0,1-.166,1.8,10.094,10.094,0,0,1-.527,1.906,8.714,8.714,0,0,1-.938,1.791,5.69,5.69,0,0,1-1.4,1.44l-2.129-1.45a5.447,5.447,0,0,0,.82-1.152,6.219,6.219,0,0,0,.43-1.1,3.726,3.726,0,0,1-1.094-.4,3.259,3.259,0,0,1-.879-.717,3.374,3.374,0,0,1-.586-.971,3.122,3.122,0,0,1-.214-1.154,3.052,3.052,0,0,1,.263-1.258,3.237,3.237,0,0,1,.723-1.029,3.542,3.542,0,0,1,1.055-.7,3.214,3.214,0,0,1,1.279-.256,3.406,3.406,0,0,1,1.318.256,3.474,3.474,0,0,1,1.074.7,3.1,3.1,0,0,1,.713,1.029A3.161,3.161,0,0,1,1431.09,409.893Z" fill="#ff8d00"/>
        <path id="Path_968" data-name="Path 968" d="M1456.305,401.81a10.927,10.927,0,0,1-3.047,7.616,10.52,10.52,0,0,1-7.637,3.194,10.887,10.887,0,0,1-4.306-.858,11.25,11.25,0,0,1-3.526-2.336,11.032,11.032,0,0,1-2.373-3.441,10.208,10.208,0,0,1-.869-4.175,24.866,24.866,0,0,1,.528-5.138,22.821,22.821,0,0,1,1.543-4.747,20.458,20.458,0,0,1,2.48-4.128,17.961,17.961,0,0,1,3.32-3.3h7.559a22.916,22.916,0,0,0-2.285,1.658,24.679,24.679,0,0,0-2.119,1.964,22.687,22.687,0,0,0-1.866,2.212,18.911,18.911,0,0,0-1.523,2.421,9.987,9.987,0,0,1,1.826-.943,5.431,5.431,0,0,1,2.022-.392,11.258,11.258,0,0,1,4.267.773,9.22,9.22,0,0,1,3.233,2.154,9.61,9.61,0,0,1,2.05,3.289A11.678,11.678,0,0,1,1456.305,401.81Zm-5.605,0a5.806,5.806,0,0,0-.362-2.05,5.258,5.258,0,0,0-1.025-1.7,4.746,4.746,0,0,0-1.6-1.154,5.408,5.408,0,0,0-4.179,0,4.64,4.64,0,0,0-1.592,1.154,5.179,5.179,0,0,0-1.006,1.7,5.938,5.938,0,0,0-.352,2.05,5.671,5.671,0,0,0,.362,2.011,5.383,5.383,0,0,0,1.025,1.706,4.941,4.941,0,0,0,1.592,1.183,4.75,4.75,0,0,0,2.06.437,5.07,5.07,0,0,0,2.09-.418,4.732,4.732,0,0,0,1.6-1.154,5.241,5.241,0,0,0,1.025-1.706A5.884,5.884,0,0,0,1450.7,401.81Z" fill="#ff8d00"/>
    </g>
    <g id="Group_231" data-name="Group 231" transform="translate(-442.172 -242.862)">
        <path id="Path_969" data-name="Path 969" d="M1325.922,451.481a6.972,6.972,0,0,1-.859,3.412,8.509,8.509,0,0,1-2.354,2.7,11.54,11.54,0,0,1-3.486,1.772,14.507,14.507,0,0,1-8.516,0,11.542,11.542,0,0,1-3.486-1.772,8.505,8.505,0,0,1-2.353-2.7,6.95,6.95,0,0,1-.86-3.412,7.583,7.583,0,0,1,1.143-4,8.55,8.55,0,0,1,1.338-1.648,8.1,8.1,0,0,1,1.757-1.287,6.652,6.652,0,0,1-1.084-1.182,8.534,8.534,0,0,1-.82-1.412,7.624,7.624,0,0,1-.517-1.533,7.206,7.206,0,0,1-.176-1.575,6.385,6.385,0,0,1,.732-3,8.03,8.03,0,0,1,2-2.459,9.694,9.694,0,0,1,2.969-1.668,11.03,11.03,0,0,1,7.246,0,9.832,9.832,0,0,1,2.979,1.668,7.962,7.962,0,0,1,2.011,2.459,6.374,6.374,0,0,1,.733,3,6.923,6.923,0,0,1-.186,1.575,8.943,8.943,0,0,1-.517,1.543,7.992,7.992,0,0,1-.811,1.422,7.336,7.336,0,0,1-1.084,1.2,8.517,8.517,0,0,1,1.738,1.277,7.979,7.979,0,0,1,1.328,1.639,7.783,7.783,0,0,1,.84,1.906A7.407,7.407,0,0,1,1325.922,451.481Zm-5.566-.152a3.6,3.6,0,0,0-.42-1.707,4.415,4.415,0,0,0-1.152-1.381,5.73,5.73,0,0,0-1.719-.936,6.368,6.368,0,0,0-2.1-.341,6.284,6.284,0,0,0-2.09.341,5.749,5.749,0,0,0-1.709.936,4.411,4.411,0,0,0-1.152,1.381,3.591,3.591,0,0,0-.42,1.707,3.416,3.416,0,0,0,.42,1.677,4.158,4.158,0,0,0,1.152,1.317,5.8,5.8,0,0,0,1.709.867,6.805,6.805,0,0,0,2.09.315,6.9,6.9,0,0,0,2.1-.315,5.783,5.783,0,0,0,1.719-.867,4.161,4.161,0,0,0,1.152-1.317A3.428,3.428,0,0,0,1320.356,451.329Zm-1.524-11.9a2.67,2.67,0,0,0-.3-1.248,3.379,3.379,0,0,0-.821-1.021,3.888,3.888,0,0,0-1.22-.686,4.417,4.417,0,0,0-1.485-.248,4.473,4.473,0,0,0-1.5.248,3.877,3.877,0,0,0-1.22.686,3.394,3.394,0,0,0-.821,1.021,2.656,2.656,0,0,0-.3,1.248,2.6,2.6,0,0,0,.3,1.239,3.2,3.2,0,0,0,.821.992,4.09,4.09,0,0,0,1.22.668,4.523,4.523,0,0,0,1.5.248,4.467,4.467,0,0,0,1.485-.248,4.1,4.1,0,0,0,1.22-.668,3.188,3.188,0,0,0,.821-.992A2.613,2.613,0,0,0,1318.832,439.432Z" fill="#ff8d00"/>
        <path id="Path_970" data-name="Path 970" d="M1335.922,457.354a10.594,10.594,0,0,1-.166,1.8,10.073,10.073,0,0,1-.527,1.906,8.78,8.78,0,0,1-.938,1.793,5.725,5.725,0,0,1-1.4,1.44l-2.129-1.45a5.4,5.4,0,0,0,.82-1.154,6.028,6.028,0,0,0,.43-1.1,3.616,3.616,0,0,1-1.094-.4,3.293,3.293,0,0,1-.879-.715,3.357,3.357,0,0,1-.586-.973,3.1,3.1,0,0,1-.214-1.152,3.06,3.06,0,0,1,.263-1.26,3.259,3.259,0,0,1,.723-1.029,3.574,3.574,0,0,1,1.055-.7,3.181,3.181,0,0,1,1.279-.258,3.371,3.371,0,0,1,1.318.258,3.5,3.5,0,0,1,1.074.7,3.122,3.122,0,0,1,.713,1.029A3.169,3.169,0,0,1,1335.922,457.354Z" fill="#ff8d00"/>
        <path id="Path_971" data-name="Path 971" d="M1359.418,442.006a24.442,24.442,0,0,1-.537,5.137,23.018,23.018,0,0,1-1.553,4.738,20.678,20.678,0,0,1-2.48,4.12,17.949,17.949,0,0,1-3.32,3.3h-7.559a21.9,21.9,0,0,0,2.305-1.658,24.2,24.2,0,0,0,2.119-1.963,22.538,22.538,0,0,0,1.865-2.212,20.045,20.045,0,0,0,1.524-2.4,10.894,10.894,0,0,1-1.836.945,5.385,5.385,0,0,1-2.012.391,11.234,11.234,0,0,1-4.277-.773,9.194,9.194,0,0,1-5.284-5.444,11.823,11.823,0,0,1-.712-4.174,10.979,10.979,0,0,1,3.046-7.636,10.5,10.5,0,0,1,7.618-3.194,10.96,10.96,0,0,1,4.326.86,11.216,11.216,0,0,1,3.525,2.334,11.046,11.046,0,0,1,2.373,3.451A10.276,10.276,0,0,1,1359.418,442.006Zm-6,0a5.63,5.63,0,0,0-.371-2.021,5.388,5.388,0,0,0-1.045-1.715,5.022,5.022,0,0,0-1.611-1.183,4.848,4.848,0,0,0-2.07-.438,4.909,4.909,0,0,0-2.08.428,4.913,4.913,0,0,0-2.608,2.851,6.073,6.073,0,0,0-.351,2.078,5.924,5.924,0,0,0,.351,2.049,5,5,0,0,0,1.016,1.688,4.827,4.827,0,0,0,1.592,1.144,4.983,4.983,0,0,0,2.08.418,5.122,5.122,0,0,0,2.1-.418,4.807,4.807,0,0,0,1.612-1.144,5.149,5.149,0,0,0,1.025-1.688A5.792,5.792,0,0,0,1353.422,442.006Z" fill="#ff8d00"/>
    </g>
    <g id="Group_232" data-name="Group 232" transform="translate(-442.172 -242.862)">
        <path id="Path_972" data-name="Path 972" d="M1381.513,487.839a24.5,24.5,0,0,1-.537,5.136,23.039,23.039,0,0,1-1.553,4.739,20.791,20.791,0,0,1-2.48,4.119,17.961,17.961,0,0,1-3.321,3.3h-7.558a22.149,22.149,0,0,0,2.305-1.659,24.215,24.215,0,0,0,2.119-1.963,22.537,22.537,0,0,0,1.865-2.212,19.9,19.9,0,0,0,1.523-2.4,10.891,10.891,0,0,1-1.836.946,5.394,5.394,0,0,1-2.011.39,11.243,11.243,0,0,1-4.278-.773,9.2,9.2,0,0,1-5.283-5.444,11.824,11.824,0,0,1-.713-4.173,10.987,10.987,0,0,1,3.047-7.637,10.5,10.5,0,0,1,7.617-3.194,10.957,10.957,0,0,1,4.326.86,11.209,11.209,0,0,1,3.526,2.334,11.06,11.06,0,0,1,2.373,3.451A10.279,10.279,0,0,1,1381.513,487.839Zm-6,0a5.631,5.631,0,0,0-.371-2.022,5.386,5.386,0,0,0-1.045-1.715,5.022,5.022,0,0,0-1.611-1.183,4.849,4.849,0,0,0-2.071-.438,4.912,4.912,0,0,0-2.08.428,4.907,4.907,0,0,0-2.607,2.851,6.049,6.049,0,0,0-.352,2.079,5.9,5.9,0,0,0,.352,2.048,5.008,5.008,0,0,0,1.015,1.688,4.848,4.848,0,0,0,1.592,1.144,4.986,4.986,0,0,0,2.08.418,5.124,5.124,0,0,0,2.1-.418,4.794,4.794,0,0,0,1.611-1.144,5.152,5.152,0,0,0,1.026-1.688A5.791,5.791,0,0,0,1375.517,487.839Z" fill="#ff8d00"/>
        <path id="Path_973" data-name="Path 973" d="M1390.79,503.186a10.594,10.594,0,0,1-.166,1.8,10.053,10.053,0,0,1-.527,1.906,8.837,8.837,0,0,1-.937,1.793,5.744,5.744,0,0,1-1.4,1.44l-2.129-1.45a5.4,5.4,0,0,0,.82-1.154,6.029,6.029,0,0,0,.43-1.1,3.626,3.626,0,0,1-1.094-.4,3.3,3.3,0,0,1-1.464-1.687,3.172,3.172,0,0,1,.048-2.413,3.259,3.259,0,0,1,.723-1.029,3.574,3.574,0,0,1,1.055-.7,3.181,3.181,0,0,1,1.279-.258,3.371,3.371,0,0,1,1.318.258,3.509,3.509,0,0,1,1.075.7,3.136,3.136,0,0,1,.713,1.029A3.187,3.187,0,0,1,1390.79,503.186Z" fill="#ff8d00"/>
        <path id="Path_974" data-name="Path 974" d="M1414.287,487.839a24.44,24.44,0,0,1-.538,5.136,23.1,23.1,0,0,1-1.552,4.739,20.743,20.743,0,0,1-2.481,4.119,17.956,17.956,0,0,1-3.32,3.3h-7.559a22.044,22.044,0,0,0,2.3-1.659,24.2,24.2,0,0,0,2.119-1.963,22.537,22.537,0,0,0,1.865-2.212,19.909,19.909,0,0,0,1.524-2.4,10.93,10.93,0,0,1-1.836.946,5.4,5.4,0,0,1-2.012.39,11.234,11.234,0,0,1-4.277-.773,9.189,9.189,0,0,1-5.283-5.444,11.8,11.8,0,0,1-.713-4.173,10.974,10.974,0,0,1,3.047-7.637,10.494,10.494,0,0,1,7.617-3.194,10.96,10.96,0,0,1,4.326.86,11.2,11.2,0,0,1,3.525,2.334,11.056,11.056,0,0,1,2.373,3.451A10.28,10.28,0,0,1,1414.287,487.839Zm-6,0a5.629,5.629,0,0,0-.371-2.022,5.368,5.368,0,0,0-1.045-1.715,5.022,5.022,0,0,0-1.611-1.183,4.844,4.844,0,0,0-2.07-.438,4.908,4.908,0,0,0-2.08.428,4.913,4.913,0,0,0-2.608,2.851,6.074,6.074,0,0,0-.351,2.079,5.923,5.923,0,0,0,.351,2.048,5.011,5.011,0,0,0,1.016,1.688,4.838,4.838,0,0,0,1.592,1.144,4.982,4.982,0,0,0,2.08.418,5.119,5.119,0,0,0,2.1-.418,4.809,4.809,0,0,0,1.612-1.144,5.149,5.149,0,0,0,1.025-1.688A5.791,5.791,0,0,0,1408.29,487.839Z" fill="#ff8d00"/>
    </g>
    <path id="Path_975" data-name="Path 975" d="M773.018,520.946c.167,0,.325,0,.492.01V473.779c-.167-.01-.325-.01-.492-.01A95.814,95.814,0,0,0,677.2,569.1h47.413A48.4,48.4,0,0,1,773.018,520.946Z" transform="translate(-442.172 -242.862)" fill="#ccc"/>
    <path id="Path_976" data-name="Path 976" d="M773.018,473.769c.167,0,.325,0,.492.01V425.61h-.492A143.989,143.989,0,0,0,629.031,569.1H677.2A95.814,95.814,0,0,1,773.018,473.769Z" transform="translate(-442.172 -242.862)" fill="#ccc"/>
    <path id="Path_977" data-name="Path 977" d="M773.018,425.61h.492V377.941h-.492a192.02,192.02,0,0,0-160.184,85.97c-.56.855-1.121,1.71-1.671,2.566s-1.091,1.72-1.632,2.594-1.071,1.74-1.592,2.614c-.54.9-1.071,1.819-1.592,2.733s-1.052,1.848-1.563,2.771a191.089,191.089,0,0,0-23.9,91.916h48.15A143.989,143.989,0,0,1,773.018,425.61Z" transform="translate(-442.172 -242.862)" fill="#ccc"/>
    <path id="Path_978" data-name="Path 978" d="M773.018,376.959h.492V329.782h-.492C640.845,329.782,533.7,436.932,533.7,569.1h47.177C580.872,462.988,666.9,376.959,773.018,376.959Z" transform="translate(-442.172 -242.862)" fill="#ccc"/>
    <path id="Path_979" data-name="Path 979" d="M773.018,329.782h.492v-48.16h-.492q-3.729,0-7.45.1c-1.238.029-2.476.068-3.705.118-1.081.039-2.152.078-3.224.137-.7.03-1.386.069-2.083.118q-1.032.045-2.064.118c-1.229.069-2.448.157-3.666.255-1.15.079-2.3.168-3.45.276a5.351,5.351,0,0,0-.59.059q-5,.442-9.956,1.071c-.826.1-1.651.206-2.477.314q-2.786.369-5.553.806c-1.071.158-2.133.325-3.194.5a287.286,287.286,0,0,0-114.915,46.086q-1.783,1.223-3.558,2.476c-1.3.9-2.585,1.838-3.862,2.772-1.465,1.061-2.929,2.152-4.374,3.253-1.3.983-2.575,1.976-3.853,2.988A287.842,287.842,0,0,0,484.562,569.1H533.7C533.7,436.932,640.845,329.782,773.018,329.782Z" transform="translate(-442.172 -242.862)" fill="#ccc"/>
    <g id="Group_233" data-name="Group 233" transform="translate(-442.172 -242.862)">
        <path id="Path_980" data-name="Path 980" d="M603.349,399.928A238.316,238.316,0,0,1,773.018,329.7h.492v-.983h-.492A240.735,240.735,0,0,0,532.142,569.1h.983A238.319,238.319,0,0,1,603.349,399.928Z" fill="#fff"/>
    </g>
    <g id="Group_234" data-name="Group 234" transform="translate(-442.172 -242.862)">
        <path id="Path_981" data-name="Path 981" d="M580.881,569.1h.315a190.982,190.982,0,0,1,23.588-91.916c.511-.923,1.032-1.857,1.563-2.771s1.052-1.828,1.592-2.733c.521-.874,1.052-1.749,1.592-2.614s1.072-1.739,1.632-2.594c.54-.865,1.1-1.72,1.671-2.566a192.1,192.1,0,0,1,160.184-86.137h.492v-.982h-.492A192.714,192.714,0,0,0,580.213,569.1h.659v.492C580.872,569.43,580.872,569.272,580.881,569.1Z" fill="#fff"/>
    </g>
    <g id="Group_235" data-name="Group 235" transform="translate(-442.172 -242.862)">
        <path id="Path_982" data-name="Path 982" d="M671.353,467.931a142.806,142.806,0,0,1,101.665-42.076h.492v-.983h-.492A144.631,144.631,0,0,0,628.294,569.1h.983A142.81,142.81,0,0,1,671.353,467.931Z" fill="#fff"/>
    </g>
    <g id="Group_236" data-name="Group 236" transform="translate(-442.172 -242.862)">
        <path id="Path_983" data-name="Path 983" d="M773.018,473.936c.167,0,.325,0,.492.01v-.983c-.167-.01-.325-.01-.492-.01A96.741,96.741,0,0,0,676.385,569.1h.983A95.755,95.755,0,0,1,773.018,473.936Z" fill="#fff"/>
    </g>
    <g id="Group_237" data-name="Group 237" transform="translate(-442.172 -242.862)">
        <path id="Path_984" data-name="Path 984" d="M569.343,365.921a293.18,293.18,0,0,1,25.7-22.851c1.278-1.012,2.556-2.005,3.853-2.988,1.445-1.1,2.909-2.192,4.374-3.253,1.277-.934,2.565-1.867,3.862-2.772q1.77-1.253,3.558-2.476a284.277,284.277,0,0,1,114.915-46.086c1.061-.187,2.123-.354,3.194-.5q2.772-.441,5.553-.806c.826-.108,1.651-.215,2.477-.314q4.953-.634,9.956-1.071a5.351,5.351,0,0,1,.59-.059c1.15-.108,2.3-.2,3.45-.276,1.218-.1,2.437-.186,3.666-.255q1.032-.074,2.064-.118c.7-.049,1.385-.088,2.083-.118,1.072-.059,2.143-.1,3.224-.137,1.229-.05,2.467-.089,3.705-.118q3.715-.1,7.45-.1h.492v-.982h-.492A288.787,288.787,0,0,0,484.061,569.1h.983A286.117,286.117,0,0,1,569.343,365.921Z" fill="#fff"/>
    </g>
    <g id="Group_239" data-name="Group 239" transform="translate(-442.172 -242.862)">
        <g id="Group_238" data-name="Group 238">
            <path id="Path_985" data-name="Path 985" d="M443.355,534.932c10.167,5.184,20.315,10.056,30.721,14.74-.13,2.943-.177,4.418-.233,7.379-10.7,4.026-21.115,8.267-31.586,12.85-.084-3.762-.1-5.637-.074-9.376,8.459-3.22,12.71-4.719,21.241-7.495-8.339-3.33-12.486-5.1-20.727-8.839C442.908,540.474,443.04,538.622,443.355,534.932Z" fill="#ccc"/>
            <path id="Path_986" data-name="Path 986" d="M475.969,526.963c-.354,2.881-.514,4.327-.8,7.229q-15.732-1.554-31.464-3.108c.314-3.217.491-4.821.884-8.016Z" fill="#ccc"/>
            <path id="Path_987" data-name="Path 987" d="M481.469,496.129a240.842,240.842,0,0,0-4.6,24.175q-15.641-2.309-31.28-4.619a266.866,266.866,0,0,1,5.1-26.808l6.16,1.452c-1.724,7.336-2.48,11.046-3.769,18.533l6.235,1.08c.855-4.966,1.333-7.433,2.384-12.332l6.186,1.332c-1.029,4.8-1.5,7.215-2.334,12.08l6.215,1.076c1.211-7.038,1.922-10.525,3.542-17.42Z" fill="#ccc"/>
            <path id="Path_988" data-name="Path 988" d="M484.488,484.391c-.766,2.74-1.133,4.116-1.833,6.881L452,483.492c1.554-6.133,2.4-9.171,4.248-15.187a17.708,17.708,0,0,1,1.676-3.832,16.75,16.75,0,0,1,2.373-3.139A14.99,14.99,0,0,1,463.189,459a12.815,12.815,0,0,1,3.224-1.438,11.379,11.379,0,0,1,3.364-.442,10.345,10.345,0,0,1,3.336.627,10.705,10.705,0,0,1,2.825,1.528,12.3,12.3,0,0,1,2.3,2.274,13.192,13.192,0,0,1,1.7,2.887,15.042,15.042,0,0,1,1,3.349c3.649-.477,5.472-.692,9.112-1.076-.993,2.834-1.472,4.259-2.393,7.124-2.8.4-4.208.607-7.017,1.058-.942,3.1-1.393,4.661-2.251,7.8Zm-24.356-6.822,12.188,3.414c.8-2.858,1.217-4.28,2.084-7.111a8.379,8.379,0,0,0,.378-2.88,7.859,7.859,0,0,0-.571-2.654,6.557,6.557,0,0,0-1.419-2.148,5.413,5.413,0,0,0-2.147-1.334,5.285,5.285,0,0,0-2.52-.212,6.31,6.31,0,0,0-2.428.922,7.824,7.824,0,0,0-2.034,1.9,8.543,8.543,0,0,0-1.36,2.694C461.4,473.11,460.965,474.591,460.132,477.569Z" fill="#ccc"/>
            <path id="Path_989" data-name="Path 989" d="M489.609,427.083a13.738,13.738,0,0,1,3.48,2.441,15.229,15.229,0,0,1,2.587,3.294,17.669,17.669,0,0,1,1.679,3.9,18.565,18.565,0,0,1,.737,4.293,20.052,20.052,0,0,1-.268,4.5,20.442,20.442,0,0,1-1.331,4.508c-1.644,3.9-2.432,5.867-3.937,9.835l-29.572-11.2c1.668-4.4,2.541-6.581,4.365-10.9a21.737,21.737,0,0,1,2.561-4.52,20.416,20.416,0,0,1,3.356-3.568,17.866,17.866,0,0,1,3.89-2.476,16.206,16.206,0,0,1,4.168-1.3,13.921,13.921,0,0,1,4.224-.055A13.226,13.226,0,0,1,489.609,427.083Zm-3.2,6.658a7.979,7.979,0,0,0-3.707-.758,9.331,9.331,0,0,0-3.74.942,11.457,11.457,0,0,0-3.338,2.48,12.545,12.545,0,0,0-2.447,3.793c-.591,1.4-.883,2.106-1.458,3.517l17.566,7.148c.541-1.326.815-1.988,1.371-3.306a12.287,12.287,0,0,0,.978-4.144,11.511,11.511,0,0,0-.452-3.97,9.811,9.811,0,0,0-1.781-3.372A8.3,8.3,0,0,0,486.413,433.741Z" fill="#ccc"/>
            <path id="Path_990" data-name="Path 990" d="M517.677,409.175c-5.052,8.1-7.419,12.258-11.8,20.776L477.749,415.5c4.864-9.443,7.488-14.058,13.09-23.036l5.371,3.345c-3.888,6.232-5.746,9.409-9.273,15.873l5.557,3.027c2.339-4.287,3.551-6.406,6.053-10.589l5.433,3.243c-2.451,4.1-3.637,6.174-5.929,10.373l5.538,3.017c3.316-6.076,5.061-9.062,8.716-14.92Z" fill="#ccc"/>
            <path id="Path_991" data-name="Path 991" d="M532.234,387.986c-1.673,2.219-2.5,3.339-4.118,5.6l-25.7-18.411c1.8-2.506,2.711-3.748,4.566-6.209l12.627,9.51c-1.768-8.157-2.522-12.314-3.749-20.757,2.228-2.7,3.36-4.031,5.66-6.667.826,7.169,1.34,10.709,2.561,17.687,8.617.969,12.875,1.59,21.266,3.092-2.074,2.377-3.095,3.58-5.1,6.013-5.886-.906-8.857-1.294-14.848-1.94.67,3.336,1.028,4.991,1.787,8.276Z" fill="#ccc"/>
            <path id="Path_992" data-name="Path 992" d="M565.862,338.36a8.529,8.529,0,0,1,1.828,3.315,9.8,9.8,0,0,1,.337,3.756,11.025,11.025,0,0,1-1.091,3.746,11.91,11.91,0,0,1-5.553,5.44,10.559,10.559,0,0,1-3.559.972,10.606,10.606,0,0,1-.991,3.566,11.833,11.833,0,0,1-2.147,3.105,11.539,11.539,0,0,1-3.317,2.439,11.011,11.011,0,0,1-3.747,1.077,9.8,9.8,0,0,1-3.753-.35,8.522,8.522,0,0,1-3.307-1.839L523.7,348.575c2.048-2.3,3.086-3.437,5.187-5.687l16.5,15.41a2.914,2.914,0,0,0,1.1.652,3.117,3.117,0,0,0,1.258.141,3.609,3.609,0,0,0,1.261-.356,4.114,4.114,0,0,0,1.912-2,3.608,3.608,0,0,0,.3-1.276,3.147,3.147,0,0,0-.2-1.249,2.913,2.913,0,0,0-.7-1.068l-16.127-15.8c2.155-2.2,3.246-3.288,5.452-5.436l15.745,16.179a2.9,2.9,0,0,0,1.065.7,3.126,3.126,0,0,0,1.248.2,3.628,3.628,0,0,0,1.277-.3,4.122,4.122,0,0,0,2.005-1.907,3.618,3.618,0,0,0,.361-1.261,3.269,3.269,0,0,0-.13-1.266,2.81,2.81,0,0,0-.637-1.109L545.221,326.6c2.25-2.089,3.387-3.12,5.686-5.155Z" fill="#ccc"/>
            <path id="Path_993" data-name="Path 993" d="M598.262,324.341c-2.287,1.6-3.421,2.407-5.668,4.056-1.5-2.042-2.243-3.063-3.74-5.105-4.59,3.369-6.844,5.108-11.262,8.687l3.979,4.92c-2.154,1.745-3.22,2.63-5.331,4.424l-12.273-14.452a10.564,10.564,0,0,1-2.29-4.519,12.5,12.5,0,0,1-.1-5.162,15.006,15.006,0,0,1,2.055-5.168,17.648,17.648,0,0,1,9.489-7.318,15.191,15.191,0,0,1,5.535-.686,12.424,12.424,0,0,1,4.98,1.4,10.544,10.544,0,0,1,3.786,3.365C591.761,315,593.928,318.116,598.262,324.341ZM585.128,318.2l-3.74-5.1a5.338,5.338,0,0,0-1.925-1.635,6.3,6.3,0,0,0-2.492-.666,7.633,7.633,0,0,0-2.736.359,8.7,8.7,0,0,0-4.647,3.585,7.612,7.612,0,0,0-1.043,2.555,6.332,6.332,0,0,0,.01,2.58,5.356,5.356,0,0,0,1.091,2.279l3.979,4.919C578.138,323.421,580.439,321.646,585.128,318.2Z" fill="#ccc"/>
            <path id="Path_994" data-name="Path 994" d="M609.116,317.125c-2.362,1.495-3.533,2.256-5.855,3.8l-17.524-26.318c5.151-3.435,7.771-5.094,13.095-8.286a17.32,17.32,0,0,1,3.766-1.7,16.44,16.44,0,0,1,3.828-.725,14.923,14.923,0,0,1,3.685.209,12.834,12.834,0,0,1,3.341,1.1,11.461,11.461,0,0,1,2.786,1.928,10.374,10.374,0,0,1,2.055,2.7,10.781,10.781,0,0,1,1.079,3.025,12.335,12.335,0,0,1,.2,3.228,13.134,13.134,0,0,1-.655,3.276,14.963,14.963,0,0,1-1.476,3.149c3.016,2.1,4.507,3.158,7.458,5.313-2.616,1.433-3.913,2.165-6.485,3.661-2.335-1.591-3.512-2.377-5.886-3.93-2.739,1.653-4.1,2.5-6.786,4.22ZM595.61,295.743l6.759,10.7c2.464-1.56,3.707-2.325,6.212-3.827a8.213,8.213,0,0,0,2.178-1.869,7.8,7.8,0,0,0,1.329-2.342,6.548,6.548,0,0,0,.37-2.538,5.449,5.449,0,0,0-.707-2.426,5.32,5.32,0,0,0-1.724-1.848,6.286,6.286,0,0,0-2.4-.947,7.687,7.687,0,0,0-2.76.037,8.36,8.36,0,0,0-2.78,1.073C599.472,293.32,598.177,294.118,595.61,295.743Z" fill="#ccc"/>
            <path id="Path_995" data-name="Path 995" d="M644.045,298.241c-2.56,1.164-3.831,1.761-6.357,2.985-4.407-9.107-6.611-13.66-11.018-22.766-4.138,2.005-6.186,3.044-10.236,5.193l-2.962-5.592a291.487,291.487,0,0,1,28.263-13.271l2.407,5.852c-4.266,1.755-6.379,2.67-10.562,4.573Z" fill="#ccc"/>
            <path id="Path_996" data-name="Path 996" d="M682.788,283.869c-2.753.8-4.122,1.219-6.846,2.087l-1.924-6.029c-5.564,1.772-8.317,2.725-13.755,4.758.887,2.371,1.33,3.557,2.217,5.927-2.653.992-3.972,1.5-6.592,2.557-2.83-7.038-4.244-10.557-7.074-17.6a10.425,10.425,0,0,1-.72-5.02,12.528,12.528,0,0,1,1.6-4.948,15.365,15.365,0,0,1,3.684-4.284,18.41,18.41,0,0,1,11.592-4.01,15.735,15.735,0,0,1,5.587,1.079,12.512,12.512,0,0,1,4.364,2.887,10.336,10.336,0,0,1,2.549,4.389C679.6,272.948,680.66,276.588,682.788,283.869Zm-10.687-9.95-1.924-6.029a5.228,5.228,0,0,0-1.32-2.159,6.339,6.339,0,0,0-2.19-1.412,7.885,7.885,0,0,0-2.764-.514,9.093,9.093,0,0,0-5.679,1.965,7.785,7.785,0,0,0-1.847,2.108,6.336,6.336,0,0,0-.841,2.461,5.271,5.271,0,0,0,.3,2.512l2.218,5.927C663.607,276.7,666.418,275.729,672.1,273.919Z" fill="#ccc"/>
            <path id="Path_997" data-name="Path 997" d="M716.679,276.169c-2.883.475-4.318.731-7.176,1.276-.477-2.486-.715-3.729-1.192-6.214-5.839,1.114-8.733,1.742-14.463,3.135.6,2.459.9,3.689,1.5,6.148-2.794.679-4.184,1.035-6.95,1.781l-4.952-18.305a10.276,10.276,0,0,1-.109-5.072,12.518,12.518,0,0,1,2.224-4.735,15.615,15.615,0,0,1,4.238-3.833,18.976,18.976,0,0,1,12.184-2.642,16.124,16.124,0,0,1,5.51,1.721,12.608,12.608,0,0,1,4.048,3.378,10.191,10.191,0,0,1,2.031,4.658C714.815,264.946,715.436,268.687,716.679,276.169Zm-9.557-11.131c-.477-2.486-.716-3.729-1.193-6.214a5.159,5.159,0,0,0-1.064-2.3,6.382,6.382,0,0,0-2.036-1.658,8.05,8.05,0,0,0-2.727-.831,9.392,9.392,0,0,0-5.968,1.294,7.96,7.96,0,0,0-2.125,1.883,6.337,6.337,0,0,0-1.152,2.349,5.2,5.2,0,0,0-.006,2.531c.6,2.459.9,3.688,1.5,6.147C698.2,266.817,701.159,266.175,707.122,265.038Z" fill="#ccc"/>
            <path id="Path_998" data-name="Path 998" d="M748.7,272.686a244.9,244.9,0,0,0-25.75,2.518q-2.25-15.646-4.5-31.293c3.22-.459,4.836-.669,8.083-1.049,1.186,10.045,1.777,15.068,2.962,25.113,7.473-.875,11.248-1.2,18.862-1.607Z" fill="#ccc"/>
        </g>
    </g>
    <g id="Group_241" data-name="Group 241" transform="translate(-442.172 -242.862)" opacity="0.5">
        <g id="Group_240" data-name="Group 240">
            <path id="Path_999" data-name="Path 999" d="M567.737,393.649a7.9,7.9,0,0,1,1.755,2.645,9.034,9.034,0,0,1,.665,3.084,9.479,9.479,0,0,1-.421,3.149,8.562,8.562,0,0,1-1.509,2.854c-.667.837-1,1.258-1.657,2.1a2.864,2.864,0,0,0-.495.965,3.126,3.126,0,0,0,.121,2.1,2.813,2.813,0,0,0,.6.886c.739.739,1.109,1.108,1.848,1.848,3.054-4.015,4.633-5.98,7.889-9.823l3.708,3.708c-4.634,5.469-6.852,8.294-11.075,14.109l-5.557-5.557a8.289,8.289,0,0,1-1.791-2.675,9.782,9.782,0,0,1-.75-3.156,9.576,9.576,0,0,1,.335-3.222,8.329,8.329,0,0,1,1.459-2.9c.658-.844.99-1.265,1.656-2.1a2.88,2.88,0,0,0,.508-.953,3.073,3.073,0,0,0,.137-1.052,2.941,2.941,0,0,0-.238-1.035,2.775,2.775,0,0,0-.6-.889,2.438,2.438,0,0,0-.853-.565,2.221,2.221,0,0,0-.945-.147,2.264,2.264,0,0,0-.925.264,2.519,2.519,0,0,0-.792.669c-2.371,2.977-3.529,4.491-5.784,7.564l-3.708-3.708c2.255-3.073,3.412-4.587,5.784-7.564a7.155,7.155,0,0,1,2.388-1.975,7.065,7.065,0,0,1,8.247,1.368Z" fill="#fff"/>
            <path id="Path_1000" data-name="Path 1000" d="M588.1,379.7a20.507,20.507,0,0,1,3.855,5.036,11.127,11.127,0,0,1,1.311,4.539,8.574,8.574,0,0,1-.776,4.013,12.8,12.8,0,0,1-2.393,3.472,12.163,12.163,0,0,1-3.349,2.514,8.081,8.081,0,0,1-3.914.859,10.665,10.665,0,0,1-4.457-1.246,19.911,19.911,0,0,1-4.977-3.8,21.113,21.113,0,0,1-3.9-5.08,12.111,12.111,0,0,1-1.43-4.639,8.8,8.8,0,0,1,.646-4.127,11.567,11.567,0,0,1,2.335-3.529,11.192,11.192,0,0,1,3.4-2.464,8.351,8.351,0,0,1,4.046-.744,11.581,11.581,0,0,1,4.58,1.353A20.466,20.466,0,0,1,588.1,379.7Zm-3.621,3.544q-3.088-3.088-5.627-3.541a4.606,4.606,0,0,0-4.364,1.449,4.77,4.77,0,0,0-1.3,4.45q.5,2.55,3.622,5.666,3.088,3.088,5.565,3.521a4.531,4.531,0,0,0,4.281-1.465,5.349,5.349,0,0,0,1.268-2.065,4.68,4.68,0,0,0,.11-2.369,8.106,8.106,0,0,0-1.121-2.67A16.916,16.916,0,0,0,584.477,383.248Z" fill="#fff"/>
            <path id="Path_1001" data-name="Path 1001" d="M600.817,361.621a7.075,7.075,0,0,1,1.671,2.559,6.928,6.928,0,0,1,.434,2.851,7.311,7.311,0,0,1-.764,2.806,7.673,7.673,0,0,1-1.932,2.437c-.814.7-1.219,1.045-2.024,1.748a2.564,2.564,0,0,0-.64.828,2.419,2.419,0,0,0-.238.954,2.38,2.38,0,0,0,.164.964,2.465,2.465,0,0,0,.572.859l1.847,1.848c3.756-3.353,5.679-4.982,9.609-8.137l3.708,3.708c-5.594,4.491-8.306,6.84-13.543,11.728l-5.556-5.555a7.38,7.38,0,0,1-1.7-2.594,7.529,7.529,0,0,1-.507-2.933,7.382,7.382,0,0,1,2.579-5.378c.8-.7,1.21-1.053,2.024-1.748a2.583,2.583,0,0,0,.649-.814,2.375,2.375,0,0,0,.252-.94,2.253,2.253,0,0,0-.16-.958,2.5,2.5,0,0,0-.572-.862,2.73,2.73,0,0,0-.881-.592,2.946,2.946,0,0,0-2.063-.073,2.785,2.785,0,0,0-.934.531c-2.892,2.469-4.314,3.733-7.105,6.313L582,367.462c2.791-2.58,4.212-3.843,7.105-6.312a7.944,7.944,0,0,1,2.81-1.56,9.174,9.174,0,0,1,6.255.268A7.975,7.975,0,0,1,600.817,361.621Z" fill="#fff"/>
            <path id="Path_1002" data-name="Path 1002" d="M622.444,368c-1.728,1.256-2.585,1.893-4.284,3.186l-14.82-14.821c-.847.644-1.269.969-2.108,1.622l-3.708-3.708c2.523-1.964,3.8-2.926,6.392-4.808C611.328,356.883,615.034,360.589,622.444,368Z" fill="#fff"/>
        </g>
    </g>
    <g id="Group_243" data-name="Group 243" transform="translate(-442.172 -242.862)" opacity="0.5">
        <g id="Group_242" data-name="Group 242">
            <path id="Path_1003" data-name="Path 1003" d="M601.64,429.718a9.139,9.139,0,0,1,1.821,2.577,9.27,9.27,0,0,1,.843,2.9,8.223,8.223,0,0,1-.162,2.868,6.361,6.361,0,0,1-1.2,2.5c-.562.715-.841,1.074-1.4,1.794a2.186,2.186,0,0,0-.4.844,2.718,2.718,0,0,0-.041.966,3.134,3.134,0,0,0,.3.972,3.2,3.2,0,0,0,.619.862l1.848,1.848c2.583-3.418,3.912-5.1,6.64-8.393,1.484,1.483,2.225,2.225,3.708,3.708-3.884,4.69-5.753,7.1-9.34,12.038l-5.556-5.557a9.444,9.444,0,0,1-1.848-2.6,9.864,9.864,0,0,1-.9-2.948,8.284,8.284,0,0,1,.1-2.918,6.289,6.289,0,0,1,1.165-2.532c.556-.72.835-1.079,1.4-1.794a2.158,2.158,0,0,0,.4-.835,2.664,2.664,0,0,0,.052-.957,2.982,2.982,0,0,0-.294-.971,3.206,3.206,0,0,0-.621-.866,2.812,2.812,0,0,0-.832-.587,2.271,2.271,0,0,0-.888-.212,1.916,1.916,0,0,0-.841.168,1.843,1.843,0,0,0-.69.552c-2,2.542-2.975,3.831-4.889,6.442-1.483-1.483-2.224-2.225-3.708-3.708,1.914-2.611,2.892-3.9,4.889-6.442a5.267,5.267,0,0,1,2.079-1.625,5.932,5.932,0,0,1,2.552-.477,7.17,7.17,0,0,1,2.691.637A8.252,8.252,0,0,1,601.64,429.718Z" fill="#fff"/>
            <path id="Path_1004" data-name="Path 1004" d="M619.2,418.162a24.153,24.153,0,0,1,3.959,4.962,12.17,12.17,0,0,1,1.593,4.334,7.564,7.564,0,0,1-.366,3.7,9.382,9.382,0,0,1-1.9,3.076,8.706,8.706,0,0,1-2.872,2.1,6.731,6.731,0,0,1-3.537.514,11.2,11.2,0,0,1-4.207-1.483,23.248,23.248,0,0,1-4.887-3.885,24.684,24.684,0,0,1-3.99-4.992,13.04,13.04,0,0,1-1.678-4.4,7.8,7.8,0,0,1,.268-3.782,8.735,8.735,0,0,1,1.858-3.118,8.234,8.234,0,0,1,2.911-2.069,6.99,6.99,0,0,1,3.634-.431,11.93,11.93,0,0,1,4.3,1.558A23.688,23.688,0,0,1,619.2,418.162Zm-3,3.086q-3.088-3.087-5.45-3.678a3.686,3.686,0,0,0-3.877,1.057,4.023,4.023,0,0,0-.829,4.047,13.763,13.763,0,0,0,3.784,5.52q3.089,3.088,5.4,3.667a3.617,3.617,0,0,0,3.813-1.063,4.045,4.045,0,0,0,.992-1.837,4.429,4.429,0,0,0-.1-2.2,9.14,9.14,0,0,0-1.253-2.568A19.994,19.994,0,0,0,616.2,421.248Z" fill="#fff"/>
            <path id="Path_1005" data-name="Path 1005" d="M629.021,401.787a8.376,8.376,0,0,1,1.759,2.516,7.505,7.505,0,0,1,.674,2.731,6.508,6.508,0,0,1-.414,2.625,5.687,5.687,0,0,1-1.51,2.208c-.669.613-1,.922-1.666,1.542a1.935,1.935,0,0,0-.5.746,2.157,2.157,0,0,0-.127.887,2.556,2.556,0,0,0,.239.918,2.939,2.939,0,0,0,.6.843c.74.739,1.109,1.109,1.848,1.848,3.1-2.948,4.677-4.388,7.9-7.2l3.708,3.708c-4.589,4-6.821,6.069-11.147,10.347-2.222-2.222-3.333-3.334-5.556-5.556a8.663,8.663,0,0,1-1.783-2.54,8.055,8.055,0,0,1-.728-2.789,6.617,6.617,0,0,1,.36-2.683,5.614,5.614,0,0,1,1.481-2.241c.663-.619,1-.928,1.665-1.542a1.926,1.926,0,0,0,.51-.736,2.116,2.116,0,0,0,.137-.877,2.446,2.446,0,0,0-.238-.917,2.965,2.965,0,0,0-.6-.846,3.051,3.051,0,0,0-.853-.607,2.8,2.8,0,0,0-.945-.265,2.392,2.392,0,0,0-.925.087,2.024,2.024,0,0,0-.794.453c-2.379,2.182-3.55,3.293-5.855,5.553l-3.708-3.709c2.3-2.26,3.476-3.371,5.855-5.552a5.821,5.821,0,0,1,2.388-1.33,7.482,7.482,0,0,1,2.8-.234,9,9,0,0,1,5.424,2.609Z" fill="#fff"/>
            <path id="Path_1006" data-name="Path 1006" d="M648.894,392.657a23,23,0,0,1,3.882,4.877,10.1,10.1,0,0,1,1.382,4.1,5.969,5.969,0,0,1-.682,3.355,8.616,8.616,0,0,1-2.294,2.657,9.671,9.671,0,0,1-3.268,1.69,8.519,8.519,0,0,1-3.862.18,13.493,13.493,0,0,1-4.427-1.707,24.5,24.5,0,0,1-4.969-3.967,23.311,23.311,0,0,1-3.908-4.91,10.816,10.816,0,0,1-1.458-4.179,6.178,6.178,0,0,1,.593-3.448,8.017,8.017,0,0,1,2.254-2.7,9.115,9.115,0,0,1,3.3-1.649,8.788,8.788,0,0,1,3.951-.087,14.36,14.36,0,0,1,4.511,1.792A25.193,25.193,0,0,1,648.894,392.657Zm-3.468,2.567a14.234,14.234,0,0,0-5.587-3.828,4.482,4.482,0,0,0-4.265.642,3.322,3.322,0,0,0-1.217,3.641q.53,2.261,3.645,5.376a14.162,14.162,0,0,0,5.542,3.811,4.406,4.406,0,0,0,4.2-.656,3.61,3.61,0,0,0,1.214-1.6,3.464,3.464,0,0,0,.066-2.026,7.881,7.881,0,0,0-1.15-2.457A19.3,19.3,0,0,0,645.426,395.224Z" fill="#fff"/>
        </g>
    </g>
    <g id="Group_245" data-name="Group 245" transform="translate(-442.172 -242.862)" opacity="0.5">
        <g id="Group_244" data-name="Group 244">
            <path id="Path_1007" data-name="Path 1007" d="M636.4,461.8a7.93,7.93,0,0,1,1.741,2.6,8.96,8.96,0,0,1,.685,3.013,9.154,9.154,0,0,1-.374,3.063,8.084,8.084,0,0,1-1.438,2.761c-.641.807-.959,1.212-1.592,2.027a2.718,2.718,0,0,0-.473.933,3.02,3.02,0,0,0-.107,1.035,3.085,3.085,0,0,0,.248,1.014,2.8,2.8,0,0,0,.6.87l1.822,1.822c2.937-3.867,4.453-5.762,7.577-9.47l3.656,3.655c-4.446,5.278-6.577,8-10.643,13.6l-5.478-5.478a8.328,8.328,0,0,1-1.775-2.626,9.608,9.608,0,0,1-.763-3.08,9.233,9.233,0,0,1,.293-3.13,7.839,7.839,0,0,1,1.393-2.8c.631-.815.95-1.22,1.591-2.027a2.726,2.726,0,0,0,.484-.923,2.963,2.963,0,0,0,.121-1.023,2.907,2.907,0,0,0-.243-1.011,2.832,2.832,0,0,0-.595-.873,2.467,2.467,0,0,0-.838-.56,2.17,2.17,0,0,0-1.821.091,2.353,2.353,0,0,0-.764.643c-2.278,2.869-3.391,4.327-5.562,7.286l-3.656-3.656c2.171-2.959,3.284-4.417,5.562-7.286a6.725,6.725,0,0,1,5.034-2.6,6.971,6.971,0,0,1,2.8.471A7.174,7.174,0,0,1,636.4,461.8Z" fill="#fff"/>
            <path id="Path_1008" data-name="Path 1008" d="M656.008,448.381a20.7,20.7,0,0,1,3.819,4.956,11.135,11.135,0,0,1,1.34,4.448,8.292,8.292,0,0,1-.7,3.914,12.043,12.043,0,0,1-2.278,3.369,11.381,11.381,0,0,1-3.222,2.421,7.713,7.713,0,0,1-3.8.8,10.551,10.551,0,0,1-4.352-1.263,20.014,20.014,0,0,1-4.892-3.757,21.309,21.309,0,0,1-3.861-4.995,12.1,12.1,0,0,1-1.45-4.54,8.538,8.538,0,0,1,.574-4.02,10.974,10.974,0,0,1,2.222-3.421,10.559,10.559,0,0,1,3.271-2.376,7.988,7.988,0,0,1,3.918-.691,11.408,11.408,0,0,1,4.469,1.361A20.616,20.616,0,0,1,656.008,448.381Zm-3.464,3.433q-3.045-3.043-5.518-3.509a4.376,4.376,0,0,0-4.22,1.375,4.591,4.591,0,0,0-1.2,4.33q.525,2.493,3.6,5.566,3.045,3.045,5.461,3.492a4.3,4.3,0,0,0,4.142-1.388,5.066,5.066,0,0,0,1.2-2,4.584,4.584,0,0,0,.073-2.314,8.165,8.165,0,0,0-1.127-2.619A17.128,17.128,0,0,0,652.544,451.814Z" fill="#fff"/>
            <path id="Path_1009" data-name="Path 1009" d="M672.889,450.314c-1.533,1.364-2.292,2.053-3.8,3.448L654.481,439.15c-.749.7-1.121,1.045-1.863,1.749l-3.656-3.657c2.23-2.114,3.362-3.153,5.658-5.2Z" fill="#fff"/>
            <path id="Path_1010" data-name="Path 1010" d="M679.824,423.881a22.956,22.956,0,0,1,3.035,3.723,19.642,19.642,0,0,1,2.017,4.009,16.352,16.352,0,0,1,.928,4.112,13.909,13.909,0,0,1-.215,4.051c-2.192,1.7-3.275,2.558-5.416,4.314a17.834,17.834,0,0,0,.53-2.44,20.029,20.029,0,0,0,.205-2.524,18.191,18.191,0,0,0-.136-2.535,15.9,15.9,0,0,0-.5-2.461,8.608,8.608,0,0,1-.7,1.663,4.6,4.6,0,0,1-1.186,1.4,11.071,11.071,0,0,1-3.561,1.947,9.863,9.863,0,0,1-3.714.454,9.98,9.98,0,0,1-3.629-.98,11.989,11.989,0,0,1-3.284-2.365,10.2,10.2,0,0,1-2.234-3.28,9.174,9.174,0,0,1-.745-3.631,8.293,8.293,0,0,1,.819-3.537,8.472,8.472,0,0,1,2.449-3.01,10.176,10.176,0,0,1,3.7-1.864,12.124,12.124,0,0,1,4.14-.39,12.639,12.639,0,0,1,4.056,1.014A10.983,10.983,0,0,1,679.824,423.881Zm-4.411,3.282a5.894,5.894,0,0,0-1.621-1.143,6.052,6.052,0,0,0-1.907-.564,5.443,5.443,0,0,0-1.957.115,4.6,4.6,0,0,0-1.784.88,4.034,4.034,0,0,0-1.2,1.476,3.879,3.879,0,0,0-.362,1.69A4.154,4.154,0,0,0,667,431.34a5.641,5.641,0,0,0,1.14,1.593,6.061,6.061,0,0,0,1.618,1.165,5.451,5.451,0,0,0,1.847.538,5.206,5.206,0,0,0,1.9-.154,4.865,4.865,0,0,0,1.768-.909A4.364,4.364,0,0,0,676.5,432.1a3.685,3.685,0,0,0,.4-1.669,4.131,4.131,0,0,0-.382-1.7A5.269,5.269,0,0,0,675.413,427.163Z" fill="#fff"/>
        </g>
    </g>
    <g id="Group_247" data-name="Group 247" transform="translate(-442.172 -242.862)" opacity="0.5">
        <g id="Group_246" data-name="Group 246">
            <path id="Path_1011" data-name="Path 1011" d="M670.11,496.893a7.78,7.78,0,0,1,1.713,2.567,8.828,8.828,0,0,1,.663,2.987,9.155,9.155,0,0,1-.386,3.042,8.137,8.137,0,0,1-1.439,2.75c-.64.8-.957,1.209-1.588,2.022a2.718,2.718,0,0,0-.473.929,3.02,3.02,0,0,0,.129,2.033,2.734,2.734,0,0,0,.585.86l1.8,1.8c2.93-3.858,4.443-5.749,7.558-9.449,1.442,1.442,2.164,2.163,3.6,3.605-4.434,5.266-6.56,7.982-10.617,13.567l-5.4-5.4a8.149,8.149,0,0,1-1.746-2.6,9.477,9.477,0,0,1-.741-3.053,9.2,9.2,0,0,1,.306-3.108,7.911,7.911,0,0,1,1.394-2.789c.63-.812.948-1.217,1.587-2.022a2.742,2.742,0,0,0,.485-.918,2.958,2.958,0,0,0,.125-1.017,2.86,2.86,0,0,0-.236-1,2.723,2.723,0,0,0-.586-.863,2.4,2.4,0,0,0-.827-.551,2.157,2.157,0,0,0-.913-.148,2.194,2.194,0,0,0-.893.25,2.372,2.372,0,0,0-.76.643c-2.273,2.863-3.383,4.317-5.549,7.269l-3.6-3.605c2.165-2.952,3.276-4.406,5.548-7.27a6.738,6.738,0,0,1,7.777-2.164A6.994,6.994,0,0,1,670.11,496.893Z" fill="#fff"/>
            <path id="Path_1012" data-name="Path 1012" d="M689.623,483.463a20.2,20.2,0,0,1,3.759,4.894,10.955,10.955,0,0,1,1.306,4.4,8.291,8.291,0,0,1-.712,3.887,12.132,12.132,0,0,1-2.277,3.356,11.5,11.5,0,0,1-3.208,2.423,7.706,7.706,0,0,1-3.768.814,10.335,10.335,0,0,1-4.308-1.226,19.518,19.518,0,0,1-4.831-3.7,20.744,20.744,0,0,1-3.8-4.934,11.869,11.869,0,0,1-1.414-4.5,8.5,8.5,0,0,1,.59-3.992,11.058,11.058,0,0,1,2.222-3.409,10.629,10.629,0,0,1,3.256-2.376,7.965,7.965,0,0,1,3.89-.709,11.189,11.189,0,0,1,4.424,1.324A20.108,20.108,0,0,1,689.623,483.463Zm-3.455,3.427q-3-3-5.452-3.449a4.38,4.38,0,0,0-4.193,1.389,4.6,4.6,0,0,0-1.212,4.3q.506,2.472,3.537,5.5,3,3,5.395,3.432a4.311,4.311,0,0,0,4.115-1.4,5.106,5.106,0,0,0,1.205-1.995,4.556,4.556,0,0,0,.084-2.3,8,8,0,0,0-1.1-2.592A16.711,16.711,0,0,0,686.168,486.89Z" fill="#fff"/>
            <path id="Path_1013" data-name="Path 1013" d="M706.355,485.284c-1.528,1.36-2.285,2.049-3.784,3.441l-14.409-14.409c-.747.694-1.119,1.043-1.859,1.745l-3.6-3.606c2.223-2.11,3.352-3.148,5.642-5.187Z" fill="#fff"/>
            <path id="Path_1014" data-name="Path 1014" d="M719.786,465.172a5.96,5.96,0,0,1,1.613,2.713,6.366,6.366,0,0,1,.044,3.057,9.083,9.083,0,0,1-1.376,3.09,12.425,12.425,0,0,1-2.65,2.814,13.79,13.79,0,0,1-3.45,2.019,12.041,12.041,0,0,1-3.619.866,8.964,8.964,0,0,1-3.416-.387,7.093,7.093,0,0,1-4.016-3.287,6.561,6.561,0,0,1-.674-1.768,7.024,7.024,0,0,1-.156-1.878,6.479,6.479,0,0,1,.382-1.881,7.013,7.013,0,0,1-1.539-.143,9,9,0,0,1-1.5-.446,7.791,7.791,0,0,1-1.372-.706,7.019,7.019,0,0,1-1.159-.932,5.749,5.749,0,0,1-1.469-2.412,6.506,6.506,0,0,1-.221-2.8,7.647,7.647,0,0,1,.994-2.824,8.735,8.735,0,0,1,2.172-2.469,9.86,9.86,0,0,1,3.02-1.642,10.368,10.368,0,0,1,3.267-.551,8.994,8.994,0,0,1,3.1.52,6.721,6.721,0,0,1,2.518,1.581,6.219,6.219,0,0,1,.9,1.137,7.334,7.334,0,0,1,.637,1.3,6.144,6.144,0,0,1,.34,1.378,5.4,5.4,0,0,1,0,1.385,9.43,9.43,0,0,1,2.117-.109,9.144,9.144,0,0,1,2.058.359,8.724,8.724,0,0,1,1.876.8A7.54,7.54,0,0,1,719.786,465.172Zm-4.189,2.937a3.743,3.743,0,0,0-1.43-.892,4.956,4.956,0,0,0-1.748-.27,6.066,6.066,0,0,0-3.594,1.306,5.233,5.233,0,0,0-1.266,1.418,4.511,4.511,0,0,0-.6,1.6,3.569,3.569,0,0,0,.1,1.578,3.191,3.191,0,0,0,.829,1.368,3.452,3.452,0,0,0,1.4.861,4.441,4.441,0,0,0,1.681.2,6.048,6.048,0,0,0,1.785-.411,6.594,6.594,0,0,0,1.7-.985,6.021,6.021,0,0,0,1.3-1.393,4.514,4.514,0,0,0,.67-1.534,3.157,3.157,0,0,0-.03-1.507A2.968,2.968,0,0,0,715.6,468.109Zm-8.947-6.993a2.746,2.746,0,0,0-1.043-.654,3.715,3.715,0,0,0-1.265-.214,4.048,4.048,0,0,0-1.332.234,4.173,4.173,0,0,0-1.23.675,3.787,3.787,0,0,0-.911,1.02,3.039,3.039,0,0,0-.417,1.152,2.674,2.674,0,0,0,.09,1.144,2.367,2.367,0,0,0,.608,1,2.656,2.656,0,0,0,1.032.642,3.478,3.478,0,0,0,1.235.181,4.28,4.28,0,0,0,1.309-.26,4.371,4.371,0,0,0,1.238-.693,3.842,3.842,0,0,0,.9-1,3.175,3.175,0,0,0,.441-1.125,2.456,2.456,0,0,0-.061-1.112A2.256,2.256,0,0,0,706.65,461.116Z" fill="#fff"/>
        </g>
    </g>
    <g id="Group_249" data-name="Group 249" transform="translate(-442.172 -242.862)" opacity="0.5">
        <g id="Group_248" data-name="Group 248">
            <path id="Path_1015" data-name="Path 1015" d="M707.389,529.232a7.962,7.962,0,0,1,1.758,2.643,9,9,0,0,1,.672,3.076,9.446,9.446,0,0,1-.409,3.137,8.464,8.464,0,0,1-1.5,2.838c-.662.832-.991,1.25-1.644,2.089a2.834,2.834,0,0,0-.492.96,3.115,3.115,0,0,0,.128,2.1,2.8,2.8,0,0,0,.6.885l1.848,1.848c3.034-3.988,4.6-5.942,7.834-9.761l3.708,3.708c-4.6,5.436-6.8,8.242-11,14.019l-5.556-5.556a8.326,8.326,0,0,1-1.794-2.673,9.737,9.737,0,0,1-.756-3.147,9.487,9.487,0,0,1,.324-3.208,8.219,8.219,0,0,1,1.446-2.88c.653-.839.983-1.257,1.645-2.089a2.849,2.849,0,0,0,.5-.949,3.042,3.042,0,0,0,.133-1.048,2.937,2.937,0,0,0-.239-1.032,2.832,2.832,0,0,0-.6-.888,2.444,2.444,0,0,0-.852-.565,2.226,2.226,0,0,0-.942-.151,2.256,2.256,0,0,0-.922.26,2.479,2.479,0,0,0-.787.665c-2.355,2.958-3.5,4.461-5.745,7.514l-3.709-3.708c2.241-3.053,3.391-4.556,5.746-7.515a7.057,7.057,0,0,1,2.374-1.959,6.981,6.981,0,0,1,2.8-.747,7.062,7.062,0,0,1,2.862.457A7.181,7.181,0,0,1,707.389,529.232Z" fill="#fff"/>
            <path id="Path_1016" data-name="Path 1016" d="M727.625,515.39a20.608,20.608,0,0,1,3.859,5.033,11.166,11.166,0,0,1,1.325,4.531,8.518,8.518,0,0,1-.758,4,12.625,12.625,0,0,1-2.372,3.455,12.011,12.011,0,0,1-3.327,2.5,8.028,8.028,0,0,1-3.9.844,10.666,10.666,0,0,1-4.445-1.257,19.986,19.986,0,0,1-4.973-3.8,21.229,21.229,0,0,1-3.9-5.076,12.192,12.192,0,0,1-1.441-4.629,8.766,8.766,0,0,1,.63-4.112,11.454,11.454,0,0,1,2.313-3.511,11.083,11.083,0,0,1,3.379-2.447,8.3,8.3,0,0,1,4.027-.731,11.6,11.6,0,0,1,4.568,1.362A20.619,20.619,0,0,1,727.625,515.39Zm-3.593,3.524q-3.088-3.087-5.619-3.546a4.561,4.561,0,0,0-4.342,1.432,4.738,4.738,0,0,0-1.276,4.433q.513,2.544,3.629,5.66,3.088,3.089,5.558,3.527a4.489,4.489,0,0,0,4.261-1.448,5.3,5.3,0,0,0,1.256-2.055,4.679,4.679,0,0,0,.1-2.363,8.139,8.139,0,0,0-1.127-2.665A17.012,17.012,0,0,0,724.032,518.914Z" fill="#fff"/>
            <path id="Path_1017" data-name="Path 1017" d="M744.929,517.273c-1.592,1.4-2.379,2.1-3.939,3.532l-14.821-14.82c-.777.713-1.164,1.072-1.934,1.793l-3.708-3.709c2.314-2.168,3.489-3.233,5.873-5.325Z" fill="#fff"/>
            <path id="Path_1018" data-name="Path 1018" d="M743.647,484.963c4.48,9.541,6.74,14.34,11.305,23.988-1.784,1.4-2.667,2.111-4.415,3.553-3.632-7.821-5.433-11.714-9.007-19.464-3.565,2.758-5.314,4.178-8.741,7.1-1.484-1.484-2.226-2.225-3.709-3.709C734.722,491.625,737.639,489.328,743.647,484.963Z" fill="#fff"/>
        </g>
    </g>
    <rect id="Rectangle_1051" data-name="Rectangle 1051" width="350.541" height="47.567" transform="translate(89.181 334.178) rotate(90)" fill="#dfebe1" stroke="#fff" stroke-miterlimit="10" stroke-width="1"/>
    <rect id="Rectangle_1052" data-name="Rectangle 1052" width="389" height="47.567" transform="translate(137.12 334.178) rotate(90)" fill="#dfebe1" stroke="#fff" stroke-miterlimit="10" stroke-width="1"/>
    <rect id="Rectangle_1053" data-name="Rectangle 1053" width="136.613" height="47.567" transform="translate(185.058 334.178) rotate(90)" fill="#dfebe1" stroke="#fff" stroke-miterlimit="10" stroke-width="1"/>
    <rect id="Rectangle_1054" data-name="Rectangle 1054" width="188.693" height="47.567" transform="translate(232.997 334.178) rotate(90)" fill="#dfebe1" stroke="#fff" stroke-miterlimit="10" stroke-width="1"/>
    <rect id="Rectangle_1055" data-name="Rectangle 1055" width="240.773" height="47.567" transform="translate(280.936 334.178) rotate(90)" fill="#dfebe1" stroke="#fff" stroke-miterlimit="10" stroke-width="1"/>
    <text id="_98.2_km" data-name="98.2 km" transform="translate(273.14 560.375) rotate(-90)" fill="#ccc" font-size="43.263" font-family="Helvetica"><tspan x="0" y="0">98.2 km</tspan></text>
    <text id="_77.5_km" data-name="77.5 km" transform="translate(225.168 509.309) rotate(-90)" fill="#ccc" font-size="43.263" font-family="Helvetica"><tspan x="0" y="0">77.5 km</tspan></text>
    <text id="_55.6" data-name="55.6" transform="translate(175.197 463.127) rotate(-90)" fill="#ccc" font-size="43.263" font-family="Helvetica"><tspan x="0" y="0">55.6</tspan></text>
    <text id="_161.5_km" data-name="161.5 km" transform="translate(128.226 704.969) rotate(-90)" fill="#ccc" font-size="43.263" font-family="Helvetica"><tspan x="0" y="0">161.5 km</tspan></text>
    <text id="_146.3_km" data-name="146.3 km" transform="translate(82.254 673.041) rotate(-90)" fill="#ccc" font-size="43.263" font-family="Helvetica"><tspan x="0" y="0">146.3 km</tspan></text>
    <text id="_2_9" data-name="2,9" transform="translate(508.175 75.994)" fill="#ff8d00" font-size="40" font-family="Helvetica"><tspan x="0" y="0">2,9</tspan></text>
</svg>
