<svg xmlns="http://www.w3.org/2000/svg" width="1455.019" height="754.178" preserveAspectRatio="xMinYMin" viewBox="0 0 1455.019 754.178">
    <g id="Group_755" data-name="Group 755" transform="translate(-343.559 -262.088)">
        <g id="Group_720" data-name="Group 720">
            <path id="Path_2661" data-name="Path 2661" d="M1770.754,872.075a6.157,6.157,0,0,1-.514,2.5,6.545,6.545,0,0,1-1.4,2.048,6.642,6.642,0,0,1-2.066,1.383,6.309,6.309,0,0,1-2.526.508h-2.179a2.166,2.166,0,0,0-.847.164,2.126,2.126,0,0,0-1.15,1.135,2.107,2.107,0,0,0-.167.837v2.138h10.259v4.289h-14.6v-6.427a6.167,6.167,0,0,1,.514-2.5,6.508,6.508,0,0,1,3.465-3.422,6.416,6.416,0,0,1,2.527-.5h2.179a2.163,2.163,0,0,0,1.536-.621,2.1,2.1,0,0,0,.461-.687,2.163,2.163,0,0,0,.167-.845,2.109,2.109,0,0,0-.628-1.516,2.14,2.14,0,0,0-.688-.456,2.171,2.171,0,0,0-.848-.165H1756.5v-4.29h7.747a6.31,6.31,0,0,1,2.526.509,6.639,6.639,0,0,1,2.066,1.382,6.568,6.568,0,0,1,1.4,2.04A6.111,6.111,0,0,1,1770.754,872.075Z" fill="#ff8d00"/>
            <path id="Path_2662" data-name="Path 2662" d="M1778.576,885.556a2.588,2.588,0,0,1-.2,1.008,2.476,2.476,0,0,1-.545.815,2.635,2.635,0,0,1-.817.546,2.638,2.638,0,0,1-2.02,0,2.706,2.706,0,0,1-.832-.546,2.53,2.53,0,0,1-.765-1.823,2.424,2.424,0,0,1,.2-.987,2.52,2.52,0,0,1,.56-.806,2.688,2.688,0,0,1,.832-.546,2.626,2.626,0,0,1,2.02,0,2.617,2.617,0,0,1,.817.546,2.5,2.5,0,0,1,.741,1.793Z" fill="#ff8d00"/>
            <path id="Path_2663" data-name="Path 2663" d="M1796.748,873.524a19.438,19.438,0,0,1-.416,4.029,18.24,18.24,0,0,1-1.2,3.714,16.2,16.2,0,0,1-1.922,3.227,13.968,13.968,0,0,1-2.572,2.586h-5.856a16.841,16.841,0,0,0,1.785-1.3,18.775,18.775,0,0,0,1.642-1.54,17.538,17.538,0,0,0,1.445-1.733,15.524,15.524,0,0,0,1.181-1.883,8.3,8.3,0,0,1-1.423.739,4.1,4.1,0,0,1-1.558.307,8.616,8.616,0,0,1-3.314-.606,7.218,7.218,0,0,1-2.5-1.688,7.4,7.4,0,0,1-1.589-2.578,9.379,9.379,0,0,1-.551-3.274,8.631,8.631,0,0,1,.628-3.28,8.508,8.508,0,0,1,1.732-2.705,8.166,8.166,0,0,1,2.617-1.831,8,8,0,0,1,3.283-.672,8.408,8.408,0,0,1,3.352.672,8.737,8.737,0,0,1,2.731,1.831,8.625,8.625,0,0,1,1.838,2.705A8.129,8.129,0,0,1,1796.748,873.524Zm-4.645,0a4.451,4.451,0,0,0-.288-1.584,4.239,4.239,0,0,0-.809-1.344,3.9,3.9,0,0,0-1.248-.927,3.7,3.7,0,0,0-1.605-.344,3.775,3.775,0,0,0-1.611.336,3.865,3.865,0,0,0-1.233.9,3.939,3.939,0,0,0-.787,1.331,4.816,4.816,0,0,0-.272,1.628,4.717,4.717,0,0,0,.272,1.608,3.947,3.947,0,0,0,.787,1.322,3.73,3.73,0,0,0,1.233.9,3.834,3.834,0,0,0,1.611.329,3.936,3.936,0,0,0,1.627-.329,3.679,3.679,0,0,0,1.248-.9,4.051,4.051,0,0,0,.8-1.322A4.581,4.581,0,0,0,1792.1,873.524Z" fill="#ff8d00"/>
        </g>
        <g id="Group_721" data-name="Group 721">
            <path id="Path_2664" data-name="Path 2664" d="M1714.91,275.075a6.157,6.157,0,0,1-.514,2.5,6.529,6.529,0,0,1-1.4,2.048,6.649,6.649,0,0,1-2.065,1.383,6.314,6.314,0,0,1-2.527.508h-2.178a2.161,2.161,0,0,0-1.537.62,2.115,2.115,0,0,0-.46.679,2.088,2.088,0,0,0-.167.837v2.138h10.258v4.289h-14.6v-6.427a6.184,6.184,0,0,1,.514-2.5,6.508,6.508,0,0,1,3.465-3.422,6.418,6.418,0,0,1,2.528-.5h2.178a2.172,2.172,0,0,0,.848-.165,2.145,2.145,0,0,0,.688-.456,2.086,2.086,0,0,0,.461-.687,2.146,2.146,0,0,0,.167-.845,2.109,2.109,0,0,0-.628-1.516,2.129,2.129,0,0,0-.688-.456,2.173,2.173,0,0,0-.848-.165h-7.747v-4.29h7.747a6.314,6.314,0,0,1,2.527.509,6.646,6.646,0,0,1,2.065,1.382,6.551,6.551,0,0,1,1.4,2.04A6.11,6.11,0,0,1,1714.91,275.075Z" fill="#00ace7"/>
            <path id="Path_2665" data-name="Path 2665" d="M1732.008,268.648l-7.414,21.432h-4.646l6.1-17.142h-9.23v-4.29Z" fill="#00ace7"/>
            <path id="Path_2666" data-name="Path 2666" d="M1737.243,288.556a2.588,2.588,0,0,1-.2,1.008,2.476,2.476,0,0,1-.545.815,2.635,2.635,0,0,1-.817.546,2.638,2.638,0,0,1-2.02,0,2.7,2.7,0,0,1-.832-.546,2.53,2.53,0,0,1-.765-1.823,2.424,2.424,0,0,1,.2-.987,2.522,2.522,0,0,1,.56-.806,2.687,2.687,0,0,1,.832-.546,2.626,2.626,0,0,1,2.02,0,2.617,2.617,0,0,1,.817.546,2.5,2.5,0,0,1,.741,1.793Z" fill="#00ace7"/>
            <path id="Path_2667" data-name="Path 2667" d="M1755.445,283.653a6.122,6.122,0,0,1-.513,2.5,6.561,6.561,0,0,1-1.4,2.04,6.648,6.648,0,0,1-2.065,1.383,6.313,6.313,0,0,1-2.527.508h-8.685v-4.289h8.685a2.172,2.172,0,0,0,1.537-.62,2.136,2.136,0,0,0,.461-.681,2.181,2.181,0,0,0,0-1.674,2.127,2.127,0,0,0-1.15-1.135,2.173,2.173,0,0,0-.848-.164h-5.916v-4.289h5.916a2.167,2.167,0,0,0,1.537-.621,2.119,2.119,0,0,0,.461-.687,2.164,2.164,0,0,0,.167-.845,2.1,2.1,0,0,0-.167-.837,2.127,2.127,0,0,0-1.15-1.135,2.173,2.173,0,0,0-.848-.165h-8.685v-4.29h8.685a6.314,6.314,0,0,1,2.527.509,6.645,6.645,0,0,1,2.065,1.382,6.573,6.573,0,0,1,1.4,2.04,6.126,6.126,0,0,1,.513,2.5,6.213,6.213,0,0,1-.438,2.294,6.468,6.468,0,0,1-1.241,2,6.467,6.467,0,0,1,1.241,1.995A6.217,6.217,0,0,1,1755.445,283.653Z" fill="#00ace7"/>
        </g>
        <rect id="Rectangle_2421" data-name="Rectangle 2421" width="656.361" height="47.442" transform="translate(679.201 301.209)" fill="#00ace7" stroke="#fff" stroke-miterlimit="10" stroke-width="2"/>
        <rect id="Rectangle_2422" data-name="Rectangle 2422" width="651.361" height="47.442" transform="translate(679.201 348.65)" fill="#00ace7" stroke="#fff" stroke-miterlimit="10" stroke-width="2"/>
        <rect id="Rectangle_2423" data-name="Rectangle 2423" width="665.641" height="47.442" transform="translate(1702.694 961.641) rotate(-90)" fill="#00ace7" stroke="#fff" stroke-miterlimit="10" stroke-width="2"/>
        <rect id="Rectangle_2424" data-name="Rectangle 2424" width="69.799" height="47.442" transform="translate(1750.136 961.641) rotate(-90)" fill="#ff8d00" stroke="#fff" stroke-miterlimit="10" stroke-width="2"/>
        <rect id="Rectangle_2425" data-name="Rectangle 2425" width="792.361" height="47.442" transform="translate(679.201 396.092)" fill="#00ace7" stroke="#fff" stroke-miterlimit="10" stroke-width="2"/>
        <rect id="Rectangle_2426" data-name="Rectangle 2426" width="704.361" height="47.442" transform="translate(679.201 443.533)" fill="#00ace7" stroke="#fff" stroke-miterlimit="10" stroke-width="2"/>
        <rect id="Rectangle_2427" data-name="Rectangle 2427" width="604.361" height="47.442" transform="translate(679.201 490.975)" fill="#00ace7" stroke="#fff" stroke-miterlimit="10" stroke-width="2"/>
        <path id="Path_2668" data-name="Path 2668" d="M670.468,537.864c.165,0,.321,0,.486.01V491.258c-.165-.009-.321-.009-.486-.009a94.674,94.674,0,0,0-94.678,94.2h46.849A47.828,47.828,0,0,1,670.468,537.864Z" fill="#ccc"/>
        <path id="Path_2669" data-name="Path 2669" d="M670.468,491.249c.165,0,.321,0,.486.009v-47.6h-.486A142.277,142.277,0,0,0,528.194,585.451h47.6A94.674,94.674,0,0,1,670.468,491.249Z" fill="#ccc"/>
        <path id="Path_2670" data-name="Path 2670" d="M670.468,443.662h.486v-47.1h-.486A189.734,189.734,0,0,0,512.19,481.508c-.554.845-1.107,1.69-1.651,2.535s-1.078,1.7-1.612,2.563-1.059,1.72-1.574,2.584c-.534.893-1.058,1.8-1.573,2.7s-1.039,1.825-1.544,2.738a188.807,188.807,0,0,0-23.619,90.823h47.577A142.277,142.277,0,0,1,670.468,443.662Z" fill="#ccc"/>
        <path id="Path_2671" data-name="Path 2671" d="M670.468,395.59h.486V348.975h-.486c-130.6,0-236.476,105.875-236.476,236.476h46.616C480.608,480.6,565.613,395.59,670.468,395.59Z" fill="#ccc"/>
        <path id="Path_2672" data-name="Path 2672" d="M670.468,348.975h.486V301.388h-.486q-3.686,0-7.361.1c-1.224.029-2.447.068-3.661.117-1.069.039-2.127.078-3.186.136-.689.029-1.369.068-2.059.116q-1.019.043-2.039.117c-1.214.068-2.418.155-3.622.252-1.137.078-2.273.165-3.409.272a5.5,5.5,0,0,0-.583.058q-4.938.438-9.838,1.059c-.815.1-1.631.2-2.447.311q-2.753.364-5.487.8c-1.058.156-2.107.321-3.156.495a283.888,283.888,0,0,0-113.547,45.538q-1.764,1.209-3.516,2.447c-1.282.894-2.554,1.816-3.817,2.739-1.447,1.049-2.894,2.127-4.321,3.214-1.282.971-2.545,1.952-3.807,2.953A284.417,284.417,0,0,0,385.444,585.451h48.548C433.992,454.85,539.868,348.975,670.468,348.975Z" fill="#ccc"/>
        <g id="Group_722" data-name="Group 722">
            <path id="Path_2673" data-name="Path 2673" d="M502.818,418.286A235.479,235.479,0,0,1,670.468,348.9h.486v-.971h-.486a237.872,237.872,0,0,0-238.01,237.525h.971A235.484,235.484,0,0,1,502.818,418.286Z" fill="#fff"/>
        </g>
        <g id="Group_723" data-name="Group 723">
            <path id="Path_2674" data-name="Path 2674" d="M480.617,585.451h.311a188.7,188.7,0,0,1,23.308-90.823c.505-.913,1.02-1.835,1.544-2.738s1.039-1.807,1.573-2.7c.515-.864,1.039-1.729,1.574-2.584s1.058-1.718,1.612-2.563c.534-.855,1.087-1.7,1.651-2.535A189.816,189.816,0,0,1,670.468,396.4h.486v-.971h-.486A190.422,190.422,0,0,0,479.957,585.451h.651v.485C480.608,585.771,480.608,585.616,480.617,585.451Z" fill="#fff"/>
        </g>
        <g id="Group_724" data-name="Group 724">
            <path id="Path_2675" data-name="Path 2675" d="M570.012,485.48A141.11,141.11,0,0,1,670.468,443.9h.486v-.971h-.486a142.91,142.91,0,0,0-143,142.517h.971A141.111,141.111,0,0,1,570.012,485.48Z" fill="#fff"/>
        </g>
        <g id="Group_725" data-name="Group 725">
            <path id="Path_2676" data-name="Path 2676" d="M670.468,491.414c.165,0,.321,0,.486.01v-.972c-.165-.009-.321-.009-.486-.009a95.591,95.591,0,0,0-95.484,95.008h.972A94.616,94.616,0,0,1,670.468,491.414Z" fill="#fff"/>
        </g>
        <g id="Group_726" data-name="Group 726">
            <path id="Path_2677" data-name="Path 2677" d="M469.216,384.684a289.636,289.636,0,0,1,25.4-22.579c1.262-1,2.525-1.982,3.807-2.953,1.427-1.087,2.874-2.165,4.321-3.214,1.263-.923,2.535-1.845,3.817-2.739q1.747-1.238,3.516-2.447A280.9,280.9,0,0,1,623.62,305.214c1.049-.184,2.1-.349,3.156-.495q2.739-.436,5.487-.8c.816-.107,1.632-.214,2.447-.311q4.895-.627,9.838-1.059a5.5,5.5,0,0,1,.583-.058c1.136-.107,2.272-.194,3.409-.272,1.2-.1,2.408-.184,3.622-.252q1.02-.074,2.039-.117c.69-.048,1.37-.087,2.059-.116,1.059-.058,2.117-.1,3.186-.136,1.214-.049,2.437-.088,3.661-.117q3.671-.1,7.361-.1h.486v-.971h-.486A285.354,285.354,0,0,0,384.949,585.451h.971A282.714,282.714,0,0,1,469.216,384.684Z" fill="#fff"/>
        </g>
        <g id="Group_728" data-name="Group 728" opacity="0.7">
            <g id="Group_727" data-name="Group 727">
                <path id="Path_2678" data-name="Path 2678" d="M344.728,550.683c10.045,5.123,20.073,9.936,30.355,14.565-.128,2.908-.174,4.367-.229,7.292-10.57,3.978-20.865,8.168-31.211,12.7-.083-3.717-.1-5.57-.074-9.265,8.36-3.182,12.56-4.663,20.99-7.406-8.24-3.291-12.338-5.037-20.481-8.733C344.286,556.16,344.416,554.329,344.728,550.683Z"/>
                <path id="Path_2679" data-name="Path 2679" d="M376.955,542.808c-.351,2.848-.509,4.276-.788,7.144q-15.546-1.535-31.091-3.071c.311-3.18.486-4.764.874-7.922Z"/>
                <path id="Path_2680" data-name="Path 2680" d="M382.389,512.342a237.731,237.731,0,0,0-4.548,23.889q-15.455-2.283-30.908-4.565a263.79,263.79,0,0,1,5.042-26.49l6.087,1.434c-1.7,7.249-2.45,10.915-3.724,18.314l6.162,1.067c.844-4.907,1.316-7.345,2.354-12.185l6.113,1.316c-1.017,4.742-1.479,7.129-2.306,11.935l6.14,1.064c1.2-6.955,1.9-10.4,3.5-17.214Z"/>
                <path id="Path_2681" data-name="Path 2681" d="M385.372,500.745c-.757,2.706-1.12,4.066-1.812,6.8l-30.286-7.688c1.535-6.059,2.375-9.062,4.2-15.005a17.555,17.555,0,0,1,1.656-3.788,16.457,16.457,0,0,1,2.344-3.1,14.822,14.822,0,0,1,2.855-2.311,12.689,12.689,0,0,1,3.184-1.42,11.211,11.211,0,0,1,3.324-.435,10.234,10.234,0,0,1,3.3.619,10.555,10.555,0,0,1,2.791,1.51,12.187,12.187,0,0,1,2.276,2.246,13.04,13.04,0,0,1,1.68,2.852,14.959,14.959,0,0,1,.991,3.309c3.605-.471,5.406-.684,9-1.063-.981,2.8-1.455,4.208-2.365,7.04-2.771.39-4.158.6-6.933,1.044-.931,3.065-1.376,4.606-2.224,7.7ZM361.3,494l12.043,3.373c.791-2.824,1.2-4.23,2.06-7.026a8.338,8.338,0,0,0,.374-2.847,7.814,7.814,0,0,0-.566-2.623,6.477,6.477,0,0,0-1.4-2.121,5.348,5.348,0,0,0-2.122-1.319,5.224,5.224,0,0,0-2.49-.21,6.223,6.223,0,0,0-2.4.912,7.709,7.709,0,0,0-2.011,1.878,8.473,8.473,0,0,0-1.344,2.663C362.557,489.6,362.128,491.062,361.3,494Z"/>
                <path id="Path_2682" data-name="Path 2682" d="M390.432,444.117a13.6,13.6,0,0,1,3.439,2.411,15.039,15.039,0,0,1,2.556,3.256,17.531,17.531,0,0,1,1.658,3.851,18.3,18.3,0,0,1,.729,4.243,19.757,19.757,0,0,1-.265,4.442,20.223,20.223,0,0,1-1.315,4.454c-1.625,3.852-2.4,5.8-3.889,9.717l-29.221-11.068c1.648-4.348,2.511-6.5,4.312-10.775a21.477,21.477,0,0,1,2.531-4.466,20.18,20.18,0,0,1,3.316-3.525,17.669,17.669,0,0,1,3.844-2.447,16.021,16.021,0,0,1,4.119-1.286,13.688,13.688,0,0,1,4.174-.056A13.083,13.083,0,0,1,390.432,444.117Zm-3.158,6.579a7.868,7.868,0,0,0-3.663-.749,9.229,9.229,0,0,0-3.7.931,11.331,11.331,0,0,0-3.3,2.449,12.386,12.386,0,0,0-2.418,3.748c-.585,1.387-.873,2.082-1.442,3.477l17.358,7.063c.534-1.311.8-1.964,1.354-3.268a12.16,12.16,0,0,0,.967-4.095,11.338,11.338,0,0,0-.448-3.922A9.71,9.71,0,0,0,390.23,453,8.194,8.194,0,0,0,387.274,450.7Z"/>
                <path id="Path_2683" data-name="Path 2683" d="M418.166,426.422c-4.992,8-7.331,12.112-11.665,20.528l-27.788-14.282c4.806-9.331,7.4-13.89,12.934-22.762l5.307,3.306c-3.842,6.158-5.677,9.3-9.163,15.684l5.491,2.991c2.312-4.235,3.509-6.328,5.981-10.462l5.369,3.205c-2.422,4.049-3.594,6.1-5.859,10.249l5.472,2.98c3.277-6,5-8.954,8.613-14.742Z"/>
                <path id="Path_2684" data-name="Path 2684" d="M432.55,405.486c-1.654,2.192-2.467,3.3-4.069,5.532l-25.4-18.193c1.776-2.476,2.678-3.7,4.512-6.134l12.476,9.4c-1.746-8.061-2.491-12.168-3.7-20.511,2.2-2.665,3.32-3.983,5.592-6.587.816,7.083,1.325,10.582,2.531,17.476,8.514.958,12.722,1.572,21.013,3.056-2.049,2.349-3.058,3.537-5.043,5.941-5.816-.9-8.752-1.279-14.672-1.916.662,3.3,1.016,4.931,1.766,8.177Z"/>
                <path id="Path_2685" data-name="Path 2685" d="M465.778,356.451a8.42,8.42,0,0,1,1.806,3.276,9.725,9.725,0,0,1,.333,3.711,10.889,10.889,0,0,1-1.078,3.7,11.4,11.4,0,0,1-2.422,3.271,11.558,11.558,0,0,1-3.064,2.105,10.5,10.5,0,0,1-3.519.96,10.458,10.458,0,0,1-.979,3.524,11.671,11.671,0,0,1-2.122,3.067,11.389,11.389,0,0,1-3.277,2.411,10.889,10.889,0,0,1-3.7,1.064,9.7,9.7,0,0,1-3.709-.345,8.418,8.418,0,0,1-3.268-1.819l-16.661-14.833c2.023-2.272,3.048-3.4,5.124-5.619l16.3,15.227a2.876,2.876,0,0,0,1.085.643,3.073,3.073,0,0,0,1.242.14,3.531,3.531,0,0,0,1.246-.352,4.071,4.071,0,0,0,1.889-1.975,3.546,3.546,0,0,0,.3-1.26,3.091,3.091,0,0,0-.2-1.235,2.9,2.9,0,0,0-.691-1.055l-15.935-15.61c2.129-2.174,3.207-3.249,5.387-5.372,6.222,6.4,9.334,9.592,15.557,15.987a2.893,2.893,0,0,0,1.053.7,3.106,3.106,0,0,0,1.233.2,3.567,3.567,0,0,0,1.262-.293,4.066,4.066,0,0,0,1.981-1.884,3.55,3.55,0,0,0,.357-1.246,3.255,3.255,0,0,0-.127-1.251,2.763,2.763,0,0,0-.631-1.1l-15.171-16.355c2.223-2.064,3.348-3.083,5.62-5.094C456.911,346.424,459.867,349.766,465.778,356.451Z"/>
                <path id="Path_2686" data-name="Path 2686" d="M497.791,342.6c-2.261,1.577-3.381,2.379-5.6,4.008l-3.7-5.044c-4.536,3.329-6.763,5.047-11.128,8.583l3.932,4.861c-2.128,1.724-3.182,2.6-5.268,4.373-4.85-5.713-7.277-8.569-12.127-14.281a10.442,10.442,0,0,1-2.262-4.465,12.359,12.359,0,0,1-.1-5.1,14.857,14.857,0,0,1,2.031-5.108,17.441,17.441,0,0,1,9.376-7.231,14.98,14.98,0,0,1,5.47-.676,12.255,12.255,0,0,1,4.921,1.379,10.415,10.415,0,0,1,3.739,3.325C491.367,333.373,493.508,336.449,497.791,342.6Zm-12.978-6.063c-1.479-2.017-2.217-3.026-3.695-5.044a5.284,5.284,0,0,0-1.9-1.616,6.2,6.2,0,0,0-2.462-.657,7.513,7.513,0,0,0-2.7.354,8.593,8.593,0,0,0-4.592,3.542,7.545,7.545,0,0,0-1.03,2.525,6.252,6.252,0,0,0,.01,2.549,5.3,5.3,0,0,0,1.078,2.252l3.932,4.861C477.906,341.69,480.18,339.936,484.813,336.536Z"/>
                <path id="Path_2687" data-name="Path 2687" d="M508.517,335.469c-2.334,1.477-3.491,2.229-5.786,3.759l-17.315-26.005c5.089-3.395,7.678-5.034,12.938-8.188a17.13,17.13,0,0,1,3.722-1.68,16.215,16.215,0,0,1,3.782-.716,14.672,14.672,0,0,1,3.642.206,12.653,12.653,0,0,1,3.3,1.083,11.254,11.254,0,0,1,2.751,1.9,10.3,10.3,0,0,1,2.032,2.668,10.646,10.646,0,0,1,1.065,2.989,12.26,12.26,0,0,1,.2,3.189,13.055,13.055,0,0,1-.648,3.238,14.853,14.853,0,0,1-1.458,3.111c2.98,2.07,4.454,3.12,7.369,5.25-2.584,1.415-3.866,2.139-6.409,3.618-2.306-1.573-3.469-2.35-5.814-3.884-2.707,1.633-4.049,2.467-6.707,4.17ZM495.17,314.341l6.68,10.573c2.435-1.541,3.663-2.3,6.138-3.782a8.121,8.121,0,0,0,2.152-1.847,7.705,7.705,0,0,0,1.314-2.315,6.484,6.484,0,0,0,.365-2.507,5.391,5.391,0,0,0-.7-2.4,5.265,5.265,0,0,0-1.7-1.825,6.23,6.23,0,0,0-2.376-.936,7.641,7.641,0,0,0-2.727.036,8.269,8.269,0,0,0-2.749,1.061C498.987,311.947,497.708,312.735,495.17,314.341Z"/>
                <path id="Path_2688" data-name="Path 2688" d="M543.03,316.809c-2.529,1.15-3.786,1.74-6.281,2.95l-10.888-22.5c-4.088,1.981-6.111,3.008-10.112,5.131l-2.927-5.526a287.916,287.916,0,0,1,27.926-13.113l2.378,5.784c-4.215,1.733-6.3,2.637-10.437,4.518C536.826,303.157,538.894,307.708,543.03,316.809Z"/>
                <path id="Path_2689" data-name="Path 2689" d="M581.311,302.608c-2.72.793-4.073,1.2-6.764,2.062-.76-2.382-1.141-3.574-1.9-5.957-5.5,1.751-8.218,2.693-13.593,4.7.877,2.343,1.315,3.514,2.191,5.857-2.62.98-3.924,1.485-6.513,2.526-2.8-6.954-4.193-10.432-6.989-17.386a10.274,10.274,0,0,1-.712-4.959,12.357,12.357,0,0,1,1.583-4.89,15.169,15.169,0,0,1,3.638-4.234,18.188,18.188,0,0,1,11.453-3.962,15.526,15.526,0,0,1,5.523,1.067,12.389,12.389,0,0,1,4.311,2.853,10.2,10.2,0,0,1,2.518,4.336Zm-10.56-9.831-1.9-5.958a5.177,5.177,0,0,0-1.3-2.133,6.232,6.232,0,0,0-2.164-1.4,7.781,7.781,0,0,0-2.732-.508,8.977,8.977,0,0,0-5.609,1.941,7.722,7.722,0,0,0-1.828,2.085,6.238,6.238,0,0,0-.831,2.431,5.179,5.179,0,0,0,.3,2.481l2.19,5.857C562.359,295.527,565.136,294.565,570.751,292.777Z"/>
                <path id="Path_2690" data-name="Path 2690" d="M614.8,295c-2.848.47-4.266.722-7.09,1.261l-1.179-6.14c-5.769,1.1-8.628,1.721-14.289,3.1.593,2.429.889,3.644,1.483,6.074-2.761.671-4.135,1.023-6.868,1.76-1.958-7.234-2.936-10.852-4.893-18.087a10.151,10.151,0,0,1-.106-5.011,12.386,12.386,0,0,1,2.2-4.679,15.432,15.432,0,0,1,4.188-3.788,18.754,18.754,0,0,1,12.039-2.611,15.893,15.893,0,0,1,5.444,1.7,12.441,12.441,0,0,1,4,3.338,10.051,10.051,0,0,1,2.005,4.6C612.957,283.911,613.57,287.608,614.8,295Zm-9.443-11c-.472-2.456-.707-3.684-1.179-6.14a5.1,5.1,0,0,0-1.051-2.271,6.256,6.256,0,0,0-2.012-1.638,7.96,7.96,0,0,0-2.694-.822,9.274,9.274,0,0,0-5.9,1.279,7.881,7.881,0,0,0-2.1,1.861,6.261,6.261,0,0,0-1.138,2.32,5.138,5.138,0,0,0-.007,2.5c.594,2.43.89,3.645,1.483,6.074C596.543,285.76,599.463,285.125,605.355,284Z"/>
                <path id="Path_2691" data-name="Path 2691" d="M646.442,291.558A241.784,241.784,0,0,0,621,294.047q-2.223-15.461-4.444-30.922c3.181-.454,4.778-.661,7.986-1.037,1.172,9.926,1.756,14.889,2.927,24.815,7.384-.864,11.114-1.184,18.637-1.588C646.24,287.812,646.308,289.061,646.442,291.558Z"/>
            </g>
        </g>
        <g id="Group_730" data-name="Group 730">
            <g id="Group_729" data-name="Group 729">
                <path id="Path_2692" data-name="Path 2692" d="M467.631,412.081a7.821,7.821,0,0,1,1.735,2.614,8.949,8.949,0,0,1,.655,3.048,9.333,9.333,0,0,1-.416,3.111,8.467,8.467,0,0,1-1.491,2.821c-.659.827-.986,1.242-1.636,2.077a2.833,2.833,0,0,0-.49.953,3.094,3.094,0,0,0,.12,2.079,2.738,2.738,0,0,0,.593.876l1.825,1.826c3.019-3.967,4.578-5.909,7.8-9.706l3.664,3.664c-4.578,5.4-6.77,8.2-10.943,13.941l-5.49-5.49a8.2,8.2,0,0,1-1.77-2.645,9.623,9.623,0,0,1-.74-3.119,9.472,9.472,0,0,1,.33-3.182,8.227,8.227,0,0,1,1.442-2.861c.65-.834.978-1.25,1.636-2.077a2.849,2.849,0,0,0,.5-.945,3.036,3.036,0,0,0,.134-1.039,2.909,2.909,0,0,0-.234-1.021,2.769,2.769,0,0,0-.594-.879,2.424,2.424,0,0,0-.842-.558,2.2,2.2,0,0,0-1.847.115,2.47,2.47,0,0,0-.784.662c-2.343,2.942-3.487,4.437-5.715,7.473l-3.664-3.663c2.229-3.037,3.372-4.532,5.715-7.473a7.064,7.064,0,0,1,2.36-1.952,6.915,6.915,0,0,1,5.614-.307A7.032,7.032,0,0,1,467.631,412.081Z" fill="#fff"/>
                <path id="Path_2693" data-name="Path 2693" d="M487.749,398.3a20.287,20.287,0,0,1,3.81,4.977,10.994,10.994,0,0,1,1.294,4.484,8.451,8.451,0,0,1-.767,3.966,12.6,12.6,0,0,1-2.363,3.43,12.048,12.048,0,0,1-3.31,2.485,8,8,0,0,1-3.867.847,10.505,10.505,0,0,1-4.4-1.231,19.645,19.645,0,0,1-4.918-3.751,20.858,20.858,0,0,1-3.853-5.019,11.969,11.969,0,0,1-1.412-4.584,8.722,8.722,0,0,1,.637-4.078,11.476,11.476,0,0,1,2.307-3.487,11.056,11.056,0,0,1,3.361-2.434,8.264,8.264,0,0,1,4-.736,11.433,11.433,0,0,1,4.526,1.337A20.252,20.252,0,0,1,487.749,398.3Zm-3.578,3.5q-3.049-3.051-5.559-3.5a4.55,4.55,0,0,0-4.312,1.432,4.713,4.713,0,0,0-1.28,4.4q.5,2.518,3.577,5.6,3.051,3.051,5.5,3.478a4.475,4.475,0,0,0,4.23-1.446,5.308,5.308,0,0,0,1.253-2.04,4.642,4.642,0,0,0,.108-2.342,8.012,8.012,0,0,0-1.107-2.637A16.679,16.679,0,0,0,484.171,401.8Z" fill="#fff"/>
                <path id="Path_2694" data-name="Path 2694" d="M500.317,380.435a6.984,6.984,0,0,1,1.651,2.528,6.829,6.829,0,0,1,.428,2.817,7.192,7.192,0,0,1-.754,2.773,7.559,7.559,0,0,1-1.91,2.409c-.8.687-1.2,1.032-2,1.727a2.537,2.537,0,0,0-.632.817,2.358,2.358,0,0,0-.074,1.895,2.46,2.46,0,0,0,.565.85l1.826,1.826c3.71-3.314,5.61-4.923,9.494-8.041l3.663,3.664c-5.527,4.438-8.206,6.759-13.381,11.589L493.7,399.8a7.258,7.258,0,0,1-1.682-2.564,7.408,7.408,0,0,1-.5-2.9,7.3,7.3,0,0,1,2.548-5.312c.8-.7,1.2-1.04,2-1.726a2.566,2.566,0,0,0,.642-.808,2.318,2.318,0,0,0,.248-.927,2.247,2.247,0,0,0-.157-.947,2.485,2.485,0,0,0-.567-.851,2.694,2.694,0,0,0-.87-.585,2.88,2.88,0,0,0-1.01-.221,2.912,2.912,0,0,0-1.027.149,2.725,2.725,0,0,0-.924.525c-2.858,2.44-4.262,3.688-7.02,6.237-1.466-1.465-2.2-2.2-3.664-3.664,2.758-2.549,4.162-3.8,7.02-6.237a7.866,7.866,0,0,1,2.778-1.541,9.025,9.025,0,0,1,3.116-.411,9.127,9.127,0,0,1,3.064.675A7.866,7.866,0,0,1,500.317,380.435Z" fill="#fff"/>
                <path id="Path_2695" data-name="Path 2695" d="M521.687,386.739c-1.708,1.241-2.555,1.871-4.234,3.149-5.857-5.858-8.786-8.787-14.644-14.644-.836.637-1.253.957-2.082,1.6l-3.664-3.664c2.493-1.941,3.757-2.892,6.316-4.751C510.7,375.754,514.365,379.415,521.687,386.739Z" fill="#fff"/>
            </g>
        </g>
        <g id="Group_732" data-name="Group 732">
            <g id="Group_731" data-name="Group 731">
                <path id="Path_2696" data-name="Path 2696" d="M501.13,447.72a8.992,8.992,0,0,1,1.8,2.546,9.189,9.189,0,0,1,.833,2.862,8.125,8.125,0,0,1-.16,2.834,6.32,6.32,0,0,1-1.186,2.474c-.555.706-.831,1.061-1.379,1.772a2.115,2.115,0,0,0-.392.834,2.672,2.672,0,0,0-.042.954,3.111,3.111,0,0,0,.293.96,3.143,3.143,0,0,0,.612.852l1.825,1.826c2.553-3.377,3.866-5.037,6.562-8.292l3.664,3.663c-3.838,4.634-5.685,7.015-9.23,11.894l-5.489-5.49a9.322,9.322,0,0,1-1.826-2.568,9.735,9.735,0,0,1-.893-2.913,8.206,8.206,0,0,1,.1-2.883,6.2,6.2,0,0,1,1.152-2.5c.548-.712.824-1.067,1.379-1.773a2.136,2.136,0,0,0,.4-.827A2.6,2.6,0,0,0,499.2,453a2.982,2.982,0,0,0-.29-.959,3.181,3.181,0,0,0-.615-.855,2.77,2.77,0,0,0-.821-.581,2.254,2.254,0,0,0-.878-.209,1.88,1.88,0,0,0-.83.166,1.822,1.822,0,0,0-.683.545c-1.973,2.512-2.94,3.786-4.83,6.366-1.466-1.466-2.2-2.2-3.664-3.664,1.891-2.58,2.857-3.854,4.831-6.365a5.205,5.205,0,0,1,2.054-1.605,5.84,5.84,0,0,1,2.521-.473,7.127,7.127,0,0,1,2.66.63A8.1,8.1,0,0,1,501.13,447.72Z" fill="#fff"/>
                <path id="Path_2697" data-name="Path 2697" d="M518.483,436.3a23.844,23.844,0,0,1,3.913,4.9,12.041,12.041,0,0,1,1.573,4.282,7.472,7.472,0,0,1-.362,3.657,9.271,9.271,0,0,1-1.879,3.039,8.611,8.611,0,0,1-2.839,2.079,6.652,6.652,0,0,1-3.494.507,11.031,11.031,0,0,1-4.157-1.466,22.908,22.908,0,0,1-4.828-3.838,24.392,24.392,0,0,1-3.943-4.932,12.841,12.841,0,0,1-1.657-4.35,7.714,7.714,0,0,1,.263-3.737,8.654,8.654,0,0,1,1.837-3.081,8.124,8.124,0,0,1,2.876-2.043,6.894,6.894,0,0,1,3.591-.427,11.8,11.8,0,0,1,4.248,1.539A23.387,23.387,0,0,1,518.483,436.3Zm-2.962,3.049q-3.051-3.051-5.384-3.634a3.644,3.644,0,0,0-3.831,1.044,3.973,3.973,0,0,0-.819,4,13.588,13.588,0,0,0,3.738,5.454q3.051,3.051,5.339,3.623a3.576,3.576,0,0,0,3.769-1.049,4,4,0,0,0,.979-1.816,4.384,4.384,0,0,0-.1-2.178,9.072,9.072,0,0,0-1.238-2.537A19.731,19.731,0,0,0,515.521,439.35Z" fill="#fff"/>
                <path id="Path_2698" data-name="Path 2698" d="M528.186,420.121a8.281,8.281,0,0,1,1.738,2.485,7.44,7.44,0,0,1,.665,2.7,6.408,6.408,0,0,1-.408,2.594,5.615,5.615,0,0,1-1.493,2.182c-.661.607-.99.911-1.645,1.524a1.89,1.89,0,0,0-.5.737,2.12,2.12,0,0,0-.126.876,2.535,2.535,0,0,0,.236.907,2.892,2.892,0,0,0,.592.834l1.825,1.825c3.059-2.912,4.621-4.335,7.807-7.111,1.466,1.466,2.2,2.2,3.664,3.664-4.535,3.95-6.74,6-11.015,10.223l-5.489-5.489a8.525,8.525,0,0,1-1.761-2.51,7.926,7.926,0,0,1-.72-2.757,6.522,6.522,0,0,1,.356-2.649,5.528,5.528,0,0,1,1.463-2.214c.656-.613.985-.917,1.646-1.524a1.911,1.911,0,0,0,.5-.729,2.075,2.075,0,0,0,.135-.865,2.434,2.434,0,0,0-.234-.906,2.923,2.923,0,0,0-.6-.836,2.987,2.987,0,0,0-.841-.6,2.788,2.788,0,0,0-.934-.263,2.364,2.364,0,0,0-.913.087,2,2,0,0,0-.786.448c-2.351,2.155-3.508,3.253-5.785,5.486l-3.663-3.664c2.276-2.233,3.434-3.331,5.784-5.486a5.76,5.76,0,0,1,2.361-1.314,7.385,7.385,0,0,1,2.77-.232,8.9,8.9,0,0,1,5.359,2.578Z" fill="#fff"/>
                <path id="Path_2699" data-name="Path 2699" d="M547.822,411.1a22.8,22.8,0,0,1,3.837,4.819,9.96,9.96,0,0,1,1.363,4.051,5.887,5.887,0,0,1-.673,3.316,8.535,8.535,0,0,1-2.266,2.626,9.535,9.535,0,0,1-3.23,1.669,8.415,8.415,0,0,1-3.815.177,13.339,13.339,0,0,1-4.375-1.685,24.277,24.277,0,0,1-4.909-3.92,23.061,23.061,0,0,1-3.862-4.851,10.7,10.7,0,0,1-1.44-4.13,6.126,6.126,0,0,1,.585-3.407,7.951,7.951,0,0,1,2.228-2.672,9.02,9.02,0,0,1,3.262-1.629,8.7,8.7,0,0,1,3.9-.086,14.2,14.2,0,0,1,4.457,1.77A24.967,24.967,0,0,1,547.822,411.1Zm-3.426,2.537a14.071,14.071,0,0,0-5.521-3.782,4.426,4.426,0,0,0-4.214.634,3.281,3.281,0,0,0-1.2,3.6q.523,2.232,3.6,5.312a13.991,13.991,0,0,0,5.476,3.765,4.357,4.357,0,0,0,4.152-.648,3.576,3.576,0,0,0,1.2-1.582,3.443,3.443,0,0,0,.065-2,7.789,7.789,0,0,0-1.137-2.427A18.977,18.977,0,0,0,544.4,413.636Z" fill="#fff"/>
            </g>
        </g>
        <g id="Group_734" data-name="Group 734">
            <g id="Group_733" data-name="Group 733">
                <path id="Path_2700" data-name="Path 2700" d="M535.479,479.417a7.865,7.865,0,0,1,1.721,2.567,8.853,8.853,0,0,1,.675,2.977,9.043,9.043,0,0,1-.368,3.027,7.991,7.991,0,0,1-1.422,2.729c-.633.8-.947,1.2-1.572,2a2.679,2.679,0,0,0-.467.922,3,3,0,0,0,.139,2.024,2.785,2.785,0,0,0,.587.861c.72.72,1.081,1.08,1.8,1.8,2.9-3.821,4.4-5.694,7.488-9.358l3.612,3.612c-4.393,5.215-6.5,7.9-10.517,13.436l-5.412-5.413a8.222,8.222,0,0,1-1.754-2.6,9.509,9.509,0,0,1-.754-3.044,9.108,9.108,0,0,1,.29-3.091,7.76,7.76,0,0,1,1.376-2.766c.624-.8.939-1.2,1.572-2a2.7,2.7,0,0,0,.479-.913,2.908,2.908,0,0,0,.119-1.01,2.848,2.848,0,0,0-.24-1,2.775,2.775,0,0,0-.589-.863,2.431,2.431,0,0,0-.827-.554,2.187,2.187,0,0,0-.911-.153,2.143,2.143,0,0,0-.888.243,2.334,2.334,0,0,0-.756.635c-2.251,2.836-3.351,4.276-5.495,7.2l-3.613-3.613c2.145-2.923,3.245-4.363,5.5-7.2a6.651,6.651,0,0,1,4.974-2.571,6.9,6.9,0,0,1,2.768.465A7.088,7.088,0,0,1,535.479,479.417Z" fill="#fff"/>
                <path id="Path_2701" data-name="Path 2701" d="M554.852,466.161a20.5,20.5,0,0,1,3.773,4.9,10.979,10.979,0,0,1,1.324,4.395,8.191,8.191,0,0,1-.687,3.868,11.9,11.9,0,0,1-2.249,3.329,11.252,11.252,0,0,1-3.185,2.392,7.625,7.625,0,0,1-3.751.787,10.39,10.39,0,0,1-4.3-1.247,19.794,19.794,0,0,1-4.834-3.712,21.021,21.021,0,0,1-3.814-4.935,11.947,11.947,0,0,1-1.433-4.487,8.452,8.452,0,0,1,.566-3.971,10.882,10.882,0,0,1,2.2-3.381,10.416,10.416,0,0,1,3.231-2.346,7.9,7.9,0,0,1,3.872-.684,11.272,11.272,0,0,1,4.416,1.344A20.393,20.393,0,0,1,554.852,466.161Zm-3.423,3.392q-3.008-3.006-5.452-3.467a4.322,4.322,0,0,0-4.17,1.359,4.535,4.535,0,0,0-1.185,4.278q.517,2.463,3.554,5.5,3.008,3.009,5.395,3.45a4.256,4.256,0,0,0,4.094-1.371,5.016,5.016,0,0,0,1.189-1.98,4.547,4.547,0,0,0,.072-2.287,8.06,8.06,0,0,0-1.114-2.586A16.934,16.934,0,0,0,551.429,469.553Z" fill="#fff"/>
                <path id="Path_2702" data-name="Path 2702" d="M571.532,468.072c-1.515,1.347-2.265,2.028-3.751,3.407-5.775-5.774-8.662-8.662-14.438-14.438-.74.688-1.108,1.033-1.841,1.728l-3.612-3.613c2.2-2.089,3.321-3.116,5.591-5.135Z" fill="#fff"/>
                <path id="Path_2703" data-name="Path 2703" d="M578.384,441.954a22.651,22.651,0,0,1,3,3.678,19.413,19.413,0,0,1,1.993,3.962,16.174,16.174,0,0,1,.917,4.062,13.722,13.722,0,0,1-.213,4c-2.165,1.675-3.236,2.528-5.351,4.263a17.785,17.785,0,0,0,.523-2.411,19.369,19.369,0,0,0,.2-2.494,17.894,17.894,0,0,0-.133-2.5,15.891,15.891,0,0,0-.495-2.433,8.7,8.7,0,0,1-.69,1.644,4.51,4.51,0,0,1-1.172,1.386,10.95,10.95,0,0,1-3.519,1.925,9.748,9.748,0,0,1-3.67.449,9.866,9.866,0,0,1-3.585-.969,11.84,11.84,0,0,1-3.245-2.337,10.051,10.051,0,0,1-2.207-3.241A9.081,9.081,0,0,1,560,447.35a8.2,8.2,0,0,1,.811-3.5,8.352,8.352,0,0,1,2.418-2.973,10.035,10.035,0,0,1,3.656-1.842,11.982,11.982,0,0,1,4.09-.385,12.47,12.47,0,0,1,4.008,1A10.828,10.828,0,0,1,578.384,441.954Zm-4.359,3.243a5.779,5.779,0,0,0-1.6-1.13,5.977,5.977,0,0,0-1.883-.557,5.357,5.357,0,0,0-1.933.114,4.526,4.526,0,0,0-1.764.869,3.989,3.989,0,0,0-1.187,1.459,3.86,3.86,0,0,0-.357,1.669,4.15,4.15,0,0,0,.409,1.7,5.6,5.6,0,0,0,1.127,1.574,5.984,5.984,0,0,0,1.6,1.151,5.376,5.376,0,0,0,1.824.532,5.106,5.106,0,0,0,1.875-.153,4.788,4.788,0,0,0,1.746-.9,4.308,4.308,0,0,0,1.219-1.452,3.654,3.654,0,0,0,.4-1.65,4.088,4.088,0,0,0-.377-1.679A5.241,5.241,0,0,0,574.025,445.2Z" fill="#fff"/>
            </g>
        </g>
        <g id="Group_736" data-name="Group 736">
            <g id="Group_735" data-name="Group 735">
                <path id="Path_2704" data-name="Path 2704" d="M568.785,514.1a7.683,7.683,0,0,1,1.693,2.537,8.741,8.741,0,0,1,.654,2.951,8.988,8.988,0,0,1-.381,3.006,8.064,8.064,0,0,1-1.422,2.718c-.632.795-.946,1.2-1.569,2a2.713,2.713,0,0,0-.468.917,2.992,2.992,0,0,0,.128,2.009,2.7,2.7,0,0,0,.579.85l1.774,1.776c2.9-3.813,4.39-5.681,7.469-9.337,1.425,1.426,2.137,2.138,3.562,3.562-4.382,5.2-6.483,7.888-10.491,13.405-2.134-2.135-3.2-3.2-5.337-5.337a8.036,8.036,0,0,1-1.725-2.566,9.358,9.358,0,0,1-.733-3.016,9.079,9.079,0,0,1,.3-3.071,7.821,7.821,0,0,1,1.377-2.755c.623-.8.937-1.2,1.568-2a2.72,2.72,0,0,0,.48-.91,2.928,2.928,0,0,0,.123-1,2.841,2.841,0,0,0-.233-.989,2.715,2.715,0,0,0-.579-.852,2.349,2.349,0,0,0-.817-.544,2.122,2.122,0,0,0-1.784.1,2.349,2.349,0,0,0-.753.636c-2.245,2.828-3.342,4.266-5.481,7.182l-3.563-3.562c2.14-2.917,3.237-4.354,5.482-7.183a6.712,6.712,0,0,1,2.267-1.873,6.644,6.644,0,0,1,2.677-.71,6.78,6.78,0,0,1,2.741.444A6.9,6.9,0,0,1,568.785,514.1Z" fill="#fff"/>
                <path id="Path_2705" data-name="Path 2705" d="M588.065,500.827a19.972,19.972,0,0,1,3.716,4.836,10.785,10.785,0,0,1,1.288,4.352,8.17,8.17,0,0,1-.7,3.842,12,12,0,0,1-2.248,3.316,11.383,11.383,0,0,1-3.171,2.393,7.61,7.61,0,0,1-3.723.8,10.225,10.225,0,0,1-4.257-1.211,19.327,19.327,0,0,1-4.773-3.653,20.546,20.546,0,0,1-3.755-4.875,11.726,11.726,0,0,1-1.4-4.443,8.435,8.435,0,0,1,.583-3.945,10.936,10.936,0,0,1,2.2-3.368,10.509,10.509,0,0,1,3.217-2.347,7.873,7.873,0,0,1,3.843-.7,11.065,11.065,0,0,1,4.372,1.308A19.847,19.847,0,0,1,588.065,500.827Zm-3.413,3.385q-2.965-2.966-5.387-3.407a4.324,4.324,0,0,0-4.142,1.373,4.534,4.534,0,0,0-1.2,4.252q.5,2.442,3.494,5.436,2.967,2.967,5.332,3.39a4.254,4.254,0,0,0,4.066-1.385,5.041,5.041,0,0,0,1.19-1.972,4.507,4.507,0,0,0,.084-2.269,7.91,7.91,0,0,0-1.09-2.559A16.48,16.48,0,0,0,584.652,504.212Z" fill="#fff"/>
                <path id="Path_2706" data-name="Path 2706" d="M604.6,502.626c-1.51,1.345-2.258,2.025-3.74,3.4l-14.237-14.238c-.739.686-1.106,1.031-1.837,1.724l-3.562-3.563c2.2-2.085,3.313-3.11,5.576-5.125Z" fill="#fff"/>
                <path id="Path_2707" data-name="Path 2707" d="M617.869,482.754a5.9,5.9,0,0,1,1.594,2.68,6.282,6.282,0,0,1,.044,3.021,8.958,8.958,0,0,1-1.36,3.054,12.317,12.317,0,0,1-2.617,2.78,13.653,13.653,0,0,1-3.411,1.995,11.9,11.9,0,0,1-3.575.855,8.857,8.857,0,0,1-3.376-.382,7.013,7.013,0,0,1-3.969-3.248,6.469,6.469,0,0,1-.664-1.747,6.932,6.932,0,0,1-.155-1.855,6.392,6.392,0,0,1,.377-1.859,6.845,6.845,0,0,1-1.52-.142,8.85,8.85,0,0,1-1.484-.44,7.782,7.782,0,0,1-1.356-.7,7.032,7.032,0,0,1-1.144-.921,5.68,5.68,0,0,1-1.451-2.383,6.448,6.448,0,0,1-.218-2.764,7.533,7.533,0,0,1,.981-2.79,8.651,8.651,0,0,1,2.146-2.441,9.8,9.8,0,0,1,2.984-1.622,10.24,10.24,0,0,1,3.228-.544,8.876,8.876,0,0,1,3.059.514,6.637,6.637,0,0,1,2.489,1.561,6.224,6.224,0,0,1,.888,1.124,7.224,7.224,0,0,1,.629,1.283,6.056,6.056,0,0,1,.337,1.362,5.316,5.316,0,0,1,0,1.369,9.386,9.386,0,0,1,2.091-.108,9.043,9.043,0,0,1,2.034.355,8.553,8.553,0,0,1,1.855.793A7.484,7.484,0,0,1,617.869,482.754Zm-4.139,2.9a3.694,3.694,0,0,0-1.413-.881,4.927,4.927,0,0,0-1.727-.268,5.978,5.978,0,0,0-3.55,1.291,5.207,5.207,0,0,0-1.252,1.4,4.417,4.417,0,0,0-.59,1.58,3.512,3.512,0,0,0,.1,1.559,3.151,3.151,0,0,0,.819,1.353,3.435,3.435,0,0,0,1.385.851,4.391,4.391,0,0,0,1.66.2,5.926,5.926,0,0,0,1.764-.407,6.49,6.49,0,0,0,1.68-.973,5.959,5.959,0,0,0,1.286-1.377,4.438,4.438,0,0,0,.663-1.515,3.128,3.128,0,0,0-.029-1.488A2.936,2.936,0,0,0,613.73,485.656Zm-8.839-6.91a2.733,2.733,0,0,0-1.03-.646,3.693,3.693,0,0,0-1.251-.211,4,4,0,0,0-1.317.23,4.133,4.133,0,0,0-1.214.669,3.7,3.7,0,0,0-.9,1.007,2.962,2.962,0,0,0-.412,1.138,2.647,2.647,0,0,0,.089,1.131,2.352,2.352,0,0,0,.6.986,2.6,2.6,0,0,0,1.018.633,3.377,3.377,0,0,0,1.221.18,4.241,4.241,0,0,0,1.293-.257,4.329,4.329,0,0,0,1.223-.685,3.783,3.783,0,0,0,.892-.991,3.139,3.139,0,0,0,.436-1.112,2.428,2.428,0,0,0-.06-1.1A2.242,2.242,0,0,0,604.891,478.746Z" fill="#fff"/>
            </g>
        </g>
        <g id="Group_738" data-name="Group 738">
            <g id="Group_737" data-name="Group 737">
                <path id="Path_2708" data-name="Path 2708" d="M605.621,546.051a7.849,7.849,0,0,1,1.737,2.611,8.945,8.945,0,0,1,.663,3.04,9.252,9.252,0,0,1-.4,3.1,8.368,8.368,0,0,1-1.478,2.8c-.654.822-.979,1.235-1.624,2.064a2.8,2.8,0,0,0-.486.948,3.072,3.072,0,0,0,.126,2.071,2.75,2.75,0,0,0,.594.876l1.825,1.825c3-3.941,4.547-5.87,7.74-9.644l3.664,3.663c-4.545,5.371-6.722,8.145-10.868,13.852l-5.489-5.489a8.226,8.226,0,0,1-1.773-2.641,9.62,9.62,0,0,1-.747-3.11,9.38,9.38,0,0,1,.32-3.169,8.113,8.113,0,0,1,1.43-2.846c.645-.829.97-1.242,1.625-2.064a2.834,2.834,0,0,0,.5-.939,2.991,2.991,0,0,0,.131-1.035,2.929,2.929,0,0,0-.236-1.019,2.786,2.786,0,0,0-.6-.878,2.413,2.413,0,0,0-.841-.559,2.206,2.206,0,0,0-.931-.148,2.232,2.232,0,0,0-.91.256,2.451,2.451,0,0,0-.779.658c-2.327,2.922-3.462,4.408-5.676,7.424l-3.664-3.663c2.214-3.017,3.35-4.5,5.676-7.425a7,7,0,0,1,2.347-1.937,6.9,6.9,0,0,1,2.766-.738,6.989,6.989,0,0,1,2.828.452A7.073,7.073,0,0,1,605.621,546.051Z" fill="#fff"/>
                <path id="Path_2709" data-name="Path 2709" d="M625.616,532.373a20.389,20.389,0,0,1,3.815,4.973,11.012,11.012,0,0,1,1.306,4.477,8.4,8.4,0,0,1-.748,3.952,12.441,12.441,0,0,1-2.343,3.414,11.879,11.879,0,0,1-3.289,2.467,7.928,7.928,0,0,1-3.85.833,10.538,10.538,0,0,1-4.392-1.241,19.785,19.785,0,0,1-4.914-3.755,20.965,20.965,0,0,1-3.857-5.016,12,12,0,0,1-1.423-4.574,8.665,8.665,0,0,1,.621-4.063,11.329,11.329,0,0,1,2.286-3.469,10.936,10.936,0,0,1,3.339-2.418,8.2,8.2,0,0,1,3.979-.722,11.444,11.444,0,0,1,4.514,1.345A20.385,20.385,0,0,1,625.616,532.373Zm-3.551,3.483q-3.05-3.051-5.551-3.5a4.505,4.505,0,0,0-4.29,1.415,4.68,4.68,0,0,0-1.26,4.379q.506,2.512,3.584,5.593,3.053,3.051,5.493,3.484a4.433,4.433,0,0,0,4.209-1.429,5.233,5.233,0,0,0,1.241-2.031,4.628,4.628,0,0,0,.1-2.335,8.05,8.05,0,0,0-1.113-2.633A16.771,16.771,0,0,0,622.065,535.856Z" fill="#fff"/>
                <path id="Path_2710" data-name="Path 2710" d="M642.715,534.233c-1.573,1.38-2.352,2.078-3.894,3.492l-14.643-14.644c-.769.705-1.151,1.059-1.911,1.772l-3.664-3.665c2.286-2.142,3.448-3.2,5.8-5.262Z" fill="#fff"/>
                <path id="Path_2711" data-name="Path 2711" d="M641.448,502.31c4.426,9.427,6.659,14.168,11.169,23.7-1.762,1.384-2.634,2.086-4.362,3.511-3.589-7.727-5.368-11.575-8.9-19.232-3.522,2.725-5.25,4.128-8.637,7.012l-3.664-3.664C632.628,508.892,635.511,506.623,641.448,502.31Z" fill="#fff"/>
            </g>
        </g>
        <g id="Group_739" data-name="Group 739">
            <path id="Path_2712" data-name="Path 2712" d="M712.484,330.23a8.237,8.237,0,0,1-.679,3.333,8.721,8.721,0,0,1-4.571,4.572,8.249,8.249,0,0,1-3.332.678H692.445v-5.729H703.9a2.827,2.827,0,0,0,2.635-1.736,2.961,2.961,0,0,0,0-2.235,2.832,2.832,0,0,0-2.635-1.737h-7.8v-5.729h7.8a2.828,2.828,0,0,0,2.026-.828,2.769,2.769,0,0,0,.609-.918,2.933,2.933,0,0,0,.219-1.128,2.863,2.863,0,0,0-.219-1.117,2.827,2.827,0,0,0-2.635-1.736H692.445v-5.729H703.9a8.249,8.249,0,0,1,3.332.678,8.724,8.724,0,0,1,4.571,4.571,8.248,8.248,0,0,1,.679,3.333,8.4,8.4,0,0,1-.578,3.065,8.665,8.665,0,0,1-1.636,2.664,8.664,8.664,0,0,1,1.636,2.664A8.4,8.4,0,0,1,712.484,330.23Z" fill="#fff"/>
            <path id="Path_2713" data-name="Path 2713" d="M738.072,320.709a26.211,26.211,0,0,1-.549,5.38,24.685,24.685,0,0,1-1.585,4.96,21.791,21.791,0,0,1-2.536,4.31,18.488,18.488,0,0,1-3.394,3.454h-7.725a22.121,22.121,0,0,0,2.356-1.737,25.255,25.255,0,0,0,2.166-2.055,23.466,23.466,0,0,0,1.906-2.316,20.366,20.366,0,0,0,1.557-2.515,10.938,10.938,0,0,1-1.875.988,5.378,5.378,0,0,1-2.057.41,11.25,11.25,0,0,1-4.371-.809,9.516,9.516,0,0,1-3.3-2.256,9.842,9.842,0,0,1-2.1-3.443,12.648,12.648,0,0,1-.728-4.371,11.645,11.645,0,0,1,.828-4.381,11.36,11.36,0,0,1,2.285-3.612,10.723,10.723,0,0,1,3.453-2.445,10.423,10.423,0,0,1,4.33-.9,10.964,10.964,0,0,1,4.422.9,11.415,11.415,0,0,1,6.028,6.057A10.994,10.994,0,0,1,738.072,320.709Zm-6.127,0a5.989,5.989,0,0,0-.381-2.115,5.635,5.635,0,0,0-1.066-1.8,5.121,5.121,0,0,0-1.646-1.236,4.829,4.829,0,0,0-2.118-.459,4.9,4.9,0,0,0-2.125.448,5.092,5.092,0,0,0-1.627,1.208,5.233,5.233,0,0,0-1.037,1.776,6.479,6.479,0,0,0-.359,2.175,6.323,6.323,0,0,0,.359,2.146,5.245,5.245,0,0,0,1.037,1.766,4.9,4.9,0,0,0,3.752,1.637,5.139,5.139,0,0,0,2.147-.439,4.893,4.893,0,0,0,1.646-1.2,5.425,5.425,0,0,0,1.049-1.766A6.183,6.183,0,0,0,731.945,320.709Z" fill="#fff"/>
            <path id="Path_2714" data-name="Path 2714" d="M763.262,320.709a26.279,26.279,0,0,1-.549,5.38,24.691,24.691,0,0,1-1.586,4.96,21.74,21.74,0,0,1-2.535,4.31,18.463,18.463,0,0,1-3.395,3.454h-7.724a22.215,22.215,0,0,0,2.355-1.737,24.97,24.97,0,0,0,2.166-2.055A23.329,23.329,0,0,0,753.9,332.7a20.241,20.241,0,0,0,1.557-2.515,10.938,10.938,0,0,1-1.875.988,5.377,5.377,0,0,1-2.057.41,11.25,11.25,0,0,1-4.371-.809,9.512,9.512,0,0,1-3.3-2.256,9.812,9.812,0,0,1-2.1-3.443,12.648,12.648,0,0,1-.729-4.371,11.666,11.666,0,0,1,.828-4.381,11.347,11.347,0,0,1,2.286-3.612,10.712,10.712,0,0,1,3.453-2.445,10.42,10.42,0,0,1,4.33-.9,10.967,10.967,0,0,1,4.422.9,11.418,11.418,0,0,1,6.027,6.057A10.977,10.977,0,0,1,763.262,320.709Zm-6.127,0a5.989,5.989,0,0,0-.381-2.115,5.671,5.671,0,0,0-1.066-1.8,5.115,5.115,0,0,0-1.647-1.236,4.828,4.828,0,0,0-2.117-.459,4.9,4.9,0,0,0-2.125.448,5.071,5.071,0,0,0-1.627,1.208,5.216,5.216,0,0,0-1.037,1.776,6.479,6.479,0,0,0-.36,2.175,6.323,6.323,0,0,0,.36,2.146,5.228,5.228,0,0,0,1.037,1.766,4.928,4.928,0,0,0,1.627,1.2,5,5,0,0,0,2.125.439,5.134,5.134,0,0,0,2.146-.439,4.887,4.887,0,0,0,1.647-1.2,5.425,5.425,0,0,0,1.049-1.766A6.183,6.183,0,0,0,757.135,320.709Z" fill="#fff"/>
            <path id="Path_2715" data-name="Path 2715" d="M788.891,333.084h-2.856v5.729h-5.728v-5.729H766l3.193-22.893h5.729l-2.494,17.185h7.883V313.064h5.728v14.312h2.856Z" fill="#fff"/>
        </g>
        <g id="Group_740" data-name="Group 740">
            <path id="Path_2716" data-name="Path 2716" d="M714.52,381.084h-2.854v5.729h-5.728v-5.729H691.627l3.193-22.893h5.729l-2.5,17.185h7.885V361.064h5.728v14.312h2.854Z" fill="#fff"/>
            <path id="Path_2717" data-name="Path 2717" d="M738.271,378.23a8.269,8.269,0,0,1-.677,3.333,8.721,8.721,0,0,1-4.571,4.572,8.265,8.265,0,0,1-3.334.678H718.232v-5.729h11.457a2.854,2.854,0,1,0,0-5.708h-7.8v-5.729h7.8a2.828,2.828,0,0,0,2.026-.828,2.77,2.77,0,0,0,.609-.918,2.9,2.9,0,0,0,.219-1.128,2.828,2.828,0,0,0-2.854-2.853H718.232v-5.729h11.457a8.265,8.265,0,0,1,3.334.678,8.724,8.724,0,0,1,4.571,4.571,8.482,8.482,0,0,1,.1,6.4,8.664,8.664,0,0,1-1.636,2.664,8.663,8.663,0,0,1,1.636,2.664A8.36,8.36,0,0,1,738.271,378.23Z" fill="#fff"/>
            <path id="Path_2718" data-name="Path 2718" d="M763.859,368.709a26.138,26.138,0,0,1-.548,5.38,24.621,24.621,0,0,1-1.586,4.96,21.649,21.649,0,0,1-2.536,4.31,18.513,18.513,0,0,1-3.392,3.454h-7.725a22.327,22.327,0,0,0,2.356-1.737,25.409,25.409,0,0,0,2.166-2.055A23.754,23.754,0,0,0,754.5,380.7a20.733,20.733,0,0,0,1.557-2.515,10.883,10.883,0,0,1-1.877.988,5.37,5.37,0,0,1-2.057.41,11.25,11.25,0,0,1-4.371-.809,9.554,9.554,0,0,1-3.3-2.256,9.854,9.854,0,0,1-2.095-3.443,12.624,12.624,0,0,1-.729-4.371,11.647,11.647,0,0,1,.828-4.381,11.43,11.43,0,0,1,2.285-3.612,10.766,10.766,0,0,1,3.453-2.445,10.432,10.432,0,0,1,4.332-.9,10.954,10.954,0,0,1,4.42.9,11.428,11.428,0,0,1,6.03,6.057A10.992,10.992,0,0,1,763.859,368.709Zm-6.127,0a6.054,6.054,0,0,0-.378-2.115,5.7,5.7,0,0,0-1.069-1.8,5.121,5.121,0,0,0-1.646-1.236,4.82,4.82,0,0,0-2.116-.459,4.889,4.889,0,0,0-2.125.448,5.071,5.071,0,0,0-1.627,1.208,5.27,5.27,0,0,0-1.039,1.776,6.53,6.53,0,0,0-.359,2.175,6.373,6.373,0,0,0,.359,2.146,5.283,5.283,0,0,0,1.039,1.766,4.928,4.928,0,0,0,1.627,1.2,4.989,4.989,0,0,0,2.125.439,5.123,5.123,0,0,0,2.145-.439,4.881,4.881,0,0,0,1.648-1.2,5.4,5.4,0,0,0,1.047-1.766A6.183,6.183,0,0,0,757.732,368.709Z" fill="#fff"/>
            <path id="Path_2719" data-name="Path 2719" d="M787.932,377.811a9.255,9.255,0,0,1-.739,3.773,8.527,8.527,0,0,1-1.976,2.834,8.656,8.656,0,0,1-2.863,1.776,9.482,9.482,0,0,1-3.405.619H767.414v-5.729h11.535a3.939,3.939,0,0,0,1.168-.18,2.93,2.93,0,0,0,1.059-.578,2.972,2.972,0,0,0,.758-1.017,3.521,3.521,0,0,0,.289-1.5,3.245,3.245,0,0,0-.289-1.407,3.1,3.1,0,0,0-.758-1.017,3.226,3.226,0,0,0-1.059-.619,3.43,3.43,0,0,0-1.168-.21H767.414l1.676-16.367h17.664v5.729H774.24l-.519,4.909h5.228a9.482,9.482,0,0,1,3.405.619,8.569,8.569,0,0,1,2.863,1.786,8.672,8.672,0,0,1,1.976,2.834A9.141,9.141,0,0,1,787.932,377.811Z" fill="#fff"/>
        </g>
        <g id="Group_741" data-name="Group 741">
            <path id="Path_2720" data-name="Path 2720" d="M700.588,433.813h-5.729V410.92h-2.853v-5.729h8.582Z" fill="#fff"/>
            <path id="Path_2721" data-name="Path 2721" d="M727.275,425.629a7.431,7.431,0,0,1-.879,3.573,8.855,8.855,0,0,1-2.4,2.824,11.684,11.684,0,0,1-3.564,1.857,14.5,14.5,0,0,1-8.7,0,11.656,11.656,0,0,1-3.563-1.857,8.861,8.861,0,0,1-2.406-2.824,7.43,7.43,0,0,1-.877-3.573,8.09,8.09,0,0,1,1.166-4.191,9.063,9.063,0,0,1,1.367-1.727,8.352,8.352,0,0,1,1.8-1.347,6.808,6.808,0,0,1-1.107-1.237,8.9,8.9,0,0,1-.838-1.477,7.92,7.92,0,0,1-.53-1.607,7.81,7.81,0,0,1-.179-1.647,6.832,6.832,0,0,1,.748-3.144,8.353,8.353,0,0,1,2.047-2.574,9.81,9.81,0,0,1,3.033-1.746,11.043,11.043,0,0,1,7.4,0,9.965,9.965,0,0,1,3.045,1.746,8.276,8.276,0,0,1,2.055,2.574,6.809,6.809,0,0,1,.75,3.144,7.456,7.456,0,0,1-.19,1.647,9.4,9.4,0,0,1-.529,1.617,8.286,8.286,0,0,1-.828,1.486,7.418,7.418,0,0,1-1.108,1.258,8.854,8.854,0,0,1,1.776,1.337,8.424,8.424,0,0,1,1.357,1.717,8.292,8.292,0,0,1,.858,2A7.9,7.9,0,0,1,727.275,425.629Zm-5.689-.159a3.813,3.813,0,0,0-.43-1.786,4.586,4.586,0,0,0-1.177-1.448,5.785,5.785,0,0,0-1.756-.978,6.379,6.379,0,0,0-2.145-.36,6.3,6.3,0,0,0-2.137.36,5.791,5.791,0,0,0-1.746.978,4.585,4.585,0,0,0-1.177,1.448,3.8,3.8,0,0,0-.43,1.786,3.635,3.635,0,0,0,.43,1.757A4.282,4.282,0,0,0,712.2,428.6a5.782,5.782,0,0,0,1.746.908,6.794,6.794,0,0,0,2.137.329,6.881,6.881,0,0,0,2.145-.329,5.779,5.779,0,0,0,1.756-.908,4.283,4.283,0,0,0,1.177-1.377A3.647,3.647,0,0,0,721.586,425.47Zm-1.557-12.454a2.863,2.863,0,0,0-.308-1.309,3.526,3.526,0,0,0-.84-1.067,3.883,3.883,0,0,0-1.246-.718,4.617,4.617,0,0,0-3.055,0,3.914,3.914,0,0,0-1.248.718,3.535,3.535,0,0,0-.838,1.067,2.863,2.863,0,0,0-.308,1.309,2.8,2.8,0,0,0,.308,1.3,3.336,3.336,0,0,0,.838,1.037,4.155,4.155,0,0,0,1.248.7,4.617,4.617,0,0,0,3.055,0,4.12,4.12,0,0,0,1.246-.7,3.329,3.329,0,0,0,.84-1.037A2.8,2.8,0,0,0,720.029,413.016Z" fill="#fff"/>
            <path id="Path_2722" data-name="Path 2722" d="M750.746,425.23a8.253,8.253,0,0,1-.678,3.333,8.715,8.715,0,0,1-4.57,4.572,8.265,8.265,0,0,1-3.334.678H730.707v-5.729h11.457a2.821,2.821,0,0,0,1.117-.219,2.789,2.789,0,0,0,.908-.609,2.871,2.871,0,0,0,0-4.051,2.789,2.789,0,0,0-.908-.609,2.822,2.822,0,0,0-1.117-.22h-7.8v-5.729h7.8a2.828,2.828,0,0,0,2.025-.828,2.789,2.789,0,0,0,.61-.918,2.915,2.915,0,0,0,.219-1.128,2.823,2.823,0,0,0-.829-2.025,2.789,2.789,0,0,0-.908-.609,2.821,2.821,0,0,0-1.117-.219H730.707v-5.729h11.457a8.265,8.265,0,0,1,3.334.678,8.717,8.717,0,0,1,4.57,4.571,8.263,8.263,0,0,1,.678,3.333,8.363,8.363,0,0,1-.578,3.065,8.687,8.687,0,0,1-1.637,2.664,8.686,8.686,0,0,1,1.637,2.664A8.361,8.361,0,0,1,750.746,425.23Z" fill="#fff"/>
            <path id="Path_2723" data-name="Path 2723" d="M774.738,425.23a8.237,8.237,0,0,1-.679,3.333,8.721,8.721,0,0,1-4.571,4.572,8.248,8.248,0,0,1-3.332.678H754.7v-5.729h11.457a2.827,2.827,0,0,0,2.635-1.736,2.961,2.961,0,0,0,0-2.235,2.834,2.834,0,0,0-2.635-1.737h-7.8v-5.729h7.8a2.832,2.832,0,0,0,2.026-.828,2.785,2.785,0,0,0,.609-.918,2.934,2.934,0,0,0,.219-1.128,2.828,2.828,0,0,0-.828-2.025,2.832,2.832,0,0,0-2.026-.828H754.7v-5.729h11.457a8.248,8.248,0,0,1,3.332.678,8.724,8.724,0,0,1,4.571,4.571,8.248,8.248,0,0,1,.679,3.333,8.4,8.4,0,0,1-.578,3.065,8.667,8.667,0,0,1-1.637,2.664,8.666,8.666,0,0,1,1.637,2.664A8.4,8.4,0,0,1,774.738,425.23Z" fill="#fff"/>
        </g>
        <g id="Group_742" data-name="Group 742">
            <path id="Path_2724" data-name="Path 2724" d="M712.244,461.773a8.33,8.33,0,0,1-.678,3.344A8.674,8.674,0,0,1,707,469.7a8.249,8.249,0,0,1-3.334.679h-2.875a2.826,2.826,0,0,0-2.853,2.854v2.854h13.533v5.729H692.205V473.23a8.317,8.317,0,0,1,.68-3.343,8.725,8.725,0,0,1,1.845-2.735,8.623,8.623,0,0,1,2.725-1.836,8.365,8.365,0,0,1,3.332-.669h2.875a2.832,2.832,0,0,0,2.026-.828,2.8,2.8,0,0,0,.609-.918,2.915,2.915,0,0,0,.219-1.128,2.829,2.829,0,0,0-2.854-2.853H693.443v-5.729h10.219a8.265,8.265,0,0,1,3.334.678,8.717,8.717,0,0,1,4.57,4.571A8.263,8.263,0,0,1,712.244,461.773Z" fill="#fff"/>
            <path id="Path_2725" data-name="Path 2725" d="M735.578,461.773a8.3,8.3,0,0,1-.68,3.344,8.675,8.675,0,0,1-4.57,4.58,8.235,8.235,0,0,1-3.334.679h-2.873a2.821,2.821,0,0,0-1.117.22,2.779,2.779,0,0,0-.908.609,2.817,2.817,0,0,0-.828,2.025v2.854H734.8v5.729h-19.26V473.23a8.315,8.315,0,0,1,.678-3.343,8.779,8.779,0,0,1,1.846-2.735,8.652,8.652,0,0,1,2.724-1.836,8.374,8.374,0,0,1,3.334-.669h2.873a2.828,2.828,0,0,0,2.027-.828,2.783,2.783,0,0,0,.608-.918,2.916,2.916,0,0,0,.221-1.128,2.845,2.845,0,0,0-.829-2.025,2.828,2.828,0,0,0-2.027-.828H716.775v-5.729h10.219a8.251,8.251,0,0,1,3.334.678,8.718,8.718,0,0,1,4.57,4.571A8.232,8.232,0,0,1,735.578,461.773Z" fill="#fff"/>
            <path id="Path_2726" data-name="Path 2726" d="M760.867,471.314a11.62,11.62,0,0,1-.828,4.372,11.434,11.434,0,0,1-2.285,3.6,10.725,10.725,0,0,1-3.463,2.444,10.487,10.487,0,0,1-4.342.9,10.911,10.911,0,0,1-4.4-.9,11.448,11.448,0,0,1-6.027-6.046,10.916,10.916,0,0,1-.889-4.372,26.7,26.7,0,0,1,.539-5.378,24.271,24.271,0,0,1,1.578-4.971,21.527,21.527,0,0,1,2.535-4.32,18.452,18.452,0,0,1,3.393-3.454H754.4a23.518,23.518,0,0,0-2.336,1.737,25.709,25.709,0,0,0-2.166,2.054,23.6,23.6,0,0,0-1.906,2.317,19.828,19.828,0,0,0-1.556,2.535,10.047,10.047,0,0,1,1.867-.988,5.415,5.415,0,0,1,2.064-.41,11.265,11.265,0,0,1,4.362.808,9.419,9.419,0,0,1,3.3,2.256,10.081,10.081,0,0,1,2.1,3.443A12.51,12.51,0,0,1,760.867,471.314Zm-5.728,0a6.2,6.2,0,0,0-.369-2.146,5.513,5.513,0,0,0-1.049-1.775,4.833,4.833,0,0,0-1.637-1.208,5.414,5.414,0,0,0-4.271,0,4.757,4.757,0,0,0-1.627,1.208,5.463,5.463,0,0,0-1.028,1.775,6.388,6.388,0,0,0-.359,2.146,6.073,6.073,0,0,0,.369,2.106,5.638,5.638,0,0,0,1.049,1.787,5.028,5.028,0,0,0,1.627,1.236,4.751,4.751,0,0,0,2.1.459,5.06,5.06,0,0,0,2.135-.438,4.82,4.82,0,0,0,1.637-1.208,5.513,5.513,0,0,0,1.049-1.786A6.282,6.282,0,0,0,755.139,471.314Z" fill="#fff"/>
            <path id="Path_2727" data-name="Path 2727" d="M785.9,463.709a26.278,26.278,0,0,1-.548,5.38,24.757,24.757,0,0,1-1.586,4.96,21.793,21.793,0,0,1-2.535,4.31,18.462,18.462,0,0,1-3.4,3.454h-7.725a22.121,22.121,0,0,0,2.356-1.737,25.121,25.121,0,0,0,2.166-2.055,23.466,23.466,0,0,0,1.906-2.316,20.242,20.242,0,0,0,1.557-2.515,10.938,10.938,0,0,1-1.875.988,5.377,5.377,0,0,1-2.057.41,11.25,11.25,0,0,1-4.371-.809,9.515,9.515,0,0,1-3.3-2.256,9.823,9.823,0,0,1-2.1-3.443,12.624,12.624,0,0,1-.729-4.371,11.666,11.666,0,0,1,.828-4.381,11.36,11.36,0,0,1,2.285-3.612,10.715,10.715,0,0,1,3.454-2.445,10.42,10.42,0,0,1,4.33-.9,10.959,10.959,0,0,1,4.421.9,11.415,11.415,0,0,1,6.028,6.057A10.977,10.977,0,0,1,785.9,463.709Zm-6.126,0a5.987,5.987,0,0,0-.381-2.115,5.654,5.654,0,0,0-1.067-1.8,5.122,5.122,0,0,0-1.646-1.236,4.828,4.828,0,0,0-2.117-.459,4.889,4.889,0,0,0-2.125.448,5.071,5.071,0,0,0-1.627,1.208,5.216,5.216,0,0,0-1.037,1.776,6.454,6.454,0,0,0-.36,2.175,6.3,6.3,0,0,0,.36,2.146,5.228,5.228,0,0,0,1.037,1.766,4.928,4.928,0,0,0,1.627,1.2,4.989,4.989,0,0,0,2.125.439,5.134,5.134,0,0,0,2.146-.439,4.9,4.9,0,0,0,1.647-1.2,5.424,5.424,0,0,0,1.048-1.766A6.185,6.185,0,0,0,779.77,463.709Z" fill="#fff"/>
        </g>
        <g id="Group_743" data-name="Group 743">
            <path id="Path_2728" data-name="Path 2728" d="M712.244,509.773a8.33,8.33,0,0,1-.678,3.344A8.675,8.675,0,0,1,707,517.7a8.249,8.249,0,0,1-3.334.679h-2.875a2.826,2.826,0,0,0-2.853,2.854v2.854h13.533v5.729H692.205V521.23a8.316,8.316,0,0,1,.68-3.343,8.726,8.726,0,0,1,1.845-2.735,8.625,8.625,0,0,1,2.725-1.836,8.365,8.365,0,0,1,3.332-.669h2.875a2.832,2.832,0,0,0,2.026-.828,2.8,2.8,0,0,0,.609-.918,2.915,2.915,0,0,0,.219-1.128,2.829,2.829,0,0,0-2.854-2.853H693.443v-5.729h10.219a8.265,8.265,0,0,1,3.334.678,8.717,8.717,0,0,1,4.57,4.571A8.263,8.263,0,0,1,712.244,509.773Z" fill="#fff"/>
            <path id="Path_2729" data-name="Path 2729" d="M737.854,524.084H735v5.729H729.27v-5.729H714.959l3.193-22.893h5.729l-2.494,17.185h7.883V504.064H735v14.312h2.856Z" fill="#fff"/>
            <path id="Path_2730" data-name="Path 2730" d="M760.588,501.191l-9.781,28.622H744.68l8.043-22.893H740.547v-5.729Z" fill="#fff"/>
            <path id="Path_2731" data-name="Path 2731" d="M781.924,501.191l-9.779,28.622h-6.129l8.045-22.893H761.885v-5.729Z" fill="#fff"/>
        </g>
        <g id="Group_744" data-name="Group 744">
            <path id="Path_2732" data-name="Path 2732" d="M1368.244,318.773a8.332,8.332,0,0,1-.678,3.344,8.675,8.675,0,0,1-4.57,4.58,8.249,8.249,0,0,1-3.334.679h-2.875a2.826,2.826,0,0,0-2.853,2.854v2.854h13.533v5.729H1348.2V330.23a8.317,8.317,0,0,1,.68-3.343,8.727,8.727,0,0,1,1.845-2.735,8.624,8.624,0,0,1,2.725-1.836,8.365,8.365,0,0,1,3.332-.669h2.875a2.832,2.832,0,0,0,2.026-.828,2.8,2.8,0,0,0,.609-.918,2.915,2.915,0,0,0,.219-1.128,2.829,2.829,0,0,0-2.854-2.853h-10.219v-5.729h10.219a8.265,8.265,0,0,1,3.334.678,8.718,8.718,0,0,1,4.57,4.571A8.265,8.265,0,0,1,1368.244,318.773Z" fill="#00ace7"/>
            <path id="Path_2733" data-name="Path 2733" d="M1390.8,310.191l-9.779,28.622h-6.129l8.045-22.893H1370.76v-5.729Z" fill="#00ace7"/>
            <path id="Path_2734" data-name="Path 2734" d="M1397.7,336.777a3.484,3.484,0,0,1-.26,1.348,3.334,3.334,0,0,1-.716,1.088,3.48,3.48,0,0,1-1.079.728,3.437,3.437,0,0,1-2.666,0,3.563,3.563,0,0,1-1.1-.728,3.387,3.387,0,0,1-1.008-2.436,3.277,3.277,0,0,1,.269-1.317,3.378,3.378,0,0,1,.739-1.078,3.565,3.565,0,0,1,1.1-.729,3.437,3.437,0,0,1,2.666,0,3.482,3.482,0,0,1,1.079.729,3.39,3.39,0,0,1,.976,2.4Z" fill="#00ace7"/>
            <path id="Path_2735" data-name="Path 2735" d="M1421.717,330.23a8.238,8.238,0,0,1-.68,3.333,8.724,8.724,0,0,1-4.57,4.572,8.252,8.252,0,0,1-3.332.678h-11.457v-5.729h11.457a2.831,2.831,0,0,0,2.635-1.736,2.973,2.973,0,0,0,0-2.235,2.834,2.834,0,0,0-2.635-1.737h-7.805v-5.729h7.805a2.828,2.828,0,0,0,2.025-.828,2.787,2.787,0,0,0,.61-.918,2.953,2.953,0,0,0,.218-1.128,2.883,2.883,0,0,0-.218-1.117,2.83,2.83,0,0,0-2.635-1.736h-11.457v-5.729h11.457a8.252,8.252,0,0,1,3.332.678,8.727,8.727,0,0,1,4.57,4.571,8.248,8.248,0,0,1,.68,3.333,8.426,8.426,0,0,1-.578,3.065,8.687,8.687,0,0,1-1.637,2.664,8.686,8.686,0,0,1,1.637,2.664A8.425,8.425,0,0,1,1421.717,330.23Z" fill="#00ace7"/>
        </g>
        <g id="Group_745" data-name="Group 745">
            <path id="Path_2736" data-name="Path 2736" d="M1359.244,366.773a8.332,8.332,0,0,1-.678,3.344,8.675,8.675,0,0,1-4.57,4.58,8.249,8.249,0,0,1-3.334.679h-2.875a2.826,2.826,0,0,0-2.853,2.854v2.854h13.533v5.729H1339.2V378.23a8.317,8.317,0,0,1,.68-3.343,8.727,8.727,0,0,1,1.845-2.735,8.624,8.624,0,0,1,2.725-1.836,8.365,8.365,0,0,1,3.332-.669h2.875a2.832,2.832,0,0,0,2.026-.828,2.8,2.8,0,0,0,.609-.918,2.915,2.915,0,0,0,.219-1.128,2.829,2.829,0,0,0-2.854-2.853h-10.219v-5.729h10.219a8.265,8.265,0,0,1,3.334.678,8.718,8.718,0,0,1,4.57,4.571A8.265,8.265,0,0,1,1359.244,366.773Z" fill="#00ace7"/>
            <path id="Path_2737" data-name="Path 2737" d="M1381.8,358.191l-9.779,28.622h-6.129l8.045-22.893H1361.76v-5.729Z" fill="#00ace7"/>
            <path id="Path_2738" data-name="Path 2738" d="M1388.7,384.777a3.484,3.484,0,0,1-.26,1.348,3.334,3.334,0,0,1-.716,1.088,3.48,3.48,0,0,1-1.079.728,3.437,3.437,0,0,1-2.666,0,3.563,3.563,0,0,1-1.1-.728,3.387,3.387,0,0,1-1.008-2.436,3.277,3.277,0,0,1,.269-1.317,3.378,3.378,0,0,1,.739-1.078,3.565,3.565,0,0,1,1.1-.729,3.437,3.437,0,0,1,2.666,0,3.482,3.482,0,0,1,1.079.729,3.39,3.39,0,0,1,.976,2.4Z" fill="#00ace7"/>
            <path id="Path_2739" data-name="Path 2739" d="M1412.477,366.773a8.346,8.346,0,0,1-.678,3.344,8.683,8.683,0,0,1-4.57,4.58,8.256,8.256,0,0,1-3.334.679h-2.875a2.829,2.829,0,0,0-2.854,2.854v2.854H1411.7v5.729h-19.261V378.23a8.316,8.316,0,0,1,.679-3.343,8.728,8.728,0,0,1,1.846-2.735,8.6,8.6,0,0,1,2.725-1.836,8.361,8.361,0,0,1,3.332-.669h2.875a2.828,2.828,0,0,0,2.025-.828,2.769,2.769,0,0,0,.609-.918,2.9,2.9,0,0,0,.219-1.128,2.828,2.828,0,0,0-2.853-2.853h-10.219v-5.729H1403.9a8.272,8.272,0,0,1,3.334.678,8.727,8.727,0,0,1,4.57,4.571A8.28,8.28,0,0,1,1412.477,366.773Z" fill="#00ace7"/>
        </g>
        <g id="Group_746" data-name="Group 746">
            <path id="Path_2740" data-name="Path 2740" d="M1505.484,425.23a8.237,8.237,0,0,1-.679,3.333,8.722,8.722,0,0,1-4.571,4.572,8.248,8.248,0,0,1-3.332.678h-11.457v-5.729H1496.9a2.827,2.827,0,0,0,2.635-1.736,2.961,2.961,0,0,0,0-2.235,2.832,2.832,0,0,0-2.635-1.737h-7.8v-5.729h7.8a2.828,2.828,0,0,0,2.026-.828,2.769,2.769,0,0,0,.609-.918,2.933,2.933,0,0,0,.219-1.128,2.863,2.863,0,0,0-.219-1.117,2.827,2.827,0,0,0-2.635-1.736h-11.457v-5.729H1496.9a8.248,8.248,0,0,1,3.332.678,8.725,8.725,0,0,1,4.571,4.571,8.248,8.248,0,0,1,.679,3.333,8.4,8.4,0,0,1-.578,3.065,8.665,8.665,0,0,1-1.636,2.664,8.664,8.664,0,0,1,1.636,2.664A8.4,8.4,0,0,1,1505.484,425.23Z" fill="#00ace7"/>
            <path id="Path_2741" data-name="Path 2741" d="M1529.475,425.23a8.269,8.269,0,0,1-.678,3.333,8.724,8.724,0,0,1-4.57,4.572,8.269,8.269,0,0,1-3.334.678h-11.457v-5.729h11.457a2.854,2.854,0,1,0,0-5.708h-7.8v-5.729h7.8a2.828,2.828,0,0,0,2.025-.828,2.769,2.769,0,0,0,.609-.918,2.9,2.9,0,0,0,.219-1.128,2.827,2.827,0,0,0-2.853-2.853h-11.457v-5.729h11.457a8.269,8.269,0,0,1,3.334.678,8.727,8.727,0,0,1,4.57,4.571,8.28,8.28,0,0,1,.678,3.333,8.364,8.364,0,0,1-.579,3.065,8.665,8.665,0,0,1-1.636,2.664,8.664,8.664,0,0,1,1.636,2.664A8.362,8.362,0,0,1,1529.475,425.23Z" fill="#00ace7"/>
            <path id="Path_2742" data-name="Path 2742" d="M1540.213,431.777a3.486,3.486,0,0,1-.26,1.348,3.319,3.319,0,0,1-.717,1.088,3.474,3.474,0,0,1-1.078.728,3.437,3.437,0,0,1-2.666,0,3.563,3.563,0,0,1-1.1-.728,3.388,3.388,0,0,1-1.008-2.436,3.277,3.277,0,0,1,.269-1.317,3.378,3.378,0,0,1,.739-1.078,3.565,3.565,0,0,1,1.1-.729,3.437,3.437,0,0,1,2.666,0,3.477,3.477,0,0,1,1.078.729,3.318,3.318,0,0,1,.717,1.078A3.357,3.357,0,0,1,1540.213,431.777Z" fill="#00ace7"/>
            <path id="Path_2743" data-name="Path 2743" d="M1566.76,419.5a22.9,22.9,0,0,1-.9,6.887,12.364,12.364,0,0,1-2.455,4.55,9.017,9.017,0,0,1-3.642,2.5,12.787,12.787,0,0,1-4.461.77,12.521,12.521,0,0,1-4.461-.789,9.107,9.107,0,0,1-3.633-2.535,12.546,12.546,0,0,1-2.445-4.551,26.591,26.591,0,0,1,0-13.712,12.431,12.431,0,0,1,2.445-4.541,9.057,9.057,0,0,1,3.633-2.515,13.083,13.083,0,0,1,8.922.01,9.129,9.129,0,0,1,3.642,2.545,12.575,12.575,0,0,1,2.455,4.551A22.539,22.539,0,0,1,1566.76,419.5Zm-5.449,0q0-4.77-1.588-7.086a5.063,5.063,0,0,0-4.42-2.314,4.982,4.982,0,0,0-4.371,2.294q-1.559,2.3-1.557,7.106,0,4.77,1.557,7.086a4.971,4.971,0,0,0,4.371,2.314,5.514,5.514,0,0,0,2.535-.568,4.959,4.959,0,0,0,1.885-1.727,8.831,8.831,0,0,0,1.177-2.923A18.656,18.656,0,0,0,1561.311,419.5Z" fill="#00ace7"/>
        </g>
        <text id="_1833" data-name="1833" transform="translate(1344.449 433.813)" fill="#00ace7" font-size="40.877" font-family="Helvetica"><tspan x="0" y="0">1833</tspan></text>
        <g id="Group_747" data-name="Group 747">
            <path id="Path_2744" data-name="Path 2744" d="M1414.244,461.773a8.332,8.332,0,0,1-.678,3.344,8.675,8.675,0,0,1-4.57,4.58,8.249,8.249,0,0,1-3.334.679h-2.875a2.826,2.826,0,0,0-2.853,2.854v2.854h13.533v5.729H1394.2V473.23a8.317,8.317,0,0,1,.68-3.343,8.727,8.727,0,0,1,1.845-2.735,8.624,8.624,0,0,1,2.725-1.836,8.365,8.365,0,0,1,3.332-.669h2.875a2.832,2.832,0,0,0,2.026-.828,2.8,2.8,0,0,0,.609-.918,2.915,2.915,0,0,0,.219-1.128,2.829,2.829,0,0,0-2.854-2.853h-10.219v-5.729h10.219a8.265,8.265,0,0,1,3.334.678,8.718,8.718,0,0,1,4.57,4.571A8.265,8.265,0,0,1,1414.244,461.773Z" fill="#00ace7"/>
            <path id="Path_2745" data-name="Path 2745" d="M1439.414,463.709a26.279,26.279,0,0,1-.549,5.38,24.628,24.628,0,0,1-1.586,4.96,21.746,21.746,0,0,1-2.535,4.31,18.491,18.491,0,0,1-3.394,3.454h-7.725a22.005,22.005,0,0,0,2.355-1.737,24.962,24.962,0,0,0,2.166-2.055,23.322,23.322,0,0,0,1.907-2.316,20.234,20.234,0,0,0,1.556-2.515,10.943,10.943,0,0,1-1.875.988,5.372,5.372,0,0,1-2.056.41,11.251,11.251,0,0,1-4.371-.809,9.515,9.515,0,0,1-3.3-2.256,9.841,9.841,0,0,1-2.1-3.443,12.648,12.648,0,0,1-.728-4.371,11.644,11.644,0,0,1,.828-4.381,11.341,11.341,0,0,1,2.285-3.612,10.723,10.723,0,0,1,3.453-2.445,10.423,10.423,0,0,1,4.33-.9,10.968,10.968,0,0,1,4.422.9,11.409,11.409,0,0,1,6.027,6.057A10.979,10.979,0,0,1,1439.414,463.709Zm-6.127,0a5.987,5.987,0,0,0-.381-2.115,5.652,5.652,0,0,0-1.066-1.8,5.114,5.114,0,0,0-1.647-1.236,4.821,4.821,0,0,0-2.117-.459,4.9,4.9,0,0,0-2.125.448,5.071,5.071,0,0,0-1.627,1.208,5.217,5.217,0,0,0-1.037,1.776,6.479,6.479,0,0,0-.359,2.175,6.323,6.323,0,0,0,.359,2.146,5.229,5.229,0,0,0,1.037,1.766,4.928,4.928,0,0,0,1.627,1.2,5,5,0,0,0,2.125.439,5.142,5.142,0,0,0,2.147-.439,4.894,4.894,0,0,0,1.646-1.2,5.424,5.424,0,0,0,1.049-1.766A6.185,6.185,0,0,0,1433.287,463.709Z" fill="#00ace7"/>
            <path id="Path_2746" data-name="Path 2746" d="M1448.9,479.777a3.486,3.486,0,0,1-.26,1.348,3.319,3.319,0,0,1-.717,1.088,3.487,3.487,0,0,1-1.078.728,3.437,3.437,0,0,1-2.666,0,3.579,3.579,0,0,1-1.1-.728,3.4,3.4,0,0,1-1.008-2.436,3.26,3.26,0,0,1,.27-1.317,3.389,3.389,0,0,1,.738-1.078,3.581,3.581,0,0,1,1.1-.729,3.437,3.437,0,0,1,2.666,0,3.489,3.489,0,0,1,1.078.729,3.318,3.318,0,0,1,.717,1.078A3.357,3.357,0,0,1,1448.9,479.777Z" fill="#00ace7"/>
            <path id="Path_2747" data-name="Path 2747" d="M1472.906,473.23a8.237,8.237,0,0,1-.679,3.333,8.722,8.722,0,0,1-4.571,4.572,8.248,8.248,0,0,1-3.332.678h-11.457v-5.729h11.457a2.827,2.827,0,0,0,2.635-1.736,2.961,2.961,0,0,0,0-2.235,2.834,2.834,0,0,0-2.635-1.737h-7.8v-5.729h7.8a2.832,2.832,0,0,0,2.026-.828,2.785,2.785,0,0,0,.609-.918,2.933,2.933,0,0,0,.219-1.128,2.828,2.828,0,0,0-.828-2.025,2.832,2.832,0,0,0-2.026-.828h-11.457v-5.729h11.457a8.248,8.248,0,0,1,3.332.678,8.725,8.725,0,0,1,4.571,4.571,8.248,8.248,0,0,1,.679,3.333,8.4,8.4,0,0,1-.578,3.065,8.687,8.687,0,0,1-1.637,2.664,8.686,8.686,0,0,1,1.637,2.664A8.4,8.4,0,0,1,1472.906,473.23Z" fill="#00ace7"/>
        </g>
        <g id="Group_748" data-name="Group 748">
            <path id="Path_2748" data-name="Path 2748" d="M1312.244,509.773a8.332,8.332,0,0,1-.678,3.344,8.676,8.676,0,0,1-4.57,4.58,8.249,8.249,0,0,1-3.334.679h-2.875a2.826,2.826,0,0,0-2.853,2.854v2.854h13.533v5.729H1292.2V521.23a8.317,8.317,0,0,1,.68-3.343,8.728,8.728,0,0,1,1.845-2.735,8.626,8.626,0,0,1,2.725-1.836,8.365,8.365,0,0,1,3.332-.669h2.875a2.832,2.832,0,0,0,2.026-.828,2.8,2.8,0,0,0,.609-.918,2.915,2.915,0,0,0,.219-1.128,2.829,2.829,0,0,0-2.854-2.853h-10.219v-5.729h10.219a8.265,8.265,0,0,1,3.334.678,8.718,8.718,0,0,1,4.57,4.571A8.265,8.265,0,0,1,1312.244,509.773Z" fill="#00ace7"/>
            <path id="Path_2749" data-name="Path 2749" d="M1336.3,520.811a9.27,9.27,0,0,1-.738,3.773,8.448,8.448,0,0,1-4.842,4.61,9.479,9.479,0,0,1-3.4.619h-11.537v-5.729h11.537a3.949,3.949,0,0,0,1.168-.18,2.913,2.913,0,0,0,1.057-.578,2.962,2.962,0,0,0,.76-1.017,3.551,3.551,0,0,0,.289-1.5,3.273,3.273,0,0,0-.289-1.407,3.09,3.09,0,0,0-.76-1.017,3.2,3.2,0,0,0-1.057-.619,3.439,3.439,0,0,0-1.168-.21h-11.537l1.678-16.367h17.664v5.729H1322.6l-.518,4.909h5.228a9.479,9.479,0,0,1,3.4.619,8.579,8.579,0,0,1,2.865,1.786,8.751,8.751,0,0,1,1.977,2.834A9.155,9.155,0,0,1,1336.3,520.811Z" fill="#00ace7"/>
            <path id="Path_2750" data-name="Path 2750" d="M1346.516,527.777a3.522,3.522,0,0,1-.26,1.348,3.324,3.324,0,0,1-.719,1.088,3.486,3.486,0,0,1-1.078.728,3.432,3.432,0,0,1-2.664,0,3.554,3.554,0,0,1-1.1-.728,3.4,3.4,0,0,1-1.008-2.436,3.261,3.261,0,0,1,.27-1.317,3.391,3.391,0,0,1,.738-1.078,3.556,3.556,0,0,1,1.1-.729,3.432,3.432,0,0,1,2.664,0,3.489,3.489,0,0,1,1.078.729,3.322,3.322,0,0,1,.719,1.078A3.392,3.392,0,0,1,1346.516,527.777Z" fill="#00ace7"/>
            <path id="Path_2751" data-name="Path 2751" d="M1370.287,509.773a8.3,8.3,0,0,1-.68,3.344,8.676,8.676,0,0,1-4.57,4.58,8.235,8.235,0,0,1-3.334.679h-2.873a2.821,2.821,0,0,0-1.117.22,2.777,2.777,0,0,0-.908.609,2.816,2.816,0,0,0-.828,2.025v2.854h13.531v5.729h-19.26V521.23a8.315,8.315,0,0,1,.678-3.343,8.8,8.8,0,0,1,1.845-2.735,8.67,8.67,0,0,1,2.725-1.836,8.375,8.375,0,0,1,3.334-.669h2.873a2.828,2.828,0,0,0,2.027-.828,2.782,2.782,0,0,0,.608-.918,2.916,2.916,0,0,0,.221-1.128,2.845,2.845,0,0,0-.829-2.025,2.828,2.828,0,0,0-2.027-.828h-10.219v-5.729H1361.7a8.251,8.251,0,0,1,3.334.678,8.718,8.718,0,0,1,4.57,4.571A8.232,8.232,0,0,1,1370.287,509.773Z" fill="#00ace7"/>
        </g>
        <rect id="Rectangle_2428" data-name="Rectangle 2428" width="350.541" height="47.567" transform="translate(432.523 596.636) rotate(90)" fill="#dfebe1" stroke="#fff" stroke-miterlimit="10" stroke-width="1"/>
        <rect id="Rectangle_2429" data-name="Rectangle 2429" width="389" height="47.567" transform="translate(480.462 596.636) rotate(90)" fill="#dfebe1" stroke="#fff" stroke-miterlimit="10" stroke-width="1"/>
        <rect id="Rectangle_2430" data-name="Rectangle 2430" width="136.613" height="47.567" transform="translate(528.4 596.636) rotate(90)" fill="#dfebe1" stroke="#fff" stroke-miterlimit="10" stroke-width="1"/>
        <rect id="Rectangle_2431" data-name="Rectangle 2431" width="188.693" height="47.567" transform="translate(576.339 596.636) rotate(90)" fill="#dfebe1" stroke="#fff" stroke-miterlimit="10" stroke-width="1"/>
        <rect id="Rectangle_2432" data-name="Rectangle 2432" width="240.773" height="47.567" transform="translate(624.277 596.636) rotate(90)" fill="#dfebe1" stroke="#fff" stroke-miterlimit="10" stroke-width="1"/>
        <g id="Group_749" data-name="Group 749">
            <path id="Path_2752" data-name="Path 2752" d="M597.321,797.51a27.42,27.42,0,0,1,5.694.588,25.786,25.786,0,0,1,5.249,1.7,22.908,22.908,0,0,1,4.563,2.717,19.747,19.747,0,0,1,3.654,3.635v8.277a23.977,23.977,0,0,0-1.837-2.524,27.033,27.033,0,0,0-2.176-2.32,25.122,25.122,0,0,0-2.45-2.043,21.961,21.961,0,0,0-2.663-1.668,11.709,11.709,0,0,1,1.046,2.011,5.81,5.81,0,0,1,.433,2.2,12.2,12.2,0,0,1-.855,4.685,10.242,10.242,0,0,1-2.387,3.539,10.458,10.458,0,0,1-3.645,2.246,13.253,13.253,0,0,1-4.626.78,12.2,12.2,0,0,1-4.636-.888A12.055,12.055,0,0,1,588.861,818a11.53,11.53,0,0,1-2.588-3.7,11.311,11.311,0,0,1-.951-4.642,11.9,11.9,0,0,1,.951-4.737,12.309,12.309,0,0,1,2.588-3.86,12.184,12.184,0,0,1,3.824-2.6A11.484,11.484,0,0,1,597.321,797.51Zm0,6.565a6.3,6.3,0,0,0-2.239.407,5.985,5.985,0,0,0-1.9,1.144,5.5,5.5,0,0,0-1.31,1.765,5.242,5.242,0,0,0-.485,2.266,5.326,5.326,0,0,0,.474,2.279,5.476,5.476,0,0,0,1.279,1.743,5.546,5.546,0,0,0,1.88,1.111,6.783,6.783,0,0,0,2.3.386,6.629,6.629,0,0,0,2.271-.386,5.558,5.558,0,0,0,1.87-1.111,5.31,5.31,0,0,0,1.267-1.743,5.413,5.413,0,0,0,.465-2.279,5.559,5.559,0,0,0-.465-2.3,5.233,5.233,0,0,0-1.267-1.764,5.684,5.684,0,0,0-1.87-1.122A6.472,6.472,0,0,0,597.321,804.075Z" fill="#ccc"/>
            <path id="Path_2753" data-name="Path 2753" d="M607.82,770.306a7.787,7.787,0,0,1,3.782.941,9.4,9.4,0,0,1,2.989,2.577,12.587,12.587,0,0,1,1.965,3.818,15.725,15.725,0,0,1,0,9.324,12.576,12.576,0,0,1-1.965,3.818,9.426,9.426,0,0,1-2.989,2.577,7.8,7.8,0,0,1-3.782.941,8.487,8.487,0,0,1-4.436-1.251,9.477,9.477,0,0,1-1.827-1.465,8.926,8.926,0,0,1-1.426-1.925,7.184,7.184,0,0,1-1.31,1.187,9.428,9.428,0,0,1-1.563.9,8.465,8.465,0,0,1-1.7.567,8.125,8.125,0,0,1-1.744.193,7.145,7.145,0,0,1-3.327-.8,8.854,8.854,0,0,1-2.724-2.191,10.6,10.6,0,0,1-1.849-3.251,11.98,11.98,0,0,1,0-7.935,10.723,10.723,0,0,1,1.849-3.262,8.806,8.806,0,0,1,2.724-2.2,7.155,7.155,0,0,1,3.327-.8,7.665,7.665,0,0,1,1.744.2,9.856,9.856,0,0,1,1.711.566,8.858,8.858,0,0,1,1.574.888,7.853,7.853,0,0,1,1.33,1.187,9.351,9.351,0,0,1,1.416-1.9,8.91,8.91,0,0,1,1.816-1.454,8.73,8.73,0,0,1,2.113-.919A8.316,8.316,0,0,1,607.82,770.306Zm-13.35,7.763a3,3,0,0,0-1.384.331,3.731,3.731,0,0,0-1.13.9,4.19,4.19,0,0,0-.761,1.337,4.821,4.821,0,0,0-.274,1.625,4.89,4.89,0,0,0,.274,1.647,4.185,4.185,0,0,0,.761,1.336,3.716,3.716,0,0,0,1.13.9,2.984,2.984,0,0,0,1.384.332,2.919,2.919,0,0,0,1.373-.332,3.513,3.513,0,0,0,1.1-.9,4.424,4.424,0,0,0,.74-1.336,4.892,4.892,0,0,0,.274-1.647,4.823,4.823,0,0,0-.274-1.625,4.429,4.429,0,0,0-.74-1.337,3.526,3.526,0,0,0-1.1-.9A2.93,2.93,0,0,0,594.47,778.069Zm13.181-1.668a4.03,4.03,0,0,0-1.89.459,4.942,4.942,0,0,0-1.532,1.263,6.2,6.2,0,0,0-1.035,1.882,6.86,6.86,0,0,0-.381,2.3,6.766,6.766,0,0,0,.381,2.288,6.225,6.225,0,0,0,1.035,1.872,4.938,4.938,0,0,0,1.532,1.262,4.019,4.019,0,0,0,1.89.46,3.838,3.838,0,0,0,1.86-.46,4.587,4.587,0,0,0,1.457-1.262,6.233,6.233,0,0,0,.961-1.872,7.348,7.348,0,0,0,.348-2.288,7.45,7.45,0,0,0-.348-2.3,6.208,6.208,0,0,0-.961-1.882,4.591,4.591,0,0,0-1.457-1.263A3.848,3.848,0,0,0,607.651,776.4Z" fill="#ccc"/>
            <path id="Path_2754" data-name="Path 2754" d="M614.327,759.355a3.652,3.652,0,0,1,1.426.279,3.472,3.472,0,0,1,1.151.769,3.7,3.7,0,0,1,.771,1.156,3.715,3.715,0,0,1,0,2.854,3.813,3.813,0,0,1-.771,1.177,3.57,3.57,0,0,1-2.577,1.08,3.422,3.422,0,0,1-1.394-.289,3.583,3.583,0,0,1-1.141-.791,3.814,3.814,0,0,1-.771-1.177,3.7,3.7,0,0,1,0-2.854,3.7,3.7,0,0,1,.771-1.156,3.56,3.56,0,0,1,2.535-1.048Z" fill="#ccc"/>
            <path id="Path_2755" data-name="Path 2755" d="M595.272,733.884a8.728,8.728,0,0,1,3.539.726,9.273,9.273,0,0,1,2.894,1.979,9.412,9.412,0,0,1,1.954,2.92,8.928,8.928,0,0,1,.718,3.571v3.08a3.053,3.053,0,0,0,.877,2.171,2.987,2.987,0,0,0,.961.651,2.952,2.952,0,0,0,1.182.236h3.022v-14.5h6.062v20.638H607.4a8.715,8.715,0,0,1-3.538-.727,9.209,9.209,0,0,1-4.838-4.9,9.059,9.059,0,0,1-.707-3.571v-3.08a3.059,3.059,0,0,0-.876-2.171,2.972,2.972,0,0,0-.972-.652,3.068,3.068,0,0,0-1.194-.236,2.985,2.985,0,0,0-2.144.888,3.053,3.053,0,0,0-.877,2.171v10.95h-6.063V743.08a8.947,8.947,0,0,1,.719-3.571,9.293,9.293,0,0,1,4.837-4.9A8.655,8.655,0,0,1,595.272,733.884Z" fill="#ccc"/>
            <path id="Path_2756" data-name="Path 2756" d="M616.481,711.877v5.881H584.857v-5.881H604.8l-10.9-8.705v-6.715l9.421,7.592,13.161-7.592v6.715l-8.217,4.641,5.323,4.064Z" fill="#ccc"/>
            <path id="Path_2757" data-name="Path 2757" d="M616.481,665.018v5.817H602.116a2.831,2.831,0,0,0-1.119.225,2.893,2.893,0,0,0-.93.63,2.934,2.934,0,0,0-.844,2.075,2.831,2.831,0,0,0,.844,2.043,3,3,0,0,0,.93.62,2.848,2.848,0,0,0,1.119.224h14.365v5.839H602.116a2.814,2.814,0,0,0-1.119.225,2.881,2.881,0,0,0-.93.631,2.924,2.924,0,0,0-.844,2.074,2.87,2.87,0,0,0,.221,1.123,2.831,2.831,0,0,0,.623.92,2.981,2.981,0,0,0,.93.62,2.85,2.85,0,0,0,1.119.225h14.365v5.837H593.856v-1.411l1.733-1.583a9.428,9.428,0,0,1-1.573-2.683,8.472,8.472,0,0,1-.561-3.048,8.626,8.626,0,0,1,.592-3.133A6.333,6.333,0,0,1,596.1,679.6a5.9,5.9,0,0,1-1.225-1.219,6.846,6.846,0,0,1-.824-1.444,7.2,7.2,0,0,1-.454-1.572,9.562,9.562,0,0,1-.138-1.6,8.639,8.639,0,0,1,.677-3.411,8.817,8.817,0,0,1,1.847-2.781,8.687,8.687,0,0,1,2.757-1.871,8.441,8.441,0,0,1,3.38-.684Z" fill="#ccc"/>
        </g>
        <g id="Group_750" data-name="Group 750">
            <path id="Path_2758" data-name="Path 2758" d="M538.217,749.246l30.293,10.479v6.566l-24.231-8.619v13.047h-6.062Z" fill="#ccc"/>
            <path id="Path_2759" data-name="Path 2759" d="M538.217,726.383l30.293,10.478v6.567l-24.231-8.619v13.046h-6.062Z" fill="#ccc"/>
            <path id="Path_2760" data-name="Path 2760" d="M566.355,718.982a3.651,3.651,0,0,1,1.426.278,3.491,3.491,0,0,1,1.152.769,3.7,3.7,0,0,1,.77,1.157,3.713,3.713,0,0,1,0,2.853,3.827,3.827,0,0,1-.77,1.178,3.574,3.574,0,0,1-2.578,1.08,3.439,3.439,0,0,1-1.394-.289,3.624,3.624,0,0,1-1.141-.791,3.829,3.829,0,0,1-.771-1.178,3.712,3.712,0,0,1,0-2.853,3.7,3.7,0,0,1,.771-1.157,3.554,3.554,0,0,1,2.535-1.047Z" fill="#ccc"/>
            <path id="Path_2761" data-name="Path 2761" d="M558.982,692.74a9.72,9.72,0,0,1,3.994.791,9.079,9.079,0,0,1,3,2.117,9.272,9.272,0,0,1,1.879,3.071,10.249,10.249,0,0,1,.656,3.646v12.362h-6.063V702.365a4.312,4.312,0,0,0-.19-1.252,3.1,3.1,0,0,0-1.691-1.947,3.694,3.694,0,0,0-1.584-.309,3.424,3.424,0,0,0-1.489.309,3.28,3.28,0,0,0-1.077.814,3.489,3.489,0,0,0-.655,1.133,3.751,3.751,0,0,0-.222,1.252v12.362l-17.322-1.8V694h6.062v13.41l5.2.555v-5.6a10.292,10.292,0,0,1,.654-3.646,9.056,9.056,0,0,1,4.89-5.188A9.586,9.586,0,0,1,558.982,692.74Z" fill="#ccc"/>
            <path id="Path_2762" data-name="Path 2762" d="M568.51,670.84v5.881H536.886V670.84h19.942l-10.9-8.705V655.42l9.421,7.592,13.161-7.592v6.715l-8.218,4.642,5.323,4.063Z" fill="#ccc"/>
            <path id="Path_2763" data-name="Path 2763" d="M568.51,623.98V629.8H554.145a2.831,2.831,0,0,0-1.12.224,2.907,2.907,0,0,0-1.552,1.573,2.919,2.919,0,0,0-.222,1.133,2.855,2.855,0,0,0,.222,1.123,2.8,2.8,0,0,0,.623.919,2.949,2.949,0,0,0,.929.62,2.831,2.831,0,0,0,1.12.224H568.51v5.84H554.145a2.862,2.862,0,0,0-2.049.856,2.881,2.881,0,0,0-.623.939,2.929,2.929,0,0,0-.222,1.135,2.855,2.855,0,0,0,.222,1.123,2.81,2.81,0,0,0,.623.92,3,3,0,0,0,.929.619,2.831,2.831,0,0,0,1.12.224H568.51v5.838H545.885V651.7l1.732-1.584a9.427,9.427,0,0,1-1.573-2.683,8.475,8.475,0,0,1-.561-3.047,8.635,8.635,0,0,1,.592-3.133,6.352,6.352,0,0,1,2.049-2.686,5.847,5.847,0,0,1-1.225-1.218,6.866,6.866,0,0,1-.824-1.444,7.188,7.188,0,0,1-.454-1.572,9.556,9.556,0,0,1-.138-1.6,8.653,8.653,0,0,1,.677-3.413,8.824,8.824,0,0,1,1.848-2.779,8.647,8.647,0,0,1,2.757-1.871,8.419,8.419,0,0,1,3.38-.686Z" fill="#ccc"/>
        </g>
        <g id="Group_751" data-name="Group 751">
            <path id="Path_2764" data-name="Path 2764" d="M509.012,701.459a9.717,9.717,0,0,1,3.993.793,9,9,0,0,1,3,2.117,9.252,9.252,0,0,1,1.88,3.069,10.266,10.266,0,0,1,.655,3.646v12.361h-6.062V711.084a4.322,4.322,0,0,0-.191-1.252,3.185,3.185,0,0,0-.612-1.133,3.153,3.153,0,0,0-1.078-.812,3.67,3.67,0,0,0-1.584-.311,3.4,3.4,0,0,0-1.49.311,3.3,3.3,0,0,0-1.077.812,3.509,3.509,0,0,0-.655,1.133,3.785,3.785,0,0,0-.222,1.252v12.361l-17.322-1.8V702.723h6.063v13.408l5.2.557v-5.6a10.31,10.31,0,0,1,.654-3.646,9.066,9.066,0,0,1,4.891-5.186A9.582,9.582,0,0,1,509.012,701.459Z" fill="#ccc"/>
            <path id="Path_2765" data-name="Path 2765" d="M509.012,675.795a9.717,9.717,0,0,1,3.993.793,9,9,0,0,1,3,2.117,9.258,9.258,0,0,1,1.88,3.068,10.276,10.276,0,0,1,.655,3.647v12.361h-6.062V685.42a4.321,4.321,0,0,0-.191-1.252,3.09,3.09,0,0,0-1.69-1.945,3.67,3.67,0,0,0-1.584-.311,3.4,3.4,0,0,0-1.49.311,3.3,3.3,0,0,0-1.077.812,3.509,3.509,0,0,0-.655,1.133,3.785,3.785,0,0,0-.222,1.252v12.361l-17.322-1.8V677.059h6.063v13.408l5.2.556v-5.6a10.319,10.319,0,0,1,.654-3.647,9.068,9.068,0,0,1,4.891-5.185A9.582,9.582,0,0,1,509.012,675.795Z" fill="#ccc"/>
            <path id="Path_2766" data-name="Path 2766" d="M516.385,664.846a3.655,3.655,0,0,1,1.426.279,3.458,3.458,0,0,1,1.151.77,3.7,3.7,0,0,1,.77,1.154,3.705,3.705,0,0,1,0,2.855,3.782,3.782,0,0,1-.77,1.176,3.57,3.57,0,0,1-2.577,1.08,3.413,3.413,0,0,1-1.4-.289,3.542,3.542,0,0,1-1.14-.791,3.788,3.788,0,0,1-.772-1.176,3.718,3.718,0,0,1,0-2.855,3.709,3.709,0,0,1,.772-1.154,3.485,3.485,0,0,1,1.14-.77A3.525,3.525,0,0,1,516.385,664.846Z" fill="#ccc"/>
            <path id="Path_2767" data-name="Path 2767" d="M507.428,637.279a12.187,12.187,0,0,1,8.439,3.336,11.483,11.483,0,0,1,2.587,3.711,11.36,11.36,0,0,1,.951,4.651,11.821,11.821,0,0,1-.951,4.716,12.194,12.194,0,0,1-6.4,6.459,11.4,11.4,0,0,1-4.626.952,27.914,27.914,0,0,1-5.694-.579,25.429,25.429,0,0,1-5.259-1.689,22.792,22.792,0,0,1-4.575-2.715,19.786,19.786,0,0,1-3.654-3.637v-8.277a25.572,25.572,0,0,0,1.838,2.5,26.876,26.876,0,0,0,2.176,2.32,24.814,24.814,0,0,0,2.45,2.041,20.994,20.994,0,0,0,2.684,1.67,10.948,10.948,0,0,1-1.046-2,5.923,5.923,0,0,1-.434-2.215,12.192,12.192,0,0,1,.857-4.672,10.117,10.117,0,0,1,2.386-3.541,10.694,10.694,0,0,1,3.644-2.244A13.109,13.109,0,0,1,507.428,637.279Zm0,6.137a6.482,6.482,0,0,0-2.272.4,5.817,5.817,0,0,0-1.88,1.123A5.2,5.2,0,0,0,502,646.689a5.876,5.876,0,0,0,0,4.577,5.108,5.108,0,0,0,1.278,1.742,5.746,5.746,0,0,0,1.88,1.1,6.615,6.615,0,0,0,2.272.385,6.372,6.372,0,0,0,2.228-.394,5.991,5.991,0,0,0,1.891-1.123,5.417,5.417,0,0,0,1.309-1.743,5.146,5.146,0,0,0,.487-2.257,5.484,5.484,0,0,0-.465-2.288,5.186,5.186,0,0,0-1.278-1.753,5.8,5.8,0,0,0-1.891-1.123A6.565,6.565,0,0,0,507.428,643.416Z" fill="#ccc"/>
        </g>
        <g id="Group_752" data-name="Group 752">
            <path id="Path_2768" data-name="Path 2768" d="M471.567,956.562V962.7h-24.23v3.059h-6.063v-9.2Z" fill="#ccc"/>
            <path id="Path_2769" data-name="Path 2769" d="M460.456,928.053a12.181,12.181,0,0,1,8.44,3.336,11.476,11.476,0,0,1,3.538,8.362,11.822,11.822,0,0,1-.952,4.716,12.185,12.185,0,0,1-6.4,6.459,11.406,11.406,0,0,1-4.626.952,27.9,27.9,0,0,1-5.693-.578,25.481,25.481,0,0,1-5.26-1.69,22.787,22.787,0,0,1-4.574-2.715,19.821,19.821,0,0,1-3.655-3.636v-8.278a25.5,25.5,0,0,0,1.838,2.5,27.05,27.05,0,0,0,2.176,2.321,25.08,25.08,0,0,0,2.45,2.042,21.16,21.16,0,0,0,2.684,1.669,11.047,11.047,0,0,1-1.046-2,5.914,5.914,0,0,1-.434-2.214,12.215,12.215,0,0,1,.857-4.673,10.093,10.093,0,0,1,2.387-3.54,10.651,10.651,0,0,1,3.643-2.245A13.085,13.085,0,0,1,460.456,928.053Zm0,6.137a6.472,6.472,0,0,0-2.271.4,5.852,5.852,0,0,0-1.88,1.123,5.206,5.206,0,0,0-1.279,1.754,5.885,5.885,0,0,0,0,4.576,5.1,5.1,0,0,0,1.279,1.743,5.765,5.765,0,0,0,1.88,1.1,6.629,6.629,0,0,0,2.271.385,6.333,6.333,0,0,0,2.229-.4,5.969,5.969,0,0,0,1.89-1.123,5.394,5.394,0,0,0,1.31-1.742,5.166,5.166,0,0,0,.486-2.257,5.481,5.481,0,0,0-.465-2.288,5.176,5.176,0,0,0-1.278-1.754,5.829,5.829,0,0,0-1.891-1.123A6.556,6.556,0,0,0,460.456,934.19Z" fill="#ccc"/>
            <path id="Path_2770" data-name="Path 2770" d="M471.567,916.119v6.138h-24.23v3.058h-6.063v-9.2Z" fill="#ccc"/>
            <path id="Path_2771" data-name="Path 2771" d="M469.413,903.65a3.651,3.651,0,0,1,1.426.279,3.47,3.47,0,0,1,1.151.769,3.721,3.721,0,0,1,.771,1.156,3.715,3.715,0,0,1,0,2.854,3.831,3.831,0,0,1-.771,1.177,3.569,3.569,0,0,1-2.577,1.08,3.423,3.423,0,0,1-1.394-.289,3.584,3.584,0,0,1-1.141-.791,3.834,3.834,0,0,1-.772-1.177,3.715,3.715,0,0,1,0-2.854,3.724,3.724,0,0,1,.772-1.156,3.56,3.56,0,0,1,2.535-1.048Z" fill="#ccc"/>
            <path id="Path_2772" data-name="Path 2772" d="M462.04,877.408a9.71,9.71,0,0,1,3.993.792,9.045,9.045,0,0,1,3,2.117,9.243,9.243,0,0,1,1.88,3.07,10.248,10.248,0,0,1,.655,3.646V899.4h-6.062V887.033a4.317,4.317,0,0,0-.191-1.252,3.1,3.1,0,0,0-1.69-1.946,3.686,3.686,0,0,0-1.584-.31,3.407,3.407,0,0,0-1.489.31,3.277,3.277,0,0,0-1.077.813,3.52,3.52,0,0,0-.656,1.133,3.779,3.779,0,0,0-.221,1.252V899.4l-17.323-1.8V878.671h6.063V892.08l5.2.556v-5.6a10.314,10.314,0,0,1,.654-3.646,9.064,9.064,0,0,1,4.891-5.187A9.581,9.581,0,0,1,462.04,877.408Z" fill="#ccc"/>
            <path id="Path_2773" data-name="Path 2773" d="M471.567,855.509v5.881H439.943v-5.881h19.943l-10.9-8.7v-6.715l9.421,7.592,13.161-7.592V846.8l-8.217,4.641,5.323,4.064Z" fill="#ccc"/>
            <path id="Path_2774" data-name="Path 2774" d="M471.567,808.649v5.818H457.2a2.849,2.849,0,0,0-1.119.224,2.9,2.9,0,0,0-.93.631,2.934,2.934,0,0,0-.844,2.074,2.867,2.867,0,0,0,.221,1.124,2.827,2.827,0,0,0,.623.919,2.974,2.974,0,0,0,.93.621,2.849,2.849,0,0,0,1.119.224h14.365v5.839H457.2a2.814,2.814,0,0,0-1.119.225,2.87,2.87,0,0,0-.93.631,2.925,2.925,0,0,0-.844,2.074,2.832,2.832,0,0,0,.844,2.043,3,3,0,0,0,.93.62,2.849,2.849,0,0,0,1.119.224h14.365v5.838H448.942v-1.411l1.733-1.583A9.429,9.429,0,0,1,449.1,832.1a8.476,8.476,0,0,1-.561-3.048,8.619,8.619,0,0,1,.592-3.133,6.336,6.336,0,0,1,2.049-2.685,5.87,5.87,0,0,1-1.225-1.218,6.847,6.847,0,0,1-.824-1.444,7.218,7.218,0,0,1-.454-1.572,9.571,9.571,0,0,1-.138-1.6,8.646,8.646,0,0,1,.677-3.411,8.825,8.825,0,0,1,1.847-2.78,8.687,8.687,0,0,1,2.757-1.871,8.443,8.443,0,0,1,3.38-.685Z" fill="#ccc"/>
        </g>
        <g id="Group_753" data-name="Group 753">
            <path id="Path_2775" data-name="Path 2775" d="M425.6,924.634v6.137H401.365v3.059H395.3v-9.2Z" fill="#ccc"/>
            <path id="Path_2776" data-name="Path 2776" d="M419.533,895.782v3.059H425.6v6.138h-6.063v15.334l-24.23-3.421v-6.139l18.188,2.674v-8.448H398.345v-6.138h15.146v-3.059Z" fill="#ccc"/>
            <path id="Path_2777" data-name="Path 2777" d="M414.484,868.493a12.192,12.192,0,0,1,8.44,3.336,11.466,11.466,0,0,1,3.538,8.362,11.818,11.818,0,0,1-.951,4.716,12.182,12.182,0,0,1-6.4,6.459,11.405,11.405,0,0,1-4.626.952,27.907,27.907,0,0,1-5.693-.578,25.56,25.56,0,0,1-5.26-1.689,22.821,22.821,0,0,1-4.574-2.716A19.752,19.752,0,0,1,395.3,883.7v-8.277a25.564,25.564,0,0,0,1.838,2.5,26.869,26.869,0,0,0,2.175,2.32,24.973,24.973,0,0,0,2.451,2.042,21.039,21.039,0,0,0,2.683,1.669,10.977,10.977,0,0,1-1.046-2,5.913,5.913,0,0,1-.433-2.214,12.219,12.219,0,0,1,.856-4.673,10.1,10.1,0,0,1,2.387-3.54,10.682,10.682,0,0,1,3.643-2.245A13.117,13.117,0,0,1,414.484,868.493Zm0,6.138a6.5,6.5,0,0,0-2.271.4,5.852,5.852,0,0,0-1.88,1.123,5.209,5.209,0,0,0-1.278,1.754,5.873,5.873,0,0,0,0,4.576,5.093,5.093,0,0,0,1.278,1.744,5.781,5.781,0,0,0,1.88,1.1,6.637,6.637,0,0,0,2.271.385,6.329,6.329,0,0,0,2.229-.4,5.936,5.936,0,0,0,1.891-1.123,5.405,5.405,0,0,0,1.309-1.742,5.16,5.16,0,0,0,.486-2.257,5.5,5.5,0,0,0-.464-2.288,5.212,5.212,0,0,0-1.279-1.754,5.835,5.835,0,0,0-1.89-1.123A6.588,6.588,0,0,0,414.484,874.631Z" fill="#ccc"/>
            <path id="Path_2778" data-name="Path 2778" d="M423.441,857.586a3.669,3.669,0,0,1,1.426.278,3.494,3.494,0,0,1,1.152.77,3.708,3.708,0,0,1,.77,1.155,3.717,3.717,0,0,1,0,2.855,3.805,3.805,0,0,1-.77,1.176,3.574,3.574,0,0,1-2.578,1.08,3.406,3.406,0,0,1-1.394-.289,3.566,3.566,0,0,1-1.141-.791,3.808,3.808,0,0,1-.771-1.176,3.717,3.717,0,0,1,0-2.855,3.711,3.711,0,0,1,.771-1.155,3.549,3.549,0,0,1,2.535-1.048Z" fill="#ccc"/>
            <path id="Path_2779" data-name="Path 2779" d="M416.512,831.857a8.636,8.636,0,0,1,3.528.728,9.26,9.26,0,0,1,2.884,1.978,9.436,9.436,0,0,1,1.954,2.919,8.953,8.953,0,0,1,.718,3.572V853.33h-6.063V841.054a3.078,3.078,0,0,0-.232-1.2,3.028,3.028,0,0,0-.645-.973,3.016,3.016,0,0,0-4.288,0,3.06,3.06,0,0,0-.877,2.171v8.362h-6.062v-8.362a3.06,3.06,0,0,0-.877-2.171,2.992,2.992,0,0,0-.972-.653,3.062,3.062,0,0,0-1.193-.235,2.993,2.993,0,0,0-1.184.235,3.01,3.01,0,0,0-1.605,1.626,3.079,3.079,0,0,0-.233,1.2V853.33H395.3V841.054a8.953,8.953,0,0,1,.718-3.572,9.386,9.386,0,0,1,1.955-2.919,9.251,9.251,0,0,1,2.882-1.978,8.641,8.641,0,0,1,3.529-.728,8.758,8.758,0,0,1,3.242.621,9.145,9.145,0,0,1,2.82,1.753,9.162,9.162,0,0,1,2.821-1.753A8.75,8.75,0,0,1,416.512,831.857Z" fill="#ccc"/>
            <path id="Path_2780" data-name="Path 2780" d="M425.6,809.4v5.881H393.972V809.4h19.942l-10.9-8.705v-6.715l9.421,7.592,13.161-7.592V800.7l-8.218,4.642L422.7,809.4Z" fill="#ccc"/>
            <path id="Path_2781" data-name="Path 2781" d="M425.6,762.542v5.817H411.23a2.862,2.862,0,0,0-2.048.856,2.9,2.9,0,0,0-.623.941,2.931,2.931,0,0,0-.222,1.133,2.849,2.849,0,0,0,.222,1.123,2.8,2.8,0,0,0,.623.92,2.949,2.949,0,0,0,.929.62,2.832,2.832,0,0,0,1.119.225H425.6v5.839H411.23a2.832,2.832,0,0,0-1.119.224,2.927,2.927,0,0,0-1.774,2.705,2.846,2.846,0,0,0,.222,1.123,2.79,2.79,0,0,0,.623.92,2.965,2.965,0,0,0,.929.62,2.831,2.831,0,0,0,1.119.225H425.6v5.838H402.971V790.26l1.732-1.583a9.433,9.433,0,0,1-1.573-2.684,8.467,8.467,0,0,1-.561-3.048,8.638,8.638,0,0,1,.592-3.132,6.338,6.338,0,0,1,2.049-2.685,5.9,5.9,0,0,1-1.225-1.219,6.839,6.839,0,0,1-.824-1.443,7.219,7.219,0,0,1-.454-1.572,9.577,9.577,0,0,1-.138-1.6,8.639,8.639,0,0,1,.677-3.411,8.816,8.816,0,0,1,1.848-2.78,8.665,8.665,0,0,1,2.757-1.871,8.435,8.435,0,0,1,3.379-.685Z" fill="#ccc"/>
        </g>
        <text id="Anders_dan_plastic_flesjes" data-name="Anders dan plastic flesjes" transform="translate(991.408 983.016)" font-size="50" font-family="Helvetica"><tspan x="0" y="0">Anders dan plastic flesjes</tspan></text>
        <path id="Path_2782" data-name="Path 2782" d="M1775.949,1016.266h-3.2a4.286,4.286,0,0,1-4.273-4.273v-27.06c.436-.958.857-1.964,1.255-3.018a50.624,50.624,0,0,0,3.018-13.005h3.2a50.706,50.706,0,0,0,3.018,13.005c.4,1.054.819,2.06,1.255,3.018v27.06A4.286,4.286,0,0,1,1775.949,1016.266Z" fill="#ff8d00"/>
        <g id="Group_754" data-name="Group 754">
            <path id="Path_2783" data-name="Path 2783" d="M1732.363,1012.769a15.083,15.083,0,0,1-11.749,0V992.118a2.565,2.565,0,0,1,1.175-1.657c1.159-.57,2.027.7,4.047.863,2.574.2,3.893-1.647,5.352-.863a2.69,2.69,0,0,1,1.175,1.657Z" fill="#00ace7"/>
            <path id="Path_2784" data-name="Path 2784" d="M1721.673,990.6c0,.724,2.134,1.312,4.767,1.312s4.767-.588,4.767-1.312-2.134-1.311-4.767-1.311S1721.673,989.873,1721.673,990.6Z" fill="#0071c1"/>
            <path id="Path_2785" data-name="Path 2785" d="M1720.614,1007.235" fill="#00ace7" stroke="#000" stroke-miterlimit="10" stroke-width="0.25"/>
        </g>
    </g>
</svg>
