<svg xmlns="http://www.w3.org/2000/svg" width="146.339" height="146.5" viewBox="0 0 146.339 146.5">
    <g id="zyrkr9" transform="translate(0 0)">
        <g id="Group_934" data-name="Group 934" transform="translate(0 0)">
            <path id="Path_3354" data-name="Path 3354" d="M842.632,7.252c12.248,0,24.5-.045,36.743.02,5.56.03,11.155.208,16.441,2.184,11.346,4.242,18.2,12.375,20.348,24.3a50.821,50.821,0,0,1,.695,9.052q-.064,37.62-.292,75.24c-.04,5.983-.708,11.938-3.478,17.378-4.864,9.551-12.544,15.373-23.2,17.161-6.867,1.152-13.787.592-20.685.762-.862.021-.911-.433-.908-1.1q.075-18.152.127-36.3c.014-3.583.059-7.165.1-10.748.018-1.8.024-1.8,1.777-1.792,4.387.029,8.775.032,13.161.108,1.052.018,1.534-.186,1.654-1.383.545-5.454,1.184-10.9,1.846-16.341.122-1-.248-1.163-1.116-1.164-5.228,0-10.456-.074-15.684-.064-.961,0-1.246-.268-1.231-1.24.065-4.277.05-8.555.063-12.832a7.338,7.338,0,0,1,7.046-7.015c3.583-.01,7.166,0,10.748.059.94.016,1.281-.248,1.278-1.231q-.03-7.732.063-15.465c.01-.9-.326-1.127-1.148-1.13-5.338-.018-10.686-.3-16.011-.062-11.609.521-19.239,7.211-21.7,18.706-.96,4.49-.544,9.033-.652,13.555q-.07,2.9.005,5.813c.022.822-.248,1.067-1.062,1.058-4.679-.053-9.36-.031-14.038-.1-1.021-.015-1.4.224-1.394,1.319q.038,8.555-.072,17.11c-.011.992.262,1.33,1.3,1.322,4.643-.036,9.286.038,13.929.005.977-.007,1.232.292,1.226,1.247q-.15,23.141-.231,46.282c0,.755.02,1.309-1.052,1.3-14.331-.145-28.662-.176-42.992-.4-5.737-.089-11.388-1.026-16.528-3.788a30.513,30.513,0,0,1-16.365-22.464c-1.022-5.655-.806-11.362-.783-17.06q.1-23.527.238-47.053.054-9.432.168-18.864c.064-4.981.25-9.98,1.877-14.734,4.027-11.767,12.205-18.874,24.437-21.224,5.714-1.1,11.51-.776,17.28-.79,9.359-.022,18.719-.006,28.078-.006Q842.633,7.067,842.632,7.252Z" transform="translate(-770.52 -6.854)" fill="#00ace7"/>
        </g>
    </g>
</svg>
