<svg xmlns="http://www.w3.org/2000/svg" width="146.518" height="146.5" viewBox="0 0 146.518 146.5">
    <g id="qYV2vn.tif" transform="translate(0)">
        <g id="Group_1005" data-name="Group 1005" transform="translate(0 0)">
            <path id="Path_3690" data-name="Path 3690" d="M-619.26-537.258h-72.952a3.141,3.141,0,0,0-.549-.133c-1.022-.064-2.044-.126-3.067-.162a51.9,51.9,0,0,1-8.014-.882,30.819,30.819,0,0,1-24.23-22.642,48.57,48.57,0,0,1-1.365-9.817c-.049-.947-.167-1.891-.253-2.836V-647.1c.086-.969.206-1.936.253-2.907a53.645,53.645,0,0,1,.882-7.878,30.763,30.763,0,0,1,11.664-19A32.547,32.547,0,0,1-700-683.3a98.942,98.942,0,0,1,10.353-.451q32.286-.006,64.573,0c2.955,0,5.91.069,8.863.169a45.111,45.111,0,0,1,8.077,1.008,30.821,30.821,0,0,1,23.29,21.721,45.211,45.211,0,0,1,1.626,12.439q.069,16.767.045,33.534,0,21.272-.052,42.543a44.16,44.16,0,0,1-.995,9.513c-2.494,11.172-9.042,18.917-19.73,23.077a38.634,38.634,0,0,1-11.683,2.22C-616.842-537.451-618.051-537.349-619.26-537.258Zm16.575-73.3h.016q0-3.325,0-6.65c0-5.792-.044-11.583-.436-17.365a36.847,36.847,0,0,0-2.152-10.541,27.053,27.053,0,0,0-16.414-16.471A35.811,35.811,0,0,0-632.7-663.8q-6.5-.316-13.006-.394c-6.364-.067-12.729-.054-19.093-.02-5.505.029-11.013.058-16.5.52a36.632,36.632,0,0,0-9.076,1.879A27.05,27.05,0,0,0-706.3-647.763a33.239,33.239,0,0,0-3.063,11.039,100.006,100.006,0,0,0-.549,10.491c-.065,8.032-.063,16.064-.064,24.1,0,5.458.044,10.916.481,16.361a35.955,35.955,0,0,0,2.026,9.625,27.092,27.092,0,0,0,16.494,16.669,34.939,34.939,0,0,0,10.537,2.166c4.068.223,8.144.372,12.218.416,6.316.069,12.633.036,18.95.019,6.054-.016,12.109-.049,18.147-.562a34.957,34.957,0,0,0,8.926-1.891,27.115,27.115,0,0,0,17.091-17.075,34.39,34.39,0,0,0,1.975-9.925c.224-4.33.353-8.667.434-13C-602.63-603.077-602.685-606.82-602.685-610.562Z" transform="translate(729.689 683.758)" fill="#00ace7"/>
            <path id="Path_3691" data-name="Path 3691" d="M-348.114-347.715c-.041,5.076-.041,10.153-.139,15.228-.059,3.072-.213,6.145-.431,9.209a23.73,23.73,0,0,1-2.008,8.152,17.372,17.372,0,0,1-9.011,8.969,25.453,25.453,0,0,1-8.369,2.017c-5.23.433-10.474.462-15.718.459-7.389-.005-14.778.018-22.167-.056-3.477-.035-6.956-.21-10.426-.434A24.267,24.267,0,0,1-424.29-306a17.435,17.435,0,0,1-9.673-9.714,26.647,26.647,0,0,1-1.854-8.411c-.363-5.09-.436-10.189-.429-15.29.01-7.269-.013-14.538.057-21.807.032-3.382.21-6.764.4-10.142a26.3,26.3,0,0,1,1.189-6.526,17.772,17.772,0,0,1,12.352-12.249,32.8,32.8,0,0,1,8.1-1.274c10.029-.5,20.065-.278,30.1-.3,3.67-.007,7.341.071,11.009.174a47.838,47.838,0,0,1,8.671.824,23.214,23.214,0,0,1,4.628,1.459,17.386,17.386,0,0,1,9.033,8.947,24.921,24.921,0,0,1,2.034,8.148c.383,4.2.454,8.423.472,12.641.017,3.932,0,7.865,0,11.8Zm-16.55,0a27.491,27.491,0,0,0-27.529-27.524,27.507,27.507,0,0,0-27.554,27.507,27.573,27.573,0,0,0,27.573,27.574A27.569,27.569,0,0,0-364.663-347.718Zm1.119-22.23a6.382,6.382,0,0,0,6.419-6.387,6.418,6.418,0,0,0-6.371-6.452,6.45,6.45,0,0,0-6.47,6.439A6.413,6.413,0,0,0-363.545-369.948Z" transform="translate(465.551 420.904)" fill="#00ace7"/>
            <path id="Path_3692" data-name="Path 3692" d="M-174.612-112.361a17.94,17.94,0,0,1,17.952-17.9,17.946,17.946,0,0,1,17.887,18.045,17.868,17.868,0,0,1-17.961,17.808A17.856,17.856,0,0,1-174.612-112.361Z" transform="translate(230.046 185.536)" fill="#00ace7"/>
        </g>
    </g>
</svg>
