<svg xmlns="http://www.w3.org/2000/svg" width="100.574" height="71.841" viewBox="0 0 100.574 71.841">
    <g id="VT96xm.tif" transform="translate(0 0)">
        <g id="Group_1203" data-name="Group 1203" transform="translate(0 0)">
            <path id="Path_5200" data-name="Path 5200" d="M288.919,881.1a25.527,25.527,0,0,1,3.755-.558c13.236-.041,26.473-.025,39.709-.025,15.293,0,30.586-.016,45.878.031a23.01,23.01,0,0,1,3.882.667l.02.382c-.216.234-.42.482-.651.7q-20.941,19.814-41.89,39.619a5.813,5.813,0,0,1-8.278.032q-20.883-19.875-41.747-39.769c-.235-.224-.449-.471-.672-.708Z" transform="translate(-285.063 -880.51)" fill="#00ace7"/>
            <path id="Path_5201" data-name="Path 5201" d="M380.452,1088.488a22.035,22.035,0,0,1-3.538.576q-20.754.062-41.508.029-22.1,0-44.2.007a6.9,6.9,0,0,1-4.065-1.113L320,1056.918c.271.227.528.42.759.639q4.112,3.9,8.217,7.8a7.083,7.083,0,0,0,10.167.055c2.91-2.738,5.8-5.5,8.788-8.345l32.558,31.021Z" transform="translate(-283.685 -1017.26)" fill="#00ace7"/>
            <path id="Path_5202" data-name="Path 5202" d="M272.161,965.43c-.518-1.424-.51-60.1-.062-61.39l32.242,30.741a6.046,6.046,0,0,0-1.058.651q-14.36,13.639-28.692,27.308C273.716,963.575,272.962,964.536,272.161,965.43Z" transform="translate(-271.767 -898.75)" fill="#00ace7"/>
            <path id="Path_5203" data-name="Path 5203" d="M607.659,964.352c-2.321-2.157-4.662-4.294-6.961-6.475q-12.247-11.613-24.472-23.25c-.216-.205-.449-.394-.7-.611.861-.872,1.643-1.707,2.47-2.495q13.684-13.031,27.371-26.06c.748-.713,1.366-1.563,2.176-2.5a12.914,12.914,0,0,1,.259,1.806q.02,29.05,0,58.1a13.58,13.58,0,0,1-.244,1.827Z" transform="translate(-507.239 -897.913)" fill="#00ace7"/>
        </g>
    </g>
</svg>
