<svg xmlns="http://www.w3.org/2000/svg" width="100.574" height="100.518" viewBox="0 0 100.574 100.518">
    <g id="JaupUD.tif" transform="translate(0 0)">
        <g id="Group_1202" data-name="Group 1202" transform="translate(0 0)">
            <path id="Path_5199" data-name="Path 5199" d="M327.977,1065.15a71.012,71.012,0,0,1,5.936,4.624c4.349,4.155,8.549,8.465,12.79,12.731,3.867,3.889,3.859,7.9.008,11.76q-4.02,4.026-8.044,8.047c-1.969,1.98-2.1,3.084-.528,5.3a121.62,121.62,0,0,0,28.972,28.992c2.248,1.6,3.363,1.491,5.308-.441,2.876-2.857,5.728-5.738,8.607-8.593,3.06-3.034,7.188-3.314,10.318-.319q8.29,7.931,16.234,16.222c3.038,3.165,2.747,7.33-.369,10.472-2.118,2.135-4.3,4.21-6.369,6.393-3.4,3.588-7.682,5.044-12.463,5.289-7.222.37-13.955-1.644-20.447-4.525-13.91-6.174-25.53-15.48-35.734-26.627-8.8-9.619-16.143-20.207-20.45-32.638-1.123-3.243-1.755-6.656-2.612-9.99v-7.459c1.665-8.977,8.554-13.9,14.917-19.236Z" transform="translate(-309.134 -1065.15)" fill="#00ace7"/>
        </g>
    </g>
</svg>
